<svg xmlns="http://www.w3.org/2000/svg" height="511pt" version="1.1" viewBox="-125 0 511 511.9996" width="511pt">
<g id="surface1">
<path d="M 227.867188 242.085938 C 137.566406 223.996094 65.101562 260.414062 65.101562 260.414062 C 40.402344 277.417969 19.355469 300.820312 7.066406 325.726562 L 7.074219 325.738281 C 2.902344 332.738281 0.5 342.320312 0.5 354.039062 L 0.5 466.59375 L 39.808594 489.285156 C 79.75 512.351562 127.371094 518.140625 171.679688 505.320312 C 209.722656 494.316406 241.808594 468.59375 260.824219 433.851562 L 260.824219 321.296875 C 260.828125 293.113281 246.984375 261.257812 227.867188 242.085938 Z M 227.867188 242.085938 " style=" stroke:none;fill-rule:nonzero;fill:rgb(83.921569%,83.921569%,83.921569%);fill-opacity:1;" />
<path d="M 244.085938 73.875 C 244.101562 74.34375 244.121094 74.808594 244.125 75.28125 C 243.929688 43.40625 222.246094 15.414062 191.671875 6.398438 C 141.296875 -8.464844 70.84375 -0.792969 36.394531 65.65625 C -10.667969 156.433594 65.101562 238.9375 65.101562 238.9375 L 65.109375 238.929688 L 65.101562 270.808594 L 74.195312 273.554688 C 94.359375 279.648438 115.019531 283.890625 135.910156 286.246094 C 150.886719 293.273438 169.117188 293.554688 185.484375 284.101562 C 221.773438 263.152344 244.125 224.433594 244.125 182.535156 L 244.125 74.003906 Z M 244.085938 73.875 " style=" stroke:none;fill-rule:nonzero;fill:rgb(40.392157%,27.45098%,22.745098%);fill-opacity:1;" />
<path d="M 185.488281 284.101562 C 180.125 287.199219 174.5625 289.214844 168.980469 290.328125 L 187.832031 304.371094 L 192.851562 279.46875 C 190.460938 281.09375 188.011719 282.644531 185.488281 284.101562 Z M 185.488281 284.101562 " style=" stroke:none;fill-rule:nonzero;fill:rgb(100%,100%,100%);fill-opacity:1;" />
<path d="M 65.101562 260.449219 C 40.410156 277.453125 19.351562 300.828125 7.066406 325.726562 L 7.074219 325.738281 C 2.902344 332.738281 0.5 342.320312 0.5 354.039062 L 0.5 466.59375 L 39.808594 489.285156 C 67.015625 504.996094 97.785156 512.671875 128.640625 511.929688 L 128.640625 361.941406 C 128.640625 329.535156 111.808594 299.460938 84.1875 282.515625 L 65.101562 270.808594 Z M 65.101562 260.449219 " style=" stroke:none;fill-rule:nonzero;fill:rgb(5.098039%,40.784314%,74.509804%);fill-opacity:1;" />
<path d="M 40.648438 342.796875 L 36.296875 340.28125 C 20.175781 330.976562 7.105469 340.855469 7.105469 362.351562 L 7.105469 470.289062 L 43.398438 491.238281 C 51.921875 495.890625 60.761719 499.796875 69.839844 502.894531 L 69.839844 398.570312 C 69.839844 377.074219 56.773438 352.101562 40.648438 342.796875 Z M 40.648438 342.796875 " style=" stroke:none;fill-rule:nonzero;fill:rgb(3.529412%,27.843137%,51.764706%);fill-opacity:1;" />
<path d="M 244.125 75.28125 C 243.929688 43.40625 222.246094 15.414062 191.671875 6.394531 C 141.296875 -8.464844 70.84375 -0.792969 36.394531 65.65625 C -10.667969 156.433594 65.101562 238.9375 65.101562 238.9375 L 79.875 219.261719 L 77.152344 217.691406 C 68.542969 212.71875 63.242188 203.535156 63.242188 193.59375 C 63.242188 185.109375 72.363281 179.796875 79.734375 183.921875 L 79.734375 213.289062 C 90.949219 219.765625 104.964844 211.671875 104.964844 198.722656 L 104.964844 144.765625 C 145.9375 124.601562 244.125 75.859375 244.125 75.859375 C 244.128906 75.664062 244.125 75.472656 244.125 75.28125 Z M 244.125 75.28125 " style=" stroke:none;fill-rule:nonzero;fill:rgb(30.196078%,20.784314%,17.254902%);fill-opacity:1;" />
<path d="M 244.085938 73.875 C 244.101562 74.34375 244.121094 74.808594 244.125 75.28125 C 244.125 75.472656 244.125 75.664062 244.125 75.859375 C 244.125 75.859375 145.9375 124.601562 104.964844 144.765625 L 104.964844 198.722656 C 104.964844 211.671875 90.949219 219.761719 79.734375 213.289062 L 79.734375 183.917969 C 72.367188 179.796875 63.242188 185.109375 63.242188 193.59375 C 63.242188 203.53125 68.542969 212.71875 77.152344 217.6875 L 79.875 219.261719 L 65.105469 238.929688 C 73.292969 248 82.9375 255.886719 93.832031 262.179688 L 128.699219 282.1875 L 128.695312 282.179688 C 144.738281 292.917969 166.382812 295.128906 185.484375 284.101562 C 221.773438 263.152344 244.125 224.433594 244.125 182.53125 L 244.125 74.003906 Z M 244.085938 73.875 " style=" stroke:none;fill-rule:nonzero;fill:rgb(50.196078%,34.117647%,28.627451%);fill-opacity:1;" />
<path d="M 227.867188 242.085938 C 219.0625 257.023438 206.953125 270.023438 192.183594 279.929688 C 207.160156 300.429688 215.234375 325.160156 215.234375 350.550781 L 215.234375 484.527344 C 233.96875 471.5 249.664062 454.25 260.828125 433.855469 L 260.828125 321.296875 C 260.828125 293.113281 246.984375 261.257812 227.867188 242.085938 Z M 227.867188 242.085938 " style=" stroke:none;fill-rule:nonzero;fill:rgb(5.098039%,40.784314%,74.509804%);fill-opacity:1;" />
<path d="M 164.90625 290.976562 L 152.574219 315.511719 L 158.453125 320.390625 L 173.890625 311.476562 L 180.445312 298.867188 L 169 290.324219 C 167.636719 290.597656 166.273438 290.816406 164.90625 290.976562 Z M 164.90625 290.976562 " style=" stroke:none;fill-rule:nonzero;fill:rgb(90.980392%,29.803922%,23.921569%);fill-opacity:1;" />
<path d="M 135.96875 286.253906 C 115.058594 283.898438 94.378906 279.65625 74.195312 273.554688 L 65.101562 270.808594 L 149.113281 322.34375 L 164.996094 290.96875 C 154.886719 292.183594 144.859375 290.414062 135.96875 286.253906 Z M 135.96875 286.253906 " style=" stroke:none;fill-rule:nonzero;fill:rgb(100%,100%,100%);fill-opacity:1;" />
<path d="M 135.96875 286.253906 C 136.109375 286.320312 136.25 286.371094 136.390625 286.4375 C 133.71875 285.222656 131.136719 283.816406 128.695312 282.183594 L 128.699219 282.1875 L 93.832031 262.179688 C 82.9375 255.886719 73.296875 248.003906 65.109375 238.929688 L 65.101562 270.808594 L 74.195312 273.554688 C 94.378906 279.65625 115.058594 283.898438 135.96875 286.253906 Z M 135.96875 286.253906 " style=" stroke:none;fill-rule:nonzero;fill:rgb(40.392157%,27.45098%,22.745098%);fill-opacity:1;" />
<path d="M 170.699219 170.820312 C 170.699219 178.726562 165.890625 187.914062 159.960938 191.335938 C 154.027344 194.761719 149.222656 191.125 149.222656 183.21875 C 149.222656 175.3125 154.03125 166.125 159.960938 162.703125 C 165.890625 159.277344 170.699219 162.910156 170.699219 170.820312 Z M 170.699219 170.820312 " style=" stroke:none;fill-rule:nonzero;fill:rgb(30.196078%,20.784314%,17.254902%);fill-opacity:1;" />
<path d="M 223.121094 140.582031 C 223.121094 148.488281 218.3125 157.675781 212.382812 161.101562 C 206.453125 164.523438 201.644531 160.890625 201.644531 152.984375 C 201.644531 145.074219 206.453125 135.890625 212.382812 132.464844 C 218.3125 129.039062 223.121094 132.675781 223.121094 140.582031 Z M 223.121094 140.582031 " style=" stroke:none;fill-rule:nonzero;fill:rgb(30.196078%,20.784314%,17.254902%);fill-opacity:1;" />
<path d="M 158.449219 320.390625 L 166.164062 450.375 L 192.183594 474.253906 L 209.574219 430.734375 L 173.890625 311.476562 Z M 158.449219 320.390625 " style=" stroke:none;fill-rule:nonzero;fill:rgb(67.45098%,22.352941%,17.647059%);fill-opacity:1;" />
<path d="M 141.25 230.25 L 219.460938 185.09375 L 219.460938 201.078125 C 219.460938 227.152344 205.550781 251.242188 182.972656 264.28125 C 164.429688 274.984375 141.253906 261.605469 141.253906 240.195312 L 141.253906 230.25 Z M 141.25 230.25 " style=" stroke:none;fill-rule:nonzero;fill:rgb(90.980392%,29.803922%,23.921569%);fill-opacity:1;" />
</g>
</svg>