<svg height="512pt" viewBox="-16 0 512 512" width="512pt" xmlns="http://www.w3.org/2000/svg"><path d="m134.875 512h-38.234375v-57.960938c0-23.050781 18.671875-41.726562 41.722656-41.726562h40.5zm0 0" fill="#52b2de"/><path d="m301.953125 412.3125h40.5c23.050781 0 41.722656 18.675781 41.722656 41.726562v57.960938h-38.234375zm0 0" fill="#52b2de"/><path d="m338.828125 468.886719c-6.980469-20.746094-19.558594-42.304688-36.875-56.574219-1.597656-1.316406-3.242187-2.582031-4.921875-3.765625h-113.246094c-1.675781 1.183594-3.324218 2.4375-4.921875 3.765625-17.304687 14.257812-29.894531 35.828125-36.875 56.574219-4.652343 13.835937-7.113281 28.433593-7.113281 43.113281h211.066406c0-14.679688-2.460937-29.277344-7.113281-43.113281zm0 0" fill="#e8e8e8"/><path d="m201.527344 412.3125c1.597656-1.328125 3.246094-2.582031 4.921875-3.765625h-22.664063c-1.675781 1.183594-3.324218 2.4375-4.921875 3.765625-17.304687 14.257812-29.894531 35.828125-36.875 56.574219-4.652343 13.835937-7.113281 28.433593-7.113281 43.113281h22.664062c0-14.679688 2.460938-29.277344 7.113282-43.113281 6.980468-20.746094 19.570312-42.316407 36.875-56.574219zm0 0" fill="#d6d6d6"/><path d="m279.011719 453.066406h-77.207031c-10.707032 0-19.386719 8.679688-19.386719 19.386719v39.546875h115.980469v-39.546875c0-10.707031-8.679688-19.386719-19.386719-19.386719zm0 0" fill="#94ddff"/><path d="m222.410156 453.066406h-20.605468c-10.707032 0-19.386719 8.679688-19.386719 19.386719v39.546875h20.601562v-39.546875c0-10.707031 8.683594-19.386719 19.390625-19.386719zm0 0" fill="#52b2de"/><path d="m229.941406 482.53125c0 4.929688-3.996094 8.925781-8.921875 8.925781-4.929687 0-8.921875-3.996093-8.921875-8.925781 0-4.925781 3.992188-8.921875 8.921875-8.921875 4.925781 0 8.921875 3.996094 8.921875 8.921875zm0 0" fill="#394048"/><path d="m268.71875 482.53125c0 4.929688-3.992188 8.925781-8.921875 8.925781-4.925781 0-8.921875-3.996093-8.921875-8.925781 0-4.925781 3.996094-8.921875 8.921875-8.921875 4.929687 0 8.921875 3.996094 8.921875 8.921875zm0 0" fill="#e16668"/><path d="m449.394531 47.867188-18.015625 15.785156v160.324218c0 9.945313 8.0625 18.015626 18.015625 18.015626 9.957031 0 18.015625-8.070313 18.015625-18.015626v-160.324218zm0 0" fill="#394048"/><path d="m48.457031 160.886719c-26.761719 0-48.457031 21.695312-48.457031 48.457031v29.269531c0 26.761719 21.695312 48.453125 48.457031 48.453125h17.964844v-126.179687zm0 0" fill="#52b2de"/><path d="m432.359375 160.886719c26.761719 0 48.457031 21.695312 48.457031 48.457031v29.269531c0 26.761719-21.695312 48.453125-48.457031 48.453125h-17.964844v-126.179687zm0 0" fill="#52b2de"/><path d="m298.398438 28.878906c84.285156 25.3125 149.207031 103.699219 149.207031 195.097656 0 112.492188-92.757813 203.675782-207.195313 203.675782-114.429687 0-207.195312-91.183594-207.195312-203.675782 0-91.398437 64.917968-169.785156 149.203125-195.097656zm0 0" fill="#e8e8e8"/><path d="m323.453125 118.71875h-166.085937c-39.992188 0-72.410157 32.417969-72.410157 72.40625v65.703125c0 39.988281 32.417969 72.410156 72.410157 72.410156h166.085937c39.992187 0 72.410156-32.421875 72.410156-72.410156v-65.703125c0-39.988281-32.417969-72.40625-72.410156-72.40625zm0 0" fill="#394048"/><path d="m157.367188 293.203125c-20.058594 0-36.378907-16.316406-36.378907-36.375v-65.703125c0-20.054688 16.320313-36.375 36.378907-36.375h166.085937c20.058594 0 36.378906 16.320312 36.378906 36.375v65.703125c0 20.058594-16.320312 36.375-36.378906 36.375zm0 0" fill="#f5cdb6"/><path d="m323.453125 154.75h-166.085937c-20.058594 0-36.378907 16.320312-36.378907 36.375v20.605469c0-20.058594 16.320313-36.378907 36.378907-36.378907h166.085937c20.058594 0 36.378906 16.320313 36.378906 36.378907v-20.605469c-.003906-20.054688-16.320312-36.375-36.378906-36.375zm0 0" fill="#e2b3a3"/><path d="m316.460938 228.230469c-4.269532 0-7.726563-3.460938-7.726563-7.726563v-14.789062c0-4.265625 3.457031-7.726563 7.726563-7.726563 4.265624 0 7.726562 3.460938 7.726562 7.726563v14.789062c0 4.265625-3.460938 7.726563-7.726562 7.726563zm0 0" fill="#394048"/><path d="m326.53125 249.964844h-20.140625c-4.269531 0-7.726563-3.460938-7.726563-7.726563s3.457032-7.726562 7.726563-7.726562h20.140625c4.265625 0 7.726562 3.460937 7.726562 7.726562s-3.460937 7.726563-7.726562 7.726563zm0 0" fill="#e98e8f"/><path d="m164.355469 228.230469c-4.265625 0-7.726563-3.460938-7.726563-7.726563v-14.789062c0-4.265625 3.460938-7.726563 7.726563-7.726563 4.269531 0 7.726562 3.460938 7.726562 7.726563v14.789062c0 4.265625-3.457031 7.726563-7.726562 7.726563zm0 0" fill="#394048"/><path d="m174.425781 249.964844h-20.140625c-4.265625 0-7.726562-3.460938-7.726562-7.726563s3.460937-7.726562 7.726562-7.726562h20.140625c4.269531 0 7.726563 3.460937 7.726563 7.726562s-3.457032 7.726563-7.726563 7.726563zm0 0" fill="#e98e8f"/><path d="m240.410156 249.128906c-7.53125 0-14.609375-3.15625-19.421875-8.660156-2.808593-3.210938-2.480469-8.09375.730469-10.902344 3.214844-2.808594 8.09375-2.480468 10.902344.734375 1.878906 2.144531 4.714844 3.375 7.789062 3.375 3.070313 0 5.90625-1.230469 7.78125-3.375 2.808594-3.214843 7.691406-3.542969 10.902344-.734375 3.214844 2.808594 3.542969 7.6875.734375 10.902344-4.808594 5.503906-11.886719 8.660156-19.417969 8.660156zm0 0" fill="#394048"/><path d="m240.410156 427.652344c3.773438 0 7.535156-.105469 11.304688-.304688 1.386718-.074218 2.769531-.160156 4.144531-.257812-107.210937-7.769532-191.742187-95.730469-191.742187-203.113282 0-91.398437 64.921874-169.785156 149.207031-195.097656h-30.90625c-35.378907 10.625-67.707031 30.777344-93.101563 57.570313-34.484375 36.378906-56.105468 84.785156-56.105468 137.527343 0 93.75 67.90625 176.839844 159.097656 198.160157 15.75 3.679687 31.921875 5.515625 48.101562 5.515625zm0 0" fill="#d6d6d6"/><path d="m298.398438 28.878906v89.84375h-115.980469v-89.84375c18.550781-5.570312 38.050781-8.578125 57.992187-8.578125 19.9375 0 39.4375 3.007813 57.988282 8.578125zm0 0" fill="#52b2de"/><path d="m182.417969 28.878906v12.046875c9.929687-4.808593 20.261719-8.851562 30.90625-12.046875 13.726562-4.125 27.976562-6.835937 42.539062-7.972656-2.515625-.195312-5.039062-.34375-7.570312-.445312-.050781 0-.101563-.003907-.148438-.007813-9.988281-.40625-20.023437-.027344-29.957031 1.09375-12.113281 1.367187-24.09375 3.824219-35.769531 7.332031zm0 0" fill="#49a0c7"/><path d="m467.414062 18.015625v45.636719h-36.035156v-45.636719c0-9.953125 8.0625-18.015625 18.015625-18.015625 9.957031 0 18.019531 8.0625 18.019531 18.015625zm0 0" fill="#52b2de"/></svg>