<?xml version="1.0" encoding="iso-8859-1"?>
<!-- Generator: Adobe Illustrator 19.0.0, SVG Export Plug-In . SVG Version: 6.00 Build 0)  -->
<svg xmlns="http://www.w3.org/2000/svg" xmlns:xlink="http://www.w3.org/1999/xlink" version="1.1" id="Layer_1" x="0px" y="0px" viewBox="0 0 512 512" style="enable-background:new 0 0 512 512;" xml:space="preserve" width="512" height="512">
<g id="XMLID_1287_">
	<g id="XMLID_1792_">
		<path id="XMLID_1808_" style="fill:#72D8FF;" d="M502,308.094V203.906h-41.709c-5.025-19.768-12.85-38.414-23.018-55.506    l29.511-29.512l-73.672-73.672L363.6,74.727c-17.092-10.168-35.739-17.993-55.506-23.018V10H203.906v41.709    c-19.768,5.025-38.414,12.851-55.507,23.018l-29.512-29.512l-73.672,73.672l29.512,29.512    c-10.168,17.092-17.992,35.739-23.018,55.506H10v104.188h41.709c5.026,19.768,12.851,38.414,23.018,55.506l-29.512,29.512    l73.672,73.672l29.512-29.512c17.092,10.168,35.739,17.993,55.507,23.018V502h104.188v-41.709    c19.767-5.026,38.414-12.851,55.506-23.018l29.512,29.512l73.672-73.672l-29.511-29.512    c10.168-17.092,17.992-35.739,23.018-55.506H502z"/>
	</g>
	<circle id="XMLID_1401_" style="fill:#FFFFFF;" cx="256" cy="256" r="152"/>
	<g id="XMLID_1573_">
		<path id="XMLID_1588_" style="fill:#FFB954;" d="M256,146.001c20.04,0,38.826,5.362,55.008,14.725l-0.008,0.013l-41.976,72.704    c-3.832-2.217-8.278-3.493-13.024-3.493c-4.746,0-9.191,1.275-13.024,3.493l-41.976-72.704l-0.007-0.013    C217.174,151.362,235.961,146.001,256,146.001z"/>
		<path id="XMLID_1587_" style="fill:#FFB954;" d="M282.051,256h83.948l0.015,0c0.017,18.695-4.733,37.645-14.752,54.999    c-10.02,17.355-24.056,30.944-40.256,40.276L311,351.262l-41.976-72.704C276.809,274.053,282.051,265.641,282.051,256z"/>
		<path id="XMLID_1586_" style="fill:#FFB954;" d="M146.001,256h83.948c0,9.641,5.242,18.053,13.027,22.558L201,351.262    l-0.007,0.014c-16.199-9.332-30.236-22.921-40.256-40.276c-10.02-17.355-14.77-36.305-14.752-54.999L146.001,256z"/>
		<g id="XMLID_664_">
			<path id="XMLID_667_" d="M502,193.906h-34.078c-4.45-15.206-10.542-29.896-18.18-43.834l24.113-24.113     c3.905-3.905,3.905-10.237,0-14.143l-73.672-73.672c-3.904-3.904-10.237-3.904-14.142,0l-24.113,24.113     c-13.938-7.639-28.626-13.73-43.833-18.181V10c0-5.522-4.477-10-10-10H203.906c-5.523,0-10,4.478-10,10v34.077     c-15.207,4.45-29.896,10.542-43.834,18.181l-24.113-24.113c-3.904-3.904-10.237-3.904-14.142,0l-73.672,73.672     c-1.875,1.876-2.929,4.419-2.929,7.071s1.054,5.195,2.929,7.071l24.113,24.113c-7.638,13.938-13.73,28.627-18.18,43.834H10     c-5.523,0-10,4.478-10,10v104.188c0,5.522,4.477,10,10,10h34.077c4.451,15.208,10.542,29.897,18.18,43.835l-24.113,24.112     c-1.875,1.876-2.929,4.419-2.929,7.071s1.054,5.195,2.929,7.071l73.672,73.672c3.905,3.904,10.238,3.904,14.142,0l24.113-24.113     c13.938,7.639,28.627,13.73,43.834,18.181V502c0,5.522,4.477,10,10,10h104.188c5.523,0,10-4.478,10-10v-34.077     c15.207-4.45,29.896-10.542,43.833-18.181l24.113,24.113c3.905,3.904,10.238,3.904,14.142,0l73.672-73.672     c3.905-3.905,3.906-10.237,0-14.143l-24.113-24.112c7.638-13.938,13.73-28.627,18.18-43.835H502c5.523,0,10-4.478,10-10V203.906     C512,198.384,507.523,193.906,502,193.906z M492,298.094h-31.709c-4.574,0-8.565,3.104-9.692,7.536     c-4.716,18.552-12.091,36.336-21.92,52.858c-2.339,3.932-1.711,8.948,1.523,12.184l22.44,22.44l-59.53,59.529l-22.44-22.44     c-3.235-3.235-8.251-3.862-12.184-1.522c-16.523,9.829-34.307,17.204-52.857,21.921c-4.433,1.127-7.536,5.117-7.536,9.691V492     h-84.188v-31.709c0-4.574-3.104-8.564-7.536-9.691c-18.549-4.716-36.333-12.092-52.857-21.922     c-3.933-2.339-8.949-1.711-12.184,1.523l-22.44,22.44l-59.53-59.529l22.44-22.44c3.235-3.235,3.862-8.252,1.523-12.184     c-9.829-16.522-17.204-34.307-21.92-52.858c-1.127-4.433-5.118-7.536-9.692-7.536H20v-84.188h31.709     c4.574,0,8.564-3.104,9.692-7.536c4.716-18.55,12.091-36.334,21.92-52.858c2.339-3.932,1.711-8.948-1.523-12.184l-22.44-22.44     l59.53-59.529l22.44,22.44c3.235,3.235,8.252,3.86,12.184,1.523c16.524-9.83,34.308-17.206,52.857-21.922     c4.433-1.127,7.536-5.117,7.536-9.691V20h84.188v31.709c0,4.574,3.103,8.564,7.536,9.691     c18.55,4.717,36.333,12.092,52.857,21.921c3.932,2.339,8.949,1.711,12.184-1.522l22.44-22.44l59.53,59.529l-22.44,22.44     c-3.234,3.235-3.862,8.252-1.523,12.184c9.829,16.524,17.204,34.309,21.92,52.858c1.127,4.433,5.118,7.536,9.692,7.536H492     V298.094z"/>
			<path id="XMLID_668_" d="M256.38,114.001c0.022,0,0.044,0,0.066,0c5.517,0,10.034-4.467,10.043-9.983     c0.009-5.517-4.493-9.999-10.01-10.017c-0.012,0-0.022,0-0.034,0c-5.501,0-10.015,4.445-10.042,9.95     C246.376,109.468,250.864,113.965,256.38,114.001z"/>
			<path id="XMLID_669_" d="M298.625,99.669c-5.33-1.451-10.824,1.695-12.274,7.024c-1.45,5.329,1.695,10.824,7.024,12.274     C354.977,135.727,398,192.076,398,256c0,78.299-63.701,142-142,142s-142-63.701-142-142c0-63.924,43.023-120.273,104.625-137.032     c5.329-1.45,8.474-6.945,7.024-12.274c-1.45-5.33-6.944-8.475-12.274-7.024C143.088,118.791,94,183.076,94,256     c0,89.327,72.673,162,162,162s162-72.673,162-162C418,183.076,368.912,118.791,298.625,99.669z"/>
			<path id="XMLID_871_" d="M319.601,165.84c1.327-2.229,1.738-4.894,1.135-7.429c-0.636-2.672-2.343-4.965-4.72-6.341     c-18.168-10.513-38.921-16.069-60.016-16.069c-21.094,0-41.847,5.557-60.015,16.068c-4.67,2.702-6.347,8.635-3.799,13.392     c0.05,0.093,0.102,0.186,0.155,0.277l37.695,65.29c-4.004,4.162-7.018,9.278-8.664,14.972h-75.385c-5.519,0-9.995,4.472-10,9.99     c-0.02,20.99,5.545,41.741,16.092,60.009c10.546,18.269,25.735,33.463,43.924,43.941c1.53,0.881,3.25,1.33,4.983,1.33     c0.971,0,1.946-0.141,2.893-0.426c2.453-0.738,4.524-2.392,5.793-4.601l37.672-65.251c2.775,0.687,5.673,1.058,8.657,1.058     s5.882-0.371,8.657-1.058l37.621,65.162c1.263,2.26,3.357,3.947,5.848,4.696c0.943,0.283,1.914,0.424,2.88,0.424     c1.736,0,3.459-0.452,4.992-1.335c18.188-10.479,33.377-25.673,43.924-43.941c10.547-18.268,16.112-39.019,16.092-60.009     c-0.005-5.519-4.496-9.99-10.015-9.99h-75.37c-1.647-5.694-4.66-10.81-8.664-14.972L319.601,165.84z M256,156.001     c14.22,0,28.25,3.027,41.098,8.815l-32.442,56.19c-2.775-0.687-5.673-1.058-8.657-1.058s-5.882,0.371-8.657,1.058l-32.442-56.19     C227.751,159.027,241.779,156.001,256,156.001z M197.582,337.184c-11.438-8.232-21.073-18.869-28.183-31.185     c-7.11-12.315-11.504-25.977-12.915-39.999h64.888c1.647,5.694,4.66,10.81,8.664,14.972L197.582,337.184z M239.949,256     c0-8.851,7.2-16.051,16.051-16.051s16.051,7.2,16.051,16.051s-7.2,16.051-16.051,16.051S239.949,264.851,239.949,256z      M342.602,305.999c-7.11,12.315-16.746,22.952-28.183,31.185l-32.454-56.212c4.004-4.162,7.018-9.278,8.664-14.972h64.888     C354.105,280.022,349.712,293.684,342.602,305.999z"/>
		</g>
	</g>
</g>















</svg>
