<?xml version="1.0" encoding="iso-8859-1"?>
<!-- Generator: Adobe Illustrator 19.0.0, SVG Export Plug-In . SVG Version: 6.00 Build 0)  -->
<svg version="1.1" id="Capa_1" xmlns="http://www.w3.org/2000/svg" xmlns:xlink="http://www.w3.org/1999/xlink" x="0px" y="0px"
	 viewBox="0 0 512.002 512.002" style="enable-background:new 0 0 512.002 512.002;" xml:space="preserve">
<path style="fill:#F1C372;" d="M323.602,248.496c-6.098-12.455-21.076-17.783-33.698-11.898l-35.594,16.598l-59.19-21.543
	l7.857-21.587c4.82-13.243-2.008-27.886-15.252-32.707c-13.241-4.818-27.885,2.008-32.707,15.252l-7.857,21.586l-60.997-22.201
	c-10.286-3.743-21.431-3.17-31.302,1.625c-9.577,4.653-16.787,13.088-20.429,23.093L22.8,248.673
	c-4.82,13.244,2.008,27.886,15.252,32.707c13.242,4.818,27.885-2.008,32.707-15.252l6.087-16.723
	c1.152-3.165,4.651-4.796,7.815-3.645l32.268,11.745c3.165,1.152,4.796,4.651,3.644,7.815l-13.569,37.282
	c-1.344,3.692-4.099,6.698-7.659,8.359l-14.955,6.974c-3.521,1.642-7.549,1.818-11.199,0.489L41.75,306.98
	c-13.241-4.817-27.886,2.009-32.707,15.252c-4.82,13.244,2.009,27.886,15.252,32.707l45.745,16.649
	c5.251,1.911,10.691,2.862,16.118,2.862c6.774,0,13.524-1.483,19.846-4.431l27.518-12.832l23.36,8.502
	c3.165,1.152,4.796,4.651,3.645,7.815l-9.209,25.301c-4.82,13.244,2.008,27.886,15.252,32.707c2.881,1.048,5.827,1.546,8.726,1.546
	c10.423,0,20.209-6.436,23.981-16.798l15.014-41.251c7.574-20.806-3.193-43.896-24.001-51.472l-8.557-3.114
	c-5.337-1.942-8.089-7.844-6.146-13.181l7.038-19.337c1.152-3.165,4.651-4.796,7.815-3.644l47.971,17.46
	c5.251,1.911,10.692,2.863,16.118,2.862c6.774,0,13.525-1.483,19.845-4.431l36.576-17.055
	C323.916,277.049,329.893,261.345,323.602,248.496z"/>
<path style="opacity:0.15;fill:#8D4330;enable-background:new    ;" d="M199.276,416.26l15.014-41.251
	c2.573-7.068,3.024-14.398,1.689-21.295c-101.493-5.228-57.539-118.634-45.351-147.2L154.003,195.4l-6.841,18.796l-60.997-22.201
	c-10.286-3.743-21.431-3.17-31.303,1.625c-9.577,4.652-16.787,13.088-20.429,23.093L22.8,248.674
	c-4.82,13.244,2.008,27.886,15.252,32.707c13.242,4.818,27.885-2.008,32.707-15.252l6.086-16.723
	c1.152-3.165,4.651-4.796,7.815-3.644l32.268,11.744c3.165,1.152,4.796,4.651,3.644,7.815l-13.569,37.282
	c-1.343,3.691-4.099,6.698-7.659,8.358l-14.955,6.974c-3.521,1.642-7.549,1.818-11.199,0.489L41.749,306.98
	c-13.241-4.817-27.886,2.009-32.707,15.252c-4.82,13.244,2.009,27.886,15.252,32.707l45.745,16.649
	c5.251,1.911,10.691,2.862,16.118,2.862c6.774,0,13.524-1.483,19.846-4.431l27.518-12.832l23.36,8.502
	c3.165,1.152,4.796,4.651,3.644,7.815l-9.209,25.301c-4.82,13.244,2.008,27.886,15.252,32.707c2.881,1.048,5.827,1.546,8.726,1.546
	C185.718,433.058,195.504,426.622,199.276,416.26z"/>
<circle style="fill:#F1C372;" cx="192.743" cy="159.294" r="80.341"/>
<g>
	<ellipse style="fill:#FFFFFF;" cx="167.973" cy="167.374" rx="15.871" ry="12.639"/>
	<ellipse style="fill:#FFFFFF;" cx="254.004" cy="167.374" rx="15.871" ry="12.639"/>
</g>
<ellipse style="fill:#495059;" cx="210.993" cy="157.664" rx="12.796" ry="14.319"/>
<path style="fill:#E68392;" d="M496.778,148.46l-72.38-52.334c-10.219-7.389-24.507-0.087-24.507,12.522v8.993
	c0,3.94-3.194,7.135-7.135,7.135h-70.823c-6.938,0-12.562,5.624-12.562,12.562v52.473c0,6.938,5.624,12.562,12.562,12.562h70.823
	c3.94,0,7.135,3.194,7.135,7.135v8.993c0,12.61,14.289,19.911,24.507,12.522l72.38-52.335
	C507.075,171.244,507.075,155.906,496.778,148.46z"/>
<g>
	<path style="opacity:0.1;fill:#8D4330;enable-background:new    ;" d="M192.742,239.634c25.106,0,47.516-11.521,62.25-29.559
		c-86.223,13.344-125.348-70.97-84.436-128.002c-33.577,9.631-58.159,40.543-58.159,77.217
		C112.397,203.663,148.369,239.634,192.742,239.634z"/>
	<path style="opacity:0.15;fill:#8D4330;enable-background:new    ;" d="M366.012,124.776h-44.078
		c-6.938,0-12.562,5.624-12.562,12.562v52.473c0,6.938,5.624,12.562,12.562,12.562h70.823c3.94,0,7.135,3.194,7.135,7.135v8.993
		c0,12.61,14.289,19.911,24.507,12.522l33.158-23.974C413.834,202.469,365.733,163.556,366.012,124.776z"/>
</g>
<path d="M251.349,159.955c4.143,0,7.5-3.357,7.5-7.5v-6.812c0-4.143-3.357-7.5-7.5-7.5s-7.5,3.357-7.5,7.5v6.812
	C243.849,156.597,247.206,159.955,251.349,159.955z M210.988,179.486c11.191,0,20.296-9.788,20.296-21.818
	c0-12.03-9.105-21.818-20.296-21.818c-11.191,0-20.296,9.788-20.296,21.818C190.692,169.698,199.797,179.486,210.988,179.486z
	 M210.988,150.849c2.871,0,5.296,3.122,5.296,6.818c0,3.696-2.425,6.818-5.296,6.818s-5.296-3.122-5.296-6.818
	C205.692,153.971,208.117,150.849,210.988,150.849z M501.173,142.382l-38.369-27.742c-3.355-2.425-8.044-1.674-10.473,1.684
	c-2.427,3.356-1.673,8.045,1.684,10.473l38.369,27.742c2.935,2.121,4.617,5.415,4.617,9.036s-1.683,6.915-4.617,9.036l-72.38,52.335
	c-2.47,1.787-5.564,2.024-8.278,0.638c-2.715-1.387-4.335-4.034-4.335-7.082v-8.993c0-8.069-6.564-14.635-14.634-14.635h-70.823
	c-2.791,0-5.063-2.271-5.063-5.062v-52.473c0-2.791,2.272-5.063,5.063-5.063h70.823c8.069,0,14.634-6.565,14.634-14.635v-8.993
	c0-3.047,1.62-5.694,4.334-7.081c2.715-1.389,5.81-1.148,8.278,0.636l5.447,3.94c3.357,2.428,8.046,1.675,10.473-1.682
	c2.428-3.356,1.674-8.046-1.682-10.473l-5.448-3.94c-7.023-5.077-16.179-5.782-23.894-1.838
	c-7.716,3.942-12.509,11.774-12.509,20.438v8.628h-70.456c-11.063,0-20.063,9-20.063,20.063v52.473c0,11.062,9,20.062,20.063,20.062
	h70.457v8.628c0,8.665,4.793,16.496,12.51,20.439c3.315,1.693,6.895,2.53,10.459,2.529c4.729,0,9.429-1.473,13.434-4.368
	l72.38-52.335c6.882-4.977,10.828-12.7,10.828-21.192C512.001,155.083,508.055,147.359,501.173,142.382z M170.628,159.955
	c4.143,0,7.5-3.357,7.5-7.5v-6.812c0-4.143-3.357-7.5-7.5-7.5c-4.143,0-7.5,3.357-7.5,7.5v6.812
	C163.128,156.597,166.485,159.955,170.628,159.955z M286.733,229.799l-32.778,15.284l-21.074-7.67
	c28.305-14.602,47.704-44.139,47.704-78.124c0-48.438-39.406-87.845-87.845-87.845c-48.437,0-87.844,39.406-87.844,87.845
	c0,11.824,2.382,23.367,6.87,34.042l-23.038-8.385c-12.231-4.451-25.423-3.767-37.145,1.927
	c-11.181,5.433-19.775,15.119-24.199,27.274l-11.632,31.959c-6.226,17.108,2.626,36.093,19.734,42.32
	c17.111,6.225,36.093-2.629,42.319-19.734l5.608-15.406l29.632,10.786l-13.09,35.963c-0.668,1.836-2.011,3.301-3.781,4.127
	l-14.956,6.974c-1.728,0.808-3.667,0.894-5.463,0.238l-31.443-11.444c-17.107-6.228-36.092,2.629-42.318,19.734
	c-6.227,17.108,2.626,36.094,19.734,42.32l45.744,16.649c6.042,2.198,12.327,3.314,18.683,3.314c7.968,0,15.712-1.728,23.017-5.134
	l24.702-11.519l19.123,6.96l-8.729,23.982c-6.227,17.108,2.626,36.092,19.736,42.32c3.645,1.326,7.442,1.998,11.289,1.998
	c13.828,0,26.297-8.733,31.028-21.732l15.015-41.252c8.987-24.691-3.79-52.095-28.483-61.085l-8.556-3.113
	c-1.443-0.526-2.19-2.127-1.665-3.568l6.559-18.021l46.651,16.979c6.041,2.2,12.324,3.315,18.674,3.315h0.01
	c7.967,0,15.711-1.728,23.016-5.134l36.576-17.056c8.158-3.804,14.567-10.883,17.584-19.422c2.976-8.421,2.489-17.396-1.366-25.272
	C322.485,229.157,302.924,222.251,286.733,229.799z M317.561,265.474c-1.684,4.766-5.248,8.711-9.78,10.824l-36.577,17.056
	c-5.305,2.474-10.915,3.728-16.677,3.728h-0.008c-4.595,0-9.151-0.81-13.543-2.41l-47.972-17.46
	c-7.048-2.564-14.863,1.084-17.427,8.127l-7.038,19.338c-3.354,9.214,1.415,19.439,10.629,22.794l8.557,3.114
	c16.922,6.16,25.678,24.938,19.518,41.858l-15.015,41.252c-2.582,7.096-9.387,11.863-16.933,11.863c-2.093,0-4.166-0.368-6.16-1.094
	c-9.336-3.398-14.168-13.759-10.77-23.094l9.209-25.303c2.563-7.045-1.083-14.863-8.127-17.427l-23.36-8.502
	c-1.869-0.68-3.934-0.592-5.735,0.251l-27.518,12.832c-5.305,2.474-10.915,3.728-16.677,3.728c-4.601,0-9.16-0.811-13.552-2.409
	l-45.744-16.649c-4.523-1.646-8.135-4.955-10.168-9.316c-2.034-4.361-2.248-9.255-0.601-13.777
	c3.397-9.335,13.755-14.169,23.094-10.77l31.44,11.444c5.561,2.022,11.575,1.76,16.936-0.74l14.954-6.973
	c5.401-2.519,9.499-6.99,11.538-12.591l13.569-37.283c1.242-3.412,1.08-7.104-0.454-10.396c-1.535-3.293-4.261-5.79-7.673-7.031
	l-32.269-11.745c-3.41-1.241-7.104-1.08-10.396,0.455c-3.292,1.535-5.788,4.26-7.03,7.672l-6.087,16.724
	c-3.397,9.335-13.757,14.168-23.094,10.77c-9.336-3.397-14.167-13.758-10.769-23.094l11.632-31.959
	c3.085-8.476,9.001-15.192,16.657-18.913c8.038-3.903,17.08-4.374,25.461-1.323l40.174,14.623c1.309,1.659,2.663,3.288,4.099,4.86
	c2.795,3.061,7.539,3.273,10.596,0.479c3.059-2.794,3.272-7.538,0.479-10.596c-12.284-13.445-19.049-30.889-19.049-49.117
	c0-40.166,32.677-72.845,72.844-72.845s72.845,32.678,72.845,72.845s-32.678,72.845-72.845,72.845
	c-9.584,0-18.897-1.831-27.681-5.441c-3.831-1.575-8.212,0.255-9.788,4.085c-1.575,3.831,0.254,8.213,4.085,9.788
	c10.602,4.358,21.833,6.568,33.384,6.568c6.142,0,12.138-0.636,17.928-1.842l41.074,14.949c1.868,0.679,3.93,0.59,5.735-0.251
	l35.593-16.597c8.838-4.122,19.51-0.351,23.793,8.398C318.936,256.023,319.184,260.881,317.561,265.474z"/>
<g>
</g>
<g>
</g>
<g>
</g>
<g>
</g>
<g>
</g>
<g>
</g>
<g>
</g>
<g>
</g>
<g>
</g>
<g>
</g>
<g>
</g>
<g>
</g>
<g>
</g>
<g>
</g>
<g>
</g>
</svg>
