<svg height="481.35294pt" viewBox="0 0 481.35294 481.35294" width="481.35294pt" xmlns="http://www.w3.org/2000/svg"><path d="m360.578125 184.578125c.082031 41.164063-14.332031 81.042969-40.722656 112.640625-6.890625 8.171875-14.464844 15.746094-22.636719 22.636719-63.363281 52.777343-154.867188 54.484375-220.15625 4.113281-65.285156-50.375-86.84375-139.320312-51.871094-213.996094 34.976563-74.675781 117.109375-115.054687 197.601563-97.152344 80.492187 17.90625 137.761719 89.296876 137.785156 171.757813zm0 0" fill="#ff9811"/><path d="m328.578125 184.578125c0 79.527344-64.472656 144-144 144-79.53125 0-144-64.472656-144-144 0-79.53125 64.46875-144 144-144 79.527344 0 144 64.46875 144 144zm0 0" fill="#ffd422"/><path d="m212.175781 203.855469-27.597656 20.722656-27.601563-20.722656 11.601563-3.277344v-20.320313c9.886719 5.757813 22.109375 5.757813 32 0v20.320313zm0 0" fill="#ffdaaa"/><path d="m216.578125 136.578125v16c-.015625 8.484375-3.378906 16.621094-9.359375 22.640625-2 1.945312-4.230469 3.636719-6.640625 5.039062-9.898437 5.710938-22.089844 5.714844-31.988281.007813-9.898438-5.707031-16-16.261719-16.011719-27.6875v-16h9.4375c9.488281.015625 18.761719-2.796875 26.640625-8.082031l11.921875-7.917969 3.597656 7.117187c2.359375 4.847657 7.042969 8.140626 12.402344 8.722657zm0 0" fill="#ffdaaa"/><path d="m224.578125 280.578125h-112v-39.839844c-.015625-14.296875 9.453125-26.871093 23.199219-30.800781l21.199218-6.082031 27.601563 20.722656 27.597656-20.722656 21.199219 6.082031c13.746094 3.929688 23.21875 16.503906 23.203125 30.800781v39.839844zm0 0" fill="#3d9ae2"/><path d="m184.578125 88.578125c22.089844 0 40 17.90625 40 40v8h-6.082031c-.644532.023437-1.289063-.027344-1.917969-.160156-5.359375-.582031-10.042969-3.875-12.402344-8.722657l-3.597656-7.117187-11.921875 7.917969c-7.878906 5.285156-17.152344 8.097656-26.640625 8.082031h-17.4375v-8c0-22.09375 17.90625-40 40-40zm0 0" fill="#3e3d42"/><path d="m464.097656 418.816406c12.503906 12.503906 12.503906 32.777344 0 45.28125s-32.777344 12.503906-45.28125 0l-90.480468-90.480468 45.28125-45.28125zm0 0" fill="#787680"/><path d="m362.257812 339.617188-22.640624 22.640624-42.398438-42.402343c8.171875-6.890625 15.746094-14.464844 22.636719-22.636719zm0 0" fill="#ee8700"/><path d="m200.578125 180.257812v8c-9.890625 5.757813-22.113281 5.757813-32 0v-8c9.886719 5.757813 22.109375 5.757813 32 0zm0 0" fill="#f2cd9d"/><path d="m184.578125 32.578125c-83.949219 0-152 68.050781-152 152 0 83.945313 68.050781 152 152 152 83.945313 0 152-68.054687 152-152-.09375-83.910156-68.09375-151.910156-152-152zm0 288c-75.113281 0-136-60.890625-136-136 0-75.113281 60.886719-136 136-136 75.109375 0 136 60.886719 136 136-.085937 75.074219-60.925781 135.914063-136 136zm0 0"/><path d="m469.761719 413.191406-90.511719-90.503906c-3.175781-3-8.140625-3-11.3125 0l-5.648438 5.648438-31.824218-31.824219c59.136718-77.027344 48.351562-186.726563-24.648438-250.761719-73.003906-64.039062-183.171875-60.441406-251.839844 8.226562-68.667968 68.667969-72.265624 178.835938-8.226562 251.839844 64.035156 73 173.734375 83.785156 250.761719 24.648438l31.824219 31.824218-5.648438 5.648438c-3.121094 3.125-3.121094 8.1875 0 11.3125l90.503906 90.511719c15.640625 15.503906 40.875 15.449219 56.445313-.125 15.574219-15.570313 15.628906-40.804688.125-56.445313zm-453.183594-228.613281c0-92.785156 75.214844-168 168-168 92.78125 0 168 75.214844 168 168 0 92.78125-75.21875 168-168 168-92.742187-.105469-167.894531-75.261719-168-168zm303.574219 124.246094 30.824218 30.792969-11.359374 11.359374-30.792969-30.792968c3.9375-3.625 7.710937-7.414063 11.328125-11.359375zm138.296875 149.601562c-9.375 9.375-24.570313 9.375-33.945313 0l-84.847656-84.832031 33.9375-33.9375 84.855469 84.847656c9.351562 9.382813 9.351562 24.5625 0 33.945313zm0 0"/><path d="m235.578125 202.242188-27-7.714844v-10.160156c10.035156-7.488282 15.960937-19.265626 16-31.789063v-8c4.417969 0 8-3.582031 8-8v-8c0-26.511719-21.492187-48-48-48-26.511719 0-48 21.488281-48 48v8c0 4.417969 3.582031 8 8 8v8c.035156 12.523437 5.960937 24.300781 16 31.789063v10.160156l-26.992187 7.714844c-17.152344 4.957031-28.972657 20.640624-29.007813 38.496093v39.839844c0 4.417969 3.582031 8 8 8h144c4.417969 0 8-3.582031 8-8v-39.839844c-.039063-17.851562-11.855469-33.535156-29-38.496093zm-51-105.664063c17.585937 0 31.875 14.1875 32 31.773437-2.296875-.554687-4.226563-2.09375-5.28125-4.207031l-3.558594-7.136719c-1.027343-2.054687-2.882812-3.570312-5.105469-4.164062-2.21875-.589844-4.585937-.199219-6.496093 1.078125l-11.902344 7.933594c-6.566406 4.386719-14.289063 6.726562-22.1875 6.722656h-9.46875c0-17.675781 14.324219-32 32-32zm-22.53125 48c11.058594.007813 21.867187-3.265625 31.058594-9.410156l4.382812-2.917969c2.519531 4.441406 6.410157 7.949219 11.089844 10v10.328125c0 13.253906-10.746094 24-24 24-13.257813 0-24-10.746094-24-24v-8zm22.53125 48c2.683594 0 5.367187-.265625 8-.800781v8.800781c.023437 2.277344 1.03125 4.433594 2.757813 5.917969l-10.757813 8.082031-10.761719-8.082031c1.726563-1.484375 2.734375-3.640625 2.761719-5.917969v-8.800781c2.632813.535156 5.3125.800781 8 .800781zm64 80h-16v-32h-16v32h-64v-32h-16v32h-16v-31.839844c.023437-10.71875 7.113281-20.132812 17.40625-23.113281l17.390625-4.960938 24.402344 18.3125c2.84375 2.132813 6.753906 2.132813 9.597656 0l24.394531-18.3125 17.398438 4.96875c10.292969 2.976563 17.386719 12.390626 17.410156 23.105469zm0 0"/></svg>