<?xml version="1.0" encoding="iso-8859-1"?>
<!-- Generator: Adobe Illustrator 19.0.0, SVG Export Plug-In . SVG Version: 6.00 Build 0)  -->
<svg version="1.1" id="Capa_1" xmlns="http://www.w3.org/2000/svg" xmlns:xlink="http://www.w3.org/1999/xlink" x="0px" y="0px"
	 viewBox="0 0 512 512" style="enable-background:new 0 0 512 512;" xml:space="preserve">
<path style="fill:#FCD0AE;" d="M435.134,251.941L435.134,251.941c-30.648,0-55.493-24.845-55.493-55.493v-36.117
	c0-28.413,23.033-51.446,51.446-51.446h8.095c28.413,0,51.446,23.033,51.446,51.446v36.117
	C490.627,227.096,465.782,251.941,435.134,251.941z"/>
<path style="fill:#EBEEF2;" d="M457.173,279.101h-44.079c-30.28,0-54.827,24.547-54.827,54.827v53.013
	c0,2.362,1.915,4.277,4.277,4.277h145.179c2.362,0,4.277-1.915,4.277-4.277v-53.013C512,303.648,487.453,279.101,457.173,279.101z"
	/>
<path style="fill:#FCAB29;" d="M439.181,108.886h-8.094c-28.413,0-51.446,23.033-51.446,51.446v9.839
	c25.612,7.585,65.436-5.126,76.607-21.189c4.025,12.403,20.965,20.321,34.379,23.932v-12.582
	C490.627,131.919,467.594,108.886,439.181,108.886z"/>
<polygon style="fill:#ED5575;" points="442.162,279.101 428.105,279.101 414.02,338.599 435.134,360.819 456.248,338.599 "/>
<path style="fill:#FCD0AE;" d="M76.866,251.941L76.866,251.941c-30.648,0-55.493-24.845-55.493-55.493v-36.117
	c0-28.413,23.033-51.446,51.446-51.446h8.095c28.413,0,51.446,23.033,51.446,51.446v36.117
	C132.359,227.096,107.514,251.941,76.866,251.941z"/>
<path style="fill:#EBEEF2;" d="M98.905,279.101H54.827C24.547,279.101,0,303.648,0,333.928v53.013c0,2.362,1.915,4.277,4.277,4.277
	h145.179c2.362,0,4.277-1.915,4.277-4.277v-53.013C153.732,303.648,129.185,279.101,98.905,279.101z"/>
<polygon style="fill:#ED5575;" points="83.895,279.101 69.838,279.101 55.752,338.599 76.866,360.819 97.98,338.599 "/>
<path style="fill:#656D88;" d="M286.877,287.008h-61.754c-11.52,0-22.447,0.536-32.255,5.08
	c-26.308,12.19-44.557,38.829-44.557,69.731v69.96c0,5.69,4.612,10.302,10.302,10.302h194.773c5.69,0,10.302-4.612,10.302-10.302
	v-69.96c0-30.843-18.178-57.439-44.405-69.661C309.437,287.57,298.456,287.008,286.877,287.008z"/>
<path style="fill:#444966;" d="M286.876,287.008h-15.575c15.938,0,30.599,4.161,42.208,14.485
	c15.818,14.067,25.97,35.861,25.97,60.326v69.96c0,5.689-4.094,10.302-9.144,10.302h23.051c5.689,0,10.302-4.613,10.302-10.302
	v-69.96c0-30.843-18.178-57.44-44.405-69.661C309.437,287.57,298.456,287.008,286.876,287.008z"/>
<path style="fill:#EBEEF2;" d="M256,407.327l63.123-115.221c-9.808-4.545-20.726-7.098-32.247-7.098h-61.754
	c-11.52,0-22.439,2.553-32.246,7.098L256,407.327z"/>
<path style="fill:#ED5575;" d="M267.219,313.283c11.246-4.466,19.202-15.439,19.202-28.276h-60.842
	c0,12.837,7.955,23.809,19.202,28.276l-10.05,55.219L256,407.327l21.27-38.824L267.219,313.283z"/>
<path style="fill:#FCD0AE;" d="M255.771,255L255.771,255c-39.848,0-72.15-32.303-72.15-72.15v-46.445
	c0-36.719,29.766-66.485,66.485-66.485h11.331c36.719,0,66.485,29.766,66.485,66.485v46.445
	C327.921,222.697,295.618,255,255.771,255z"/>
<path style="fill:#E59F6A;" d="M261.436,69.921h-11.331c-0.414,0-0.822,0.024-1.235,0.031c29.635,0.659,53.46,24.87,53.46,54.663
	v71.03c0,30.704-23.314,55.961-53.205,59.038c2.189,0.2,4.403,0.317,6.645,0.317l0,0c39.847,0,72.15-32.303,72.15-72.15v-46.445
	C327.921,99.687,298.155,69.921,261.436,69.921z"/>
<path style="fill:#444966;" d="M261.436,69.921h-11.331c-36.379,0-65.915,29.223-66.459,65.472
	c12.305,13.681,30.689,25.221,44.539,28.812c-3.606-7.211-11.1-24.46-7.211-40.692c12.061,16.22,67.77,42.961,106.947,52.661
	v-39.768C327.921,99.687,298.155,69.921,261.436,69.921z"/>
<path style="fill:#2E344C;" d="M261.436,69.921h-11.331c-0.414,0-0.822,0.024-1.235,0.031c29.635,0.659,53.46,24.87,53.46,54.663
	v43.706c8.878,3.173,17.58,5.869,25.591,7.853v-39.768C327.921,99.687,298.155,69.921,261.436,69.921z"/>
<path style="fill:#FCAB29;" d="M21.373,160.332h86.872c24.708,0,44.737-20.029,44.737-44.737V97.586H66.044
	c-24.671,0-44.671,20-44.671,44.671C21.373,142.257,21.373,160.332,21.373,160.332z"/>
<g>
</g>
<g>
</g>
<g>
</g>
<g>
</g>
<g>
</g>
<g>
</g>
<g>
</g>
<g>
</g>
<g>
</g>
<g>
</g>
<g>
</g>
<g>
</g>
<g>
</g>
<g>
</g>
<g>
</g>
</svg>
