<?xml version="1.0" encoding="iso-8859-1"?>
<!-- Generator: Adobe Illustrator 19.0.0, SVG Export Plug-In . SVG Version: 6.00 Build 0)  -->
<svg version="1.1" id="Layer_1" xmlns="http://www.w3.org/2000/svg" xmlns:xlink="http://www.w3.org/1999/xlink" x="0px" y="0px"
	 viewBox="0 0 512 512" style="enable-background:new 0 0 512 512;" xml:space="preserve">
<circle style="fill:#FFC61B;" cx="256" cy="256" r="256"/>
<path style="fill:#EAA22F;" d="M437.019,437.019c40.291-40.291,64.333-90.674,72.147-143.012L336.275,121.116l-110.73,187.463
	l-50.597,81.332L294.178,509.14C346.455,501.298,396.771,477.267,437.019,437.019z"/>
<path style="fill:#333131;" d="M320.36,398.222H191.641c-11.585,0-20.975-9.39-20.975-20.973V134.753
	c0-11.585,9.39-20.975,20.975-20.975H320.36c11.583,0,20.973,9.39,20.973,20.975v242.497
	C341.333,388.832,331.943,398.222,320.36,398.222z"/>
<path style="fill:#272525;" d="M320.36,113.778h-64.934v284.444h64.934c11.583,0,20.975-9.39,20.975-20.975V134.753
	C341.333,123.168,331.943,113.778,320.36,113.778z"/>
<rect x="184.889" y="128.638" style="fill:#FFFFFF;" width="142.222" height="237.468"/>
<rect x="255.431" y="128.638" style="fill:#D0D1D3;" width="71.685" height="237.468"/>
<rect x="206.869" y="217.643" style="fill:#FFC61B;" width="24.566" height="73.697"/>
<rect x="243.709" y="193.077" style="fill:#EAA22F;" width="24.566" height="98.263"/>
<rect x="255.431" y="193.077" style="fill:#E09112;" width="12.857" height="98.263"/>
<rect x="280.566" y="242.209" style="fill:#C92F00;" width="24.566" height="49.131"/>
<rect x="199.111" y="299.96" style="fill:#B54324;" width="113.778" height="8.62"/>
<rect x="255.431" y="299.96" style="fill:#930000;" width="57.458" height="8.62"/>
<g>
</g>
<g>
</g>
<g>
</g>
<g>
</g>
<g>
</g>
<g>
</g>
<g>
</g>
<g>
</g>
<g>
</g>
<g>
</g>
<g>
</g>
<g>
</g>
<g>
</g>
<g>
</g>
<g>
</g>
</svg>
