<svg height="512pt" viewBox="0 0 512 512" width="512pt" xmlns="http://www.w3.org/2000/svg"><path d="m478.988281 504.5h-445.976562c-14.089844 0-25.511719-11.421875-25.511719-25.511719v-445.976562c0-14.089844 11.421875-25.511719 25.511719-25.511719h445.976562c14.089844 0 25.511719 11.421875 25.511719 25.511719v445.976562c0 14.089844-11.421875 25.511719-25.511719 25.511719zm0 0" fill="#e7e7e7"/><path d="m504.503906 33.007812v445.980469c0 14.09375-11.421875 25.515625-25.515625 25.515625h-26.292969c14.089844 0 25.515626-11.421875 25.515626-25.515625v-445.980469c0-14.082031-11.425782-25.503906-25.515626-25.503906h26.292969c14.09375 0 25.515625 11.421875 25.515625 25.503906zm0 0" fill="#cecece"/><path d="m504.5 94.535156h-497v-61.523437c0-14.089844 11.421875-25.511719 25.511719-25.511719h445.976562c14.089844 0 25.511719 11.421875 25.511719 25.511719zm0 0" fill="#acacac"/><path d="m504.503906 33.007812v61.53125h-26.292968v-61.53125c0-14.082031-11.425782-25.503906-25.515626-25.503906h26.292969c14.09375 0 25.515625 11.421875 25.515625 25.503906zm0 0" fill="#9c9c9c"/><path d="m69.28125 50.808594c0 8.011718-6.496094 14.511718-14.511719 14.511718s-14.511719-6.5-14.511719-14.511718c0-8.015625 6.496094-14.515625 14.511719-14.515625s14.511719 6.5 14.511719 14.515625zm0 0" fill="#ff6b81"/><path d="m125.328125 50.808594c0 8.011718-6.496094 14.511718-14.511719 14.511718s-14.511718-6.5-14.511718-14.511718c0-8.015625 6.496093-14.515625 14.511718-14.515625s14.511719 6.5 14.511719 14.515625zm0 0" fill="#ffd86e"/><path d="m181.375 50.808594c0 8.011718-6.496094 14.511718-14.511719 14.511718s-14.511719-6.5-14.511719-14.511718c0-8.015625 6.496094-14.515625 14.511719-14.515625s14.511719 6.5 14.511719 14.515625zm0 0" fill="#80e0dc"/><path d="m69.277344 50.8125c0 8.011719-6.492188 14.503906-14.503906 14.503906-3.878907 0-7.410157-1.523437-10.011719-4.011718 7.851562-.171876 14.171875-6.59375 14.171875-14.492188 0-4.140625-1.730469-7.863281-4.5-10.503906.109375-.007813.230468-.007813.339844-.007813 8.011718-.003906 14.503906 6.488281 14.503906 14.511719zm0 0" fill="#ff435f"/><path d="m125.328125 50.8125c0 8.011719-6.492187 14.503906-14.515625 14.503906-3.878906 0-7.398438-1.523437-10.011719-4.011718 7.863281-.171876 14.183594-6.59375 14.183594-14.492188 0-4.140625-1.730469-7.863281-4.5-10.503906.109375-.007813.21875-.007813.328125-.007813 8.023438-.003906 14.515625 6.488281 14.515625 14.511719zm0 0" fill="#ffb509"/><path d="m181.375 50.8125c0 8.011719-6.5 14.503906-14.511719 14.503906-3.878906 0-7.402343-1.523437-10.011719-4.011718 7.863282-.171876 14.171876-6.59375 14.171876-14.492188 0-4.140625-1.730469-7.863281-4.5-10.503906.109374-.007813.230468-.007813.339843-.007813 8.011719-.003906 14.511719 6.488281 14.511719 14.511719zm0 0" fill="#00a8b0"/><path d="m443.476562 257.933594h-184.816406c-6.554687 0-11.871094-5.3125-11.871094-11.867188v-105.042968c0-6.554688 5.3125-11.871094 11.871094-11.871094h184.816406c6.554688 0 11.871094 5.3125 11.871094 11.871094v105.042968c0 6.554688-5.3125 11.867188-11.871094 11.867188zm0 0" fill="#ff6b81"/><path d="m443.476562 439.550781h-184.816406c-6.554687 0-11.871094-5.316406-11.871094-11.871093v-105.042969c0-6.554688 5.3125-11.871094 11.871094-11.871094h184.816406c6.554688 0 11.871094 5.316406 11.871094 11.871094v105.042969c0 6.554687-5.3125 11.871093-11.871094 11.871093zm0 0" fill="#ff6b81"/><path d="m443.476562 257.933594h-13.128906v-128.78125h13.128906c6.554688 0 11.871094 5.3125 11.871094 11.871094v105.042968c0 6.554688-5.3125 11.867188-11.871094 11.867188zm0 0" fill="#ff435f"/><path d="m443.476562 439.550781h-13.128906v-128.785156h13.128906c6.554688 0 11.871094 5.316406 11.871094 11.871094v105.042969c0 6.554687-5.3125 11.871093-11.871094 11.871093zm0 0" fill="#ff435f"/><path d="m44.257812 136.652344h14.511719c4.144531 0 7.5-3.355469 7.5-7.5 0-4.144532-3.355469-7.5-7.5-7.5h-14.511719c-4.144531 0-7.503906 3.355468-7.503906 7.5 0 4.144531 3.359375 7.5 7.503906 7.5zm0 0"/><path d="m44.257812 174.15625h14.511719c4.144531 0 7.5-3.355469 7.5-7.5s-3.355469-7.5-7.5-7.5h-14.511719c-4.144531 0-7.503906 3.355469-7.503906 7.5s3.359375 7.5 7.503906 7.5zm0 0"/><path d="m44.257812 211.664062h14.511719c4.144531 0 7.5-3.359374 7.5-7.503906 0-4.144531-3.355469-7.5-7.5-7.5h-14.511719c-4.144531 0-7.503906 3.355469-7.503906 7.5 0 4.144532 3.359375 7.503906 7.503906 7.503906zm0 0"/><path d="m44.257812 249.167969h14.511719c4.144531 0 7.5-3.359375 7.5-7.503907 0-4.140624-3.355469-7.5-7.5-7.5h-14.511719c-4.144531 0-7.503906 3.359376-7.503906 7.5 0 4.144532 3.359375 7.503907 7.503906 7.503907zm0 0"/><path d="m44.257812 286.671875h14.511719c4.144531 0 7.5-3.359375 7.5-7.5 0-4.144531-3.355469-7.503906-7.5-7.503906h-14.511719c-4.144531 0-7.503906 3.359375-7.503906 7.503906 0 4.140625 3.359375 7.5 7.503906 7.5zm0 0"/><path d="m44.257812 324.175781h14.511719c4.144531 0 7.5-3.355469 7.5-7.5s-3.355469-7.5-7.5-7.5h-14.511719c-4.144531 0-7.503906 3.355469-7.503906 7.5s3.359375 7.5 7.503906 7.5zm0 0"/><path d="m44.257812 361.683594h14.511719c4.144531 0 7.5-3.359375 7.5-7.503906 0-4.140626-3.355469-7.5-7.5-7.5h-14.511719c-4.144531 0-7.503906 3.359374-7.503906 7.5 0 4.144531 3.359375 7.503906 7.503906 7.503906zm0 0"/><path d="m44.257812 399.1875h14.511719c4.144531 0 7.5-3.359375 7.5-7.5 0-4.144531-3.355469-7.503906-7.5-7.503906h-14.511719c-4.144531 0-7.503906 3.359375-7.503906 7.503906 0 4.140625 3.359375 7.5 7.503906 7.5zm0 0"/><path d="m44.257812 436.691406h14.511719c4.144531 0 7.5-3.355468 7.5-7.5 0-4.144531-3.355469-7.503906-7.5-7.503906h-14.511719c-4.144531 0-7.503906 3.359375-7.503906 7.503906 0 4.144532 3.359375 7.5 7.503906 7.5zm0 0"/><path d="m44.257812 474.195312h14.511719c4.144531 0 7.5-3.355468 7.5-7.5 0-4.144531-3.355469-7.5-7.5-7.5h-14.511719c-4.144531 0-7.503906 3.355469-7.503906 7.5 0 4.144532 3.359375 7.5 7.503906 7.5zm0 0"/><path d="m85.792969 136.652344h70.558593c4.144532 0 7.5-3.355469 7.5-7.5 0-4.144532-3.355468-7.5-7.5-7.5h-70.558593c-4.144531 0-7.503907 3.355468-7.503907 7.5 0 4.144531 3.359376 7.5 7.503907 7.5zm0 0"/><path d="m85.792969 286.671875h70.558593c4.144532 0 7.5-3.359375 7.5-7.5 0-4.144531-3.355468-7.503906-7.5-7.503906h-70.558593c-4.144531 0-7.503907 3.359375-7.503907 7.503906 0 4.140625 3.359376 7.5 7.503907 7.5zm0 0"/><path d="m85.792969 361.683594h70.558593c4.144532 0 7.5-3.359375 7.5-7.503906 0-4.140626-3.355468-7.5-7.5-7.5h-70.558593c-4.144531 0-7.503907 3.359374-7.503907 7.5 0 4.144531 3.359376 7.503906 7.503907 7.503906zm0 0"/><path d="m85.792969 174.15625h39.535156c4.144531 0 7.5-3.355469 7.5-7.5s-3.355469-7.5-7.5-7.5h-39.535156c-4.144531 0-7.503907 3.355469-7.503907 7.5s3.359376 7.5 7.503907 7.5zm0 0"/><path d="m85.792969 211.664062h39.535156c4.144531 0 7.5-3.359374 7.5-7.503906 0-4.144531-3.355469-7.5-7.5-7.5h-39.535156c-4.144531 0-7.503907 3.355469-7.503907 7.5 0 4.144532 3.359376 7.503906 7.503907 7.503906zm0 0"/><path d="m85.792969 474.195312h39.535156c4.144531 0 7.5-3.355468 7.5-7.5 0-4.144531-3.355469-7.5-7.5-7.5h-39.535156c-4.144531 0-7.503907 3.355469-7.503907 7.5 0 4.144532 3.359376 7.5 7.503907 7.5zm0 0"/><path d="m85.792969 324.175781h19.769531c4.140625 0 7.5-3.355469 7.5-7.5s-3.359375-7.5-7.5-7.5h-19.769531c-4.144531 0-7.503907 3.355469-7.503907 7.5s3.359376 7.5 7.503907 7.5zm0 0"/><path d="m85.792969 249.167969h58.25c4.140625 0 7.5-3.359375 7.5-7.503907 0-4.140624-3.359375-7.5-7.5-7.5h-58.25c-4.144531 0-7.503907 3.359376-7.503907 7.5 0 4.144532 3.359376 7.503907 7.503907 7.503907zm0 0"/><path d="m85.792969 399.1875h58.25c4.140625 0 7.5-3.359375 7.5-7.5 0-4.144531-3.359375-7.503906-7.5-7.503906h-58.25c-4.144531 0-7.503907 3.359375-7.503907 7.503906 0 4.140625 3.359376 7.5 7.503907 7.5zm0 0"/><path d="m85.792969 436.691406h58.25c4.140625 0 7.5-3.355468 7.5-7.5 0-4.144531-3.359375-7.503906-7.5-7.503906h-58.25c-4.144531 0-7.503907 3.359375-7.503907 7.503906 0 4.144532 3.359376 7.5 7.503907 7.5zm0 0"/><path d="m54.769531 28.792969c-12.140625 0-22.015625 9.875-22.015625 22.015625 0 12.136718 9.875 22.011718 22.015625 22.011718 12.136719 0 22.011719-9.875 22.011719-22.011718 0-12.140625-9.875-22.015625-22.011719-22.015625zm0 29.023437c-3.867187 0-7.011719-3.144531-7.011719-7.007812 0-3.867188 3.144532-7.011719 7.011719-7.011719 3.863281 0 7.011719 3.144531 7.011719 7.011719 0 3.863281-3.148438 7.007812-7.011719 7.007812zm0 0"/><path d="m110.816406 28.792969c-12.140625 0-22.011718 9.875-22.011718 22.015625 0 12.136718 9.875 22.011718 22.011718 22.011718 12.136719 0 22.011719-9.875 22.011719-22.011718 0-12.140625-9.875-22.015625-22.011719-22.015625zm0 29.023437c-3.867187 0-7.011718-3.144531-7.011718-7.007812 0-3.867188 3.144531-7.011719 7.011718-7.011719 3.863282 0 7.011719 3.144531 7.011719 7.011719 0 3.863281-3.148437 7.007812-7.011719 7.007812zm0 0"/><path d="m166.863281 28.792969c-12.140625 0-22.015625 9.875-22.015625 22.015625 0 12.136718 9.875 22.011718 22.015625 22.011718 12.136719 0 22.011719-9.875 22.011719-22.011718 0-12.140625-9.875-22.015625-22.011719-22.015625zm0 29.023437c-3.867187 0-7.011719-3.144531-7.011719-7.007812 0-3.867188 3.144532-7.011719 7.011719-7.011719 3.863281 0 7.011719 3.144531 7.011719 7.011719 0 3.863281-3.144531 7.007812-7.011719 7.007812zm0 0"/><path d="m258.660156 265.4375h184.816406c10.683594 0 19.371094-8.691406 19.371094-19.371094v-105.042968c0-10.683594-8.6875-19.371094-19.371094-19.371094h-184.816406c-10.683594 0-19.371094 8.6875-19.371094 19.371094v105.042968c0 10.679688 8.6875 19.371094 19.371094 19.371094zm-4.371094-124.414062c0-2.410157 1.960938-4.371094 4.371094-4.371094h184.816406c2.410157 0 4.367188 1.960937 4.367188 4.371094v105.042968c0 2.40625-1.957031 4.367188-4.367188 4.367188h-184.816406c-2.410156 0-4.371094-1.960938-4.371094-4.367188zm0 0"/><path d="m246.789062 292.582031h118.5625c4.144532 0 7.503907-3.359375 7.503907-7.503906 0-4.140625-3.359375-7.5-7.503907-7.5h-118.5625c-4.144531 0-7.5 3.359375-7.5 7.5 0 4.144531 3.355469 7.503906 7.5 7.503906zm0 0"/><path d="m405.351562 277.578125c-4.144531 0-7.5 3.359375-7.5 7.5 0 4.144531 3.355469 7.503906 7.5 7.503906h49.996094c4.144532 0 7.5-3.359375 7.5-7.503906 0-4.140625-3.355468-7.5-7.5-7.5zm0 0"/><path d="m258.660156 447.050781h184.816406c10.683594 0 19.371094-8.6875 19.371094-19.371093v-105.042969c0-10.679688-8.6875-19.371094-19.371094-19.371094h-184.816406c-10.683594 0-19.371094 8.691406-19.371094 19.371094v34.382812c0 4.144531 3.355469 7.5 7.5 7.5 4.140626 0 7.5-3.355469 7.5-7.5v-34.382812c0-2.410157 1.960938-4.367188 4.371094-4.367188h184.816406c2.410157 0 4.367188 1.957031 4.367188 4.367188v105.042969c0 2.410156-1.957031 4.367187-4.367188 4.367187h-184.816406c-2.410156 0-4.371094-1.957031-4.371094-4.367187v-25.65625c0-4.144532-3.359374-7.5-7.5-7.5-4.144531 0-7.5 3.355468-7.5 7.5v25.65625c0 10.679687 8.6875 19.371093 19.371094 19.371093zm0 0"/><path d="m246.789062 474.195312h118.5625c4.144532 0 7.503907-3.355468 7.503907-7.5 0-4.144531-3.359375-7.5-7.503907-7.5h-118.5625c-4.144531 0-7.5 3.355469-7.5 7.5 0 4.144532 3.355469 7.5 7.5 7.5zm0 0"/><path d="m455.347656 459.195312h-49.996094c-4.144531 0-7.5 3.355469-7.5 7.5 0 4.144532 3.355469 7.5 7.5 7.5h49.996094c4.144532 0 7.5-3.355468 7.5-7.5 0-4.144531-3.355468-7.5-7.5-7.5zm0 0"/><path d="m478.988281 0h-445.976562c-18.203125 0-33.011719 14.808594-33.011719 33.011719v138.566406c0 4.144531 3.359375 7.5 7.5 7.5 4.144531 0 7.503906-3.355469 7.503906-7.5v-69.539063h172.542969v394.960938h-154.535156c-9.929688 0-18.007813-8.082031-18.007813-18.011719v-263.550781c0-4.144531-3.359375-7.5-7.503906-7.5-4.140625 0-7.5 3.355469-7.5 7.5v263.546875c0 18.203125 14.808594 33.015625 33.011719 33.015625h445.976562c18.203125 0 33.011719-14.8125 33.011719-33.015625v-445.972656c0-18.203125-14.808594-33.011719-33.011719-33.011719zm18.007813 478.984375c0 9.933594-8.078125 18.011719-18.007813 18.011719h-276.4375v-394.957032h294.449219v376.945313zm0-391.949219h-481.992188v-54.023437c0-9.929688 8.078125-18.007813 18.007813-18.007813h445.976562c9.929688 0 18.007813 8.078125 18.007813 18.007813zm0 0"/></svg>