<svg height="416pt" viewBox="-10 0 416 416.42667" width="416pt" xmlns="http://www.w3.org/2000/svg"><path d="m274.015625 379.832031c-23.339844 10.328125-48.949219 16.113281-75.824219 16.113281-26.878906 0-52.488281-5.785156-75.828125-16.109374-28.648437 3.746093-47.054687 9.570312-47.054687 16.109374 0 11.308594 55.019531 20.480469 122.882812 20.480469 67.859375 0 122.875-9.171875 122.875-20.480469 0-6.539062-18.40625-12.363281-47.050781-16.113281" fill="#eeeef0"/><path d="m389.332031 190.894531c0-105.566406-85.574219-184.066406-191.140625-184.066406-105.570312 0-191.152344 78.5-191.152344 184.066406 0 105.566407 85.582032 198.226563 191.152344 198.226563 105.566406 0 191.140625-92.660156 191.140625-198.226563" fill="#fff35f"/><path d="m389.332031 190.894531h6.828125c.019532-54.644531-22.222656-102.550781-58.113281-136.570312-35.882813-34.050781-85.378906-54.324219-139.855469-54.324219-54.484375 0-103.980468 20.273438-139.867187 54.324219-35.886719 34.019531-58.132813 81.925781-58.109375 136.570312.003906 54.644531 22.121094 105.828125 57.867187 143.402344 35.730469 37.578125 85.289063 61.648437 140.109375 61.648437 54.8125 0 104.371094-24.070312 140.105469-61.644531 35.742187-37.578125 57.859375-88.761719 57.863281-143.40625h-13.652344c.011719 50.921875-20.664062 98.855469-54.101562 134-33.449219 35.144531-79.464844 57.402344-130.214844 57.40625-50.753906-.003906-96.765625-22.261719-130.214844-57.40625-33.4375-35.144531-54.113281-83.078125-54.105468-134 .019531-50.914062 20.566406-95.046875 53.859375-126.664062 33.292969-31.597657 79.367187-50.570313 130.460937-50.578125 51.082032.007812 97.160156 18.976562 130.457032 50.574218 33.296874 31.617188 53.84375 75.753907 53.859374 126.667969z" fill="#54596e"/><path d="m380.914062 167.382812c-11.722656 91.421876-89.03125 167.125-182.722656 167.125-93.695312 0-171.003906-75.703124-182.730468-167.128906-1.011719 7.714844-1.585938 15.601563-1.59375 23.671875.035156 50.859375 20.703124 98.734375 54.109374 133.839844 33.449219 35.144531 79.457032 57.402344 130.214844 57.40625 50.746094-.003906 96.761719-22.261719 130.214844-57.402344 33.402344-35.109375 54.070312-82.976562 54.097656-133.839843-.003906-8.074219-.582031-15.957032-1.589844-23.671876" fill="#eee361"/><g fill="#54596e"><path d="m382.503906 191.054688c-.027344 50.863281-20.695312 98.730468-54.097656 133.839843-33.453125 35.140625-79.46875 57.398438-130.214844 57.40625 101.796875 0 184.3125-89.351562 184.3125-191.152343 0-.03125 0-.0625 0-.09375m-368.636718-.003907v.097657c0 101.796874 82.523437 191.152343 184.324218 191.152343-50.757812-.007812-96.765625-22.265625-130.214844-57.40625-33.40625-35.109375-54.074218-82.980469-54.109374-133.84375"/><path d="m293.761719 163.839844c-.007813-15.082032-12.226563-27.300782-27.308594-27.304688-15.082031.003906-27.300781 12.222656-27.304687 27.304688 0 3.773437 3.054687 6.828125 6.824218 6.828125 3.769532 0 6.828125-3.054688 6.828125-6.828125.011719-7.535156 6.117188-13.636719 13.652344-13.652344 7.535156.015625 13.640625 6.117188 13.652344 13.652344 0 3.773437 3.058593 6.828125 6.828125 6.828125 3.773437 0 6.828125-3.054688 6.828125-6.828125zm0 0"/><path d="m157.226562 163.839844c-.003906-15.082032-12.222656-27.300782-27.304687-27.304688-15.085937.003906-27.304687 12.222656-27.308594 27.304688 0 3.773437 3.058594 6.828125 6.828125 6.828125 3.769532 0 6.824219-3.054688 6.824219-6.828125.015625-7.535156 6.117187-13.636719 13.65625-13.652344 7.535156.015625 13.636719 6.117188 13.652344 13.652344 0 3.773437 3.054687 6.828125 6.824219 6.828125 3.773437 0 6.828124-3.054688 6.828124-6.828125zm0 0"/></g><path d="m143.574219 191.148438c0-7.539063-15.28125-13.652344-34.132813-13.652344-18.851562 0-34.132812 6.113281-34.132812 13.652344 0 7.539062 15.28125 13.652343 34.132812 13.652343 18.851563 0 34.132813-6.113281 34.132813-13.652343zm0 0" fill="#f9bbed"/><path d="m321.066406 191.148438c0-7.539063-15.28125-13.652344-34.132812-13.652344-18.851563 0-34.132813 6.113281-34.132813 13.652344 0 7.539062 15.28125 13.652343 34.132813 13.652343 18.851562 0 34.132812-6.113281 34.132812-13.652343zm0 0" fill="#f9bbed"/><path d="m307.414062 232.109375v75.09375c0 18.851563-15.285156 34.132813-34.132812 34.132813-18.851562 0-34.132812-15.28125-34.132812-34.132813v-61.441406" fill="#ff7d7d"/><path d="m300.585938 232.109375v75.09375c-.003907 7.5625-3.046876 14.34375-8 19.304687-4.960938 4.953126-11.746094 7.996094-19.304688 8-7.5625-.003906-14.347656-3.046874-19.308594-8-4.953125-4.960937-7.996094-11.746093-8-19.304687v-61.441406h-13.652344v61.441406c.003907 22.621094 18.335938 40.953125 40.960938 40.957031 22.621094-.003906 40.953125-18.335937 40.957031-40.957031v-75.09375zm0 0" fill="#54596e"/><path d="m65.148438 224.808594c14.136718 10.695312 33.410156 19.234375 56.152343 25.234375 22.738281 5.984375 48.953125 9.371093 76.886719 9.371093 28.269531-.003906 54.777344-3.472656 77.707031-9.589843 22.929688-6.136719 42.292969-14.859375 56.34375-25.796875 2.972657-2.320313 3.503907-6.609375 1.183594-9.578125-2.320313-2.972657-6.609375-3.503907-9.582031-1.183594-11.972656 9.359375-29.832032 17.609375-51.464844 23.367187-21.636719 5.78125-47.042969 9.132813-74.1875 9.128907-26.824219.003906-51.945312-3.269531-73.414062-8.921875-21.464844-5.636719-39.269532-13.707032-51.375-22.910156-3.003907-2.277344-7.289063-1.691407-9.566407 1.316406-2.277343 3-1.6875 7.285156 1.316407 9.5625zm0 0" fill="#54596e"/><path d="m280.105469 293.546875v-47.785156h-13.652344v47.785156" fill="#54596e"/></svg>