<svg height="416pt" viewBox="-7 0 416 416.43008" width="416pt" xmlns="http://www.w3.org/2000/svg"><path d="m129.183594 379.835938c-28.648438 3.746093-47.046875 9.574218-47.046875 16.113281 0 11.3125 55.019531 20.480469 122.878906 20.480469s122.878906-9.167969 122.878906-20.480469c0-6.539063-18.402343-12.367188-47.050781-16.113281-23.335938 10.328124-48.953125 16.113281-75.828125 16.113281-26.878906 0-52.492187-5.789063-75.832031-16.113281" fill="#eeeef0"/><path d="m396.160156 190.898438c0-105.570313-85.574218-184.070313-191.144531-184.070313s-191.148437 78.5-191.148437 184.070313c0 105.566406 85.578124 198.226562 191.148437 198.226562s191.144531-92.660156 191.144531-198.226562" fill="#fff35f"/><path d="m396.160156 190.898438h6.828125c.019531-54.652344-22.222656-102.550782-58.113281-136.578126-35.882812-34.046874-85.382812-54.32421825-139.859375-54.320312-54.476563-.00390625-103.980469 20.273438-139.863281 54.320312-35.886719 34.027344-58.132813 81.921876-58.113282 136.574219.011719 54.640625 22.128907 105.828125 57.867188 143.402344 35.730469 37.578125 85.289062 61.652344 140.105469 61.652344 54.816406 0 104.378906-24.074219 140.105469-61.652344 35.75-37.574219 57.859374-88.761719 57.871093-143.402344h-13.652343c.007812 50.925781-20.671876 98.851563-54.105469 133.996094-33.453125 35.148437-79.460938 57.40625-130.214844 57.40625s-96.765625-22.257813-130.214844-57.40625c-33.4375-35.144531-54.113281-83.070313-54.105469-133.996094.019532-50.921875 20.570313-95.054687 53.863282-126.671875 33.296875-31.589844 79.371094-50.5625 130.457031-50.566406 51.085937.003906 97.160156 18.976562 130.464844 50.570312 33.285156 31.613282 53.835937 75.75 53.855469 126.671876z" fill="#54596e"/><path d="m387.738281 167.382812c-11.71875 91.417969-89.03125 167.125-182.726562 167.125-93.691407 0-171.003907-75.707031-182.722657-167.125-1.007812 7.71875-1.589843 15.601563-1.597656 23.667969.039063 50.863281 20.707032 98.730469 54.109375 133.839844 33.058594 34.734375 78.382813 56.878906 128.429688 57.394531.117187.003906.234375.003906.351562.003906.078125 0 .160157.003907.238281.003907h.269532c.308594.003906.617187.003906.925781.003906.304687 0 .613281 0 .921875-.003906h.269531c.078125 0 .15625-.003907.234375-.003907.117188 0 .238282 0 .355469-.003906 50.050781-.515625 95.375-22.660156 128.433594-57.394531 33.402343-35.109375 54.070312-82.976563 54.105469-133.84375-.007813-8.066406-.582032-15.945313-1.597657-23.664063" fill="#eee361"/><path d="m204.09375 382.292969c.304688.003906.617188.003906.921875.003906-.308594 0-.617187 0-.921875-.003906m1.839844 0c-.304688.003906-.613282.003906-.917969.003906.304687 0 .617187 0 .917969-.003906m.507812-.003907c-.078125 0-.15625.003907-.234375.003907.078125 0 .152344-.003907.234375-.003907m-2.859375 0c.078125 0 .160157.003907.238281.003907-.078124 0-.15625-.003907-.238281-.003907m-182.890625-191.238281v.097657c0 101.199218 81.566406 190.101562 182.539063 191.136718-50.046875-.515625-95.371094-22.660156-128.429688-57.394531-33.402343-35.109375-54.070312-82.976563-54.109375-133.839844m368.644532-.003906c-.035157 50.867187-20.703126 98.734375-54.105469 133.84375-33.058594 34.734375-78.382813 56.878906-128.433594 57.394531 100.972656-1.035156 182.539063-89.9375 182.539063-191.136718 0-.035157 0-.066407 0-.101563" fill="#54596e"/><path d="m166.605469 84.332031c-4.703125-14.40625-18.058594-23.578125-32.449219-23.570312-3.5-.003907-7.078125.539062-10.585938 1.6875l.011719-.003907c-14.410156 4.707032-23.578125 18.058594-23.570312 32.449219 0 3.507813.546875 7.078125 1.683593 10.574219 1.164063 3.585938 5.015626 5.546875 8.601563 4.378906 3.585937-1.164062 5.546875-5.015625 4.382813-8.601562-.691407-2.128906-1.015626-4.257813-1.015626-6.351563.003907-8.613281 5.492188-16.664062 14.148438-19.464843l1.082031-.355469-1.070312.351562c2.109375-.691406 4.234375-1.011719 6.335937-1.015625 8.613282.007813 16.660156 5.496094 19.46875 14.148438 1.164063 3.585937 5.019532 5.546875 8.601563 4.375 3.582031-1.164063 5.542969-5.015625 4.375-8.601563zm0 0" fill="#54596e"/><path d="m249.859375 88.5625c2.804687-8.652344 10.851563-14.140625 19.46875-14.148438 2.101563 0 4.226563.324219 6.335937 1.015626h.011719c8.652344 2.808593 14.140625 10.855468 14.144531 19.46875 0 2.09375-.320312 4.222656-1.015624 6.351562-1.164063 3.585938.796874 7.4375 4.382812 8.601562 3.585938 1.167969 7.4375-.792968 8.601562-4.378906 1.136719-3.496094 1.683594-7.066406 1.683594-10.574218.007813-14.390626-9.160156-27.742188-23.570312-32.449219l.007812.003906c-3.503906-1.148437-7.082031-1.691406-10.585937-1.6875-14.390625-.007813-27.742188 9.160156-32.449219 23.570313-1.164062 3.585937.792969 7.4375 4.378906 8.605468 3.585938 1.164063 7.4375-.796875 8.605469-4.378906zm0 0" fill="#54596e"/><path d="m90.382812 143.363281c-11.273437-.027343-18.296874 11.6875-13.023437 21.402344 24.253906 44.707031 72.433594 75.171875 127.910156 75.171875 55.25 0 103.265625-30.210938 127.617188-74.617188 5.3125-9.691406-1.664063-21.429687-12.933594-21.453124l-93.261719 9.304687c-14.246094 1.421875-28.605468 1.390625-42.84375-.089844zm0 0" fill="#54596e"/><path d="m90.382812 143.363281.9375-6.765625c-.011718.003906-.328124-.0625-.972656-.066406-6.160156-.015625-11.695312 2.523438-15.507812 6.449219-3.832032 3.921875-6.085938 9.21875-6.09375 14.867187-.003906 3.410156.847656 6.929688 2.609375 10.171875 25.4375 46.890625 75.902343 78.738281 133.914062 78.742188 57.777344-.003907 108.066407-31.59375 133.605469-78.160157 1.792969-3.261718 2.65625-6.8125 2.652344-10.246093-.003906-5.636719-2.253906-10.929688-6.074219-14.851563-3.804687-3.925781-9.335937-6.46875-15.488281-6.464844l-.6875.035157-93.261719 9.304687c-6.75.671875-13.527344 1.007813-20.300781 1.011719-7.0625-.003906-14.125-.367187-21.160156-1.101563l-93.464844-9.71875-.707032 6.792969.9375-6.765625-.9375 6.765625-.707031 6.789063 93.464844 9.71875c7.503906.777344 15.035156 1.171875 22.570313 1.171875 7.230468 0 14.457031-.359375 21.65625-1.078125l93.265624-9.304688-.675781-6.792968-.011719 6.828124c2.480469.019532 4.324219.929688 5.734376 2.34375 1.394531 1.425782 2.203124 3.371094 2.195312 5.316407-.003906 1.199219-.277344 2.410156-.972656 3.683593-23.167969 42.242188-68.902344 71.078126-121.628906 71.074219-52.941407.003907-98.835938-29.070312-121.914063-71.601562-.683594-1.269531-.953125-2.472657-.957031-3.664063-.007813-1.949218.804687-3.894531 2.199218-5.320312 1.417969-1.417969 3.265626-2.324219 5.746094-2.34375v-6.5625l-.902344 6.503906c.003907-.007812.277344.054688.902344.058594v-6.5625l-.902344 6.503906.230469.027344zm0 0" fill="#54596e"/><path d="m243.34375 157.980469 50.660156-7.792969v20.609375c0 3.851563-2.808594 7.132813-6.621094 7.714844l-44.039062 6.777343c-25.253906 3.882813-50.941406 4.019532-76.234375.410157l-50.722656-7.246094c-3.847657-.550781-6.703125-3.847656-6.703125-7.730469v-20.535156l57.425781 8.203125c25.296875 3.613281 50.980469 3.476563 76.234375-.410156zm0 0" fill="#fff"/><path d="m170.882812 307.203125h-13.65625c-18.847656 0-34.132812-15.28125-34.132812-34.132813v-34.136718c0-18.851563 15.285156-34.132813 34.132812-34.132813h13.65625c18.847657 0 34.132813 15.28125 34.132813 34.132813v34.136718c0 18.851563-15.285156 34.132813-34.132813 34.132813zm0 0" fill="#55a6ff"/><path d="m170.882812 307.203125v-6.828125h-13.65625c-7.558593-.003906-14.34375-3.046875-19.304687-8-4.953125-4.960938-7.996094-11.746094-8-19.304688v-34.136718c.003906-7.5625 3.046875-14.34375 8-19.308594 4.960937-4.949219 11.746094-7.992188 19.304687-8l13.65625.003906c7.558594.003906 14.34375 3.042969 19.304688 7.996094 4.953125 4.964844 7.996094 11.746094 8 19.308594v34.136718c-.003906 7.558594-3.046875 14.34375-8 19.304688-4.960938 4.953125-11.746094 7.996094-19.304688 8v13.652344c22.621094-.003906 40.953126-18.335938 40.957032-40.957032v-34.136718c-.003906-22.625-18.335938-40.957032-40.957032-40.957032h-13.65625c-22.621093 0-40.953124 18.332032-40.957031 40.957032v34.136718c.003907 22.621094 18.335938 40.953126 40.957031 40.957032h13.65625zm0 0" fill="#54596e"/><path d="m184.535156 389.121094h-40.960937l-6.824219-95.574219h54.613281zm0 0" fill="#ddd"/><g fill="#54596e"><path d="m184.535156 389.121094v-6.824219h-34.605468l-5.847657-81.921875h39.949219l-6.304688 88.261719 6.808594.484375v-6.824219 6.824219l6.808594.484375 6.828125-95.574219c.132813-1.894531-.519531-3.746094-1.816406-5.136719-1.292969-1.394531-3.09375-2.171875-4.992188-2.171875h-54.613281c-1.902344 0-3.703125.78125-4.996094 2.171875-1.296875 1.390625-1.949218 3.242188-1.816406 5.136719l6.828125 95.574219c.253906 3.574219 3.226563 6.339843 6.808594 6.339843h40.960937c3.582032 0 6.554688-2.765624 6.808594-6.339843zm0 0"/><path d="m157.226562 389.121094v3.414062c-.007812 5.652344-4.585937 10.226563-10.238281 10.238282h-54.613281c-5.652344-.011719-10.230469-4.585938-10.238281-10.238282-.007813-13.199218-10.695313-23.890625-23.894531-23.894531h-51.199219c-3.769531 0-6.828125 3.054687-6.828125 6.828125 0 3.769531 3.058594 6.828125 6.828125 6.828125l51.199219-.003906c5.652343.011719 10.230468 4.585937 10.238281 10.242187.007812 13.195313 10.695312 23.886719 23.894531 23.890625l54.613281.003907c13.199219-.007813 23.886719-10.699219 23.894531-23.894532v-3.414062c0-3.769532-3.058593-6.824219-6.828124-6.824219-3.769532 0-6.828126 3.054687-6.828126 6.824219zm0 0"/><path d="m396.160156 44.375c0-5.65625-7.640625-10.238281-17.066406-10.238281s-17.066406 4.582031-17.066406 10.238281 7.640625 10.238281 17.066406 10.238281 17.066406-4.582031 17.066406-10.238281zm0 0"/><path d="m382.507812 6.828125v34.132813c0 3.769531 3.058594 6.828124 6.828126 6.828124 3.769531 0 6.824218-3.058593 6.824218-6.828124v-34.132813c0-3.769531-3.054687-6.828125-6.824218-6.828125-3.769532 0-6.828126 3.058594-6.828126 6.828125"/><path d="m259.628906 344.75c0-5.65625-7.640625-10.242188-17.066406-10.242188s-17.066406 4.585938-17.066406 10.242188c0 5.652344 7.640625 10.238281 17.066406 10.238281s17.066406-4.585937 17.066406-10.238281zm0 0"/><path d="m245.976562 307.203125v34.132813c0 3.769531 3.054688 6.824218 6.824219 6.824218s6.828125-3.054687 6.828125-6.824218v-34.132813c0-3.773437-3.058594-6.828125-6.828125-6.828125s-6.824219 3.054688-6.824219 6.828125"/><path d="m293.761719 283.308594c0-5.65625-7.640625-10.238282-17.066407-10.238282-9.425781 0-17.066406 4.582032-17.066406 10.238282s7.640625 10.238281 17.066406 10.238281c9.425782 0 17.066407-4.582031 17.066407-10.238281zm0 0"/><path d="m293.761719 279.894531v-29.914062l27.308593-13.65625v23.089843c0 3.769532 3.054688 6.828126 6.824219 6.828126s6.828125-3.058594 6.828125-6.828126v-34.132812c0-2.375-1.21875-4.558594-3.238281-5.808594-2.015625-1.246094-4.519531-1.359375-6.640625-.296875l-40.960938 20.480469c-2.320312 1.15625-3.773437 3.515625-3.773437 6.105469v34.132812c0 3.769531 3.054687 6.828125 6.824219 6.828125 3.769531 0 6.828125-3.058594 6.828125-6.828125zm0 0"/><path d="m334.722656 262.828125c0-5.65625-7.640625-10.238281-17.066406-10.238281s-17.066406 4.582031-17.066406 10.238281 7.640625 10.242187 17.066406 10.242187 17.066406-4.585937 17.066406-10.242187zm0 0"/></g></svg>