<svg height="416pt" viewBox="-10 0 416 416.42667" width="416pt" xmlns="http://www.w3.org/2000/svg"><path d="m274.015625 379.832031c-23.339844 10.328125-48.953125 16.113281-75.828125 16.113281-26.878906 0-52.492188-5.785156-75.832031-16.113281-28.648438 3.75-47.046875 9.574219-47.046875 16.113281 0 11.3125 55.007812 20.480469 122.878906 20.480469 67.867188 0 122.875-9.167969 122.875-20.480469 0-6.539062-18.402344-12.363281-47.046875-16.113281" fill="#eeeef0"/><path d="m389.332031 190.894531c0-105.566406-85.582031-184.0625-191.144531-184.0625-105.566406 0-191.148438 78.496094-191.148438 184.0625 0 105.570313 85.582032 198.230469 191.148438 198.230469 105.5625 0 191.144531-92.660156 191.144531-198.230469" fill="#fff35f"/><path d="m389.332031 190.894531h6.824219c.019531-54.648437-22.21875-102.550781-58.109375-136.574219-35.882813-34.050781-85.382813-54.3281245-139.859375-54.320312-54.484375-.0078125-103.980469 20.273438-139.863281 54.320312-35.890625 34.023438-58.128907 81.925782-58.109375 136.574219.003906 54.648438 22.113281 105.828125 57.863281 143.40625 35.730469 37.574219 85.289063 61.644531 140.109375 61.644531 54.816406 0 104.371094-24.070312 140.105469-61.644531 35.746093-37.578125 57.855469-88.757812 57.863281-143.40625h-13.648438c.003907 50.921875-20.667968 98.855469-54.109374 133.996094-33.449219 35.144531-79.464844 57.402344-130.210938 57.402344-50.753906 0-96.765625-22.257813-130.21875-57.402344-33.441406-35.140625-54.113281-83.074219-54.105469-133.996094.015625-50.921875 20.570313-95.058593 53.855469-126.667969 33.304688-31.59375 79.378906-50.574218 130.46875-50.574218 51.085938 0 97.15625 18.980468 130.460938 50.574218 33.289062 31.609376 53.839843 75.746094 53.859374 126.667969z" fill="#54596e"/><path d="m380.917969 167.382812c-11.726563 91.417969-89.035157 167.128907-182.730469 167.128907s-171.007812-75.710938-182.726562-167.128907c-1.015626 7.746094-1.59375 15.664063-1.59375 23.765626 0 1.734374.023437 3.46875.074218 5.195312 1.40625 48.886719 21.78125 94.660156 54.027344 128.546875 33.453125 35.144531 79.464844 57.402344 130.21875 57.402344 50.746094 0 96.761719-22.257813 130.214844-57.402344 33.40625-35.105469 54.070312-82.972656 54.105468-133.839844-.003906-8.070312-.589843-15.953125-1.589843-23.667969" fill="#eee361"/><g fill="#54596e"><path d="m13.941406 196.339844c2.742188 99.625 84.175782 185.953125 184.246094 185.953125-50.753906 0-96.765625-22.257813-130.21875-57.402344-32.246094-33.886719-52.621094-79.660156-54.027344-128.550781m368.566406-5.289063c-.035156 50.867188-20.703124 98.734375-54.109374 133.839844-33.449219 35.144531-79.464844 57.402344-130.210938 57.402344 101.796875 0 184.320312-89.351563 184.320312-191.144531 0-.03125 0-.066407 0-.097657"/><path d="m252.796875 273.066406c0-30.160156-24.453125-54.613281-54.613281-54.613281s-54.613282 24.453125-54.613282 54.613281zm0 0"/><path d="m252.796875 273.066406h6.828125c-.003906-33.933594-27.507812-61.4375-61.441406-61.441406-33.933594.003906-61.433594 27.507812-61.4375 61.441406 0 1.796875.726562 3.554688 1.996094 4.828125 1.269531 1.269531 3.03125 2 4.828124 2h109.226563c1.796875 0 3.554687-.730469 4.828125-2 1.269531-1.273437 2-3.03125 2-4.828125h-6.828125v-6.828125h-109.226563v6.828125h6.828126c.003906-13.21875 5.339843-25.121094 13.996093-33.792968 8.671875-8.65625 20.574219-13.988282 33.792969-13.996094 13.214844.007812 25.121094 5.339844 33.789062 13.996094 8.65625 8.671874 13.992188 20.574218 13.996094 33.792968h6.824219v-6.828125zm0 0"/></g><path d="m225.492188 266.238281c0-15.082031-12.226563-27.304687-27.308594-27.304687-15.078125 0-27.304688 12.222656-27.304688 27.304687" fill="#f99"/><path d="m300.585938 153.601562c0 9.425782-7.640626 17.066407-17.066407 17.066407s-17.066406-7.640625-17.066406-17.066407c0-9.425781 7.640625-17.066406 17.066406-17.066406s17.066407 7.640625 17.066407 17.066406zm0 0" fill="#fff35f"/><path d="m300.585938 153.601562h6.824218c0-13.199218-10.691406-23.890624-23.890625-23.894531-13.199219.003907-23.890625 10.695313-23.894531 23.894531.003906 13.195313 10.695312 23.886719 23.894531 23.890626 13.199219-.003907 23.886719-10.695313 23.890625-23.890626h-13.652344c-.007812 5.652344-4.585937 10.226563-10.238281 10.238282-5.65625-.011719-10.230469-4.585938-10.242187-10.238282.011718-5.652343 4.589844-10.230468 10.242187-10.242187 5.652344.011719 10.230469 4.585937 10.238281 10.242187zm0 0" fill="#54596e"/><path d="m129.917969 153.601562c0 9.425782-7.640625 17.066407-17.066407 17.066407-9.425781 0-17.066406-7.640625-17.066406-17.066407 0-9.425781 7.640625-17.066406 17.066406-17.066406 9.425782 0 17.066407 7.640625 17.066407 17.066406zm0 0" fill="#fff35f"/><path d="m129.917969 153.601562h6.828125c-.003906-13.199218-10.695313-23.890624-23.894532-23.894531-13.199218.003907-23.890624 10.695313-23.894531 23.894531.003907 13.195313 10.695313 23.886719 23.894531 23.890626 13.199219-.003907 23.886719-10.695313 23.894532-23.890626h-13.65625c-.007813 5.652344-4.585938 10.226563-10.238282 10.238282-5.652343-.011719-10.230468-4.585938-10.238281-10.238282.007813-5.652343 4.585938-10.230468 10.238281-10.242187 5.652344.011719 10.230469 4.585937 10.238282 10.242187zm0 0" fill="#54596e"/><path d="m245.972656 122.878906h54.613282c3.769531 0 6.824218-3.054687 6.824218-6.824218 0-3.773438-3.054687-6.828126-6.824218-6.828126h-54.613282c-3.769531 0-6.828125 3.054688-6.828125 6.828126 0 3.769531 3.058594 6.824218 6.828125 6.824218" fill="#54596e"/><path d="m77.398438 128.558594 53.347656-11.671875c3.683594-.808594 6.015625-4.445313 5.207031-8.128907-.804687-3.683593-4.441406-6.015624-8.128906-5.210937l-53.34375 11.671875c-3.683594.808594-6.015625 4.445312-5.210938 8.128906.808594 3.6875 4.445313 6.015625 8.128907 5.210938" fill="#54596e"/></svg>