<svg height="430pt" viewBox="-17 0 430 430.07829" width="430pt" xmlns="http://www.w3.org/2000/svg"><path d="m122.175781 393.484375c-28.644531 3.75-47.046875 9.574219-47.046875 16.117187 0 11.308594 55.015625 20.476563 122.875 20.476563 67.871094 0 122.882813-9.167969 122.882813-20.476563 0-6.542968-18.398438-12.367187-47.042969-16.117187-23.34375 10.328125-48.957031 16.113281-75.839844 16.109375-.007812 0-.011718 0-.019531 0-26.867187.003906-52.476563-5.785156-75.808594-16.109375" fill="#eeeef0"/><path d="m389.152344 204.546875c0-105.5625-85.574219-184.066406-191.148438-184.066406-105.5625 0-191.144531 78.5-191.144531 184.066406 0 105.570313 85.582031 198.226563 191.144531 198.226563 105.574219 0 191.148438-92.65625 191.148438-198.226563" fill="#f99"/><path d="m389.152344 204.546875h6.828125c.019531-54.648437-22.21875-102.546875-58.113281-136.574219-35.882813-34.050781-85.382813-54.324218-139.859376-54.316406-54.480468-.007812-103.980468 20.265625-139.859374 54.316406-35.886719 34.027344-58.1289068 81.925782-58.1093755 136.574219.0078125 54.648437 22.1210935 105.824219 57.8593755 143.410156 35.734374 37.570313 85.296874 61.644531 140.109374 61.636719 54.816407.007812 104.382813-24.066406 140.105469-61.636719 35.746094-37.585937 57.863281-88.761719 57.867188-143.410156h-13.648438c.003907 50.921875-20.675781 98.855469-54.109375 133.996094-33.449218 35.148437-79.460937 57.40625-130.21875 57.40625-50.746094 0-96.757812-22.257813-130.207031-57.40625-33.4375-35.140625-54.117187-83.074219-54.109375-133.996094.019531-50.921875 20.570312-95.050781 53.863281-126.671875 33.300781-31.59375 79.371094-50.566406 130.457031-50.570312 51.09375.003906 97.164063 18.976562 130.460938 50.570312 33.296875 31.621094 53.84375 75.75 53.863281 126.671875z" fill="#54596e"/><path d="m380.738281 181.035156c-11.726562 91.417969-89.035156 167.125-182.730469 167.125-93.691406 0-171-75.703125-182.726562-167.125-1.011719 7.71875-1.589844 15.597656-1.59375 23.664063.035156 50.867187 20.707031 98.738281 54.109375 133.84375 33.1875 34.871093 78.742187 57.058593 129.019531 57.398437.09375.003906.175782.003906.269532.003906.308593 0 .613281.003907.917968.003907.304688 0 .609375-.003907.910156-.003907.09375 0 .1875 0 .28125-.003906 50.285157-.339844 95.835938-22.527344 129.027344-57.398437 33.402344-35.105469 54.074219-82.976563 54.109375-133.839844-.003906-8.070313-.589843-15.949219-1.59375-23.667969" fill="#ee9295"/><g fill="#54596e"><path d="m198.914062 395.945312c-.300781 0-.605468 0-.90625 0zm-1.828124 0c.304687 0 .617187.003907.917968.003907-.304687-.003907-.609375-.003907-.917968-.003907m185.246093-191.242187c-.035156 50.863281-20.707031 98.734375-54.109375 133.839844-33.1875 34.871093-78.742187 57.058593-129.027344 57.398437 101.253907-.691406 183.136719-89.738281 183.136719-191.140625 0-.035156 0-.066406 0-.097656m-368.644531-.003906v.101562c0 101.402344 81.886719 190.449219 183.128906 191.140625-50.273437-.339844-95.828125-22.527344-129.015625-57.398437-33.40625-35.109375-54.078125-82.976563-54.113281-133.84375"/><path d="m119.472656 149.253906 16.480469 9.628906-23.132813 12.621094c-3.308593 1.804688-4.527343 5.949219-2.722656 9.261719 1.804688 3.308594 5.953125 4.527344 9.261719 2.726563l33.742187-18.414063c2.164063-1.179687 3.523438-3.429687 3.558594-5.890625s-1.257812-4.753906-3.382812-5.996094l-26.914063-15.722656c-3.257812-1.902344-7.4375-.804688-9.339843 2.453125-1.902344 3.25-.804688 7.429687 2.449218 9.332031zm0 0"/><path d="m269.269531 137.464844-26.917969 15.722656c-2.121093 1.242188-3.417968 3.535156-3.378906 5.996094.035156 2.460937 1.394532 4.710937 3.554688 5.890625l33.742187 18.410156c3.308594 1.808594 7.457031.589844 9.261719-2.722656 1.804688-3.308594.589844-7.453125-2.722656-9.261719l-23.128906-12.621094 16.476562-9.625c3.253906-1.902344 4.351562-6.082031 2.453125-9.339844-1.90625-3.25-6.085937-4.351562-9.339844-2.449218zm0 0"/><path d="m106.53125 271.703125 21.535156-16.152344 9.648438 14.476563c1.265625 1.898437 3.398437 3.039062 5.679687 3.039062s4.414063-1.140625 5.679688-3.039062l7.976562-11.960938 7.972657 11.960938c1.265624 1.898437 3.398437 3.039062 5.679687 3.039062s4.414063-1.140625 5.679687-3.039062l7.972657-11.960938 7.972656 11.960938c2.09375 3.136718 6.332031 3.984375 9.46875 1.890625 3.136719-2.089844 3.984375-6.328125 1.890625-9.464844l-13.652344-20.480469c-1.265625-1.902344-3.398437-3.039062-5.679687-3.039062s-4.414063 1.136718-5.679688 3.039062l-7.972656 11.957032-7.972656-11.957032c-1.269531-1.902344-3.398438-3.039062-5.679688-3.039062-2.285156 0-4.414062 1.136718-5.679687 3.039062l-7.976563 11.957032-7.972656-11.957032c-1.039063-1.5625-2.679687-2.625-4.527344-2.945312-1.847656-.316406-3.746093.144531-5.25 1.269531l-27.304687 20.480469c-3.015625 2.261718-3.628906 6.539062-1.367188 9.558594 2.261719 3.015624 6.542969 3.628906 9.558594 1.367187zm0 0"/><path d="m203.6875 270.027344 7.976562-11.960938 7.972657 11.960938c1.265625 1.898437 3.398437 3.039062 5.679687 3.039062s4.414063-1.140625 5.679688-3.039062l7.972656-11.960938 7.972656 11.960938c1.265625 1.898437 3.398438 3.039062 5.679688 3.039062s4.414062-1.140625 5.679687-3.039062l9.652344-14.476563 21.53125 16.152344c3.015625 2.257813 7.292969 1.648437 9.554687-1.367187 2.261719-3.015626 1.652344-7.292969-1.363281-9.554688l-27.304687-20.484375c-1.5-1.125-3.402344-1.582031-5.25-1.265625s-3.488282 1.378906-4.527344 2.941406l-7.972656 11.957032-7.972656-11.957032c-1.269532-1.898437-3.398438-3.039062-5.679688-3.039062s-4.414062 1.140625-5.679688 3.039062l-7.976562 11.957032-7.972656-11.957032c-1.265625-1.898437-3.398438-3.039062-5.679688-3.039062s-4.414062 1.140625-5.679687 3.039062l-13.652344 20.480469c-2.09375 3.136719-1.246094 7.375 1.890625 9.46875 3.140625 2.089844 7.378906 1.242187 9.46875-1.894531zm0 0"/><path d="m353.023438 52.613281 34.132812-34.132812c2.667969-2.664063 2.667969-6.988281 0-9.652344-2.664062-2.667969-6.988281-2.667969-9.652344 0l-34.132812 34.132813c-2.667969 2.664062-2.667969 6.988281 0 9.652343 2.664062 2.664063 6.984375 2.664063 9.652344 0"/><path d="m334.542969 27.308594v-20.480469c0-3.773437-3.058594-6.828125-6.828125-6.828125-3.769532 0-6.824219 3.054688-6.824219 6.828125v20.480469c0 3.769531 3.054687 6.824218 6.824219 6.824218 3.769531 0 6.828125-3.054687 6.828125-6.824218"/><path d="m361.847656 75.09375h27.308594c3.769531 0 6.824219-3.058594 6.824219-6.828125s-3.054688-6.824219-6.824219-6.824219h-27.308594c-3.769531 0-6.824218 3.054688-6.824218 6.824219s3.054687 6.828125 6.824218 6.828125"/></g></svg>