<svg height="416pt" viewBox="-10 0 416 416.43179" width="416pt" xmlns="http://www.w3.org/2000/svg"><path d="m274.023438 379.832031c-23.34375 10.332031-48.957032 16.117188-75.835938 16.113281-.003906 0-.011719 0-.019531 0-26.871094 0-52.480469-5.789062-75.816407-16.113281-28.644531 3.75-47.046874 9.578125-47.046874 16.121094 0 11.304687 55.015624 20.480469 122.882812 20.480469 67.863281 0 122.878906-9.175782 122.878906-20.480469 0-6.542969-18.398437-12.371094-47.042968-16.121094" fill="#eeeef0"/><path d="m389.332031 190.898438c0-105.566407-85.578125-184.066407-191.144531-184.066407-105.5625 0-191.148438 78.496094-191.148438 184.066407 0 105.5625 85.585938 198.222656 191.148438 198.222656 105.566406 0 191.144531-92.660156 191.144531-198.222656" fill="#fff35f"/><path d="m389.332031 190.898438h6.832031c.015626-54.648438-22.230468-102.554688-58.117187-136.574219-35.882813-34.046875-85.378906-54.324219-139.859375-54.324219-54.476562 0-103.980469 20.277344-139.863281 54.324219-35.886719 34.019531-58.125 81.921875-58.109375 136.574219.007812 54.644531 22.121094 105.824218 57.863281 143.402343 35.730469 37.578125 85.292969 61.652344 140.109375 61.644531 54.816406.007813 104.375-24.066406 140.105469-61.644531 35.746093-37.582031 57.859375-88.761719 57.871093-143.402343h-13.65625c.003907 50.921874-20.667968 98.851562-54.105468 133.992187-33.453125 35.144531-79.46875 57.40625-130.214844 57.40625-50.75 0-96.765625-22.261719-130.214844-57.40625-33.441406-35.140625-54.113281-83.070313-54.105468-133.992187.015624-50.921876 20.566406-95.054688 53.859374-126.671876 33.296876-31.59375 79.371094-50.566406 130.460938-50.574218 51.085938.007812 97.160156 18.980468 130.460938 50.574218 33.292968 31.613282 53.84375 75.75 53.859374 126.671876z" fill="#54596e"/><path d="m380.910156 167.382812c-11.71875 91.417969-89.027344 167.125-182.722656 167.125-93.691406 0-171.007812-75.703124-182.726562-167.125-1.007813 7.714844-1.589844 15.597657-1.597657 23.667969.035157 50.867188 20.699219 98.734375 54.105469 133.835938 33.453125 35.148437 79.46875 57.410156 130.21875 57.410156 50.746094 0 96.761719-22.261719 130.210938-57.410156 33.40625-35.101563 54.074218-82.972657 54.105468-133.839844 0-8.066406-.578125-15.945313-1.59375-23.664063" fill="#eee361"/><g fill="#54596e"><path d="m13.867188 191.050781v.097657c0 101.796874 82.527343 191.148437 184.320312 191.148437-50.75 0-96.765625-22.261719-130.214844-57.410156-33.410156-35.101563-54.074218-82.96875-54.105468-133.835938m368.640624-.003906c-.035156 50.867187-20.699218 98.738281-54.105468 133.839844-33.453125 35.148437-79.46875 57.410156-130.214844 57.410156 101.800781 0 184.320312-89.351563 184.320312-191.148437 0-.035157 0-.066407 0-.101563"/><path d="m273.28125 105.816406c0 9.425782-7.640625 17.066406-17.066406 17.066406-9.425782 0-17.066406-7.640624-17.066406-17.066406 0-9.425781 7.640624-17.066406 17.066406-17.066406 9.425781 0 17.066406 7.640625 17.066406 17.066406zm0 0"/><path d="m157.226562 119.46875c0 9.425781-7.640624 17.066406-17.066406 17.066406-9.425781 0-17.066406-7.640625-17.066406-17.066406s7.640625-17.066406 17.066406-17.066406c9.425782 0 17.066406 7.640625 17.066406 17.066406zm0 0"/><path d="m247.835938 195.671875c-8.625-18.785156-27.617188-31.824219-49.648438-31.832031-21.554688.007812-40.214844 12.496094-49.078125 30.636718-1.65625 3.382813-.257813 7.472657 3.128906 9.132813s7.476563.253906 9.132813-3.128906c6.671875-13.617188 20.640625-22.992188 36.816406-22.988281 16.53125-.003907 30.753906 9.789062 37.238281 23.882812 1.574219 3.425781 5.628907 4.925781 9.054688 3.351562 3.425781-1.574218 4.925781-5.625 3.355469-9.054687zm0 0"/><path d="m140.160156 68.269531c-24.507812.003907-44.367187 19.863281-44.371094 44.371094 0 3.769531 3.054688 6.828125 6.824219 6.828125s6.828125-3.058594 6.828125-6.828125c.003906-8.503906 3.425782-16.140625 8.996094-21.722656 5.582031-5.570313 13.21875-8.996094 21.722656-8.996094 3.769532 0 6.824219-3.058594 6.824219-6.828125s-3.054687-6.824219-6.824219-6.824219zm0 0"/></g><path d="m239.148438 266.242188h-143.058594c-3.769532 0-6.667969-3.328126-6.152344-7.058594l5.851562-42.230469c0-5.765625-3.933593-11.167969-9.636718-12.023437-6.027344-.902344-11.546875 3.015624-12.824219 8.769531l-15.5625 39.3125c-1.953125 8.792969-2.941406 17.773437-2.941406 26.777343v58.214844c0 16.917969 13.71875 30.636719 30.636719 30.636719h45.65625c14.945312 0 27.585937-11.0625 29.558593-25.878906l4.242188-31.808594c1.324219-9.964844 9.828125-17.40625 19.875-17.40625h54.351562c7.539063 0 13.652344-6.113281 13.652344-13.652344 0-7.542969-6.109375-13.652343-13.648437-13.652343zm0 0" fill="#fff"/><path d="m239.148438 266.242188v-6.828126h-143.058594v.628907h.613281l-.613281-.628907v.628907h.613281-.710937l.703124.101562.007813-.101562h-.710937l.703124.101562.003907-.023437 5.851562-42.230469.0625-.9375c-.007812-4.4375-1.480469-8.644531-4.117187-12.046875-2.625-3.390625-6.585938-6.023438-11.328125-6.726562h.007812c-.914062-.136719-1.835937-.207032-2.753906-.207032-8.523437 0-15.910156 5.917969-17.753906 14.25l6.664062 1.476563-6.347656-2.511719-15.5625 39.3125-.316406 1.03125c-2.0625 9.277344-3.105469 18.75-3.105469 28.257812v58.214844c.007812 20.691406 16.769531 37.457032 37.464844 37.460938h45.65625c18.363281 0 33.894531-13.59375 36.324218-31.804688l4.242188-31.808594c.871094-6.570312 6.484375-11.484374 13.109375-11.480468h54.351563c11.3125-.003906 20.472656-9.164063 20.480468-20.480469-.007812-11.3125-9.167968-20.476563-20.480468-20.480469v13.65625c3.765624.007813 6.820312 3.0625 6.824218 6.828125-.003906 3.765625-3.058594 6.820313-6.824218 6.828125h-54.351563c-13.472656 0-24.863281 9.972656-26.644531 23.328125l-4.242188 31.808594c-1.519531 11.421875-11.269531 19.957031-22.789062 19.957031h-45.65625c-13.148438-.027344-23.785156-10.664062-23.8125-23.8125v-58.210937c0-8.507813.933594-16.992188 2.777344-25.296875l-6.664063-1.480469 6.347656 2.511719 15.5625-39.3125.316407-1.035156c.460937-2.074219 2.300781-3.550782 4.429687-3.550782l.710937.054688h.007813c.960937.152344 1.8125.648437 2.582031 1.613281.753906.953125 1.246094 2.332031 1.238282 3.660156h6.828124l-6.761718-.9375-5.851563 42.226563.003907-.023438c-.089844.621094-.128907 1.234375-.128907 1.824219.003907 7.109375 5.742188 13 13.039063 13.023437h143.058594zm0 0" fill="#54596e"/></svg>