<svg height="416pt" viewBox="-10 0 416 416.43008" width="416pt" xmlns="http://www.w3.org/2000/svg"><path d="m274.023438 379.828125c-23.34375 10.332031-48.957032 16.117187-75.835938 16.117187s-52.492188-5.789062-75.832031-16.117187c-28.644531 3.75-47.046875 9.578125-47.046875 16.117187 0 11.3125 55.015625 20.484376 122.878906 20.484376 67.867188 0 122.882812-9.171876 122.882812-20.484376 0-6.539062-18.402343-12.367187-47.046874-16.117187" fill="#eeeef0"/><path d="m389.339844 190.894531c0-105.5625-85.582032-184.0625-191.152344-184.0625-105.566406 0-191.144531 78.496094-191.144531 184.0625 0 105.566407 85.578125 198.226563 191.144531 198.226563 105.570312 0 191.152344-92.660156 191.152344-198.226563" fill="#fff35f"/><path d="m389.339844 190.894531h6.824218c.019532-54.652343-22.222656-102.550781-58.113281-136.578125-35.878906-34.046875-85.378906-54.316406-139.863281-54.316406-54.476562 0-103.976562 20.269531-139.859375 54.316406-35.890625 34.027344-58.132813 81.925782-58.113281 136.578125.007812 54.644531 22.121094 105.828125 57.867187 143.402344 35.734375 37.578125 85.289063 61.652344 140.105469 61.652344s104.378906-24.070313 140.113281-61.648438c35.738281-37.578125 57.851563-88.761719 57.863281-143.402343h-13.65625c.011719 50.917968-20.664062 98.847656-54.101562 133.996093-33.453125 35.144531-79.464844 57.398438-130.21875 57.402344-50.75-.003906-96.765625-22.257813-130.214844-57.402344-33.4375-35.148437-54.113281-83.078125-54.105468-133.996093.019531-50.917969 20.566406-95.054688 53.859374-126.675782 33.304688-31.585937 79.378907-50.566406 130.460938-50.574218 51.089844.007812 97.164062 18.988281 130.460938 50.574218 33.292968 31.617188 53.839843 75.753906 53.859374 126.671875z" fill="#54596e"/><path d="m380.914062 167.382812c-11.722656 91.417969-89.03125 167.125-182.726562 167.125-93.691406 0-171.003906-75.707031-182.726562-167.125-1.007813 7.714844-1.589844 15.597657-1.59375 23.667969.035156 50.859375 20.703124 98.730469 54.105468 133.839844 33.449219 35.148437 79.464844 57.402344 130.214844 57.40625 50.753906-.003906 96.765625-22.257813 130.21875-57.40625 33.402344-35.109375 54.070312-82.976563 54.101562-133.835937-.007812-8.074219-.578124-15.957032-1.59375-23.671876" fill="#eee361"/><g fill="#54596e"><path d="m382.507812 191.054688c-.03125 50.859374-20.699218 98.726562-54.101562 133.835937-33.453125 35.148437-79.464844 57.402344-130.21875 57.40625 101.800781 0 184.320312-89.351563 184.320312-191.144531 0-.035156 0-.066406 0-.097656m-368.640624-.003907v.101563c0 101.796875 82.523437 191.144531 184.320312 191.144531-50.75-.003906-96.765625-22.257813-130.214844-57.40625-33.402344-35.109375-54.070312-82.980469-54.105468-133.839844"/><path d="m280.109375 116.054688c-.011719 7.535156-6.117187 13.636718-13.652344 13.652343-7.535156-.015625-13.640625-6.117187-13.652343-13.652343 0-3.769532-3.058594-6.828126-6.828126-6.828126-3.769531 0-6.828124 3.058594-6.828124 6.828126.007812 15.082031 12.226562 27.300781 27.308593 27.304687 15.082031-.003906 27.300781-12.222656 27.304688-27.304687 0-3.769532-3.054688-6.828126-6.824219-6.828126-3.773438 0-6.828125 3.058594-6.828125 6.828126zm0 0"/><path d="m143.578125 116.054688c-.015625 7.535156-6.117187 13.636718-13.65625 13.652343-7.535156-.015625-13.636719-6.117187-13.652344-13.652343 0-3.769532-3.054687-6.828126-6.824219-6.828126-3.773437 0-6.828124 3.058594-6.828124 6.828126.003906 15.082031 12.222656 27.300781 27.304687 27.304687 15.085937-.003906 27.304687-12.222656 27.308594-27.304687 0-3.769532-3.058594-6.828126-6.828125-6.828126-3.769532 0-6.824219 3.058594-6.824219 6.828126zm0 0"/></g><path d="m143.578125 238.933594h109.226563v34.136718h-109.226563zm0 0" fill="#ff927d"/><path d="m360.414062 188.292969s0 31.597656-34.644531 36.863281c-28.039062 4.261719-64.785156-54.488281-99.601562-52.660156-11.5.605468-21.679688 6.855468-27.980469 17.359375-6.296875-10.503907-16.480469-16.71875-27.980469-17.359375-32.71875-1.824219-71.5625 56.925781-99.597656 52.660156-34.644531-5.265625-34.644531-36.863281-34.644531-36.863281s-12.988282 68.460937 34.644531 84.257812c47.636719 15.800781 122.796875-25.308593 127.578125-33.308593 4.78125 8 79.945312 49.109374 127.582031 33.308593 47.632813-15.796875 34.644531-84.257812 34.644531-84.257812zm0 0" fill="#fff"/><path d="m360.414062 188.292969h-6.828124 1.707031l-1.707031-.03125v.03125h1.707031l-1.707031-.03125c.019531.300781-.25 7.253906-3.9375 14.066406-1.839844 3.421875-4.464844 6.824219-8.355469 9.6875-3.902344 2.859375-9.128907 5.25-16.550781 6.386719-.617188.09375-1.265626.140625-1.953126.144531-4.523437.070313-10.828124-2.472656-17.925781-7.160156-10.683593-6.949219-22.8125-18.066407-35.546875-27.652344-6.390625-4.796875-12.964844-9.226563-19.84375-12.550781-6.867187-3.3125-14.113281-5.558594-21.703125-5.566406-.664062 0-1.339843.019531-2.027343.0625l.425781 6.8125-.359375-6.816407c-13.789063.679688-26.167969 8.378907-33.476563 20.664063l5.855469 3.511718 5.855469-3.511718c-7.316407-12.296875-19.703125-19.941406-33.453125-20.664063-.605469-.035156-1.234375-.054687-1.890625-.054687-9.78125.039062-18.933594 3.992187-27.71875 9.246094-13.15625 7.941406-25.855469 19.25-37.691407 28.347656-5.894531 4.550781-11.550781 8.53125-16.660156 11.246094-5.113281 2.738281-9.59375 4.105468-13.035156 4.082031-.683594 0-1.34375-.046875-1.988281-.144531l.027343.003906c-7.660156-1.171875-12.980468-3.679688-16.925781-6.664063-5.875-4.460937-8.855469-10.292969-10.402343-15.210937-.765626-2.445313-1.152344-4.621094-1.335938-6.125-.09375-.753906-.140625-1.339844-.160156-1.710938l-.015625-.382812-.003907-.054688-2.960937.035156h2.960937v-.035156l-2.960937.035156h2.960937c0-3.523437-2.679687-6.46875-6.1875-6.796874-3.507812-.328126-6.6875 2.0625-7.347656 5.523437-.050781.285156-1.730468 9.175781-1.734375 21.53125.015625 11.324219 1.375 25.59375 7.132813 38.945313 2.886718 6.664062 6.914062 13.101562 12.480468 18.617187 5.554688 5.511719 12.652344 10.050781 21.324219 12.917969 8.421875 2.789062 17.398438 3.925781 26.523438 3.925781 24.175781-.035156 49.589843-7.878906 69.78125-16.46875 10.09375-4.3125 18.851562-8.828125 25.480469-12.785156 3.316406-1.980469 6.097656-3.816407 8.328124-5.496094 1.113282-.84375 2.09375-1.644531 2.972657-2.472656.882812-.855469 1.671875-1.644531 2.5-2.988281l-5.851563-3.5-5.863281 3.5c.828125 1.34375 1.617187 2.132812 2.5 2.988281 1.644531 1.539062 3.671875 3.054687 6.21875 4.769531 8.84375 5.90625 23.960937 13.851562 41.917969 20.511719 17.945312 6.621093 38.59375 11.925781 58.429687 11.945312 9.125 0 18.101563-1.136719 26.523438-3.925781 8.671875-2.867188 15.769531-7.402344 21.324219-12.917969 8.355468-8.289062 13.222656-18.585937 16.023437-28.746093 2.800781-10.179688 3.585937-20.324219 3.589844-28.820313-.003907-12.355469-1.683594-21.242187-1.734375-21.527344-.660156-3.460937-3.839844-5.855469-7.347656-5.523437-3.507813.328125-6.1875 3.273437-6.1875 6.796875h6.828124l-6.710937 1.269531.050781.277344c.265625 1.523437 1.453125 8.988281 1.449219 18.707031.015625 10.179687-1.34375 22.800781-6.007813 33.523437-2.328124 5.367188-5.4375 10.257813-9.5625 14.34375-4.132812 4.082032-9.273437 7.414063-16.011718 9.65625-6.703125 2.222657-14.238282 3.238282-22.230469 3.234376-21.175781.035156-45.351563-7.203126-64.417969-15.375-9.539062-4.070313-17.828125-8.355469-23.839844-11.945313-3-1.792969-5.441406-3.417969-7.101562-4.675781-.832031-.621094-1.464844-1.160156-1.835938-1.511719l-.332031-.335937-.007812-.007813-1.898438 1.535156 2.089844-1.25-.195313-.285156-1.898437 1.535156 2.09375-1.25c-1.230469-2.054687-3.464844-3.324219-5.859375-3.324219s-4.632812 1.265626-5.863281 3.324219l2.511719 1.5-2.34375-1.75-.167969.25 2.511719 1.5-2.34375-1.75.914062.683594-.886719-.722656-.027343.035156.914062.6875-.886719-.722656-.203125.210937c-.566406.574219-2.085937 1.804688-4.171875 3.214844-7.398437 5.039062-21.984375 12.828125-39.003906 19.152344-17.03125 6.363281-36.632813 11.296875-54.160156 11.277344-7.992188 0-15.527344-1.011719-22.230469-3.234376-6.738281-2.246093-11.878906-5.578124-16.011719-9.660156-6.175781-6.109375-10.105469-14.109375-12.46875-22.671875-2.359375-8.546875-3.101562-17.558593-3.097656-25.191406 0-5.550781.382813-10.371094.765625-13.765625.191406-1.695312.378906-3.035156.515625-3.933594l.164063-1.007812.050781-.277344-6.707031-1.273438h-6.828126c.027344.613282 0 9.445313 5.066407 19.539063 2.539062 5.027344 6.433593 10.363281 12.246093 14.777344 5.800782 4.425781 13.472657 7.839843 23.132813 9.292969l.027344.007812c1.320312.195312 2.652343.289062 3.984375.289062 9.085937-.074218 17.417968-4.121093 25.671875-9.34375 12.339843-7.925781 24.777343-19.148437 36.902343-28.195312 6.039063-4.519531 11.972657-8.480469 17.511719-11.203125 5.546875-2.742187 10.628907-4.195313 15.019531-4.179687l1.125.035156c9.242188.558594 17.226563 5.335937 22.507813 14.054687 1.230469 2.050781 3.460937 3.3125 5.855469 3.3125 2.394531 0 4.625-1.261719 5.855468-3.3125 5.292969-8.726562 13.273438-13.53125 22.484376-14.054687l.066406-.003906 1.175781-.035157c6.417969-.027343 13.726563 2.664063 21.5 7.308594 11.671875 6.921875 23.960937 17.90625 36.015625 27.414063 6.054688 4.753906 12.074219 9.148437 18.21875 12.492187 6.136719 3.316406 12.496094 5.6875 19.285156 5.710937 1.320313.003907 2.65625-.089843 3.996094-.292968 9.667969-1.457032 17.339844-4.871094 23.140625-9.296875 8.738281-6.644531 13.066406-15.253907 15.171875-22 2.113281-6.78125 2.132812-11.847657 2.136719-12.316407h-6.816407l-6.710937 1.273438zm0 0" fill="#54596e"/></svg>