<svg height="418pt" viewBox="-6 0 418 418.99693" width="418pt" xmlns="http://www.w3.org/2000/svg"><path d="m127.957031 382.050781c-30.214843 3.730469-49.796875 9.714844-49.796875 16.460938 0 11.316406 55.011719 20.484375 122.875 20.484375 67.867188 0 122.878906-9.167969 122.878906-20.484375 0-6.535157-18.382812-12.355469-47.011718-16.105469-23.378906 9.167969-48.332032 13.671875-73.328125 13.667969-25.636719-.007813-51.367188-4.722657-75.617188-14.023438" fill="#eeeef0"/><path d="m331.191406 60.375c-74.648437-74.648438-190.667968-69.640625-265.3125 5.007812-74.652344 74.648438-79.65625 190.671876-5.011718 265.316407 74.652343 74.648437 200.683593 79.652343 275.328124 5.007812 74.652344-74.652343 69.644532-200.6875-5.003906-275.332031" fill="#fff35f"/><path d="m331.191406 60.375 4.832032-4.828125c-37.339844-37.355469-84.921876-55.5703125-132.699219-55.546875-51.101563-.00390625-102.464844 20.734375-142.273438 60.550781-39.816406 39.808594-60.550781 91.175781-60.550781 142.277344-.019531 47.773437 18.183594 95.355469 55.546875 132.695313 39.9375 39.929687 93.953125 60.539062 147.527344 60.546874 50.09375.011719 99.988281-18.078124 137.453125-55.539062 37.460937-37.460938 55.550781-87.363281 55.546875-137.453125-.007813-53.574219-20.628907-107.589844-60.550781-147.53125l-4.832032 4.828125-4.828125 4.824219c37.21875 37.207031 56.558594 87.785156 56.554688 137.878906-.011719 46.859375-16.863281 93.109375-51.550781 127.796875-34.683594 34.683594-80.9375 51.535156-127.796876 51.546875-50.09375.007813-100.671874-19.332031-137.875-56.550781-34.789062-34.816406-51.527343-78.707032-51.546874-123.042969 0-47.410156 19.222656-95.285156 56.558593-132.621094 37.332031-37.339843 85.207031-56.554687 132.617188-56.558593 44.335937.023437 88.226562 16.761718 123.039062 51.550781z" fill="#54596e"/><path d="m308.613281 49.703125c56.355469 72.9375 55.21875 181.132813-11.035156 247.386719-34.769531 34.769531-81.097656 51.601562-127.816406 51.601562-42.296875 0-84.910157-13.796875-119.566407-40.570312 4.761719 6.191406 9.953126 12.195312 15.683594 17.925781.710938.710937 1.429688 1.421875 2.152344 2.121094 36.964844 35.710937 86.472656 54.253906 135.519531 54.253906h.023438c46.855469-.011719 93.109375-16.863281 127.792969-51.546875 34.6875-34.6875 51.539062-80.9375 51.550781-127.796875.007812-50.046875-19.292969-100.574219-56.441407-137.765625-5.710937-5.703125-11.695312-10.863281-17.863281-15.609375" fill="#eee361"/><path d="m68.03125 328.167969c36.972656 35.808593 86.425781 54.34375 135.453125 54.34375 46.746094 0 93.097656-16.847657 127.882813-51.636719-34.683594 34.683594-80.9375 51.535156-127.796876 51.546875-.003906 0-.015624 0-.019531 0-49.046875 0-98.554687-18.542969-135.519531-54.253906m258.441406-262.855469c37.152344 37.191406 56.449219 87.71875 56.445313 137.765625-.011719 46.863281-16.863281 93.113281-51.550781 127.800781 71.988281-71.976562 67.152343-193.515625-4.824219-265.496094-.023438-.023437-.046875-.046874-.070313-.070312" fill="#54596e"/><path d="m293.414062 117.824219c-5.332031-5.332031-20.460937 1.152343-33.789062 14.480469-13.328125 13.332031-19.8125 28.457031-14.480469 33.789062s20.460938-1.148438 33.789063-14.480469c13.328125-13.328125 19.8125-28.457031 14.480468-33.789062zm0 0" fill="#f9bbed"/><path d="m167.90625 243.328125c-5.332031-5.332031-20.460938 1.152344-33.792969 14.480469-13.328125 13.332031-19.8125 28.460937-14.480469 33.792968 5.332032 5.332032 20.460938-1.152343 33.789063-14.484374 13.332031-13.328126 19.816406-28.457032 14.484375-33.789063zm0 0" fill="#f9bbed"/><g fill="#54596e"><path d="m200.726562 130.019531c-6.109374-2.261719-12.539062-3.398437-18.976562-3.398437-13.957031-.007813-27.984375 5.335937-38.640625 16-10.648437 10.640625-16 24.65625-15.992187 38.609375 0 6 .980468 12 2.953124 17.75 1.222657 3.570312 5.101563 5.46875 8.667969 4.246093 3.570313-1.222656 5.46875-5.101562 4.25-8.667968-1.480469-4.3125-2.21875-8.820313-2.21875-13.328125.007813-10.503907 3.984375-20.945313 11.996094-28.960938 8.019531-8.015625 18.46875-11.988281 28.984375-12 4.828125 0 9.65625.855469 14.238281 2.554688 3.535157 1.308593 7.460938-.5 8.769531-4.03125 1.308594-3.535157-.496093-7.464844-4.03125-8.773438zm0 0"/><path d="m191.378906 268.125c-5.332031-5.335938-13.976562-5.335938-19.308594 0-5.332031 5.332031-5.332031 13.976562 0 19.308594 5.332032 5.332031 13.976563 5.332031 19.308594 0 5.332032-5.332032 5.332032-13.976563 0-19.308594zm0 0"/><path d="m287.917969 171.5625c-5.332031-5.332031-13.976563-5.332031-19.308594 0s-5.332031 13.976562 0 19.308594c5.332031 5.332031 13.976563 5.332031 19.308594 0 5.332031-5.332032 5.332031-13.976563 0-19.308594zm0 0"/></g><path d="m399.011719 57.183594c0 26.390625-21.394531 47.785156-47.789063 47.785156-26.390625 0-47.785156-21.394531-47.785156-47.785156s21.394531-47.785156 47.785156-47.785156c26.394532 0 47.789063 21.394531 47.789063 47.785156zm0 0" fill="#f99"/><path d="m399.011719 57.183594h6.824219c-.003907-30.164063-24.445313-54.609375-54.613282-54.613282-30.167968.003907-54.605468 24.449219-54.613281 54.613282.007813 30.164062 24.445313 54.609375 54.613281 54.613281 30.167969-.003906 54.609375-24.449219 54.613282-54.613281h-13.652344c-.003906 11.332031-4.574219 21.527344-11.996094 28.960937-7.433594 7.425781-17.628906 11.992188-28.964844 12-11.332031-.007812-21.527344-4.578125-28.964844-12-7.421874-7.429687-11.992187-17.628906-11.996093-28.960937.003906-11.332032 4.574219-21.53125 11.996093-28.964844 7.4375-7.421875 17.632813-11.992188 28.964844-11.996094 11.335938.003906 21.53125 4.574219 28.964844 11.996094 7.421875 7.433594 11.992188 17.632812 11.996094 28.964844zm0 0" fill="#54596e"/><path d="m344.398438 29.875v34.136719c0 3.769531 3.054687 6.824219 6.824218 6.824219 3.769532 0 6.828125-3.054688 6.828125-6.824219v-34.136719c0-3.769531-3.058593-6.824219-6.828125-6.824219-3.769531 0-6.824218 3.054688-6.824218 6.824219" fill="#54596e"/><path d="m351.222656 91.316406c1.796875 0 3.558594-.726562 4.828125-2 1.269531-1.269531 2-3.027344 2-4.824218 0-1.800782-.730469-3.558594-2-4.832032-1.273437-1.269531-3.03125-1.996094-4.828125-1.996094s-3.554687.726563-4.824218 1.996094c-1.273438 1.273438-2 3.03125-2 4.832032 0 1.796874.726562 3.554687 2 4.824218 1.269531 1.273438 3.027343 2 4.824218 2" fill="#54596e"/></svg>