<svg height="416pt" viewBox="-10 0 416 416.43008" width="416pt" xmlns="http://www.w3.org/2000/svg"><path d="m122.359375 379.828125c-28.644531 3.75-47.050781 9.578125-47.050781 16.117187 0 11.3125 55.019531 20.484376 122.886718 20.484376 67.863282 0 122.878907-9.171876 122.878907-20.484376 0-6.539062-18.402344-12.367187-47.046875-16.117187-23.339844 10.332031-48.953125 16.117187-75.832032 16.117187-26.882812.003907-52.496093-5.785156-75.835937-16.117187" fill="#eeeef0"/><path d="m389.339844 190.894531c0-105.5625-85.582032-184.0625-191.144532-184.0625-105.566406 0-191.148437 78.496094-191.148437 184.0625 0 105.566407 85.582031 198.226563 191.148437 198.226563 105.5625 0 191.144532-92.660156 191.144532-198.226563" fill="#adf2a2"/><path d="m389.339844 190.894531h6.824218c.019532-54.652343-22.222656-102.550781-58.113281-136.578125-35.878906-34.046875-85.378906-54.316406-139.859375-54.316406-54.484375 0-103.984375 20.269531-139.863281 54.316406-35.890625 34.027344-58.132813 81.925782-58.113281 136.578125.011718 54.644531 22.125 105.828125 57.867187 143.402344 35.734375 37.578125 85.296875 61.652344 140.113281 61.652344 54.816407 0 104.371094-24.070313 140.105469-61.648438 35.746094-37.578125 57.851563-88.761719 57.863281-143.402343h-13.652343c.007812 50.917968-20.667969 98.847656-54.105469 133.996093-33.449219 35.144531-79.464844 57.398438-130.214844 57.402344-50.753906-.003906-96.765625-22.257813-130.21875-57.402344-33.4375-35.148437-54.113281-83.078125-54.101562-133.996093.019531-50.917969 20.566406-95.054688 53.859375-126.675782 33.300781-31.585937 79.375-50.566406 130.464843-50.574218 51.082032.007812 97.15625 18.988281 130.460938 50.574218 33.289062 31.617188 53.839844 75.753906 53.855469 126.671875z" fill="#54596e"/><path d="m380.917969 167.382812c-11.722657 91.417969-89.035157 167.125-182.722657 167.125-93.699218 0-171.003906-75.707031-182.726562-167.125-1.015625 7.714844-1.589844 15.601563-1.59375 23.671876.027344 50.859374 20.695312 98.726562 54.101562 133.835937 33.453126 35.148437 79.460938 57.402344 130.21875 57.40625 50.746094-.003906 96.761719-22.257813 130.210938-57.40625 33.40625-35.109375 54.074219-82.980469 54.105469-133.84375-.003907-8.066406-.585938-15.953125-1.59375-23.664063" fill="#a4e29d"/><path d="m13.875 191.054688v.097656c0 101.796875 82.515625 191.144531 184.320312 191.144531-50.757812-.003906-96.765624-22.257813-130.21875-57.40625-33.40625-35.109375-54.074218-82.976563-54.101562-133.835937m368.636719-.007813c-.03125 50.863281-20.703125 98.734375-54.105469 133.84375-33.449219 35.148437-79.464844 57.402344-130.210938 57.40625 101.792969 0 184.316407-89.351563 184.316407-191.144531 0-.035156 0-.070313 0-.105469" fill="#54596e"/><path d="m143.578125 150.1875c0 18.851562-15.28125 34.132812-34.132813 34.132812-18.851562 0-34.132812-15.28125-34.132812-34.132812s15.28125-34.132812 34.132812-34.132812c18.851563 0 34.132813 15.28125 34.132813 34.132812zm0 0" fill="#fff35f"/><path d="m314.246094 150.1875c0 18.851562-15.28125 34.132812-34.132813 34.132812-18.851562 0-34.136719-15.28125-34.136719-34.132812s15.285157-34.132812 34.136719-34.132812c18.851563 0 34.132813 15.28125 34.132813 34.132812zm0 0" fill="#fff35f"/><g fill="#54596e"><path d="m145.578125 107.226562c9.988281 9.996094 14.957031 23.03125 14.964844 36.132813-.007813 13.097656-4.976563 26.132813-14.96875 36.136719-7.730469 7.726562-17.804688 11.5625-27.9375 11.570312-10.136719-.007812-20.210938-3.847656-27.941407-11.574218-5.917968-5.921876-8.851562-13.621094-8.859374-21.386719.007812-7.765625 2.941406-15.464844 8.859374-21.382813 4.84375-4.941406 13.222657-8.242187 20.714844-8.1875 3.019532 0 5.863282.503906 8.292969 1.453125 2.433594.960938 4.445313 2.328125 6.0625 4.191407 3.898437 4.402343 6.859375 11.882812 6.792969 18.222656 0 3.105468-.636719 5.890625-1.859375 8.148437-1.242188 2.257813-2.996094 4.113281-5.957031 5.625-4.726563 2.414063-9.328126 3.914063-12.566407 3.875-2.640625-.074219-4.289062-.609375-6.382812-2.605469-1.640625-1.648437-2.4375-3.746093-2.445313-5.90625.007813-2.164062.804688-4.261718 2.445313-5.910156 1.058593-1.054687 2.378906-1.554687 3.765625-1.5625 1.386718.007813 2.707031.507813 3.761718 1.558594 2.664063 2.667969 6.988282 2.667969 9.65625.003906 2.667969-2.664062 2.667969-6.988281.003907-9.652344-3.691407-3.695312-8.589844-5.570312-13.421875-5.5625-4.832032-.007812-9.730469 1.867188-13.417969 5.5625-4.285156 4.273438-6.453125 9.949219-6.445313 15.5625-.007812 5.605469 2.160157 11.28125 6.445313 15.5625 4.527344 4.617188 10.546875 6.671876 16.039063 6.597657 6.855468-.042969 13.058593-2.523438 18.699218-5.324219 5.332032-2.664062 9.363282-6.71875 11.835938-11.339844 2.492187-4.621094 3.496094-9.691406 3.496094-14.632812-.066407-10.128906-3.972657-19.96875-10.125-27.164063-3.175782-3.671875-7.160157-6.304687-11.402344-7.960937-4.253906-1.664063-8.769532-2.390625-13.273438-2.390625-11.136718.054687-22.398437 4.304687-30.371094 12.179687-8.558593 8.550782-12.863281 19.828125-12.855468 31.042969-.007813 11.210937 4.296875 22.488281 12.855468 31.042969 10.367188 10.367187 24.011719 15.578125 37.597657 15.570312 13.582031.007813 27.230469-5.203125 37.597656-15.570312 12.628906-12.632813 18.972656-29.246094 18.964844-45.789063.007812-16.550781-6.335938-33.160156-18.964844-45.785156-2.667969-2.667969-6.988281-2.667969-9.65625 0-2.667969 2.660156-2.667969 6.984375 0 9.648437zm0 0"/><path d="m236.335938 97.570312c-12.632813 12.625-18.972657 29.238282-18.964844 45.785157-.011719 16.546875 6.332031 33.160156 18.964844 45.789062 10.363281 10.371094 24.011718 15.582031 37.59375 15.570313 13.582031.011718 27.230468-5.203125 37.59375-15.570313 8.558593-8.554687 12.867187-19.828125 12.859374-31.039062.007813-11.214844-4.300781-22.492188-12.863281-31.042969-7.964843-7.871094-19.226562-12.125-30.363281-12.179688-4.503906 0-9.019531.730469-13.269531 2.390626-4.246094 1.65625-8.226563 4.289062-11.40625 7.964843-6.148438 7.191407-10.058594 17.03125-10.125 27.160157 0 4.945312 1.003906 10.011718 3.496093 14.632812 2.472657 4.621094 6.503907 8.675781 11.832032 11.335938 5.648437 2.808593 11.847656 5.285156 18.707031 5.328124 5.488281.074219 11.511719-1.980468 16.035156-6.59375 4.285157-4.285156 6.457031-9.957031 6.449219-15.566406.007812-5.613281-2.164062-11.289062-6.449219-15.566406-3.6875-3.691406-8.582031-5.566406-13.414062-5.554688-4.832031-.011718-9.730469 1.863282-13.417969 5.558594-2.664062 2.664063-2.664062 6.988282.003906 9.652344 2.667969 2.667969 6.988282 2.667969 9.65625 0 1.054688-1.054688 2.375-1.550781 3.757813-1.5625 1.386719.011719 2.703125.507812 3.761719 1.558594 1.648437 1.652344 2.445312 3.75 2.453124 5.914062-.007812 2.15625-.804687 4.257813-2.453124 5.910156-2.089844 1.996094-3.738282 2.527344-6.378907 2.601563-3.238281.042969-7.839843-1.460937-12.570312-3.875-2.957031-1.511719-4.710938-3.367187-5.953125-5.625-1.222656-2.257813-1.859375-5.039063-1.859375-8.148437-.066407-6.339844 2.894531-13.820313 6.792969-18.222657 1.617187-1.863281 3.628906-3.230469 6.0625-4.1875 2.429687-.953125 5.273437-1.457031 8.292968-1.457031 7.492188-.054688 15.871094 3.246094 20.714844 8.183594 5.917969 5.921875 8.851562 13.621094 8.859375 21.386718-.007813 7.765626-2.941406 15.464844-8.859375 21.386719-7.734375 7.726563-17.808594 11.566407-27.941406 11.574219-10.136719-.007812-20.207032-3.84375-27.941406-11.574219-9.992188-10-14.960938-23.035156-14.964844-36.132812.007812-13.101563 4.976562-26.136719 14.964844-36.128907 2.667968-2.667968 2.667968-6.992187 0-9.65625-2.667969-2.664062-6.988282-2.664062-9.65625 0zm0 0"/><path d="m232.324219 273.070312h-68.265625c-11.308594 0-20.480469-9.171874-20.480469-20.480468 0-11.3125 9.171875-20.480469 20.480469-20.480469h68.265625c11.3125 0 20.480469 9.167969 20.480469 20.480469 0 11.308594-9.167969 20.480468-20.480469 20.480468zm0 0"/></g></svg>