<svg height="423pt" viewBox="0 -3 423.00251 423" width="423pt" xmlns="http://www.w3.org/2000/svg"><path d="m287.207031 379.832031c-23.335937 10.332031-48.945312 16.117188-75.824219 16.113281-.007812 0-.011718 0-.023437 0-26.867187 0-52.472656-5.785156-75.800781-16.113281-28.648438 3.75-47.050782 9.578125-47.050782 16.121094 0 11.304687 55.007813 20.476563 122.875 20.476563 67.863282 0 122.878907-9.171876 122.878907-20.476563 0-6.542969-18.402344-12.371094-47.054688-16.121094" fill="#eeeef0"/><path d="m396.324219 142.933594c-21.445313-80.515625-96.113281-136.097656-184.941407-136.097656-89.15625 0-164.054687 55.984374-185.1875 136.996093-15.421874 2.515625-24.261718 19.394531-16.503906 33.535157 3.253906 5.933593 6.867188 11.632812 10.640625 17.226562 1.972657 104.023438 86.71875 194.535156 191.054688 194.535156 104.425781 0 189.242187-90.6875 191.058593-194.828125 3.878907-5.777343 7.589844-11.675781 10.917969-17.804687 7.761719-14.304688-1.351562-31.335938-17.039062-33.5625" fill="#fff35f"/><g fill="#54596e"><path d="m396.324219 142.933594 6.597656-1.753906c-22.273437-83.660157-99.867187-141.2187505-191.539063-141.179688-92.015624-.0390625-169.847656 57.945312-191.792968 142.101562l6.601562 1.730469-1.09375-6.746093c-14.886718 2.457031-25.097656 15.214843-25.097656 29.292968-.0078125 4.777344 1.191406 9.695313 3.703125 14.265625 3.394531 6.183594 7.117187 12.070313 10.96875 17.769531l5.660156-3.820312-6.828125.132812c1.027344 53.835938 23.433594 104.0625 59.058594 140.882813 35.613281 36.828125 84.644531 60.34375 138.820312 60.339844 54.222657.003906 103.296876-23.558594 138.914063-60.441407 35.644531-36.882812 58.019531-87.179687 58.96875-141.085937l-6.824219-.117187 5.667969 3.800781c3.953125-5.890625 7.78125-11.960938 11.25-18.355469 2.46875-4.550781 3.648437-9.433594 3.644531-14.171875 0-7.160156-2.632812-13.949219-7.148437-19.242187-4.507813-5.285157-11.007813-9.09375-18.582031-10.15625l-.949219 6.753906 6.597656-1.753906-6.597656 1.753906-.957031 6.765625c4.203124.597656 7.636718 2.632812 10.113281 5.511719 2.464843 2.878906 3.871093 6.578124 3.871093 10.363281-.003906 2.519531-.601562 5.09375-1.992187 7.664062-3.183594 5.867188-6.78125 11.585938-10.582031 17.253907-.730469 1.074218-1.140625 2.382812-1.160156 3.683593-.867188 50.242188-21.800782 97.355469-55.132813 131.84375-33.347656 34.492188-78.898437 56.273438-129.101563 56.273438-50.160156 0-95.671874-21.738281-129.011718-56.171875-33.316406-34.4375-54.273438-81.480469-55.214844-131.65625-.027344-1.332032-.425781-2.589844-1.167969-3.691406-3.703125-5.484376-7.199219-11.015626-10.3125-16.695313-1.417969-2.585937-2.019531-5.167969-2.027343-7.699219.007812-7.476562 5.488281-14.503906 13.644531-15.816406 2.664062-.4375 4.820312-2.398438 5.507812-5.015625 20.320313-77.84375 92.277344-131.847656 178.582031-131.894531 85.976563.046875 157.722657 53.65625 178.347657 131.042968.699219 2.644532 2.925781 4.613282 5.636719 5.003907z"/><path d="m326.261719 170.671875c11.273437-.027344 18.292969 11.6875 13.019531 21.40625-24.253906 44.707031-72.4375 75.167969-127.914062 75.167969-55.246094 0-103.257813-30.210938-127.609376-74.617188-5.3125-9.691406 1.660157-21.429687 12.925782-21.453125l93.265625 9.304688c14.246093 1.421875 28.605469 1.390625 42.84375-.089844zm0 0"/><path d="m326.261719 170.671875.964843 6.757813-.929687-6.515626v6.578126c.640625-.003907.929687-.070313.929687-.0625l-.929687-6.515626v6.578126c2.480469.019531 4.328125.925781 5.742187 2.34375 1.394532 1.421874 2.203126 3.371093 2.199219 5.316406-.003906 1.195312-.273437 2.394531-.960937 3.671875-23.070313 42.523437-68.972656 71.597656-121.910156 71.59375-52.722657.003906-98.457032-28.828125-121.628907-71.074219-.691406-1.273438-.96875-2.488281-.972656-3.683594-.003906-1.949218.800781-3.890625 2.195313-5.316406 1.410156-1.414062 3.25-2.324219 5.730468-2.34375l-.011718-6.824219-.675782 6.789063 93.265625 9.304687c7.199219.71875 14.429688 1.078125 21.660157 1.078125 7.535156 0 15.066406-.390625 22.566406-1.167968l93.46875-9.722657.257812-.03125-.960937-6.753906-.707031-6.792969-93.464844 9.722656c-7.035156.730469-14.097656 1.097657-21.160156 1.097657-6.777344 0-13.554688-.339844-20.304688-1.011719l-93.265625-9.304688-.6875-.03125c-6.152344-.011718-11.679687 2.53125-15.484375 6.460938-3.820312 3.921875-6.070312 9.214844-6.074219 14.847656-.007812 3.4375.859375 6.988282 2.65625 10.25 25.535157 46.570313 75.824219 78.15625 133.597657 78.160156 58.007812-.003906 108.480468-31.851562 133.914062-78.738281 1.761719-3.246093 2.613281-6.769531 2.609375-10.179687-.003906-5.644532-2.261719-10.941406-6.089844-14.863282-3.8125-3.925781-9.347656-6.464843-15.503906-6.449218-.664063.007812-.992187.078125-1 .074218l.964844 6.757813-.707031-6.792969zm0 0"/></g><path d="m394.105469 167.386719c-11.714844 91.417969-89.027344 167.128906-182.722657 167.128906-93.691406 0-171.003906-75.707031-182.726562-167.128906-1.015625 7.746093-1.597656 15.664062-1.597656 23.765625 0 .792968.003906 1.585937.015625 2.378906.046875.308594.074219.621094.082031.9375.945312 50.171875 21.898438 97.21875 55.21875 131.65625 32.6875 33.757812 77.070312 55.316406 126.070312 56.144531.03125 0 .0625.003907.09375.003907.164063.003906.324219.003906.484376.003906.082031.003906.152343.003906.234374.003906.121094.003906.242188.003906.359376.007812.128906 0 .253906 0 .382812.003907h.195312.441407.15625c.199219.003906.394531.003906.589843.003906.199219 0 .394532 0 .59375-.003906h.21875.371094c.152344 0 .300782-.003907.449219-.003907h.132813c.167968-.003906.332031-.007812.496093-.007812.023438 0 .066407 0 .09375-.003906 49.269531-.664063 93.921875-22.300782 126.746094-56.253906 33.332031-34.488282 54.265625-81.601563 55.132813-131.847657.003906-.285156.027343-.574219.070312-.863281.011719-.71875.011719-1.4375.011719-2.160156 0-8.101563-.574219-16.019532-1.59375-23.765625" fill="#eee361"/><path d="m210.636719 382.292969h.15625c-.054688 0-.101563 0-.15625 0m1.558593 0c-.074218 0-.144531 0-.21875 0zm-2.195312-.003907c.0625 0 .132812 0 .195312.003907-.0625-.003907-.128906-.003907-.195312-.003907m3.015625-.003906c-.148437.003906-.296875.003906-.449219.007813.148438-.003907.300782-.003907.449219-.007813m-3.757813-.003906c.117188 0 .242188.003906.359376.003906-.121094 0-.242188-.003906-.359376-.003906m4.390626-.003906c-.167969.003906-.332032.007812-.496094.007812.164062 0 .328125-.003906.496094-.007812m-5.109376-.007813c.160157.003907.324219.007813.484376.007813-.164063 0-.324219-.003906-.484376-.007813m-181.464843-188.738281c1.261719 99.824219 81.714843 187.054688 181.371093 188.738281-49-.828125-93.386718-22.386719-126.074218-56.144531-33.316406-34.4375-54.273438-81.480469-55.214844-131.65625-.007812-.316406-.035156-.632812-.082031-.9375m368.613281-.21875c-.042969.289062-.066406.578125-.070312.863281-.867188 50.242188-21.800782 97.359375-55.132813 131.847657-32.824219 33.953124-77.476563 55.589843-126.746094 56.253906 100-1.347656 180.800781-88.847656 181.949219-188.964844" fill="#54596e"/><path d="m300.128906 122.882812c-.003906-15.082031-12.21875-27.300781-27.304687-27.304687-15.089844.003906-27.304688 12.222656-27.308594 27.304687 0 3.773438 3.058594 6.828126 6.828125 6.828126s6.824219-3.054688 6.824219-6.828126c.015625-7.535156 6.113281-13.636718 13.65625-13.652343 7.539062.015625 13.636719 6.117187 13.652343 13.652343 0 3.773438 3.054688 6.828126 6.824219 6.828126 3.773438 0 6.828125-3.054688 6.828125-6.828126zm0 0" fill="#54596e"/><path d="m170.421875 122.882812c-.003906-15.082031-12.21875-27.300781-27.304687-27.304687-15.089844.003906-27.304688 12.222656-27.308594 27.304687 0 3.773438 3.058594 6.828126 6.828125 6.828126s6.824219-3.054688 6.824219-6.828126c.015624-7.535156 6.113281-13.636718 13.65625-13.652343 7.539062.015625 13.636718 6.117187 13.652343 13.652343 0 3.773438 3.054688 6.828126 6.828125 6.828126 3.769532 0 6.824219-3.054688 6.824219-6.828126zm0 0" fill="#54596e"/><path d="m173.296875 185.289062-50.660156-7.792968v20.609375c0 3.855469 2.8125 7.132812 6.621093 7.714843l44.039063 6.777344c25.253906 3.882813 50.941406 4.023438 76.234375.410156l50.71875-7.246093c3.84375-.550781 6.707031-3.84375 6.707031-7.730469v-20.535156l-57.425781 8.207031c-25.296875 3.613281-50.984375 3.472656-76.234375-.414063zm0 0" fill="#fff"/><path d="m211.367188 260.417969c36.660156 0 70.082031-13.355469 95.566406-35.277344-.058594-3.527344-3.175782-6.226563-6.683594-5.726563l-50.722656 7.246094c-25.292969 3.613282-50.980469 3.476563-76.230469-.40625l-43.894531-6.753906c-3.5625-.546875-6.769532 2.207031-6.769532 5.804688v5.375c24.507813 18.605468 55.269532 29.738281 88.734376 29.738281zm0 0" fill="#fff"/></svg>