<svg height="416pt" viewBox="-10 0 416 416.42667" width="416pt" xmlns="http://www.w3.org/2000/svg"><path d="m274.015625 379.832031c-23.335937 10.328125-48.953125 16.113281-75.828125 16.113281s-52.488281-5.785156-75.828125-16.113281c-28.648437 3.75-47.050781 9.574219-47.050781 16.113281 0 11.3125 55.015625 20.480469 122.878906 20.480469 67.867188 0 122.882812-9.167969 122.882812-20.480469 0-6.539062-18.40625-12.363281-47.054687-16.113281" fill="#eeeef0"/><path d="m389.332031 190.894531c0-105.566406-85.574219-184.0625-191.144531-184.0625-105.566406 0-191.148438 78.496094-191.148438 184.0625 0 105.570313 85.582032 198.230469 191.148438 198.230469 105.570312 0 191.144531-92.660156 191.144531-198.230469" fill="#fff35f"/><path d="m389.332031 190.894531h6.828125c.019532-54.648437-22.21875-102.550781-58.117187-136.574219-35.878907-34.050781-85.378907-54.3281245-139.855469-54.320312-54.484375-.0078125-103.980469 20.273438-139.855469 54.320312-35.898437 34.023438-58.136719 81.925782-58.117187 136.574219.003906 54.648438 22.121094 105.828125 57.867187 143.40625 35.726563 37.574219 85.292969 61.644531 140.105469 61.644531 54.816406 0 104.378906-24.070312 140.105469-61.644531 35.746093-37.578125 57.855469-88.757812 57.871093-143.40625h-13.65625c.007813 50.921875-20.667968 98.855469-54.105468 133.996094-33.453125 35.144531-79.460938 57.402344-130.214844 57.402344s-96.765625-22.257813-130.210938-57.402344c-33.441406-35.140625-54.121093-83.074219-54.109374-133.996094.019531-50.921875 20.566406-95.058593 53.859374-126.667969 33.296876-31.59375 79.378907-50.574218 130.460938-50.574218 51.085938 0 97.164062 18.980468 130.460938 50.574218 33.289062 31.609376 53.839843 75.746094 53.859374 126.667969z" fill="#54596e"/><path d="m380.917969 167.382812c-11.726563 91.417969-89.035157 167.128907-182.730469 167.128907s-171.003906-75.710938-182.726562-167.128907c-1.011719 7.714844-1.585938 15.601563-1.59375 23.675782.03125 50.863281 20.703124 98.726562 54.109374 133.832031 33.445313 35.144531 79.457032 57.402344 130.210938 57.402344s96.761719-22.257813 130.214844-57.402344c33.40625-35.105469 54.070312-82.972656 54.105468-133.839844-.003906-8.070312-.582031-15.953125-1.589843-23.667969" fill="#eee361"/><g fill="#54596e"><path d="m13.871094 191.058594v.089844c-.003906 101.792968 82.519531 191.144531 184.316406 191.144531-50.753906 0-96.765625-22.257813-130.210938-57.402344-33.40625-35.105469-54.078124-82.96875-54.105468-133.832031m368.636718-.007813c-.035156 50.867188-20.703124 98.734375-54.109374 133.839844-33.449219 35.144531-79.457032 57.402344-130.210938 57.402344 101.796875 0 184.320312-89.351563 184.320312-191.144531 0-.03125 0-.066407 0-.097657"/><path d="m300.589844 163.839844c-.007813-18.855469-15.28125-34.128906-34.136719-34.132813-18.851563.003907-34.125 15.277344-34.132813 34.132813 0 3.769531 3.058594 6.828125 6.828126 6.828125 3.769531 0 6.828124-3.058594 6.828124-6.828125.019532-11.308594 9.171876-20.460938 20.476563-20.480469 11.308594.019531 20.460937 9.171875 20.480469 20.480469 0 3.769531 3.058594 6.828125 6.828125 6.828125s6.828125-3.058594 6.828125-6.828125zm0 0"/><path d="m157.226562 163.839844c-.003906-18.855469-15.277343-34.128906-34.132812-34.132813-18.851562.003907-34.125 15.277344-34.132812 34.132813 0 3.769531 3.058593 6.828125 6.828124 6.828125 3.769532 0 6.824219-3.058594 6.824219-6.828125.023438-11.308594 9.175781-20.460938 20.480469-20.480469 11.308594.019531 20.460938 9.171875 20.480469 20.480469 0 3.769531 3.058593 6.828125 6.828125 6.828125 3.769531 0 6.824218-3.058594 6.824218-6.828125zm0 0"/></g><path d="m143.574219 191.148438c0-7.542969-15.28125-13.65625-34.132813-13.65625-18.851562 0-34.132812 6.113281-34.132812 13.65625 0 7.539062 15.28125 13.652343 34.132812 13.652343 18.851563 0 34.132813-6.113281 34.132813-13.652343zm0 0" fill="#ff9c9c"/><path d="m314.242188 191.148438c0-7.542969-15.28125-13.65625-34.132813-13.65625s-34.132813 6.113281-34.132813 13.65625c0 7.539062 15.28125 13.652343 34.132813 13.652343s34.132813-6.113281 34.132813-13.652343zm0 0" fill="#ff9c9c"/><path d="m179.910156 211.882812c-13.101562 3.683594-22.667968 15.707032-22.683594 29.972657.015626 14.789062 10.292969 27.164062 24.144532 30.34375 3.671875.84375 7.332031-1.453125 8.179687-5.125.84375-3.671875-1.449219-7.335938-5.125-8.179688-7.738281-1.785156-13.558593-8.742187-13.546875-17.039062-.011718-8.007813 5.402344-14.761719 12.730469-16.832031 3.628906-1.023438 5.742187-4.792969 4.722656-8.421876-1.023437-3.625-4.792969-5.742187-8.421875-4.71875zm0 0" fill="#54596e"/><path d="m179.910156 259.667969c-13.101562 3.6875-22.667968 15.707031-22.683594 29.972656.015626 14.792969 10.292969 27.167969 24.144532 30.34375 3.671875.84375 7.332031-1.449219 8.179687-5.125.84375-3.671875-1.449219-7.335937-5.125-8.179687-7.738281-1.78125-13.558593-8.738282-13.546875-17.039063-.011718-8.007813 5.402344-14.761719 12.730469-16.828125 3.628906-1.027344 5.742187-4.796875 4.722656-8.425781-1.023437-3.625-4.792969-5.738281-8.421875-4.71875zm0 0" fill="#54596e"/></svg>