<svg height="416pt" viewBox="-10 0 416 416.42667" width="416pt" xmlns="http://www.w3.org/2000/svg"><path d="m122.347656 379.832031c-28.644531 3.75-47.042968 9.574219-47.042968 16.117188 0 11.308593 55.015624 20.476562 122.875 20.476562 67.863281 0 122.886718-9.167969 122.886718-20.476562 0-6.542969-18.398437-12.367188-47.042968-16.117188-23.339844 10.328125-48.960938 16.117188-75.84375 16.117188-26.875 0-52.492188-5.789063-75.832032-16.117188" fill="#eeeef0"/><path d="m389.332031 190.898438c0-105.570313-85.578125-184.066407-191.152343-184.066407-105.5625 0-191.140626 78.496094-191.140626 184.066407 0 105.566406 85.578126 198.226562 191.140626 198.226562 105.574218 0 191.152343-92.664062 191.152343-198.226562" fill="#fff35f"/><path d="m389.332031 190.898438h6.828125c.019532-54.652344-22.226562-102.554688-58.117187-136.578126-35.878907-34.046874-85.378907-54.320312-139.863281-54.320312-54.472657 0-103.972657 20.277344-139.859376 54.320312-35.890624 34.027344-58.128906 81.925782-58.105468 136.578126.003906 54.644531 22.121094 105.820312 57.863281 143.402343 35.730469 37.578125 85.289063 61.648438 140.101563 61.648438 54.824218 0 104.378906-24.070313 140.109374-61.648438 35.746094-37.582031 57.859376-88.761719 57.867188-143.402343h-13.652344c.007813 50.917968-20.671875 98.847656-54.105468 133.992187-33.449219 35.148437-79.46875 57.402344-130.21875 57.410156-50.746094-.007812-96.757813-22.261719-130.207032-57.410156-33.441406-35.144531-54.113281-83.074219-54.109375-133.992187.015625-50.921876 20.570313-95.054688 53.859375-126.671876 33.304688-31.589843 79.375-50.570312 130.457032-50.578124 51.089843.007812 97.164062 18.988281 130.46875 50.578124 33.289062 31.617188 53.835937 75.75 53.855468 126.671876z" fill="#54596e"/><path d="m380.910156 167.382812c-11.722656 91.417969-89.035156 167.128907-182.730468 167.128907-93.6875 0-170.996094-75.707031-182.71875-167.128907-1.015626 7.71875-1.589844 15.601563-1.597657 23.667969.035157 50.859375 20.699219 98.734375 54.109375 133.839844 33.449219 35.148437 79.460938 57.402344 130.207032 57.410156 50.75-.007812 96.769531-22.261719 130.21875-57.410156 33.402343-35.105469 54.074218-82.980469 54.105468-133.839844-.003906-8.070312-.585937-15.949219-1.59375-23.667969" fill="#eee361"/><g fill="#54596e"><path d="m13.863281 191.050781v.097657c0 101.796874 82.519531 191.152343 184.316407 191.152343-50.746094-.007812-96.757813-22.261719-130.207032-57.410156-33.410156-35.109375-54.074218-82.980469-54.109375-133.839844m368.640625 0c-.03125 50.859375-20.703125 98.734375-54.105468 133.839844-33.449219 35.148437-79.46875 57.402344-130.21875 57.410156 101.800781 0 184.324218-89.351562 184.324218-191.152343 0-.03125 0-.066407 0-.097657"/><path d="m164.050781 129.707031c0 7.542969-6.113281 13.65625-13.652343 13.65625-7.542969 0-13.65625-6.113281-13.65625-13.65625 0-7.539062 6.113281-13.652343 13.65625-13.652343 7.539062 0 13.652343 6.113281 13.652343 13.652343zm0 0"/><path d="m273.277344 129.707031c0 7.542969-6.113282 13.65625-13.652344 13.65625-7.542969 0-13.65625-6.113281-13.65625-13.65625 0-7.539062 6.113281-13.652343 13.65625-13.652343 7.539062 0 13.652344 6.113281 13.652344 13.652343zm0 0"/><path d="m286.929688 225.28125h-177.492188v-13.652344l89.503906-13.652344 87.988282 13.652344zm0 0"/><path d="m300.582031 211.628906h-204.796875c-3.773437 0-6.828125 3.054688-6.828125 6.824219 0 3.773437 3.054688 6.828125 6.828125 6.828125h204.796875c3.769531 0 6.828125-3.054688 6.828125-6.828125 0-3.769531-3.058594-6.824219-6.828125-6.824219"/></g><path d="m232.316406 238.933594h-68.265625c-3.769531 0-6.828125 3.054687-6.828125 6.828125 0 3.769531 3.058594 6.828125 6.828125 6.828125h68.265625c3.769532 0 6.828125-3.058594 6.828125-6.828125s-3.058593-6.828125-6.828125-6.828125" fill="#e8cd5b"/></svg>