<svg height="416pt" viewBox="-10 0 416 416.42667" width="416pt" xmlns="http://www.w3.org/2000/svg"><path d="m274.015625 379.832031c-23.339844 10.328125-48.953125 16.113281-75.828125 16.113281-26.878906 0-52.492188-5.785156-75.828125-16.113281-28.652344 3.75-47.050781 9.574219-47.050781 16.113281 0 11.3125 55.015625 20.480469 122.878906 20.480469 67.859375 0 122.875-9.167969 122.875-20.480469 0-6.539062-18.402344-12.363281-47.046875-16.113281" fill="#eeeef0"/><path d="m389.332031 190.894531c0-105.566406-85.574219-184.0625-191.144531-184.0625-105.566406 0-191.148438 78.496094-191.148438 184.0625 0 105.570313 85.582032 198.230469 191.148438 198.230469 105.570312 0 191.144531-92.660156 191.144531-198.230469" fill="#fff35f"/><path d="m389.332031 190.894531h6.828125c.015625-54.648437-22.226562-102.550781-58.117187-136.574219-35.878907-34.050781-85.378907-54.3281245-139.855469-54.320312-54.484375-.0078125-103.980469 20.273438-139.863281 54.320312-35.890625 34.023438-58.128907 81.925782-58.109375 136.574219.003906 54.648438 22.121094 105.828125 57.863281 143.40625 35.730469 37.574219 85.289063 61.644531 140.109375 61.644531 54.816406 0 104.371094-24.070312 140.105469-61.644531 35.746093-37.578125 57.855469-88.757812 57.871093-143.40625h-13.65625c.007813 50.921875-20.667968 98.855469-54.105468 133.996094-33.453125 35.144531-79.46875 57.402344-130.214844 57.402344-50.753906 0-96.765625-22.257813-130.21875-57.402344-33.433594-35.140625-54.113281-83.074219-54.101562-133.996094.015624-50.921875 20.566406-95.058593 53.851562-126.667969 33.304688-31.59375 79.378906-50.574218 130.46875-50.574218 51.085938 0 97.15625 18.980468 130.460938 50.574218 33.289062 31.609376 53.839843 75.746094 53.859374 126.667969z" fill="#54596e"/><path d="m380.917969 167.382812c-11.726563 91.417969-89.035157 167.128907-182.730469 167.128907s-171.003906-75.710938-182.726562-167.128907c-1.011719 7.714844-1.585938 15.601563-1.59375 23.675782.03125 50.863281 20.703124 98.726562 54.101562 133.832031 33.453125 35.144531 79.464844 57.402344 130.21875 57.402344 50.746094 0 96.761719-22.257813 130.214844-57.402344 33.40625-35.105469 54.070312-82.972656 54.105468-133.839844-.003906-8.070312-.582031-15.953125-1.589843-23.667969" fill="#eee361"/><path d="m13.871094 191.058594v.089844c-.003906 101.792968 82.519531 191.144531 184.316406 191.144531-50.753906 0-96.765625-22.257813-130.21875-57.402344-33.398438-35.105469-54.070312-82.96875-54.097656-133.832031m368.636718-.007813c-.035156 50.867188-20.703124 98.734375-54.109374 133.839844-33.449219 35.144531-79.464844 57.402344-130.210938 57.402344 101.792969 0 184.320312-89.351563 184.320312-191.144531 0-.03125 0-.066407 0-.097657" fill="#54596e"/><path d="m252.800781 273.066406c0-30.160156-24.449219-54.613281-54.613281-54.613281s-54.613281 24.453125-54.613281 54.613281zm0 0" fill="#54596e"/><path d="m252.800781 273.066406h6.824219c0-33.933594-27.5-61.4375-61.4375-61.441406-33.9375.003906-61.4375 27.507812-61.441406 61.441406 0 1.796875.730468 3.554688 2 4.828125 1.273437 1.269531 3.03125 2 4.828125 2h109.226562c1.796875 0 3.554688-.730469 4.824219-2 1.273438-1.273437 2-3.03125 2-4.828125h-6.824219v-6.828125h-109.226562v6.828125h6.824219c.003906-13.21875 5.339843-25.121094 13.996093-33.792968 8.671875-8.65625 20.574219-13.988282 33.792969-13.996094 13.21875.007812 25.121094 5.339844 33.789062 13.996094 8.660157 8.671874 13.992188 20.574218 13.996094 33.792968h6.828125v-6.828125zm0 0" fill="#54596e"/><path d="m225.492188 266.238281c0-15.082031-12.226563-27.304687-27.304688-27.304687-15.082031 0-27.308594 12.222656-27.308594 27.304687" fill="#f99"/><g fill="#54596e"><path d="m150.398438 150.1875c0 11.308594-9.167969 20.480469-20.476563 20.480469-11.3125 0-20.480469-9.171875-20.480469-20.480469 0-11.3125 9.167969-20.480469 20.480469-20.480469 11.308594 0 20.476563 9.167969 20.476563 20.480469zm0 0"/><path d="m286.933594 150.1875c0 11.308594-9.167969 20.480469-20.480469 20.480469s-20.480469-9.171875-20.480469-20.480469c0-11.3125 9.167969-20.480469 20.480469-20.480469s20.480469 9.167969 20.480469 20.480469zm0 0"/><path d="m211.839844 143.359375h54.613281c3.769531 0 6.828125-3.054687 6.828125-6.824219 0-3.773437-3.058594-6.828125-6.828125-6.828125h-54.613281c-3.769532 0-6.828125 3.054688-6.828125 6.828125 0 3.769532 3.058593 6.824219 6.828125 6.824219"/><path d="m75.308594 143.359375h54.613281c3.769531 0 6.824219-3.054687 6.824219-6.824219 0-3.773437-3.054688-6.828125-6.824219-6.828125h-54.613281c-3.773438 0-6.828125 3.054688-6.828125 6.828125 0 3.769532 3.054687 6.824219 6.828125 6.824219"/></g></svg>