<svg height="416pt" viewBox="-10 0 416 416.43008" width="416pt" xmlns="http://www.w3.org/2000/svg"><path d="m274.019531 379.835938c-23.335937 10.324218-48.953125 16.113281-75.828125 16.113281-26.878906 0-52.492187-5.789063-75.832031-16.113281-28.648437 3.746093-47.046875 9.574218-47.046875 16.113281 0 11.3125 55.015625 20.480469 122.878906 20.480469 67.867188 0 122.878906-9.167969 122.878906-20.480469 0-6.539063-18.402343-12.367188-47.050781-16.113281" fill="#eeeef0"/><path d="m389.339844 190.898438c0-105.570313-85.582032-184.070313-191.148438-184.070313-105.5625 0-191.148437 78.5-191.148437 184.070313 0 105.566406 85.585937 198.226562 191.148437 198.226562 105.566406 0 191.148438-92.660156 191.148438-198.226562" fill="#fff35f"/><path d="m389.339844 190.898438h6.824218c.019532-54.652344-22.21875-102.550782-58.113281-136.578126-35.878906-34.046874-85.378906-54.32421825-139.859375-54.320312-54.476562-.00390625-103.980468 20.273438-139.863281 54.320312-35.886719 34.027344-58.125 81.921876-58.113281 136.574219.011718 54.640625 22.128906 105.828125 57.867187 143.402344 35.730469 37.578125 85.289063 61.652344 140.105469 61.652344s104.378906-24.074219 140.105469-61.652344c35.75-37.574219 57.863281-88.761719 57.867187-143.402344h-13.648437c.007812 50.925781-20.667969 98.851563-54.105469 133.996094-33.453125 35.148437-79.464844 57.40625-130.214844 57.40625-50.746094 0-96.765625-22.257813-130.214844-57.40625-33.4375-35.144531-54.113281-83.070313-54.105468-133.992187.019531-50.921876 20.566406-95.054688 53.863281-126.671876 33.296875-31.59375 79.371094-50.566406 130.457031-50.570312 51.085938.003906 97.15625 18.976562 130.464844 50.570312 33.285156 31.613282 53.835938 75.75 53.855469 126.671876z" fill="#54596e"/><path d="m380.917969 167.382812c-11.722657 91.417969-89.035157 167.125-182.726563 167.125-93.695312 0-171-75.707031-182.726562-167.125-1.007813 7.71875-1.589844 15.601563-1.597656 23.667969.035156 50.863281 20.703124 98.730469 54.109374 133.839844 33.054688 34.734375 78.386719 56.878906 128.429688 57.394531.085938.003906.167969.003906.253906.003906.113282 0 .226563.003907.335938.003907h.25c.316406.003906.628906.003906.945312.003906.308594 0 .621094 0 .929688-.003906h.261718c.089844 0 .183594-.003907.277344-.003907.105469 0 .210938 0 .316406-.003906 50.046876-.515625 95.371094-22.660156 128.429688-57.394531 33.402344-35.109375 54.070312-82.976563 54.105469-133.84375-.007813-8.066406-.582031-15.945313-1.59375-23.664063" fill="#eee361"/><g fill="#54596e"><path d="m199.121094 382.292969c-.308594.003906-.621094.003906-.929688.003906.308594 0 .621094 0 .929688-.003906m-1.875 0c.316406.003906.625.003906.945312.003906-.316406 0-.628906 0-.945312-.003906m2.414062-.003907c-.09375 0-.1875.003907-.277344.003907.089844 0 .183594-.003907.277344-.003907m-2.996094 0c.109376 0 .222657.003907.335938.003907-.113281 0-.226562-.003907-.335938-.003907m-182.792968-191.238281v.097657c0 101.199218 81.5625 190.101562 182.539062 191.136718-50.042968-.515625-95.375-22.660156-128.433594-57.394531-33.402343-35.109375-54.070312-82.976563-54.105468-133.839844m368.640625-.003906c-.035157 50.867187-20.703125 98.734375-54.109375 133.84375-33.058594 34.734375-78.378906 56.878906-128.429688 57.394531 100.980469-1.035156 182.539063-89.9375 182.539063-191.136718 0-.035157 0-.066407 0-.101563"/><path d="m198.191406 129.707031c0-54.613281-24.449218-54.613281-54.613281-54.613281s-68.265625 24.453125-68.265625 54.613281c0 30.164063 38.101562 54.613281 68.265625 54.613281s54.613281-24.449218 54.613281-54.613281zm0 0"/><path d="m273.285156 129.707031c0 7.542969-6.113281 13.65625-13.652344 13.65625-7.542968 0-13.65625-6.113281-13.65625-13.65625 0-7.539062 6.113282-13.652343 13.65625-13.652343 7.539063 0 13.652344 6.113281 13.652344 13.652343zm0 0"/><path d="m143.578125 204.800781 54.613281 13.652344 54.613282-13.652344 6.828124 13.652344-61.910156 20.480469-60.972656-20.480469zm0 0"/></g><path d="m157.230469 259.414062h81.921875c3.769531 0 6.824218-3.054687 6.824218-6.824218 0-3.773438-3.054687-6.828125-6.824218-6.828125h-81.921875c-3.769531 0-6.824219 3.054687-6.824219 6.828125 0 3.769531 3.054688 6.824218 6.824219 6.824218" fill="#ff7d7d"/><path d="m191.417969 12.808594-.042969.3125c-.496094 3.714844-6.03125 39.097656-27.464844 72.84375-10.703125 16.890625-25.300781 33.351562-45.140625 45.597656-19.859375 12.234375-45 20.378906-77.449219 20.398438-8.371093-.003907-17.230468-.550782-26.605468-1.71875-3.742188-.46875-7.152344 2.1875-7.617188 5.929687-.46875 3.742187 2.1875 7.152344 5.929688 7.621094 9.898437 1.234375 19.324218 1.820312 28.292968 1.820312 35.871094.019531 64.453126-9.449219 86.722657-23.757812 33.449219-21.484375 52.570312-53.382813 63.40625-79.679688 10.835937-26.339843 13.460937-47.273437 13.515625-47.675781.46875-3.738281-2.183594-7.152344-5.925782-7.621094-3.742187-.464844-7.152343 2.1875-7.621093 5.929688zm0 0" fill="#54596e"/><path d="m232.324219 129.707031 40.960937-27.304687" fill="#fff35f"/><path d="m236.113281 135.386719 40.957031-27.304688c3.140626-2.09375 3.988282-6.332031 1.894532-9.46875-2.089844-3.136719-6.328125-3.984375-9.46875-1.894531l-40.957032 27.308594c-3.136718 2.09375-3.984374 6.328125-1.894531 9.46875 2.089844 3.136718 6.328125 3.984375 9.46875 1.890625" fill="#54596e"/><path d="m195.460938 212.992188c-.207032-.148438-5.484376-4.109376-13.34375-8.140626-7.878907-3.992187-18.292969-8.21875-29.441407-8.273437-3.710937 0-7.523437.496094-11.265625 1.75-6.105468 2.035156-10.589844 6.160156-13.976562 10.507813-5.074219 6.5625-8.296875 14.035156-11.382813 19.328124-1.503906 2.640626-2.960937 4.675782-4.046875 5.679688l-1.203125.882812-.617187.144532c-.394532.007812-1.597656-.171875-3.78125-1.621094-6.140625-4.179688-7.363282-7.933594-7.398438-10.445312 0-1.742188.652344-3.191407 1.597656-4.199219.96875-1.007813 2.097657-1.507813 3.332032-1.515625.699218.007812 1.476562.152344 2.445312.632812 3.367188 1.695313 7.472656.335938 9.164063-3.03125 1.695312-3.367187.339843-7.46875-3.027344-9.164062-2.765625-1.394532-5.722656-2.09375-8.578125-2.085938-5.21875-.007812-9.96875 2.277344-13.269531 5.796875-3.320313 3.519531-5.320313 8.335938-5.316407 13.566407-.039062 7.824218 4.574219 15.953124 13.484376 21.808593 3.601562 2.394531 7.367187 3.898438 11.351562 3.90625 3.003906.019531 5.890625-.945312 8.15625-2.378906 3.988281-2.554687 6.417969-6.054687 8.628906-9.617187 3.242188-5.378907 5.921875-11.347657 9.007813-16.128907 1.523437-2.382812 3.117187-4.4375 4.742187-5.96875 1.636719-1.539062 3.242188-2.558593 5.019532-3.152343 2.121093-.710938 4.4375-1.042969 6.9375-1.046876 7.480468-.050781 16.410156 3.246094 23.21875 6.777344 3.414062 1.746094 6.3125 3.511719 8.328124 4.820313 1.011719.65625 1.796876 1.195312 2.320313 1.5625l.578125.414062.132812.097657.019532.011718c3.015625 2.261719 7.292968 1.652344 9.554687-1.363281 2.253907-3.011719 1.644531-7.289063-1.371093-9.554687zm0 0" fill="#54596e"/><path d="m205.496094 223.914062.019531-.011718c.386719-.292969 5.265625-3.847656 12.003906-7.222656 6.714844-3.410157 15.328125-6.496094 22.574219-6.449219 2.5.003906 4.816406.335937 6.925781 1.042969 2.6875.890624 5.109375 2.847656 7.550781 5.964843 3.667969 4.640625 6.761719 11.496094 10.308594 17.734375 1.8125 3.125 3.75 6.152344 6.476563 8.773438 1.371093 1.296875 2.972656 2.496094 4.878906 3.375 1.894531.886718 4.097656 1.410156 6.34375 1.402344 3.988281-.007813 7.75-1.511719 11.347656-3.90625 8.914063-5.859376 13.527344-13.988282 13.488281-21.808594.003907-5.230469-2-10.050782-5.316406-13.566406-3.300781-3.519532-8.050781-5.804688-13.269531-5.800782-2.855469-.003906-5.816406.695313-8.578125 2.089844-3.367188 1.691406-4.726562 5.796875-3.03125 9.164062 1.695312 3.371094 5.800781 4.730469 9.167969 3.035157.96875-.484375 1.746093-.628907 2.441406-.636719 1.238281.007812 2.367187.507812 3.332031 1.511719.949219 1.011719 1.601563 2.460937 1.601563 4.203125-.039063 2.511718-1.257813 6.265625-7.402344 10.445312-2.183594 1.453125-3.386719 1.628906-3.78125 1.621094l-.921875-.3125c-.832031-.457031-2.496094-2.265625-4.195312-5.128906-2.621094-4.269532-5.394532-10.460938-9.179688-16.402344-1.90625-2.972656-4.105469-5.914062-6.855469-8.519531-2.738281-2.597657-6.089843-4.859375-10.082031-6.183594-3.730469-1.25-7.546875-1.746094-11.253906-1.746094-11.152344.050781-21.566406 4.277344-29.445313 8.273438-7.859375 4.03125-13.136719 7.988281-13.34375 8.140625-3.015625 2.261718-3.625 6.542968-1.363281 9.558594 2.265625 3.011718 6.542969 3.621093 9.558594 1.359374zm0 0" fill="#54596e"/><path d="m198.191406 320.609375 34.132813-47.539063h-68.265625zm0 0" fill="#54596e"/></svg>