<svg height="436pt" viewBox="0 0 436.90667 436" width="436pt" xmlns="http://www.w3.org/2000/svg"><path d="m293.546875 150.640625c0 79.175781-64.183594 143.359375-143.359375 143.359375s-143.359375-64.183594-143.359375-143.359375 64.183594-143.359375 143.359375-143.359375 143.359375 64.183594 143.359375 143.359375zm0 0" fill="#d8d8d8"/><g fill="#54596e"><path d="m293.546875 150.640625h6.828125c-.007812-82.949219-67.238281-150.183594-150.1875-150.1875-82.949219.003906-150.18359375 67.238281-150.1875 150.1875.00390625 82.945313 67.238281 150.179687 150.1875 150.183594 82.949219-.003907 150.179688-67.238281 150.1875-150.183594h-13.65625c-.003906 37.722656-15.269531 71.8125-39.988281 96.542969-24.730469 24.71875-58.820313 39.984375-96.542969 39.988281-37.726562-.003906-71.816406-15.269531-96.546875-39.988281-24.714844-24.730469-39.984375-58.820313-39.988281-96.542969.003906-37.726563 15.273437-71.816406 39.988281-96.546875 24.730469-24.714844 58.820313-39.984375 96.546875-39.988281 37.722656.007812 71.8125 15.273437 96.542969 39.992187 24.71875 24.726563 39.984375 58.816406 39.988281 96.542969zm0 0"/><path d="m190.082031 227.972656c-8.976562-9.757812-23.644531-15.363281-40.113281-15.417968-16.304688.050781-30.839844 5.554687-39.847656 15.121093-2.566406 2.757813-2.410156 7.078125.351562 9.648438 2.761719 2.566406 7.082032 2.40625 9.648438-.351563 5.441406-5.972656 16.710937-10.824218 29.847656-10.769531 13.265625-.058594 24.628906 4.894531 30.007812 10.945313 2.53125 2.789062 6.847657 2.996093 9.640626.464843 2.792968-2.535156 3-6.851562.464843-9.640625zm0 0"/><path d="m102.398438 150.640625c0 7.539063-6.109376 13.652344-13.652344 13.652344-7.539063 0-13.652344-6.113281-13.652344-13.652344 0-7.542969 6.113281-13.652344 13.652344-13.652344 7.542968 0 13.652344 6.109375 13.652344 13.652344zm0 0"/><path d="m225.28125 150.640625c0 7.539063-6.113281 13.652344-13.65625 13.652344-7.539062 0-13.652344-6.113281-13.652344-13.652344 0-7.542969 6.113282-13.652344 13.652344-13.652344 7.542969 0 13.65625 6.109375 13.65625 13.652344zm0 0"/></g><path d="m225.28125 191.601562c0 7.539063-6.113281 13.652344-13.65625 13.652344-7.539062 0-13.652344-6.113281-13.652344-13.652344 0-7.542968 6.113282-13.65625 13.652344-13.65625 7.542969 0 13.65625 6.113282 13.65625 13.65625zm0 0" fill="#adadad"/><path d="m102.398438 191.601562c0 7.539063-6.109376 13.652344-13.652344 13.652344-7.539063 0-13.652344-6.113281-13.652344-13.652344 0-7.542968 6.113281-13.65625 13.652344-13.65625 7.542968 0 13.652344 6.113282 13.652344 13.65625zm0 0" fill="#adadad"/><path d="m430.078125 287.171875c0 79.175781-64.183594 143.363281-143.359375 143.363281s-143.359375-64.1875-143.359375-143.363281 64.183594-143.359375 143.359375-143.359375 143.359375 64.183594 143.359375 143.359375zm0 0" fill="#fff35f"/><path d="m430.078125 287.171875h6.828125c-.003906-82.949219-67.238281-150.183594-150.1875-150.183594s-150.183594 67.234375-150.183594 150.183594c.003906 82.949219 67.234375 150.183594 150.183594 150.1875 82.949219-.003906 150.183594-67.238281 150.1875-150.1875h-13.652344c-.003906 37.726563-15.273437 71.816406-39.988281 96.542969-24.730469 24.71875-58.820313 39.988281-96.546875 39.992187-37.722656-.003906-71.8125-15.273437-96.542969-39.992187-24.71875-24.726563-39.984375-58.816406-39.988281-96.542969.003906-37.722656 15.269531-71.8125 39.988281-96.542969 24.730469-24.71875 58.820313-39.984375 96.542969-39.988281 37.726562.003906 71.816406 15.269531 96.546875 39.988281 24.714844 24.730469 39.984375 58.820313 39.988281 96.542969zm0 0" fill="#54596e"/><path d="m246.605469 299.0625c8.980469 9.753906 23.648437 15.359375 40.113281 15.414062 16.308594-.054687 30.839844-5.554687 39.84375-15.121093 2.566406-2.761719 2.410156-7.082031-.355469-9.648438-2.757812-2.566406-7.078125-2.40625-9.644531.355469-5.4375 5.96875-16.710938 10.820312-29.84375 10.765625-13.269531.058594-24.632812-4.894531-30.011719-10.945313-2.535156-2.792968-6.855469-2.996093-9.644531-.464843-2.789062 2.539062-2.992188 6.855469-.457031 9.644531zm0 0" fill="#54596e"/><path d="m238.933594 225.734375c0 7.539063-6.113282 13.652344-13.652344 13.652344-7.542969 0-13.65625-6.113281-13.65625-13.652344 0-7.542969 6.113281-13.65625 13.65625-13.65625 7.539062 0 13.652344 6.113281 13.652344 13.65625zm0 0" fill="#54596e"/><path d="m361.8125 225.734375c0 7.539063-6.113281 13.652344-13.652344 13.652344-7.539062 0-13.652344-6.113281-13.652344-13.652344 0-7.542969 6.113282-13.65625 13.652344-13.65625 7.539063 0 13.652344 6.113281 13.652344 13.65625zm0 0" fill="#54596e"/><path d="m361.8125 266.691406c0 7.542969-6.113281 13.65625-13.652344 13.65625-7.539062 0-13.652344-6.113281-13.652344-13.65625 0-7.539062 6.113282-13.652344 13.652344-13.652344 7.539063 0 13.652344 6.113282 13.652344 13.652344zm0 0" fill="#ff927d"/><path d="m238.933594 266.691406c0 7.542969-6.113282 13.65625-13.652344 13.65625-7.542969 0-13.65625-6.113281-13.65625-13.65625 0-7.539062 6.113281-13.652344 13.65625-13.652344 7.539062 0 13.652344 6.113282 13.652344 13.652344zm0 0" fill="#ff927d"/></svg>