<svg height="436pt" viewBox="-17 0 436 436.91008" width="436pt" xmlns="http://www.w3.org/2000/svg"><path d="m129.421875 400.3125c-28.648437 3.746094-47.046875 9.574219-47.046875 16.117188 0 11.308593 55.011719 20.480468 122.878906 20.480468 67.867188 0 122.882813-9.171875 122.882813-20.480468 0-6.542969-18.40625-12.371094-47.046875-16.117188-23.34375 10.328125-48.953125 16.117188-75.835938 16.117188-26.878906 0-52.492187-5.789063-75.832031-16.117188" fill="#eeeef0"/><path d="m396.40625 211.378906c0-105.574218-85.585938-184.070312-191.152344-184.070312s-191.144531 78.496094-191.144531 184.070312c0 105.566406 85.578125 198.222656 191.144531 198.222656 105.566406-.003906 191.152344-92.65625 191.152344-198.222656" fill="#fff35f"/><path d="m396.40625 211.378906h6.820312c.019532-54.652344-22.21875-102.550781-58.109374-136.582031-35.882813-34.042969-85.382813-54.324219-139.863282-54.316406-54.480468-.007813-103.980468 20.273437-139.859375 54.316406-35.890625 34.03125-58.128906 81.929687-58.117187 136.582031.015625 54.644532 22.121094 105.824219 57.871094 143.398438 35.730468 37.578125 85.292968 61.652344 140.105468 61.652344 54.820313 0 104.375-24.074219 140.109375-61.652344 35.742188-37.574219 57.855469-88.757813 57.863281-143.398438h-13.652343c.007812 50.914063-20.671875 98.84375-54.101563 133.988282-33.453125 35.148437-79.464844 57.40625-130.21875 57.40625-50.75 0-96.765625-22.257813-130.210937-57.40625-33.441407-35.144532-54.117188-83.074219-54.113281-133.992188.019531-50.921875 20.574218-95.054688 53.863281-126.671875 33.296875-31.59375 79.375-50.566406 130.457031-50.574219 51.085938.007813 97.164062 18.980469 130.46875 50.574219 33.289062 31.617187 53.835938 75.75 53.855469 126.671875h6.832031" fill="#54596e"/><path d="m387.984375 187.863281c-11.722656 91.417969-89.035156 167.125-182.730469 167.125-93.6875 0-171.003906-75.707031-182.726562-167.125-1.007813 7.746094-1.585938 15.660157-1.585938 23.761719 0 1.75.023438 3.488281.070313 5.234375 1.421875 48.867187 21.796875 94.625 54.03125 128.507813 33.1875 34.875 78.746093 57.058593 129.023437 57.402343.085938.003907.171875.003907.261719.003907h.929687.90625c.09375 0 .191407 0 .285157-.003907 50.28125-.34375 95.835937-22.527343 129.027343-57.402343 33.398438-35.109376 54.066407-82.980469 54.101563-133.839844-.007813-8.066406-.585937-15.949219-1.59375-23.664063" fill="#eee361"/><path d="m206.160156 402.773438c-.300781 0-.601562 0-.90625 0zm-1.835937 0h.929687c-.308594 0-.621094 0-.929687 0m-183.3125-185.914063c2.761719 99.207031 83.550781 185.230469 183.050781 185.910156-50.277344-.34375-95.835938-22.527343-129.019531-57.402343-32.238281-33.878907-52.613281-79.640626-54.03125-128.507813m368.5625-5.332031c-.035157 50.859375-20.703125 98.730468-54.101563 133.839844-33.191406 34.875-78.746094 57.058593-129.027344 57.402343 101.25-.691406 183.128907-89.742187 183.128907-191.144531 0-.03125 0-.066406 0-.097656" fill="#54596e"/><path d="m102.855469 109.226562v-71.679687c0-16.964844 13.753906-30.71875 30.722656-30.71875 16.964844 0 30.71875 13.753906 30.71875 30.71875v17.066406" fill="#fff35f"/><path d="m109.683594 109.226562v-71.679687c.023437-13.195313 10.695312-23.871094 23.890625-23.894531 13.195312.023437 23.871093 10.699218 23.894531 23.894531v17.066406c0 3.769531 3.054688 6.828125 6.828125 6.828125 3.769531 0 6.824219-3.058594 6.824219-6.828125v-17.066406c-.003906-20.738281-16.804688-37.54296875-37.546875-37.546875-20.738281.00390625-37.542969 16.808594-37.546875 37.546875v71.679687c0 3.769532 3.058594 6.828126 6.828125 6.828126s6.828125-3.058594 6.828125-6.828126zm0 0" fill="#54596e"/><path d="m157.46875 37.546875c0 13.195313-10.695312 23.894531-23.890625 23.894531-13.199219 0-23.894531-10.699218-23.894531-23.894531s10.695312-23.894531 23.894531-23.894531c13.195313 0 23.890625 10.699218 23.890625 23.894531zm0 0" fill="#f99"/><g fill="#54596e"><path d="m232.5625 279.894531c0 15.078125-12.226562 27.304688-27.304688 27.304688-15.082031 0-27.308593-12.226563-27.308593-27.304688 0-15.082031 12.226562-27.308593 27.308593-27.308593 15.078126 0 27.304688 12.226562 27.304688 27.308593zm0 0"/><path d="m71.410156 34.683594-47.785156-20.480469c-3.464844-1.484375-7.480469.121094-8.964844 3.585937-1.484375 3.464844.121094 7.480469 3.585938 8.964844l47.789062 20.480469c3.464844 1.484375 7.476563-.121094 8.960938-3.585937 1.484375-3.464844-.117188-7.480469-3.585938-8.964844"/><path d="m47.121094 54.707031-40.960938 6.824219c-3.71875.621094-6.2304685 4.136719-5.609375 7.859375.617188 3.71875 4.136719 6.230469 7.855469 5.609375l40.957031-6.824219c3.71875-.621093 6.234375-4.136719 5.613281-7.859375-.621093-3.71875-4.136718-6.230468-7.855468-5.609375"/><path d="m143.816406 177.492188c-22.625.003906-40.957031 18.335937-40.960937 40.960937 0 3.769531 3.058593 6.828125 6.828125 6.828125 3.769531 0 6.828125-3.058594 6.828125-6.828125 0-7.5625 3.042969-14.347656 7.996093-19.308594 4.960938-4.953125 11.746094-7.996093 19.308594-8 3.769532 0 6.824219-3.054687 6.824219-6.824219 0-3.769531-3.054687-6.824218-6.824219-6.828124zm0 0"/><path d="m307.65625 218.453125c-.003906-22.625-18.335938-40.957031-40.960938-40.960937-3.769531 0-6.828124 3.054687-6.828124 6.828124 0 3.769532 3.058593 6.828126 6.828124 6.828126 7.5625 0 14.347657 3.042968 19.308594 7.996093 4.953125 4.960938 7.996094 11.746094 7.996094 19.308594 0 3.769531 3.058594 6.828125 6.828125 6.828125 3.773437 0 6.828125-3.058594 6.828125-6.828125zm0 0"/></g></svg>