<svg height="416pt" viewBox="-10 0 416 416.43179" width="416pt" xmlns="http://www.w3.org/2000/svg"><path d="m122.359375 379.835938c-28.648437 3.746093-47.050781 9.574218-47.050781 16.117187 0 11.308594 55.011718 20.480469 122.878906 20.480469s122.878906-9.171875 122.878906-20.480469c0-6.542969-18.398437-12.371094-47.046875-16.117187-23.339843 10.328124-48.953125 16.113281-75.832031 16.109374-.011719 0-.011719 0-.023438 0-26.867187 0-52.472656-5.785156-75.804687-16.109374" fill="#eeeef0"/><path d="m170.882812 13.65625c-7.726562 0-14.773437 2.664062-20.496093 6.996094-6.226563-8.347656-16.085938-13.824219-27.292969-13.824219-18.851562 0-34.132812 15.28125-34.132812 34.132813l.074218.699218c-2.234375-.457031-4.539062-.699218-6.902344-.699218-18.851562 0-34.132812 15.28125-34.132812 34.132812 0 4.296875.882812 8.363281 2.328125 12.152344-9.574219 6.042968-15.980469 16.648437-15.980469 28.808594 0 18.851562 15.28125 34.132812 34.132813 34.132812 18.855469 0 34.132812-15.28125 34.132812-34.132812 0-4.296876-.878906-8.363282-2.324219-12.148438.8125-.519531 1.574219-1.089844 2.339844-1.671875 6.226563 8.34375 16.085938 13.824219 27.292969 13.824219 18.851563 0 34.132813-15.285156 34.132813-34.136719l-.074219-.695313c2.234375.457032 4.539062.695313 6.902343.695313 18.851563 0 34.132813-15.28125 34.132813-34.132813 0-18.851562-15.28125-34.132812-34.132813-34.132812zm0 0" fill="#fff35f"/><path d="m170.882812 13.65625v-6.828125c-9.316406-.003906-17.835937 3.234375-24.617187 8.378906l4.121094 5.441407 5.472656-4.082032c-7.410156-9.957031-19.292969-16.57031225-32.765625-16.566406-22.625.00390625-40.957031 18.335938-40.960938 40.960938l.039063.710937.074219.699219 6.789062-.714844 1.367188-6.6875c-2.675782-.546875-5.441406-.835938-8.269532-.835938-22.625.003907-40.957031 18.335938-40.957031 40.960938-.003906 5.230469 1.074219 10.140625 2.773438 14.585938l6.378906-2.4375-3.648437-5.773438c-11.441407 7.210938-19.160157 19.976562-19.160157 34.585938.003907 22.625 18.335938 40.957031 40.960938 40.957031s40.957031-18.332031 40.960937-40.957031c0-5.230469-1.078125-10.144532-2.777344-14.585938l-6.375 2.4375 3.660157 5.761719c1.117187-.710938 2.027343-1.410157 2.804687-1.996094l-4.125-5.4375-5.472656 4.082031c7.410156 9.953125 19.292969 16.566406 32.765625 16.5625 22.625-.003906 40.957031-18.332031 40.960937-40.957031l-.039062-.714844-.074219-.695312-6.789062.710937-1.367188 6.6875c2.671875.546875 5.441407.839844 8.265625.835938 22.625-.003906 40.957032-18.335938 40.960938-40.957032-.003906-22.625-18.332032-40.957031-40.960938-40.960937v13.652344c7.5625.003906 14.347656 3.046875 19.308594 8 4.953125 4.960937 7.996094 11.746093 8 19.308593-.003906 7.5625-3.046875 14.34375-8 19.308594-4.960938 4.949219-11.746094 7.992188-19.308594 7.996094-1.894531 0-3.738281-.191406-5.53125-.558594-2.125-.433594-4.351562.175782-5.957031 1.632813-1.605469 1.453125-2.425781 3.609375-2.203125 5.765625l.074219.699218 6.792969-.710937h-6.828126c-.003906 7.5625-3.046874 14.34375-7.996093 19.308594-4.964844 4.949219-11.746094 7.992187-19.308594 7.996093-8.941406 0-16.777344-4.339843-21.824219-11.074218-1.089844-1.464844-2.707031-2.421875-4.515625-2.679688-1.804687-.253906-3.625.21875-5.082031 1.320313-.757812.578125-1.367188 1.027343-1.871094 1.347656-2.734375 1.738281-3.871094 5.175781-2.71875 8.199219 1.195313 3.132812 1.875 6.359375 1.878906 9.714844-.003906 7.5625-3.046874 14.34375-8 19.308593-4.960937 4.949219-11.746093 7.992188-19.308593 8-7.5625-.007812-14.347657-3.046875-19.308594-8-4.953125-4.964843-7.996094-11.746093-7.996094-19.308593 0-9.714844 5.09375-18.15625 12.796875-23.039063 2.753906-1.738281 3.894532-5.164063 2.730469-8.207031-1.191406-3.132813-1.875-6.359375-1.875-9.714844.003906-7.5625 3.046875-14.34375 7.996094-19.308594 4.964843-4.949218 11.746093-7.992187 19.308593-8 1.894532.003906 3.742188.195313 5.53125.5625 2.125.433594 4.351563-.175781 5.957032-1.632812 1.605468-1.457032 2.425781-3.613282 2.203125-5.769532l-.074219-.695312-6.789062.710938h6.828124c0-7.5625 3.042969-14.34375 7.996094-19.308594 4.960938-4.949219 11.746094-7.992188 19.308594-8 8.941406.003906 16.777344 4.34375 21.820312 11.078125 1.09375 1.460937 2.707032 2.421875 4.515626 2.675781 1.804687.257812 3.625-.214844 5.078124-1.316406 4.660157-3.515625 10.234376-5.605469 16.375-5.609375zm0 0" fill="#54596e"/><path d="m202.328125 6.925781c-12.792969 66.054688-70.882813 115.957031-140.671875 115.957031-13.695312 0-26.894531-2.035156-39.433594-5.625-9.769531 22.296876-15.183594 47.109376-15.183594 73.636719 0 105.570313 85.582032 198.230469 191.148438 198.230469s191.148438-92.660156 191.148438-198.230469c0-104.179687-83.363282-181.941406-187.007813-183.96875" fill="#adf2a2"/><path d="m202.328125 6.925781-6.703125-1.300781c-12.179688 62.890625-67.511719 110.441406-133.96875 110.429688-13.015625 0-25.574219-1.9375-37.554688-5.359376-3.292968-.945312-6.761718.6875-8.136718 3.824219-10.140625 23.144531-15.753906 48.914063-15.75 76.371094.007812 54.652344 22.121094 105.832031 57.867187 143.410156 35.734375 37.578125 85.289063 61.648438 140.105469 61.640625 54.820312.007813 104.375-24.066406 140.109375-61.640625 35.746094-37.578125 57.859375-88.761719 57.867187-143.410156.015626-53.925781-21.644531-101.273437-56.71875-135.191406-35.054687-33.945313-83.484374-54.554688-136.984374-55.605469-3.3125-.0625-6.199219 2.273438-6.832032 5.527344l6.699219 1.304687-.132813 6.820313c50.144532.988281 95.222657 20.273437 127.757813 51.761718 32.523437 31.515626 52.539063 75.132813 52.554687 125.386719.007813 50.921875-20.667968 98.855469-54.105468 134-33.449219 35.144531-79.464844 57.402344-130.214844 57.402344-50.746094 0-96.761719-22.257813-130.21875-57.402344-33.433594-35.144531-54.109375-83.078125-54.101562-134 0-25.601562 5.214843-49.460937 14.605468-70.894531l-6.25-2.738281-1.878906 6.5625c13.097656 3.746093 26.9375 5.886719 41.308594 5.882812 73.121094-.015625 133.96875-52.261719 147.375-121.480469l-6.699219-1.300781-.132813 6.820313z" fill="#54596e"/><path d="m380.914062 167.378906c-11.71875 91.421875-89.03125 167.132813-182.726562 167.132813-93.691406 0-171.007812-75.707031-182.722656-167.132813-1.011719 7.71875-1.589844 15.601563-1.59375 23.671875.035156 50.863281 20.703125 98.734375 54.101562 133.84375 33.0625 34.730469 78.390625 56.875 128.433594 57.390625h.257812c.113282.003906.222657.003906.335938.003906.082031 0 .167969 0 .246094.003907h.945312.941406c.082032-.003907.167969-.003907.25-.003907.109376 0 .21875 0 .328126-.003906h.261718c50.042969-.515625 95.375-22.660156 128.429688-57.390625 33.40625-35.109375 54.074218-82.980469 54.109375-133.847656-.007813-8.066406-.585938-15.949219-1.597657-23.667969" fill="#a4e29d"/><g fill="#54596e"><path d="m197.242188 382.292969h.945312c-.316406 0-.628906 0-.945312 0m1.890624 0c-.316406 0-.628906 0-.945312 0zm.574219-.007813c-.109375.003906-.21875.003906-.328125.003906.109375 0 .214844 0 .328125-.003906m-3.046875 0c.109375.003906.226563.003906.335938.003906-.113282 0-.222656 0-.335938-.003906m-182.792968-191.234375v.097657c0 101.203124 81.5625 190.097656 182.539062 191.136718-50.042969-.515625-95.375-22.660156-128.4375-57.390625-33.398438-35.109375-54.066406-82.980469-54.101562-133.84375m368.640624-.003906c-.035156 50.867187-20.703124 98.738281-54.109374 133.847656-33.054688 34.730469-78.382813 56.875-128.425782 57.390625 100.972656-1.039062 182.535156-89.933594 182.535156-191.136718 0-.03125 0-.066407 0-.101563"/><path d="m280.621094 287.722656c8.078125.019532 13.121094-8.382812 9.339844-15.351562-17.398438-32.066406-51.957032-53.917969-91.746094-53.917969-39.628906 0-74.066406 21.667969-91.535156 53.519531-3.8125 6.949219 1.195312 15.371094 9.277343 15.390625l66.890625-6.675781c10.21875-1.019531 20.519532-1 30.734375.0625zm0 0"/><path d="m280.621094 287.722656v6.824219l.675781-.03125-.648437-6.667969v6.699219l.648437-.03125-.648437-6.667969v6.699219c4.9375.015625 9.425781-2.039063 12.5-5.210937 3.089843-3.167969 4.910156-7.441407 4.917968-12.011719.003906-2.753907-.6875-5.605469-2.105468-8.214844-18.578126-34.238281-55.425782-57.476563-97.746094-57.480469-42.152344.003906-78.867188 23.046875-97.519532 57.0625-1.441406 2.617188-2.148437 5.492188-2.144531 8.273438.007813 4.566406 1.824219 8.832031 4.910157 11.996094 3.0625 3.171874 7.546874 5.226562 12.472656 5.226562l.699218-.035156 66.894532-6.675782c4.777344-.476562 9.574218-.714843 14.371094-.714843 5 0 10 .253906 14.972656.777343l67.046875 6.972657.703125.035156v-6.824219l.707031-6.789062-67.039063-6.972656c-5.445312-.570313-10.921874-.851563-16.390624-.851563-5.25 0-10.5.261719-15.726563.785156l-66.894531 6.675781.679687 6.792969.019531-6.828125c-1.261718-.019531-2.066406-.445312-2.742187-1.109375-.660156-.667969-1.035156-1.589843-1.027344-2.460937.003907-.535156.117188-1.074219.457031-1.707032 16.285157-29.6875 48.449219-49.980468 85.550782-49.976562 37.25-.003906 69.527344 20.457031 85.746094 50.34375.332031.621094.449218 1.160156.449218 1.699219.007813.875-.371094 1.800781-1.027344 2.472656-.679687.664063-1.480468 1.082031-2.734374 1.101563l-.675782.03125.648438 6.660156v-6.691406l-.648438.03125.648438 6.660156v-6.691406 6.824218l.707031-6.789062zm0 0"/><path d="m268.453125 155.015625 34.132813 34.132813c2.667968 2.664062 6.992187 2.664062 9.65625 0 2.664062-2.667969 2.664062-6.988282 0-9.65625l-34.132813-34.132813c-2.667969-2.664063-6.988281-2.664063-9.65625 0-2.667969 2.667969-2.667969 6.988281 0 9.65625"/><path d="m278.105469 189.148438 34.136719-34.132813c2.664062-2.667969 2.664062-6.988281 0-9.65625-2.667969-2.664063-6.992188-2.664063-9.65625 0l-34.132813 34.132813c-2.667969 2.667968-2.667969 6.988281 0 9.65625 2.667969 2.664062 6.988281 2.664062 9.652344 0"/><path d="m84.132812 155.015625 34.136719 34.132813c2.664063 2.664062 6.988281 2.664062 9.652344 0 2.667969-2.667969 2.667969-6.988282 0-9.65625l-34.132813-34.132813c-2.664062-2.664063-6.988281-2.664063-9.65625 0-2.664062 2.667969-2.664062 6.988281 0 9.65625"/><path d="m93.789062 189.148438 34.132813-34.132813c2.664063-2.667969 2.664063-6.988281 0-9.65625-2.667969-2.664063-6.988281-2.664063-9.65625 0l-34.132813 34.132813c-2.664062 2.667968-2.664062 6.988281 0 9.65625 2.667969 2.664062 6.988282 2.664062 9.65625 0"/></g><path d="m157.226562 40.960938c0-18.851563-15.277343-34.132813-34.132812-34.132813-18.851562 0-34.132812 15.28125-34.132812 34.132813" fill="#fff35f"/><path d="m164.054688 40.960938c-.003907-22.625-18.332032-40.95703175-40.960938-40.960938-22.625.00390625-40.957031 18.335938-40.960938 40.960938 0 3.769531 3.058594 6.828124 6.828126 6.828124 3.769531 0 6.828124-3.058593 6.828124-6.828124 0-7.5625 3.042969-14.34375 7.996094-19.308594 4.960938-4.949219 11.746094-7.992188 19.308594-8 7.5625.007812 14.347656 3.046875 19.308594 8 4.953125 4.964844 7.996094 11.746094 8 19.308594 0 3.769531 3.054687 6.828124 6.824218 6.828124 3.769532 0 6.828126-3.058593 6.828126-6.828124zm0 0" fill="#54596e"/></svg>