<svg height="416pt" viewBox="-10 0 416 416.43179" width="416pt" xmlns="http://www.w3.org/2000/svg"><path d="m274.023438 379.832031c-23.339844 10.332031-48.957032 16.117188-75.835938 16.113281h-.019531c-26.871094 0-52.480469-5.789062-75.816407-16.113281-28.644531 3.75-47.039062 9.578125-47.039062 16.121094 0 11.304687 55.011719 20.480469 122.875 20.480469 67.867188 0 122.878906-9.175782 122.878906-20.480469 0-6.542969-18.398437-12.371094-47.042968-16.121094" fill="#eeeef0"/><path d="m389.332031 190.898438c0-105.566407-85.578125-184.066407-191.144531-184.066407-105.5625 0-191.148438 78.496094-191.148438 184.066407 0 105.5625 85.585938 198.222656 191.148438 198.222656 105.566406 0 191.144531-92.660156 191.144531-198.222656" fill="#d8d8d8"/><path d="m389.332031 190.898438h6.832031c.015626-54.648438-22.222656-102.554688-58.117187-136.574219-35.882813-34.046875-85.378906-54.324219-139.859375-54.324219-54.476562 0-103.980469 20.277344-139.855469 54.324219-35.894531 34.019531-58.132812 81.921875-58.117187 136.574219.007812 54.644531 22.121094 105.824218 57.863281 143.402343 35.730469 37.578125 85.292969 61.652344 140.109375 61.644531 54.816406.007813 104.375-24.066406 140.105469-61.644531 35.746093-37.582031 57.859375-88.761719 57.871093-143.402343h-13.65625c.011719 50.921874-20.667968 98.851562-54.105468 133.992187-33.453125 35.144531-79.46875 57.40625-130.214844 57.40625-50.75 0-96.765625-22.261719-130.21875-57.40625-33.433594-35.140625-54.109375-83.070313-54.105469-133.992187.019531-50.921876 20.566407-95.054688 53.863281-126.671876 33.296876-31.59375 79.378907-50.566406 130.460938-50.574218 51.085938.007812 97.160156 18.980468 130.464844 50.574218 33.285156 31.613282 53.835937 75.75 53.855468 126.671876z" fill="#54596e"/><path d="m380.910156 167.382812c-11.714844 91.421876-89.027344 167.125-182.722656 167.125-93.691406 0-171.007812-75.703124-182.726562-167.125-1.007813 7.714844-1.589844 15.597657-1.597657 23.667969.035157 50.867188 20.707031 98.734375 54.105469 133.835938 33.453125 35.148437 79.46875 57.410156 130.21875 57.410156 50.746094 0 96.761719-22.261719 130.214844-57.410156 33.402344-35.101563 54.074218-82.972657 54.105468-133.835938-.003906-8.070312-.582031-15.949219-1.597656-23.667969" fill="#cbcbcd"/><path d="m382.507812 191.050781c-.03125 50.863281-20.703124 98.734375-54.105468 133.835938-33.453125 35.148437-79.46875 57.410156-130.214844 57.410156 101.800781 0 184.320312-89.351563 184.320312-191.148437 0-.03125 0-.066407 0-.097657m-368.640624 0v.097657c0 101.796874 82.519531 191.148437 184.320312 191.148437-50.75 0-96.765625-22.261719-130.21875-57.410156-33.398438-35.101563-54.070312-82.96875-54.101562-133.835938" fill="#54596e"/><path d="m334.722656 143.363281c0 18.851563-15.285156 34.132813-34.136718 34.132813-18.851563 0-34.132813-15.28125-34.132813-34.132813 0-18.851562 15.28125-34.136719 34.132813-34.136719 18.851562 0 34.136718 15.285157 34.136718 34.136719zm0 0" fill="#54596e"/><path d="m297.175781 153.601562c0 5.65625-4.585937 10.238282-10.242187 10.238282s-10.238282-4.582032-10.238282-10.238282 4.582032-10.238281 10.238282-10.238281 10.242187 4.582031 10.242187 10.238281zm0 0" fill="#fff"/><path d="m334.722656 126.296875c0 9.421875-7.644531 17.066406-17.070312 17.066406-9.421875 0-17.066406-7.644531-17.066406-17.066406 0-9.425781 7.644531-17.070313 17.066406-17.070313 9.425781 0 17.070312 7.644532 17.070312 17.070313zm0 0" fill="#fff"/><path d="m129.921875 143.363281c0 18.851563-15.28125 34.132813-34.132813 34.132813-18.851562 0-34.136718-15.28125-34.136718-34.132813 0-18.851562 15.285156-34.136719 34.136718-34.136719 18.851563 0 34.132813 15.285157 34.132813 34.136719zm0 0" fill="#54596e"/><path d="m92.375 153.601562c0 5.65625-4.585938 10.238282-10.242188 10.238282-5.652343 0-10.238281-4.582032-10.238281-10.238282s4.585938-10.238281 10.238281-10.238281c5.65625 0 10.242188 4.582031 10.242188 10.238281zm0 0" fill="#fff"/><path d="m129.921875 126.296875c0 9.421875-7.640625 17.066406-17.066406 17.066406s-17.066407-7.644531-17.066407-17.066406c0-9.425781 7.640626-17.070313 17.066407-17.070313s17.066406 7.644532 17.066406 17.070313zm0 0" fill="#fff"/><path d="m230.308594 293.546875h-64.242188c-12.425781 0-22.492187-10.066406-22.492187-22.488281v-43.769532c0-12.417968 10.066406-22.488281 22.492187-22.488281h64.242188c12.425781 0 22.492187 10.070313 22.492187 22.488281v43.769532c0 12.421875-10.066406 22.488281-22.492187 22.488281zm0 0" fill="#aaa"/><g fill="#54596e"><path d="m201.664062 235.808594 25.824219-21.367188c3.933594-3.25 1.632813-9.640625-3.464843-9.640625h-51.667969c-5.097657 0-7.398438 6.390625-3.464844 9.640625l25.828125 21.367188c2.007812 1.667968 4.921875 1.667968 6.945312 0zm0 0"/><path d="m205.015625 266.242188v-27.308594c0-3.769532-3.058594-6.824219-6.828125-6.824219s-6.828125 3.054687-6.828125 6.824219v27.308594c0 3.769531 3.058594 6.828124 6.828125 6.828124s6.828125-3.058593 6.828125-6.828124"/><path d="m191.359375 269.65625c.007813 16.96875 13.753906 30.714844 30.722656 30.71875 16.964844-.003906 30.714844-13.75 30.71875-30.71875 0-3.773438-3.054687-6.828125-6.828125-6.828125-3.769531 0-6.824218 3.054687-6.824218 6.828125-.019532 9.421875-7.648438 17.046875-17.066407 17.066406-9.421875-.019531-17.050781-7.644531-17.066406-17.066406 0-3.773438-3.058594-6.828125-6.828125-6.828125s-6.824219 3.054687-6.828125 6.828125zm0 0"/><path d="m143.574219 269.65625c.003906 16.96875 13.753906 30.714844 30.71875 30.71875 16.96875-.003906 30.714843-13.75 30.722656-30.71875 0-3.773438-3.058594-6.828125-6.828125-6.828125s-6.828125 3.054687-6.828125 6.828125c-.015625 9.421875-7.644531 17.046875-17.066406 17.066406-9.417969-.019531-17.046875-7.644531-17.066407-17.066406 0-3.773438-3.054687-6.828125-6.824218-6.828125-3.773438 0-6.828125 3.054687-6.828125 6.828125zm0 0"/><path d="m245.375 252.570312 134.066406-13.652343c1.875-.191407 3.238282-1.867188 3.050782-3.742188-.191407-1.875-1.867188-3.242187-3.742188-3.050781l-134.066406 13.652344c-1.878906.191406-3.242188 1.867187-3.050782 3.742187.191407 1.875 1.863282 3.242188 3.742188 3.050781"/><path d="m250.566406 231.898438 111.5-40.960938c1.769532-.648438 2.675782-2.609375 2.027344-4.378906-.652344-1.769532-2.613281-2.675782-4.382812-2.027344l-111.5 40.957031c-1.769532.652344-2.675782 2.613281-2.027344 4.382813.652344 1.769531 2.613281 2.675781 4.382812 2.027344"/><path d="m151.691406 245.777344-134.066406-13.652344c-1.875-.191406-3.550781 1.175781-3.742188 3.050781-.1875 1.875 1.175782 3.550781 3.050782 3.742188l134.066406 13.652343c1.878906.191407 3.550781-1.175781 3.742188-3.050781.191406-1.875-1.171876-3.550781-3.050782-3.742187"/><path d="m148.164062 225.488281-111.5-40.957031c-1.769531-.652344-3.730468.257812-4.378906 2.027344-.652344 1.769531.257813 3.730468 2.027344 4.378906l111.5 40.960938c1.769531.648437 3.730469-.257813 4.378906-2.027344.648438-1.769532-.257812-3.730469-2.027344-4.382813"/></g></svg>