<svg height="426pt" viewBox="0 -1 426.65138 426" width="426pt" xmlns="http://www.w3.org/2000/svg"><path d="m402.773438 218.523438c0-105.566407-85.578126-184.0625-191.152344-184.0625-105.566406 0-191.144532 78.496093-191.144532 184.0625 0 105.574218 85.578126 198.230468 191.144532 198.230468 105.574218 0 191.152344-92.65625 191.152344-198.230468" fill="#fff"/><path d="m402.773438 218.523438h6.828124c.015626-54.644532-22.226562-102.542969-58.117187-136.566407-35.878906-34.050781-85.378906-54.328125-139.863281-54.324219-54.480469-.007812-103.976563 20.273438-139.855469 54.324219-35.886719 34.023438-58.132813 81.921875-58.117187 136.566407.011718 54.652343 22.125 105.832031 57.867187 143.414062 35.734375 37.574219 85.292969 61.644531 140.109375 61.636719 54.816406.007812 104.378906-24.066407 140.109375-61.636719 35.742187-37.585938 57.855469-88.761719 57.867187-143.414062h-13.660156c.015625 50.925781-20.664062 98.859374-54.101562 134-33.453125 35.144531-79.464844 57.402343-130.21875 57.402343-50.746094 0-96.757813-22.257812-130.210938-57.402343-33.441406-35.140626-54.117187-83.074219-54.101562-134 .011718-50.914063 20.558594-95.046876 53.855468-126.667969 33.296876-31.585938 79.371094-50.566407 130.457032-50.570313 51.085937.007813 97.167968 18.984375 130.464844 50.574219 33.285156 31.617187 53.84375 75.75 53.855468 126.667969h6.832032" fill="#54596e"/><path d="m394.351562 195.015625c-11.722656 91.421875-89.03125 167.128906-182.730468 167.128906-93.691406 0-171.003906-75.707031-182.722656-167.128906-1.007813 7.71875-1.585938 15.601563-1.589844 23.671875.03125 50.867188 20.695312 98.730469 54.101562 133.835938 33.0625 34.734374 78.386719 56.878906 128.429688 57.394531.097656 0 .203125 0 .300781.003906h.292969c.085937 0 .167968.003906.257812.003906h.933594.917969c.097656 0 .175781-.003906.273437-.003906h.234375c.117188-.003906.238281-.003906.359375-.003906 50.046875-.515625 95.371094-22.660157 128.433594-57.394531 33.398438-35.105469 54.070312-82.972657 54.101562-133.839844-.007812-8.070313-.585937-15.953125-1.59375-23.667969" fill="#eeeef0"/><g fill="#54596e"><path d="m212.542969 409.925781c-.308594 0-.613281 0-.921875 0zm-1.855469 0h.933594c-.3125 0-.621094 0-.933594 0m2.363281-.003906c-.082031 0-.15625 0-.238281 0zm-2.910156 0h.289063c-.097657 0-.191407 0-.289063 0m-182.832031-191.234375v.097656c0 101.199219 81.5625 190.09375 182.53125 191.132813-50.042969-.515625-95.367188-22.660157-128.429688-57.394531-33.40625-35.105469-54.074218-82.972657-54.101562-133.835938m368.632812-.003906c-.03125 50.867187-20.703125 98.734375-54.101562 133.839844-33.0625 34.734374-78.386719 56.878906-128.433594 57.394531 100.972656-1.039063 182.535156-89.933594 182.535156-191.132813 0-.035156 0-.066406 0-.101562"/><path d="m314.023438 218.78125c-.003907-18.855469-15.277344-34.128906-34.132813-34.132812-18.851563.003906-34.128906 15.277343-34.132813 34.132812 0 3.769531 3.058594 6.824219 6.828126 6.824219 3.769531 0 6.824218-3.054688 6.824218-6.824219.023438-11.3125 9.175782-20.460938 20.480469-20.480469 11.308594.019531 20.460937 9.167969 20.480469 20.480469 0 3.769531 3.058594 6.824219 6.828125 6.824219s6.824219-3.054688 6.824219-6.824219zm0 0"/><path d="m170.664062 218.78125c-.003906-18.855469-15.277343-34.128906-34.132812-34.132812-18.851562.003906-34.128906 15.277343-34.132812 34.132812 0 3.769531 3.054687 6.824219 6.828124 6.824219 3.769532 0 6.824219-3.054688 6.824219-6.824219.019531-11.3125 9.175781-20.460938 20.480469-20.480469 11.308594.019531 20.460938 9.167969 20.480469 20.480469 0 3.769531 3.054687 6.824219 6.828125 6.824219 3.769531 0 6.824218-3.054688 6.824218-6.824219zm0 0"/><path d="m148.800781 274.121094c19.242188 3.929687 40.484375 6.097656 62.824219 6.097656 22.328125 0 43.558594-2.167969 62.792969-6.089844 3.691406-.753906 6.074219-4.359375 5.324219-8.054687-.753907-3.691407-4.359376-6.078125-8.054688-5.320313-18.265625 3.726563-38.621094 5.8125-60.0625 5.8125-21.449219 0-41.816406-2.089844-60.09375-5.820312-3.695312-.757813-7.300781 1.625-8.054688 5.320312-.757812 3.699219 1.628907 7.304688 5.324219 8.054688zm0 0"/></g><path d="m320.851562 136.859375 69.53125-100.636719c2.867188-4.417968 9.070313-5.078125 12.796876-1.355468l14.222656 14.226562c3.230468 3.230469 3.230468 8.464844 0 11.695312l-7.804688 7.804688 7.820313 19.554688c3.445312 8.601562.683593 18.441406-6.730469 24l-42.050781 31.539062" fill="#fff"/><path d="m326.46875 140.742188 69.53125-100.636719.117188-.171875 1.222656-.667969 1.007812.421875 14.226563 14.230469.421875 1.023437-.421875 1.019532-7.804688 7.804687c-1.9375 1.9375-2.527343 4.816406-1.507812 7.359375l7.816406 19.554688c.664063 1.660156.980469 3.371093.980469 5.070312-.003906 4.207031-1.941406 8.292969-5.46875 10.9375l-42.046875 31.539062c-3.015625 2.261719-3.628907 6.539063-1.367188 9.558594 2.265625 3.015625 6.542969 3.625 9.558594 1.367188l42.050781-31.542969c7.03125-5.28125 10.929688-13.453125 10.925782-21.859375 0-3.398438-.636719-6.847656-1.957032-10.140625l-6.144531-15.371094 4.621094-4.621093c2.933593-2.929688 4.425781-6.835938 4.421875-10.675782.007812-3.839844-1.488282-7.746094-4.421875-10.675781l-14.222657-14.222656c-2.941406-2.960938-6.875-4.441407-10.667968-4.425781-4.859375-.019532-9.777344 2.394531-12.6875 6.898437l5.730468 3.710937-5.613281-3.882812-69.535156 100.636719c-2.144531 3.101562-1.367187 7.355469 1.734375 9.496093 3.101562 2.144532 7.355469 1.367188 9.5-1.734374zm0 0" fill="#54596e"/><path d="m211.625 109.554688c-55.894531 0-116.054688-16.019532-116.054688-51.199219 0-35.179688 60.160157-51.203125 116.054688-51.203125s116.054688 16.023437 116.054688 51.203125c0 35.179687-60.160157 51.199219-116.054688 51.199219zm0-75.09375c-58.234375 0-88.746094 17.753906-88.746094 23.894531s30.511719 23.890625 88.746094 23.890625 88.746094-17.75 88.746094-23.890625-30.511719-23.894531-88.746094-23.894531zm0 0" fill="#fff35f"/><path d="m211.625 109.554688v-6.828126c-27.285156.019532-55.703125-3.976562-76.554688-11.960937-10.425781-3.960937-18.898437-8.925781-24.421874-14.421875-5.539063-5.5625-8.207032-11.210938-8.25-17.988281.042968-6.785157 2.710937-12.429688 8.25-17.992188 8.265624-8.28125 23.253906-15.203125 41.34375-19.660156 18.074218-4.507813 39.164062-6.726563 59.632812-6.722656 27.28125-.023438 55.699219 3.976562 76.550781 11.957031 10.429688 3.964844 18.898438 8.925781 24.425781 14.425781 5.535157 5.5625 8.203126 11.207031 8.25 17.992188-.046874 6.777343-2.714843 12.425781-8.25 17.988281-8.269531 8.28125-23.257812 15.203125-41.34375 19.660156-18.078124 4.507813-39.167968 6.726563-59.632812 6.722656v13.652344c28.605469-.019531 58.214844-4.03125 81.417969-12.855468 11.597656-4.4375 21.664062-10.074219 29.164062-17.476563 7.488281-7.335937 12.339844-16.882813 12.296875-27.691406.042969-10.8125-4.808594-20.359375-12.296875-27.695313-11.273437-11.066406-28.214843-18.320312-47.652343-23.210937-19.449219-4.835938-41.480469-7.121094-62.929688-7.125-28.609375.023437-58.21875 4.03125-81.421875 12.855469-11.597656 4.441406-21.664063 10.078124-29.164063 17.480468-7.488281 7.332032-12.339843 16.882813-12.296874 27.691406-.042969 10.808594 4.808593 20.359376 12.296874 27.691407 11.273438 11.070312 28.214844 18.324219 47.652344 23.210937 19.449219 4.835938 41.480469 7.121094 62.933594 7.125zm0-75.09375v-6.828126c-29.816406.003907-52.714844 4.53125-68.460938 10.027344-7.886718 2.757813-13.96875 5.730469-18.410156 8.699219-2.222656 1.503906-4.046875 2.976563-5.566406 4.683594-.757812.863281-1.449219 1.789062-2.035156 2.933593-.574219 1.144532-1.089844 2.566407-1.097656 4.378907.007812 1.8125.523437 3.230469 1.097656 4.371093 1.117187 2.128907 2.53125 3.585938 4.210937 5.0625 2.953125 2.523438 6.890625 4.925782 12.03125 7.328126 15.359375 7.125 41.527344 13.9375 78.230469 13.957031 29.820312-.003907 52.714844-4.53125 68.464844-10.027344 7.882812-2.757813 13.964844-5.730469 18.40625-8.699219 2.226562-1.503906 4.046875-2.980468 5.566406-4.6875.757812-.859375 1.449219-1.785156 2.035156-2.933594.574219-1.140624 1.089844-2.5625 1.101563-4.371093-.011719-1.8125-.523438-3.234375-1.101563-4.378907-1.113281-2.125-2.53125-3.582031-4.210937-5.058593-2.949219-2.527344-6.886719-4.925781-12.027344-7.328125-15.363281-7.125-41.53125-13.9375-78.234375-13.957032v13.652344c28.417969-.003906 49.894531 4.347656 63.960938 9.265625 7.023437 2.445313 12.210937 5.0625 15.308593 7.148438 1.542969 1.027343 2.558594 1.945312 2.9375 2.382812l.164063.199219.445312-.3125-.472656.261719.027344.050781.445312-.316406-.472656.265625 3.351562-1.878907-3.773437.003907c.015625 1.175781.347656 1.730469.417969 1.878906l3.355468-1.882813-3.773437.003907h3.949219l-3.566406-1.816407c-.097657.207032-.371094.769532-.382813 1.816407h3.949219l-3.566406-1.816407.894531.453126-.828125-.570313-.066406.117187.894531.453126-.828125-.570313c-.066406.242187-2.300782 2.375-6.132813 4.417969-5.777343 3.1875-15.214843 6.894531-27.980469 9.726562-12.769531 2.84375-28.898437 4.855469-48.257812 4.855469-28.414062.003906-49.894531-4.347656-63.960938-9.261719-7.023437-2.445312-12.207031-5.066406-15.308593-7.152344-1.542969-1.027343-2.558594-1.945312-2.9375-2.382812l-.164063-.199219-.445312.3125.476562-.261719-.03125-.050781-.445312.316407.476562-.265626-3.359375 1.882813h3.777344c-.015625-1.179687-.347656-1.734375-.417969-1.882813l-3.359375 1.882813h3.777344-3.945313l3.5625 1.8125c.097657-.203125.371094-.765625.382813-1.8125h-3.941406l3.558593 1.8125-.890624-.453125.824218.574219.066406-.121094-.890624-.453125.824218.574219c.070313-.246094 2.300782-2.375 6.132813-4.417969 5.78125-3.191406 15.21875-6.894531 27.980469-9.730469 12.769531-2.847656 28.898437-4.859375 48.257812-4.859375zm0 0" fill="#54596e"/><path d="m404.769531 63.765625-20.480469 20.480469c-2.664062 2.664062-2.664062 6.988281 0 9.65625 2.667969 2.664062 6.988282 2.664062 9.65625 0l20.480469-20.480469c2.664063-2.667969 2.664063-6.988281 0-9.65625-2.667969-2.664063-6.988281-2.664063-9.65625 0" fill="#54596e"/><path d="m105.796875 136.859375-69.53125-100.632813c-2.863281-4.421874-9.070313-5.082031-12.792969-1.355468l-14.222656 14.222656c-3.230469 3.230469-3.230469 8.464844 0 11.699219l7.800781 7.804687-7.820312 19.550782c-3.441407 8.601562-.683594 18.445312 6.730469 24l42.050781 31.539062" fill="#fff"/><path d="m111.414062 132.980469-69.53125-100.636719-5.617187 3.878906 5.730469-3.710937c-2.910156-4.503907-7.828125-6.917969-12.6875-6.898438-3.789063-.011719-7.726563 1.464844-10.671875 4.4375l.007812-.011719-14.222656 14.226563c-2.933594 2.929687-4.4296875 6.832031-4.421875 10.675781-.0078125 3.839844 1.488281 7.746094 4.421875 10.675782l4.621094 4.621093-6.148438 15.375c-1.320312 3.289063-1.960937 6.734375-1.957031 10.136719-.003906 8.402344 3.894531 16.578125 10.925781 21.859375l42.050781 31.539063c3.015626 2.261718 7.296876 1.652343 9.558594-1.367188 2.261719-3.015625 1.648438-7.292969-1.367187-9.554688l-42.046875-31.539062c-3.527344-2.644531-5.464844-6.730469-5.46875-10.9375 0-1.699219.316406-3.40625.976562-5.066406l7.824219-19.558594c1.015625-2.542969.425781-5.421875-1.511719-7.359375l-7.800781-7.804687-.425781-1.019532.425781-1.023437 14.222656-14.222657.007813-.011718 1.003906-.417969 1.222656.667969.113282.171875 69.535156 100.636719c2.140625 3.101562 6.394531 3.878906 9.496094 1.734374 3.101562-2.140624 3.878906-6.394531 1.734374-9.496093zm0 0" fill="#54596e"/><path d="m12.226562 73.421875 20.476563 20.480469c2.667969 2.664062 6.992187 2.664062 9.65625 0 2.664063-2.664063 2.664063-6.988282 0-9.65625l-20.480469-20.476563c-2.664062-2.667969-6.988281-2.667969-9.652344 0-2.667968 2.664063-2.667968 6.984375 0 9.652344" fill="#54596e"/></svg>