<svg height="421pt" viewBox="-12 0 421 421.79073" width="421pt" xmlns="http://www.w3.org/2000/svg"><path d="m272.164062 384.152344c-22.023437 7.992187-45.339843 11.925781-68.691406 11.917968-23.261718 0-46.601562-3.886718-68.839844-11.550781-31.738281 3.703125-52.488281 9.839844-52.488281 16.785157 0 11.3125 55.015625 20.484374 122.878907 20.484374 67.855468 0 122.878906-9.171874 122.878906-20.484374 0-7.175782-22.175782-13.492188-55.738282-17.152344" fill="#eeeef0"/><path d="m22.34375 372.839844c-6.671875-6.664063-6.671875-17.464844 0-24.136719l33.78125-33.789063c6.671875-6.664062 17.472656-6.664062 24.144531 0 6.664063 6.667969 6.664063 17.472657 0 24.136719l-33.789062 33.789063c-6.667969 6.667968-17.472657 6.667968-24.136719 0" fill="#fff35f"/><path d="m22.34375 372.839844 4.824219-4.828125c-2.011719-2.015625-2.988281-4.59375-2.996094-7.238281.007813-2.648438.984375-5.230469 2.992187-7.242188l33.789063-33.789062c2.023437-2.011719 4.601563-2.992188 7.246094-3 2.644531.007812 5.222656.988281 7.234375 3 2.019531 2.015624 3 4.59375 3.003906 7.238281-.007812 2.640625-.984375 5.21875-3.003906 7.246093l-33.78125 33.785157c-2.019532 2.011719-4.597656 2.992187-7.242188 3-2.644531-.007813-5.230468-.988281-7.246094-3l-4.820312 4.828125-4.828125 4.828125c4.648437 4.652343 10.800781 7 16.898437 6.996093 6.089844.003907 12.242188-2.34375 16.894532-6.996093l33.789062-33.792969c4.652344-4.652344 7.003906-10.804688 6.996094-16.894531.007812-6.09375-2.34375-12.25-7-16.894531-4.648438-4.65625-10.800781-7.003907-16.890625-6.996094-6.097656-.011719-12.25 2.34375-16.902344 6.996094l-33.78125 33.792968c-4.660156 4.644532-7.007812 10.804688-7.003906 16.894532-.007813 6.089843 2.34375 12.246093 6.996094 16.894531z" fill="#54596e"/><path d="m331.085938 60.378906c-74.648438-74.644531-190.671876-69.644531-265.316407 5.003906-74.644531 74.644532-79.65625 190.667969-5.003906 265.320313 74.644531 74.644531 200.679687 79.648437 275.324219 5.003906 74.648437-74.648437 69.644531-200.683593-5.003906-275.328125" fill="#fff35f"/><path d="m331.085938 60.378906 4.824218-4.828125c-37.328125-37.359375-84.917968-55.5703122-132.691406-55.550781-51.101562 0-102.464844 20.734375-142.277344 60.554688-39.816406 39.8125-60.554687 91.179687-60.546875 142.269531-.019531 47.78125 18.183594 95.363281 55.546875 132.707031 39.945313 39.925781 93.953125 60.542969 147.53125 60.542969 50.09375.011719 99.988282-18.085938 137.449219-55.539063 37.460937-37.460937 55.558594-87.363281 55.542969-137.449218-.003906-53.578126-20.621094-107.597657-60.550782-147.53125l-4.828124 4.824218-4.824219 4.824219c37.214843 37.199219 56.558593 87.777344 56.550781 137.878906-.011719 46.859375-16.863281 93.105469-51.546875 127.796875-34.6875 34.683594-80.9375 51.535156-127.792969 51.539063-50.09375.007812-100.675781-19.328125-137.878906-56.550781-34.789062-34.8125-51.527344-78.699219-51.546875-123.042969 0-47.398438 19.222656-95.28125 56.550781-132.617188 37.335938-37.335937 85.21875-56.550781 132.625-56.554687 44.335938.023437 88.226563 16.761718 123.035156 51.550781z" fill="#54596e"/><path d="m308.507812 49.703125c56.355469 72.929687 55.214844 181.136719-11.03125 247.386719-34.769531 34.765625-81.101562 51.605468-127.816406 51.605468-42.300781 0-84.910156-13.796874-119.570312-40.578124 4.316406 5.617187 8.980468 11.070312 14.078125 16.308593.472656.484375.949219.960938 1.425781 1.445313 37.199219 37.21875 87.765625 56.546875 137.855469 56.546875h.023437c46.855469-.003907 93.105469-16.855469 127.792969-51.539063 34.683594-34.6875 51.535156-80.9375 51.546875-127.792968.007812-50.054688-19.296875-100.582032-56.441406-137.773438-.039063-.035156-.074219-.070312-.113282-.109375v.003906c-.527343-.523437-1.050781-1.042969-1.578124-1.558593-5.195313-5.046876-10.609376-9.671876-16.171876-13.945313" fill="#eee361"/><g fill="#54596e"><path d="m64.167969 324.425781c.527343.542969 1.0625 1.085938 1.601562 1.625 37.195313 37.195313 87.628907 56.460938 137.613281 56.460938 46.746094 0 93.097657-16.847657 127.882813-51.632813-34.6875 34.683594-80.9375 51.535156-127.792969 51.539063-.007812 0-.019531 0-.023437 0-50.089844 0-100.65625-19.332031-137.855469-56.550781-.480469-.480469-.953125-.957032-1.425781-1.441407m262.203125-259.113281c37.148437 37.191406 56.449218 87.71875 56.445312 137.773438-.011718 46.855468-16.863281 93.105468-51.546875 127.792968 71.980469-71.980468 67.152344-193.515625-4.828125-265.496094-.023437-.023437-.046875-.046874-.070312-.070312m-1.691406-1.664062c.527343.515624 1.050781 1.03125 1.578124 1.554687-.523437-.523437-1.050781-1.039063-1.578124-1.554687"/><path d="m96.152344 163.265625c-4.710938-1.914063-9.707032-2.863281-14.699219-2.863281-9.972656-.007813-20.011719 3.820312-27.621094 11.441406-7.609375 7.605469-11.449219 17.640625-11.4375 27.617188 0 4.3125.707031 8.632812 2.136719 12.769531 1.226562 3.5625 5.113281 5.457031 8.675781 4.230469 3.566407-1.230469 5.460938-5.117188 4.230469-8.679688-.925781-2.6875-1.390625-5.503906-1.390625-8.320312.007813-6.523438 2.46875-12.984376 7.441406-17.960938 4.976563-4.980469 11.4375-7.433594 17.964844-7.445312 3.257813 0 6.511719.625 9.5625 1.863281 3.492187 1.417969 7.476563-.265625 8.894531-3.757813 1.417969-3.496094-.265625-7.476562-3.757812-8.894531zm0 0"/><path d="m183.042969 76.375c-4.707031-1.90625-9.699219-2.863281-14.6875-2.863281-9.976563-.007813-20.019531 3.820312-27.632813 11.445312-7.613281 7.605469-11.445312 17.644531-11.441406 27.621094 0 4.3125.714844 8.632813 2.136719 12.761719 1.230469 3.566406 5.113281 5.460937 8.679687 4.230468 3.5625-1.226562 5.457032-5.113281 4.230469-8.675781-.925781-2.691406-1.394531-5.503906-1.394531-8.316406.007812-6.527344 2.46875-12.988281 7.441406-17.96875 4.980469-4.976563 11.445312-7.433594 17.980469-7.441406 3.25 0 6.5.621093 9.550781 1.859375 3.492188 1.417968 7.472656-.261719 8.890625-3.757813 1.421875-3.496093-.261719-7.476562-3.753906-8.894531zm0 0"/></g><path d="m292.398438 78.648438 49.808593-49.808594c6.242188-6.238282 16.703125-5.898438 23.367188.765625 6.667969 6.667969 7.007812 17.128906.765625 23.371093l-35.320313 35.324219c-.796875.792969-1.660156 1.480469-2.570312 2.0625" fill="#fff35f"/><path d="m297.222656 83.476562 49.8125-49.808593c1.640625-1.632813 3.761719-2.457031 6.152344-2.46875 2.597656 0 5.367188 1.035156 7.558594 3.234375h.003906c2.195312 2.195312 3.230469 4.964844 3.230469 7.5625-.011719 2.390625-.832031 4.511718-2.46875 6.152344l-35.320313 35.328124-1.410156 1.128907c-3.179688 2.027343-4.117188 6.246093-2.089844 9.425781 2.023438 3.179688 6.242188 4.117188 9.425782 2.089844 1.320312-.839844 2.578124-1.839844 3.730468-2.992188l35.320313-35.324218c4.34375-4.339844 6.480469-10.121094 6.46875-15.808594 0-6.214844-2.476563-12.460938-7.234375-17.21875l.003906.003906c-4.761719-4.765625-11.007812-7.238281-17.21875-7.234375-5.6875-.015625-11.476562 2.121094-15.808594 6.46875l-49.804687 49.804687c-2.667969 2.664063-2.667969 6.988282-.003907 9.65625 2.664063 2.664063 6.988282 2.664063 9.652344 0zm0 0" fill="#54596e"/><path d="m261.785156 98.664062c9.199219-9.25 25.964844-3.984374 30.789063 9.46875 22.1875 61.898438 11.40625 129.976563-33.996094 175.382813-45.21875 45.214844-112.921875 56.097656-174.613281 34.265625-13.464844-4.761719-18.792969-21.511719-9.59375-30.757812zm0 0" fill="#54596e"/><path d="m261.785156 98.664062 4.839844 4.8125c1.835938-1.820312 3.96875-2.609374 6.5625-2.640624 4.941406-.054688 10.867188 3.5625 12.957031 9.597656 7.148438 19.9375 10.738281 40.507812 10.738281 60.65625-.015624 40.25-14.261718 78.707031-43.132812 107.59375-28.882812 28.871094-67.339844 43.117187-107.59375 43.132812-19.902344 0-40.214844-3.503906-59.917969-10.472656-6.050781-2.066406-9.695312-8.007812-9.640625-12.972656.027344-2.578125.8125-4.707032 2.605469-6.53125l187.421875-188.363282-4.839844-4.8125-4.84375-4.816406-187.410156 188.359375c-4.503906 4.492188-6.613281 10.457031-6.585938 16.167969.054688 10.953125 7.082032 21.644531 18.742188 25.84375 21.128906 7.472656 42.96875 11.253906 64.46875 11.253906 43.445312.015625 85.625-15.5 117.25-47.128906 31.632812-31.625 47.148438-73.804688 47.132812-117.25 0-21.769531-3.875-43.886719-11.539062-65.261719-4.230469-11.609375-14.894531-18.59375-25.8125-18.644531-5.746094-.03125-11.742188 2.105469-16.242188 6.664062zm0 0" fill="#54596e"/><path d="m212.949219 297.851562c14.160156-5.195312 21.425781-20.886718 16.226562-35.042968-5.195312-14.15625-20.882812-21.421875-35.042969-16.222656-7.703124 2.824218-13.253906 8.796874-15.980468 15.894531-6.671875-3.648438-14.769532-4.609375-22.472656-1.78125-14.15625 5.195312-21.417969 20.886719-16.222657 35.042969 5.199219 14.15625 20.886719 21.421874 35.042969 16.222656zm0 0" fill="#f99"/></svg>