<svg height="416pt" viewBox="-10 0 416 416.43179" width="416pt" xmlns="http://www.w3.org/2000/svg"><path d="m274.023438 379.832031c-23.34375 10.328125-48.957032 16.117188-75.835938 16.117188s-52.492188-5.789063-75.835938-16.117188c-28.640624 3.75-47.042968 9.574219-47.042968 16.117188 0 11.3125 55.015625 20.484375 122.878906 20.484375s122.878906-9.171875 122.878906-20.484375c0-6.542969-18.402344-12.367188-47.042968-16.117188" fill="#eeeef0"/><path d="m389.332031 190.894531c0-105.5625-85.582031-184.0625-191.144531-184.0625s-191.144531 78.5-191.144531 184.0625c0 105.566407 85.578125 198.226563 191.144531 198.226563s191.144531-92.660156 191.144531-198.226563" fill="#adf2a2"/><path d="m389.332031 190.894531h6.824219c.019531-54.652343-22.222656-102.550781-58.105469-136.578125-35.886719-34.046875-85.378906-54.316406-139.863281-54.316406-54.476562 0-103.976562 20.269531-139.859375 54.316406-35.890625 34.027344-58.132813 81.925782-58.113281 136.578125.007812 54.644531 22.121094 105.828125 57.867187 143.402344 35.726563 37.578125 85.289063 61.652344 140.105469 61.652344s104.378906-24.070313 140.105469-61.648438c35.746093-37.578125 57.859375-88.761719 57.867187-143.402343h-13.652344c.011719 50.917968-20.664062 98.847656-54.109374 133.996093-33.445313 35.140625-79.460938 57.398438-130.210938 57.402344-50.75-.007813-96.765625-22.261719-130.214844-57.40625-33.433594-35.144531-54.113281-83.078125-54.105468-133.996094.019531-50.917969 20.566406-95.054687 53.859374-126.671875 33.300782-31.585937 79.371094-50.566406 130.460938-50.574218 51.089844.007812 97.164062 18.988281 130.460938 50.574218 33.292968 31.617188 53.839843 75.757813 53.859374 126.675782h6.824219" fill="#54596e"/><path d="m380.914062 167.382812c-11.722656 91.417969-89.03125 167.125-182.726562 167.125-93.691406 0-171.003906-75.707031-182.726562-167.125-1.007813 7.714844-1.589844 15.597657-1.59375 23.664063.035156 50.863281 20.703124 98.734375 54.105468 133.84375 33.449219 35.144531 79.464844 57.402344 130.214844 57.40625 50.75-.007813 96.765625-22.261719 130.214844-57.40625 33.40625-35.109375 54.074218-82.976563 54.105468-133.835937-.003906-8.070313-.585937-15.957032-1.59375-23.671876" fill="#a4e29d"/><g fill="#54596e"><path d="m382.507812 191.054688c-.03125 50.863281-20.699218 98.726562-54.105468 133.835937-33.449219 35.144531-79.464844 57.402344-130.214844 57.40625 101.796875 0 184.320312-89.351563 184.320312-191.148437 0-.027344 0-.0625 0-.09375m-368.640624-.007813v.105469c0 101.792968 82.523437 191.144531 184.320312 191.144531-50.75-.007813-96.765625-22.261719-130.214844-57.40625-33.402344-35.109375-54.070312-82.980469-54.105468-133.84375"/><path d="m293.761719 160.429688c0 16.964843-13.753907 30.71875-30.722657 30.71875-16.964843 0-30.71875-13.753907-30.71875-30.71875 0-16.96875 13.753907-30.722657 30.71875-30.722657 16.96875 0 30.722657 13.753907 30.722657 30.722657zm0 0"/><path d="m164.054688 160.429688c0 16.964843-13.753907 30.71875-30.71875 30.71875-16.96875 0-30.722657-13.753907-30.722657-30.71875 0-16.96875 13.753907-30.722657 30.722657-30.722657 16.964843 0 30.71875 13.753907 30.71875 30.722657zm0 0"/><path d="m280.109375 259.414062h-27.308594c-1.796875 0-3.554687.726563-4.828125 2-1.269531 1.269532-2 3.027344-2 4.828126-.019531 11.308593-9.171875 20.457031-20.476562 20.480468-11.308594-.023437-20.460938-9.171875-20.480469-20.480468-.007813-18.855469-15.28125-34.128907-34.132813-34.132813-18.855468.003906-34.128906 15.277344-34.136718 34.132813h6.828125v-6.828126h-27.308594c-3.769531 0-6.824219 3.054688-6.824219 6.828126 0 3.769531 3.054688 6.828124 6.824219 6.828124h27.308594c1.796875 0 3.558593-.730468 4.828125-2.003906 1.269531-1.269531 2-3.027344 2-4.824218.019531-11.3125 9.171875-20.460938 20.480468-20.480469 11.304688.019531 20.457032 9.167969 20.476563 20.480469.007813 18.851562 15.28125 34.128906 34.136719 34.132812 18.851562-.003906 34.125-15.28125 34.132812-34.132812h-6.828125v6.828124h27.308594c3.769531 0 6.824219-3.058593 6.824219-6.828124 0-3.773438-3.054688-6.828126-6.824219-6.828126zm0 0"/></g></svg>