<svg height="416pt" viewBox="-10 0 416 416.42667" width="416pt" xmlns="http://www.w3.org/2000/svg"><path d="m274.015625 379.832031c-23.339844 10.328125-48.953125 16.113281-75.828125 16.113281s-52.488281-5.785156-75.828125-16.113281c-28.648437 3.75-47.050781 9.574219-47.050781 16.113281 0 11.3125 55.015625 20.480469 122.878906 20.480469 67.867188 0 122.882812-9.167969 122.882812-20.480469 0-6.539062-18.40625-12.363281-47.054687-16.113281" fill="#eeeef0"/><path d="m389.332031 190.894531c0-105.566406-85.574219-184.0625-191.144531-184.0625-105.566406 0-191.148438 78.496094-191.148438 184.0625 0 105.570313 85.582032 198.230469 191.148438 198.230469 105.570312 0 191.144531-92.660156 191.144531-198.230469" fill="#fff35f"/><g fill="#54596e"><path d="m389.332031 190.894531h6.828125c.015625-54.648437-22.226562-102.550781-58.117187-136.574219-35.878907-34.050781-85.378907-54.3281245-139.855469-54.320312-54.484375-.0078125-103.980469 20.273438-139.855469 54.320312-35.898437 34.023438-58.136719 81.925782-58.117187 136.574219.003906 54.648438 22.121094 105.828125 57.867187 143.40625 35.726563 37.574219 85.292969 61.644531 140.105469 61.644531 54.816406 0 104.371094-24.070312 140.105469-61.644531 35.746093-37.578125 57.855469-88.757812 57.871093-143.40625h-13.65625c.007813 50.921875-20.667968 98.855469-54.105468 133.996094-33.453125 35.144531-79.46875 57.402344-130.214844 57.402344-50.753906 0-96.765625-22.257813-130.210938-57.402344-33.441406-35.140625-54.121093-83.074219-54.109374-133.996094.015624-50.921875 20.566406-95.058593 53.859374-126.667969 33.296876-31.59375 79.371094-50.574218 130.460938-50.574218 51.085938 0 97.15625 18.980468 130.460938 50.574218 33.289062 31.609376 53.839843 75.746094 53.859374 126.667969z"/><path d="m123.09375 225.28125c0 43.355469 33.621094 78.503906 75.09375 78.503906s75.09375-35.148437 75.09375-78.503906zm0 0"/><path d="m123.09375 225.28125h-6.828125c0 23.453125 9.105469 44.777344 23.890625 60.230469 14.765625 15.457031 35.339844 25.105469 58.03125 25.101562 22.691406.003907 43.261719-9.644531 58.03125-25.101562 14.785156-15.453125 23.886719-36.777344 23.886719-60.230469 0-1.800781-.726563-3.558594-2-4.828125-1.269531-1.269531-3.027344-2-4.824219-2h-150.1875c-1.796875 0-3.558594.726563-4.828125 2-1.269531 1.269531-2 3.027344-2 4.828125h6.828125v6.824219h150.1875v-6.824219h-6.828125c0 19.898438-7.707031 37.832031-20.101563 50.792969-12.410156 12.957031-29.382812 20.878906-48.164062 20.886719-18.78125-.007813-35.753906-7.929688-48.167969-20.886719-12.390625-12.960938-20.097656-30.890625-20.097656-50.792969h-6.828125v6.824219zm0 0"/></g><path d="m380.917969 167.382812c-11.726563 91.417969-89.035157 167.128907-182.730469 167.128907s-171.003906-75.710938-182.726562-167.128907c-1.011719 7.714844-1.585938 15.601563-1.59375 23.675782.03125 50.863281 20.703124 98.726562 54.109374 133.832031 33.445313 35.144531 79.457032 57.402344 130.210938 57.402344 50.746094 0 96.761719-22.257813 130.214844-57.402344 33.40625-35.105469 54.070312-82.972656 54.105468-133.839844-.003906-8.070312-.582031-15.953125-1.589843-23.667969" fill="#eee361"/><path d="m13.871094 191.058594v.089844c-.003906 101.792968 82.519531 191.144531 184.316406 191.144531-50.753906 0-96.765625-22.257813-130.210938-57.402344-33.40625-35.105469-54.078124-82.96875-54.105468-133.832031m368.636718-.007813c-.035156 50.867188-20.703124 98.734375-54.109374 133.839844-33.449219 35.144531-79.464844 57.402344-130.210938 57.402344 101.796875 0 184.320312-89.351563 184.320312-191.144531 0-.03125 0-.066407 0-.097657" fill="#54596e"/><path d="m119.652344 108.292969 16.476562 9.628906-23.128906 12.621094c-3.3125 1.804687-4.53125 5.949219-2.726562 9.261719 1.808593 3.308593 5.953124 4.53125 9.265624 2.726562l33.742188-18.414062c2.160156-1.175782 3.519531-3.429688 3.554688-5.890626.039062-2.460937-1.257813-4.753906-3.382813-5.996093l-26.914063-15.722657c-3.257812-1.902343-7.4375-.804687-9.339843 2.453126-1.902344 3.25-.804688 7.429687 2.453125 9.332031zm0 0" fill="#54596e"/><path d="m269.445312 96.503906-26.914062 15.726563c-2.125 1.238281-3.417969 3.53125-3.382812 5.992187.035156 2.460938 1.394531 4.714844 3.558593 5.894532l33.742188 18.410156c3.308593 1.804687 7.453125.585937 9.261719-2.726563 1.804687-3.308593.585937-7.453125-2.722657-9.257812l-23.132812-12.625 16.480469-9.625c3.253906-1.902344 4.351562-6.082031 2.449218-9.335938-1.902344-3.253906-6.082031-4.351562-9.339844-2.453125zm0 0" fill="#54596e"/><path d="m97.605469 181.128906c-4.308594 8.382813-14.601563 11.683594-22.984375 7.371094-8.378906-4.308594-11.683594-14.597656-7.375-22.980469 4.3125-8.382812 26.191406-21.078125 29.226562-19.515625s5.441406 26.742188 1.132813 35.125zm0 0" fill="#55a6ff"/><path d="m46.960938 299.132812c-1.230469 9.34375-9.808594 15.921876-19.152344 14.6875-9.347656-1.230468-15.917969-9.804687-14.6875-19.152343 1.234375-9.34375 17.554687-28.671875 20.9375-28.222657 3.382812.445313 14.136718 23.34375 12.902344 32.6875zm0 0" fill="#55a6ff"/><path d="m333.273438 184.996094c7.472656 10.421875 5.082031 24.925781-5.339844 32.394531-10.417969 7.472656-24.921875 5.082031-32.390625-5.339844-7.472657-10.417969-9.253907-44.78125-5.480469-47.484375 3.773438-2.707031 35.742188 10.011719 43.210938 20.429688zm0 0" fill="#55a6ff"/><path d="m143.574219 245.761719h109.226562v-13.65625h-109.226562" fill="#fff"/></svg>