<svg height="416pt" viewBox="-10 0 416 416.42667" width="416pt" xmlns="http://www.w3.org/2000/svg"><path d="m274.015625 379.832031c-23.339844 10.328125-48.949219 16.113281-75.824219 16.113281-26.878906 0-52.488281-5.785156-75.828125-16.109374-28.648437 3.746093-47.054687 9.570312-47.054687 16.109374 0 11.308594 55.019531 20.480469 122.882812 20.480469 67.859375 0 122.875-9.171875 122.875-20.480469 0-6.539062-18.40625-12.363281-47.050781-16.113281" fill="#eeeef0"/><path d="m389.332031 190.894531c0-105.566406-85.574219-184.066406-191.140625-184.066406-105.570312 0-191.152344 78.5-191.152344 184.066406 0 105.566407 85.582032 198.226563 191.152344 198.226563 105.566406 0 191.140625-92.660156 191.140625-198.226563" fill="#fff35f"/><path d="m389.332031 190.894531h6.828125c.019532-54.644531-22.222656-102.550781-58.113281-136.570312-35.882813-34.050781-85.378906-54.324219-139.855469-54.324219-54.484375 0-103.980468 20.273438-139.867187 54.324219-35.886719 34.019531-58.125 81.925781-58.109375 136.570312.003906 54.644531 22.121094 105.828125 57.867187 143.402344 35.730469 37.578125 85.289063 61.648437 140.109375 61.648437 54.8125 0 104.371094-24.070312 140.105469-61.644531 35.742187-37.578125 57.859375-88.761719 57.863281-143.40625h-13.652344c.011719 50.921875-20.664062 98.855469-54.101562 134-33.449219 35.144531-79.464844 57.402344-130.214844 57.40625-50.753906-.003906-96.765625-22.261719-130.214844-57.40625-33.4375-35.144531-54.113281-83.078125-54.105468-134 .019531-50.914062 20.566406-95.046875 53.859375-126.664062 33.300781-31.597657 79.367187-50.570313 130.460937-50.578125 51.082032.007812 97.160156 18.976562 130.457032 50.574218 33.296874 31.617188 53.84375 75.753907 53.859374 126.667969z" fill="#54596e"/><path d="m380.914062 167.382812c-11.722656 91.421876-89.03125 167.125-182.722656 167.125-93.695312 0-171.007812-75.703124-182.730468-167.125-1.011719 7.714844-1.585938 15.597657-1.59375 23.667969.035156 50.863281 20.703124 98.734375 54.109374 133.84375 33.449219 35.140625 79.457032 57.398438 130.214844 57.40625 50.746094-.007812 96.761719-22.265625 130.214844-57.40625 33.402344-35.109375 54.070312-82.976562 54.097656-133.839843-.003906-8.074219-.582031-15.957032-1.589844-23.671876" fill="#eee361"/><g fill="#54596e"><path d="m382.503906 191.054688c-.027344 50.863281-20.699218 98.730468-54.097656 133.839843-33.453125 35.140625-79.46875 57.398438-130.214844 57.40625 101.796875 0 184.3125-89.351562 184.3125-191.152343 0-.03125 0-.0625 0-.09375m-368.636718-.003907v.097657c0 101.796874 82.523437 191.152343 184.324218 191.152343-50.757812-.007812-96.765625-22.265625-130.214844-57.40625-33.40625-35.109375-54.074218-82.980469-54.109374-133.84375"/><path d="m198.1875 286.71875c28.269531 0 54.78125-3.46875 77.707031-9.589844 22.933594-6.136718 42.292969-14.859375 56.34375-25.796875 2.972657-2.316406 3.503907-6.605469 1.183594-9.578125-2.316406-2.972656-6.605469-3.503906-9.578125-1.183594-11.976562 9.363282-29.832031 17.609376-51.46875 23.371094-21.636719 5.777344-47.039062 9.128906-74.1875 9.128906-3.769531 0-6.824219 3.054688-6.824219 6.828126 0 3.765624 3.054688 6.824218 6.824219 6.820312zm0 0"/><path d="m126.707031 211.628906h-41.351562c-16.859375 0-30.527344-13.667968-30.527344-30.527344v-22.238281c0-27.414062 22.222656-49.636719 49.636719-49.636719h41.351562c16.859375 0 30.523438 13.667969 30.523438 30.527344v22.238282c0 27.414062-22.21875 49.636718-49.632813 49.636718zm0 0"/><path d="m126.707031 211.628906v-6.828125h-41.351562c-13.085938-.023437-23.675781-10.613281-23.699219-23.699219v-22.238281c.003906-11.84375 4.777344-22.503906 12.539062-30.269531 7.765626-7.757812 18.425782-12.535156 30.269532-12.539062h41.351562c13.085938.023437 23.675782 10.613281 23.699219 23.699218v22.238282c-.003906 11.84375-4.78125 22.5-12.539063 30.269531-7.769531 7.757812-18.425781 12.535156-30.269531 12.539062v13.652344c31.1875-.003906 56.457031-25.277344 56.460938-56.460937v-22.238282c-.003907-20.632812-16.71875-37.347656-37.351563-37.351562h-41.351562c-31.1875.003906-56.457032 25.277344-56.464844 56.460937v22.238281c.003906 20.632813 16.722656 37.347657 37.355469 37.351563h41.351562zm0 0"/><path d="m268.304688 211.628906h42.714843c16.863281 0 30.527344-13.667968 30.527344-30.527344v-22.238281c0-27.414062-22.222656-49.636719-49.636719-49.636719h-42.714844c-16.859374 0-30.527343 13.667969-30.527343 30.527344v22.238282c0 27.414062 22.222656 49.636718 49.636719 49.636718zm0 0"/><path d="m268.304688 211.628906v6.824219h42.714843c20.632813-.003906 37.351563-16.71875 37.355469-37.351563v-22.238281c-.003906-31.183593-25.277344-56.457031-56.464844-56.460937h-42.714844c-20.632812.003906-37.347656 16.71875-37.355468 37.351562v22.238282c.007812 31.183593 25.28125 56.457031 56.464844 56.460937v-13.652344c-11.84375-.003906-22.503907-4.78125-30.269532-12.539062-7.757812-7.769531-12.535156-18.425781-12.539062-30.269531v-22.238282c.023437-13.085937 10.609375-23.675781 23.699218-23.699218h42.714844c11.84375.003906 22.503906 4.78125 30.273438 12.539062 7.757812 7.769531 12.535156 18.425781 12.539062 30.269531v22.238281c-.023437 13.085938-10.613281 23.675782-23.703125 23.699219h-42.714843zm0 0"/><path d="m314.242188 157.015625h68.265624c3.769532 0 6.828126-3.058594 6.828126-6.828125s-3.058594-6.824219-6.828126-6.824219h-68.265624c-3.769532 0-6.828126 3.054688-6.828126 6.824219s3.058594 6.828125 6.828126 6.828125"/><path d="m13.867188 157.015625h68.269531c3.769531 0 6.824219-3.058594 6.824219-6.828125s-3.054688-6.824219-6.824219-6.824219h-68.269531c-3.769532 0-6.824219 3.054688-6.824219 6.824219s3.054687 6.828125 6.824219 6.828125"/><path d="m164.054688 129.707031h68.265624c3.769532 0 6.828126-3.054687 6.828126-6.824219 0-3.773437-3.058594-6.828124-6.828126-6.828124h-68.265624c-3.769532 0-6.828126 3.054687-6.828126 6.828124 0 3.769532 3.058594 6.824219 6.828126 6.824219"/></g><path d="m90.960938 118.054688-27.308594 27.304687c-2.664063 2.667969-2.664063 6.988281 0 9.65625 2.667968 2.664063 6.988281 2.664063 9.65625 0l27.304687-27.308594c2.667969-2.664062 2.667969-6.988281 0-9.652343-2.664062-2.664063-6.988281-2.664063-9.652343 0" fill="#55a6ff"/><path d="m254.800781 118.054688-27.308593 27.304687c-2.664063 2.667969-2.664063 6.988281 0 9.65625 2.667968 2.664063 6.988281 2.664063 9.65625 0l27.304687-27.308594c2.667969-2.664062 2.667969-6.988281 0-9.652343-2.664063-2.664063-6.988281-2.664063-9.652344 0" fill="#55a6ff"/></svg>