<svg height="416pt" viewBox="-10 0 416 416.43179" width="416pt" xmlns="http://www.w3.org/2000/svg"><path d="m274.023438 379.832031c-23.34375 10.332031-48.957032 16.117188-75.835938 16.113281-.003906 0-.011719 0-.019531 0-26.871094 0-52.480469-5.785156-75.816407-16.113281-28.640624 3.75-47.042968 9.578125-47.042968 16.121094 0 11.304687 55.019531 20.480469 122.878906 20.480469s122.878906-9.175782 122.878906-20.480469c0-6.542969-18.398437-12.371094-47.042968-16.121094" fill="#eeeef0"/><path d="m389.335938 190.898438c0-105.566407-85.582032-184.066407-191.148438-184.066407-105.5625 0-191.148438 78.496094-191.148438 184.066407 0 105.5625 85.585938 198.222656 191.148438 198.222656 105.566406 0 191.148438-92.660156 191.148438-198.222656" fill="#fff"/><path d="m389.335938 190.898438h6.828124c.015626-54.648438-22.222656-102.554688-58.117187-136.574219-35.882813-34.046875-85.378906-54.324219-139.859375-54.324219-54.476562 0-103.976562 20.277344-139.855469 54.324219-35.894531 34.019531-58.132812 81.921875-58.117187 136.574219.007812 54.644531 22.121094 105.824218 57.863281 143.402343 35.738281 37.578125 85.292969 61.652344 140.109375 61.644531 54.816406.007813 104.375-24.066406 140.105469-61.644531 35.746093-37.582031 57.859375-88.761719 57.871093-143.402343h-13.65625c.011719 50.921874-20.667968 98.851562-54.105468 133.992187-33.445313 35.144531-79.460938 57.40625-130.214844 57.40625-50.75 0-96.765625-22.261719-130.214844-57.40625-33.433594-35.140625-54.113281-83.070313-54.101562-133.992187.015625-50.921876 20.566406-95.054688 53.855468-126.671876 33.296876-31.59375 79.378907-50.566406 130.460938-50.574218 51.085938.007812 97.164062 18.980468 130.464844 50.574218 33.289062 31.613282 53.835937 75.75 53.855468 126.671876z" fill="#54596e"/><path d="m380.917969 167.382812c-11.726563 91.417969-89.035157 167.125-182.730469 167.125-93.691406 0-171-75.703124-182.726562-167.125-1.007813 7.71875-1.585938 15.597657-1.589844 23.667969.03125 50.863281 20.703125 98.734375 54.097656 133.835938 33.453125 35.148437 79.46875 57.410156 130.21875 57.410156 50.753906 0 96.765625-22.261719 130.210938-57.410156 33.40625-35.101563 54.078124-82.96875 54.105468-133.832031 0-8.074219-.578125-15.953126-1.585937-23.671876" fill="#eeeef0"/><path d="m382.507812 191.054688c-.03125 50.863281-20.703124 98.730468-54.105468 133.832031-33.445313 35.148437-79.460938 57.410156-130.214844 57.410156 101.800781 0 184.320312-89.351563 184.320312-191.148437 0-.03125 0-.0625 0-.09375m-368.636718-.003907v.097657c0 101.796874 82.519531 191.148437 184.316406 191.148437-50.75 0-96.765625-22.261719-130.214844-57.410156-33.398437-35.101563-54.070312-82.972657-54.101562-133.835938" fill="#54596e"/><path d="m157.230469 136.535156c0 11.3125-9.171875 20.480469-20.480469 20.480469-11.3125 0-20.480469-9.167969-20.480469-20.480469s9.167969-20.480468 20.480469-20.480468c11.308594 0 20.480469 9.167968 20.480469 20.480468zm0 0" fill="#54596e"/><path d="m177.710938 211.628906c0 7.539063-6.113282 13.652344-13.65625 13.652344-7.539063 0-13.652344-6.113281-13.652344-13.652344 0-7.542968 6.113281-13.652344 13.652344-13.652344 7.542968 0 13.65625 6.109376 13.65625 13.652344zm0 0" fill="#ff927d"/><path d="m95.789062 170.667969c0 7.539062-6.113281 13.652343-13.652343 13.652343-7.542969 0-13.652344-6.113281-13.652344-13.652343 0-7.539063 6.109375-13.652344 13.652344-13.652344 7.539062 0 13.652343 6.113281 13.652343 13.652344zm0 0" fill="#aca3d3"/><path d="m321.070312 170.667969c0 7.539062-6.113281 13.652343-13.65625 13.652343-7.539062 0-13.652343-6.113281-13.652343-13.652343 0-7.539063 6.113281-13.652344 13.652343-13.652344 7.542969 0 13.65625 6.113281 13.65625 13.652344zm0 0" fill="#aca3d3"/><g fill="#ff927d"><path d="m177.710938 252.589844c0 7.539062-6.113282 13.652344-13.65625 13.652344-7.539063 0-13.652344-6.113282-13.652344-13.652344 0-7.542969 6.113281-13.65625 13.652344-13.65625 7.542968 0 13.65625 6.113281 13.65625 13.65625zm0 0"/><path d="m177.710938 293.546875c0 7.542969-6.113282 13.65625-13.65625 13.65625-7.539063 0-13.652344-6.113281-13.652344-13.65625 0-7.539063 6.113281-13.652344 13.652344-13.652344 7.542968 0 13.65625 6.113281 13.65625 13.652344zm0 0"/><path d="m239.148438 211.628906c0 7.539063-6.113282 13.652344-13.652344 13.652344-7.539063 0-13.652344-6.113281-13.652344-13.652344 0-7.542968 6.113281-13.652344 13.652344-13.652344 7.539062 0 13.652344 6.109376 13.652344 13.652344zm0 0"/><path d="m239.148438 252.589844c0 7.539062-6.113282 13.652344-13.652344 13.652344-7.539063 0-13.652344-6.113282-13.652344-13.652344 0-7.542969 6.113281-13.65625 13.652344-13.65625 7.539062 0 13.652344 6.113281 13.652344 13.65625zm0 0"/><path d="m239.148438 293.546875c0 7.542969-6.113282 13.65625-13.652344 13.65625-7.539063 0-13.652344-6.113281-13.652344-13.65625 0-7.539063 6.113281-13.652344 13.652344-13.652344 7.539062 0 13.652344 6.113281 13.652344 13.652344zm0 0"/></g><path d="m273.28125 136.535156c0 11.3125-9.167969 20.480469-20.480469 20.480469-11.308593 0-20.476562-9.167969-20.476562-20.480469s9.167969-20.480468 20.476562-20.480468c11.3125 0 20.480469 9.167968 20.480469 20.480468zm0 0" fill="#54596e"/><path d="m191.363281 102.402344-68.265625-27.308594h136.53125zm0 0" fill="#ff927d"/><path d="m133.714844 181.71875-40.019532 48.773438 25.695313 12.664062zm0 0" fill="#ff927d"/><path d="m257.535156 181.71875 40.019532 48.773438-25.695313 12.664062zm0 0" fill="#ff927d"/></svg>