<svg height="416pt" viewBox="-10 0 416 416.42837" width="416pt" xmlns="http://www.w3.org/2000/svg"><path d="m122.355469 379.832031c-28.648438 3.75-47.050781 9.574219-47.050781 16.117188 0 11.3125 55.015624 20.480469 122.882812 20.480469s122.878906-9.167969 122.878906-20.480469c0-6.542969-18.398437-12.367188-47.046875-16.117188-23.339843 10.328125-48.953125 16.117188-75.832031 16.117188-26.875 0-52.492188-5.792969-75.832031-16.117188" fill="#eeeef0"/><path d="m389.335938 190.894531c0-105.566406-85.585938-184.070312-191.148438-184.070312-105.566406 0-191.144531 78.503906-191.144531 184.070312 0 105.570313 85.578125 198.226563 191.144531 198.226563 105.5625 0 191.148438-92.65625 191.148438-198.226563" fill="#fff35f"/><path d="m389.335938 190.894531h6.820312c.019531-54.652343-22.21875-102.546875-58.105469-136.574219-35.886719-34.046874-85.382812-54.32421825-139.863281-54.320312-54.480469-.00390625-103.980469 20.273438-139.859375 54.320312-35.894531 34.027344-58.132813 81.921876-58.113281 136.574219.007812 54.640625 22.121094 105.828125 57.867187 143.402344 35.730469 37.578125 85.289063 61.652344 140.105469 61.652344s104.375-24.074219 140.105469-61.652344c35.742187-37.574219 57.855469-88.761719 57.863281-143.402344h-13.648438c.007813 50.925781-20.667968 98.851563-54.105468 133.996094-33.449219 35.144531-79.46875 57.402344-130.214844 57.402344-50.75 0-96.761719-22.257813-130.210938-57.402344-33.4375-35.144531-54.121093-83.074219-54.105468-133.996094s20.566406-95.054687 53.855468-126.671875c33.296876-31.589844 79.378907-50.5625 130.460938-50.570312 51.085938.007812 97.160156 18.980468 130.460938 50.570312 33.292968 31.617188 53.84375 75.75 53.863281 126.671875z" fill="#54596e"/><path d="m380.914062 167.382812c-11.71875 91.417969-89.03125 167.121094-182.726562 167.121094-93.691406 0-171.003906-75.703125-182.722656-167.121094-1.015625 7.71875-1.59375 15.601563-1.597656 23.671876.03125 50.863281 20.703124 98.726562 54.105468 133.835937 33.058594 34.734375 78.382813 56.878906 128.429688 57.394531.101562 0 .203125 0 .304687.003906h.289063c.085937 0 .171875.003907.257812.003907h.933594.957031c.078125-.003907.152344-.003907.234375-.003907.125 0 .25 0 .375-.003906h.21875c50.039063-.515625 95.371094-22.660156 128.429688-57.394531 33.402344-35.113281 54.070312-82.976563 54.105468-133.84375-.003906-8.066406-.585937-15.945313-1.59375-23.664063" fill="#eee361"/><path d="m197.253906 382.292969h.933594c-.308594 0-.621094 0-.933594 0m1.890625 0c-.320312 0-.636719 0-.957031 0zm-2.4375-.003907h.289063c-.09375 0-.191406 0-.289063 0m3.050781-.003906c-.128906.003906-.25.003906-.378906.003906.125 0 .253906 0 .378906-.003906m-185.886718-191.230468v.09375c0 101.195312 81.558594 190.097656 182.535156 191.136718-50.046875-.515625-95.371094-22.660156-128.429688-57.394531-33.402343-35.109375-54.078124-82.972656-54.105468-133.835937m368.636718-.007813c-.03125 50.867187-20.699218 98.730469-54.105468 133.84375-33.058594 34.734375-78.386719 56.878906-128.429688 57.394531 100.976563-1.039062 182.539063-89.941406 182.539063-191.136718-.003907-.035157-.003907-.066407-.003907-.101563" fill="#54596e"/><path d="m334.722656 177.492188c0 18.851562-15.285156 34.132812-34.136718 34.132812-18.851563 0-34.132813-15.28125-34.132813-34.132812 0-18.851563 15.28125-34.132813 34.132813-34.132813 18.851562 0 34.136718 15.28125 34.136718 34.132813zm0 0" fill="#54596e"/><path d="m297.175781 187.734375c0 5.65625-4.585937 10.238281-10.242187 10.238281s-10.238282-4.582031-10.238282-10.238281 4.582032-10.242187 10.238282-10.242187 10.242187 4.585937 10.242187 10.242187zm0 0" fill="#fff"/><path d="m334.722656 160.425781c0 9.425781-7.644531 17.066407-17.070312 17.066407-9.421875 0-17.066406-7.640626-17.066406-17.066407s7.644531-17.066406 17.066406-17.066406c9.425781 0 17.070312 7.640625 17.070312 17.066406zm0 0" fill="#fff"/><path d="m129.921875 177.492188c0 18.851562-15.28125 34.132812-34.132813 34.132812-18.851562 0-34.136718-15.28125-34.136718-34.132812 0-18.851563 15.285156-34.132813 34.136718-34.132813 18.851563 0 34.132813 15.28125 34.132813 34.132813zm0 0" fill="#54596e"/><path d="m92.375 187.734375c0 5.65625-4.585938 10.238281-10.242188 10.238281-5.652343 0-10.238281-4.582031-10.238281-10.238281s4.585938-10.242187 10.238281-10.242187c5.65625 0 10.242188 4.585937 10.242188 10.242187zm0 0" fill="#fff"/><path d="m129.921875 160.425781c0 9.425781-7.640625 17.066407-17.066406 17.066407s-17.066407-7.640626-17.066407-17.066407 7.640626-17.066406 17.066407-17.066406 17.066406 7.640625 17.066406 17.066406zm0 0" fill="#fff"/><g fill="#55a6ff"><path d="m316.191406 240.394531c0 6.734375-5.457031 12.191407-12.191406 12.191407s-12.195312-5.457032-12.195312-12.191407c0-6.730469 9.753906-21.941406 12.195312-21.941406s12.191406 15.210937 12.191406 21.941406zm0 0"/><path d="m111.394531 240.394531c0 6.734375-5.460937 12.191407-12.195312 12.191407s-12.195313-5.457032-12.195313-12.191407c0-6.730469 9.753906-21.941406 12.195313-21.941406 2.441406 0 12.195312 15.210937 12.195312 21.941406zm0 0"/><path d="m111.394531 288.183594c0 6.730468-5.460937 12.191406-12.195312 12.191406s-12.195313-5.460938-12.195313-12.191406c0-6.734375 9.753906-21.945313 12.195313-21.945313 2.441406 0 12.195312 15.210938 12.195312 21.945313zm0 0"/></g><path d="m158.347656 203.820312c6.988282 15.25 22.410156 25.828126 40.285156 25.832032 17.484376-.003906 32.625-10.136719 39.820313-24.851563 1.65625-3.386719.253906-7.476562-3.132813-9.132812-3.386718-1.660157-7.476562-.253907-9.132812 3.132812-4.996094 10.1875-15.449219 17.207031-27.554688 17.199219-12.378906.007812-23.027343-7.324219-27.875-17.875-1.574218-3.425781-5.628906-4.929688-9.054687-3.355469s-4.925781 5.628907-3.355469 9.050781zm0 0" fill="#54596e"/></svg>