<svg height="416pt" viewBox="-10 0 416 416.42667" width="416pt" xmlns="http://www.w3.org/2000/svg"><path d="m274.015625 379.832031c-23.339844 10.328125-48.953125 16.113281-75.828125 16.113281s-52.488281-5.785156-75.828125-16.113281c-28.648437 3.75-47.050781 9.574219-47.050781 16.113281 0 11.3125 55.015625 20.480469 122.878906 20.480469 67.859375 0 122.882812-9.167969 122.882812-20.480469 0-6.539062-18.40625-12.363281-47.054687-16.113281" fill="#eeeef0"/><path d="m389.332031 190.894531c0-105.566406-85.574219-184.0625-191.144531-184.0625-105.566406 0-191.148438 78.496094-191.148438 184.0625 0 105.570313 85.582032 198.230469 191.148438 198.230469 105.570312 0 191.144531-92.660156 191.144531-198.230469" fill="#fff35f"/><g fill="#54596e"><path d="m389.332031 190.894531h6.828125c.015625-54.648437-22.226562-102.550781-58.117187-136.574219-35.878907-34.050781-85.378907-54.3281245-139.855469-54.320312-54.484375-.0078125-103.980469 20.273438-139.863281 54.320312-35.890625 34.023438-58.128907 81.925782-58.109375 136.574219.003906 54.648438 22.121094 105.828125 57.863281 143.40625 35.730469 37.574219 85.296875 61.644531 140.109375 61.644531 54.816406 0 104.371094-24.070312 140.105469-61.644531 35.746093-37.578125 57.855469-88.757812 57.871093-143.40625h-13.65625c.007813 50.921875-20.667968 98.855469-54.105468 133.996094-33.453125 35.144531-79.46875 57.402344-130.214844 57.402344-50.753906 0-96.765625-22.257813-130.21875-57.402344-33.433594-35.140625-54.113281-83.074219-54.101562-133.996094.011718-50.921875 20.566406-95.058593 53.855468-126.667969 33.300782-31.59375 79.375-50.574218 130.464844-50.574218 51.085938 0 97.15625 18.980468 130.460938 50.574218 33.289062 31.609376 53.839843 75.746094 53.859374 126.667969z"/><path d="m65.148438 252.113281c14.136718 10.695313 33.410156 19.234375 56.152343 25.234375 22.738281 5.984375 48.953125 9.367188 76.886719 9.371094 28.269531-.003906 54.777344-3.472656 77.707031-9.589844 22.929688-6.136718 42.292969-14.859375 56.34375-25.796875 2.972657-2.320312 3.503907-6.609375 1.183594-9.578125-2.320313-2.972656-6.609375-3.503906-9.582031-1.183594-11.972656 9.359376-29.832032 17.609376-51.464844 23.367188-21.636719 5.78125-47.042969 9.132812-74.1875 9.132812-26.824219 0-51.945312-3.273437-73.414062-8.925781-21.464844-5.636719-39.269532-13.707031-51.375-22.910156-3.003907-2.277344-7.289063-1.691406-9.566407 1.316406-2.277343 3-1.6875 7.285157 1.316407 9.5625zm0 0"/><path d="m143.574219 177.492188c-.007813-15.085938-12.222657-27.300782-27.308594-27.304688-15.082031.003906-27.300781 12.21875-27.304687 27.304688 0 3.769531 3.054687 6.828124 6.824218 6.828124 3.773438 0 6.828125-3.058593 6.828125-6.828124.015625-7.535157 6.117188-13.636719 13.652344-13.652344 7.539063.015625 13.640625 6.117187 13.65625 13.652344 0 3.769531 3.054687 6.828124 6.824219 6.828124 3.769531 0 6.828125-3.058593 6.828125-6.828124zm0 0"/></g><path d="m128.019531 218.453125h-50.8125c-27.441406 0-49.6875-22.246094-49.6875-49.6875v-45.886719h150.1875v45.886719c0 27.441406-22.246093 49.6875-49.6875 49.6875zm0 0" fill="#f99"/><path d="m128.023438 218.453125v-6.824219h-50.820313c-11.851563-.003906-22.523437-4.789062-30.304687-12.554687-7.765626-7.78125-12.550782-18.453125-12.550782-30.308594v-39.058594h136.53125v39.058594c0 11.855469-4.785156 22.527344-12.550781 30.308594-7.78125 7.765625-18.453125 12.550781-30.308594 12.554687v13.648438c31.210938 0 56.503907-25.292969 56.511719-56.511719v-45.886719c0-1.800781-.726562-3.554687-2-4.828125-1.269531-1.265625-3.03125-1.992187-4.824219-1.992187h-150.1875c-1.796875 0-3.554687.71875-4.824219 1.992187-1.273437 1.273438-2.003906 3.027344-2.003906 4.828125v45.886719c.007813 31.214844 25.304688 56.511719 56.511719 56.511719h50.820313z" fill="#54596e"/><path d="m307.414062 177.492188c-.003906-15.085938-12.222656-27.300782-27.308593-27.304688-15.082031.003906-27.300781 12.21875-27.304688 27.304688 0 3.769531 3.054688 6.828124 6.824219 6.828124 3.773438 0 6.828125-3.058593 6.828125-6.828124.015625-7.535157 6.117187-13.636719 13.652344-13.652344 7.539062.015625 13.640625 6.117187 13.65625 13.652344 0 3.769531 3.054687 6.828124 6.824219 6.828124 3.769531 0 6.828124-3.058593 6.828124-6.828124zm0 0" fill="#54596e"/><path d="m268.351562 218.453125h50.8125c27.441407 0 49.6875-22.246094 49.6875-49.6875v-45.886719h-150.1875v45.886719c.003907 27.441406 22.25 49.6875 49.6875 49.6875zm0 0" fill="#55a6ff"/><path d="m268.355469 218.453125v6.824219h50.808593c31.21875 0 56.511719-25.292969 56.511719-56.511719v-45.886719c0-1.800781-.726562-3.554687-1.996093-4.828125-1.269532-1.265625-3.027344-1.992187-4.828126-1.992187h-150.183593c-1.800781 0-3.554688.71875-4.828125 1.992187-1.269532 1.273438-1.996094 3.027344-1.996094 4.828125v45.886719c0 31.214844 25.296875 56.511719 56.511719 56.511719v-13.648438c-11.855469-.003906-22.527344-4.789062-30.304688-12.554687-7.765625-7.78125-12.550781-18.453125-12.554687-30.308594v-39.058594h136.53125v39.058594c-.003906 11.855469-4.789063 22.527344-12.554688 30.308594-7.777344 7.765625-18.449218 12.550781-30.308594 12.554687h-50.808593z" fill="#54596e"/><path d="m380.917969 167.382812c-11.726563 91.417969-89.035157 167.128907-182.730469 167.128907s-171.003906-75.710938-182.726562-167.128907c-1.011719 7.714844-1.585938 15.601563-1.59375 23.675782.03125 50.863281 20.703124 98.726562 54.101562 133.832031 33.453125 35.144531 79.464844 57.402344 130.21875 57.402344 50.746094 0 96.761719-22.257813 130.214844-57.402344 33.40625-35.105469 54.070312-82.972656 54.105468-133.839844-.003906-8.070312-.582031-15.953125-1.589843-23.667969" fill="#eee361"/><path d="m13.871094 191.058594v.089844c-.003906 101.792968 82.519531 191.144531 184.316406 191.144531-50.753906 0-96.765625-22.257813-130.21875-57.402344-33.398438-35.105469-54.070312-82.96875-54.097656-133.832031m368.636718-.007813c-.035156 50.867188-20.703124 98.734375-54.109374 133.839844-33.449219 35.144531-79.464844 57.402344-130.210938 57.402344 101.796875 0 184.320312-89.351563 184.320312-191.144531 0-.03125 0-.066407 0-.097657" fill="#54596e"/><path d="m163.085938 81.988281-47.785157 6.828125c-3.734375.53125-6.328125 3.992188-5.792969 7.722656.53125 3.734376 3.992188 6.324219 7.726563 5.792969l47.785156-6.828125c3.730469-.53125 6.328125-3.988281 5.792969-7.722656-.535156-3.730469-3.992188-6.324219-7.726562-5.792969" fill="#ddcf50"/><path d="m281.074219 88.816406-47.789063-6.828125c-3.730468-.53125-7.1875 2.0625-7.722656 5.792969-.535156 3.734375 2.058594 7.191406 5.792969 7.722656l47.785156 6.828125c3.734375.53125 7.191406-2.058593 7.722656-5.792969.535157-3.734374-2.058593-7.191406-5.789062-7.722656" fill="#ddcf50"/><path d="m239.214844 126.488281h-17.066406v3.21875h-47.789063v-3.21875h-17.066406v3.21875h-.066407v13.65625h81.921876v-11.753906h.066406zm0 0" fill="#54596e"/></svg>