<svg height="430pt" viewBox="-14 0 430 430.08" width="430pt" xmlns="http://www.w3.org/2000/svg"><path d="m280.667969 393.484375c-23.339844 10.328125-48.953125 16.113281-75.828125 16.113281s-52.488282-5.785156-75.828125-16.113281c-28.648438 3.75-47.050781 9.574219-47.050781 16.113281 0 11.308594 55.011718 20.480469 122.878906 20.480469 67.863281 0 122.878906-9.171875 122.878906-20.480469 0-6.539062-18.402344-12.363281-47.050781-16.113281" fill="#eeeef0"/><path d="m395.984375 204.550781c0-105.570312-85.582031-184.070312-191.144531-184.070312s-191.148438 78.5-191.148438 184.070312c0 105.5625 85.585938 198.222657 191.148438 198.222657s191.144531-92.660157 191.144531-198.222657" fill="#adf2a2"/><path d="m395.984375 204.550781h6.828125c.019531-54.652343-22.222656-102.550781-58.113281-136.578125-35.878907-34.046875-85.378907-54.324218-139.859375-54.316406-54.480469-.007812-103.980469 20.269531-139.859375 54.316406-35.894531 34.027344-58.132813 81.925782-58.117188 136.578125.011719 54.644531 22.125 105.824219 57.867188 143.402344 35.734375 37.578125 85.292969 61.644531 140.109375 61.644531 54.8125 0 104.375-24.066406 140.105468-61.644531 35.742188-37.578125 57.855469-88.761719 57.867188-143.402344h-13.652344c.011719 50.917969-20.667968 98.847657-54.105468 133.992188-33.449219 35.148437-79.464844 57.40625-130.214844 57.40625s-96.769532-22.261719-130.214844-57.40625c-33.441406-35.148438-54.117188-83.074219-54.105469-133.992188.019531-50.925781 20.566407-95.054687 53.855469-126.671875 33.304688-31.597656 79.375-50.566406 130.464844-50.574218 51.089844.007812 97.164062 18.976562 130.460937 50.574218 33.289063 31.613282 53.839844 75.746094 53.859375 126.671875z" fill="#54596e"/><path d="m387.566406 181.03125c-11.71875 91.425781-89.039062 167.128906-182.726562 167.128906-93.691406 0-171.007813-75.703125-182.730469-167.128906-1.007813 7.71875-1.585937 15.609375-1.589844 23.671875.03125 50.863281 20.699219 98.730469 54.105469 133.839844 33.054688 34.734375 78.386719 56.882812 128.429688 57.394531.050781.003906.097656.003906.148437.003906h.445313c.074218.003906.144531.003906.21875.003906.324218 0 .644531.003907.972656.003907.324218 0 .644531-.003907.96875-.003907.074218 0 .144531 0 .222656-.003906h.457031c.046875 0 .085938 0 .132813-.003906 50.046875-.511719 95.378906-22.660156 128.429687-57.394531 33.410157-35.109375 54.078125-82.976563 54.105469-133.839844-.003906-8.066406-.578125-15.949219-1.589844-23.671875" fill="#a4e29d"/><g fill="#54596e"><path d="m203.867188 395.945312c.324218 0 .648437.003907.972656.003907-.324219 0-.648438-.003907-.972656-.003907m1.941406 0c-.324219 0-.644532.003907-.96875.003907.324218 0 .648437-.003907.96875-.003907m-2.605469-.003906h.445313c-.148438 0-.296876 0-.445313 0m3.285156 0c-.15625 0-.304687 0-.457031 0zm-185.964843-191.238281v.09375c0 101.203125 81.554687 190.105469 182.535156 191.140625-50.046875-.511719-95.378906-22.660156-128.433594-57.394531-33.40625-35.109375-54.074219-82.976563-54.101562-133.839844m368.636718 0c-.03125 50.863281-20.699218 98.730469-54.105468 133.839844-33.054688 34.734375-78.386719 56.882812-128.429688 57.394531 100.976562-1.035156 182.535156-89.9375 182.535156-191.140625 0-.03125 0-.0625 0-.09375"/><path d="m147.496094 271.699219 21.53125-16.148438 9.652344 14.472657c1.265624 1.898437 3.398437 3.039062 5.679687 3.039062s4.414063-1.140625 5.679687-3.039062l7.972657-11.957032 7.972656 11.957032c1.265625 1.898437 3.398437 3.039062 5.679687 3.039062s4.414063-1.140625 5.679688-3.039062l7.972656-11.957032 7.976563 11.957032c2.089843 3.140624 6.328125 3.988281 9.464843 1.894531 3.136719-2.09375 3.984376-6.328125 1.894532-9.464844l-13.652344-20.484375c-1.265625-1.898438-3.398438-3.039062-5.679688-3.039062-2.285156 0-4.414062 1.140624-5.679687 3.039062l-7.972656 11.960938-7.976563-11.960938c-1.265625-1.898438-3.394531-3.039062-5.679687-3.039062-2.28125 0-4.410157 1.140624-5.679688 3.039062l-7.972656 11.960938-7.972656-11.960938c-1.042969-1.5625-2.679688-2.625-4.527344-2.941406s-3.75.140625-5.25 1.269531l-27.304687 20.476563c-3.019532 2.261718-3.628907 6.542968-1.367188 9.558593 2.261719 3.019531 6.542969 3.628907 9.558594 1.367188zm0 0"/><path d="m52.652344 42.957031-34.132813-34.132812c-2.664062-2.664063-6.988281-2.664063-9.65625 0-2.664062 2.667969-2.664062 6.988281 0 9.65625l34.136719 34.132812c2.664062 2.664063 6.988281 2.664063 9.652344 0 2.667968-2.664062 2.667968-6.988281 0-9.65625"/><path d="m75.132812 27.308594v-20.480469c0-3.773437-3.054687-6.828125-6.824218-6.828125-3.773438 0-6.828125 3.054688-6.828125 6.828125v20.480469c0 3.769531 3.054687 6.824218 6.828125 6.824218 3.765625 0 6.824218-3.054687 6.824218-6.824218"/><path d="m34.171875 61.441406h-27.304687c-3.769532 0-6.8281255 3.054688-6.8281255 6.824219s3.0585935 6.828125 6.8281255 6.828125h27.304687c3.773437 0 6.828125-3.058594 6.828125-6.828125s-3.058594-6.824219-6.828125-6.824219"/><path d="m170.992188 164.03125c-5.917969-14.019531-19.808594-23.847656-35.984376-23.855469-15.441406.007813-28.808593 8.972657-35.136718 21.980469-1.652344 3.390625-.242188 7.476562 3.144531 9.128906 3.390625 1.652344 7.476563.242188 9.128906-3.148437 4.136719-8.476563 12.808594-14.3125 22.863281-14.308594 10.527344-.007813 19.546876 6.402344 23.410157 15.519531 1.46875 3.472656 5.472656 5.097656 8.945312 3.628906 3.472657-1.46875 5.097657-5.472656 3.628907-8.945312zm0 0"/></g><path d="m119.507812 39.144531 247.738282 268.183594c8.78125-14.660156 15.765625-30.484375 20.648437-47.09375l-218.613281-236.660156c-17.5625 3.050781-34.269531 8.328125-49.773438 15.570312zm0 0" fill="#fff"/><path d="m119.507812 39.144531-5.015624 4.632813 247.738281 268.183594c1.457031 1.574218 3.585937 2.378906 5.71875 2.15625 2.132812-.21875 4.054687-1.445313 5.15625-3.28125 9.070312-15.152344 16.292969-31.5 21.339843-48.675782.671876-2.300781.089844-4.800781-1.535156-6.558594l-218.617187-236.664062c-1.578125-1.707031-3.890625-2.492188-6.183594-2.09375-18.148437 3.15625-35.433594 8.613281-51.492187 16.113281-1.964844.914063-3.394532 2.742188-3.808594 4.871094-.417969 2.125.210937 4.355469 1.683594 5.945313l5.015624-4.628907 2.886719 6.183594c14.957031-6.984375 31.082031-12.082031 48.050781-15.03125l-1.167968-6.722656-5.011719 4.628906 218.613281 236.664063 5.011719-4.632813-6.550781-1.925781c-4.710938 16.042968-11.464844 31.335937-19.953125 45.511718l5.859375 3.507813 5.011718-4.632813-247.738281-268.183593-5.011719 4.632812 2.886719 6.183594zm0 0" fill="#54596e"/><path d="m204.839844 20.480469c-11.699219 0-23.132813 1.015625-34.253906 2.875l217.660156 235.621093c5.007812-17.449218 7.742187-35.726562 7.742187-54.429687 0-2.292969-.09375-4.558594-.175781-6.824219l-161.851562-175.214844c-9.496094-1.339843-19.222657-2.027343-29.121094-2.027343zm0 0" fill="#d8d8d8"/><path d="m204.839844 20.480469v-6.828125c-12.09375 0-23.910156 1.050781-35.378906 2.96875-2.472657.410156-4.523438 2.152344-5.332032 4.519531-.8125 2.371094-.253906 5.003906 1.441406 6.84375l217.660157 235.621094c1.667969 1.808593 4.199219 2.578125 6.59375 2.011719 2.394531-.570313 4.304687-2.394532 4.984375-4.761719 5.171875-18.027344 8.003906-36.941407 8.003906-56.308594 0-2.480469-.101562-4.824219-.179688-7.070313-.058593-1.632812-.695312-3.191406-1.804687-4.390624l-161.855469-175.207032c-1.070312-1.160156-2.496094-1.90625-4.058594-2.128906-9.8125-1.386719-19.859374-2.097656-30.074218-2.097656v13.652344c9.582031.003906 18.992187.667968 28.164062 1.964843l.957032-6.761719-5.015626 4.632813 161.851563 175.210937 5.015625-4.632812-6.824219.242188c.082031 2.292968.171875 4.476562.171875 6.585937 0 18.03125-2.636718 35.675781-7.476562 52.542969l6.5625 1.886718 5.011718-4.636718-217.65625-235.617188-5.015624 4.632813 1.125 6.730469c10.769531-1.796876 21.824218-2.777344 33.128906-2.78125zm0 0" fill="#54596e"/></svg>