<svg height="416pt" viewBox="-10 0 416 416.42667" width="416pt" xmlns="http://www.w3.org/2000/svg"><path d="m274.011719 379.835938c-23.339844 10.328124-48.953125 16.113281-75.828125 16.113281s-52.488282-5.789063-75.828125-16.113281c-28.648438 3.746093-47.050781 9.570312-47.050781 16.113281 0 11.3125 55.015624 20.476562 122.878906 20.476562 67.863281 0 122.886718-9.164062 122.886718-20.476562-.003906-6.542969-18.410156-12.367188-47.058593-16.113281" fill="#eeeef0"/><path d="m389.328125 190.894531c0-105.566406-85.578125-184.066406-191.148437-184.066406-105.566407 0-191.144532 78.5-191.144532 184.066406 0 105.566407 85.578125 198.226563 191.144532 198.226563 105.570312 0 191.148437-92.660156 191.148437-198.226563" fill="#fff35f"/><path d="m389.328125 190.894531h6.828125c.015625-54.644531-22.21875-102.546875-58.113281-136.574219-35.878907-34.050781-85.378907-54.32421825-139.863281-54.320312-54.476563-.00390625-103.972657 20.269531-139.855469 54.320312-35.886719 34.027344-58.132813 81.929688-58.109375 136.570313.003906 54.648437 22.117187 105.828125 57.863281 143.410156 35.730469 37.574219 85.289063 61.644531 140.105469 61.644531 54.820312 0 104.375-24.070312 140.105468-61.644531 35.746094-37.582031 57.863282-88.765625 57.867188-143.410156h-13.648438c.003907 50.925781-20.671874 98.855469-54.105468 134-33.453125 35.148437-79.464844 57.402344-130.222656 57.402344-50.746094 0-96.757813-22.253907-130.210938-57.402344-33.4375-35.144531-54.117188-83.074219-54.105469-134 .015625-50.914063 20.570313-95.046875 53.855469-126.667969 33.304688-31.59375 79.378906-50.566406 130.460938-50.574218 51.09375.007812 97.167968 18.980468 130.46875 50.574218 33.289062 31.617188 53.835937 75.753906 53.855468 126.667969h6.824219" fill="#54596e"/><path d="m380.910156 167.382812c-11.722656 91.417969-89.03125 167.128907-182.730468 167.128907-93.6875 0-170.996094-75.710938-182.726563-167.128907-1.007813 7.714844-1.585937 15.597657-1.589844 23.667969.03125 50.863281 20.703125 98.730469 54.105469 133.839844 33.191406 34.871094 78.746094 57.054687 129.023438 57.398437.398437.003907.792968.003907 1.1875.003907.398437 0 .796874 0 1.191406-.003907.191406 0 .378906-.003906.566406-.003906.015625 0 .011719 0 .027344-.003906 50.046875-.511719 95.375-22.652344 128.433594-57.390625 33.40625-35.109375 54.074218-82.980469 54.105468-133.847656-.003906-8.066407-.585937-15.945313-1.59375-23.660157" fill="#eee361"/><path d="m199.941406 382.285156c-.1875 0-.378906.003906-.570312.003906.1875 0 .382812-.003906.570312-.003906m-186.078125-191.234375v.097657c0 101.398437 81.882813 190.445312 183.128907 191.140624-50.277344-.34375-95.832032-22.527343-129.023438-57.398437-33.402344-35.109375-54.074219-82.976563-54.105469-133.839844m368.644531-.007812c-.035156 50.867187-20.703124 98.738281-54.105468 133.847656-33.0625 34.738281-78.390625 56.878906-128.4375 57.390625 100.976562-1.035156 182.542968-89.929688 182.542968-191.132812 0-.035157 0-.070313 0-.105469" fill="#54596e"/><path d="m104.289062 305.769531c19.09375 21.804688 52.4375 35.511719 90.242188 35.5625 38.257812-.054687 71.957031-14.085937 90.929688-36.359375 2.433593-2.878906 2.078124-7.183594-.800782-9.621094-2.878906-2.433593-7.183594-2.078124-9.621094.804688-15.398437 18.324219-45.601562 31.582031-80.507812 31.527344-34.488281.050781-64.394531-12.886719-79.945312-30.878906-2.476563-2.84375-6.789063-3.144532-9.632813-.667969-2.84375 2.480469-3.140625 6.789062-.664063 9.632812zm0 0" fill="#54596e"/><path d="m116.261719 259.414062c0-7.539062-15.28125-13.652343-34.132813-13.652343-18.851562 0-34.132812 6.113281-34.132812 13.652343 0 7.542969 15.28125 13.65625 34.132812 13.65625 18.851563 0 34.132813-6.113281 34.132813-13.65625zm0 0" fill="#f9bbed"/><path d="m348.371094 259.414062c0-7.539062-15.28125-13.652343-34.132813-13.652343-18.851562 0-34.136719 6.113281-34.136719 13.652343 0 7.542969 15.285157 13.65625 34.136719 13.65625 18.851563 0 34.132813-6.113281 34.132813-13.65625zm0 0" fill="#f9bbed"/><g fill="#54596e"><path d="m273.277344 211.628906c0 7.539063-6.113282 13.652344-13.652344 13.652344-7.542969 0-13.65625-6.113281-13.65625-13.652344 0-7.542968 6.113281-13.652344 13.65625-13.652344 7.539062 0 13.652344 6.109376 13.652344 13.652344zm0 0"/><path d="m150.398438 211.628906c0 7.539063-6.113282 13.652344-13.65625 13.652344-7.539063 0-13.652344-6.113281-13.652344-13.652344 0-7.542968 6.113281-13.652344 13.652344-13.652344 7.542968 0 13.65625 6.109376 13.65625 13.652344zm0 0"/></g></svg>