<svg height="416pt" viewBox="-10 0 416 416.43008" width="416pt" xmlns="http://www.w3.org/2000/svg"><path d="m274.019531 379.835938c-23.335937 10.324218-48.953125 16.113281-75.828125 16.113281-26.878906 0-52.492187-5.789063-75.832031-16.113281-28.648437 3.746093-47.046875 9.574218-47.046875 16.113281 0 11.3125 55.011719 20.480469 122.878906 20.480469 67.867188 0 122.878906-9.167969 122.878906-20.480469 0-6.539063-18.402343-12.367188-47.050781-16.113281" fill="#eeeef0"/><path d="m389.335938 190.898438c0-105.570313-85.578126-184.070313-191.144532-184.070313-105.570312 0-191.148437 78.5-191.148437 184.070313 0 105.566406 85.578125 198.226562 191.148437 198.226562 105.566406 0 191.144532-92.660156 191.144532-198.226562" fill="#fff35f"/><path d="m389.335938 190.898438h6.828124c.019532-54.652344-22.226562-102.550782-58.113281-136.578126-35.878906-34.046874-85.382812-54.32421825-139.859375-54.320312-54.476562-.00390625-103.980468 20.273438-139.863281 54.320312-35.886719 34.027344-58.132813 81.921876-58.113281 136.574219.011718 54.640625 22.121094 105.828125 57.867187 143.402344 35.730469 37.578125 85.289063 61.652344 140.105469 61.652344s104.378906-24.074219 140.105469-61.652344c35.742187-37.574219 57.855469-88.761719 57.867187-143.402344h-13.648437c.003906 50.925781-20.671875 98.851563-54.109375 133.996094-33.449219 35.148437-79.460938 57.40625-130.210938 57.40625-50.753906 0-96.765625-22.257813-130.214844-57.40625-33.4375-35.144531-54.113281-83.070313-54.105468-133.992187.019531-50.921876 20.566406-95.054688 53.855468-126.671876 33.304688-31.59375 79.378907-50.566406 130.464844-50.570312 51.085938.003906 97.15625 18.976562 130.457032 50.570312 33.292968 31.613282 53.84375 75.75 53.863281 126.671876z" fill="#54596e"/><path d="m380.917969 167.382812c-11.722657 91.417969-89.035157 167.125-182.726563 167.125-93.695312 0-171.007812-75.707031-182.726562-167.125-1.015625 7.71875-1.589844 15.601563-1.597656 23.667969.035156 50.867188 20.703124 98.730469 54.109374 133.839844 33.054688 34.734375 78.378907 56.878906 128.429688 57.394531.097656.003906.203125.003906.300781.003906.09375 0 .195313.003907.289063.003907h.257812c.3125.003906.628906.003906.9375.003906s.621094 0 .929688-.003906h.261718c.089844 0 .183594-.003907.277344-.003907.105469 0 .210938 0 .316406-.003906 50.046876-.515625 95.371094-22.660156 128.429688-57.394531 33.402344-35.109375 54.070312-82.976563 54.105469-133.84375-.003907-8.066406-.582031-15.945313-1.59375-23.664063" fill="#eee361"/><path d="m199.121094 382.292969c-.308594.003906-.621094.003906-.929688.003906.308594 0 .621094 0 .929688-.003906m-1.863282 0c.308594.003906.621094.003906.933594.003906-.308594 0-.625 0-.933594-.003906m2.402344-.003907c-.09375 0-.1875.003907-.277344.003907.089844 0 .183594-.003907.277344-.003907m-2.953125 0c.101563 0 .191407.003907.292969.003907-.097656 0-.195312-.003907-.292969-.003907m-182.835937-191.238281v.097657c0 101.199218 81.558594 190.101562 182.535156 191.136718-50.046875-.515625-95.371094-22.660156-128.429688-57.394531-33.40625-35.109375-54.074218-82.972656-54.105468-133.839844m368.640625-.003906c-.035157 50.867187-20.703125 98.734375-54.109375 133.84375-33.058594 34.734375-78.378906 56.878906-128.429688 57.394531 100.980469-1.035156 182.539063-89.9375 182.539063-191.136718 0-.035157 0-.066407 0-.101563" fill="#54596e"/><path d="m218.671875 259.414062c0 11.3125-9.171875 20.480469-20.480469 20.480469-11.3125 0-20.480468-9.167969-20.480468-20.480469 0-11.308593 9.167968-20.480468 20.480468-20.480468 11.308594 0 20.480469 9.171875 20.480469 20.480468zm0 0" fill="#ff7d7d"/><path d="m293.761719 157.011719c18.855469 0 34.128906-15.277344 34.136719-34.128907 0-3.773437-3.058594-6.828124-6.828126-6.828124-3.769531 0-6.828124 3.054687-6.828124 6.828124-.019532 11.308594-9.171876 20.457032-20.480469 20.480469-3.769531 0-6.824219 3.054688-6.824219 6.824219s3.054688 6.828125 6.824219 6.824219zm0 0" fill="#54596e"/><path d="m296.582031 160.984375c7.957031-6.738281 12.078125-16.398437 12.070313-26.058594.007812-7.78125-2.667969-15.660156-8.089844-22.050781-2.4375-2.875-6.746094-3.230469-9.621094-.792969s-3.230468 6.746094-.792968 9.625c3.269531 3.859375 4.84375 8.523438 4.851562 13.21875-.007812 5.835938-2.449219 11.574219-7.242188 15.644531-2.878906 2.4375-3.234374 6.742188-.796874 9.621094s6.746093 3.230469 9.621093.792969zm0 0" fill="#54596e"/><path d="m157.230469 266.242188h81.917969c3.773437 0 6.828124-3.058594 6.828124-6.828126 0-3.769531-3.054687-6.824218-6.828124-6.824218h-81.917969c-3.769531 0-6.828125 3.054687-6.828125 6.824218 0 3.769532 3.058594 6.828126 6.828125 6.828126" fill="#ff7d7d"/><g fill="#54596e"><path d="m307.417969 160.429688c0 9.425781-7.640625 17.066406-17.066407 17.066406-9.425781 0-17.066406-7.640625-17.066406-17.066406 0-9.425782 7.640625-17.066407 17.066406-17.066407 9.425782 0 17.066407 7.640625 17.066407 17.066407zm0 0"/><path d="m102.617188 143.363281c-11.308594-.023437-20.460938-9.171875-20.480469-20.480469 0-3.773437-3.054688-6.828124-6.828125-6.828124-3.769532 0-6.824219 3.054687-6.824219 6.828124.003906 18.851563 15.277344 34.128907 34.132813 34.128907 3.769531 0 6.824218-3.054688 6.824218-6.824219s-3.054687-6.824219-6.824218-6.824219zm0 0"/><path d="m108.625 150.570312c-4.796875-4.066406-7.238281-9.808593-7.246094-15.644531.007813-4.695312 1.582032-9.359375 4.851563-13.21875 2.441406-2.875 2.085937-7.183593-.789063-9.621093-2.878906-2.4375-7.183594-2.085938-9.621094.792968-5.425781 6.390625-8.097656 14.269532-8.09375 22.046875-.007812 9.660157 4.117188 19.320313 12.074219 26.0625 2.875 2.433594 7.179688 2.082031 9.617188-.796875 2.4375-2.875 2.082031-7.183594-.792969-9.621094zm0 0"/><path d="m123.097656 160.429688c0 9.425781-7.640625 17.066406-17.066406 17.066406s-17.066406-7.640625-17.066406-17.066406c0-9.425782 7.640625-17.066407 17.066406-17.066407s17.066406 7.640625 17.066406 17.066407zm0 0"/></g></svg>