<svg height="416pt" viewBox="-10 0 416 416.42667" width="416pt" xmlns="http://www.w3.org/2000/svg"><path d="m274.015625 379.832031c-23.339844 10.328125-48.949219 16.113281-75.824219 16.113281-26.878906 0-52.488281-5.785156-75.828125-16.109374-28.648437 3.746093-47.054687 9.570312-47.054687 16.109374 0 11.308594 55.019531 20.480469 122.882812 20.480469 67.859375 0 122.875-9.171875 122.875-20.480469 0-6.539062-18.40625-12.363281-47.050781-16.113281" fill="#eeeef0"/><path d="m150.402344 389.121094c0-5.027344-22.921875-9.101563-51.199219-9.101563s-51.203125 4.074219-51.203125 9.101563 22.925781 9.101562 51.203125 9.101562 51.199219-4.074218 51.199219-9.101562zm0 0" fill="#a1b7ff"/><path d="m348.375 389.121094c0-5.027344-22.921875-9.101563-51.199219-9.101563-28.277343 0-51.199219 4.074219-51.199219 9.101563s22.921876 9.101562 51.199219 9.101562c28.277344 0 51.199219-4.074218 51.199219-9.101562zm0 0" fill="#a1b7ff"/><path d="m389.332031 190.894531c0-105.566406-85.574219-184.066406-191.140625-184.066406-105.570312 0-191.152344 78.5-191.152344 184.066406 0 105.566407 85.582032 198.226563 191.152344 198.226563 105.566406 0 191.140625-92.660156 191.140625-198.226563" fill="#fff35f"/><path d="m389.332031 190.894531h6.828125c.019532-54.644531-22.222656-102.550781-58.113281-136.570312-35.882813-34.050781-85.378906-54.324219-139.855469-54.324219-54.484375 0-103.980468 20.273438-139.867187 54.324219-35.886719 34.019531-58.125 81.925781-58.109375 136.570312.011718 54.644531 22.121094 105.828125 57.867187 143.402344 35.730469 37.578125 85.289063 61.648437 140.109375 61.648437 54.8125 0 104.371094-24.070312 140.105469-61.644531 35.742187-37.578125 57.855469-88.761719 57.863281-143.40625h-13.652344c.011719 50.921875-20.664062 98.855469-54.101562 134-33.453125 35.144531-79.46875 57.402344-130.214844 57.40625-50.757812-.003906-96.765625-22.261719-130.214844-57.40625-33.4375-35.144531-54.113281-83.078125-54.109374-134 .023437-50.914062 20.570312-95.046875 53.859374-126.664062 33.304688-31.597657 79.371094-50.570313 130.464844-50.578125 51.082032.007812 97.160156 18.976562 130.460938 50.574218 33.289062 31.617188 53.839844 75.753907 53.851562 126.667969z" fill="#54596e"/><path d="m380.914062 167.382812c-11.722656 91.421876-89.03125 167.125-182.722656 167.125-93.695312 0-171.003906-75.703124-182.730468-167.125-1.011719 7.714844-1.585938 15.597657-1.59375 23.664063.035156 50.867187 20.703124 98.738281 54.109374 133.847656 33.449219 35.140625 79.457032 57.398438 130.214844 57.40625 50.746094-.007812 96.761719-22.265625 130.214844-57.40625 33.402344-35.109375 54.070312-82.972656 54.097656-133.839843-.003906-8.070313-.582031-15.957032-1.589844-23.671876" fill="#eee361"/><g fill="#54596e"><path d="m382.503906 191.054688c-.027344 50.867187-20.699218 98.730468-54.097656 133.839843-33.453125 35.140625-79.46875 57.398438-130.214844 57.40625 101.796875 0 184.3125-89.351562 184.3125-191.152343 0-.03125 0-.0625 0-.09375m-368.636718-.007813v.101563c0 101.796874 82.523437 191.152343 184.324218 191.152343-50.757812-.007812-96.765625-22.265625-130.214844-57.40625-33.40625-35.113281-54.074218-82.980469-54.109374-133.847656"/><path d="m247.835938 216.15625c-8.621094-18.785156-27.617188-31.828125-49.648438-31.832031-21.554688.003906-40.214844 12.492187-49.078125 30.632812-1.65625 3.386719-.253906 7.472657 3.128906 9.132813 3.386719 1.65625 7.476563.257812 9.136719-3.128906 6.667969-13.613282 20.636719-22.992188 36.8125-22.984376 16.53125-.007812 30.753906 9.785157 37.242188 23.878907 1.570312 3.425781 5.625 4.929687 9.050781 3.351562 3.425781-1.570312 4.929687-5.625 3.355469-9.050781zm0 0"/><path d="m82.136719 136.535156h54.613281c1.796875 0 3.554688-.730468 4.824219-2l13.652343-13.652344c2.667969-2.667968 2.667969-6.988281 0-9.65625-2.664062-2.664062-6.988281-2.664062-9.652343.003907l-11.652344 11.648437-51.785156.003906c-3.773438 0-6.828125 3.054688-6.828125 6.824219s3.054687 6.828125 6.828125 6.828125zm0 0"/></g><path d="m129.921875 389.121094h-61.441406l13.65625-252.585938h47.785156zm0 0" fill="#a1b7ff"/><path d="m314.242188 122.882812h-51.785157l-11.65625-11.65625c-2.664062-2.664062-6.988281-2.664062-9.65625 0-2.667969 2.667969-2.664062 6.992188.003907 9.65625l13.652343 13.652344c1.269531 1.269532 3.027344 2 4.824219 2h54.613281c3.773438 0 6.828125-3.058594 6.828125-6.828125.003906-3.769531-3.054687-6.824219-6.824218-6.824219zm0 0" fill="#54596e"/><path d="m266.453125 389.121094h61.441406l-13.652343-252.585938h-47.789063zm0 0" fill="#a1b7ff"/></svg>