<svg height="416pt" viewBox="-10 0 416 416.43179" width="416pt" xmlns="http://www.w3.org/2000/svg"><path d="m274.023438 379.832031c-23.34375 10.332031-48.957032 16.117188-75.835938 16.113281-.003906 0-.011719 0-.019531 0-26.871094 0-52.480469-5.789062-75.816407-16.113281-28.644531 3.75-47.046874 9.578125-47.046874 16.121094 0 11.304687 55.015624 20.480469 122.882812 20.480469 67.863281 0 122.878906-9.175782 122.878906-20.480469 0-6.542969-18.398437-12.371094-47.042968-16.121094" fill="#eeeef0"/><path d="m389.332031 190.898438c0-105.566407-85.578125-184.066407-191.144531-184.066407-105.5625 0-191.148438 78.496094-191.148438 184.066407 0 105.5625 85.585938 198.222656 191.148438 198.222656 105.566406 0 191.144531-92.660156 191.144531-198.222656" fill="#fff"/><path d="m389.332031 190.898438h6.832031c.015626-54.648438-22.230468-102.554688-58.117187-136.574219-35.882813-34.046875-85.378906-54.324219-139.859375-54.324219-54.476562 0-103.980469 20.277344-139.855469 54.324219-35.894531 34.019531-58.132812 81.921875-58.117187 136.574219.007812 54.644531 22.121094 105.824218 57.863281 143.402343 35.730469 37.578125 85.292969 61.652344 140.109375 61.644531 54.816406.007813 104.375-24.066406 140.105469-61.644531 35.746093-37.582031 57.859375-88.761719 57.871093-143.402343h-13.65625c.011719 50.921874-20.667968 98.851562-54.105468 133.992187-33.453125 35.144531-79.46875 57.40625-130.214844 57.40625-50.75 0-96.765625-22.261719-130.214844-57.40625-33.433594-35.140625-54.113281-83.070313-54.105468-133.992187.015624-50.921876 20.566406-95.054688 53.859374-126.671876 33.296876-31.59375 79.371094-50.566406 130.460938-50.574218 51.085938.007812 97.160156 18.980468 130.464844 50.574218 33.289062 31.613282 53.835937 75.75 53.855468 126.671876z" fill="#54596e"/><path d="m380.910156 167.382812c-11.71875 91.417969-89.027344 167.125-182.722656 167.125-93.691406 0-171.007812-75.703124-182.726562-167.125-1.007813 7.714844-1.589844 15.597657-1.597657 23.664063.035157 50.867187 20.707031 98.738281 54.105469 133.839844 33.453125 35.148437 79.46875 57.410156 130.21875 57.410156 50.746094 0 96.761719-22.261719 130.210938-57.410156 33.40625-35.101563 54.078124-82.96875 54.105468-133.832031 0-8.074219-.578125-15.953126-1.59375-23.671876" fill="#eeeef0"/><g fill="#54596e"><path d="m382.507812 191.054688c-.03125 50.863281-20.703124 98.730468-54.105468 133.832031-33.453125 35.148437-79.46875 57.410156-130.214844 57.410156 101.800781 0 184.320312-89.351563 184.320312-191.148437 0-.03125 0-.0625 0-.09375m-368.640624-.007813v.101563c0 101.796874 82.527343 191.148437 184.320312 191.148437-50.75 0-96.765625-22.261719-130.214844-57.410156-33.402344-35.101563-54.074218-82.972657-54.105468-133.839844"/><path d="m65.148438 224.808594c14.136718 10.695312 33.410156 19.234375 56.152343 25.234375 22.738281 5.984375 48.953125 9.367187 76.886719 9.371093 28.269531-.003906 54.777344-3.472656 77.707031-9.589843 22.933594-6.136719 42.292969-14.859375 56.34375-25.796875 2.972657-2.320313 3.503907-6.609375 1.183594-9.582032-2.320313-2.96875-6.609375-3.5-9.578125-1.179687-11.976562 9.359375-29.832031 17.609375-51.46875 23.367187-21.636719 5.78125-47.042969 9.132813-74.1875 9.128907-26.824219.003906-51.945312-3.269531-73.414062-8.921875-21.464844-5.636719-39.265626-13.707032-51.375-22.910156-3.003907-2.277344-7.289063-1.691407-9.566407 1.316406-2.277343 3-1.6875 7.285156 1.316407 9.5625zm0 0"/><path d="m157.226562 136.535156h6.828126c-.003907-15.085937-12.222657-27.304687-27.308594-27.308594-15.082032.003907-27.300782 12.222657-27.304688 27.308594.003906 15.082032 12.222656 27.300782 27.304688 27.304688 15.085937-.003906 27.304687-12.222656 27.308594-27.304688h-13.652344c-.015625 7.535156-6.117188 13.636719-13.65625 13.652344-7.535156-.015625-13.636719-6.117188-13.652344-13.652344.015625-7.535156 6.117188-13.640625 13.652344-13.65625 7.539062.015625 13.640625 6.121094 13.65625 13.65625zm0 0"/><path d="m273.28125 136.535156h6.828125c-.007813-15.085937-12.226563-27.304687-27.308594-27.308594-15.082031.003907-27.300781 12.222657-27.304687 27.308594.003906 15.082032 12.222656 27.300782 27.304687 27.304688 15.082031-.003906 27.300781-12.222656 27.308594-27.304688h-13.65625c-.011719 7.535156-6.117187 13.636719-13.652344 13.652344-7.535156-.015625-13.640625-6.117188-13.652343-13.652344.011718-7.535156 6.117187-13.640625 13.652343-13.65625 7.535157.015625 13.640625 6.121094 13.652344 13.65625zm0 0"/><path d="m341.546875 211.628906c0 7.539063-6.113281 13.652344-13.652344 13.652344-7.539062 0-13.652343-6.113281-13.652343-13.652344 0-7.542968 6.113281-13.652344 13.652343-13.652344 7.539063 0 13.652344 6.109376 13.652344 13.652344zm0 0"/><path d="m82.132812 211.628906c0 7.539063-6.113281 13.652344-13.652343 13.652344-7.539063 0-13.652344-6.113281-13.652344-13.652344 0-7.542968 6.113281-13.652344 13.652344-13.652344 7.539062 0 13.652343 6.109376 13.652343 13.652344zm0 0"/><path d="m191.359375 232.109375v34.132813c0 3.769531 3.058594 6.828124 6.828125 6.828124s6.828125-3.058593 6.828125-6.828124v-34.132813c0-3.773437-3.058594-6.828125-6.828125-6.828125s-6.828125 3.054688-6.828125 6.828125"/><path d="m130.640625 229.054688-13.652344 27.308593c-1.6875 3.371094-.320312 7.46875 3.050781 9.15625 3.375 1.6875 7.476563.320313 9.160157-3.054687l13.65625-27.304688c1.683593-3.371094.316406-7.472656-3.054688-9.160156-3.371093-1.683594-7.472656-.320312-9.160156 3.054688"/><path d="m253.519531 235.160156 13.65625 27.304688c1.683594 3.375 5.785157 4.742187 9.160157 3.054687 3.371093-1.6875 4.738281-5.785156 3.050781-9.15625l-13.652344-27.308593c-1.6875-3.375-5.789063-4.738282-9.160156-3.054688-3.371094 1.6875-4.738281 5.789062-3.054688 9.160156"/></g></svg>