<svg height="416pt" viewBox="-10 0 416 416.42667" width="416pt" xmlns="http://www.w3.org/2000/svg"><path d="m122.347656 379.832031c-28.644531 3.75-47.042968 9.574219-47.042968 16.117188 0 11.308593 55.015624 20.476562 122.875 20.476562 67.863281 0 122.886718-9.167969 122.886718-20.476562 0-6.542969-18.398437-12.367188-47.042968-16.117188-23.339844 10.328125-48.960938 16.117188-75.84375 16.117188-26.875 0-52.492188-5.789063-75.832032-16.117188" fill="#eeeef0"/><path d="m389.332031 190.898438c0-105.570313-85.578125-184.066407-191.152343-184.066407-105.5625 0-191.140626 78.496094-191.140626 184.066407 0 105.566406 85.578126 198.226562 191.140626 198.226562 105.574218 0 191.152343-92.664062 191.152343-198.226562" fill="#f99"/><path d="m389.332031 190.898438h6.824219c.019531-54.652344-22.226562-102.554688-58.117188-136.578126-35.875-34.046874-85.375-54.320312-139.859374-54.320312-54.480469 0-103.972657 20.273438-139.859376 54.320312-35.890624 34.027344-58.128906 81.925782-58.105468 136.578126.003906 54.644531 22.121094 105.820312 57.863281 143.402343 35.730469 37.578125 85.289063 61.648438 140.101563 61.648438 54.824218 0 104.378906-24.070313 140.109374-61.648438 35.746094-37.582031 57.859376-88.761719 57.867188-143.402343h-13.652344c.007813 50.917968-20.671875 98.847656-54.105468 133.992187-33.449219 35.148437-79.46875 57.402344-130.21875 57.410156-50.746094-.007812-96.757813-22.261719-130.207032-57.410156-33.441406-35.144531-54.121094-83.074219-54.109375-133.992187.015625-50.921876 20.570313-95.054688 53.859375-126.671876 33.304688-31.589843 79.375-50.570312 130.457032-50.578124 51.089843.007812 97.164062 18.988281 130.46875 50.578124 33.289062 31.617188 53.835937 75.75 53.855468 126.671876z" fill="#54596e"/><path d="m380.910156 167.382812c-11.722656 91.417969-89.035156 167.128907-182.730468 167.128907-93.691407 0-170.996094-75.707031-182.726563-167.128907-1.007813 7.71875-1.582031 15.605469-1.589844 23.675782.03125 50.855468 20.699219 98.726562 54.109375 133.832031 33.449219 35.148437 79.460938 57.402344 130.207032 57.410156 50.75-.007812 96.769531-22.261719 130.21875-57.410156 33.402343-35.105469 54.074218-82.980469 54.105468-133.839844-.003906-8.070312-.585937-15.949219-1.59375-23.667969" fill="#ee9295"/><g fill="#54596e"><path d="m13.863281 191.058594v.089844c0 101.796874 82.519531 191.152343 184.316407 191.152343-50.746094-.007812-96.757813-22.261719-130.207032-57.410156-33.410156-35.105469-54.078125-82.976563-54.109375-133.832031m368.640625-.007813c-.03125 50.859375-20.703125 98.734375-54.105468 133.839844-33.449219 35.148437-79.46875 57.402344-130.21875 57.410156 101.800781 0 184.324218-89.351562 184.324218-191.152343 0-.03125 0-.066407 0-.097657"/><path d="m247.832031 216.15625c-8.625-18.785156-27.617187-31.828125-49.648437-31.832031-21.554688.003906-40.214844 12.492187-49.078125 30.632812-1.65625 3.386719-.257813 7.472657 3.128906 9.132813 3.386719 1.65625 7.476563.257812 9.132813-3.128906 6.671874-13.613282 20.636718-22.992188 36.816406-22.984376 16.53125-.007812 30.753906 9.785157 37.238281 23.878907 1.574219 3.425781 5.628906 4.929687 9.054687 3.351562 3.425782-1.570312 4.925782-5.625 3.355469-9.050781zm0 0"/><path d="m260.769531 105.441406-13.652343 20.480469c-1.402344 2.101563-1.53125 4.78125-.339844 7.007813 1.191406 2.226562 3.496094 3.605468 6.019531 3.605468h34.136719c3.769531 0 6.824218-3.058594 6.824218-6.828125s-3.054687-6.824219-6.824218-6.824219h-21.378906l6.578124-9.867187c2.089844-3.140625 1.242188-7.375-1.894531-9.46875-3.136719-2.089844-7.378906-1.242187-9.46875 1.894531zm0 0"/><path d="m124.238281 113.015625 6.574219 9.863281-21.375.003906c-3.769531 0-6.828125 3.054688-6.828125 6.824219s3.058594 6.828125 6.828125 6.828125h34.132812c2.527344 0 4.824219-1.378906 6.019532-3.605468 1.191406-2.226563 1.0625-4.90625-.339844-7.007813l-13.652344-20.480469c-2.09375-3.140625-6.332031-3.984375-9.46875-1.894531-3.136718 2.09375-3.984375 6.332031-1.890625 9.46875zm0 0"/></g><path d="m211.835938 238.933594c0 7.542968-6.113282 13.65625-13.652344 13.65625-7.539063 0-13.652344-6.113282-13.652344-13.65625 0-7.539063 6.113281-13.652344 13.652344-13.652344 7.539062 0 13.652344 6.113281 13.652344 13.652344zm0 0" fill="#ff7d7d"/></svg>