<svg height="436pt" viewBox="0 0 436.66094 436" width="436pt" xmlns="http://www.w3.org/2000/svg"><path d="m294.03125 400.089844c-23.335938 10.328125-48.957031 16.117187-75.824219 16.117187-26.867187 0-52.484375-5.789062-75.820312-16.117187-28.648438 3.75-47.058594 9.574218-47.058594 16.117187 0 11.308594 55.015625 20.476563 122.878906 20.476563 67.871094 0 122.886719-9.167969 122.886719-20.476563 0-6.542969-18.410156-12.367187-47.0625-16.117187" fill="#eeeef0"/><path d="m399.8125 7.160156-135.894531 65.910156 22.566406 7.742188c14.765625 5.0625 28.027344 13.734375 38.585937 25.226562l21.722657 77.046876zm0 0" fill="#fff"/><path d="m399.8125 7.160156-2.980469-6.140625-135.894531 65.90625c-2.484375 1.203125-4.003906 3.800781-3.835938 6.554688.167969 2.757812 1.988282 5.148437 4.601563 6.046875l22.566406 7.738281c13.691407 4.695313 25.984375 12.734375 35.773438 23.390625l5.027343-4.617188-6.570312 1.851563 21.722656 77.046875c.820313 2.914062 3.480469 4.945312 6.507813 4.972656 3.03125.027344 5.722656-1.957031 6.597656-4.859375l53.019531-175.921875c.78125-2.601562-.039062-5.398437-2.109375-7.164062-2.066406-1.761719-4.960937-2.132813-7.40625-.945313l2.980469 6.140625-6.539062-1.96875-46.265626 153.507813-15.367187-54.511719c-.292969-1.042969-.8125-1.976562-1.542969-2.769531-11.328125-12.328125-25.558594-21.632813-41.402344-27.0625l-6.902343-2.371094 120.996093-58.679687-2.976562-6.144532-6.539062-1.96875zm0 0" fill="#54596e"/><path d="m31.8125 7.160156 135.890625 65.910156-22.574219 7.742188c-14.757812 5.0625-28.023437 13.734375-38.578125 25.226562l-21.722656 77.046876zm0 0" fill="#fff"/><path d="m31.8125 7.160156-2.980469 6.144532 120.992188 58.679687-6.910157 2.371094c-15.835937 5.429687-30.070312 14.734375-41.394531 27.066406-.730469.792969-1.246093 1.722656-1.542969 2.765625l-15.367187 54.511719-46.261719-153.507813-6.535156 1.96875-2.980469 6.144532 2.980469-6.144532-6.539062 1.96875 53.019531 175.921875c.875 2.902344 3.566406 4.886719 6.597656 4.859375s5.6875-2.058594 6.507813-4.972656l21.722656-77.046875-6.570313-1.851563 5.027344 4.613282c9.78125-10.652344 22.078125-18.691406 35.765625-23.386719l22.574219-7.738281c2.609375-.898438 4.433593-3.289063 4.597656-6.046875.167969-2.753907-1.351563-5.351563-3.832031-6.554688l-135.894532-65.90625c-2.449218-1.1875-5.339843-.816406-7.40625.945313-2.070312 1.765625-2.894531 4.5625-2.109374 7.167968zm0 0" fill="#54596e"/><path d="m409.136719 202.398438c-4.585938-101.117188-88.300781-175.3125-190.929688-175.3125-102.367187 0-185.921875 73.8125-190.902343 174.539062-16.183594 2.324219-25.574219 19.898438-17.5625 34.664062 8.070312 14.875 17.832031 28.707032 28.910156 41.421876 26.792968 75.097656 97.070312 131.667968 179.554687 131.667968 81.988281 0 151.894531-55.898437 179.042969-130.3125 11.355469-12.824218 21.367188-26.816406 29.628906-41.875 8.128906-14.824218-1.371094-32.59375-17.742187-34.792968" fill="#f99"/><g fill="#54596e"><path d="m409.136719 202.398438 6.816406-.3125c-2.359375-52.375-25.3125-97.988282-60.921875-130.316407-35.609375-32.351562-83.859375-51.515625-136.824219-51.507812-52.824219-.007813-100.96875 19.058593-136.554687 51.253906-35.585938 32.183594-58.605469 77.585937-61.164063 129.769531l6.816407.335938-.96875-6.753906c-7.757813 1.101562-14.402344 5.011718-19.019532 10.433593-4.621094 5.417969-7.3085935 12.371094-7.316406 19.703125 0 4.855469 1.203125 9.871094 3.738281 14.539063 8.324219 15.339843 18.375 29.585937 29.761719 42.648437l5.152344-4.480468-6.4375 2.289062c13.859375 38.820312 38.910156 72.804688 71.21875 97.160156 32.304687 24.34375 71.953125 39.046875 114.769531 39.046875 42.566406 0 81.988281-14.53125 114.179687-38.613281 32.195313-24.09375 57.242188-57.730469 71.28125-96.191406l-6.414062-2.335938 5.109375 4.519532c11.664063-13.175782 21.976563-27.570313 30.503906-43.109376 2.582031-4.699218 3.804688-9.753906 3.796875-14.65625 0-7.375-2.714844-14.367187-7.394531-19.804687-4.664063-5.441406-11.386719-9.339844-19.21875-10.382813l-.910156 6.765626 6.816406-.3125-6.816406.3125-.90625 6.761718c4.449219.605469 8.074219 2.738282 10.691406 5.753906 2.597656 3.027344 4.09375 6.921876 4.09375 10.90625-.007813 2.664063-.644531 5.378907-2.125 8.089844-7.996094 14.582032-17.710937 28.15625-28.75 40.636719-.570313.636719-1.007813 1.367187-1.304687 2.183594-13.109376 35.945312-36.59375 67.472656-66.632813 89.933593-30.046875 22.460938-66.566406 35.882813-105.996094 35.886719-39.667969-.003906-76.398437-13.585937-106.558593-36.296875-30.144532-22.714844-53.628907-54.554687-66.570313-90.839844-.289063-.8125-.71875-1.539062-1.285156-2.191406-10.769531-12.363281-20.234375-25.789062-28.046875-40.191406-1.460938-2.695312-2.085938-5.390625-2.089844-8.027344 0-3.957031 1.472656-7.824218 4.046875-10.84375 2.582031-3.011718 6.171875-5.140625 10.570313-5.78125 3.246093-.460937 5.6875-3.148437 5.847656-6.421875 2.414062-48.546875 23.671875-90.414062 56.695312-120.316406 33.03125-29.882813 77.855469-47.726563 127.390625-47.734375 49.664063.007812 94.589844 17.9375 127.640625 47.964844 33.050782 30.042968 54.246094 72.097656 56.464844 120.835937.15625 3.292969 2.648438 6.015625 5.917969 6.453125z"/><path d="m261.523438 397.039062c-13.597657 3.519532-27.785157 5.429688-42.371094 5.511719-.019532 0-.03125 0-.046875 0-.300781 0-.597657.003907-.898438.003907-.296875 0-.605469-.003907-.902343-.003907-.015626 0-.03125 0-.046876 0-14.585937-.082031-28.769531-1.992187-42.367187-5.511719-11.808594.742188-22.75 1.773438-32.507813 3.050782 23.339844 10.328125 48.957032 16.117187 75.824219 16.117187 26.867188 0 52.484375-5.792969 75.820313-16.117187-9.753906-1.277344-20.695313-2.3125-32.503906-3.050782"/><path d="m391.324219 275.679688c-.191407.332031-.351563.679687-.484375 1.046874-13.113282 35.949219-36.59375 67.472657-66.632813 89.9375-18.695312 13.972657-39.890625 24.445313-62.734375 30.367188.019532 0 .035156.003906.050782.003906 60.140624-15.566406 108.792968-62.566406 129.800781-121.355468m-346.628907-1.144532c20.777344 59.324219 69.667969 106.832032 130.199219 122.5.019531 0 .03125-.003906.050781-.003906-23.070312-5.980469-44.460937-16.597656-63.292968-30.777344-30.144532-22.714844-53.628906-54.554687-66.570313-90.839844-.109375-.304687-.238281-.597656-.386719-.878906"/></g><path d="m400.933594 187.640625c-11.714844 91.421875-89.03125 167.125-182.726563 167.125-93.691406 0-171.003906-75.703125-182.71875-167.125-1.015625 7.746094-1.59375 15.667969-1.59375 23.765625 0 21.871094 3.808594 43.171875 10.800781 63.128906.148438.28125.273438.578125.382813.882813 12.945313 36.285156 36.429687 68.125 66.574219 90.839843 18.832031 14.179688 40.21875 24.796876 63.289062 30.777344 13.582032 3.523438 27.75 5.433594 42.316406 5.515625h.046876c.300781 0 .601562.003907.902343.003907s.601563-.003907.898438-.003907h.046875c14.566406-.082031 28.734375-1.996093 42.316406-5.515625 22.847656-5.921875 44.042969-16.394531 62.734375-30.371094 30.039063-22.460937 53.523437-53.984374 66.632813-89.933593.132812-.367188.296874-.714844.484374-1.046875 7.253907-20.292969 11.207032-41.980469 11.207032-64.273438 0-8.105468-.578125-16.023437-1.59375-23.769531zm0 0" fill="#ee9295"/><path d="m219.105469 402.546875c-.300781.003906-.597657.003906-.898438.003906.300781 0 .601563 0 .898438-.003906m-1.800781 0c.296874.003906.605468.003906.902343.003906-.300781 0-.601562 0-.902343-.003906m-42.359376-5.511719c-.019531 0-.03125 0-.050781.003906 13.59375 3.519532 27.78125 5.429688 42.363281 5.511719-14.5625-.085937-28.734374-1.996093-42.3125-5.515625m86.523438 0c-13.582031 3.519532-27.75 5.433594-42.316406 5.511719 14.585937-.078125 28.773437-1.992187 42.371094-5.511719-.019532 0-.035157 0-.054688 0" fill="#54596e"/><path d="m103.578125 231.886719c-11.273437-.027344-18.300781 11.6875-13.027344 21.402343 24.261719 44.710938 72.4375 75.171876 127.917969 75.171876 55.25 0 103.261719-30.210938 127.613281-74.617188 5.3125-9.691406-1.667969-21.429688-12.933593-21.453125l-93.257813 9.304687c-14.253906 1.421876-28.609375 1.390626-42.847656-.089843zm0 0" fill="#54596e"/><path d="m103.578125 231.886719.929687-6.765625c-.011718.003906-.324218-.0625-.96875-.066406-6.15625-.015626-11.695312 2.523437-15.507812 6.449218-3.828125 3.921875-6.089844 9.21875-6.09375 14.867188-.003906 3.410156.847656 6.929687 2.609375 10.171875 25.441406 46.890625 75.90625 78.738281 133.921875 78.742187 57.769531-.003906 108.0625-31.589844 133.597656-78.160156 1.796875-3.265625 2.660156-6.8125 2.65625-10.246094-.003906-5.636718-2.257812-10.929687-6.078125-14.851562-3.804687-3.925782-9.332031-6.46875-15.484375-6.464844l-.6875.035156-93.261718 9.304688c-6.753907.671875-13.53125 1.007812-20.308594 1.011718-7.0625-.003906-14.121094-.367187-21.152344-1.101562l-93.46875-9.71875-.703125 6.792969.929687-6.765625-.929687 6.765625-.707031 6.789062 93.46875 9.71875c7.5.78125 15.03125 1.171875 22.566406 1.171875 7.226562 0 14.457031-.359375 21.660156-1.078125l93.261719-9.304687-.679687-6.792969-.007813 6.828125c2.476563.019531 4.320313.929688 5.730469 2.347656 1.394531 1.425782 2.203125 3.371094 2.199218 5.316406-.007812 1.195313-.28125 2.40625-.972656 3.679688-23.171875 42.242188-68.90625 71.078125-121.628906 71.074219-52.941406.003906-98.835938-29.070313-121.917969-71.601563-.6875-1.273437-.953125-2.46875-.957031-3.660156-.007812-1.953125.800781-3.894531 2.203125-5.324219 1.414063-1.417969 3.261719-2.324219 5.746094-2.34375v-6.558593l-.894531 6.5c0-.007813.277343.058593.894531.058593v-6.558593l-.894531 6.5.226562.03125zm0 0" fill="#54596e"/><path d="m256.539062 246.507812 50.667969-7.792968v20.605468c0 3.855469-2.816406 7.132813-6.628906 7.71875l-44.039063 6.773438c-25.253906 3.886719-50.941406 4.023438-76.234374.410156l-50.722657-7.246094c-3.84375-.546874-6.699219-3.84375-6.699219-7.726562v-20.535156l57.421876 8.203125c25.292968 3.609375 50.980468 3.472656 76.234374-.410157zm0 0" fill="#fff"/><path d="m218.46875 321.632812c-36.65625 0-70.078125-13.355468-95.566406-35.277343.054687-3.527344 3.175781-6.226563 6.679687-5.726563l50.722657 7.246094c25.292968 3.613281 50.980468 3.476562 76.234374-.410156l43.898438-6.75c3.554688-.546875 6.769531 2.203125 6.769531 5.804687v5.371094c-24.507812 18.609375-55.277343 29.742187-88.738281 29.742187zm0 0" fill="#fff"/><path d="m293.304688 177.273438c0 7.539062-6.113282 13.652343-13.652344 13.652343-7.542969 0-13.65625-6.113281-13.65625-13.652343 0-7.542969 6.113281-13.65625 13.65625-13.65625 7.539062 0 13.652344 6.113281 13.652344 13.65625zm0 0" fill="#54596e"/><path d="m170.425781 177.273438c0 7.539062-6.113281 13.652343-13.65625 13.652343-7.539062 0-13.652343-6.113281-13.652343-13.652343 0-7.542969 6.113281-13.65625 13.652343-13.65625 7.542969 0 13.65625 6.113281 13.65625 13.65625zm0 0" fill="#54596e"/><path d="m102.15625 149.964844c.007812 11.3125 9.167969 20.476562 20.480469 20.480468h184.320312c11.3125-.003906 20.476563-9.167968 20.480469-20.480468 0-3.769532-3.054688-6.824219-6.828125-6.824219-3.769531 0-6.824219 3.054687-6.824219 6.824219-.007812 3.765625-3.0625 6.820312-6.828125 6.828125h-184.320312c-3.765625-.007813-6.820313-3.0625-6.824219-6.828125 0-3.769532-3.058594-6.824219-6.828125-6.824219s-6.828125 3.054687-6.828125 6.824219zm0 0" fill="#54596e"/></svg>