<svg height="416pt" viewBox="-10 0 416 416.43008" width="416pt" xmlns="http://www.w3.org/2000/svg"><path d="m274.019531 379.835938c-23.335937 10.324218-48.953125 16.113281-75.828125 16.113281-26.878906 0-52.492187-5.789063-75.832031-16.113281-28.648437 3.746093-47.046875 9.574218-47.046875 16.113281 0 11.3125 55.011719 20.480469 122.878906 20.480469 67.867188 0 122.878906-9.167969 122.878906-20.480469 0-6.539063-18.402343-12.367188-47.050781-16.113281" fill="#eeeef0"/><path d="m389.335938 190.898438c0-105.570313-85.578126-184.070313-191.144532-184.070313-105.5625 0-191.148437 78.5-191.148437 184.070313 0 105.566406 85.582031 198.226562 191.148437 198.226562s191.144532-92.660156 191.144532-198.226562" fill="#fff35f"/><path d="m389.335938 190.898438h6.828124c.019532-54.652344-22.222656-102.550782-58.113281-136.578126-35.878906-34.046874-85.378906-54.32421825-139.859375-54.320312-54.476562-.00390625-103.980468 20.273438-139.863281 54.320312-35.886719 34.027344-58.132813 81.921876-58.113281 136.574219.011718 54.640625 22.128906 105.828125 57.867187 143.402344 35.730469 37.578125 85.289063 61.652344 140.105469 61.652344s104.378906-24.074219 140.105469-61.652344c35.75-37.574219 57.855469-88.761719 57.867187-143.402344h-13.648437c.003906 50.925781-20.671875 98.851563-54.109375 133.996094-33.449219 35.148437-79.460938 57.40625-130.210938 57.40625-50.746094 0-96.765625-22.257813-130.214844-57.40625-33.4375-35.144531-54.113281-83.070313-54.105468-133.992187.019531-50.921876 20.566406-95.054688 53.863281-126.671876 33.296875-31.59375 79.371094-50.566406 130.457031-50.570312 51.085938.003906 97.15625 18.976562 130.464844 50.570312 33.285156 31.613282 53.835938 75.75 53.855469 126.671876z" fill="#54596e"/><path d="m380.917969 167.382812c-11.722657 91.417969-89.035157 167.125-182.726563 167.125-93.695312 0-171.007812-75.707031-182.726562-167.125-1.007813 7.71875-1.589844 15.601563-1.597656 23.667969.035156 50.863281 20.703124 98.730469 54.109374 133.839844 33.054688 34.734375 78.386719 56.878906 128.429688 57.394531.070312 0 .132812.003906.199219.003906.132812 0 .261719 0 .394531.003907h.234375c.316406.003906.636719.003906.957031.003906.308594 0 .621094 0 .929688-.003906h.261718c.089844 0 .183594-.003907.277344-.003907.105469 0 .210938 0 .316406-.003906 50.046876-.515625 95.371094-22.660156 128.429688-57.394531 33.402344-35.109375 54.070312-82.976563 54.105469-133.84375-.007813-8.066406-.582031-15.945313-1.59375-23.664063" fill="#eee361"/><g fill="#54596e"><path d="m199.121094 382.292969c-.308594.003906-.621094.003906-.929688.003906.308594 0 .621094 0 .929688-.003906m-1.886719 0c.316406.003906.636719.003906.957031.003906-.320312 0-.640625 0-.957031-.003906m2.425781-.003907c-.09375 0-.1875.003907-.277344.003907.089844 0 .183594-.003907.277344-.003907m-3.054687 0c.128906 0 .261719 0 .394531.003907-.132812-.003907-.261719-.003907-.394531-.003907m-182.734375-191.238281v.097657c0 101.199218 81.558594 190.101562 182.539062 191.136718-50.042968-.515625-95.375-22.660156-128.433594-57.394531-33.402343-35.109375-54.070312-82.976563-54.105468-133.839844m368.640625-.003906c-.035157 50.867187-20.703125 98.734375-54.109375 133.84375-33.058594 34.734375-78.378906 56.878906-128.429688 57.394531 100.980469-1.035156 182.539063-89.9375 182.539063-191.136718 0-.035157 0-.066407 0-.101563"/><path d="m157.230469 163.839844c-.003907-15.082032-12.21875-27.300782-27.308594-27.304688-15.085937.003906-27.300781 12.222656-27.304687 27.304688h6.828124v-6.824219h-20.480468c-3.769532 0-6.828125 3.054687-6.828125 6.824219 0 3.773437 3.058593 6.828125 6.828125 6.828125h27.304687v-6.828125c.015625-7.535156 6.113281-13.636719 13.652344-13.652344 7.542969.015625 13.640625 6.117188 13.65625 13.652344 0 3.773437 3.054687 6.828125 6.824219 6.828125 3.769531 0 6.828125-3.054688 6.828125-6.828125zm0 0"/><path d="m65.152344 224.808594c14.132812 10.695312 33.40625 19.234375 56.148437 25.234375 22.738281 5.984375 48.953125 9.367187 76.890625 9.371093 28.269532-.003906 54.777344-3.472656 77.707032-9.589843 22.933593-6.136719 42.289062-14.859375 56.34375-25.796875 2.972656-2.320313 3.5-6.609375 1.183593-9.578125-2.320312-2.972657-6.609375-3.503907-9.582031-1.183594-11.972656 9.359375-29.828125 17.609375-51.464844 23.367187-21.636718 5.78125-47.039062 9.132813-74.1875 9.128907-26.828125.003906-51.949218-3.269531-73.414062-8.921875-21.46875-5.636719-39.269532-13.707032-51.375-22.910156-3.003906-2.277344-7.289063-1.691407-9.566406 1.316406-2.277344 3-1.6875 7.285156 1.316406 9.5625zm0 0"/></g><path d="m143.578125 191.148438c0-7.539063-15.285156-13.652344-34.132813-13.652344-18.851562 0-34.136718 6.113281-34.136718 13.652344 0 7.539062 15.285156 13.652343 34.136718 13.652343 18.847657 0 34.132813-6.113281 34.132813-13.652343zm0 0" fill="#f9bbed"/><path d="m321.070312 191.148438c0-7.539063-15.28125-13.652344-34.132812-13.652344s-34.132812 6.113281-34.132812 13.652344c0 7.539062 15.28125 13.652343 34.132812 13.652343s34.132812-6.113281 34.132812-13.652343zm0 0" fill="#f9bbed"/><path d="m300.589844 157.015625h-54.613282c-3.769531 0-6.828124 3.054687-6.828124 6.824219 0 3.773437 3.058593 6.828125 6.828124 6.828125h54.613282c3.769531 0 6.828125-3.054688 6.828125-6.828125 0-3.769532-3.058594-6.824219-6.828125-6.824219" fill="#54596e"/></svg>