<svg height="416pt" viewBox="-10 0 416 416.42838" width="416pt" xmlns="http://www.w3.org/2000/svg"><path d="m274.019531 379.832031c-23.339843 10.324219-48.953125 16.109375-75.828125 16.109375-26.878906 0-52.492187-5.785156-75.832031-16.109375-28.648437 3.746094-47.050781 9.574219-47.050781 16.113281 0 11.316407 55.015625 20.484376 122.882812 20.484376 67.863282 0 122.875-9.167969 122.875-20.484376.003906-6.539062-18.398437-12.367187-47.046875-16.113281" fill="#eeeef0"/><path d="m389.335938 190.894531c0-105.570312-85.578126-184.066406-191.144532-184.066406-105.570312 0-191.152344 78.496094-191.152344 184.066406 0 105.566407 85.582032 198.226563 191.152344 198.226563 105.566406 0 191.144532-92.660156 191.144532-198.226563" fill="#9af43b"/><path d="m389.335938 190.894531h6.828124c.019532-54.648437-22.222656-102.550781-58.117187-136.570312-35.878906-34.054688-85.378906-54.3320315-139.855469-54.324219-54.480468-.0078125-103.980468 20.269531-139.859375 54.324219-35.894531 34.019531-58.136719 81.921875-58.117187 136.570312.011718 54.644531 22.125 105.828125 57.867187 143.40625 35.734375 37.578125 85.289063 61.640625 140.109375 61.640625 54.8125 0 104.371094-24.0625 140.105469-61.640625 35.742187-37.578125 57.855469-88.761719 57.867187-143.40625h-13.652343c.007812 50.921875-20.671875 98.855469-54.105469 133.992188-33.453125 35.148437-79.46875 57.402343-130.214844 57.410156-50.75-.007813-96.765625-22.261719-130.21875-57.410156-33.433594-35.136719-54.109375-83.070313-54.101562-133.992188.015625-50.921875 20.566406-95.054687 53.855468-126.671875 33.296876-31.589844 79.375-50.5625 130.464844-50.570312 51.085938.007812 97.160156 18.980468 130.457032 50.570312 33.296874 31.613282 53.84375 75.75 53.863281 126.671875z" fill="#54596e"/><path d="m7.039062 190.894531.007813.253907h382.285156l.003907-.253907c0-38.492187-11.414063-73.347656-30.988282-102.144531h-320.316406c-19.574219 28.796875-30.992188 63.652344-30.992188 102.144531" fill="#54596e"/><path d="m7.039062 190.894531-6.820312.175781.003906.253907c.097656 3.707031 3.117188 6.648437 6.824219 6.648437h382.285156c3.703125 0 6.722657-2.941406 6.820313-6.648437l.007812-.253907.003906-.175781c.007813-39.84375-11.847656-76.09375-32.167968-105.988281-1.273438-1.867188-3.386719-2.984375-5.648438-2.984375h-320.316406c-2.261719 0-4.375 1.117187-5.648438 2.984375-20.324218 29.894531-32.171874 66.144531-32.167968 105.988281l.007812.175781 6.816406-.175781h6.828126c.007812-37.132812 10.988281-70.601562 29.808593-98.3125l-5.644531-3.832031v6.824219h320.316406v-6.824219l-5.648437 3.832031c18.824219 27.710938 29.804687 61.183594 29.808593 98.3125h6.828126l-6.828126-.179687-.003906.253906 6.828125.179688v-6.828126h-382.285156v6.828126l6.828125-.179688-.003906-.253906-6.832032.179687h6.828126z" fill="#54596e"/><path d="m382.378906 197.972656h-7.964844c-23.074218 77.125-93.214843 136.539063-176.222656 136.539063-83.007812 0-153.152344-59.414063-176.226562-136.539063h-7.964844c1.8125 48.269532 22.089844 93.410156 53.972656 126.914063 33.453125 35.148437 79.46875 57.402343 130.21875 57.410156 50.746094-.007813 96.761719-22.261719 130.214844-57.410156 31.878906-33.503907 52.160156-78.644531 53.972656-126.914063" fill="#93e440"/><g fill="#54596e"><path d="m14 197.972656h-.007812c3.582031 98.929688 84.675781 184.324219 184.199218 184.324219-50.75-.007813-96.765625-22.261719-130.21875-57.410156-31.882812-33.503907-52.160156-78.644531-53.972656-126.914063m368.386719 0h-.007813c-1.8125 48.269532-22.09375 93.410156-53.972656 126.914063-33.453125 35.148437-79.46875 57.402343-130.214844 57.410156 99.519532 0 180.609375-85.394531 184.195313-184.324219"/><path d="m15.464844 167.382812c-.730469 5.558594-1.230469 11.199219-1.460938 16.941407h4.410156c-1.230468-5.578125-2.21875-11.230469-2.949218-16.941407m365.449218 0c-.730468 5.714844-1.71875 11.363282-2.953124 16.941407h4.414062c-.230469-5.742188-.734375-11.382813-1.460938-16.941407"/><path d="m18.417969 184.320312h-4.414063c-.085937 2.261719-.132812 4.539063-.132812 6.828126 0 2.28125.039062 4.558593.121094 6.824218h7.972656c-1.34375-4.488281-2.53125-9.046875-3.546875-13.652344m363.957031 0h-4.414062c-1.015626 4.601563-2.203126 9.160157-3.546876 13.652344h7.972657c.082031-2.265625.125-4.542968.125-6.824218-.003907-2.289063-.046875-4.5625-.136719-6.828126"/><path d="m143.574219 232.105469c0 30.164062 24.453125 54.613281 54.613281 54.613281s54.613281-24.449219 54.613281-54.613281zm0 0"/><path d="m143.574219 232.105469h-6.824219c.003906 33.933593 27.503906 61.4375 61.4375 61.441406 33.933594-.003906 61.4375-27.507813 61.441406-61.441406 0-1.796875-.726562-3.554688-2-4.828125-1.269531-1.269532-3.027344-1.996094-4.828125-1.996094h-109.226562c-1.796875 0-3.554688.726562-4.828125 1.996094-1.269532 1.273437-1.996094 3.03125-1.996094 4.828125h6.824219v6.828125h109.226562v-6.828125h-6.824219c-.003906 13.21875-5.339843 25.121093-14 33.792969-8.667968 8.65625-20.570312 13.988281-33.789062 13.996093-13.214844-.007812-25.117188-5.339843-33.789062-13.996093-8.65625-8.671876-13.992188-20.574219-13.996094-33.792969h-6.828125v6.828125zm0 0"/></g><path d="m157.230469 252.585938h81.917969c3.769531 0 6.828124-3.054688 6.828124-6.824219 0-3.773438-3.058593-6.828125-6.828124-6.828125h-81.917969c-3.769531 0-6.828125 3.054687-6.828125 6.828125 0 3.769531 3.058594 6.824219 6.828125 6.824219" fill="#fff"/><path d="m140.164062 139.945312c0 13.199219-10.699218 23.894532-23.894531 23.894532-13.195312 0-23.894531-10.695313-23.894531-23.894532 0-13.195312 10.699219-23.890624 23.894531-23.890624 13.195313 0 23.894531 10.695312 23.894531 23.890624zm0 0" fill="#9af43b"/><path d="m140.164062 139.945312h6.824219c-.003906-16.96875-13.753906-30.714843-30.71875-30.71875-16.964843.003907-30.714843 13.75-30.71875 30.71875.003907 16.972657 13.753907 30.714844 30.71875 30.71875 16.964844-.003906 30.714844-13.746093 30.71875-30.71875h-13.652343c-.015626 9.425782-7.644532 17.050782-17.066407 17.066407-9.421875-.015625-17.050781-7.640625-17.066406-17.066407.015625-9.421874 7.644531-17.046874 17.066406-17.066406 9.421875.019532 17.050781 7.644532 17.066407 17.066406zm0 0" fill="#54596e"/><path d="m300.589844 139.945312c0 13.199219-10.699219 23.894532-23.894532 23.894532-13.195312 0-23.894531-10.695313-23.894531-23.894532 0-13.195312 10.699219-23.890624 23.894531-23.890624 13.195313 0 23.894532 10.695312 23.894532 23.890624zm0 0" fill="#9af43b"/><path d="m300.589844 139.945312h6.824218c-.003906-16.96875-13.753906-30.714843-30.71875-30.71875-16.964843.003907-30.714843 13.75-30.71875 30.71875.003907 16.972657 13.753907 30.714844 30.71875 30.71875 16.964844-.003906 30.714844-13.746093 30.71875-30.71875h-13.652343c-.015625 9.425782-7.644531 17.050782-17.066407 17.066407-9.421874-.015625-17.050781-7.640625-17.066406-17.066407.015625-9.421874 7.644532-17.046874 17.066406-17.066406 9.421876.019532 17.050782 7.644532 17.066407 17.066406zm0 0" fill="#54596e"/></svg>