<svg height="416pt" viewBox="-10 0 416 416.42667" width="416pt" xmlns="http://www.w3.org/2000/svg"><path d="m274.027344 379.832031c-23.339844 10.328125-48.957032 16.117188-75.835938 16.117188s-52.5-5.789063-75.839844-16.117188c-28.644531 3.75-47.039062 9.574219-47.039062 16.117188 0 11.308593 55.007812 20.476562 122.878906 20.476562 67.867188 0 122.878906-9.167969 122.878906-20.476562 0-6.542969-18.398437-12.367188-47.042968-16.117188" fill="#eeeef0"/><path d="m389.339844 190.898438c0-105.570313-85.585938-184.066407-191.148438-184.066407-105.566406 0-191.152344 78.496094-191.152344 184.066407 0 105.566406 85.585938 198.226562 191.152344 198.226562 105.5625 0 191.148438-92.664062 191.148438-198.226562" fill="#fff35f"/><path d="m389.339844 190.898438h6.828125c.011719-54.652344-22.226563-102.554688-58.117188-136.578126-35.886719-34.046874-85.378906-54.320312-139.859375-54.320312-54.484375 0-103.984375 20.277344-139.859375 54.320312-35.894531 34.027344-58.132812 81.925782-58.117187 136.578126.011718 54.644531 22.121094 105.820312 57.863281 143.402343 35.730469 37.578125 85.296875 61.648438 140.109375 61.648438 54.816406 0 104.378906-24.070313 140.109375-61.648438 35.746094-37.582031 57.851563-88.761719 57.867187-143.402343h-13.65625c.011719 50.917968-20.664062 98.847656-54.101562 133.992187-33.453125 35.148437-79.464844 57.402344-130.214844 57.410156-50.75-.007812-96.769531-22.261719-130.21875-57.410156-33.433594-35.144531-54.113281-83.074219-54.105468-133.992187.019531-50.921876 20.566406-95.054688 53.863281-126.671876 33.296875-31.589843 79.371093-50.570312 130.460937-50.578124 51.085938.007812 97.164063 18.988281 130.457032 50.578124 33.292968 31.617188 53.84375 75.75 53.859374 126.671876z" fill="#54596e"/><path d="m380.917969 167.382812c-11.722657 91.417969-89.03125 167.128907-182.726563 167.128907-93.695312 0-171.003906-75.707031-182.730468-167.128907-1.011719 7.75-1.585938 15.664063-1.585938 23.765626 0 1.914062.027344 3.828124.085938 5.730468 1.539062 48.679688 21.890624 94.25 54.011718 128.011719 33.449219 35.148437 79.46875 57.402344 130.21875 57.40625 50.75-.007813 96.761719-22.257813 130.214844-57.410156 33.402344-35.101563 54.070312-82.976563 54.101562-133.832031-.007812-8.070313-.578124-15.953126-1.589843-23.671876" fill="#eee361"/><g fill="#54596e"><path d="m13.960938 196.878906c3.023437 99.398438 84.34375 185.417969 184.230468 185.417969-50.75-.007813-96.769531-22.257813-130.21875-57.410156-32.121094-33.757813-52.472656-79.328125-54.011718-128.007813m368.546874-5.824218c-.03125 50.855468-20.699218 98.730468-54.101562 133.835937-33.453125 35.148437-79.464844 57.402344-130.214844 57.410156 101.796875 0 184.316406-89.351562 184.316406-191.152343 0-.03125 0-.0625 0-.09375"/><path d="m148.128906 136.535156h-26.660156l26.476562-22.0625c2.199219-1.835937 3.023438-4.875 2.046876-7.570312-.972657-2.691406-3.550782-4.503906-6.417969-4.503906h-40.957031c-3.769532 0-6.828126 3.054687-6.828126 6.828124 0 3.769532 3.058594 6.828126 6.828126 6.828126h22.105468l-26.476562 22.0625c-2.203125 1.832031-3.023438 4.875-2.046875 7.570312.972656 2.691406 3.550781 4.5 6.417969 4.5h45.511718c3.769532 0 6.828125-3.058594 6.828125-6.824219 0-3.773437-3.058593-6.828125-6.828125-6.828125zm0 0"/><path d="m298.316406 136.535156h-26.664062l26.480468-22.0625c2.199219-1.835937 3.023438-4.875 2.046876-7.570312-.976563-2.691406-3.550782-4.503906-6.417969-4.503906h-40.960938c-3.769531 0-6.824219 3.054687-6.824219 6.828124 0 3.769532 3.054688 6.828126 6.824219 6.828126h22.109375l-26.476562 22.0625c-2.203125 1.832031-3.023438 4.875-2.050782 7.570312.976563 2.691406 3.554688 4.5 6.421876 4.5h45.511718c3.769532 0 6.824219-3.058594 6.824219-6.824219 0-3.773437-3.054687-6.828125-6.824219-6.828125zm0 0"/><path d="m273.285156 238.933594s-37.394531-68.265625-75.09375-68.265625c-37.703125 0-75.09375 68.265625-75.09375 68.265625 0 37.707031 37.390625 68.269531 75.09375 68.269531 37.699219 0 75.09375-30.5625 75.09375-68.269531zm0 0"/><path d="m273.285156 238.933594 5.984375-3.277344c-.128906-.21875-9.609375-17.558594-24.125-35.195312-7.277343-8.820313-15.804687-17.734376-25.300781-24.648438-9.484375-6.871094-20.109375-11.933594-31.652344-11.972656-11.542968.039062-22.167968 5.101562-31.652344 11.972656-14.230468 10.375-26.363281 25.234375-35.179687 37.558594-8.789063 12.324218-14.160156 22.125-14.246094 22.285156-.558593 1.015625-.839843 2.125-.839843 3.28125.007812 21.175781 10.484374 40.019531 25.726562 53.398438 15.28125 13.394531 35.488281 21.667968 56.191406 21.691406 20.707032-.023438 40.914063-8.296875 56.191406-21.691406 15.242188-13.378907 25.71875-32.222657 25.730469-53.398438 0-1.15625-.285156-2.265625-.839843-3.28125l-5.988282 3.277344h-6.828125c.011719 16.527344-8.210937 31.816406-21.085937 43.144531-12.847656 11.3125-30.1875 18.320313-47.179688 18.296875-16.996094.027344-34.335937-6.984375-47.179687-18.296875-12.878907-11.332031-21.101563-26.617187-21.089844-43.144531h-6.824219l5.984375 3.28125.382813-.683594c1.988281-3.523438 11.671875-20.113281 24.90625-35.472656 6.601562-7.675782 14.09375-15.03125 21.714844-20.277344 7.636718-5.285156 15.25-8.3125 22.101562-8.285156 7.308594-.035156 15.496094 3.433594 23.625 9.363281 12.195312 8.824219 23.789062 22.765625 32.09375 34.441406 4.164062 5.835938 7.535156 11.109375 9.851562 14.898438 1.160157 1.894531 2.054688 3.417969 2.65625 4.457031l.671876 1.183594.207031.375 5.992187-3.28125h-6.828125zm0 0"/></g><path d="m218.671875 293.546875c15.078125 0 27.304687-12.226563 27.304687-27.304687 0-15.082032-12.226562-27.308594-27.304687-27.308594-8.203125 0-15.472656 3.691406-20.480469 9.417968-5.007812-5.722656-12.28125-9.417968-20.480468-9.417968-15.082032 0-27.308594 12.226562-27.308594 27.308594 0 15.078124 12.226562 27.304687 27.308594 27.304687zm0 0" fill="#f99"/><path d="m244.851562 218.453125c-11.535156-15.5-29.035156-34.132813-46.660156-34.132813-17.628906 0-35.128906 18.632813-46.660156 34.132813zm0 0" fill="#fff"/></svg>