<svg height="416pt" viewBox="-10 0 416 416.42327" width="416pt" xmlns="http://www.w3.org/2000/svg"><path d="m274.019531 379.828125c-23.339843 10.332031-48.957031 16.117187-75.835937 16.117187s-52.496094-5.789062-75.835938-16.117187c-28.644531 3.75-47.042968 9.578125-47.042968 16.117187 0 11.308594 55.015624 20.476563 122.878906 20.476563 67.859375 0 122.882812-9.167969 122.882812-20.476563 0-6.539062-18.40625-12.367187-47.046875-16.117187" fill="#eeeef0"/><path d="m299.894531 34.128906c-3.164062-15.582031-16.933593-27.304687-33.449219-27.304687-7.105468 0-13.703124 2.183593-19.171874 5.90625-15.667969-3.847657-32.113282-5.90625-49.089844-5.90625-16.976563 0-33.425782 2.058593-49.09375 5.90625-5.46875-3.722657-12.066406-5.90625-19.171875-5.90625-16.515625 0-30.28125 11.722656-33.445313 27.304687-53.714844 31.742188-89.4375 88.589844-89.4375 156.761719 0 105.566406 85.582032 198.230469 191.148438 198.230469 105.570312 0 191.144531-92.664063 191.144531-198.230469 0-68.171875-35.722656-125.019531-89.433594-156.761719" fill="#fff35f"/><path d="m299.894531 34.128906 6.6875-1.367187c-3.796875-18.714844-20.316406-32.7500002-40.136719-32.761719-8.511718-.0078125-16.464843 2.625-23.007812 7.082031l3.835938 5.648438 1.632812-6.628907c-16.195312-3.976562-33.195312-6.101562-50.722656-6.101562s-34.53125 2.125-50.71875 6.101562l1.625 6.628907 3.835937-5.648438c-6.542969-4.457031-14.496093-7.0898435-23.007812-7.082031-19.816407.0117188-36.332031 14.046875-40.132813 32.761719l6.691406 1.367187-3.472656-5.878906c-55.660156 32.835938-92.828125 92.03125-92.792968 162.644531.007812 54.644531 22.121093 105.828125 57.863281 143.40625 35.734375 37.578125 85.292969 61.644531 140.109375 61.644531 54.8125 0 104.371094-24.070312 140.105468-61.644531 35.746094-37.578125 57.855469-88.765625 57.871094-143.40625.027344-70.613281-37.140625-129.808593-92.792968-162.644531l-3.472657 5.878906 6.6875-1.367187-6.6875 1.367187-3.472656 5.878906c51.777344 30.644532 86.050781 85.148438 86.078125 150.882813.011719 50.921875-20.664062 98.855469-54.101562 134-33.453126 35.140625-79.464844 57.398437-130.214844 57.40625-50.753906-.007813-96.765625-22.265625-130.214844-57.40625-33.441406-35.144531-54.113281-83.078125-54.105469-134 .035157-65.734375 34.300781-120.238281 86.085938-150.882813 1.65625-.984374 2.832031-2.636718 3.21875-4.523437 2.523437-12.433594 13.542969-21.847656 26.75-21.832031 5.703125.007812 10.941406 1.738281 15.328125 4.722656 1.59375 1.082031 3.601562 1.4375 5.46875.980469 15.140625-3.714844 31.046875-5.703125 47.46875-5.703125 16.425781 0 32.328125 1.988281 47.464844 5.703125 1.867187.457031 3.875.101562 5.46875-.980469 4.382812-2.984375 9.625-4.714844 15.328124-4.722656 13.210938-.015625 24.234376 9.398437 26.757813 21.832031.382813 1.886719 1.558594 3.539063 3.21875 4.523437z" fill="#54596e"/><path d="m380.90625 167.378906c-11.722656 91.417969-89.03125 167.125-182.722656 167.125-93.695313 0-171.007813-75.703125-182.730469-167.125-1.007813 7.714844-1.585937 15.601563-1.589844 23.667969.035157 50.863281 20.695313 98.738281 54.105469 133.84375 33.449219 35.140625 79.460938 57.398437 130.214844 57.40625 50.746094-.007813 96.757812-22.265625 130.214844-57.40625 33.402343-35.105469 54.070312-82.976563 54.101562-133.839844-.003906-8.066406-.582031-15.957031-1.59375-23.671875" fill="#eee361"/><g fill="#54596e"><path d="m382.5 191.050781c-.027344 50.863281-20.699219 98.734375-54.101562 133.839844-33.453126 35.140625-79.464844 57.398437-130.214844 57.40625 101.792968 0 184.316406-89.351563 184.316406-191.148437 0-.03125 0-.066407 0-.097657m-368.636719-.003906v.101563c0 101.796874 82.523438 191.148437 184.320313 191.148437-50.753906-.007813-96.765625-22.265625-130.214844-57.40625-33.40625-35.105469-54.070312-82.980469-54.105469-133.84375"/><path d="m293.757812 95.574219c-.007812-15.085938-12.222656-27.304688-27.308593-27.308594-15.082031.003906-27.300781 12.222656-27.304688 27.308594 0 3.769531 3.054688 6.824219 6.824219 6.824219s6.828125-3.054688 6.828125-6.824219c.011719-7.539063 6.117187-13.640625 13.652344-13.65625 7.539062.015625 13.640625 6.117187 13.652343 13.65625 0 3.769531 3.058594 6.824219 6.828126 6.824219 3.769531 0 6.828124-3.054688 6.828124-6.824219zm0 0"/><path d="m157.222656 95.574219c-.003906-15.085938-12.222656-27.304688-27.304687-27.308594-15.085938.003906-27.304688 12.222656-27.308594 27.308594 0 3.769531 3.058594 6.824219 6.828125 6.824219s6.824219-3.054688 6.824219-6.824219c.015625-7.539063 6.117187-13.640625 13.65625-13.65625 7.535156.015625 13.636719 6.117187 13.652343 13.65625 0 3.769531 3.054688 6.824219 6.828126 6.824219 3.769531 0 6.824218-3.054688 6.824218-6.824219zm0 0"/></g><path d="m143.570312 122.878906c0-7.539062-15.28125-13.652344-34.132812-13.652344s-34.132812 6.113282-34.132812 13.652344c0 7.542969 15.28125 13.65625 34.132812 13.65625s34.132812-6.113281 34.132812-13.65625zm0 0" fill="#f9bbed"/><path d="m321.0625 122.878906c0-7.539062-15.28125-13.652344-34.132812-13.652344-18.851563 0-34.132813 6.113282-34.132813 13.652344 0 7.542969 15.28125 13.65625 34.132813 13.65625 18.851562 0 34.132812-6.113281 34.132812-13.65625zm0 0" fill="#f9bbed"/><path d="m88.957031 163.839844c0 53.835937 50.429688 97.480468 112.640625 97.480468 62.207032 0 112.640625-43.644531 112.640625-97.480468zm0 0" fill="#54596e"/><path d="m88.957031 163.839844h-6.828125c-.007812 29.097656 13.679688 55.363281 35.351563 74.089844 21.683593 18.757812 51.410156 30.210937 84.117187 30.214843 32.703125-.003906 62.429688-11.457031 84.117188-30.214843 21.671875-18.726563 35.355468-44.992188 35.347656-74.089844 0-1.796875-.726562-3.554688-2-4.828125-1.269531-1.269531-3.027344-2-4.824219-2h-225.28125c-1.796875 0-3.558593.730469-4.828125 2-1.269531 1.273437-2 3.03125-2 4.828125h6.828125v6.824218h225.28125v-6.824218h-6.828125c-.007812 24.738281-11.539062 47.210937-30.632812 63.765625-19.082032 16.523437-45.675782 26.894531-75.179688 26.886719-29.507812.007812-56.097656-10.363282-75.183594-26.886719-19.09375-16.554688-30.621093-39.027344-30.628906-63.765625h-6.828125v6.824218zm0 0" fill="#54596e"/><path d="m102.609375 184.320312h197.972656c3.769531 0 6.828125-3.058593 6.828125-6.828124 0-3.769532-3.058594-6.824219-6.828125-6.824219h-197.972656c-3.769531 0-6.824219 3.054687-6.824219 6.824219 0 3.769531 3.054688 6.828124 6.824219 6.828124" fill="#fff"/></svg>