<svg height="416pt" viewBox="-10 0 416 416.42667" width="416pt" xmlns="http://www.w3.org/2000/svg"><path d="m274.015625 379.835938c-23.339844 10.328124-48.953125 16.113281-75.828125 16.113281-26.878906 0-52.492188-5.789063-75.832031-16.113281-28.648438 3.746093-47.050781 9.570312-47.050781 16.113281 0 11.3125 55.015624 20.476562 122.882812 20.476562 67.863281 0 122.878906-9.164062 122.878906-20.476562 0-6.542969-18.402344-12.367188-47.050781-16.113281" fill="#eeeef0"/><path d="m389.332031 190.894531c0-105.566406-85.582031-184.066406-191.144531-184.066406-105.570312 0-191.148438 78.5-191.148438 184.066406 0 105.566407 85.578126 198.226563 191.148438 198.226563 105.5625 0 191.144531-92.660156 191.144531-198.226563" fill="#fff35f"/><path d="m389.332031 190.894531h6.824219c.019531-54.644531-22.222656-102.546875-58.113281-136.574219-35.878907-34.050781-85.378907-54.32421825-139.855469-54.320312-54.480469-.00390625-103.980469 20.269531-139.863281 54.320312-35.886719 34.027344-58.128907 81.929688-58.109375 136.570313.003906 54.648437 22.117187 105.828125 57.859375 143.410156 35.734375 37.574219 85.292969 61.644531 140.113281 61.644531 54.816406 0 104.375-24.070312 140.105469-61.644531 35.742187-37.582031 57.855469-88.765625 57.863281-143.410156h-13.652344c.007813 50.925781-20.667968 98.855469-54.105468 134-33.449219 35.148437-79.460938 57.402344-130.210938 57.402344-50.753906 0-96.765625-22.253907-130.21875-57.402344-33.4375-35.144531-54.109375-83.074219-54.105469-134 .019531-50.914063 20.570313-95.046875 53.859375-126.667969 33.300782-31.59375 79.375-50.566406 130.464844-50.574218 51.085938.007812 97.160156 18.980468 130.460938 50.574218 33.292968 31.617188 53.84375 75.753906 53.859374 126.667969h6.824219" fill="#54596e"/><path d="m380.914062 167.382812c-11.726562 91.417969-89.039062 167.128907-182.726562 167.128907-93.695312 0-171.007812-75.710938-182.726562-167.128907-1.015626 7.714844-1.59375 15.59375-1.597657 23.664063.03125 50.867187 20.699219 98.734375 54.101563 133.84375 33.0625 34.738281 78.390625 56.878906 128.4375 57.390625.007812.003906.003906.003906.007812.003906.195313 0 .390625.003906.585938.003906.398437.003907.792968.003907 1.1875.003907.398437 0 .792968 0 1.191406-.003907 50.277344-.34375 95.832031-22.527343 129.023438-57.398437 33.402343-35.109375 54.070312-82.980469 54.105468-133.847656-.003906-8.066407-.582031-15.945313-1.589844-23.660157" fill="#eee361"/><path d="m196.414062 382.285156c.195313 0 .390626.003906.585938.003906-.199219 0-.390625-.003906-.585938-.003906m-182.550781-191.238281v.101563c0 101.203124 81.566407 190.097656 182.542969 191.132812-50.050781-.511719-95.375-22.652344-128.4375-57.390625-33.402344-35.109375-54.070312-82.976563-54.105469-133.84375m368.644531-.003906c-.035156 50.867187-20.703124 98.738281-54.105468 133.847656-33.191406 34.871094-78.746094 57.054687-129.023438 57.398437 101.242188-.695312 183.128906-89.742187 183.128906-191.140624 0-.035157 0-.070313 0-.105469" fill="#54596e"/><path d="m104.289062 148.757812c19.09375 21.804688 52.441407 35.507813 90.246094 35.5625 38.257813-.054687 71.957032-14.085937 90.925782-36.359374 2.4375-2.878907 2.078124-7.183594-.800782-9.621094-2.875-2.4375-7.183594-2.078125-9.617187.800781-15.398438 18.328125-45.605469 31.585937-80.507813 31.527344-34.488281.054687-64.394531-12.882813-79.949218-30.875-2.476563-2.847657-6.789063-3.144531-9.632813-.667969-2.839844 2.476562-3.140625 6.789062-.664063 9.632812zm0 0" fill="#54596e"/><path d="m116.265625 102.402344c0-7.542969-15.28125-13.652344-34.132813-13.652344-18.851562 0-34.132812 6.109375-34.132812 13.652344 0 7.539062 15.28125 13.652344 34.132812 13.652344 18.851563 0 34.132813-6.113282 34.132813-13.652344zm0 0" fill="#f9bbed"/><path d="m348.371094 102.402344c0-7.542969-15.28125-13.652344-34.132813-13.652344-18.851562 0-34.132812 6.109375-34.132812 13.652344 0 7.539062 15.28125 13.652344 34.132812 13.652344 18.851563 0 34.132813-6.113282 34.132813-13.652344zm0 0" fill="#f9bbed"/><g fill="#54596e"><path d="m273.277344 54.613281c0 7.542969-6.113282 13.65625-13.652344 13.65625s-13.652344-6.113281-13.652344-13.65625c0-7.539062 6.113282-13.652343 13.652344-13.652343s13.652344 6.113281 13.652344 13.652343zm0 0"/><path d="m150.398438 54.613281c0 7.542969-6.113282 13.65625-13.652344 13.65625-7.542969 0-13.65625-6.113281-13.65625-13.65625 0-7.539062 6.113281-13.652343 13.65625-13.652343 7.539062 0 13.652344 6.113281 13.652344 13.652343zm0 0"/></g></svg>