<svg height="436pt" viewBox="0 0 436.90667 436" width="436pt" xmlns="http://www.w3.org/2000/svg"><path d="m293.546875 150.640625c0 79.175781-64.183594 143.359375-143.359375 143.359375s-143.359375-64.183594-143.359375-143.359375 64.183594-143.359375 143.359375-143.359375 143.359375 64.183594 143.359375 143.359375zm0 0" fill="#fff35f"/><g fill="#54596e"><path d="m293.546875 150.640625h6.828125c-.003906-82.949219-67.242188-150.183594-150.1875-150.1875-82.949219.003906-150.18359375 67.238281-150.1875 150.1875.00390625 82.945313 67.238281 150.179687 150.1875 150.183594 82.945312-.003907 150.179688-67.238281 150.1875-150.183594h-13.65625c-.003906 37.722656-15.269531 71.8125-39.988281 96.542969-24.730469 24.71875-58.820313 39.984375-96.542969 39.988281-37.726562-.003906-71.8125-15.269531-96.542969-39.988281-24.71875-24.730469-39.988281-58.820313-39.992187-96.542969.003906-37.726563 15.273437-71.816406 39.992187-96.546875 24.730469-24.714844 58.820313-39.984375 96.542969-39.988281 37.722656.007812 71.8125 15.273437 96.542969 39.992187 24.71875 24.726563 39.984375 58.816406 39.988281 96.542969zm0 0"/><path d="m110.070312 162.527344c8.976563 9.757812 23.648438 15.359375 40.117188 15.417968 16.304688-.054687 30.84375-5.554687 39.847656-15.125 2.566406-2.761718 2.40625-7.078124-.355468-9.644531-2.761719-2.566406-7.082032-2.410156-9.648438.355469-5.4375 5.96875-16.710938 10.820312-29.847656 10.765625-13.265625.054687-24.632813-4.898437-30.003906-10.945313-2.535157-2.792968-6.855469-3-9.644532-.464843-2.789062 2.53125-3 6.851562-.464844 9.640625zm0 0"/><path d="m102.398438 89.199219c0 7.542969-6.109376 13.652343-13.652344 13.652343-7.539063 0-13.652344-6.109374-13.652344-13.652343 0-7.539063 6.113281-13.652344 13.652344-13.652344 7.542968 0 13.652344 6.113281 13.652344 13.652344zm0 0"/><path d="m225.28125 89.199219c0 7.542969-6.113281 13.652343-13.65625 13.652343-7.539062 0-13.652344-6.109374-13.652344-13.652343 0-7.539063 6.113282-13.652344 13.652344-13.652344 7.542969 0 13.65625 6.113281 13.65625 13.652344zm0 0"/></g><path d="m225.28125 130.160156c0 7.539063-6.113281 13.652344-13.65625 13.652344-7.539062 0-13.652344-6.113281-13.652344-13.652344 0-7.539062 6.113282-13.652344 13.652344-13.652344 7.542969 0 13.65625 6.113282 13.65625 13.652344zm0 0" fill="#ff927d"/><path d="m102.398438 130.160156c0 7.539063-6.109376 13.652344-13.652344 13.652344-7.539063 0-13.652344-6.113281-13.652344-13.652344 0-7.539062 6.113281-13.652344 13.652344-13.652344 7.542968 0 13.652344 6.113282 13.652344 13.652344zm0 0" fill="#ff927d"/><path d="m430.078125 287.171875c0 79.175781-64.183594 143.363281-143.359375 143.363281s-143.359375-64.1875-143.359375-143.363281 64.183594-143.359375 143.359375-143.359375 143.359375 64.183594 143.359375 143.359375zm0 0" fill="#d8d8d8"/><path d="m430.078125 287.171875h6.828125c-.003906-82.949219-67.238281-150.183594-150.1875-150.183594-82.945312 0-150.183594 67.234375-150.183594 150.183594s67.238282 150.183594 150.183594 150.1875c82.945312-.003906 150.183594-67.238281 150.1875-150.1875h-13.652344c-.003906 37.726563-15.273437 71.816406-39.992187 96.542969-24.730469 24.71875-58.820313 39.988281-96.542969 39.992187-37.722656-.003906-71.8125-15.273437-96.542969-39.992187-24.71875-24.726563-39.984375-58.816406-39.988281-96.542969.003906-37.722656 15.269531-71.8125 39.988281-96.542969 24.730469-24.71875 58.820313-39.984375 96.542969-39.988281 37.722656.003906 71.8125 15.269531 96.542969 39.988281 24.71875 24.730469 39.988281 58.820313 39.992187 96.546875h6.824219zm0 0" fill="#54596e"/><path d="m326.617188 364.503906c-8.980469-9.753906-23.652344-15.359375-40.117188-15.417968-16.296875.054687-30.835938 5.554687-39.839844 15.121093-2.566406 2.761719-2.410156 7.082031.351563 9.648438 2.761719 2.570312 7.082031 2.410156 9.652343-.351563 5.433594-5.972656 16.710938-10.824218 29.835938-10.769531 13.265625-.054687 24.636719 4.898437 30.015625 10.949219 2.535156 2.789062 6.851563 2.996094 9.640625.460937 2.792969-2.535156 3-6.851562.460938-9.640625zm0 0" fill="#54596e"/><path d="m238.933594 287.171875c0 7.542969-6.113282 13.65625-13.652344 13.65625-7.542969 0-13.65625-6.113281-13.65625-13.65625 0-7.539063 6.113281-13.652344 13.65625-13.652344 7.539062 0 13.652344 6.113281 13.652344 13.652344zm0 0" fill="#54596e"/><path d="m361.8125 287.171875c0 7.542969-6.113281 13.65625-13.652344 13.65625-7.539062 0-13.652344-6.113281-13.652344-13.65625 0-7.539063 6.113282-13.652344 13.652344-13.652344 7.539063 0 13.652344 6.113281 13.652344 13.652344zm0 0" fill="#54596e"/><path d="m361.8125 328.132812c0 7.542969-6.113281 13.652344-13.652344 13.652344-7.539062 0-13.652344-6.109375-13.652344-13.652344 0-7.539062 6.113282-13.652343 13.652344-13.652343 7.539063 0 13.652344 6.113281 13.652344 13.652343zm0 0" fill="#adadad"/><path d="m238.933594 328.132812c0 7.542969-6.113282 13.652344-13.652344 13.652344-7.542969 0-13.65625-6.109375-13.65625-13.652344 0-7.539062 6.113281-13.652343 13.65625-13.652343 7.539062 0 13.652344 6.113281 13.652344 13.652343zm0 0" fill="#adadad"/></svg>