<svg height="416pt" viewBox="-10 0 416 416.43179" width="416pt" xmlns="http://www.w3.org/2000/svg"><path d="m122.355469 379.832031c-28.640625 3.75-47.042969 9.578125-47.042969 16.121094 0 11.304687 55.015625 20.480469 122.875 20.480469 67.867188 0 122.886719-9.175782 122.886719-20.480469 0-6.542969-18.402344-12.371094-47.046875-16.121094-23.339844 10.328125-48.957032 16.117188-75.839844 16.113281-.003906 0-.011719 0-.019531 0-26.867188 0-52.476563-5.789062-75.8125-16.113281" fill="#eeeef0"/><path d="m389.335938 190.898438c0-105.566407-85.574219-184.066407-191.148438-184.066407-105.5625 0-191.140625 78.496094-191.140625 184.066407 0 105.5625 85.578125 198.222656 191.140625 198.222656 105.574219 0 191.148438-92.660156 191.148438-198.222656" fill="#9af43b"/><path d="m389.335938 190.898438h6.828124c.015626-54.648438-22.222656-102.554688-58.109374-136.574219-35.882813-34.046875-85.386719-54.324219-139.867188-54.324219-54.476562 0-103.976562 20.277344-139.855469 54.324219-35.886719 34.019531-58.132812 81.921875-58.117187 136.574219.011718 54.644531 22.121094 105.824218 57.871094 143.402343 35.730468 37.578125 85.289062 61.652344 140.101562 61.644531 54.820312.007813 104.382812-24.066406 140.113281-61.644531 35.738281-37.582031 57.855469-88.761719 57.863281-143.402343h-13.652343c.007812 50.921874-20.664063 98.851562-54.105469 133.992187-33.449219 35.144531-79.464844 57.40625-130.21875 57.40625-50.746094 0-96.757812-22.261719-130.210938-57.40625-33.441406-35.140625-54.109374-83.070313-54.105468-133.992187.015625-50.921876 20.566406-95.054688 53.859375-126.671876 33.300781-31.59375 79.375-50.566406 130.457031-50.574218 51.09375.007812 97.164062 18.980468 130.464844 50.574218 33.292968 31.613282 53.84375 75.75 53.859375 126.671876z" fill="#54596e"/><path d="m380.917969 167.382812c-11.722657 91.421876-89.035157 167.125-182.730469 167.125-93.691406 0-171-75.703124-182.722656-167.125-1.011719 7.714844-1.589844 15.597657-1.59375 23.664063.035156 50.867187 20.699218 98.738281 54.105468 133.839844 33.453126 35.148437 79.464844 57.410156 130.210938 57.410156 50.753906 0 96.769531-22.261719 130.21875-57.410156 33.40625-35.101563 54.074219-82.972657 54.105469-133.839844-.003907-8.066406-.585938-15.945313-1.59375-23.664063" fill="#93e440"/><path d="m13.871094 191.046875v.101563c0 101.796874 82.519531 191.148437 184.316406 191.148437-50.746094 0-96.757812-22.261719-130.210938-57.410156-33.40625-35.101563-54.070312-82.972657-54.105468-133.839844m368.640625 0c-.03125 50.867187-20.699219 98.738281-54.105469 133.839844-33.449219 35.148437-79.464844 57.410156-130.21875 57.410156 101.800781 0 184.324219-89.351563 184.324219-191.148437 0-.035157 0-.066407 0-.101563" fill="#54596e"/><path d="m273.285156 133.121094c0-13.195313-7.640625-23.894532-17.066406-23.894532s-17.066406 10.699219-17.066406 23.894532c0 13.195312 7.640625 23.894531 17.066406 23.894531s17.066406-10.699219 17.066406-23.894531zm0 0" fill="#54596e"/><path d="m157.230469 133.121094c0-13.195313-7.640625-23.894532-17.066407-23.894532-9.425781 0-17.066406 10.699219-17.066406 23.894532 0 13.195312 7.640625 23.894531 17.066406 23.894531 9.425782 0 17.066407-10.699219 17.066407-23.894531zm0 0" fill="#54596e"/><g fill="#fff"><path d="m109.445312 259.414062h177.492188v-13.652343h-177.492188"/><path d="m129.925781 232.109375h20.476563v20.480469h-20.476563zm0 0"/><path d="m150.402344 252.589844h20.480468v20.480468h-20.480468zm0 0"/><path d="m170.882812 232.109375h20.480469v20.480469h-20.480469zm0 0"/><path d="m211.84375 232.109375h20.480469v20.480469h-20.480469zm0 0"/><path d="m252.804688 232.109375h20.480468v20.480469h-20.480468zm0 0"/><path d="m191.363281 252.589844h20.480469v20.480468h-20.480469zm0 0"/><path d="m232.324219 252.589844h20.480469v20.480468h-20.480469zm0 0"/></g><path d="m387.824219 324.511719-28.960938 28.960937-72.410156-82.0625 19.308594-19.304687zm0 0" fill="#ddd"/><path d="m307.417969 259.414062c0 7.542969-6.113281 13.65625-13.652344 13.65625-7.542969 0-13.65625-6.113281-13.65625-13.65625 0-7.539062 6.113281-13.652343 13.65625-13.652343 7.539063 0 13.652344 6.113281 13.652344 13.652343zm0 0" fill="#ddd"/></svg>