<svg height="435pt" viewBox="-20 0 435 435.48672" width="435pt" xmlns="http://www.w3.org/2000/svg"><path d="m274.039062 398.890625c-23.335937 10.324219-48.949218 16.109375-75.824218 16.109375s-52.492188-5.785156-75.832032-16.109375c-28.648437 3.746094-47.050781 9.574219-47.050781 16.113281 0 11.3125 55.015625 20.484375 122.882813 20.484375 67.859375 0 122.878906-9.171875 122.878906-20.484375-.003906-6.539062-18.40625-12.367187-47.054688-16.113281" fill="#eeeef0"/><path d="m389.359375 209.949219c0-105.5625-85.582031-184.0625-191.144531-184.0625-105.570313 0-191.148438 78.5-191.148438 184.0625 0 105.570312 85.578125 198.226562 191.148438 198.226562 105.5625.003907 191.144531-92.652343 191.144531-198.226562" fill="#fff35f"/><path d="m389.359375 209.949219h6.824219c.019531-54.648438-22.21875-102.546875-58.109375-136.574219-35.882813-34.046875-85.378907-54.320312-139.859375-54.316406-54.480469-.003906-103.976563 20.269531-139.859375 54.316406-35.890625 34.027344-58.132813 81.929688-58.113281 136.574219.007812 54.644531 22.121093 105.832031 57.867187 143.410156 35.734375 37.574219 85.289063 61.640625 140.109375 61.640625 54.8125 0 104.371094-24.066406 140.101562-61.640625 35.746094-37.582031 57.859376-88.765625 57.867188-143.410156h-13.65625c.011719 50.925781-20.664062 98.859375-54.105469 134-33.449219 35.140625-79.464843 57.402343-130.210937 57.402343-50.753906 0-96.769532-22.261718-130.21875-57.402343-33.441406-35.140625-54.117188-83.074219-54.105469-134 .019531-50.921875 20.566406-95.050781 53.859375-126.667969 33.300781-31.589844 79.371094-50.570312 130.464844-50.570312 51.085937 0 97.160156 18.980468 130.457031 50.570312 33.292969 31.613281 53.84375 75.746094 53.859375 126.667969z" fill="#54596e"/><path d="m380.941406 186.4375c-11.722656 91.421875-89.035156 167.128906-182.726562 167.128906-93.695313 0-171.007813-75.707031-182.730469-167.128906-1.007813 7.71875-1.585937 15.605469-1.589844 23.671875.03125 50.863281 20.699219 98.734375 54.101563 133.839844 33.191406 34.867187 78.746094 57.054687 129.03125 57.398437h.207031c.328125.003906.65625.003906.980469.003906.332031 0 .664062 0 .996094-.003906h.195312c50.277344-.34375 95.832031-22.53125 129.023438-57.398437 33.402343-35.105469 54.070312-82.976563 54.101562-133.839844-.003906-8.070313-.582031-15.953125-1.589844-23.671875" fill="#eee361"/><path d="m197.234375 401.347656c.328125.003906.652344.003906.980469.003906-.328125 0-.652344 0-.980469-.003906m1.972656 0c-.328125.003906-.660156.003906-.992187.003906.328125 0 .664062 0 .992187-.003906m-185.316406-191.238281v.09375c0 101.398437 81.878906 190.449219 183.132813 191.144531-50.28125-.34375-95.839844-22.53125-129.027344-57.398437-33.40625-35.105469-54.070313-82.976563-54.105469-133.839844m368.640625 0c-.03125 50.863281-20.699219 98.734375-54.101562 133.839844-33.191407 34.867187-78.75 57.054687-129.023438 57.398437 101.246094-.695312 183.125-89.746094 183.125-191.144531 0-.03125 0-.066406 0-.09375" fill="#54596e"/><path d="m143.597656 278.472656c0 30.160156 24.453125 54.613282 54.613282 54.613282 30.160156 0 54.613281-24.453126 54.613281-54.613282zm0 0" fill="#54596e"/><path d="m143.597656 278.472656h-6.824218c.003906 33.933594 27.503906 61.433594 61.4375 61.4375 33.933593-.003906 61.433593-27.503906 61.441406-61.4375 0-1.800781-.730469-3.558594-2-4.828125-1.269532-1.269531-3.027344-2-4.824219-2h-109.226563c-1.796874 0-3.558593.726563-4.828124 2-1.273438 1.269531-2 3.027344-2 4.828125h6.824218v6.824219h109.226563v-6.824219h-6.824219c-.003906 13.214844-5.339844 25.121094-14 33.789063-8.667969 8.65625-20.570312 13.992187-33.789062 13.996093-13.214844-.003906-25.121094-5.339843-33.789063-13.996093-8.660156-8.667969-13.992187-20.574219-14-33.789063h-6.824219v6.824219zm0 0" fill="#54596e"/><path d="m157.25 298.953125h81.921875c3.769531 0 6.828125-3.058594 6.828125-6.828125 0-3.773438-3.058594-6.828125-6.828125-6.828125h-81.921875c-3.769531 0-6.824219 3.054687-6.824219 6.828125 0 3.769531 3.054688 6.828125 6.824219 6.828125" fill="#fff"/><path d="m334.746094 210.203125c0 18.851563-15.28125 34.136719-34.132813 34.136719-18.851562 0-34.136719-15.285156-34.136719-34.136719 0-18.847656 15.285157-34.132813 34.136719-34.132813 18.851563 0 34.132813 15.285157 34.132813 34.132813zm0 0" fill="#54596e"/><path d="m297.199219 220.445312c0 5.65625-4.585938 10.238282-10.242188 10.238282-5.652343 0-10.238281-4.582032-10.238281-10.238282s4.585938-10.242187 10.238281-10.242187c5.65625 0 10.242188 4.585937 10.242188 10.242187zm0 0" fill="#fff"/><path d="m334.746094 193.136719c0 9.425781-7.640625 17.066406-17.066406 17.066406-9.425782 0-17.066407-7.640625-17.066407-17.066406s7.640625-17.066407 17.066407-17.066407c9.425781 0 17.066406 7.640626 17.066406 17.066407zm0 0" fill="#fff"/><path d="m129.945312 210.203125c0 18.851563-15.28125 34.136719-34.132812 34.136719s-34.132812-15.285156-34.132812-34.136719c0-18.847656 15.28125-34.132813 34.132812-34.132813s34.132812 15.285157 34.132812 34.132813zm0 0" fill="#54596e"/><path d="m92.398438 220.445312c0 5.65625-4.585938 10.238282-10.238282 10.238282-5.65625 0-10.242187-4.582032-10.242187-10.238282s4.585937-10.242187 10.242187-10.242187c5.652344 0 10.238282 4.585937 10.238282 10.242187zm0 0" fill="#fff"/><path d="m129.945312 193.136719c0 9.425781-7.640624 17.066406-17.066406 17.066406-9.425781 0-17.066406-7.640625-17.066406-17.066406s7.640625-17.066407 17.066406-17.066407c9.425782 0 17.066406 7.640626 17.066406 17.066407zm0 0" fill="#fff"/><path d="m209.179688 104.632812c-13.328126-13.328124-131.488282-109.875-144.816407-96.542968-13.332031 13.332031 83.214844 131.488281 96.539063 144.816406 13.335937 13.332031 34.949218 13.332031 48.273437 0 13.335938-13.328125 13.335938-34.941406.003907-48.273438zm0 0" fill="#fff"/><g fill="#54596e"><path d="m209.179688 104.632812 4.828124-4.824218c-1.835937-1.828125-4.851562-4.539063-9.015624-8.128906-14.5-12.5-42.335938-35.050782-69.410157-54.632813-13.539062-9.789063-26.867187-18.824219-38.351562-25.523437-5.75-3.351563-11.03125-6.121094-15.785157-8.128907-4.792968-1.984375-8.902343-3.3398435-13.265624-3.394531-1.375 0-2.820313.15625-4.324219.640625-1.496094.480469-3.066407 1.351563-4.332031 2.636719l.019531-.019532c-1.273438 1.261719-2.140625 2.824219-2.621094 4.316407-.484375 1.5-.640625 2.945312-.644531 4.328125.011718 2.511718.507812 4.886718 1.25 7.398437 2.824218 9.265625 9.523437 21.023438 18.273437 34.585938 13.117188 20.21875 30.851563 43.804687 46.460938 63.527343 7.800781 9.859376 15.066406 18.738282 20.953125 25.734376 5.917968 7.019531 10.324218 12.03125 12.863281 14.582031 7.984375 7.988281 18.507813 12.003906 28.96875 11.996093 10.460937.007813 20.980469-4.011718 28.960937-11.996093 7.984376-7.980469 12.003907-18.503907 12-28.964844.007813-10.460937-4.015624-20.984375-12.003906-28.964844l-4.824218 4.832031-4.824219 4.828126c5.34375 5.34375 7.988281 12.292968 7.996093 19.308593-.007812 7.007813-2.652343 13.957031-8 19.308594-5.347656 5.34375-12.296874 7.988281-19.304687 8-7.011719-.011719-13.960937-2.65625-19.3125-8-1.289063-1.285156-3.976563-4.253906-7.4375-8.277344-12.191406-14.140625-34.648437-41.863281-53.90625-68.496093-9.628906-13.316407-18.472656-26.382813-24.792969-37.230469-3.160156-5.414063-5.6875-10.28125-7.347656-14.21875-1.691406-3.894531-2.375-7.007813-2.316406-7.953125l.011718-.242188-1.324218-.183594 1.203125.539063.121093-.355469-1.324218-.183594 1.203125.539063-2.765625-1.234375 2.132812 2.136719.632813-.902344-2.765625-1.234375 2.132812 2.136719.019532-.019531-2.019532-2.003907.890625 2.730469 1.128907-.726562-2.019532-2.003907.890625 2.730469-.265625-.8125.117188.851562.148437-.039062-.265625-.8125.117188.851562.246094-.011718c.523437-.011719 1.804687.160156 3.492187.675781 6.484375 1.882813 18.082031 8.183594 31.066406 16.648437 19.59375 12.703126 42.988281 30.273438 62.484375 45.710938 9.75 7.71875 18.539063 14.90625 25.410156 20.691406 6.839844 5.757813 11.886719 10.234375 13.71875 12.078125zm0 0"/><path d="m152.375 148.9375c.851562.046875 1.824219.074219 2.914062.074219 6.480469-.035157 17.472657-.898438 27.785157-6.425781 5.132812-2.773438 10.09375-6.847657 13.699219-12.597657 3.621093-5.742187 5.742187-13.042969 5.730468-21.667969 0-5.183593-.742187-10.863281-2.300781-17.113281-.917969-3.660156-4.625-5.878906-8.28125-4.964843-3.65625.914062-5.878906 4.621093-4.964844 8.28125 1.332031 5.339843 1.890625 9.917968 1.890625 13.796874-.015625 6.480469-1.492187 10.96875-3.636718 14.410157-3.199219 5.113281-8.382813 8.292969-14.199219 10.226562-5.765625 1.917969-11.914063 2.410157-15.722657 2.402344-.871093 0-1.613281-.023437-2.171874-.050781-3.765626-.207032-6.984376 2.679687-7.1875 6.445312-.203126 3.761719 2.679687 6.980469 6.445312 7.183594zm0 0"/><path d="m134.503906 124.320312c.484375-.078124 10.023438-.960937 20.246094-6.285156 5.097656-2.675781 10.421875-6.535156 14.550781-12.207031 4.136719-5.648437 6.878907-13.136719 6.851563-22.027344 0-4.121093-.5625-8.539062-1.742188-13.265625-.917968-3.65625-4.625-5.878906-8.28125-4.964844-3.65625.914063-5.878906 4.621094-4.964844 8.28125.941407 3.769532 1.332032 7.070313 1.332032 9.949219-.027344 6.214844-1.722656 10.492188-4.238282 14-3.75 5.226563-9.972656 8.65625-15.476562 10.585938-2.730469.96875-5.226562 1.570312-6.996094 1.917969-.882812.175781-1.582031.285156-2.042968.351562l-.496094.066406-.097656.011719.121093 1.097656-.109375-1.101562-.011718.003906.121093 1.097656-.109375-1.101562c-3.753906.371093-6.492187 3.714843-6.121094 7.46875.371094 3.753906 3.714844 6.492187 7.464844 6.121093zm0 0"/><path d="m112.121094 99.6875c.519531-.050781 9.25-.308594 18.742187-4.914062 4.730469-2.316407 9.714844-5.824219 13.542969-11.160157 3.839844-5.3125 6.304688-12.410156 6.277344-20.898437 0-4.289063-.597656-8.941406-1.859375-13.992188-.917969-3.65625-4.625-5.878906-8.28125-4.964844-3.65625.914063-5.878907 4.621094-4.964844 8.28125 1.03125 4.117188 1.449219 7.660157 1.449219 10.675782-.023438 5.988281-1.5625 9.894531-3.71875 12.945312-3.210938 4.539063-8.523438 7.300782-13.335938 8.777344-2.382812.738281-4.570312 1.148438-6.113281 1.367188-.773437.109374-1.382813.171874-1.777344.207031l-.421875.03125-.074218.003906.101562 2.066406-.078125-2.066406h-.023437l.101562 2.066406-.078125-2.066406c-3.769531.140625-6.710937 3.308594-6.566406 7.078125.140625 3.765625 3.3125 6.703125 7.078125 6.5625zm0 0"/><path d="m94.941406 75.496094c.507813-.085938 7.441406-.847656 15.011719-5.136719 3.773437-2.15625 7.746094-5.277344 10.808594-9.808594 3.078125-4.515625 5.074219-10.433593 5.050781-17.328125 0-3.4375-.46875-7.113281-1.457031-11.039062-.917969-3.660156-4.625-5.878906-8.28125-4.957032-3.65625.914063-5.878907 4.625-4.957031 8.28125.742187 2.96875 1.042968 5.527344 1.042968 7.714844-.023437 4.394532-1.128906 7.304688-2.710937 9.6875-2.355469 3.539063-6.320313 5.941406-9.925781 7.335938-1.78125.695312-3.421876 1.136718-4.570313 1.390625l-1.304687.253906-.292969.042969-.007813.003906c-3.746094.4375-6.425781 3.832031-5.984375 7.578125.441407 3.742187 3.832031 6.421875 7.578125 5.980469zm0 0"/></g></svg>