<svg height="416pt" viewBox="-10 0 416 416.42667" width="416pt" xmlns="http://www.w3.org/2000/svg"><path d="m274.015625 379.835938c-23.339844 10.328124-48.953125 16.113281-75.828125 16.113281-26.878906 0-52.488281-5.789063-75.828125-16.113281-28.648437 3.746093-47.050781 9.570312-47.050781 16.113281 0 11.3125 55.019531 20.476562 122.878906 20.476562 67.863281 0 122.878906-9.164062 122.878906-20.476562 0-6.542969-18.402344-12.367188-47.050781-16.113281" fill="#eeeef0"/><path d="m389.335938 190.894531c0-105.566406-85.578126-184.066406-191.148438-184.066406-105.566406 0-191.144531 78.5-191.144531 184.066406 0 105.566407 85.578125 198.226563 191.144531 198.226563 105.570312 0 191.148438-92.660156 191.148438-198.226563" fill="#fff35f"/><path d="m389.335938 190.894531h6.828124c.015626-54.644531-22.226562-102.546875-58.117187-136.574219-35.882813-34.050781-85.382813-54.32421825-139.859375-54.320312-54.480469-.00390625-103.980469 20.269531-139.855469 54.320312-35.894531 34.027344-58.132812 81.929688-58.117187 136.574219.011718 54.644531 22.117187 105.828125 57.867187 143.40625 35.730469 37.578125 85.285157 61.648438 140.105469 61.648438 54.8125 0 104.375-24.070313 140.105469-61.648438 35.742187-37.582031 57.855469-88.761719 57.867187-143.40625h-13.652344c.011719 50.921875-20.671874 98.851563-54.105468 134-33.449219 35.144531-79.464844 57.398438-130.214844 57.398438-50.753906 0-96.765625-22.253907-130.210938-57.402344-33.445312-35.144531-54.117187-83.074219-54.105468-134 .015625-50.914063 20.5625-95.046875 53.855468-126.667969 33.296876-31.589844 79.371094-50.566406 130.460938-50.574218 51.085938.007812 97.160156 18.984374 130.460938 50.574218 33.292968 31.621094 53.84375 75.753906 53.859374 126.671875z" fill="#54596e"/><path d="m380.917969 167.382812c-11.726563 91.417969-89.035157 167.128907-182.730469 167.128907s-171.003906-75.710938-182.726562-167.128907c-1.007813 7.714844-1.585938 15.597657-1.589844 23.667969.03125 50.863281 20.699218 98.730469 54.105468 133.839844 33.054688 34.738281 78.382813 56.878906 128.429688 57.390625.011719.003906.007812.003906.023438.003906.1875 0 .378906.003906.566406.003906.398437.003907.792968.003907 1.191406.003907s.792969 0 1.1875-.003907c50.277344-.34375 95.839844-22.527343 129.023438-57.398437 33.402343-35.109375 54.074218-82.976563 54.105468-133.839844-.003906-8.070312-.582031-15.953125-1.585937-23.667969" fill="#eee361"/><path d="m196.429688 382.285156c.183593 0 .382812.003906.566406.003906-.1875 0-.378906-.003906-.566406-.003906m186.078124-191.234375c-.035156 50.863281-20.703124 98.730469-54.105468 133.839844-33.1875 34.871094-78.746094 57.054687-129.023438 57.398437 101.242188-.695312 183.128906-89.742187 183.128906-191.140624 0-.035157 0-.066407 0-.097657m-368.636718 0v.097657c0 101.203124 81.558594 190.097656 182.535156 191.132812-50.046875-.511719-95.375-22.652344-128.429688-57.390625-33.40625-35.109375-54.074218-82.976563-54.105468-133.839844" fill="#54596e"/><path d="m165.730469 237.503906c19.09375 21.804688 52.441406 35.511719 90.246093 35.5625 38.257813-.054687 71.957032-14.085937 90.925782-36.359375 2.4375-2.878906 2.078125-7.183593-.800782-9.621093-2.875-2.4375-7.183593-2.078126-9.617187.800781-15.398437 18.328125-45.601563 31.585937-80.507813 31.527343-34.488281.054688-64.394531-12.882812-79.949218-30.875-2.476563-2.847656-6.789063-3.144531-9.628906-.667968-2.84375 2.476562-3.140626 6.789062-.667969 9.632812zm0 0" fill="#54596e"/><path d="m198.1875 191.148438c0-7.539063-15.28125-13.652344-34.132812-13.652344-18.851563 0-34.132813 6.113281-34.132813 13.652344 0 7.539062 15.28125 13.652343 34.132813 13.652343 18.851562 0 34.132812-6.113281 34.132812-13.652343zm0 0" fill="#f9bbed"/><path d="m375.679688 191.148438c0-7.539063-15.28125-13.652344-34.132813-13.652344s-34.132813 6.113281-34.132813 13.652344c0 7.539062 15.28125 13.652343 34.132813 13.652343s34.132813-6.113281 34.132813-13.652343zm0 0" fill="#f9bbed"/><g fill="#54596e"><path d="m334.71875 143.363281c0 7.539063-6.113281 13.652344-13.652344 13.652344-7.539062 0-13.652344-6.113281-13.652344-13.652344 0-7.542969 6.113282-13.65625 13.652344-13.65625 7.539063 0 13.652344 6.113281 13.652344 13.65625zm0 0"/><path d="m211.839844 143.363281c0 7.539063-6.113282 13.652344-13.652344 13.652344-7.542969 0-13.652344-6.113281-13.652344-13.652344 0-7.542969 6.109375-13.65625 13.652344-13.65625 7.539062 0 13.652344 6.113281 13.652344 13.65625zm0 0"/></g></svg>