<svg height="416pt" viewBox="-10 0 416 416.42667" width="416pt" xmlns="http://www.w3.org/2000/svg"><path d="m122.355469 379.832031c-28.648438 3.75-47.050781 9.574219-47.050781 16.113281 0 11.3125 55.007812 20.480469 122.875 20.480469 67.871093 0 122.882812-9.167969 122.882812-20.480469 0-6.539062-18.402344-12.363281-47.050781-16.113281-23.335938 10.328125-48.953125 16.113281-75.832031 16.113281-26.871094 0-52.488282-5.785156-75.824219-16.113281" fill="#eeeef0"/><path d="m389.332031 190.894531c0-105.566406-85.582031-184.0625-191.152343-184.0625-105.558594 0-191.140626 78.496094-191.140626 184.0625 0 105.570313 85.582032 198.230469 191.140626 198.230469 105.570312 0 191.152343-92.660156 191.152343-198.230469" fill="#fff35f"/><path d="m389.332031 190.894531h6.824219c.019531-54.648437-22.21875-102.550781-58.109375-136.574219-35.882813-34.050781-85.382813-54.3281245-139.867187-54.320312-54.476563-.0078125-103.972657 20.273438-139.855469 54.320312-35.890625 34.023438-58.128907 81.925782-58.109375 136.574219.003906 54.648438 22.113281 105.828125 57.863281 143.40625 35.730469 37.574219 85.289063 61.644531 140.101563 61.644531 54.824218 0 104.378906-24.070312 140.113281-61.644531 35.738281-37.578125 57.855469-88.757812 57.863281-143.40625h-13.648438c.003907 50.921875-20.675781 98.855469-54.109374 133.996094-33.449219 35.144531-79.464844 57.402344-130.21875 57.402344-50.746094 0-96.757813-22.257813-130.210938-57.402344-33.441406-35.140625-54.113281-83.074219-54.105469-133.996094.015625-50.921875 20.570313-95.058593 53.855469-126.667969 33.304688-31.59375 79.378906-50.574218 130.460938-50.574218 51.09375 0 97.164062 18.980468 130.46875 50.574218 33.289062 31.609376 53.839843 75.746094 53.859374 126.667969z" fill="#54596e"/><path d="m380.910156 167.382812c-11.71875 91.417969-89.035156 167.128907-182.730468 167.128907-93.691407 0-171-75.710938-182.722657-167.128907-1.003906 7.714844-1.589843 15.597657-1.59375 23.671876.035157 50.859374 20.703125 98.730468 54.105469 133.835937 33.453125 35.144531 79.464844 57.402344 130.210938 57.402344 50.753906 0 96.769531-22.257813 130.21875-57.402344 33.402343-35.105469 54.074218-82.972656 54.109374-133.839844-.003906-8.070312-.589843-15.953125-1.597656-23.667969" fill="#eee361"/><g fill="#54596e"><path d="m13.863281 191.054688v.09375c0 101.792968 82.519531 191.144531 184.320313 191.144531-50.746094 0-96.761719-22.257813-130.214844-57.402344-33.402344-35.105469-54.070312-82.976563-54.105469-133.835937m368.644531-.003907c-.035156 50.867188-20.707031 98.734375-54.109374 133.839844-33.449219 35.144531-79.464844 57.402344-130.21875 57.402344 101.804687 0 184.328124-89.351563 184.328124-191.144531 0-.03125 0-.066407 0-.097657"/><path d="m143.570312 218.453125c0 30.164063 24.453126 54.613281 54.613282 54.613281s54.613281-24.449218 54.613281-54.613281zm0 0"/><path d="m143.570312 218.453125h-6.824218c.003906 33.933594 27.503906 61.433594 61.4375 61.4375 33.933594-.003906 61.4375-27.503906 61.441406-61.4375 0-1.796875-.730469-3.554687-2-4.828125-1.273438-1.269531-3.03125-2-4.828125-2h-109.226563c-1.796874 0-3.554687.730469-4.828124 2-1.269532 1.273438-1.996094 3.03125-1.996094 4.828125h6.824218v6.828125h109.226563v-6.828125h-6.824219c-.003906 13.214844-5.339844 25.121094-14 33.789063-8.667968 8.660156-20.570312 13.992187-33.789062 13.996093-13.214844-.003906-25.117188-5.335937-33.789063-13.996093-8.65625-8.667969-13.992187-20.574219-13.996093-33.789063h-6.828126v6.828125zm0 0"/><path d="m280.105469 143.359375c0-7.539063-6.117188-13.65625-13.65625-13.65625-7.539063 0-13.65625 6.117187-13.65625 13.65625s6.117187 13.65625 13.65625 13.65625c7.539062 0 13.65625-6.117187 13.65625-13.65625"/><path d="m280.105469 143.359375h6.824219c-.007813-11.316406-9.164063-20.480469-20.480469-20.480469-11.316407 0-20.472657 9.164063-20.480469 20.480469.007812 11.316406 9.164062 20.472656 20.480469 20.480469 11.316406-.007813 20.472656-9.164063 20.480469-20.480469h-13.648438c-.015625 3.765625-3.0625 6.816406-6.832031 6.824219-3.761719-.007813-6.816407-3.058594-6.824219-6.824219.007812-3.761719 3.058594-6.816406 6.824219-6.832031 3.769531.015625 6.820312 3.070312 6.832031 6.832031z"/><path d="m334.71875 143.359375h6.824219c-.007813-33.929687-27.507813-61.4375-61.4375-61.4375-33.933594 0-61.4375 27.503906-61.4375 61.4375s27.503906 61.4375 61.4375 61.4375c33.929687 0 61.429687-27.503906 61.4375-61.4375h-13.648438c-.007812 13.21875-5.34375 25.121094-14 33.789063-8.671875 8.65625-20.578125 13.992187-33.792969 14-13.21875-.007813-25.117187-5.34375-33.789062-14-8.65625-8.667969-13.992188-20.570313-14-33.789063.007812-13.21875 5.34375-25.121094 14-33.789063 8.671875-8.65625 20.570312-13.992187 33.789062-14 13.214844.007813 25.121094 5.34375 33.792969 14 8.65625 8.667969 13.992188 20.570313 14 33.789063z"/></g><path d="m266.449219 163.839844c-11.316407-.007813-20.472657-9.164063-20.480469-20.476563.007812-11.316406 9.164062-20.480469 20.480469-20.480469 11.316406 0 20.472656 9.164063 20.480469 20.480469h-6.824219 6.824219c-.007813 11.3125-9.164063 20.46875-20.480469 20.476563m13.65625-68.269532c-13.21875.007813-25.121094 5.34375-33.789063 14-8.65625 8.671876-13.996094 20.570313-14 33.792969.003906 13.214844 5.339844 25.117188 14 33.789063 8.667969 8.65625 20.570313 13.992187 33.789063 13.996094 13.210937-.003907 25.121093-5.339844 33.789062-13.996094 8.660157-8.671875 13.992188-20.574219 14-33.789063-.007812-13.222656-5.339843-25.121093-14-33.792969-8.667969-8.65625-20.578125-13.992187-33.789062-14" fill="#fff89f"/><path d="m286.929688 143.359375c0 11.3125-9.167969 20.480469-20.480469 20.480469-11.308594 0-20.480469-9.167969-20.480469-20.480469 0-11.308594 9.171875-20.480469 20.480469-20.480469 11.3125 0 20.480469 9.171875 20.480469 20.480469zm0 0" fill="#989ba8"/><path d="m232.316406 143.359375c0 26.394531 21.394532 47.789063 47.789063 47.789063-13.21875-.007813-25.121094-5.34375-33.789063-14-8.65625-8.667969-13.996094-20.570313-14-33.789063m95.578125 0c-.007812 13.21875-5.339843 25.121094-14 33.789063-8.667969 8.65625-20.578125 13.992187-33.789062 14 26.394531 0 47.789062-21.394532 47.789062-47.789063m-47.789062-47.789063c-26.394531 0-47.789063 21.398438-47.789063 47.792969.007813-13.222656 5.34375-25.121093 14-33.792969 8.667969-8.65625 20.570313-13.992187 33.789063-14 13.210937.007813 25.121093 5.34375 33.789062 14 8.660157 8.671876 13.992188 20.570313 14 33.792969 0-26.394531-21.394531-47.792969-47.789062-47.792969" fill="#989ba8"/><path d="m116.265625 143.359375c0-7.539063 6.113281-13.65625 13.65625-13.65625 7.539063 0 13.644531 6.117187 13.644531 13.65625s-6.109375 13.65625-13.644531 13.65625c-7.539063 0-13.65625-6.117187-13.65625-13.65625" fill="#54596e"/><path d="m116.265625 143.359375h6.824219c.007812-3.761719 3.058594-6.816406 6.832031-6.832031 3.761719.015625 6.816406 3.070312 6.824219 6.832031-.007813 3.765625-3.0625 6.816406-6.824219 6.824219-3.773437-.007813-6.828125-3.058594-6.832031-6.824219h-13.648438c0 11.316406 9.164063 20.472656 20.480469 20.480469 11.304687-.007813 20.472656-9.164063 20.476563-20.480469-.003907-11.316406-9.171876-20.480469-20.476563-20.480469-11.316406 0-20.480469 9.164063-20.480469 20.480469z" fill="#54596e"/><path d="m61.652344 143.359375h6.824218c.007813-13.21875 5.34375-25.121094 14-33.789063 8.667969-8.65625 20.570313-13.992187 33.789063-14 13.214844.007813 25.121094 5.34375 33.792969 14 8.65625 8.667969 13.992187 20.570313 14 33.789063-.007813 13.21875-5.34375 25.121094-14 33.789063-8.671875 8.65625-20.578125 13.992187-33.792969 14-13.21875-.007813-25.121094-5.34375-33.789063-14-8.65625-8.667969-13.992187-20.570313-14-33.789063h-13.648437c0 33.933594 27.503906 61.4375 61.4375 61.4375 33.929687 0 61.4375-27.503906 61.4375-61.4375s-27.503906-61.4375-61.4375-61.4375-61.4375 27.503906-61.4375 61.4375z" fill="#54596e"/><path d="m109.441406 143.359375c0-11.316406 9.164063-20.480469 20.480469-20.480469 11.304687 0 20.472656 9.164063 20.476563 20.480469-.003907 11.316406-9.171876 20.472656-20.476563 20.480469-11.316406-.007813-20.480469-9.164063-20.480469-20.480469h6.824219zm6.824219-47.789063c-13.21875.007813-25.121094 5.34375-33.789063 14-8.660156 8.671876-13.996093 20.570313-14 33.792969.003907 13.214844 5.339844 25.117188 14 33.789063 8.667969 8.65625 20.570313 13.992187 33.789063 13.996094 13.210937-.003907 25.121094-5.339844 33.789063-13.996094 8.660156-8.671875 13.992187-20.574219 14-33.789063-.007813-13.222656-5.339844-25.121093-14-33.792969-8.667969-8.65625-20.578126-13.992187-33.789063-14" fill="#fff89f"/><path d="m150.398438 143.359375c0 11.3125-9.167969 20.480469-20.476563 20.480469-11.3125 0-20.480469-9.167969-20.480469-20.480469 0-11.308594 9.167969-20.480469 20.480469-20.480469 11.308594 0 20.476563 9.171875 20.476563 20.480469zm0 0" fill="#989ba8"/><path d="m68.476562 143.359375c0 26.394531 21.394532 47.789063 47.789063 47.789063-13.21875-.007813-25.121094-5.34375-33.789063-14-8.65625-8.667969-13.996093-20.570313-14-33.789063m95.578126 0c-.007813 13.21875-5.34375 25.121094-14 33.789063-8.671876 8.65625-20.578126 13.992187-33.792969 14 26.398437 0 47.792969-21.394532 47.792969-47.789063m-47.789063-47.789063c-26.394531 0-47.789063 21.398438-47.789063 47.792969.007813-13.222656 5.34375-25.121093 14-33.792969 8.667969-8.65625 20.570313-13.992187 33.789063-14 13.210937.007813 25.121094 5.34375 33.789063 14 8.660156 8.671876 13.992187 20.570313 14 33.792969 0-26.394531-21.394532-47.792969-47.789063-47.792969" fill="#989ba8"/><path d="m116.265625 95.574219h157.011719c3.769531 0 6.828125-3.058594 6.828125-6.828125 0-3.769532-3.058594-6.824219-6.828125-6.824219h-157.011719c-3.769531 0-6.828125 3.054687-6.828125 6.824219 0 3.769531 3.054688 6.828125 6.828125 6.828125" fill="#54596e"/><path d="m170.878906 225.28125h54.613282v27.304688h-54.613282zm0 0" fill="#fff"/><path d="m191.359375 218.453125v40.960937c0 3.769532 3.054687 6.824219 6.824219 6.824219 3.769531 0 6.828125-3.054687 6.828125-6.824219v-40.960937c0-3.773437-3.058594-6.828125-6.828125-6.828125-3.769532 0-6.824219 3.058594-6.824219 6.828125" fill="#54596e"/><path d="m63.578125 122.828125h-1.875c-18.882813.003906-34.179687 15.300781-34.183594 34.183594 0 3.773437 3.054688 6.828125 6.824219 6.828125s6.828125-3.054688 6.828125-6.828125c.019531-11.335938 9.191406-20.511719 20.53125-20.53125h1.875c3.769531 0 6.824219-3.058594 6.824219-6.824219 0-3.769531-3.054688-6.824219-6.824219-6.828125zm0 0" fill="#54596e"/><path d="m332.792969 136.535156h1.871093c11.34375.019532 20.515626 9.195313 20.535157 20.53125 0 3.769532 3.054687 6.828125 6.824219 6.828125 3.773437 0 6.828124-3.058593 6.828124-6.828125-.003906-18.882812-15.300781-34.179687-34.1875-34.183594h-1.871093c-3.773438 0-6.828125 3.054688-6.828125 6.824219s3.054687 6.828125 6.828125 6.828125zm0 0" fill="#54596e"/><path d="m88.957031 225.28125c0 3.769531-3.054687 6.824219-6.824219 6.824219-3.769531 0-6.828124-3.054688-6.828124-6.824219 0-3.773438 3.058593-6.828125 6.828124-6.828125 3.769532 0 6.824219 3.054687 6.824219 6.828125zm0 0" fill="#ff9c9c"/><path d="m123.089844 225.28125c0 3.769531-3.054688 6.824219-6.824219 6.824219s-6.828125-3.054688-6.828125-6.824219c0-3.773438 3.058594-6.828125 6.828125-6.828125s6.824219 3.054687 6.824219 6.828125zm0 0" fill="#ff9c9c"/><path d="m109.4375 245.761719c0 3.769531-3.054688 6.824219-6.824219 6.824219-3.773437 0-6.828125-3.054688-6.828125-6.824219 0-3.773438 3.054688-6.828125 6.828125-6.828125 3.769531 0 6.824219 3.054687 6.824219 6.828125zm0 0" fill="#ff9c9c"/><path d="m321.066406 225.28125c0 3.769531-3.058594 6.824219-6.828125 6.824219s-6.828125-3.054688-6.828125-6.824219c0-3.773438 3.058594-6.828125 6.828125-6.828125s6.828125 3.054687 6.828125 6.828125zm0 0" fill="#ff9c9c"/><path d="m286.933594 225.28125c0 3.769531-3.058594 6.824219-6.828125 6.824219s-6.828125-3.054688-6.828125-6.824219c0-3.773438 3.058594-6.828125 6.828125-6.828125s6.828125 3.054687 6.828125 6.828125zm0 0" fill="#ff9c9c"/><path d="m300.585938 245.761719c0 3.769531-3.058594 6.824219-6.828126 6.824219-3.769531 0-6.824218-3.054688-6.824218-6.824219 0-3.773438 3.054687-6.828125 6.824218-6.828125 3.769532 0 6.828126 3.054687 6.828126 6.828125zm0 0" fill="#ff9c9c"/></svg>