<svg height="418pt" viewBox="-6 0 418 418.18114" width="418pt" xmlns="http://www.w3.org/2000/svg"><path d="m122.226562 381.582031c-28.644531 3.75-47.046874 9.574219-47.046874 16.117188 0 11.308593 55.019531 20.480469 122.886718 20.480469 67.859375 0 122.878906-9.171876 122.878906-20.480469 0-6.542969-18.40625-12.367188-47.046874-16.117188-23.339844 10.332031-48.957032 16.117188-75.832032 16.113281-.011718 0-.015625 0-.023437 0-26.871094 0-52.480469-5.785156-75.816407-16.113281" fill="#eeeef0"/><path d="m389.207031 192.644531c0-105.5625-85.578125-184.066406-191.140625-184.066406-105.570312 0-191.148437 78.503906-191.148437 184.066406 0 105.570313 85.578125 198.230469 191.148437 198.230469 105.5625.003906 191.140625-92.660156 191.140625-198.230469" fill="#fff35f"/><path d="m389.207031 192.644531h6.828125c.019532-54.644531-22.21875-102.542969-58.113281-136.570312-35.882813-34.046875-85.378906-54.328125-139.855469-54.320313-54.484375-.007812-103.984375 20.273438-139.863281 54.320313-35.890625 34.027343-58.1328125 81.925781-58.1132812 136.570312.0078124 54.644531 22.1250002 105.828125 57.8632812 143.40625 35.734375 37.578125 85.292969 61.648438 140.109375 61.644531 54.8125.003907 104.371094-24.066406 140.105469-61.644531 35.746093-37.582031 57.855469-88.761719 57.863281-143.40625h-13.652344c.015625 50.925781-20.664062 98.855469-54.101562 134-33.449219 35.144531-79.464844 57.398438-130.210938 57.40625-50.753906-.007812-96.765625-22.261719-130.21875-57.40625-33.4375-35.144531-54.109375-83.074219-54.105468-134 .015624-50.917969 20.570312-95.050781 53.855468-126.667969 33.304688-31.589843 79.375-50.5625 130.46875-50.570312 51.085938.007812 97.15625 18.980469 130.460938 50.570312 33.292968 31.613282 53.839844 75.75 53.851562 126.667969z" fill="#54596e"/><path d="m380.792969 169.136719c-11.722657 91.417969-89.039063 167.125-182.726563 167.125-93.695312 0-171.011718-75.707031-182.734375-167.125-1.007812 7.714843-1.582031 15.597656-1.589843 23.664062.039062 50.867188 20.703124 98.738281 54.105468 133.84375 33.449219 35.144531 79.464844 57.398438 130.21875 57.40625 50.746094-.007812 96.757813-22.261719 130.210938-57.40625 33.402344-35.105469 54.074218-82.972656 54.101562-133.839843-.003906-8.066407-.578125-15.953126-1.585937-23.667969" fill="#eee361"/><g fill="#54596e"><path d="m382.378906 192.804688c-.027344 50.867187-20.699218 98.734374-54.101562 133.839843-33.449219 35.144531-79.464844 57.398438-130.210938 57.40625 101.796875 0 184.3125-89.351562 184.3125-191.148437 0-.03125 0-.0625 0-.097656m-368.636718-.003907v.101563c0 101.796875 82.527343 191.148437 184.324218 191.148437-50.753906-.007812-96.765625-22.261719-130.21875-57.40625-33.402344-35.105469-54.066406-82.976562-54.105468-133.84375"/><path d="m300.460938 165.59375c-.003907-18.855469-15.277344-34.128906-34.132813-34.132812-18.851563.003906-34.128906 15.277343-34.132813 34.132812 0 3.769531 3.058594 6.828125 6.828126 6.828125 3.769531 0 6.824218-3.058594 6.824218-6.828125.023438-11.308594 9.175782-20.457031 20.480469-20.480469 11.308594.023438 20.460937 9.171875 20.480469 20.480469 0 3.769531 3.058594 6.828125 6.828125 6.828125s6.824219-3.058594 6.824219-6.828125zm0 0"/><path d="m157.101562 165.59375c-.003906-18.855469-15.277343-34.128906-34.132812-34.132812-18.851562.003906-34.128906 15.277343-34.132812 34.132812 0 3.769531 3.054687 6.828125 6.828124 6.828125 3.769532 0 6.824219-3.058594 6.824219-6.828125.019531-11.308594 9.175781-20.457031 20.480469-20.480469 11.308594.023438 20.460938 9.171875 20.480469 20.480469 0 3.769531 3.054687 6.828125 6.828125 6.828125 3.769531 0 6.824218-3.058594 6.824218-6.828125zm0 0"/><path d="m65.023438 233.386719c14.136718 10.695312 33.410156 19.234375 56.152343 25.234375 22.738281 5.980468 48.953125 9.367187 76.886719 9.371094 28.269531-.003907 54.777344-3.472657 77.707031-9.589844 22.929688-6.136719 42.292969-14.859375 56.34375-25.796875 2.972657-2.320313 3.503907-6.609375 1.183594-9.582031-2.320313-2.972657-6.609375-3.5-9.578125-1.179688-11.976562 9.359375-29.835938 17.609375-51.46875 23.367188-21.636719 5.78125-47.042969 9.132812-74.1875 9.128906-26.824219.003906-51.945312-3.269532-73.414062-8.921875-21.464844-5.636719-39.265626-13.707031-51.375-22.910157-3.003907-2.28125-7.289063-1.691406-9.566407 1.316407-2.277343 3.003906-1.6875 7.285156 1.316407 9.5625zm0 0"/></g><path d="m143.449219 192.902344c0-7.542969-15.28125-13.65625-34.132813-13.65625-18.851562 0-34.132812 6.113281-34.132812 13.65625 0 7.539062 15.28125 13.652344 34.132812 13.652344 18.851563 0 34.132813-6.113282 34.132813-13.652344zm0 0" fill="#ff9c9c"/><path d="m314.117188 192.902344c0-7.542969-15.285157-13.65625-34.136719-13.65625-18.847657 0-34.132813 6.113281-34.132813 13.65625 0 7.539062 15.285156 13.652344 34.132813 13.652344 18.851562 0 34.136719-6.113282 34.136719-13.652344zm0 0" fill="#ff9c9c"/><path d="m355.074219 38.164062c-10.050781-10.054687-26.351563-10.054687-36.410157 0-10.050781 10.054688-10.050781 26.351563 0 36.410157l36.410157 36.40625 36.410156-36.40625c10.054687-10.058594 10.054687-26.355469 0-36.410157-10.054687-10.054687-26.355469-10.054687-36.410156 0zm0 0" fill="#ff80c3"/><path d="m355.074219 38.164062 4.828125-4.828124c-6.339844-6.351563-14.71875-9.546876-23.03125-9.539063-8.3125-.007813-16.6875 3.191406-23.03125 9.539063-6.347656 6.339843-9.546875 14.71875-9.542969 23.03125-.007813 8.308593 3.195313 16.683593 9.539063 23.03125l36.414062 36.410156c1.289062 1.289062 3.003906 1.996094 4.824219 1.996094 1.824219 0 3.539062-.707032 4.828125-1.996094l36.410156-36.410156c6.347656-6.34375 9.546875-14.722657 9.539062-23.035157.007813-8.3125-3.191406-16.691406-9.542968-23.03125-6.339844-6.347656-14.71875-9.542969-23.03125-9.535156-8.3125-.007813-16.6875 3.191406-23.03125 9.539063l4.828125 4.828124 4.828125-4.828124-4.828125 4.828124 4.828125 4.824219c3.710937-3.707031 8.511718-5.53125 13.375-5.539062 4.867187.007812 9.667968 1.832031 13.378906 5.539062 3.707031 3.707031 5.535156 8.507813 5.539062 13.375-.007812 4.867188-1.832031 9.667969-5.539062 13.382813l-31.582031 31.578125-31.582031-31.578125c-3.707032-3.714844-5.535157-8.515625-5.542969-13.378906.007812-4.867188 1.835937-9.664063 5.542969-13.378907 3.710937-3.707031 8.511718-5.53125 13.375-5.539062 4.867187.007812 9.667968 1.832031 13.375 5.539062 1.289062 1.289063 3.003906 2 4.828124 2 1.824219 0 3.539063-.710937 4.828126-2zm0 0" fill="#54596e"/><path d="m295.34375 14.839844c-10.683594-10.683594-28.003906-10.683594-38.683594 0-10.683594 10.683594-10.683594 28 0 38.683594l38.683594 38.683593 38.683594-38.683593c10.683594-10.683594 10.683594-28 0-38.683594-10.679688-10.683594-28-10.683594-38.683594 0zm0 0" fill="#ff80c3"/><path d="m295.34375 14.839844 4.828125-4.828125c-6.660156-6.664063-15.449219-10.0195315-24.171875-10.011719-8.726562-.0078125-17.515625 3.347656-24.171875 10.011719-6.660156 6.652343-10.015625 15.441406-10.007813 24.167969-.007812 8.722656 3.347657 17.511718 10.011719 24.167968l38.683594 38.6875c1.289063 1.289063 3.003906 1.996094 4.824219 1.996094 1.824218 0 3.539062-.707031 4.828125-1.996094l38.683593-38.6875c6.660157-6.65625 10.019532-15.445312 10.011719-24.171875.007813-8.722656-3.351562-17.515625-10.015625-24.167969-6.652344-6.660156-15.441406-10.0156245-24.164062-10.007812-8.726563-.0078125-17.515625 3.347656-24.171875 10.011719l4.832031 4.828125 4.828125-4.828125-4.828125 4.828125 4.828125 4.824218c4.023437-4.019531 9.238281-6.003906 14.515625-6.011718 5.273438.007812 10.484375 1.992187 14.511719 6.011718 4.019531 4.019532 6.003906 9.234376 6.011719 14.511719-.007813 5.277344-1.992188 10.492188-6.011719 14.519531l-33.855469 33.855469-33.855469-33.855469c-4.023437-4.027343-6.007812-9.242187-6.015625-14.515624.011719-5.277344 1.992188-10.488282 6.015625-14.515626 4.023438-4.019531 9.234375-6.003906 14.511719-6.011718 5.277344.007812 10.488281 1.992187 14.515625 6.011718 1.289063 1.289063 3.003906 2 4.828125 2s3.539062-.710937 4.828125-2zm0 0" fill="#54596e"/><path d="m218.542969 247.515625h-40.960938c-7.539062 0-13.652343 6.113281-13.652343 13.652344 0 7.539062 6.113281 13.652343 13.652343 13.652343h40.960938c7.539062 0 13.652343-6.113281 13.652343-13.652343 0-7.539063-6.113281-13.652344-13.652343-13.652344zm0 0" fill="#54596e"/></svg>