<svg height="416pt" viewBox="-10 0 416 416.43008" width="416pt" xmlns="http://www.w3.org/2000/svg"><path d="m122.359375 379.835938c-28.644531 3.746093-47.050781 9.574218-47.050781 16.109374 0 11.316407 55.015625 20.484376 122.878906 20.484376 67.867188 0 122.882812-9.167969 122.882812-20.484376 0-6.535156-18.40625-12.363281-47.054687-16.109374-23.339844 10.328124-48.949219 16.109374-75.828125 16.109374-26.875 0-52.488281-5.785156-75.828125-16.109374" fill="#eeeef0"/><path d="m389.335938 190.898438c0-105.566407-85.578126-184.066407-191.148438-184.066407-105.566406 0-191.148438 78.5-191.148438 184.066407 0 105.566406 85.582032 198.222656 191.148438 198.222656 105.570312 0 191.148438-92.65625 191.148438-198.222656" fill="#adf2a2"/><path d="m389.335938 190.898438h6.824218c.023438-54.648438-22.222656-102.550782-58.117187-136.578126-35.878907-34.046874-85.378907-54.320312-139.855469-54.320312-54.484375 0-103.980469 20.273438-139.863281 54.320312-35.886719 34.027344-58.128907 81.929688-58.109375 136.578126.007812 54.644531 22.121094 105.824218 57.871094 143.402343 35.722656 37.574219 85.285156 61.644531 140.101562 61.644531 54.820312 0 104.378906-24.070312 140.105469-61.644531 35.746093-37.582031 57.863281-88.757812 57.867187-143.402343h-13.648437c.007812 50.914062-20.671875 98.847656-54.105469 133.992187-33.449219 35.148437-79.46875 57.40625-130.214844 57.40625-50.75 0-96.769531-22.257813-130.214844-57.40625-33.4375-35.144531-54.113281-83.078125-54.109374-133.992187.023437-50.921876 20.570312-95.050782 53.859374-126.675782 33.300782-31.585937 79.371094-50.5625 130.460938-50.5625 51.085938 0 97.164062 18.976563 130.464844 50.566406 33.289062 31.621094 53.839844 75.75 53.859375 126.675782h6.824219" fill="#54596e"/><path d="m380.914062 167.386719c-11.71875 91.417969-89.035156 167.125-182.726562 167.125-93.695312 0-171.003906-75.707031-182.726562-167.125-1.003907 7.714843-1.589844 15.597656-1.59375 23.664062.035156 50.859375 20.703124 98.734375 54.105468 133.839844 33.449219 35.148437 79.46875 57.40625 130.214844 57.40625 50.75 0 96.765625-22.257813 130.214844-57.40625 33.402344-35.105469 54.074218-82.980469 54.109375-133.839844-.003907-8.070312-.589844-15.949219-1.597657-23.664062" fill="#a4e29d"/><path d="m13.867188 191.050781v.097657c0 101.796874 82.523437 191.148437 184.320312 191.148437-50.746094 0-96.765625-22.257813-130.214844-57.40625-33.402344-35.105469-54.070312-82.980469-54.105468-133.839844m368.644531 0c-.035157 50.859375-20.707031 98.734375-54.109375 133.839844-33.449219 35.148437-79.464844 57.40625-130.214844 57.40625 101.796875 0 184.324219-89.351563 184.324219-191.148437 0-.035157 0-.066407 0-.097657" fill="#54596e"/><path d="m313.066406 260.417969c11.273438.027343 18.292969-11.6875 13.019532-21.40625-24.25-44.707031-72.4375-75.167969-127.910157-75.167969-55.246093 0-103.261719 30.210938-127.613281 74.617188-5.3125 9.691406 1.660156 21.429687 12.925781 21.453124l93.265625-9.304687c14.246094-1.421875 28.609375-1.390625 42.847656.089844zm0 0" fill="#54596e"/><path d="m313.066406 260.417969v6.824219l.503906-.015626-.46875-6.566406v6.578125l.46875-.011719-.46875-6.566406v6.578125c6.15625.015625 11.695313-2.523437 15.503907-6.449219 3.828125-3.921874 6.085937-9.222656 6.089843-14.867187.003907-3.40625-.84375-6.929687-2.613281-10.171875-25.429687-46.882812-75.902343-78.730469-133.910156-78.738281-57.773437.003906-108.0625 31.59375-133.601563 78.160156-1.792968 3.261719-2.660156 6.8125-2.652343 10.25.003906 5.632813 2.253906 10.921875 6.070312 14.84375 3.804688 3.925781 9.332031 6.472656 15.480469 6.46875l.695312-.035156 93.265626-9.304688c6.75-.671875 13.527343-1.011719 20.304687-1.011719 7.0625 0 14.121094.363282 21.152344 1.101563l93.472656 9.71875.703125.035156v-6.820312l.707031-6.789063-93.464843-9.71875c-7.503907-.785156-15.039063-1.175781-22.570313-1.175781-7.234375 0-14.460937.363281-21.664063 1.082031l-93.265624 9.304688.679687 6.792968.015625-6.828124c-2.480469-.019532-4.324219-.933594-5.738281-2.351563-1.394531-1.425781-2.199219-3.367187-2.195313-5.3125.007813-1.195313.28125-2.40625.972656-3.675781 23.179688-42.25 68.914063-71.082032 121.636719-71.078125 52.9375-.003907 98.835938 29.070312 121.910157 71.601562.683593 1.257813.957031 2.464844.957031 3.65625.007812 1.949219-.800781 3.894531-2.199219 5.320313-1.414062 1.417968-3.261719 2.328125-5.742188 2.34375l-.503906.015625.46875 6.566406v-6.578125l-.46875.015625.46875 6.566406v-6.582031 6.824219l.707032-6.789063zm0 0" fill="#54596e"/><g fill="#fff"><path d="m143.574219 269.65625c0 9.425781-7.640625 17.066406-17.066407 17.066406-9.425781 0-17.066406-7.640625-17.066406-17.066406 0-9.421875 13.652344-30.71875 17.066406-30.71875 3.414063 0 17.066407 21.296875 17.066407 30.71875zm0 0"/><path d="m75.308594 201.390625c0 9.421875-7.640625 17.066406-17.066406 17.066406-9.425782 0-17.066407-7.644531-17.066407-17.066406 0-9.425781 13.652344-30.71875 17.066407-30.71875 3.414062 0 17.066406 21.292969 17.066406 30.71875zm0 0"/><path d="m368.855469 180.910156c0 9.425782-7.640625 17.066406-17.066407 17.066406-9.425781 0-17.066406-7.640624-17.066406-17.066406 0-9.425781 13.652344-30.71875 17.066406-30.71875 3.414063 0 17.066407 21.292969 17.066407 30.71875zm0 0"/><path d="m177.707031 58.03125c0 9.421875-7.640625 17.066406-17.066406 17.066406s-17.066406-7.644531-17.066406-17.066406c0-9.425781 13.652343-30.722656 17.066406-30.722656s17.066406 21.296875 17.066406 30.722656zm0 0"/><path d="m61.65625 139.949219c0 9.425781-7.640625 17.066406-17.066406 17.066406-9.425782 0-17.066406-7.640625-17.066406-17.066406 0-9.421875 13.652343-30.71875 17.066406-30.71875 3.410156 0 17.066406 21.296875 17.066406 30.71875zm0 0"/></g><path d="m136.75 68.269531c-30.167969.003907-54.613281 24.449219-54.613281 54.613281 0 3.769532 3.054687 6.828126 6.824219 6.828126 3.769531 0 6.828124-3.058594 6.828124-6.828126.003907-11.332031 4.574219-21.527343 11.996094-28.964843 7.433594-7.421875 17.628906-11.992188 28.964844-11.996094 3.765625 0 6.824219-3.058594 6.824219-6.824219 0-3.769531-3.058594-6.824218-6.824219-6.828125zm0 0" fill="#54596e"/><path d="m259.628906 81.921875c11.332032.003906 21.527344 4.574219 28.964844 11.996094 7.421875 7.433593 11.992188 17.632812 11.996094 28.964843 0 3.769532 3.054687 6.828126 6.824218 6.828126 3.769532 0 6.828126-3.058594 6.828126-6.828126-.003907-30.164062-24.449219-54.609374-54.613282-54.613281-3.769531 0-6.828125 3.054688-6.828125 6.828125 0 3.769532 3.058594 6.824219 6.828125 6.824219zm0 0" fill="#54596e"/><path d="m150.402344 116.058594c0 11.308594-9.167969 20.476562-20.480469 20.476562s-20.480469-9.167968-20.480469-20.476562c0-11.3125 9.167969-20.480469 20.480469-20.480469s20.480469 9.167969 20.480469 20.480469zm0 0" fill="#54596e"/><path d="m286.933594 116.058594c0 11.308594-9.167969 20.476562-20.480469 20.476562-11.308594 0-20.476563-9.167968-20.476563-20.476562 0-11.3125 9.167969-20.480469 20.476563-20.480469 11.3125 0 20.480469 9.167969 20.480469 20.480469zm0 0" fill="#54596e"/></svg>