<svg height="430pt" viewBox="-17 0 430 430.08" width="430pt" xmlns="http://www.w3.org/2000/svg"><path d="m198.015625 389.121094c-67.863281 0-122.878906 9.171875-122.878906 20.476562 0 11.3125 55.015625 20.480469 122.878906 20.480469s122.878906-9.167969 122.878906-20.480469c0-11.304687-55.015625-20.476562-122.878906-20.476562" fill="#eeeef0"/><path d="m127.746094 104.398438-68.265625-68.265626c-2.667969-2.667968-6.988281-2.667968-9.65625 0-2.664063 2.664063-2.664063 6.988282 0 9.652344l68.269531 68.269532c2.664062 2.664062 6.988281 2.664062 9.652344 0 2.667968-2.667969 2.667968-6.992188 0-9.65625" fill="#54596e"/><path d="m61.480469 27.308594c0 11.308594-9.167969 20.476562-20.480469 20.476562s-20.480469-9.167968-20.480469-20.476562c0-11.3125 9.167969-20.480469 20.480469-20.480469s20.480469 9.167969 20.480469 20.480469zm0 0" fill="#adf2a2"/><path d="m61.480469 27.308594h6.828125c-.007813-15.085938-12.226563-27.30468775-27.308594-27.308594-15.082031.00390625-27.300781 12.222656-27.308594 27.308594.007813 15.082031 12.226563 27.300781 27.308594 27.304687 15.082031-.003906 27.300781-12.222656 27.308594-27.304687h-13.65625c-.011719 7.53125-6.117188 13.636718-13.652344 13.652344-7.535156-.015626-13.640625-6.121094-13.652344-13.652344.011719-7.539063 6.117188-13.640625 13.652344-13.65625 7.535156.015625 13.640625 6.117187 13.652344 13.65625zm0 0" fill="#54596e"/><path d="m277.933594 114.054688 68.265625-68.269532c2.667969-2.664062 2.667969-6.988281 0-9.652344-2.664063-2.667968-6.988281-2.667968-9.652344 0l-68.269531 68.265626c-2.664063 2.664062-2.664063 6.988281 0 9.65625 2.667968 2.664062 6.988281 2.664062 9.65625 0" fill="#54596e"/><path d="m375.507812 27.308594c0 11.308594-9.171874 20.476562-20.480468 20.476562-11.3125 0-20.480469-9.167968-20.480469-20.476562 0-11.3125 9.167969-20.480469 20.480469-20.480469 11.308594 0 20.480468 9.167969 20.480468 20.480469zm0 0" fill="#adf2a2"/><path d="m334.546875 27.308594h6.828125c.011719-7.539063 6.113281-13.640625 13.652344-13.65625 7.535156.015625 13.640625 6.117187 13.652344 13.65625-.011719 7.53125-6.117188 13.636718-13.652344 13.652344-7.539063-.015626-13.640625-6.121094-13.652344-13.652344h-13.65625c.007812 15.082031 12.222656 27.300781 27.308594 27.304687 15.082031-.003906 27.300781-12.222656 27.304687-27.304687-.003906-15.085938-12.222656-27.30468775-27.304687-27.308594-15.085938.00390625-27.300782 12.222656-27.308594 27.308594zm0 0" fill="#54596e"/><path d="m388.992188 197.972656c-3.480469-102.226562-87.617188-177.492187-190.980469-177.492187-103.359375 0-187.496094 75.265625-190.976563 177.492187h-.167968v116.054688l42.644531 13.652344c35.042969 45.175781 88.535156 75.09375 148.5 75.09375 59.96875 0 113.460937-29.917969 148.503906-75.09375l42.644531-13.652344v-116.054688zm0 0" fill="#fff35f"/><g fill="#54596e"><path d="m388.992188 197.972656 6.824218-.234375c-1.789062-52.941406-24.5625-99.121093-60.238281-131.875-35.671875-32.773437-84.222656-52.214843-137.566406-52.210937-53.339844-.003906-101.890625 19.4375-137.5625 52.210937-35.679688 32.753907-58.453125 78.933594-60.238281 131.875l6.824218.234375v-6.824218h-.167968c-1.796876 0-3.558594.726562-4.828126 1.996093-1.269531 1.273438-1.9999995 3.03125-1.9999995 4.828125v116.054688c0 2.96875 1.9179685 5.59375 4.7460935 6.5l42.644532 13.652344 2.082031-6.5-5.394531 4.183593c36.179687 46.660157 91.605468 77.730469 153.894531 77.734375 62.292969-.003906 117.71875-31.074218 153.894531-77.734375l-5.390625-4.183593 2.082031 6.5 42.644532-13.652344c2.828124-.90625 4.746093-3.53125 4.746093-6.5v-116.054688c0-1.796875-.730469-3.554687-2-4.828125-1.273437-1.269531-3.03125-1.996093-4.828125-1.996093h-.167968v6.824218l6.824218-.234375-6.824218.234375v6.824219h.167968v-6.824219h-6.828125v111.070313l-37.898437 12.132812c-1.300782.417969-2.476563 1.242188-3.316406 2.316407-33.90625 43.695312-85.460938 72.460937-143.105469 72.453124-57.640625.007813-109.195313-28.757812-143.105469-72.449218-.835938-1.078125-2.011719-1.902344-3.3125-2.316406l-37.902344-12.136719v-111.070313h-6.824218v6.824219h.167968c3.683594 0 6.695313-2.90625 6.820313-6.589844 1.695312-49.285156 22.730469-91.851562 55.832031-122.289062 33.109375-30.414063 78.308594-48.609375 128.324219-48.613281 50.019531.003906 95.21875 18.199218 128.328125 48.613281 33.101562 30.4375 54.136718 73.003906 55.828125 122.285156.125 3.683594 3.136719 6.59375 6.824219 6.59375zm0 0"/><path d="m273.105469 174.078125c0 9.425781-7.640625 17.070313-17.066407 17.070313-9.425781 0-17.066406-7.644532-17.066406-17.070313 0-9.421875 7.640625-17.066406 17.066406-17.066406 9.425782 0 17.066407 7.644531 17.066407 17.066406zm0 0"/><path d="m157.054688 174.078125c0 9.425781-7.640626 17.070313-17.066407 17.070313s-17.066406-7.644532-17.066406-17.070313c0-9.421875 7.640625-17.066406 17.066406-17.066406s17.066407 7.644531 17.066407 17.066406zm0 0"/><path d="m283.808594 320.851562h-171.589844c-9.171875 0-16.605469-7.433593-16.605469-16.601562v-41.882812c0-9.171876 7.433594-16.605469 16.605469-16.605469h171.589844c9.171875 0 16.605468 7.433593 16.605468 16.605469v41.882812c0 9.167969-7.433593 16.601562-16.605468 16.601562zm0 0"/><path d="m283.808594 320.851562v-6.824218h-171.589844c-5.402344-.011719-9.769531-4.382813-9.777344-9.777344v-41.882812c.007813-5.398438 4.378906-9.773438 9.777344-9.78125h171.589844c5.402344.011718 9.769531 4.382812 9.777344 9.78125v41.882812c-.007813 5.394531-4.378907 9.769531-9.777344 9.777344v13.652344c12.945312-.003907 23.429687-10.492188 23.429687-23.433594v-41.882813c0-12.941406-10.484375-23.429687-23.429687-23.429687h-171.589844c-12.945312.003906-23.429688 10.488281-23.433594 23.429687v41.882813c.003906 12.941406 10.488282 23.429687 23.433594 23.433594h171.589844zm0 0"/></g><path d="m281.554688 252.585938h-167.082032c-6.644531 0-12.03125 5.386718-12.03125 12.03125v15.277343h191.144532v-15.277343c0-6.644532-5.386719-12.03125-12.03125-12.03125zm0 0" fill="#fff"/><path d="m286.761719 300.375h-177.496094v6.648438c0 3.867187 3.132813 7.003906 7 7.003906h163.496094c3.867187 0 7-3.136719 7-7.003906zm0 0" fill="#fff"/><path d="m211.667969 54.613281c0 7.539063-6.113281 13.652344-13.65625 13.652344-7.539063 0-13.652344-6.113281-13.652344-13.652344 0-7.539062 6.113281-13.652343 13.652344-13.652343 7.542969 0 13.65625 6.113281 13.65625 13.652343zm0 0" fill="#55a6ff"/><path d="m211.667969 102.398438c0 7.542968-6.113281 13.65625-13.65625 13.65625-7.539063 0-13.652344-6.113282-13.652344-13.65625 0-7.539063 6.113281-13.652344 13.652344-13.652344 7.542969 0 13.65625 6.113281 13.65625 13.652344zm0 0" fill="#f99"/></svg>