<svg height="416pt" viewBox="-10 0 416 416.42667" width="416pt" xmlns="http://www.w3.org/2000/svg"><path d="m122.382812 379.824219c-28.664062 3.75-47.078124 9.578125-47.078124 16.125 0 11.308593 55.015624 20.476562 122.878906 20.476562 67.867187 0 122.886718-9.167969 122.886718-20.476562 0-6.546875-18.414062-12.371094-47.078124-16.121094-23.328126 10.328125-48.929688 16.117187-75.808594 16.121094-26.878906-.003907-52.480469-5.792969-75.800782-16.125" fill="#eeeef0"/><path d="m372.136719 271.371094c11.007812-24.886719 17.195312-52.207032 17.195312-80.472656 0-105.570313-85.578125-184.066407-191.152343-184.066407-105.5625 0-191.140626 78.496094-191.140626 184.066407 0 28.210937 6.160157 55.472656 17.132813 80.320312-2.636719 4.074219-5.144531 8.214844-7.484375 12.472656-7.554688 13.777344 2.367188 30.46875 18.382812 30.503906l13.707032-1.367187c35.03125 45.84375 88.914062 76.296875 149.402344 76.296875 60.234374 0 113.921874-30.1875 148.953124-75.699219l14.320313 1.488281c16.023437.035157 26.011719-16.621093 18.511719-30.429687-2.425782-4.480469-5.078125-8.839844-7.828125-13.113281" fill="#f99"/><path d="m372.136719 271.371094 6.234375 2.761718c11.382812-25.707031 17.785156-53.96875 17.785156-83.234374.019531-54.65625-22.21875-102.554688-58.109375-136.578126-35.882813-34.046874-85.382813-54.320312-139.867187-54.320312-54.472657 0-103.972657 20.277344-139.859376 54.320312-35.890624 34.027344-58.128906 81.925782-58.105468 136.578126 0 29.203124 6.371094 57.410156 17.714844 83.082031l6.242187-2.757813-5.726563-3.714844c-2.714843 4.183594-5.308593 8.472657-7.742187 12.898438-2.316406 4.226562-3.425781 8.769531-3.421875 13.179688 0 7.234374 2.902344 14.050781 7.820312 19.101562 4.902344 5.058594 11.984376 8.332031 19.957032 8.332031l.691406-.035156 13.707031-1.367187-.679687-6.789063-5.421875 4.140625c36.160156 47.339844 91.996093 78.972656 154.828125 78.980469 62.5625-.007813 118.203125-31.359375 154.363281-78.363281l-5.410156-4.160157-.699219 6.789063 14.308594 1.492187.707031.035157.367187-.011719-.316406-6.320313v6.324219l.316406-.003906-.316406-6.320313v6.324219c7.976563.023437 15.070313-3.246094 19.984375-8.300781 4.933594-5.050782 7.839844-11.878906 7.84375-19.125 0-4.375-1.085937-8.894532-3.371093-13.085938-2.523438-4.671875-5.261719-9.175781-8.09375-13.550781l-5.730469 3.699219 6.234375 2.761718-6.234375-2.761718-5.738281 3.707031c2.691406 4.167969 5.246093 8.371094 7.5625 12.652344 1.207031 2.21875 1.710937 4.425781 1.710937 6.574219.007813 3.554687-1.449219 7.027343-3.945313 9.582031-2.519531 2.542969-5.925781 4.179687-10.226562 4.195312l-.367188.015625.320313 6.324219v-6.332031l-.320313.007812.320313 6.324219v-6.332031 6.824218l.707031-6.789062-14.316406-1.492188c-2.359375-.25-4.667969.742188-6.109375 2.628907-33.902344 44.019531-85.65625 73.035156-143.550781 73.035156-58.144532 0-110.085938-29.269531-143.980469-73.613281-1.441406-1.882813-3.738281-2.886719-6.105469-2.648438l-13.703125 1.367188.675781 6.789062.023438-6.824218c-4.308594-.03125-7.707031-1.667969-10.21875-4.210938-2.496094-2.5625-3.949219-6.027344-3.941406-9.574219.007812-2.164062.519531-4.375 1.734375-6.601562 2.246093-4.09375 4.675781-8.097657 7.234375-12.050781 1.25-1.9375 1.441406-4.359376.515625-6.464844-10.609375-24.027344-16.554688-50.351563-16.554688-77.566406.023438-50.921876 20.570313-95.054688 53.859375-126.671876 33.304688-31.589843 79.375-50.570312 130.457032-50.578124 51.089843.007812 97.164062 18.988281 130.46875 50.578124 33.289062 31.617188 53.835937 75.75 53.855468 126.671876 0 27.269531-5.964844 53.648437-16.613281 77.714843-.933594 2.101563-.746094 4.527344.507813 6.464844z" fill="#54596e"/><path d="m380.910156 167.382812c-11.71875 91.417969-89.035156 167.128907-182.730468 167.128907-93.6875 0-171.003907-75.707031-182.71875-167.128907-1.007813 7.714844-1.589844 15.597657-1.597657 23.660157.023438 27.160156 5.964844 53.4375 16.554688 77.421875.179687.414062.320312.84375.417969 1.277344 6.058593 13.496093 13.609374 26.230468 22.429687 37.941406.339844.300781.65625.632812.9375 1 33.226563 43.46875 83.800781 72.457031 140.558594 73.578125.023437.003906.042969.003906.066406.003906.1875.003906.378906.003906.5625.007813.058594.003906.117187.003906.171875.003906.148438.003906.300781.003906.449219.003906.078125.003906.144531.003906.226562.003906.144531.003906.285157.003906.429688.007813h.226562c.140625 0 .28125.003906.421875.003906h.226563.636719.640624.207032c.148437 0 .296875-.003906.445312-.003906h.203125c.152344-.003907.300781-.003907.453125-.007813h.203125c.152344-.003906.304688-.003906.457031-.007812.058594 0 .113282 0 .175782-.003906.171875-.003907.347656-.003907.519531-.007813.039063 0 .078125 0 .117187-.003906 56.507813-1.117188 106.898438-29.851563 140.128907-73 .28125-.367188.59375-.703125.933593-1 8.976563-11.824219 16.65625-24.710938 22.804688-38.371094.097656-.433594.238281-.863281.421875-1.277344 10.628906-24.023437 16.59375-50.355469 16.613281-77.574219-.003906-8.0625-.585937-15.941406-1.59375-23.65625" fill="#ee9295"/><path d="m197.542969 382.296875h.636719c-.210938 0-.425782 0-.636719 0m1.277343 0c-.210937 0-.425781 0-.640624 0zm-1.925781-.003906c.144531 0 .28125.003906.421875.003906-.140625 0-.28125-.003906-.421875-.003906m2.578125 0c-.148437 0-.300781.003906-.445312.003906.148437 0 .296875-.003906.445312-.003906m-3.234375-.003907c.140625 0 .285157.003907.429688.003907-.144531 0-.285157-.003907-.429688-.003907m3.890625 0c-.152344 0-.300781.003907-.453125.003907.15625 0 .296875-.003907.453125-.003907m.660156-.007812c-.152343 0-.300781 0-.453124.003906.148437-.003906.304687-.003906.453124-.003906m-5.226562 0c.148438 0 .300781 0 .449219.003906-.148438-.003906-.300781-.003906-.449219-.003906m5.925781-.011719c-.171875 0-.347656.003907-.519531.007813.171875-.003906.34375-.007813.519531-.007813m-6.660156-.003906c.1875.003906.378906.007813.5625.011719-.183594-.003906-.375-.007813-.5625-.011719m147.839844-74c-.339844.296875-.65625.628906-.9375.996094-33.226563 43.148437-83.621094 71.882812-140.128907 73.003906 57.160157-1.125 107.960938-30.390625 141.066407-74m-289.402344-.578125c33.09375 43.933594 84.089844 73.445312 141.496094 74.578125-56.757813-1.121094-107.332031-30.113281-140.558594-73.578125-.28125-.371094-.597656-.703125-.9375-1m-39.402344-116.644531v.105469c0 27.625 6.082031 54.339843 16.972657 78.59375-.097657-.433594-.238282-.863282-.417969-1.277344-10.589844-23.984375-16.53125-50.261719-16.554688-77.421875m368.640625-.003907c-.019531 27.21875-5.984375 53.550782-16.613281 77.574219-.183594.414063-.324219.84375-.421875 1.277344 10.933594-24.292969 17.035156-51.058594 17.035156-78.742187 0-.035157 0-.074219 0-.109376" fill="#54596e"/><path d="m255.53125 139.265625-16.386719 24.574219h40.960938" fill="#f99"/><path d="m249.851562 135.476562-16.386718 24.578126c-1.402344 2.097656-1.53125 4.78125-.339844 7.003906 1.195312 2.234375 3.492188 3.609375 6.019531 3.609375h40.960938c3.769531 0 6.824219-3.058594 6.824219-6.828125 0-3.769532-3.054688-6.824219-6.824219-6.824219h-28.203125l9.308594-13.964844c2.09375-3.136719 1.246093-7.375-1.890626-9.464843-3.140624-2.09375-7.378906-1.246094-9.46875 1.890624zm0 0" fill="#54596e"/><path d="m140.835938 139.265625 16.390624 24.574219h-40.960937" fill="#f99"/><path d="m135.15625 143.054688 9.3125 13.960937h-28.203125c-3.769531 0-6.828125 3.054687-6.828125 6.824219 0 3.773437 3.058594 6.828125 6.828125 6.828125h40.960937c2.523438 0 4.824219-1.378907 6.019532-3.605469 1.191406-2.226562 1.0625-4.90625-.339844-7.007812l-16.390625-24.574219c-2.089844-3.140625-6.328125-3.988281-9.46875-1.894531-3.136719 2.09375-3.980469 6.328124-1.890625 9.46875zm0 0" fill="#54596e"/><path d="m124.238281 87.074219 54.613281 81.917969c2.089844 3.140624 6.332032 3.984374 9.46875 1.894531 3.136719-2.09375 3.984376-6.328125 1.890626-9.46875l-54.613282-81.917969c-2.089844-3.136719-6.328125-3.984375-9.464844-1.894531-3.136718 2.09375-3.988281 6.332031-1.894531 9.46875" fill="#ff7d7d"/><path d="m260.773438 79.5-54.613282 81.921875c-2.09375 3.136719-1.246094 7.375 1.890625 9.464844 3.136719 2.09375 7.375 1.246093 9.46875-1.890625l54.613281-81.921875c2.089844-3.136719 1.242188-7.375-1.894531-9.46875-3.136719-2.089844-7.375-1.242188-9.464843 1.894531" fill="#ff7d7d"/><path d="m313.0625 294.550781c11.273438.023438 18.296875-11.691406 13.023438-21.40625-24.253907-44.707031-72.441407-75.167969-127.914063-75.167969-55.246094 0-103.261719 30.207032-127.613281 74.617188-5.3125 9.6875 1.660156 21.429688 12.925781 21.453125l93.265625-9.304687c14.25-1.421876 28.609375-1.394532 42.847656.089843zm0 0" fill="#54596e"/><path d="m313.0625 294.550781v6.824219l.503906-.015625-.46875-6.566406v6.578125l.46875-.015625-.46875-6.566407v6.582032c6.160156.015625 11.695313-2.523438 15.503906-6.453125 3.828126-3.921875 6.085938-9.21875 6.089844-14.863281.003906-3.410157-.84375-6.929688-2.613281-10.175782-25.429687-46.878906-75.902344-78.730468-133.910156-78.734375-57.773438.003907-108.0625 31.59375-133.601563 78.160157-1.792968 3.261718-2.660156 6.808593-2.652344 10.246093.003907 5.636719 2.253907 10.925781 6.074219 14.847657 3.800781 3.925781 9.328125 6.46875 15.476563 6.46875l.695312-.035157 93.265625-9.304687c6.75-.671875 13.527344-1.011719 20.304688-1.011719 7.0625 0 14.125.363281 21.152343 1.097656l93.472657 9.722657.707031.035156v-6.820313l.703125-6.792969-93.464844-9.71875c-7.503906-.785156-15.039062-1.171874-22.570312-1.171874-7.230469 0-14.460938.359374-21.664063 1.082031l-93.265625 9.304687.679688 6.792969.015625-6.828125c-2.480469-.023438-4.324219-.933594-5.738282-2.351562-1.394531-1.425782-2.199218-3.371094-2.195312-5.3125.007812-1.199219.28125-2.40625.976562-3.679688 23.175782-42.246094 68.910157-71.078125 121.632813-71.074219 52.9375-.007812 98.835937 29.070313 121.910156 71.597657.683594 1.261718.957031 2.46875.960938 3.660156.003906 1.949218-.804688 3.894531-2.203125 5.320312-1.414063 1.417969-3.261719 2.324219-5.742188 2.34375l-.503906.015625.46875 6.566407v-6.578126l-.46875.015626.46875 6.5625v-6.578126 6.824219l.707031-6.792969zm0 0" fill="#54596e"/><g fill="#fff"><path d="m160.097656 279.929688-50.660156 7.792968v-20.605468c0-3.855469 2.8125-7.132813 6.621094-7.71875l44.039062-6.773438c25.253906-3.886719 50.941406-4.023438 76.234375-.410156l50.722657 7.246094c3.84375.546874 6.707031 3.84375 6.707031 7.726562v20.535156l-57.425781-8.203125c-25.296876-3.609375-50.984376-3.472656-76.238282.410157zm0 0"/><path d="m198.171875 204.800781c36.660156 0 70.078125 13.355469 95.566406 35.28125-.058593 3.527344-3.179687 6.222657-6.6875 5.722657l-50.71875-7.246094c-25.292969-3.613282-50.980469-3.472656-76.234375.410156l-43.894531 6.753906c-3.558594.546875-6.765625-2.207031-6.765625-5.804687v-5.375c24.507812-18.605469 55.269531-29.742188 88.734375-29.742188zm0 0"/></g></svg>