<svg height="416pt" viewBox="-10 0 416 416.43179" width="416pt" xmlns="http://www.w3.org/2000/svg"><path d="m274.023438 379.832031c-23.339844 10.332031-48.957032 16.117188-75.835938 16.113281-.003906 0-.011719 0-.019531 0-26.871094 0-52.480469-5.789062-75.816407-16.113281-28.644531 3.75-47.046874 9.578125-47.046874 16.121094 0 11.304687 55.015624 20.480469 122.882812 20.480469s122.878906-9.175782 122.878906-20.480469c0-6.542969-18.398437-12.371094-47.042968-16.121094" fill="#eeeef0"/><path d="m389.332031 190.898438c0-105.566407-85.578125-184.066407-191.144531-184.066407-105.570312 0-191.148438 78.496094-191.148438 184.066407 0 105.5625 85.578126 198.222656 191.148438 198.222656 105.566406 0 191.144531-92.660156 191.144531-198.222656" fill="#ffd578"/><path d="m389.332031 190.898438h6.832031c.015626-54.648438-22.230468-102.554688-58.117187-136.574219-35.878906-34.046875-85.382813-54.324219-139.859375-54.324219s-103.980469 20.277344-139.863281 54.324219c-35.886719 34.019531-58.132813 81.921875-58.109375 136.574219.007812 54.644531 22.121094 105.824218 57.863281 143.402343 35.730469 37.578125 85.292969 61.652344 140.109375 61.644531 54.816406.007813 104.375-24.066406 140.105469-61.644531 35.742187-37.582031 57.859375-88.761719 57.871093-143.402343h-13.65625c.003907 50.921874-20.667968 98.851562-54.105468 133.992187-33.453125 35.144531-79.46875 57.40625-130.214844 57.40625-50.75 0-96.765625-22.261719-130.214844-57.40625-33.441406-35.140625-54.113281-83.070313-54.105468-133.992187.015624-50.921876 20.566406-95.054688 53.859374-126.671876 33.296876-31.59375 79.371094-50.566406 130.460938-50.574218 51.085938.007812 97.160156 18.980468 130.460938 50.574218 33.292968 31.613282 53.84375 75.75 53.859374 126.671876z" fill="#54596e"/><path d="m380.910156 167.382812c-11.71875 91.417969-89.027344 167.125-182.722656 167.125-93.699219 0-171.007812-75.703124-182.726562-167.125-1.007813 7.714844-1.589844 15.597657-1.597657 23.667969.035157 50.867188 20.699219 98.734375 54.105469 133.835938 33.453125 35.148437 79.46875 57.410156 130.21875 57.410156 50.746094 0 96.761719-22.261719 130.210938-57.410156 33.40625-35.101563 54.074218-82.972657 54.105468-133.839844 0-8.066406-.578125-15.945313-1.59375-23.664063" fill="#eec877"/><path d="m13.867188 191.050781v.097657c0 101.796874 82.519531 191.148437 184.320312 191.148437-50.75 0-96.765625-22.261719-130.214844-57.410156-33.410156-35.101563-54.074218-82.96875-54.105468-133.835938m368.640624-.003906c-.035156 50.867187-20.699218 98.738281-54.105468 133.839844-33.453125 35.148437-79.46875 57.410156-130.214844 57.410156 101.800781 0 184.320312-89.351563 184.320312-191.148437 0-.035157 0-.066407 0-.101563" fill="#54596e"/><path d="m334.722656 143.363281c0 18.851563-15.285156 34.132813-34.136718 34.132813-18.851563 0-34.132813-15.28125-34.132813-34.132813 0-18.851562 15.28125-34.136719 34.132813-34.136719 18.851562 0 34.136718 15.285157 34.136718 34.136719zm0 0" fill="#54596e"/><path d="m297.175781 153.601562c0 5.65625-4.585937 10.238282-10.242187 10.238282s-10.238282-4.582032-10.238282-10.238282 4.582032-10.238281 10.238282-10.238281 10.242187 4.582031 10.242187 10.238281zm0 0" fill="#fff"/><path d="m334.722656 126.296875c0 9.421875-7.644531 17.066406-17.070312 17.066406-9.421875 0-17.066406-7.644531-17.066406-17.066406 0-9.425781 7.644531-17.070313 17.066406-17.070313 9.425781 0 17.070312 7.644532 17.070312 17.070313zm0 0" fill="#fff"/><path d="m129.921875 143.363281c0 18.851563-15.28125 34.132813-34.132813 34.132813-18.851562 0-34.136718-15.28125-34.136718-34.132813 0-18.851562 15.285156-34.136719 34.136718-34.136719 18.851563 0 34.132813 15.285157 34.132813 34.136719zm0 0" fill="#54596e"/><path d="m92.375 153.601562c0 5.65625-4.585938 10.238282-10.242188 10.238282-5.652343 0-10.238281-4.582032-10.238281-10.238282s4.585938-10.238281 10.238281-10.238281c5.65625 0 10.242188 4.582031 10.242188 10.238281zm0 0" fill="#fff"/><path d="m129.921875 126.296875c0 9.421875-7.640625 17.066406-17.066406 17.066406s-17.066407-7.644531-17.066407-17.066406c0-9.425781 7.640626-17.070313 17.066407-17.070313s17.066406 7.644532 17.066406 17.070313zm0 0" fill="#fff"/><path d="m241.566406 226.152344c-11.945312-2.246094-23.285156-.027344-32.660156 5.265625-6.613281 3.734375-14.828125 3.734375-21.4375 0-9.375-5.292969-20.714844-7.511719-32.660156-5.265625-18.78125 3.527344-33.972656 18.589844-37.613282 37.347656-5.929687 30.585938 17.339844 57.355469 46.859376 57.355469 8.433593 0 16.347656-2.191407 23.21875-6.027344 6.765624-3.78125 15.058593-3.78125 21.828124 0 6.871094 3.835937 14.785157 6.027344 23.21875 6.027344 29.519532 0 52.785157-26.769531 46.859376-57.355469-3.640626-18.757812-18.832032-33.820312-37.613282-37.347656zm0 0" fill="#fff35f"/><path d="m241.566406 226.152344 1.265625-6.710938c-3.546875-.667968-7.0625-.992187-10.511719-.988281-9.707031-.003906-18.871093 2.550781-26.773437 7.019531-2.242187 1.269532-4.796875 1.914063-7.359375 1.914063s-5.117188-.648438-7.367188-1.917969c-7.898437-4.460938-17.058593-7.019531-26.765624-7.015625-3.445313 0-6.964844.320313-10.515626.988281-21.582031 4.097656-38.816406 21.179688-43.046874 42.757813-.710938 3.660156-1.054688 7.296875-1.054688 10.859375.003906 30.167968 24.449219 54.617187 54.617188 54.621094 9.617187.003906 18.695312-2.507813 26.546874-6.890626 2.347657-1.3125 4.960938-1.96875 7.585938-1.96875s5.238281.65625 7.585938 1.964844c7.851562 4.386719 16.929687 6.898438 26.546874 6.894532 30.167969-.003907 54.609376-24.449219 54.613282-54.617188 0-3.566406-.34375-7.203125-1.050782-10.863281-4.230468-21.578125-21.464843-38.660157-43.054687-42.757813l-1.261719 6.710938-1.261718 6.707031c15.972656 2.960937 29.125 16.003906 32.175781 31.941406.542969 2.808594.800781 5.570313.800781 8.261719-.003906 11.335938-4.574219 21.53125-12 28.96875-7.433594 7.425781-17.628906 11.992188-28.960938 12-7.25-.003906-14-1.875-19.894531-5.164062-4.417969-2.464844-9.335937-3.699219-14.238281-3.699219-4.90625 0-9.820312 1.230469-14.246094 3.703125-5.890625 3.285156-12.640625 5.15625-19.890625 5.160156-11.332031-.007812-21.527343-4.578125-28.964843-12.003906-7.421876-7.433594-11.992188-17.632813-11.996094-28.964844 0-2.6875.257812-5.445312.804687-8.261719 3.046875-15.9375 16.199219-28.980469 32.171875-31.941406 2.71875-.511719 5.382813-.75 7.984375-.753906 7.3125.003906 14.125 1.910156 20.054688 5.257812 4.367187 2.460938 9.226562 3.679688 14.078125 3.679688 4.847656 0 9.710937-1.21875 14.074218-3.679688 5.933594-3.351562 12.742188-5.253906 20.058594-5.257812 2.597656 0 5.261719.242187 7.984375.753906zm0 0" fill="#54596e"/><path d="m245.972656 314.027344h6.828125c-.003906-30.164063-24.445312-54.609375-54.613281-54.613282-30.167969.003907-54.609375 24.449219-54.613281 54.613282.003906 30.164062 24.445312 54.609375 54.613281 54.613281 30.164062-.003906 54.609375-24.449219 54.613281-54.613281h-13.652343c-.003907 11.332031-4.574219 21.527344-11.996094 28.964844-7.433594 7.421874-17.628906 11.992187-28.964844 11.996093-11.332031-.003906-21.53125-4.574219-28.964844-11.996093-7.421875-7.433594-11.992187-17.632813-11.996094-28.964844.003907-11.332032 4.574219-21.527344 11.996094-28.960938 7.433594-7.425781 17.632813-11.996094 28.964844-12 11.332031.003906 21.53125 4.574219 28.964844 12 7.421875 7.429688 11.992187 17.628906 11.996094 28.960938zm0 0" fill="#fff"/><path d="m225.496094 273.070312c0 15.078126-12.226563 27.304688-27.308594 27.304688s-27.304688-12.226562-27.304688-27.304688c0-15.082031 12.222657-27.308593 27.304688-27.308593s27.308594 12.226562 27.308594 27.308593zm0 0" fill="#f99"/><path d="m225.496094 273.070312h6.824218c-.003906-18.855468-15.277343-34.132812-34.132812-34.136718-18.851562.003906-34.128906 15.28125-34.132812 34.136718.003906 18.851563 15.28125 34.125 34.132812 34.128907 18.851562-.003907 34.128906-15.277344 34.132812-34.128907h-13.652343c-.019531 11.304688-9.171875 20.457032-20.480469 20.476563-11.304688-.019531-20.460938-9.171875-20.480469-20.476563.019531-11.3125 9.175781-20.460937 20.480469-20.484374 11.308594.023437 20.460938 9.171874 20.480469 20.484374zm0 0" fill="#54596e"/></svg>