<svg height="416pt" viewBox="-10 0 416 416.42667" width="416pt" xmlns="http://www.w3.org/2000/svg"><path d="m274.015625 379.832031c-23.339844 10.328125-48.953125 16.113281-75.828125 16.113281-26.878906 0-52.492188-5.785156-75.832031-16.113281-28.648438 3.75-47.046875 9.574219-47.046875 16.113281 0 11.3125 55.007812 20.480469 122.878906 20.480469 67.867188 0 122.875-9.167969 122.875-20.480469 0-6.539062-18.402344-12.363281-47.046875-16.113281" fill="#eeeef0"/><path d="m389.332031 190.894531c0-105.566406-85.582031-184.0625-191.144531-184.0625-105.566406 0-191.148438 78.496094-191.148438 184.0625 0 105.570313 85.582032 198.230469 191.148438 198.230469 105.5625 0 191.144531-92.660156 191.144531-198.230469" fill="#fff35f"/><path d="m389.332031 190.894531h6.824219c.019531-54.648437-22.21875-102.550781-58.109375-136.574219-35.882813-34.050781-85.382813-54.3281245-139.859375-54.320312-54.484375-.0078125-103.980469 20.273438-139.863281 54.320312-35.890625 34.023438-58.128907 81.925782-58.109375 136.574219.003906 54.648438 22.113281 105.828125 57.863281 143.40625 35.730469 37.574219 85.289063 61.644531 140.109375 61.644531 54.816406 0 104.371094-24.070312 140.105469-61.644531 35.746093-37.578125 57.855469-88.757812 57.863281-143.40625h-13.648438c.003907 50.921875-20.667968 98.855469-54.109374 133.996094-33.449219 35.144531-79.464844 57.402344-130.210938 57.402344-50.753906 0-96.765625-22.257813-130.21875-57.402344-33.4375-35.140625-54.113281-83.074219-54.105469-133.996094.019531-50.921875 20.570313-95.058593 53.859375-126.667969 33.300782-31.59375 79.375-50.574218 130.464844-50.574218 51.085938 0 97.15625 18.980468 130.460938 50.574218 33.289062 31.609376 53.839843 75.746094 53.859374 126.667969z" fill="#54596e"/><path d="m380.914062 167.382812c-11.722656 91.417969-89.03125 167.128907-182.726562 167.128907s-171.007812-75.710938-182.726562-167.128907c-1.011719 7.714844-1.597657 15.597657-1.601563 23.671876.035156 50.859374 20.703125 98.730468 54.105469 133.835937 33.457031 35.144531 79.46875 57.402344 130.222656 57.402344 50.746094 0 96.761719-22.257813 130.214844-57.402344 33.40625-35.105469 54.070312-82.972656 54.105468-133.839844-.007812-8.070312-.589843-15.953125-1.59375-23.667969" fill="#eee361"/><path d="m13.863281 191.054688v.09375c0 101.792968 82.519531 191.144531 184.324219 191.144531-50.753906 0-96.765625-22.257813-130.21875-57.402344-33.402344-35.105469-54.070312-82.976563-54.105469-133.835937m368.644531-.003907c-.035156 50.867188-20.703124 98.734375-54.109374 133.839844-33.449219 35.144531-79.464844 57.402344-130.210938 57.402344 101.796875 0 184.320312-89.351563 184.320312-191.144531 0-.03125 0-.066407 0-.097657" fill="#54596e"/><path d="m164.050781 143.359375c0 18.851563-15.28125 34.132813-34.132812 34.132813-18.851563 0-34.132813-15.28125-34.132813-34.132813s15.28125-34.132813 34.132813-34.132813c18.851562 0 34.132812 15.28125 34.132812 34.132813zm0 0" fill="#adf2a2"/><path d="m300.585938 143.359375c0 18.851563-15.28125 34.132813-34.132813 34.132813s-34.136719-15.28125-34.136719-34.132813 15.285156-34.132813 34.136719-34.132813 34.132813 15.28125 34.132813 34.132813zm0 0" fill="#adf2a2"/><g fill="#54596e"><path d="m150.398438 129.707031c0 7.539063-6.113282 13.652344-13.652344 13.652344-7.542969 0-13.65625-6.113281-13.65625-13.652344 0-7.539062 6.113281-13.652343 13.65625-13.652343 7.539062 0 13.652344 6.113281 13.652344 13.652343zm0 0"/><path d="m273.277344 129.707031c0 7.539063-6.113282 13.652344-13.652344 13.652344s-13.652344-6.113281-13.652344-13.652344c0-7.539062 6.113282-13.652343 13.652344-13.652343s13.652344 6.113281 13.652344 13.652343zm0 0"/><path d="m123.089844 279.894531h147.359375l11.65625 11.652344c2.664062 2.667969 6.988281 2.667969 9.65625 0 2.664062-2.664063 2.664062-6.988281 0-9.652344l-13.65625-13.65625c-1.273438-1.269531-3.03125-2-4.828125-2h-150.1875c-3.769532 0-6.824219 3.058594-6.824219 6.828125 0 3.769532 3.054687 6.828125 6.824219 6.828125zm0 0"/></g><path d="m232.316406 286.71875h-68.265625c-3.769531 0-6.824219 3.054688-6.824219 6.828125 0 3.769531 3.054688 6.828125 6.824219 6.828125h68.265625c3.773438 0 6.828125-3.058594 6.828125-6.828125s-3.054687-6.828125-6.828125-6.828125" fill="#e8cd5b"/><path d="m205.011719 191.148438h-34.132813v47.785156c0 7.539062 6.113282 13.652344 13.652344 13.652344s13.652344-6.113282 13.652344-13.652344v-20.480469c0 7.539063 6.113281 13.652344 13.65625 13.652344 7.539062 0 13.652344-6.113281 13.652344-13.652344v-27.304687zm0 0" fill="#adf2a2"/><path d="m205.011719 191.148438v-6.828126h-34.132813c-1.796875 0-3.558594.726563-4.828125 2-1.273437 1.269532-2 3.027344-2 4.828126v47.785156c.007813 11.3125 9.167969 20.476562 20.480469 20.476562s20.476562-9.164062 20.480469-20.476562v-20.480469c0-1.796875-.730469-3.554687-2-4.828125-1.269531-1.269531-3.03125-2-4.828125-2s-3.554688.730469-4.828125 2c-1.269531 1.273438-1.996094 3.03125-1.996094 4.828125.003906 11.3125 9.164063 20.476563 20.480469 20.476563 11.3125 0 20.472656-9.164063 20.476562-20.476563v-27.304687c0-1.800782-.726562-3.558594-2-4.828126-1.269531-1.273437-3.027344-2-4.824218-2h-20.480469v13.652344h13.652343v20.480469c-.007812 3.765625-3.058593 6.816406-6.824218 6.828125-3.769532-.011719-6.820313-3.0625-6.828125-6.828125 0-1.796875-.730469-3.554687-2-4.828125-1.269531-1.269531-3.03125-2-4.828125-2s-3.554688.730469-4.828125 2c-1.269531 1.273438-1.996094 3.03125-1.996094 4.828125v20.480469c-.007813 3.765625-3.0625 6.816406-6.828125 6.828125-3.765625-.011719-6.820312-3.0625-6.828125-6.828125v-40.960938h27.308594zm0 0" fill="#54596e"/><path d="m239.144531 177.492188c0-22.621094-18.339843-40.957032-40.960937-40.957032-22.617188 0-40.957032 18.335938-40.957032 40.957032 0 22.621093 18.339844 13.65625 40.957032 13.65625 22.621094 0 40.960937 8.964843 40.960937-13.65625zm0 0" fill="#f99"/><path d="m239.144531 177.492188h6.828125c-.007812-26.394532-21.394531-47.78125-47.789062-47.785157-26.390625.003907-47.78125 21.390625-47.785156 47.785157.003906 3.664062.398437 6.90625 1.378906 9.878906.730468 2.21875 1.828125 4.285156 3.300781 6.027344 2.207031 2.644531 5.183594 4.339843 8.085937 5.207031 2.921876.886719 5.820313 1.109375 8.738282 1.117187 8.167968-.046875 17.03125-1.78125 26.285156-1.75 9.246094-.03125 18.113281 1.703125 26.28125 1.75 2.597656 0 5.171875-.183594 7.769531-.84375 3.851563-.914062 7.964844-3.351562 10.402344-7.324218 2.457031-3.941407 3.320313-8.597657 3.332031-14.0625h-13.65625c.003906 2.644531-.3125 4.480468-.683594 5.582031-.277343.835937-.554687 1.253906-.777343 1.523437-.339844.378906-.640625.625-1.648438.957032-.980469.3125-2.609375.527343-4.738281.519531-6.058594.050781-15.527344-1.722657-26.285156-1.75-10.757813.027343-20.222656 1.800781-26.28125 1.75-1.894532.003906-3.394532-.160157-4.390625-.421875-1.535157-.460938-1.722657-.675782-2.238281-1.382813-.492188-.738281-1.234376-2.777343-1.222657-6.773437.003907-9.449219 3.808594-17.941406 9.996094-24.136719 6.199219-6.191406 14.691406-9.996094 24.136719-10 9.445312.003906 17.9375 3.808594 24.136718 10 6.1875 6.195313 9.992188 14.6875 9.996094 24.136719h6.828125zm0 0" fill="#54596e"/></svg>