<svg height="420pt" viewBox="0 -25 420.49711 420" width="420pt" xmlns="http://www.w3.org/2000/svg"><path d="m6.820312 120.367188c0-64.527344 52.3125-112.503907 116.839844-112.503907 64.523438 0 116.835938 47.976563 116.835938 112.503907 0 64.527343-52.3125 121.167968-116.835938 121.167968-64.527344 0-116.839844-56.640625-116.839844-121.167968" fill="#adf2a2"/><path d="m6.820312 120.367188h6.828126c.015624-30.394532 12.25-56.640626 32.09375-75.5 19.851562-18.832032 47.351562-30.175782 77.917968-30.179688 30.570313.003906 58.0625 11.347656 77.917969 30.183594 19.839844 18.855468 32.074219 45.105468 32.09375 75.5.011719 30.402344-12.351563 59.070312-32.339844 80.074218-20.007812 21.011719-47.441406 34.261719-77.671875 34.265626-30.226562-.003907-57.664062-13.257813-77.671875-34.265626-19.988281-21.003906-32.34375-49.671874-32.339843-80.074218h-13.648438c.00390625 34.125 13.800781 66.042968 36.097656 89.488281 22.285156 23.4375 53.265625 38.503906 87.5625 38.503906s65.277344-15.066406 87.5625-38.503906c22.292969-23.445313 36.089844-55.363281 36.097656-89.488281.019532-34.128906-13.902343-64.140625-36.34375-85.402344-22.4375-21.292969-53.355468-33.9375-87.316406-33.933594-33.960937-.003906-64.882812 12.640625-87.316406 33.933594-22.441406 21.261719-36.3671875 51.273438-36.34375 85.402344h6.820312" fill="#54596e"/><path d="m153.46875 164.875c0-22.625-13.75-40.960938-30.71875-40.960938-16.964844 0-30.714844 18.335938-30.714844 40.960938 0 22.621094 13.75 40.957031 30.714844 40.957031 16.96875 0 30.71875-18.335937 30.71875-40.957031" fill="#54596e"/><path d="m13.730469 116.148438c-.054688 1.398437-.082031 2.804687-.082031 4.222656h-2.652344 2.652344c-.003907 30.402344 12.351562 59.070312 32.339843 80.074218 11.097657 11.65625 24.480469 20.921876 39.355469 26.863282 1.050781-8.453125 2.972656-16.589844 5.675781-24.324219-38.589843-12.519531-68.429687-46.429687-77.289062-86.835937" fill="#a4e29d"/><path d="m13.648438 120.367188h-2.652344v.160156c0 48.652344 30.84375 92.65625 74.042968 109.53125.089844-.917969.195313-1.835938.308594-2.75-14.878906-5.941406-28.261718-15.207032-39.359375-26.863282-19.988281-21.003906-32.34375-49.671874-32.339843-80.078124m-1.679688-14.367188c-.609375 4.683594-.964844 9.472656-.972656 14.367188h2.652344c0-1.414063.027343-2.820313.082031-4.21875-.734375-3.339844-1.324219-6.726563-1.761719-10.148438" fill="#54596e"/><path d="m191.929688 83.738281c0 7.539063-6.113282 13.652344-13.65625 13.652344-7.539063 0-13.652344-6.113281-13.652344-13.652344 0-7.542969 6.113281-13.65625 13.652344-13.65625 7.542968 0 13.65625 6.113281 13.65625 13.65625zm0 0" fill="#54596e"/><path d="m82.703125 83.738281c0 7.539063-6.113281 13.652344-13.65625 13.652344-7.539063 0-13.652344-6.113281-13.652344-13.652344 0-7.542969 6.113281-13.65625 13.652344-13.65625 7.542969 0 13.65625 6.113281 13.65625 13.65625zm0 0" fill="#54596e"/><path d="m179.992188 119.585938c0-64.527344 52.3125-112.507813 116.839843-112.507813 64.523438 0 116.835938 47.980469 116.835938 112.507813 0 64.527343-52.3125 121.164062-116.835938 121.164062-64.527343 0-116.839843-56.636719-116.839843-121.164062" fill="#f99"/><path d="m179.992188 119.585938h6.828124c.015626-30.398438 12.25-56.640626 32.09375-75.5 19.851563-18.835938 47.347657-30.175782 77.917969-30.183594 30.566407.007812 58.0625 11.34375 77.917969 30.183594 19.839844 18.859374 32.074219 45.101562 32.089844 75.5.011718 30.402343-12.351563 59.066406-32.339844 80.078124-20.003906 21.011719-47.4375 34.257813-77.667969 34.257813-30.234375 0-57.667969-13.25-77.671875-34.257813-19.988281-21.011718-32.351562-49.675781-32.339844-80.078124h-13.652343c.011719 34.128906 13.804687 66.039062 36.105469 89.484374 22.277343 23.445313 53.261718 38.507813 87.558593 38.503907 34.296875.007812 65.28125-15.058594 87.558594-38.503907 22.300781-23.445312 36.09375-55.355468 36.105469-89.484374.019531-34.128907-13.90625-64.136719-36.351563-85.40625-22.433593-21.289063-53.355469-33.9375-87.3125-33.929688-33.957031-.007812-64.878906 12.640625-87.3125 33.929688-22.445312 21.269531-36.371093 51.277343-36.351562 85.40625z" fill="#54596e"/><path d="m406.757812 115.367188c-9.175781 41.851562-40.847656 76.726562-81.449218 88.089843 2.703125 7.839844 4.605468 16.082031 5.609375 24.652344 16.574219-5.808594 31.445312-15.699219 43.582031-28.445313 19.988281-21.011718 32.351562-49.675781 32.339844-80.078124 0-1.414063-.027344-2.820313-.082032-4.21875" fill="#ee9295"/><path d="m408.519531 105.210938c-.4375 3.425781-1.027343 6.8125-1.761719 10.15625.054688 1.394531.082032 2.804687.082032 4.21875.011718 30.402343-12.351563 59.066406-32.339844 80.078124-12.136719 12.746094-27.007812 22.636719-43.582031 28.445313.105469.902344.203125 1.8125.289062 2.726563 45.40625-15.585938 78.285157-60.863282 78.285157-111.097657 0-4.949219-.351563-9.785156-.972657-14.527343" fill="#54596e"/><path d="m186.902344 115.367188c-.054688 1.398437-.082032 2.804687-.082032 4.222656h-2.652343 2.652343c0 1.742187.039063 3.480468.121094 5.210937.773438-.125 1.554688-.242187 2.332032-.351562-.90625-2.984375-1.699219-6.015625-2.371094-9.082031" fill="#ee9295"/><g fill="#54596e"><path d="m186.820312 119.585938h-2.652343v.152343c0 1.84375.042969 3.683594.132812 5.511719.875-.160156 1.757813-.3125 2.640625-.449219-.082031-1.730469-.121094-3.472656-.121094-5.214843m-1.679687-14.375c-.613281 4.691406-.964844 9.476562-.972656 14.375h2.652343c0-1.414063.027344-2.820313.082032-4.21875-.734375-3.34375-1.324219-6.730469-1.761719-10.15625"/><path d="m345.980469 168.851562c-8.621094-18.789062-27.621094-31.824218-49.648438-31.832031-21.554687.003907-40.210937 12.492188-49.078125 30.632813-1.65625 3.386718-.253906 7.476562 3.132813 9.132812 3.382812 1.660156 7.472656.257813 9.132812-3.128906 6.667969-13.613281 20.636719-22.992188 36.8125-22.984375 16.527344-.007813 30.757813 9.785156 37.242188 23.878906 1.574219 3.425781 5.625 4.929688 9.054687 3.355469 3.425782-1.578125 4.925782-5.628906 3.351563-9.054688zm0 0"/><path d="m365.097656 82.953125c0 7.542969-6.113281 13.652344-13.652344 13.652344-7.542968 0-13.65625-6.109375-13.65625-13.652344 0-7.539063 6.113282-13.652344 13.65625-13.652344 7.539063 0 13.652344 6.113281 13.652344 13.652344zm0 0"/><path d="m255.871094 82.953125c0 7.542969-6.113282 13.652344-13.652344 13.652344-7.542969 0-13.65625-6.109375-13.65625-13.652344 0-7.539063 6.113281-13.652344 13.65625-13.652344 7.539062 0 13.652344 6.113281 13.652344 13.652344zm0 0"/></g><path d="m91.246094 242.464844c0-64.527344 52.3125-112.511719 116.835937-112.511719 64.527344 0 116.839844 47.984375 116.839844 112.511719s-52.3125 121.164062-116.839844 121.164062c-64.523437 0-116.835937-56.636718-116.835937-121.164062" fill="#fff35f"/><path d="m91.246094 242.464844h6.828125c.015625-30.398438 12.25-56.640625 32.089843-75.5 19.855469-18.832032 47.351563-30.179688 77.917969-30.183594 30.570313.003906 58.066407 11.351562 77.917969 30.183594 19.84375 18.859375 32.078125 45.101562 32.09375 75.5.011719 30.40625-12.351562 59.070312-32.339844 80.074218-20.003906 21.015626-47.4375 34.261719-77.671875 34.261719-30.230469 0-57.664062-13.25-77.667969-34.261719-19.988281-21.003906-32.351562-49.667968-32.339843-80.074218h-13.652344c.011719 34.125 13.804687 66.042968 36.101563 89.488281 22.28125 23.4375 53.265624 38.503906 87.5625 38.503906 34.292968 0 65.28125-15.066406 87.558593-38.503906 22.300781-23.441406 36.09375-55.359375 36.105469-89.488281.015625-34.125-13.90625-64.140625-36.351562-85.402344-22.433594-21.292969-53.355469-33.9375-87.3125-33.929688-33.957032-.007812-64.882813 12.636719-87.3125 33.929688-22.445313 21.261719-36.371094 51.277344-36.351563 85.402344z" fill="#54596e"/><path d="m98.15625 238.25c-.054688 1.394531-.082031 2.800781-.082031 4.21875h-2.652344 2.652344c-.011719 30.402344 12.351562 59.066406 32.339843 80.074219 20.007813 21.011719 47.4375 34.261719 77.671876 34.261719 30.230468 0 57.664062-13.25 77.667968-34.261719 19.992188-21.007813 32.351563-49.671875 32.339844-80.074219 0-1.417969-.027344-2.820312-.082031-4.21875-11.230469 51.21875-56.164063 92-109.925781 92-53.761719 0-98.699219-40.78125-109.929688-92" fill="#eee361"/><path d="m96.394531 228.097656c-.609375 4.679688-.964843 9.464844-.972656 14.367188h2.652344c0-1.414063.027343-2.820313.082031-4.214844-.734375-3.34375-1.324219-6.730469-1.761719-10.152344m223.378907 0c-.4375 3.421875-1.027344 6.808594-1.761719 10.152344.054687 1.394531.082031 2.800781.082031 4.214844.011719 30.40625-12.347656 59.070312-32.339844 80.074218-20.003906 21.015626-47.4375 34.261719-77.667968 34.261719-30.234376 0-57.664063-13.25-77.671876-34.261719-19.988281-21.003906-32.347656-49.667968-32.339843-80.074218h-2.652344v.15625c0 62.226562 50.441406 116.839844 112.664063 116.839844 62.222656 0 112.660156-54.613282 112.660156-116.839844 0-4.953125-.355469-9.792969-.972656-14.523438" fill="#54596e"/><path d="m158.4375 290.054688c8.621094 18.785156 27.617188 31.824218 49.648438 31.832031 21.554687-.007813 40.214843-12.496094 49.078124-30.632813 1.65625-3.386718.253907-7.480468-3.132812-9.136718s-7.472656-.25-9.132812 3.132812c-6.667969 13.613281-20.636719 22.988281-36.8125 22.984375-16.53125.003906-30.757813-9.785156-37.238282-23.882813-1.578125-3.425781-5.628906-4.925781-9.058594-3.351562-3.425781 1.574219-4.925781 5.628906-3.351562 9.054688zm0 0" fill="#54596e"/><path d="m276.351562 205.832031c0 7.542969-6.113281 13.65625-13.65625 13.65625-7.539062 0-13.652343-6.113281-13.652343-13.65625 0-7.539062 6.113281-13.652343 13.652343-13.652343 7.542969 0 13.65625 6.113281 13.65625 13.652343zm0 0" fill="#54596e"/><path d="m167.125 205.832031c0 7.542969-6.113281 13.65625-13.65625 13.65625-7.539062 0-13.652344-6.113281-13.652344-13.65625 0-7.539062 6.113282-13.652343 13.652344-13.652343 7.542969 0 13.65625 6.113281 13.65625 13.652343zm0 0" fill="#54596e"/></svg>