<svg height="416pt" viewBox="-10 0 416 416.42667" width="416pt" xmlns="http://www.w3.org/2000/svg"><path d="m274.019531 379.832031c-23.339843 10.324219-48.957031 16.109375-75.832031 16.109375s-52.492188-5.785156-75.828125-16.109375c-28.648437 3.75-47.046875 9.570313-47.046875 16.109375 0 11.316406 55.015625 20.484375 122.875 20.484375 67.871094 0 122.882812-9.167969 122.882812-20.484375 0-6.535156-18.402343-12.363281-47.050781-16.109375" fill="#eeeef0"/><path d="m389.339844 190.894531c0-105.570312-85.582032-184.066406-191.152344-184.066406-105.566406 0-191.144531 78.496094-191.144531 184.066406 0 105.566407 85.578125 198.226563 191.144531 198.226563 105.570312 0 191.152344-92.660156 191.152344-198.226563" fill="#adf2a2"/><path d="m389.339844 190.894531h6.820312c.019532-54.648437-22.222656-102.550781-58.113281-136.570312-35.878906-34.054688-85.378906-54.3320315-139.859375-54.324219-54.480469-.0078125-103.976562 20.269531-139.859375 54.324219-35.890625 34.019531-58.132813 81.921875-58.113281 136.570312.011718 54.644531 22.117187 105.828125 57.867187 143.40625 35.726563 37.578125 85.289063 61.640625 140.101563 61.640625 54.820312 0 104.378906-24.0625 140.109375-61.640625 35.746093-37.578125 57.859375-88.761719 57.867187-143.40625h-13.648437c.007812 50.921875-20.671875 98.855469-54.109375 133.992188-33.445313 35.148437-79.460938 57.402343-130.214844 57.410156-50.75-.007813-96.761719-22.261719-130.210938-57.410156-33.441406-35.136719-54.117187-83.070313-54.105468-133.992188.015625-50.921875 20.566406-95.054687 53.855468-126.671875 33.300782-31.589844 79.375-50.5625 130.460938-50.570312 51.089844.007812 97.160156 18.980468 130.460938 50.570312 33.292968 31.613282 53.84375 75.75 53.863281 126.671875z" fill="#54596e"/><path d="m380.917969 167.382812c-11.722657 91.417969-89.039063 167.128907-182.730469 167.128907-93.695312 0-171.003906-75.710938-182.722656-167.128907-1.007813 7.71875-1.589844 15.601563-1.59375 23.671876.03125 50.863281 20.699218 98.730468 54.105468 133.832031 33.449219 35.148437 79.460938 57.402343 130.210938 57.410156 50.753906-.007813 96.765625-22.261719 130.214844-57.410156 33.40625-35.101563 54.074218-82.972657 54.109375-133.839844-.007813-8.070313-.585938-15.949219-1.59375-23.664063" fill="#a4e29d"/><path d="m13.867188 191.054688v.097656c0 101.792968 82.519531 191.144531 184.320312 191.144531-50.753906-.007813-96.761719-22.261719-130.214844-57.410156-33.402344-35.101563-54.070312-82.96875-54.105468-133.832031m368.644531-.007813c-.035157 50.867187-20.703125 98.738281-54.113281 133.839844-33.445313 35.148437-79.460938 57.402343-130.210938 57.410156 101.796875 0 184.324219-89.351563 184.324219-191.144531 0-.035156 0-.070313 0-.105469" fill="#54596e"/><path d="m157.226562 139.945312c0 16.96875-13.753906 30.722657-30.71875 30.722657-16.964843 0-30.71875-13.753907-30.71875-30.722657 0-16.964843 13.753907-30.71875 30.71875-30.71875 16.964844 0 30.71875 13.753907 30.71875 30.71875zm0 0" fill="#fff"/><path d="m157.226562 139.945312h6.828126c-.003907-20.738281-16.808594-37.542968-37.546876-37.546874-20.738281.003906-37.542968 16.808593-37.546874 37.546874.003906 20.738282 16.808593 37.542969 37.546874 37.546876 20.738282-.003907 37.542969-16.808594 37.546876-37.546876h-13.652344c-.023438 13.195313-10.699219 23.867188-23.894532 23.894532-13.195312-.027344-23.867187-10.699219-23.894531-23.894532.027344-13.191406 10.699219-23.867187 23.894531-23.894531 13.195313.027344 23.871094 10.703125 23.894532 23.894531zm0 0" fill="#54596e"/><path d="m300.589844 139.945312c0 16.96875-13.753906 30.722657-30.722656 30.722657-16.964844 0-30.71875-13.753907-30.71875-30.722657 0-16.964843 13.753906-30.71875 30.71875-30.71875 16.96875 0 30.722656 13.753907 30.722656 30.71875zm0 0" fill="#fff"/><g fill="#54596e"><path d="m300.589844 139.945312h6.824218c-.003906-20.738281-16.804687-37.542968-37.546874-37.546874-20.738282.003906-37.542969 16.808593-37.546876 37.546874.003907 20.738282 16.808594 37.542969 37.546876 37.546876 20.742187-.003907 37.542968-16.808594 37.546874-37.546876h-13.652343c-.023438 13.195313-10.699219 23.867188-23.894531 23.894532-13.191407-.027344-23.867188-10.699219-23.890626-23.894532.023438-13.191406 10.699219-23.867187 23.890626-23.894531 13.195312.027344 23.871093 10.703125 23.894531 23.894531zm0 0"/><path d="m241.386719 212.601562c-9.914063-2.125-19.390625-.660156-27.371094 3.34375-10.035156 5.027344-21.621094 5.027344-31.65625 0-7.980469-4.003906-17.457031-5.46875-27.371094-3.34375-15.359375 3.296876-27.742187 15.746094-30.960937 31.117188-5.5625 26.496094 14.507812 49.828125 40.027344 49.828125 7.039062 0 13.664062-1.777344 19.445312-4.910156 9.074219-4.910157 20.300781-4.910157 29.375 0 5.78125 3.132812 12.40625 4.910156 19.445312 4.910156 25.519532 0 45.589844-23.332031 40.027344-49.828125-3.21875-15.375-15.601562-27.820312-30.960937-31.117188zm0 0"/><path d="m241.386719 212.601562 1.433593-6.675781c-3.535156-.757812-7.054687-1.128906-10.496093-1.125-7.660157-.003906-14.945313 1.808594-21.375 5.042969-4.070313 2.039062-8.414063 3.042969-12.761719 3.046875-4.347656-.003906-8.691406-1.007813-12.769531-3.050781-6.421875-3.226563-13.707031-5.042969-21.367188-5.039063-3.4375-.003906-6.957031.359375-10.503906 1.128907-18.0625 3.917968-32.367187 18.308593-36.203125 36.390624-.726562 3.460938-1.074219 6.902344-1.074219 10.273438.003907 26.386719 21.386719 47.777344 47.785157 47.78125 8.191406 0 15.953124-2.078125 22.699218-5.734375 3.492188-1.894531 7.457032-2.859375 11.433594-2.859375 3.980469 0 7.941406.964844 11.4375 2.859375 6.746094 3.660156 14.503906 5.734375 22.695312 5.734375 26.394532-.003906 47.78125-21.390625 47.785157-47.78125 0-3.371094-.351563-6.8125-1.074219-10.273438-3.832031-18.085937-18.140625-32.472656-36.210938-36.394531l-1.433593 6.675781-1.433594 6.671876c12.652344 2.671874 23.105469 13.179687 25.710937 25.847656.535157 2.550781.789063 5.046875.789063 7.472656-.003906 9.445312-3.8125 17.933594-9.996094 24.132812-6.199219 6.1875-14.6875 9.988282-24.136719 9.996094-5.886718-.003906-11.382812-1.480468-16.195312-4.089844-5.578125-3.019531-11.765625-4.507812-17.9375-4.507812-6.175781 0-12.359375 1.488281-17.9375 4.507812-4.816406 2.605469-10.308594 4.085938-16.195312 4.089844-9.449219-.007812-17.9375-3.808594-24.136719-10-6.1875-6.195312-9.992188-14.683594-9.996094-24.128906 0-2.425781.25-4.917969.785156-7.46875 2.609375-12.671875 13.0625-23.179688 25.710938-25.851562 2.609375-.5625 5.152343-.820313 7.632812-.820313 5.507813 0 10.664063 1.292969 15.246094 3.589844 5.960937 2.988281 12.425781 4.5 18.890625 4.5 6.460938 0 12.925781-1.507813 18.886719-4.496094 4.582031-2.304687 9.738281-3.59375 15.246093-3.59375 2.476563 0 5.023438.261719 7.632813.820313zm0 0"/></g></svg>