<svg height="416pt" viewBox="-10 0 416 416.43008" width="416pt" xmlns="http://www.w3.org/2000/svg"><path d="m122.351562 379.832031c-28.640624 3.75-47.042968 9.574219-47.042968 16.113281 0 11.3125 55.015625 20.484376 122.878906 20.484376s122.878906-9.171876 122.878906-20.484376c0-6.539062-18.402344-12.363281-47.046875-16.113281-23.339843 10.328125-48.953125 16.117188-75.832031 16.117188s-52.496094-5.789063-75.835938-16.117188" fill="#eeeef0"/><path d="m389.332031 190.894531c0-105.5625-85.578125-184.0625-191.144531-184.0625s-191.144531 78.5-191.144531 184.0625c0 105.566407 85.578125 198.226563 191.144531 198.226563s191.144531-92.660156 191.144531-198.226563" fill="#fff35f"/><path d="m389.332031 190.894531h6.828125c.015625-54.652343-22.222656-102.550781-58.109375-136.578125-35.886719-34.046875-85.378906-54.316406-139.863281-54.316406-54.476562 0-103.976562 20.269531-139.859375 54.316406-35.890625 34.027344-58.132813 81.925782-58.113281 136.578125.007812 54.644531 22.121094 105.828125 57.867187 143.402344 35.726563 37.578125 85.289063 61.652344 140.105469 61.652344s104.378906-24.070313 140.105469-61.648438c35.746093-37.578125 57.859375-88.761719 57.867187-143.402343h-13.652344c.011719 50.917968-20.664062 98.847656-54.109374 133.996093-33.445313 35.140625-79.460938 57.398438-130.210938 57.402344-50.75-.007813-96.765625-22.261719-130.214844-57.40625-33.433594-35.144531-54.113281-83.078125-54.105468-133.996094.019531-50.917969 20.566406-95.054687 53.859374-126.671875 33.300782-31.585937 79.371094-50.566406 130.460938-50.574218 51.089844.007812 97.164062 18.988281 130.460938 50.574218 33.292968 31.617188 53.839843 75.757813 53.859374 126.675782h6.824219" fill="#54596e"/><path d="m380.914062 167.382812c-11.722656 91.417969-89.03125 167.125-182.726562 167.125-93.691406 0-171.003906-75.707031-182.726562-167.125-1.007813 7.714844-1.589844 15.597657-1.59375 23.667969.035156 50.859375 20.703124 98.730469 54.105468 133.839844 33.449219 35.144531 79.464844 57.402344 130.214844 57.40625 50.75-.007813 96.765625-22.261719 130.210938-57.40625 33.410156-35.109375 54.078124-82.980469 54.109374-133.839844-.007812-8.070312-.585937-15.953125-1.59375-23.667969" fill="#eee361"/><g fill="#54596e"><path d="m382.507812 191.054688c-.03125 50.859374-20.699218 98.726562-54.109374 133.835937-33.445313 35.144531-79.460938 57.402344-130.210938 57.40625 101.796875 0 184.320312-89.351563 184.320312-191.148437 0-.03125 0-.0625 0-.09375m-368.640624-.003907v.101563c0 101.792968 82.523437 191.144531 184.320312 191.144531-50.75-.007813-96.765625-22.261719-130.214844-57.40625-33.402344-35.109375-54.070312-82.980469-54.105468-133.839844"/><path d="m273.28125 126.296875c0 9.421875-7.640625 17.066406-17.066406 17.066406-9.425782 0-17.066406-7.644531-17.066406-17.066406 0-9.425781 7.640624-17.070313 17.066406-17.070313 9.425781 0 17.066406 7.644532 17.066406 17.070313zm0 0"/><path d="m157.226562 126.296875c0 9.421875-7.640624 17.066406-17.066406 17.066406-9.425781 0-17.066406-7.644531-17.066406-17.066406 0-9.425781 7.640625-17.070313 17.066406-17.070313 9.425782 0 17.066406 7.644532 17.066406 17.070313zm0 0"/><path d="m239.148438 286.722656h-81.921876c-11.308593 0-20.476562-9.171875-20.476562-20.480468 0-11.3125 9.167969-20.480469 20.476562-20.480469h81.921876c11.308593 0 20.480468 9.167969 20.480468 20.480469 0 11.308593-9.171875 20.480468-20.480468 20.480468zm0 0"/></g><path d="m155.226562 318.855469 95.574219-95.574219c2.667969-2.664062 2.667969-6.988281 0-9.65625-2.664062-2.664062-6.988281-2.664062-9.652343 0l-95.574219 95.574219c-2.667969 2.667969-2.667969 6.988281 0 9.65625 2.664062 2.664062 6.988281 2.664062 9.652343 0" fill="#ff7d7d"/><path d="m250.800781 309.199219-95.574219-95.574219c-2.664062-2.664062-6.988281-2.664062-9.652343 0-2.667969 2.664062-2.667969 6.988281 0 9.65625l95.574219 95.570312c2.664062 2.667969 6.988281 2.667969 9.652343 0 2.667969-2.664062 2.667969-6.984374 0-9.652343" fill="#ff7d7d"/></svg>