<svg height="436pt" viewBox="-20 0 436 436.90667" width="436pt" xmlns="http://www.w3.org/2000/svg"><path d="m122.597656 379.832031c-28.648437 3.75-47.050781 9.574219-47.050781 16.113281 0 11.316407 55.015625 20.484376 122.875 20.484376 67.863281 0 122.886719-9.167969 122.886719-20.484376 0-6.539062-18.402344-12.363281-47.054688-16.113281-23.335937 10.328125-48.953125 16.113281-75.832031 16.113281-26.875 0-52.488281-5.785156-75.824219-16.113281" fill="#eeeef0"/><path d="m389.574219 190.898438c0-105.566407-85.585938-184.066407-191.152344-184.066407s-191.144531 78.496094-191.144531 184.066407c0 105.566406 85.578125 198.222656 191.144531 198.222656 105.570313 0 191.152344-92.65625 191.152344-198.222656" fill="#adf2a2"/><path d="m389.574219 190.898438h6.824219c.023437-54.652344-22.21875-102.550782-58.113282-136.574219-35.882812-34.054688-85.378906-54.324219-139.863281-54.324219-54.476563 0-103.972656 20.273438-139.851563 54.324219-35.894531 34.023437-58.136718 81.921875-58.117187 136.574219.007813 54.644531 22.117187 105.820312 57.867187 143.402343 35.734376 37.578125 85.289063 61.644531 140.101563 61.644531 54.820313 0 104.378906-24.066406 140.113281-61.644531 35.738282-37.582031 57.859375-88.757812 57.863282-143.402343h-13.652344c.003906 50.921874-20.667969 98.851562-54.101563 133.992187-33.453125 35.148437-79.46875 57.402344-130.222656 57.410156-50.746094-.007812-96.757813-22.261719-130.210937-57.410156-33.433594-35.140625-54.117188-83.070313-54.101563-133.992187.011719-50.921876 20.5625-95.050782 53.851563-126.671876 33.308593-31.589843 79.378906-50.566406 130.460937-50.574218 51.089844.007812 97.164063 18.980468 130.464844 50.574218 33.292969 31.617188 53.835937 75.75 53.859375 126.671876z" fill="#54596e"/><path d="m381.152344 167.378906c-11.726563 91.429688-89.035156 167.132813-182.730469 167.132813-93.691406 0-171-75.703125-182.722656-167.132813-1.007813 7.722656-1.585938 15.601563-1.589844 23.675782.027344 50.863281 20.699219 98.730468 54.101563 133.835937 33.453124 35.148437 79.464843 57.402344 130.210937 57.40625 50.753906-.003906 96.769531-22.257813 130.222656-57.40625 33.398438-35.105469 54.066407-82.972656 54.101563-133.835937-.007813-8.074219-.582032-15.957032-1.59375-23.675782" fill="#a4e29d"/><g fill="#54596e"><path d="m14.109375 191.054688v.097656c0 101.796875 82.519531 191.144531 184.3125 191.144531-50.746094-.003906-96.757813-22.257813-130.210937-57.40625-33.402344-35.105469-54.074219-82.972656-54.101563-133.835937m368.636719 0c-.035156 50.863281-20.703125 98.730468-54.101563 133.835937-33.453125 35.148437-79.46875 57.402344-130.222656 57.40625 101.804687 0 184.324219-89.347656 184.324219-191.144531 0-.03125 0-.066406 0-.097656"/><path d="m104.851562 189.148438 34.132813 34.132812c2.667969 2.667969 6.988281 2.667969 9.65625 0 2.664063-2.664062 2.664063-6.988281 0-9.652344l-34.132813-34.132812c-2.667968-2.667969-6.988281-2.667969-9.65625 0-2.664062 2.664062-2.664062 6.984375 0 9.652344"/><path d="m114.507812 223.28125 34.132813-34.132812c2.664063-2.664063 2.664063-6.988282 0-9.652344-2.667969-2.667969-6.988281-2.667969-9.65625 0l-34.132813 34.132812c-2.664062 2.664063-2.664062 6.988282 0 9.652344 2.667969 2.667969 6.988282 2.667969 9.65625 0"/><path d="m241.386719 189.148438 34.132812 34.132812c2.664063 2.667969 6.988281 2.667969 9.652344 0 2.667969-2.664062 2.667969-6.988281 0-9.652344l-34.132813-34.132812c-2.664062-2.667969-6.988281-2.667969-9.652343 0-2.667969 2.664062-2.667969 6.984375 0 9.652344"/><path d="m251.039062 223.28125 34.132813-34.132812c2.667969-2.664063 2.667969-6.988282 0-9.652344-2.664063-2.667969-6.988281-2.667969-9.652344 0l-34.132812 34.132812c-2.667969 2.664063-2.667969 6.988282 0 9.652344 2.664062 2.667969 6.988281 2.667969 9.652343 0"/><path d="m239.386719 314.027344h-88.746094l6.824219-30.71875c6.828125-23.894532 16.8125-37.546875 37.546875-37.546875 20.738281 0 30.722656 13.652343 37.546875 37.546875zm0 0"/><path d="m239.386719 314.027344v-6.824219h-80.238281l4.984374-22.414063-6.667968-1.480468 6.566406 1.875c3.25-11.460938 7.222656-19.875 11.996094-24.964844 2.390625-2.566406 4.941406-4.382812 7.960937-5.652344 3.019531-1.257812 6.582031-1.976562 11.023438-1.980468 4.441406.003906 8.003906.722656 11.023437 1.980468 4.503906 1.902344 8.070313 5.039063 11.390625 10.089844 3.292969 5.03125 6.125 11.945312 8.566407 20.527344l6.5625-1.875-6.664063 1.476562 6.828125 30.722656 6.667969-1.480468v-6.824219 6.824219l6.664062-1.480469-6.828125-30.71875-.097656-.394531c-3.578125-12.433594-8.011719-22.792969-15.117188-30.503906-3.550781-3.832032-7.8125-6.921876-12.707031-8.960938-4.898437-2.046875-10.359375-3.039062-16.285156-3.03125-5.929687-.007812-11.390625.984375-16.289063 3.03125-7.371093 3.058594-13.1875 8.480469-17.566406 15.230469-4.402344 6.769531-7.578125 14.894531-10.257812 24.234375l-.101563.394531-6.824219 30.71875c-.453124 2.023437.042969 4.136719 1.339844 5.753906 1.296875 1.617188 3.25 2.550781 5.324219 2.550781h88.746094c2.070312 0 4.027343-.933593 5.324219-2.550781 1.296874-1.617187 1.789062-3.730469 1.339843-5.753906zm0 0"/></g><path d="m218.90625 314.027344h-68.265625v98.988281c0 5.652344 7.996094 10.238281 13.652344 10.238281s13.652343-4.585937 13.652343-10.238281v-71.679687h20.480469v40.230468c0 6.800782 4.648438 13.105469 11.359375 14.195313 8.558594 1.390625 15.949219-5.175781 15.949219-13.46875v-40.960938c11.308594 0 20.480469-15.996093 20.480469-27.304687zm0 0" fill="#fff35f"/><path d="m218.90625 314.027344v-6.824219h-68.265625c-1.796875 0-3.558594.726563-4.828125 1.996094-1.269531 1.273437-2 3.03125-2 4.828125v98.988281c0 3.050781 1.097656 5.757813 2.53125 7.839844 2.183594 3.140625 5.070312 5.238281 8.121094 6.769531 3.074218 1.5 6.335937 2.433594 9.828125 2.453125 4.640625-.058594 8.945312-1.613281 12.804687-4.191406 1.910156-1.316407 3.699219-2.929688 5.144532-5.03125 1.433593-2.082031 2.535156-4.789063 2.53125-7.839844v-64.855469h6.828124v33.40625c.007813 4.957032 1.664063 9.660156 4.605469 13.441406 2.929688 3.765626 7.289063 6.652344 12.484375 7.492188l.007813.003906c1.136719.179688 2.265625.269532 3.378906.269532 11.320313-.003907 20.476563-9.167969 20.480469-20.476563v-40.960937h-6.824219v6.824218c4.464844.003906 8.519531-1.597656 11.824219-3.871094 4.980468-3.441406 8.640625-8.34375 11.277344-13.628906 2.601562-5.308594 4.179687-11.019531 4.203124-16.632812 0-1.796875-.726562-3.554688-2-4.828125-1.269531-1.269531-3.027343-1.996094-4.824218-1.996094h-27.308594v13.652344h27.308594v-6.828125h-6.828125c.0625 3.84375-1.824219 9.777344-4.804688 14.039062-1.464843 2.148438-3.160156 3.890625-4.730469 4.957032-1.597656 1.082031-2.929687 1.480468-4.117187 1.484374-1.796875 0-3.558594.726563-4.828125 2-1.269531 1.269532-2 3.027344-2 4.828126v40.960937c-.007812 3.757813-3.058594 6.816406-6.828125 6.824219l-1.203125-.101563.007812.003907c-1.519531-.25-2.835937-1.0625-3.910156-2.421876-1.058594-1.347656-1.722656-3.195312-1.71875-5.035156v-40.230468c0-1.800782-.726562-3.558594-2-4.828126-1.269531-1.269531-3.027344-2-4.824218-2h-20.480469c-1.796875 0-3.558594.726563-4.828125 2-1.269532 1.269532-2 3.027344-2 4.828126v71.679687h.488281l-.46875-.164063-.015625.164063h.484375l-.46875-.164063-.554687.769532c-.601563.652344-1.777344 1.472656-3.039063 2.011718-1.25.554688-2.59375.8125-3.25.796876-1.015625.058593-3.535156-.679688-5.089844-1.808594-.792969-.539063-1.363281-1.128906-1.589843-1.476563l-.164063-.292969-.46875.164063h.480469l-.015625-.164063-.46875.164063h.484375v-92.164063h61.441406zm0 0" fill="#54596e"/><path d="m287.171875 416.429688c0-7.542969-12.222656-13.65625-27.304687-13.65625-15.082032 0-27.308594 6.113281-27.308594 13.65625 0 7.539062 12.226562 13.652343 27.308594 13.652343 15.082031 0 27.304687-6.113281 27.304687-13.652343zm0 0" fill="#fff35f"/><path d="m287.171875 416.429688h6.828125c.011719-3.78125-1.59375-7.199219-3.761719-9.726563-3.292969-3.824219-7.765625-6.292969-12.921875-8.066406-5.167968-1.738281-11.101562-2.683594-17.453125-2.6875-8.46875.019531-16.183593 1.65625-22.359375 4.71875-3.085937 1.550781-5.828125 3.472656-8.011718 6.035156-2.164063 2.527344-3.773438 5.945313-3.761719 9.726563-.011719 3.777343 1.59375 7.195312 3.761719 9.722656 3.292968 3.824218 7.765624 6.292968 12.921874 8.066406 5.167969 1.738281 11.101563 2.683594 17.453126 2.6875 8.46875-.019531 16.183593-1.65625 22.359374-4.71875 3.085938-1.554688 5.828126-3.472656 8.011719-6.035156 2.164063-2.527344 3.773438-5.945313 3.761719-9.722656h-13.652344c-.011718 0 .066406.164062-.53125.902343-.855468 1.074219-3.304687 2.777344-6.867187 3.949219-3.546875 1.203125-8.121094 1.976562-13.082031 1.972656-6.609376.019532-12.546876-1.402344-16.253907-3.28125-1.859375-.917968-3.113281-1.941406-3.695312-2.640625-.597657-.742187-.519531-.90625-.53125-.90625.011719 0-.066407-.164062.53125-.90625.855469-1.070312 3.308593-2.777343 6.867187-3.945312 3.546875-1.203125 8.121094-1.976563 13.082032-1.972657 6.609374-.019531 12.546874 1.398438 16.253906 3.277344 1.859375.917969 3.113281 1.941406 3.695312 2.644532.597656.742187.519532.902343.53125.90625zm0 0" fill="#54596e"/><path d="m123.332031 136.535156s.976563-72.167968-43.886719-90.699218" fill="#adf2a2"/><path d="m130.160156 136.617188v-.453126c-.011718-3.160156-.214844-21.785156-6.082031-42.460937-2.949219-10.339844-7.320313-21.222656-14.023437-30.929687-6.683594-9.6875-15.835938-18.230469-28.003907-23.246094-3.484375-1.441406-7.476562.21875-8.914062 3.703125-1.441407 3.484375.21875 7.476562 3.703125 8.917969 9.328125 3.859374 16.410156 10.347656 21.984375 18.390624 8.351562 12.03125 12.9375 27.523438 15.238281 40.488282 2.328125 12.957031 2.449219 23.328125 2.445312 25.136718v.289063c-.050781 3.769531 2.96875 6.859375 6.738282 6.910156 3.773437.042969 6.867187-2.972656 6.914062-6.746093zm0 0" fill="#54596e"/><path d="m82.375 75.09375 34.132812-27.304688" fill="#adf2a2"/><path d="m86.636719 80.425781 34.132812-27.304687c2.945313-2.355469 3.421875-6.652344 1.066407-9.597656-2.355469-2.945313-6.648438-3.421876-9.59375-1.066407l-34.132813 27.308594c-2.945313 2.355469-3.421875 6.648437-1.066406 9.59375s6.648437 3.421875 9.59375 1.066406" fill="#54596e"/><path d="m102.851562 122.882812 40.960938-6.828124" fill="#adf2a2"/><path d="m103.976562 129.617188 40.957032-6.828126c3.71875-.617187 6.230468-4.136718 5.613281-7.855468-.621094-3.71875-4.136719-6.234375-7.855469-5.613282l-40.960937 6.828126c-3.71875.617187-6.230469 4.136718-5.613281 7.855468.621093 3.71875 4.136718 6.230469 7.859374 5.613282" fill="#54596e"/><path d="m96.027344 95.574219 40.960937-13.652344" fill="#adf2a2"/><path d="m98.1875 102.050781 40.957031-13.652343c3.578125-1.191407 5.511719-5.058594 4.320313-8.636719-1.195313-3.578125-5.058594-5.511719-8.636719-4.316407l-40.960937 13.652344c-3.578126 1.191406-5.507813 5.058594-4.316407 8.636719 1.191407 3.578125 5.058594 5.511719 8.636719 4.316406" fill="#54596e"/></svg>