<svg height="418pt" viewBox="-11 0 418 418.18794" width="418pt" xmlns="http://www.w3.org/2000/svg"><path d="m389.195312 188.800781c-1.15625-105.5625-87.597656-183.121093-193.160156-181.953125-105.558594 1.164063-190.273437 80.601563-189.101562 186.160156 1.160156 105.5625 87.753906 197.273438 193.3125 196.109376 105.558594-1.160157 190.121094-94.757813 188.949218-200.316407" fill="#fff35f"/><path d="m389.195312 188.800781 6.828126-.078125c-.582032-54.242187-23.011719-101.59375-58.8125-135.175781-35.78125-33.609375-84.902344-53.546875-138.832032-53.546875-.789062 0-1.613281 0-2.476562.0195312h.0625c-54.109375.5937498-103.082032 21.1328128-138.53125 55.1562498-35.453125 33.992188-57.3593752 81.578125-57.339844 135.675781 0 .730469 0 1.484376.011719 2.242188.605469 54.285156 23 104.921875 58.757812 142.046875 35.746094 37.109375 85.046875 60.808594 139.394531 60.808594.695313 0 1.371094-.007813 2.023438-.007813h.039062c54.4375-.601562 103.429688-24.886718 138.699219-62.40625 35.273438-37.53125 57.007813-88.402344 57.019531-142.582031 0-.75-.007812-1.484375-.011718-2.226563l-6.832032.074219-6.828124.066407c.011718.699218.011718 1.394531.011718 2.085937.011719 50.496094-20.3125 98.132813-53.3125 133.226563-33.011718 35.097656-78.5 57.558593-128.902344 58.109374h.042969c-.671875.007813-1.320312.011719-1.953125.011719-50.3125-.003906-96.09375-21.914062-129.558594-56.636719-33.449218-34.714843-54.390624-82.132812-54.941406-132.730468-.007812-.703125-.011718-1.390625-.011718-2.082032.015624-50.390624 20.253906-94.234374 53.144531-125.828124 32.902343-31.566407 78.492187-50.789063 129.226562-51.347657h.054688c.703125-.019531 1.4375-.019531 2.207031-.019531 50.558594 0 96.277344 18.660156 129.488281 49.839844 33.207031 31.203125 53.933594 74.835937 54.5 125.378906z" fill="#54596e"/><path d="m380.523438 165.382812c-10.71875 91.539063-87.191407 168.089844-180.878907 169.121094-.636719.007813-1.28125.011719-1.914062.011719-92.839844 0-170-74.445313-182.640625-165.113281-.882813 7.328125-1.363282 14.808594-1.34375 22.441406 0 .359375.003906.71875.007812 1.085938.550782 50.597656 21.492188 98.019531 54.941406 132.734374 33.464844 34.722657 79.246094 56.632813 129.558594 56.636719.632813 0 1.28125-.003906 1.953125-.011719h-.042969c50.402344-.550781 95.890626-23.011718 128.902344-58.109374 33-35.09375 53.324219-82.734376 53.3125-133.226563 0-.691406 0-1.386719-.011718-2.082031-.003907-.507813-.011719-1.019532-.023438-1.527344-.160156-7.476562-.804688-14.800781-1.820312-21.960938" fill="#eee361"/><g fill="#54596e"><path d="m382.347656 187.347656c.007813.507813.015625 1.015625.023438 1.527344.011718.691406.011718 1.386719.011718 2.078125.011719 50.496094-20.316406 98.132813-53.316406 133.226563-33.011718 35.097656-78.496094 57.558593-128.898437 58.109374h.042969c-.675782.007813-1.324219.011719-1.953126.011719-50.3125-.003906-96.097656-21.914062-129.5625-56.636719-33.449218-34.714843-54.386718-82.132812-54.941406-132.730468 0-.367188-.003906-.730469-.007812-1.089844.003906.449219.003906.894531.007812 1.34375 1.117188 101.148438 83.589844 189.117188 184.511719 189.117188.640625 0 1.265625-.003907 1.90625-.007813 101.796875-1.125 183.324219-91.378906 182.203125-193.167969-.007812-.59375-.015625-1.1875-.027344-1.78125"/><path d="m171.085938 83.871094c-5.921876-14.019532-19.808594-23.847656-35.988282-23.851563-15.441406.003907-28.808594 8.96875-35.136718 21.980469-1.652344 3.386719-.242188 7.472656 3.148437 9.125 3.386719 1.652344 7.472656.242188 9.125-3.144531 4.140625-8.476563 12.8125-14.316407 22.863281-14.308594 10.527344-.007813 19.546875 6.402344 23.414063 15.519531 1.464843 3.46875 5.472656 5.09375 8.945312 3.628906 3.472657-1.46875 5.097657-5.472656 3.628907-8.949218zm0 0"/><path d="m293.964844 83.871094c-5.921875-14.019532-19.808594-23.847656-35.988282-23.851563-15.441406.003907-28.808593 8.96875-35.136718 21.980469-1.652344 3.386719-.242188 7.472656 3.148437 9.125s7.476563.242188 9.128907-3.144531c4.136718-8.476563 12.808593-14.316407 22.859374-14.308594 10.53125-.007813 19.546876 6.402344 23.414063 15.519531 1.46875 3.46875 5.472656 5.09375 8.945313 3.628906 3.472656-1.46875 5.097656-5.472656 3.628906-8.949218zm0 0"/><path d="m327.273438 117.144531c12.886718-.03125 20.917968 15.546875 14.894531 28.46875-27.742188 59.460938-82.828125 99.972657-146.261719 99.972657-63.167969 0-118.066406-40.179688-145.914062-99.234376-6.074219-12.886718 1.902343-28.5 14.789062-28.535156zm0 0"/><path d="m327.273438 117.144531.820312 6.777344-.78125-6.441406v6.488281l.78125-.042969-.78125-6.445312v6.488281c2.765625.027344 4.988281 1.175781 6.921875 3.417969 1.890625 2.226562 3.152344 5.558593 3.140625 9.03125 0 2.105469-.4375 4.246093-1.402344 6.316406-13.386718 28.695313-33.34375 52.742187-57.460937 69.566406-24.125 16.824219-52.355469 26.457031-82.605469 26.464844-30.125-.007813-58.246094-9.558594-82.308594-26.253906-24.050781-16.695313-43.992187-40.566407-57.429687-69.070313-.976563-2.078125-1.421875-4.230468-1.421875-6.351562-.011719-3.464844 1.242187-6.792969 3.128906-9.023438 1.933594-2.238281 4.148438-3.390625 6.917969-3.421875l262.496093-.671875.800782-.046875-.816406-6.78125-.019532-6.824219-262.492187.667969c-7.101563-.011719-13.3125 3.433594-17.34375 8.300781-4.074219 4.882813-6.3125 11.179688-6.324219 17.796876-.003906 4.039062.859375 8.210937 2.722656 12.171874 14.410156 30.550782 35.84375 56.304688 61.996094 74.464844 26.140625 18.15625 57.050781 28.695313 90.09375 28.691406 33.179688.003907 64.210938-10.621093 90.421875-28.917968 26.21875-18.296875 47.671875-44.238282 62.023437-74.996094 1.835938-3.9375 2.679688-8.074219 2.679688-12.082031-.011719-6.632813-2.257812-12.933594-6.34375-17.816407-4.039062-4.871093-10.265625-8.308593-17.371094-8.285156l-.863281.050782.820313 6.777343-.019532-6.824219zm0 0"/></g><path d="m95.703125 124.640625h40.960937v293.546875h-40.960937zm0 0" fill="#f99"/><path d="m136.664062 124.640625h42.730469v293.546875h-42.730469zm0 0" fill="#fff35f"/><path d="m177.691406 124.640625h40.894532v293.546875h-40.894532zm0 0" fill="#84ff61"/><path d="m218.585938 124.640625h40.957031v293.546875h-40.957031zm0 0" fill="#55a6ff"/><path d="m259.542969 124.640625h40.960937v293.546875h-40.960937zm0 0" fill="#ffb8f2"/></svg>