<svg height="416pt" viewBox="-10 0 416 416.42667" width="416pt" xmlns="http://www.w3.org/2000/svg"><path d="m274.027344 379.832031c-23.34375 10.328125-48.960938 16.117188-75.839844 16.117188s-52.496094-5.789063-75.835938-16.117188c-28.644531 3.75-47.042968 9.574219-47.042968 16.117188 0 11.308593 55.019531 20.476562 122.878906 20.476562 67.863281 0 122.878906-9.167969 122.878906-20.476562 0-6.542969-18.398437-12.367188-47.039062-16.117188" fill="#eeeef0"/><path d="m389.332031 190.898438c0-105.570313-85.578125-184.066407-191.144531-184.066407-105.5625 0-191.148438 78.496094-191.148438 184.066407 0 105.566406 85.585938 198.226562 191.148438 198.226562 105.566406 0 191.144531-92.664062 191.144531-198.226562" fill="#fff35f"/><path d="m389.332031 190.898438h6.832031c.015626-54.652344-22.226562-102.554688-58.113281-136.578126-35.886719-34.046874-85.378906-54.320312-139.863281-54.320312-54.480469 0-103.980469 20.273438-139.859375 54.320312-35.890625 34.027344-58.128906 81.925782-58.113281 136.578126.011718 54.644531 22.121094 105.820312 57.863281 143.402343 35.730469 37.578125 85.296875 61.648438 140.109375 61.648438 54.816406 0 104.378906-24.070313 140.109375-61.648438 35.746094-37.582031 57.851563-88.761719 57.867187-143.402343h-13.65625c.011719 50.917968-20.664062 98.847656-54.101562 133.992187-33.453125 35.148437-79.464844 57.402344-130.214844 57.410156-50.75-.007812-96.769531-22.261719-130.21875-57.410156-33.433594-35.144531-54.113281-83.074219-54.105468-133.992187.019531-50.921876 20.566406-95.054688 53.863281-126.671876 33.296875-31.589843 79.371093-50.570312 130.460937-50.578124 51.085938.007812 97.164063 18.988281 130.457032 50.578124 33.292968 31.617188 53.84375 75.75 53.859374 126.671876z" fill="#54596e"/><path d="m380.917969 167.382812c-11.726563 91.417969-89.035157 167.128907-182.730469 167.128907s-171.003906-75.707031-182.726562-167.128907c-1.007813 7.71875-1.589844 15.597657-1.597657 23.667969.035157 50.859375 20.707031 98.734375 54.109375 133.839844 33.449219 35.148437 79.464844 57.402344 130.214844 57.40625 50.75-.007813 96.761719-22.257813 130.21875-57.410156 33.398438-35.101563 54.070312-82.972657 54.097656-133.832031-.003906-8.066407-.578125-15.953126-1.585937-23.671876" fill="#eee361"/><g fill="#54596e"><path d="m382.503906 191.058594c-.027344 50.855468-20.699218 98.726562-54.097656 133.832031-33.457031 35.148437-79.46875 57.402344-130.21875 57.410156 101.796875 0 184.316406-89.351562 184.316406-191.152343 0-.03125 0-.0625 0-.089844m-368.640625-.007813v.097657c0 101.796874 82.527344 191.152343 184.324219 191.152343-50.75-.007812-96.765625-22.261719-130.214844-57.410156-33.402344-35.109375-54.074218-82.980469-54.109375-133.839844"/><path d="m280.109375 116.054688c-.015625 7.535156-6.117187 13.636718-13.65625 13.652343-7.535156-.015625-13.636719-6.117187-13.652344-13.652343 0-3.769532-3.054687-6.828126-6.824219-6.828126-3.773437 0-6.828124 3.058594-6.828124 6.828126.003906 15.082031 12.222656 27.300781 27.304687 27.304687 15.085937-.003906 27.304687-12.222656 27.308594-27.304687 0-3.769532-3.058594-6.828126-6.828125-6.828126-3.769532 0-6.824219 3.058594-6.824219 6.828126zm0 0"/><path d="m143.574219 116.054688c-.011719 7.535156-6.117188 13.636718-13.652344 13.652343-7.535156-.015625-13.640625-6.117187-13.652344-13.652343 0-3.769532-3.058593-6.828126-6.828125-6.828126-3.769531 0-6.828125 3.058594-6.828125 6.828126.007813 15.082031 12.226563 27.300781 27.308594 27.304687 15.082031-.003906 27.300781-12.222656 27.304687-27.304687 0-3.769532-3.054687-6.828126-6.824218-6.828126-3.769532 0-6.828125 3.058594-6.828125 6.828126zm0 0"/><path d="m318.660156 205.699219c-25.445312-21.4375-69.414062-34.753907-119.582031-34.839844-25.382813 0-49.191406 3.488281-69.804687 9.644531-20.609376 6.171875-38.046876 14.96875-50.691407 25.980469-2.839843 2.480469-3.132812 6.792969-.652343 9.632813 2.480468 2.84375 6.792968 3.136718 9.632812.65625 10.605469-9.285157 26.417969-17.460938 45.617188-23.1875 19.203124-5.738282 41.769531-9.074219 65.894531-9.074219 47.664062-.085938 89.300781 13.242187 110.746093 31.601562 2.875 2.4375 7.179688 2.085938 9.621094-.789062s2.089844-7.183594-.78125-9.625zm0 0"/></g></svg>