<svg height="416pt" viewBox="-10 0 416 416.43008" width="416pt" xmlns="http://www.w3.org/2000/svg"><path d="m122.359375 379.835938c-28.648437 3.746093-47.046875 9.574218-47.046875 16.113281 0 11.3125 55.011719 20.480469 122.878906 20.480469 67.859375 0 122.878906-9.167969 122.878906-20.480469 0-6.539063-18.402343-12.367188-47.050781-16.113281-23.335937 10.328124-48.953125 16.113281-75.828125 16.113281-26.878906 0-52.492187-5.789063-75.832031-16.113281" fill="#eeeef0"/><path d="m389.339844 190.898438c0-105.570313-85.585938-184.070313-191.148438-184.070313-105.570312 0-191.148437 78.5-191.148437 184.070313 0 105.566406 85.578125 198.226562 191.148437 198.226562 105.5625 0 191.148438-92.660156 191.148438-198.226562" fill="#fff35f"/><path d="m389.339844 190.898438h6.824218c.011719-54.652344-22.226562-102.550782-58.113281-136.578126-35.878906-34.046874-85.382812-54.32421825-139.859375-54.320312-54.484375-.00390625-103.980468 20.273438-139.863281 54.320312-35.890625 34.027344-58.132813 81.921876-58.113281 136.574219.007812 54.640625 22.121094 105.828125 57.867187 143.402344 35.730469 37.578125 85.289063 61.652344 140.105469 61.652344s104.378906-24.074219 140.105469-61.652344c35.742187-37.574219 57.855469-88.761719 57.867187-143.402344h-13.648437c.007812 50.925781-20.667969 98.851563-54.105469 133.996094-33.453125 35.148437-79.46875 57.40625-130.214844 57.40625-50.753906 0-96.765625-22.257813-130.214844-57.40625-33.4375-35.144531-54.121093-83.070313-54.105468-133.992187.019531-50.921876 20.566406-95.054688 53.855468-126.671876 33.304688-31.59375 79.378907-50.566406 130.464844-50.570312 51.085938.003906 97.160156 18.976562 130.457032 50.570312 33.292968 31.613282 53.84375 75.75 53.863281 126.671876z" fill="#54596e"/><path d="m380.917969 167.382812c-11.726563 91.417969-89.035157 167.125-182.726563 167.125-93.695312 0-171.007812-75.707031-182.726562-167.125-1.015625 7.71875-1.589844 15.605469-1.597656 23.671876.03125 50.867187 20.703124 98.726562 54.109374 133.835937 33.054688 34.734375 78.382813 56.878906 128.429688 57.394531.097656.003906.203125.003906.300781.003906.09375 0 .195313.003907.289063.003907h.257812c.3125.003906.625.003906.9375.003906s.625 0 .941406-.003906h.25c.109376 0 .21875-.003907.328126-.003907.085937 0 .175781 0 .265624-.003906 50.039063-.515625 95.371094-22.660156 128.429688-57.394531 33.402344-35.109375 54.070312-82.972656 54.105469-133.839844-.007813-8.070312-.589844-15.949219-1.59375-23.667969" fill="#eee361"/><g fill="#54596e"><path d="m197.257812 382.292969c.308594.003906.621094.003906.933594.003906-.3125 0-.625 0-.933594-.003906m1.875 0c-.316406.003906-.628906.003906-.941406.003906.316406 0 .625 0 .941406-.003906m-2.425781-.003907c.101563 0 .191407.003907.292969.003907-.097656 0-.195312-.003907-.292969-.003907m3.003907 0c-.113282 0-.21875.003907-.332032.003907.113282 0 .21875-.003907.332032-.003907m-185.839844-191.234374v.09375c0 101.199218 81.558594 190.101562 182.535156 191.136718-50.046875-.515625-95.371094-22.660156-128.429688-57.394531-33.402343-35.109375-54.074218-82.96875-54.105468-133.835937m368.640625-.003907c-.035157 50.867188-20.703125 98.730469-54.109375 133.839844-33.058594 34.734375-78.386719 56.878906-128.429688 57.394531 100.972656-1.035156 182.539063-89.9375 182.539063-191.136718 0-.035157 0-.066407 0-.097657"/><path d="m286.933594 136.535156c-.019532 11.308594-9.171875 20.457032-20.480469 20.480469-11.304687-.023437-20.457031-9.171875-20.476563-20.480469 0-3.773437-3.058593-6.828125-6.828124-6.828125-3.769532 0-6.828126 3.054688-6.828126 6.828125.007813 18.851563 15.28125 34.128906 34.132813 34.132813 18.855469-.003907 34.128906-15.28125 34.136719-34.132813 0-3.773437-3.058594-6.828125-6.828125-6.828125s-6.828125 3.054688-6.828125 6.828125zm0 0"/><path d="m143.574219 136.535156c-.019531 11.308594-9.171875 20.457032-20.480469 20.480469-11.304688-.023437-20.457031-9.171875-20.480469-20.480469 0-3.773437-3.054687-6.828125-6.824219-6.828125-3.769531 0-6.828124 3.054688-6.828124 6.828125.007812 18.851563 15.28125 34.128906 34.132812 34.132813 18.855469-.003907 34.128906-15.28125 34.132812-34.132813 0-3.773437-3.054687-6.828125-6.824218-6.828125-3.769532 0-6.828125 3.054688-6.828125 6.828125zm0 0"/><path d="m179.910156 211.882812c-13.101562 3.683594-22.667968 15.707032-22.683594 29.972657.015626 14.789062 10.292969 27.164062 24.144532 30.34375l.753906.171875h63.851562c3.769532 0 6.824219-3.054688 6.824219-6.824219s-3.054687-6.824219-6.824219-6.824219l-63.078124-.003906v6.828125l1.527343-6.652344c-7.734375-1.78125-13.558593-8.738281-13.542969-17.039062-.015624-8.007813 5.402344-14.761719 12.730469-16.828125 3.625-1.027344 5.738281-4.796875 4.71875-8.425782-1.023437-3.625-4.792969-5.738281-8.421875-4.71875zm0 0"/><path d="m138.953125 212.578125c-13.105469 3.683594-22.671875 15.707031-22.683594 29.972656.011719 14.789063 10.292969 27.164063 24.140625 30.34375l.753906.171875h63.851563c3.769531 0 6.824219-3.054687 6.824219-6.824218 0-3.769532-3.054688-6.824219-6.824219-6.824219l-63.078125-.003907v6.828126l1.53125-6.652344c-7.738281-1.78125-13.5625-8.742188-13.546875-17.039063-.015625-8.007812 5.402344-14.761719 12.730469-16.832031 3.628906-1.023438 5.742187-4.792969 4.71875-8.421875-1.019532-3.628906-4.792969-5.742187-8.417969-4.71875zm0 0"/><path d="m355.203125 20.480469h19.558594l-24.804688 29.761719c-1.699219 2.039062-2.0625 4.863281-.9375 7.265624 1.128907 2.40625 3.527344 3.933594 6.183594 3.933594h34.132813c3.769531 0 6.824218-3.058594 6.824218-6.828125s-3.054687-6.824219-6.824218-6.824219h-19.5625l24.804687-29.761718c1.703125-2.039063 2.066406-4.863282.9375-7.269532-1.125-2.402343-3.527344-3.929687-6.179687-3.929687h-34.132813c-3.769531 0-6.828125 3.054687-6.828125 6.828125 0 3.769531 3.058594 6.824219 6.828125 6.824219zm0 0"/><path d="m259.628906 61.441406h13.101563l-18.433594 23.042969c-1.644531 2.054687-1.960937 4.847656-.824219 7.21875 1.144532 2.375 3.519532 3.871094 6.152344 3.871094h27.308594c3.769531 0 6.828125-3.054688 6.828125-6.824219 0-3.773438-3.058594-6.828125-6.828125-6.828125h-13.105469l18.4375-23.042969c1.644531-2.058594 1.960937-4.847656.820313-7.222656-1.136719-2.371094-3.515626-3.867188-6.152344-3.867188h-27.304688c-3.769531 0-6.828125 3.054688-6.828125 6.824219 0 3.773438 3.058594 6.828125 6.828125 6.828125zm0 0"/><path d="m321.070312 177.496094h13.101563l-18.433594 23.039062c-1.648437 2.058594-1.964843 4.851563-.824219 7.222656 1.140626 2.375 3.519532 3.871094 6.152344 3.871094h27.308594c3.769531 0 6.824219-3.058594 6.824219-6.828125s-3.054688-6.824219-6.824219-6.824219h-13.105469l18.433594-23.046874c1.648437-2.054688 1.964844-4.847657.824219-7.21875-1.140625-2.371094-3.519532-3.871094-6.152344-3.871094h-27.304688c-3.773437 0-6.828124 3.058594-6.828124 6.828125s3.054687 6.828125 6.828124 6.828125zm0 0"/></g></svg>