<svg height="436pt" viewBox="-20 0 436 436.90667" width="436pt" xmlns="http://www.w3.org/2000/svg"><path d="m274.257812 379.832031c-23.339843 10.328125-48.949218 16.113281-75.828124 16.113281-26.878907 0-52.496094-5.789062-75.832032-16.113281-28.652344 3.75-47.050781 9.574219-47.050781 16.113281 0 11.316407 55.015625 20.484376 122.882813 20.484376 67.863281 0 122.878906-9.167969 122.878906-20.484376 0-6.539062-18.402344-12.363281-47.050782-16.113281" fill="#eeeef0"/><path d="m389.574219 190.898438c0-105.566407-85.578125-184.066407-191.144531-184.066407-105.566407 0-191.152344 78.496094-191.152344 184.066407 0 105.566406 85.585937 198.222656 191.152344 198.222656 105.566406 0 191.144531-92.65625 191.144531-198.222656" fill="#fff35f"/><path d="m389.574219 190.898438h6.824219c.023437-54.652344-22.21875-102.550782-58.113282-136.574219-35.882812-34.054688-85.378906-54.324219-139.855468-54.324219-54.484376 0-103.980469 20.273438-139.859376 54.324219-35.894531 34.023437-58.136718 81.921875-58.117187 136.574219.007813 54.644531 22.117187 105.820312 57.867187 143.402343 35.734376 37.578125 85.289063 61.644531 140.109376 61.644531 54.8125 0 104.371093-24.066406 140.105468-61.644531 35.746094-37.582031 57.859375-88.757812 57.863282-143.402343h-13.652344c.011718 50.921874-20.667969 98.851562-54.101563 133.992187-33.453125 35.148437-79.46875 57.402344-130.214843 57.410156-50.753907-.007812-96.765626-22.261719-130.21875-57.410156-33.433594-35.140625-54.117188-83.070313-54.101563-133.992187.011719-50.921876 20.566406-95.050782 53.859375-126.671876 33.300781-31.589843 79.371094-50.566406 130.460938-50.574218 51.082031.007812 97.15625 18.980468 130.457031 50.574218 33.292969 31.617188 53.84375 75.75 53.859375 126.671876z" fill="#54596e"/><path d="m381.152344 167.378906c-11.71875 91.429688-89.035156 167.132813-182.71875 167.132813-93.695313 0-171.011719-75.703125-182.730469-167.132813-1.011719 7.722656-1.589844 15.605469-1.59375 23.679688.03125 50.863281 20.703125 98.726562 54.101563 133.832031 33.453124 35.148437 79.46875 57.402344 130.222656 57.40625 50.746094-.003906 96.757812-22.257813 130.210937-57.40625 33.398438-35.105469 54.074219-82.972656 54.101563-133.835937-.007813-8.074219-.582032-15.953126-1.59375-23.675782" fill="#eee361"/><path d="m14.109375 191.058594v.09375c0 101.796875 82.519531 191.144531 184.320313 191.144531-50.753907-.003906-96.765626-22.257813-130.21875-57.40625-33.402344-35.105469-54.074219-82.96875-54.101563-133.832031m368.636719-.003906c-.03125 50.863281-20.703125 98.730468-54.101563 133.835937-33.453125 35.148437-79.46875 57.402344-130.214843 57.40625 101.796874 0 184.316406-89.347656 184.316406-191.144531 0-.03125 0-.066406 0-.097656" fill="#54596e"/><path d="m246.214844 314.027344h-95.574219l7.351563-30.71875c7.355468-23.894532 18.101562-37.546875 40.433593-37.546875 22.335938 0 33.082031 13.652343 40.433594 37.546875zm0 0" fill="#54596e"/><path d="m246.214844 314.027344v-6.824219h-86.921875l5.339843-22.304687-6.640624-1.589844 6.527343 2.007812c3.496094-11.4375 7.730469-19.789062 12.902344-24.917968 2.59375-2.585938 5.402344-4.453126 8.769531-5.765626 3.363282-1.304687 7.34375-2.042968 12.234375-2.046874 4.894531.003906 8.871094.742187 12.238281 2.046874 5.023438 1.972657 8.90625 5.179688 12.472657 10.21875 3.542969 5.023438 6.574219 11.90625 9.199219 20.460938l6.523437-2.003906-6.640625 1.585937 7.355469 30.722657 6.640625-1.589844v-6.824219 6.824219l6.636718-1.589844-7.351562-30.71875-.117188-.417969c-3.855468-12.460937-8.671874-22.878906-16.292968-30.550781-3.804688-3.816406-8.328125-6.855469-13.488282-8.847656-5.160156-2.003906-10.902343-2.972656-17.175781-2.96875-6.273437-.003906-12.011719.964844-17.171875 2.96875-7.765625 2.988281-13.992187 8.339844-18.710937 15.101562-4.75 6.777344-8.1875 14.933594-11.074219 24.296875l-.117188.417969-7.351562 30.71875c-.488281 2.039062-.019531 4.171875 1.28125 5.816406 1.296875 1.648438 3.261719 2.597656 5.355469 2.597656h95.574219c2.097656 0 4.0625-.953124 5.359374-2.597656 1.300782-1.644531 1.769532-3.777344 1.28125-5.816406zm0 0" fill="#54596e"/><path d="m218.90625 314.027344h-68.265625v98.988281c0 5.652344 8 10.238281 13.652344 10.238281 5.652343 0 13.652343-4.585937 13.652343-10.238281v-71.679687h20.480469v40.230468c0 6.800782 4.648438 13.105469 11.359375 14.195313 8.554688 1.390625 15.949219-5.175781 15.949219-13.46875v-40.960938c11.3125 0 20.480469-15.996093 20.480469-27.304687zm0 0" fill="#f99"/><path d="m218.90625 314.027344v-6.824219h-68.265625c-1.796875 0-3.558594.726563-4.828125 1.996094-1.273438 1.273437-2 3.03125-2 4.828125v98.988281c0 3.050781 1.097656 5.757813 2.53125 7.839844 2.1875 3.144531 5.070312 5.238281 8.121094 6.769531 3.074218 1.5 6.335937 2.433594 9.828125 2.453125 4.636719-.058594 8.941406-1.613281 12.804687-4.191406 1.910156-1.3125 3.699219-2.929688 5.144532-5.03125 1.433593-2.082031 2.53125-4.789063 2.53125-7.839844v-64.855469h6.828124v33.40625c.003907 4.957032 1.664063 9.660156 4.605469 13.441406 2.929688 3.765626 7.289063 6.652344 12.484375 7.492188 1.140625.183594 2.273438.273438 3.386719.273438 11.316406-.003907 20.476563-9.167969 20.480469-20.476563v-40.960937h-6.828125v6.824218c4.46875.003906 8.519531-1.597656 11.828125-3.871094 4.980468-3.441406 8.640625-8.34375 11.277344-13.628906 2.601562-5.308594 4.175781-11.019531 4.203124-16.632812 0-1.796875-.730468-3.554688-2-4.828125-1.269531-1.269531-3.027343-1.996094-4.824218-1.996094h-27.308594v13.652344h27.308594v-6.828125h-6.828125c.0625 3.847656-1.824219 9.777344-4.804688 14.039062-1.464843 2.148438-3.160156 3.890625-4.730469 4.957032-1.59375 1.082031-2.929687 1.480468-4.117187 1.484374-1.796875 0-3.558594.726563-4.828125 2-1.273438 1.269532-2 3.03125-2 4.828126v40.960937c-.007812 3.757813-3.0625 6.816406-6.828125 6.824219l-1.203125-.101563c-1.511719-.246093-2.832031-1.058593-3.90625-2.417969-1.058594-1.347656-1.722656-3.195312-1.714844-5.035156v-40.230468c0-1.800782-.730468-3.558594-2-4.828126-1.269531-1.269531-3.027344-2-4.824218-2h-20.480469c-1.796875 0-3.558594.726563-4.828125 2-1.273438 1.269532-2 3.03125-2 4.828126v71.679687h.484375l-.46875-.164063-.015625.164063h.484375l-.46875-.164063-.554688.769532c-.605469.652344-1.78125 1.472656-3.042969 2.011718-1.25.554688-2.59375.8125-3.246093.796876-1.015625.058593-3.539063-.679688-5.089844-1.808594-.796875-.539063-1.363281-1.128906-1.589844-1.476563l-.164062-.292969-.46875.164063h.484375l-.015625-.164063-.46875.164063h.484375v-92.164063h61.441406zm0 0" fill="#54596e"/><path d="m287.171875 416.429688c0-7.542969-12.222656-13.65625-27.304687-13.65625-15.082032 0-27.308594 6.113281-27.308594 13.65625 0 7.539062 12.226562 13.652343 27.308594 13.652343 15.082031 0 27.304687-6.113281 27.304687-13.652343zm0 0" fill="#f99"/><g fill="#54596e"><path d="m287.171875 416.429688h6.828125c.011719-3.78125-1.59375-7.199219-3.761719-9.726563-3.292969-3.824219-7.765625-6.292969-12.921875-8.066406-5.167968-1.738281-11.101562-2.683594-17.453125-2.6875-8.46875.019531-16.183593 1.65625-22.359375 4.71875-3.085937 1.550781-5.828125 3.472656-8.011718 6.035156-2.167969 2.527344-3.773438 5.945313-3.761719 9.726563-.011719 3.777343 1.59375 7.195312 3.761719 9.722656 3.292968 3.824218 7.765624 6.292968 12.921874 8.066406 5.167969 1.738281 11.101563 2.683594 17.449219 2.6875 8.472657-.019531 16.1875-1.65625 22.363281-4.71875 3.085938-1.554688 5.824219-3.472656 8.011719-6.035156 2.164063-2.527344 3.773438-5.945313 3.761719-9.722656h-13.652344c-.011718 0 .066406.164062-.53125.902343-.855468 1.074219-3.304687 2.777344-6.867187 3.949219-3.546875 1.203125-8.121094 1.976562-13.082031 1.972656-6.609376.019532-12.546876-1.402344-16.253907-3.28125-1.859375-.917968-3.113281-1.941406-3.695312-2.640625-.597657-.742187-.519531-.90625-.53125-.90625.011719 0-.066407-.164062.53125-.90625.855469-1.070312 3.308593-2.777343 6.867187-3.945312 3.546875-1.203125 8.121094-1.976563 13.082032-1.972657 6.609374-.019531 12.550781 1.398438 16.253906 3.277344 1.859375.917969 3.113281 1.941406 3.695312 2.644532.597656.742187.519532.902343.53125.90625zm0 0"/><path d="m273.519531 177.496094c0 7.539062-6.113281 13.652344-13.652343 13.652344-7.542969 0-13.652344-6.113282-13.652344-13.652344 0-7.542969 6.109375-13.65625 13.652344-13.65625 7.539062 0 13.652343 6.113281 13.652343 13.65625zm0 0"/><path d="m150.640625 177.496094c0 7.539062-6.113281 13.652344-13.652344 13.652344-7.542969 0-13.65625-6.113282-13.65625-13.652344 0-7.542969 6.113281-13.65625 13.65625-13.65625 7.539063 0 13.652344 6.113281 13.652344 13.65625zm0 0"/><path d="m82.375 150.1875c.003906 11.3125 9.164062 20.476562 20.476562 20.480469h184.320313c11.316406-.003907 20.476563-9.167969 20.480469-20.480469 0-3.769531-3.054688-6.824219-6.824219-6.824219s-6.828125 3.054688-6.828125 6.824219c-.007812 3.765625-3.058594 6.820312-6.828125 6.828125h-184.320313c-3.765624-.007813-6.816406-3.0625-6.824218-6.828125 0-3.769531-3.058594-6.824219-6.828125-6.824219s-6.824219 3.054688-6.824219 6.824219zm0 0"/></g><path d="m182.273438 286.722656 9.328124-20.480468h-18.65625zm0 0" fill="#fff"/><path d="m216.40625 286.722656 9.328125-20.480468h-18.65625zm0 0" fill="#fff"/><path d="m171.121094 269.65625h54.613281c1.882813 0 3.414063-1.53125 3.414063-3.414062 0-1.886719-1.53125-3.414063-3.414063-3.414063h-54.613281c-1.886719 0-3.414063 1.527344-3.414063 3.414063 0 1.886718 1.527344 3.414062 3.414063 3.414062" fill="#fff"/><path d="m225.960938 266.242188c-6.054688-10.015626-14.441407-15.605469-27.535157-15.605469s-21.480469 5.589843-27.53125 15.605469zm0 0" fill="#fff"/></svg>