<svg height="416pt" viewBox="-10 0 416 416.43008" width="416pt" xmlns="http://www.w3.org/2000/svg"><path d="m122.359375 379.835938c-28.644531 3.746093-47.050781 9.574218-47.050781 16.109374 0 11.316407 55.015625 20.484376 122.878906 20.484376 67.867188 0 122.882812-9.167969 122.882812-20.484376 0-6.535156-18.40625-12.363281-47.054687-16.109374-23.339844 10.328124-48.949219 16.109374-75.828125 16.109374-26.875 0-52.488281-5.785156-75.828125-16.109374" fill="#eeeef0"/><path d="m389.335938 190.898438c0-105.566407-85.578126-184.066407-191.148438-184.066407-105.566406 0-191.148438 78.5-191.148438 184.066407 0 105.566406 85.582032 198.222656 191.148438 198.222656 105.570312 0 191.148438-92.65625 191.148438-198.222656" fill="#fff35f"/><path d="m389.335938 190.898438h6.824218c.023438-54.648438-22.222656-102.550782-58.109375-136.578126-35.878906-34.046874-85.386719-54.320312-139.863281-54.320312-54.484375 0-103.980469 20.273438-139.863281 54.320312-35.886719 34.027344-58.128907 81.929688-58.109375 136.578126.007812 54.644531 22.121094 105.824218 57.871094 143.402343 35.722656 37.574219 85.285156 61.644531 140.101562 61.644531 54.820312 0 104.378906-24.070312 140.105469-61.644531 35.746093-37.582031 57.863281-88.757812 57.867187-143.402343h-13.648437c.007812 50.914062-20.671875 98.847656-54.105469 133.992187-33.449219 35.148437-79.46875 57.40625-130.214844 57.40625-50.75 0-96.769531-22.257813-130.214844-57.40625-33.4375-35.144531-54.113281-83.078125-54.109374-133.992187.023437-50.921876 20.570312-95.050782 53.859374-126.675782 33.300782-31.585937 79.371094-50.5625 130.460938-50.5625 51.085938 0 97.164062 18.976563 130.464844 50.566406 33.289062 31.621094 53.839844 75.75 53.859375 126.675782h6.824219" fill="#54596e"/><path d="m380.914062 167.386719c-11.71875 91.417969-89.03125 167.125-182.726562 167.125s-171.003906-75.707031-182.722656-167.125c-1.007813 7.714843-1.59375 15.597656-1.597656 23.664062.035156 50.859375 20.703124 98.734375 54.105468 133.839844 33.449219 35.148437 79.46875 57.40625 130.214844 57.40625 50.75 0 96.765625-22.257813 130.214844-57.40625 33.402344-35.105469 54.074218-82.980469 54.109375-133.839844-.003907-8.070312-.589844-15.949219-1.597657-23.664062" fill="#eee361"/><g fill="#54596e"><path d="m13.867188 191.050781v.097657c0 101.796874 82.523437 191.148437 184.320312 191.148437-50.746094 0-96.765625-22.257813-130.214844-57.40625-33.402344-35.105469-54.070312-82.980469-54.105468-133.839844m368.644531 0c-.035157 50.859375-20.707031 98.734375-54.109375 133.839844-33.449219 35.148437-79.464844 57.40625-130.214844 57.40625 101.796875 0 184.324219-89.351563 184.324219-191.148437 0-.035157 0-.066407 0-.097657"/><path d="m300.589844 122.882812c-.003906-18.855468-15.28125-34.128906-34.136719-34.132812-18.851563.003906-34.128906 15.277344-34.132813 34.132812 0 3.769532 3.058594 6.828126 6.828126 6.828126 3.769531 0 6.828124-3.058594 6.828124-6.828126.019532-11.308593 9.171876-20.457031 20.476563-20.480468 11.308594.023437 20.460937 9.171875 20.480469 20.480468 0 3.769532 3.058594 6.828126 6.828125 6.828126s6.828125-3.058594 6.828125-6.828126zm0 0"/><path d="m157.226562 122.882812c0-18.855468-15.277343-34.128906-34.132812-34.132812-18.851562.003906-34.128906 15.277344-34.132812 34.132812 0 3.769532 3.058593 6.828126 6.828124 6.828126 3.769532 0 6.824219-3.058594 6.824219-6.828126.023438-11.308593 9.175781-20.457031 20.480469-20.480468 11.308594.023437 20.460938 9.171875 20.480469 20.480468 0 3.769532 3.058593 6.828126 6.828125 6.828126 3.769531 0 6.824218-3.058594 6.824218-6.828126zm0 0"/><path d="m135.363281 212.359375c19.242188 3.925781 40.480469 6.09375 62.824219 6.09375 22.332031 0 43.558594-2.167969 62.792969-6.085937 3.691406-.757813 6.078125-4.363282 5.324219-8.054688-.753907-3.695312-4.359376-6.078125-8.050782-5.324219-18.273437 3.726563-38.621094 5.816407-60.0625 5.816407-21.460937 0-41.816406-2.09375-60.097656-5.824219-3.695312-.753907-7.300781 1.628906-8.054688 5.324219-.753906 3.695312 1.628907 7.300781 5.324219 8.054687zm0 0"/><path d="m95.789062 259.414062c26.394532-.003906 47.78125-21.390624 47.785157-47.785156-.003907-26.394531-21.390625-47.78125-47.785157-47.785156-3.769531 0-6.828124 3.054688-6.828124 6.828125 0 3.769531 3.058593 6.824219 6.828124 6.824219 9.445313.003906 17.9375 3.808594 24.136719 9.996094 6.1875 6.199218 9.992188 14.6875 9.996094 24.136718-.003906 9.449219-3.8125 17.9375-9.996094 24.136719-6.199219 6.1875-14.691406 9.992187-24.136719 9.996094-3.769531 0-6.828124 3.054687-6.828124 6.828125 0 3.769531 3.058593 6.828125 6.828124 6.824218zm0 0"/><path d="m300.589844 245.761719c-9.449219-.003907-17.9375-3.808594-24.136719-9.996094-6.1875-6.199219-9.996094-14.6875-10-24.136719.003906-9.445312 3.8125-17.9375 10-24.136718 6.199219-6.1875 14.6875-9.992188 24.136719-9.996094 3.765625 0 6.824218-3.058594 6.824218-6.824219 0-3.773437-3.058593-6.828125-6.824218-6.828125-26.394532.003906-47.78125 21.390625-47.789063 47.785156.007813 26.394532 21.394531 47.78125 47.789063 47.785156 3.765625 0 6.824218-3.054687 6.824218-6.824218 0-3.769532-3.058593-6.824219-6.824218-6.828125zm0 0"/></g><path d="m102.613281 211.628906c0 15.082032-12.222656 27.308594-27.304687 27.308594-15.082032 0-27.308594-12.226562-27.308594-27.308594 0-15.078125 12.226562-27.304687 27.308594-27.304687 15.082031 0 27.304687 12.226562 27.304687 27.304687zm0 0" fill="#ff9c9c"/><path d="m348.375 211.628906c0 15.082032-12.226562 27.308594-27.304688 27.308594-15.082031 0-27.308593-12.226562-27.308593-27.308594 0-15.078125 12.226562-27.304687 27.308593-27.304687 15.078126 0 27.304688 12.226562 27.304688 27.304687zm0 0" fill="#ff9c9c"/></svg>