<svg height="413pt" viewBox="-11 -11 413 413.60001" width="413pt" xmlns="http://www.w3.org/2000/svg"><path d="m195.5 4c-105.5 0-191.101562 78.5-191.101562 184.101562 0 105.597657 85.601562 198.199219 191.101562 198.199219s191.199219-92.601562 191.199219-198.199219c0-105.601562-85.597657-184.101562-191.199219-184.101562zm0 0" fill="#fff35f"/><path d="m254.101562 215.699219c0 32.300781-26.300781 58.601562-58.601562 58.601562s-58.601562-26.300781-58.601562-58.601562c0-2.199219 1.800781-4 4-4h109.203124c2.199219 0 4 1.699219 4 4zm0 0" fill="#54596e"/><path d="m195.5 335.699219c-93.699219 0-171-75.699219-182.699219-167.097657-1 7.699219-1.601562 15.699219-1.601562 23.796876 0 101.800781 82.5 191.101562 184.300781 191.101562s184.300781-89.300781 184.300781-191.101562c0-8.097657-.601562-16-1.601562-23.796876-11.699219 91.398438-89 167.097657-182.699219 167.097657zm0 0" fill="#efdf6a"/><path d="m236.5 233.300781h-81.898438c-2.203124 0-4-1.800781-4-4s1.796876-4 4-4h81.898438c2.199219 0 4 1.800781 4 4s-1.800781 4-4 4zm0 0" fill="#fff"/><path d="m195.5 390.300781c-51.699219 0-100.800781-21.601562-138.101562-60.800781-36.296876-38.101562-57.097657-89.699219-57.097657-141.5 0-51.699219 20.300781-99.5 57.199219-134.5 36.5-34.5 85.5-53.5 138-53.5s101.5 19 137.898438 53.5c36.902343 35 57.203124 82.800781 57.203124 134.5 0 51.800781-20.800781 103.300781-57.101562 141.5-37.199219 39.199219-86.199219 60.800781-138 60.800781zm0-382.300781c-104.898438 0-187.101562 79.101562-187.101562 180.101562 0 105.296876 85.703124 194.199219 187.101562 194.199219s187.101562-88.902343 187.101562-194.199219c.097657-101-82.101562-180.101562-187.101562-180.101562zm0 0" fill="#54596e"/><path d="m270.601562 176.5h44.398438c23.898438 0 43.398438-22.199219 43.398438-49.699219v-45.902343h-131.097657v45.902343c0 27.5 19.398438 49.699219 43.300781 49.699219zm0 0" fill="#f4eca8"/><path d="m120.601562 176.5h-44.101562c-23.800781 0-43.101562-22.199219-43.101562-49.699219v-45.902343h130.300781v45.902343c0 27.5-19.398438 49.699219-43.097657 49.699219zm0 0" fill="#f4eca8"/><g fill="#54596e"><path d="m345.699219 75.101562h-102.300781c-12.199219 0-22.296876 8.898438-24.199219 20.5h-47.300781c-2-11.601562-12.097657-20.5-24.199219-20.5h-102.398438c-24.800781 0-45 20.199219-45 45 0 2.199219 1.800781 4 4 4s4-1.800781 4-4c0-20.402343 16.597657-37 37-37h102.300781c9.097657 0 16.597657 7.398438 16.597657 16.597657v13.5c0 2.199219 1.800781 4 4 4s4-1.800781 4-4v-9.699219h46.601562v9.699219c0 2.199219 1.800781 4 4 4s4-1.800781 4-4v-13.5c0-9.097657 7.398438-16.597657 16.597657-16.597657h102.300781c20.402343 0 37 16.597657 37 37 0 2.199219 1.800781 4 4 4s4-1.800781 4-4c0-24.800781-20.199219-45-45-45zm0 0"/><path d="m134.101562 144.601562c-2.203124 0-4-1.800781-4-4 0-9.101562-7.402343-16.5-16.5-16.5-9.101562 0-16.5 7.398438-16.5 16.5 0 2.199219-1.800781 4-4 4-2.203124 0-4-1.800781-4-4 0-13.5 11-24.5 24.5-24.5s24.5 11 24.5 24.5c0 2.199219-1.800781 4-4 4zm0 0"/><path d="m297.898438 144.601562c-2.199219 0-4-1.800781-4-4 0-9.101562-7.398438-16.5-16.5-16.5-9.097657 0-16.5 7.398438-16.5 16.5 0 2.199219-1.796876 4-4 4-2.199219 0-4-1.800781-4-4 0-13.5 11-24.5 24.5-24.5s24.5 11 24.5 24.5c0 2.199219-1.796876 4-4 4zm0 0"/></g><path d="m263.800781 163.898438h68.300781v8h-68.300781zm0 0" fill="#fff"/><path d="m59 163.898438h68.300781v8h-68.300781zm0 0" fill="#fff"/></svg>