<svg height="416pt" viewBox="-7 0 416 416.43008" width="416pt" xmlns="http://www.w3.org/2000/svg"><path d="m129.179688 379.828125c-28.644532 3.75-47.046876 9.578125-47.046876 16.117187 0 11.3125 55.015626 20.484376 122.882813 20.484376 67.863281 0 122.878906-9.171876 122.878906-20.484376 0-6.539062-18.402343-12.367187-47.046875-16.117187-23.339844 10.332031-48.953125 16.117187-75.832031 16.117187s-52.496094-5.785156-75.835937-16.117187" fill="#eeeef0"/><path d="m396.160156 190.894531c0-105.5625-85.578125-184.0625-191.144531-184.0625s-191.144531 78.5-191.144531 184.0625c0 105.566407 85.578125 198.226563 191.144531 198.226563s191.144531-92.660156 191.144531-198.226563" fill="#fff35f"/><path d="m396.160156 190.894531h6.828125c.019531-54.652343-22.222656-102.550781-58.113281-136.578125-35.878906-34.046875-85.378906-54.316406-139.859375-54.316406-54.484375 0-103.976563 20.269531-139.863281 54.316406-35.890625 34.027344-58.125 81.925782-58.113282 136.578125.011719 54.644531 22.125 105.828125 57.871094 143.402344 35.730469 37.578125 85.289063 61.652344 140.105469 61.652344s104.371094-24.070313 140.105469-61.648438c35.746094-37.578125 57.859375-88.761719 57.867187-143.402343h-13.652343c.007812 50.917968-20.671876 98.847656-54.105469 133.996093-33.449219 35.144531-79.464844 57.398438-130.214844 57.402344-50.75-.003906-96.765625-22.257813-130.21875-57.402344-33.4375-35.148437-54.113281-83.078125-54.101563-133.996093.019532-50.917969 20.566407-95.054688 53.859376-126.675782 33.296874-31.585937 79.371093-50.566406 130.460937-50.574218 51.082031.007812 97.160156 18.988281 130.460937 50.574218 33.292969 31.617188 53.839844 75.753906 53.859376 126.671875z" fill="#54596e"/><path d="m387.742188 167.382812c-11.722657 91.417969-89.035157 167.125-182.726563 167.125-93.695313 0-171-75.707031-182.726563-167.125-1.007812 7.714844-1.585937 15.601563-1.59375 23.671876.03125 50.859374 20.699219 98.726562 54.101563 133.835937 33.457031 35.148437 79.46875 57.402344 130.21875 57.40625 50.75-.003906 96.765625-22.257813 130.214844-57.40625 33.402343-35.109375 54.070312-82.980469 54.105469-133.839844-.003907-8.070312-.585938-15.953125-1.59375-23.667969" fill="#eee361"/><path d="m20.695312 191.054688v.097656c0 101.796875 82.527344 191.144531 184.320313 191.144531-50.75-.003906-96.761719-22.257813-130.21875-57.40625-33.402344-35.109375-54.070313-82.976563-54.101563-133.835937m368.640626-.003907c-.035157 50.859375-20.703126 98.730469-54.105469 133.839844-33.449219 35.148437-79.464844 57.402344-130.214844 57.40625 101.796875 0 184.320313-89.351563 184.320313-191.144531 0-.035156 0-.070313 0-.101563" fill="#54596e"/><path d="m205.015625 286.722656c0 15.082032-12.226563 27.304688-27.308594 27.304688-15.078125 0-27.304687-12.222656-27.304687-27.304688 0-15.082031 12.226562-27.308594 27.304687-27.308594 15.082031 0 27.308594 12.226563 27.308594 27.308594zm0 0" fill="#54596e"/><path d="m351.335938 360.816406-40.007813-10.277344c-17.96875-4.613281-35.621094-10.605468-52.722656-17.898437l-93.226563-39.75 9.371094-25.648437 96.894531 29.699218c17.773438 5.445313 35.132813 12.242188 51.847657 20.296875l37.214843 17.933594zm0 0" fill="#af7477"/><path d="m351.335938 360.816406 1.699218-6.613281-40.011718-10.277344c-17.628907-4.527343-34.957032-10.410156-51.738282-17.566406l-87.273437-37.210937 4.925781-13.484376 90.707031 27.800782c17.441407 5.347656 34.484375 12.019531 50.882813 19.921875l31.644531 15.246093-7.246094 19.84375 6.410157 2.339844 1.699218-6.613281-1.699218 6.613281 6.414062 2.339844 9.367188-25.644531c1.203124-3.292969-.292969-6.972657-3.449219-8.492188l-37.214844-17.933593c-17.023437-8.207032-34.703125-15.125-52.808594-20.675782l-96.898437-29.699218c-3.464844-1.0625-7.167969.78125-8.410156 4.1875l-9.371094 25.644531c-1.242188 3.40625.402344 7.199219 3.734375 8.625l93.226562 39.75c17.417969 7.429687 35.398438 13.53125 53.699219 18.234375l40.007812 10.277344c3.394532.867187 6.910157-.984376 8.113282-4.273438zm0 0" fill="#54596e"/><path d="m285.066406 343.875-13.214844-4.824219c-3.4375-1.253906-5.203124-5.054687-3.945312-8.488281l9.507812-26.042969c1.257813-3.433593 5.058594-5.199219 8.492188-3.945312l13.210938 4.828125c3.4375 1.253906 5.203124 5.054687 3.949218 8.488281l-9.515625 26.039063c-1.25 3.433593-5.050781 5.199218-8.484375 3.945312zm0 0" fill="#f99"/><path d="m285.066406 343.875 2.339844-6.414062-13.214844-4.824219-.066406.195312h.203125l-.132813-.195312-.070312.195312h.203125-.257813l.242188.085938.015625-.085938h-.257813l.242188.085938.007812-.015625 9.507813-26.039063-.195313-.070312v.199219l.195313-.125-.195313-.074219v.199219-.332032l-.113281.3125.113281.023438v-.335938l-.113281.3125.042969.015625 13.214844 4.828125.070312-.195312-.207031.003906.136719.191406.070312-.195312-.207031.003906h.179687l-.171874-.066406-.007813.066406h.183594l-.171875-.066406.003906-.007813-9.515625 26.039063.195313.074218v-.210937l-.195313.140625.195313.070312v-.210937.160156l.054687-.152343-.054687-.007813v.160156l.054687-.152343.015625.003906-2.339844 6.410156-2.328125 6.417969c1.5.542969 3.0625.8125 4.597657.8125 5.492187.007812 10.628906-3.382813 12.628906-8.832031l9.511718-26.039063.003907-.011719c.546875-1.496094.816406-3.066406.816406-4.601562.003906-5.492188-3.386719-10.628906-8.835937-12.628906l-13.214844-4.828126.046875.015626c-1.550781-.578126-3.144531-.835938-4.660157-.835938-5.496093-.003906-10.628906 3.390625-12.628906 8.832031l-9.511718 26.046875.007812-.019531c-.558594 1.519531-.828125 3.089844-.828125 4.632813-.003906 5.492187 3.386719 10.625 8.828125 12.625l13.222656 4.828124.015625.007813zm0 0" fill="#54596e"/><g fill="#fff"><path d="m95.789062 238.933594c0 7.542968-6.113281 13.65625-13.652343 13.65625-7.542969 0-13.65625-6.113282-13.65625-13.65625 0-7.539063 6.113281-13.652344 13.65625-13.652344 7.539062 0 13.652343 6.113281 13.652343 13.652344zm0 0"/><path d="m368.855469 279.894531c0 7.542969-6.113281 13.652344-13.652344 13.652344-7.542969 0-13.65625-6.109375-13.65625-13.652344 0-7.539062 6.113281-13.652343 13.65625-13.652343 7.539063 0 13.652344 6.113281 13.652344 13.652343zm0 0"/><path d="m389.335938 276.480469c0 9.425781-7.640626 17.066406-17.066407 17.066406s-17.066406-7.640625-17.066406-17.066406 7.640625-17.066407 17.066406-17.066407 17.066407 7.640626 17.066407 17.066407zm0 0"/><path d="m382.507812 211.628906c0 11.308594-9.167968 20.480469-20.480468 20.480469-11.308594 0-20.480469-9.171875-20.480469-20.480469 0-11.3125 9.171875-20.480468 20.480469-20.480468 11.3125 0 20.480468 9.167968 20.480468 20.480468zm0 0"/><path d="m54.828125 204.800781c0 11.3125-9.167969 20.480469-20.480469 20.480469-11.308594 0-20.480468-9.167969-20.480468-20.480469 0-11.308593 9.171874-20.480469 20.480468-20.480469 11.3125 0 20.480469 9.171876 20.480469 20.480469zm0 0"/></g><path d="m314.242188 170.667969c0-10.539063-2.0625-20.582031-5.667969-29.792969-1.019531-2.609375-3.554688-4.339844-6.355469-4.339844h-208.058594c-2.804687 0-5.339844 1.730469-6.359375 4.339844-3.605469 9.210938-5.664062 19.253906-5.664062 29.792969 0 3.769531 3.054687 6.828125 6.824219 6.828125 3.769531 0 6.828124-3.058594 6.828124-6.828125 0-8.757813 1.703126-17.089844 4.726563-24.820313l-6.355469-2.484375v6.824219h208.058594v-6.824219l-6.359375 2.484375c3.023437 7.730469 4.726563 16.0625 4.730469 24.820313 0 3.769531 3.054687 6.828125 6.824218 6.828125 3.769532 0 6.828126-3.058594 6.828126-6.828125zm0 0" fill="#54596e"/><path d="m68.480469 157.015625c0 11.308594-9.167969 20.480469-20.480469 20.480469-11.308594 0-20.476562-9.171875-20.476562-20.480469 0-11.3125 9.167968-20.480469 20.476562-20.480469 11.3125 0 20.480469 9.167969 20.480469 20.480469zm0 0" fill="#fff"/><path d="m54.828125 177.496094c0 11.308594-9.167969 20.480468-20.480469 20.480468-11.308594 0-20.480468-9.171874-20.480468-20.480468 0-11.3125 9.171874-20.480469 20.480468-20.480469 11.3125 0 20.480469 9.167969 20.480469 20.480469zm0 0" fill="#fff"/><path d="m95.789062 187.734375c0 16.96875-13.753906 30.71875-30.71875 30.71875-16.96875 0-30.722656-13.75-30.722656-30.71875 0-16.964844 13.753906-30.71875 30.722656-30.71875 16.964844 0 30.71875 13.753906 30.71875 30.71875zm0 0" fill="#fff"/><path d="m41.175781 150.1875c0 11.3125-9.171875 20.480469-20.480469 20.480469-11.3125 0-20.480468-9.167969-20.480468-20.480469 0-11.308594 9.167968-20.480469 20.480468-20.480469 11.308594 0 20.480469 9.171875 20.480469 20.480469zm0 0" fill="#fff"/><path d="m116.269531 136.535156c0 15.082032 12.226563 27.304688 27.304688 27.304688 15.082031 0 27.308593-12.222656 27.308593-27.304688zm0 0" fill="#54596e"/><path d="m225.496094 136.535156c0 15.082032 12.226562 27.304688 27.304687 27.304688 15.082031 0 27.308594-12.222656 27.308594-27.304688zm0 0" fill="#54596e"/><path d="m259.628906 259.414062h-81.921875c-3.769531 0-6.824219 3.054688-6.824219 6.828126 0 3.769531 3.054688 6.828124 6.824219 6.828124h81.921875c3.769532 0 6.824219-3.058593 6.824219-6.828124 0-3.773438-3.054687-6.828126-6.824219-6.828126" fill="#54596e"/></svg>