<svg height="416pt" viewBox="-10 0 416 416.42496" width="416pt" xmlns="http://www.w3.org/2000/svg"><path d="m122.351562 379.832031c-28.644531 3.75-47.046874 9.574219-47.046874 16.113281 0 11.316407 55.015624 20.480469 122.882812 20.480469 67.863281 0 122.878906-9.164062 122.878906-20.480469 0-6.539062-18.402344-12.363281-47.046875-16.113281-23.339843 10.328125-48.953125 16.113281-75.832031 16.113281s-52.492188-5.785156-75.835938-16.113281" fill="#eeeef0"/><path d="m389.335938 190.894531c0-105.566406-85.582032-184.066406-191.148438-184.066406-105.5625 0-191.148438 78.5-191.148438 184.066406 0 105.570313 85.585938 198.222657 191.148438 198.222657 105.566406.003906 191.148438-92.652344 191.148438-198.222657" fill="#adf2a2"/><path d="m389.335938 190.894531h6.824218c.023438-54.648437-22.222656-102.542969-58.109375-136.570312-35.882812-34.054688-85.382812-54.32812525-139.863281-54.324219-54.480469-.00390625-103.980469 20.269531-139.859375 54.324219-35.894531 34.027343-58.132813 81.925781-58.117187 136.570312.011718 54.644531 22.125 105.828125 57.871093 143.40625 35.726563 37.578125 85.289063 61.644531 140.105469 61.644531s104.371094-24.066406 140.109375-61.640624c35.746094-37.582032 57.855469-88.765626 57.863281-143.40625h-13.65625c.015625 50.917968-20.664062 98.851562-54.101562 133.996093-33.453125 35.140625-79.460938 57.398438-130.214844 57.398438-50.75 0-96.761719-22.257813-130.21875-57.398438-33.433594-35.148437-54.109375-83.078125-54.101562-134 .015624-50.917969 20.566406-95.050781 53.859374-126.671875 33.300782-31.589844 79.375-50.5625 130.460938-50.570312 51.085938.007812 97.160156 18.980468 130.464844 50.570312 33.292968 31.617188 53.835937 75.753906 53.851562 126.671875z" fill="#54596e"/><path d="m380.914062 167.382812c-11.722656 91.421876-89.03125 167.125-182.726562 167.125-93.691406 0-171-75.703124-182.726562-167.125-1.007813 7.714844-1.589844 15.597657-1.59375 23.664063.03125 50.863281 20.699218 98.734375 54.101562 133.84375 33.457031 35.144531 79.464844 57.402344 130.21875 57.402344s96.761719-22.257813 130.214844-57.398438c33.402344-35.109375 54.074218-82.980469 54.101562-133.839843-.003906-8.070313-.582031-15.953126-1.589844-23.671876" fill="#a4e29d"/><g fill="#54596e"><path d="m382.503906 191.054688c-.03125 50.859374-20.703125 98.730468-54.105468 133.839843-33.449219 35.140625-79.457032 57.398438-130.210938 57.398438 101.796875 0 184.316406-89.347657 184.316406-191.144531 0-.03125 0-.066407 0-.09375m-368.636718-.003907v.097657c0 101.796874 82.527343 191.144531 184.320312 191.144531-50.75 0-96.761719-22.257813-130.21875-57.398438-33.402344-35.113281-54.070312-82.980469-54.101562-133.84375"/><path d="m263.039062 163.839844c10.648438 0 20.019532 5.425781 25.535157 13.65625 3.269531-4.882813 5.1875-10.75 5.1875-17.066406 0-16.96875-13.753907-30.722657-30.722657-30.722657-16.964843 0-30.71875 13.753907-30.71875 30.722657 0 6.316406 1.917969 12.183593 5.1875 17.066406 5.515626-8.230469 14.886719-13.65625 25.53125-13.65625zm0 0"/><path d="m133.335938 163.839844c10.644531 0 20.015624 5.425781 25.53125 13.65625 3.269531-4.882813 5.1875-10.75 5.1875-17.066406 0-16.96875-13.753907-30.722657-30.71875-30.722657-16.96875 0-30.722657 13.753907-30.722657 30.722657 0 6.316406 1.917969 12.183593 5.1875 17.066406 5.515625-8.230469 14.886719-13.65625 25.535157-13.65625zm0 0"/></g><path d="m300.585938 327.683594h-204.796876v-109.230469l102.398438-13.652344 102.398438 13.652344zm0 0" fill="#fff"/><path d="m300.585938 327.683594v-6.828125h-197.972657v-96.425781l95.574219-12.742188 95.574219 12.742188v103.253906h6.824219v-6.828125 6.828125h6.828124v-109.230469c0-3.417969-2.535156-6.316406-5.921874-6.765625l-102.402344-13.65625h-1.804688l-102.398437 13.65625c-3.390625.449219-5.925781 3.347656-5.925781 6.765625v109.230469c0 1.820312.710937 3.535156 2 4.824218 1.289062 1.289063 3.003906 2 4.828124 2h204.796876c1.824218 0 3.539062-.710937 4.828124-2 1.289063-1.289062 2-3.003906 2-4.824218zm0 0" fill="#54596e"/><path d="m389.335938 197.976562-88.75 20.476563" fill="#fff"/><path d="m387.800781 191.324219-88.746093 20.476562c-3.675782.851563-5.964844 4.515625-5.117188 8.191407.847656 3.671874 4.511719 5.960937 8.1875 5.117187l88.746094-20.480469c3.671875-.847656 5.964844-4.515625 5.117187-8.191406-.851562-3.671875-4.515625-5.960938-8.1875-5.113281" fill="#54596e"/><path d="m7.039062 197.976562 88.75 20.476563" fill="#fff"/><path d="m5.507812 204.628906 88.746094 20.480469c3.671875.84375 7.339844-1.445313 8.1875-5.117187.847656-3.675782-1.445312-7.339844-5.117187-8.191407l-88.746094-20.476562c-3.675781-.847657-7.339844 1.441406-8.1875 5.113281-.847656 3.675781 1.441406 7.34375 5.117187 8.191406" fill="#54596e"/><path d="m75.308594 341.449219 20.480468-13.765625" fill="#fff"/><path d="m79.117188 347.113281 20.480468-13.765625c3.128906-2.101562 3.960938-6.34375 1.855469-9.476562-2.101563-3.128906-6.34375-3.957032-9.472656-1.855469l-20.480469 13.765625c-3.128906 2.101562-3.960938 6.34375-1.855469 9.476562 2.101563 3.128907 6.34375 3.960938 9.472657 1.855469" fill="#54596e"/><path d="m321.066406 341.449219-20.480468-13.765625" fill="#fff"/><path d="m324.875 335.785156-20.476562-13.769531c-3.128907-2.101563-7.371094-1.269531-9.476563 1.859375-2.101563 3.128906-1.269531 7.371094 1.859375 9.472656l20.480469 13.769532c3.125 2.101562 7.371093 1.269531 9.472656-1.859376 2.101563-3.132812 1.269531-7.371093-1.859375-9.472656" fill="#54596e"/></svg>