<svg height="422pt" viewBox="1 -3 422.9991 422" width="422pt" xmlns="http://www.w3.org/2000/svg"><path d="m400.140625 161.460938c-14.449219-90.128907-93.449219-154.128907-188.761719-154.128907-95.644531 0-174.886718 64.4375-188.929687 155.066407-13.042969 4.417968-19.863281 19.644531-12.765625 32.597656 3.621094 6.589844 7.664062 12.90625 11.925781 19.082031 11.167969 95.804687 91.839844 175.546875 189.769531 175.546875 98.042969 0 178.792969-79.921875 189.816406-175.878906 4.355469-6.34375 8.484376-12.851563 12.160157-19.625 7.109375-13.097656.054687-28.441406-13.214844-32.660156" fill="#fff35f"/><path d="m400.140625 161.460938 6.738281-1.082032c-14.984375-93.597656-97.128906-159.949218-195.5-159.878906-49.363281 0-94.632812 16.640625-129.394531 45.097656-34.757813 28.441406-59.011719 68.75-66.289063 115.753906l6.75 1.046876-2.191406-6.464844c-12.242187 4.167968-20.238281 15.574218-20.253906 28.078125-.0078125 4.765625 1.1875 9.683593 3.699219 14.257812 3.773437 6.867188 7.941406 13.378907 12.285156 19.679688l5.625-3.875-6.785156.792969c5.792969 49.570312 29.5 94.875 64.449219 127.875 34.933593 32.988281 81.257812 53.710937 132.105468 53.703124 50.898438.007813 97.28125-20.761718 132.226563-53.816406 34.960937-33.066406 58.65625-78.453125 64.375-128.105468l-6.785157-.777344 5.632813 3.863281c4.445313-6.476563 8.699219-13.179687 12.527344-20.234375 2.472656-4.542969 3.652343-9.425781 3.644531-14.15625-.015625-12.699219-8.261719-24.265625-20.796875-28.261719l-2.0625 6.503907 6.738281-1.082032-6.738281 1.082032-2.066406 6.507812c6.796875 2.136719 11.285156 8.523438 11.273437 15.246094-.007812 2.511718-.597656 5.078125-1.992187 7.644531-3.53125 6.507813-7.527344 12.8125-11.785157 19.019531-.632812.925782-1.027343 1.972656-1.152343 3.089844-5.3125 46.300781-27.511719 88.847656-60.191407 119.734375-32.691406 30.898437-75.714843 50.089844-122.851562 50.089844-47.078125 0-90.054688-19.144531-122.730469-49.976563-32.667969-30.828125-54.878906-73.292968-60.261719-119.527344-.132812-1.109374-.527343-2.167968-1.160156-3.082031-4.167968-6.046875-8.085937-12.179687-11.554687-18.5-1.414063-2.589843-2.011719-5.160156-2.019531-7.691406-.015626-6.613281 4.339843-12.925781 10.988281-15.152344 2.40625-.816406 4.160156-2.90625 4.550781-5.417969 6.769531-43.625 29.160156-80.847656 61.445312-107.28125 32.28125-26.421874 74.453126-42.003906 120.742188-42.011718 92.257812.070312 168.113281 61.734375 182.019531 148.386718.402344 2.539063 2.226563 4.652344 4.675781 5.429688z" fill="#54596e"/><path d="m287.203125 380.332031c-23.335937 10.328125-48.953125 16.117188-75.824219 16.113281-.011718 0-.019531 0-.027344 0-26.867187 0-52.472656-5.789062-75.796874-16.113281-28.648438 3.75-47.054688 9.574219-47.054688 16.121094 0 11.304687 55.015625 20.476563 122.878906 20.476563 67.867188 0 122.875-9.171876 122.875-20.476563 0-6.546875-18.402344-12.371094-47.050781-16.121094" fill="#eeeef0"/><path d="m211.957031 382.792969c-.191406 0-.386719 0-.578125 0-.195312 0-.390625 0-.582031 0h.582031zm-1.722656-.003907c.128906.003907.253906.003907.382813.003907-.125 0-.257813 0-.382813-.003907m2.289063 0c-.136719.003907-.261719.003907-.398438.003907.132812 0 .265625 0 .398438-.003907m-2.859376-.003906c.105469 0 .207032 0 .3125.003906-.109374-.003906-.207031-.003906-.3125-.003906m3.433594 0c-.109375 0-.226562 0-.335937.003906.113281-.003906.222656-.003906.335937-.003906m-4.003906-.007812c.089844 0 .183594.003906.277344.003906-.09375 0-.183594-.003906-.277344-.003906m4.585938 0c-.109376 0-.210938.003906-.324219.003906.109375 0 .21875-.003906.324219-.003906m-5.15625-.007813c.09375 0 .1875.003907.285156.003907-.09375 0-.191406-.003907-.285156-.003907m5.726562 0c-.109375 0-.226562.003907-.335938.003907.113282 0 .222657-.003907.335938-.003907m-6.285156-.007812c.085937 0 .167968.003906.25.003906-.082032-.003906-.167969-.003906-.25-.003906m6.832031 0c-.089844 0-.179687.003906-.269531.003906.089844-.003906.179687-.003906.269531-.003906m.542969-.011719c-.070313 0-.144532.003906-.214844.003906.070312 0 .140625-.003906.214844-.003906m-7.929688 0c.074219 0 .152344.003906.226563.003906-.074219 0-.152344-.003906-.226563-.003906m8.472656-.015625c-.050781.003906-.109374.003906-.160156.003906.050782 0 .109375 0 .160156-.003906m-9.015624 0c.0625.003906.113281.003906.175781.003906-.0625 0-.113281 0-.175781-.003906m-.542969-.015625c.054687.003906.105469.003906.160156.007812-.054687-.003906-.101563-.003906-.160156-.007812m10.105469 0c-.050782.003906-.101563.003906-.152344.007812.050781-.003906.101562-.003906.152344-.007812m.460937-.011719c-.003906 0-.007813 0-.011719 0z" fill="#eee361"/><path d="m254.703125 377.277344c-12.175781 3.152344-24.828125 5.015625-37.8125 5.429687-.003906 0-.011719 0-.011719 0-.148437.003907-.300781.011719-.449218.015625-.050782 0-.101563.003906-.152344.003906-.136719.003907-.257813.007813-.394532.011719-.050781 0-.109374 0-.160156.003907-.128906.003906-.253906.003906-.382812.007812-.070313.003906-.140625.003906-.210938.003906-.113281.003906-.21875.007813-.332031.007813-.089844.003906-.179687.003906-.269531.003906-.09375.003906-.183594.003906-.277344.007813-.113281 0-.222656.003906-.335938.003906-.074218 0-.160156.003906-.234374.003906-.105469 0-.214844.003906-.324219.003906-.085938 0-.167969.003906-.257813.003906-.113281 0-.222656 0-.335937.003907-.074219 0-.164063 0-.238281 0-.132813 0-.265626 0-.398438 0-.054688 0-.109375.003906-.167969.003906-.191406 0-.386719 0-.578125 0-.195312 0-.390625 0-.582031 0-.0625 0-.117187-.003906-.179687-.003906-.128907 0-.253907 0-.382813 0-.085937 0-.171875 0-.257813 0-.105468-.003907-.210937-.003907-.3125-.003907-.097656 0-.195312-.003906-.292968-.003906-.09375 0-.1875-.003906-.277344-.003906-.09375 0-.195312-.003906-.285156-.003906-.09375 0-.1875-.003906-.285156-.003906-.105469-.003907-.207032-.003907-.308594-.007813-.085938 0-.167969 0-.25-.003906-.109375 0-.21875-.003907-.328125-.007813-.074219 0-.152344 0-.226563-.003906-.125-.003906-.246094-.003906-.367187-.007812-.058594-.003907-.113281-.003907-.175781-.003907-.121094-.003906-.261719-.007812-.382813-.011719-.054687 0-.105469-.003906-.160156-.003906-13.140625-.386718-25.953125-2.257812-38.269531-5.441406-11.808594.742188-22.746094 1.777344-32.503907 3.050781 23.328125 10.328125 48.933594 16.113281 75.800781 16.113281h.023438c26.875.003907 52.492188-5.785156 75.828125-16.113281-9.753906-1.277343-20.691406-2.3125-32.5-3.054687" fill="#54596e"/><path d="m28.191406 212.296875c8.613282 78.316406 65.433594 145.714844 139.863282 164.980469.011718 0 .03125-.003906.042968-.003906-29.980468-7.773438-57.117187-23.382813-79.453125-44.457032-32.664062-30.828125-54.878906-73.296875-60.261719-119.53125-.039062-.335937-.101562-.664062-.191406-.988281m366.410156-.308594c-.085937.320313-.148437.648438-.183593.976563-5.3125 46.304687-27.511719 88.847656-60.191407 119.738281-22.355468 21.128906-49.542968 36.78125-79.574218 44.570313h.046875c74.535156-19.285157 131.40625-86.835938 139.902343-165.285157" fill="#54596e"/><path d="m394.105469 167.882812c-11.722657 91.421876-89.03125 167.128907-182.726563 167.128907-93.699218 0-171.007812-75.707031-182.730468-167.128907-1.015626 7.75-1.589844 15.664063-1.589844 23.765626 0 6.949218.386718 13.839843 1.132812 20.648437.089844.324219.152344.652344.191406.988281 5.382813 46.234375 27.597657 88.703125 60.261719 119.53125 22.335938 21.074219 49.476563 36.683594 79.453125 44.457032 12.308594 3.191406 25.101563 5.0625 38.226563 5.445312.054687.003906.101562.003906.15625.007812.125 0 .261719.003907.386719.007813.0625.003906.109374.003906.171874.003906.125.003907.246094.007813.371094.011719.074219 0 .148438.003906.226563.003906.105469 0 .21875.003906.328125.007813.078125 0 .167968.003906.246094.003906.101562 0 .207031.003906.3125.003906.089843.003907.1875.003907.28125.007813h.285156c.09375.003906.183594.003906.277344.003906.097656.003906.199218.003906.296874.003906.105469.003906.203126.003906.308594.003906.085938 0 .175782.003907.257813.003907h.382812.183594.578125.582031.167969.398438c.074218 0 .160156-.003907.238281-.003907.109375 0 .226562 0 .335937-.003906.085938 0 .171875 0 .257813-.003906.109375 0 .210937 0 .324219-.003906h.230468c.113282-.003906.230469-.003906.339844-.007813.089844 0 .1875-.003906.273438-.003906.09375 0 .179687-.003906.273437-.003906.109375-.003907.21875-.007813.328125-.007813.070312 0 .144531-.003906.214844-.003906.125-.003906.253906-.007812.382812-.011719.046875 0 .109375 0 .15625-.003906.136719-.003906.261719-.007813.398438-.007813.050781-.003906.101562-.003906.148437-.007812.152344-.003906.300781-.007812.449219-.011719h.015625c12.964844-.414062 25.597656-2.277343 37.761719-5.433593 30.03125-7.789063 57.21875-23.441407 79.574218-44.570313 32.679688-30.890625 54.878907-73.433594 60.191407-119.738281.035156-.328125.097656-.65625.183593-.976563.726563-6.707031 1.097657-13.496093 1.097657-20.339843 0-8.101563-.582031-16.015626-1.59375-23.765626zm0 0" fill="#eee361"/><g fill="#54596e"><path d="m212.125 382.792969c-.054688 0-.109375 0-.167969 0zm-1.507812 0h.179687c-.058594 0-.121094 0-.179687 0m2.144531-.003907c-.078125 0-.160157 0-.238281 0zm-2.785157 0h.257813c-.085937 0-.175781 0-.257813 0m3.378907-.007812c-.082031 0-.171875.003906-.257813.003906.089844 0 .171875-.003906.257813-.003906m-3.984375 0c.097656 0 .195312.003906.292968.003906-.097656 0-.195312-.003906-.292968-.003906m4.539062-.007812c-.074218.003906-.152344.003906-.230468.003906.074218 0 .160156 0 .230468-.003906m-5.101562 0c.089844.003906.191406.003906.285156.003906-.097656 0-.1875 0-.285156-.003906m5.714844-.007813c-.085938 0-.183594 0-.273438.003906.09375-.003906.183594-.003906.273438-.003906m-6.308594 0c.105468 0 .203125 0 .308594.003906-.101563-.003906-.207032-.003906-.308594-.003906m-.578125-.011719c.109375 0 .21875.003906.328125.007813-.109375-.003907-.222656-.007813-.328125-.007813m7.488281 0c-.109375 0-.21875.003906-.328125.007813.113281-.003907.21875-.007813.328125-.007813m-8.082031-.015625c.121093.003907.246093.007813.367187.011719-.121094-.003906-.246094-.007812-.367187-.011719m8.679687 0c-.128906.003907-.253906.007813-.382812.011719.128906-.003906.25-.007812.382812-.011719m-9.238281-.011719c.125 0 .261719.003907.386719.007813-.128906-.003906-.261719-.007813-.386719-.007813m9.792969 0c-.132813 0-.261719.003907-.394532.007813.136719-.003906.257813-.007813.394532-.007813m.601562-.019531c-.152344.003907-.296875.007813-.449218.011719.148437-.003906.300781-.007812.449218-.011719m-48.78125-5.433593c-.007812 0-.03125.003906-.039062.003906 12.316406 3.1875 25.125 5.058594 38.269531 5.441406-13.128906-.382812-25.921875-2.253906-38.230469-5.445312m86.558594 0c-12.167969 3.15625-24.796875 5.019531-37.765625 5.433593 12.980469-.414062 25.636719-2.277343 37.8125-5.429687-.015625 0-.03125-.003906-.046875-.003906"/><path d="m362.363281 172.648438c14.820313-.035157 24.054688 15.367187 17.121094 28.140624-31.886719 58.773438-95.234375 98.820313-168.167969 98.820313-72.625 0-135.746094-39.714844-167.765625-98.09375-6.988281-12.738281 2.1875-28.171875 17-28.207031l57.445313-12.480469c61.554687-13.378906 125.25-13.519531 186.859375-.414063zm0 0"/><path d="m362.363281 172.648438.753907 6.785156-.707032-6.386719v6.425781l.707032-.039062-.707032-6.382813v6.421875c3.839844.015625 6.847656 1.46875 9.085938 3.726563 2.222656 2.265625 3.511718 5.351562 3.507812 8.5-.003906 1.910156-.453125 3.859375-1.523437 5.84375-30.703125 56.589843-91.765625 95.253906-162.164063 95.246093-70.101562.003907-130.941406-38.335937-161.78125-94.550781-1.085937-1.988281-1.539062-3.945312-1.542968-5.871093-.003907-3.136719 1.28125-6.222657 3.496093-8.488282 2.234375-2.257812 5.234375-3.714844 9.074219-3.734375l1.4375-.15625 57.445312-12.484375c30.605469-6.652344 61.746094-9.984375 92.886719-9.984375 30.535157 0 61.070313 3.1875 91.101563 9.578125l57.507812 12.234375c.742188.15625 1.421875.1875 2.175782.105469l-.753907-6.789062 1.421875-6.679688-57.507812-12.230469c-30.96875-6.59375-62.457032-9.878906-93.941406-9.878906-32.117188 0-64.230469 3.4375-95.789063 10.296875l-57.445313 12.480469 1.449219 6.671875-.011719-6.824219c-7.507812-.003906-14.199218 3.085937-18.820312 7.855469-4.640625 4.761718-7.371094 11.191406-7.378906 18.023437-.003906 4.164063 1.042968 8.460938 3.226562 12.433594 33.203125 60.542969 98.601563 101.632813 173.75 101.640625 75.46875-.007812 141.101563-41.4375 174.167969-102.390625 2.148437-3.957031 3.175781-8.222656 3.171875-12.351563-.003906-6.839843-2.746094-13.28125-7.398438-18.042968-4.632812-4.769532-11.332031-7.851563-18.847656-7.832032l-.800781.042969.753906 6.785157 1.421875-6.679688zm0 0"/></g><path d="m231.859375 287.222656c15.078125 0 27.304687-12.226562 27.304687-27.304687 0-15.082031-12.226562-27.308594-27.304687-27.308594-8.199219 0-15.472656 3.691406-20.480469 9.417969-5.007812-5.722656-12.277344-9.417969-20.480468-9.417969-15.078126 0-27.304688 12.226563-27.304688 27.308594 0 15.078125 12.226562 27.304687 27.304688 27.304687zm0 0" fill="#f99"/><path d="m336.160156 205.304688h-249.5625c-6.492187 0-11.753906-5.265626-11.753906-11.757813v-15.550781l111.453125-15.921875c21.15625-3.023438 42.640625-2.863281 63.742187.46875l97.875 15.453125v15.550781c0 6.492187-5.261718 11.757813-11.753906 11.757813zm0 0" fill="#f3f3f3"/><path d="m177.246094 71.792969c-4.894532-11.570313-16.347656-19.6875-29.699219-19.6875-12.753906 0-23.773437 7.402343-29 18.144531" fill="#fff35f"/><path d="m183.535156 69.136719c-5.921875-14.023438-19.8125-23.851563-35.988281-23.859375-15.449219.007812-28.816406 8.972656-35.140625 21.984375-1.648438 3.390625-.238281 7.476562 3.152344 9.128906 3.390625 1.648437 7.476562.238281 9.128906-3.152344 4.128906-8.472656 12.800781-14.3125 22.859375-14.308593 10.527344-.003907 19.546875 6.40625 23.410156 15.523437 1.46875 3.472656 5.476563 5.097656 8.949219 3.628906 3.46875-1.46875 5.09375-5.472656 3.628906-8.945312zm0 0" fill="#54596e"/><path d="m300.125 71.792969c-4.890625-11.570313-16.34375-19.6875-29.699219-19.6875-12.753906 0-23.773437 7.402343-29 18.144531" fill="#fff35f"/><path d="m306.414062 69.136719c-5.921874-14.023438-19.808593-23.851563-35.988281-23.859375-15.445312.007812-28.816406 8.972656-35.136719 21.984375-1.652343 3.390625-.242187 7.476562 3.148438 9.128906 3.390625 1.648437 7.476562.238281 9.128906-3.152344 4.132813-8.472656 12.800782-14.3125 22.859375-14.308593 10.527344-.003907 19.546875 6.40625 23.414063 15.523437 1.464844 3.472656 5.472656 5.097656 8.945312 3.628906s5.097656-5.472656 3.628906-8.945312zm0 0" fill="#54596e"/></svg>