<svg height="422pt" viewBox="0 -3 422.7277 422" width="422pt" xmlns="http://www.w3.org/2000/svg"><path d="m287.199219 380.195312c-23.339844 10.332032-48.953125 16.117188-75.832031 16.113282-.007813 0-.011719 0-.019532 0-26.875 0-52.484375-5.785156-75.816406-16.113282-28.644531 3.753907-47.042969 9.578126-47.042969 16.121094 0 11.304688 55.011719 20.480469 122.878907 20.480469 67.859374 0 122.878906-9.175781 122.878906-20.480469 0-6.542968-18.402344-12.371094-47.046875-16.121094" fill="#eeeef0"/><path d="m402.515625 191.261719c0-105.566407-85.582031-184.066407-191.148437-184.066407-105.566407 0-191.148438 78.5-191.148438 184.066407 0 105.5625 85.582031 198.222656 191.148438 198.222656 105.5625 0 191.148437-92.660156 191.148437-198.222656" fill="#fff35f"/><path d="m402.515625 191.261719h6.824219c.015625-54.648438-22.222656-102.550781-58.117188-136.574219-35.882812-34.046875-85.375-54.324219-139.855468-54.324219-54.480469 0-103.980469 20.277344-139.859376 54.324219-35.894531 34.023438-58.132812 81.925781-58.117187 136.574219.007813 54.644531 22.125 105.824219 57.863281 143.402343 35.738282 37.578126 85.292969 61.652344 140.113282 61.644532 54.8125.007812 104.371093-24.066406 140.101562-61.644532 35.75-37.582031 57.859375-88.761718 57.871094-143.402343h-13.652344c.011719 50.921875-20.667969 98.851562-54.109375 133.992187-33.445313 35.148438-79.457031 57.410156-130.210937 57.410156-50.753907 0-96.765626-22.261718-130.21875-57.410156-33.433594-35.140625-54.109376-83.070312-54.097657-133.992187.015625-50.921875 20.566407-95.054688 53.855469-126.671875 33.296875-31.59375 79.375-50.566406 130.460938-50.574219 51.085937.007813 97.15625 18.980469 130.460937 50.574219 33.285156 31.617187 53.835937 75.75 53.855469 126.671875z" fill="#54596e"/><path d="m394.09375 167.746094c-11.726562 91.421875-89.035156 167.125-182.726562 167.125-93.695313 0-171.003907-75.703125-182.730469-167.125-1.007813 7.71875-1.585938 15.601562-1.589844 23.671875.03125 50.863281 20.703125 98.730469 54.101563 133.832031 33.449218 35.148438 79.464843 57.410156 130.214843 57.410156 50.753907 0 96.765625-22.261718 130.210938-57.410156 33.40625-35.101562 54.074219-82.972656 54.109375-133.835938-.003906-8.066406-.582032-15.949218-1.589844-23.667968" fill="#eee361"/><g fill="#54596e"><path d="m27.050781 191.417969v.09375c0 101.796875 82.519531 191.148437 184.316407 191.148437-50.753907 0-96.765626-22.261718-130.21875-57.410156-33.398438-35.101562-54.070313-82.96875-54.097657-133.832031m368.632813-.003907c-.03125 50.863282-20.703125 98.734376-54.105469 133.835938-33.445313 35.148438-79.460937 57.410156-130.210937 57.410156 101.796874 0 184.316406-89.351562 184.316406-191.148437 0-.03125 0-.0625 0-.097657"/><path d="m156.753906 205.164062c0 30.164063 24.449219 54.613282 54.613282 54.613282 30.160156 0 54.613281-24.449219 54.613281-54.613282zm0 0"/><path d="m156.753906 205.164062h-6.828125c.003907 33.933594 27.503907 61.4375 61.441407 61.441407 33.933593-.003907 61.433593-27.507813 61.4375-61.441407 0-1.796874-.726563-3.554687-2-4.828124-1.269532-1.269532-3.027344-1.996094-4.824219-1.996094h-109.226563c-1.796875 0-3.558594.726562-4.828125 1.996094-1.269531 1.273437-2 3.03125-2 4.828124h6.828125v6.828126h109.226563v-6.828126h-6.828125c-.003906 13.21875-5.339844 25.121094-13.996094 33.792969-8.671875 8.65625-20.574219 13.988281-33.789062 13.996094-13.21875-.007813-25.125-5.339844-33.792969-13.996094-8.65625-8.671875-13.992188-20.574219-13.996094-33.792969h-6.824219v6.828126zm0 0"/></g><path d="m170.40625 225.644531h81.917969c3.769531 0 6.828125-3.054687 6.828125-6.824219 0-3.773437-3.058594-6.828124-6.828125-6.828124h-81.917969c-3.769531 0-6.828125 3.054687-6.828125 6.828124 0 3.769532 3.058594 6.824219 6.828125 6.824219" fill="#fff"/><path d="m78.246094 83.425781c-16.335938-16.339843-42.828125-16.339843-59.164063 0-16.339843 16.335938-16.339843 42.824219 0 59.160157l59.164063 59.167968 59.164062-59.167968c16.339844-16.335938 16.339844-42.824219 0-59.160157-16.335937-16.339843-42.828125-16.339843-59.164062 0zm0 0" fill="#ff80c3"/><path d="m78.246094 83.425781 4.828125-4.828125c-9.484375-9.492187-21.980469-14.261718-34.410157-14.257812-12.429687-.007813-24.925781 4.761718-34.410156 14.257812-9.488281 9.480469-14.2617185 21.976563-14.253906 34.40625-.0078125 12.429688 4.765625 24.925782 14.253906 34.410156l59.164063 59.164063c1.289062 1.289063 3.003906 2 4.824219 2 1.824218 0 3.539062-.710937 4.828124-2l59.164063-59.164063c9.488281-9.484374 14.261719-21.980468 14.253906-34.410156.007813-12.429687-4.765625-24.925781-14.257812-34.410156-9.480469-9.488281-21.976563-14.257812-34.40625-14.253906-12.433594-.007813-24.925781 4.761718-34.410157 14.257812l4.832032 4.828125 4.828125-4.828125-4.828125 4.828125 4.828125 4.824219c6.851562-6.851562 15.769531-10.25 24.753906-10.257812 8.980469.007812 17.898437 3.40625 24.753906 10.257812 6.847657 6.851562 10.246094 15.769531 10.253907 24.753906-.007813 8.980469-3.40625 17.898438-10.253907 24.753906l-54.339843 54.339844-54.332032-54.339844c-6.851562-6.851562-10.25-15.769531-10.257812-24.753906.007812-8.980468 3.40625-17.898437 10.257812-24.753906 6.851563-6.851562 15.769532-10.25 24.753906-10.257812 8.980469.007812 17.902344 3.40625 24.753907 10.257812 1.289062 1.289062 3.003906 2 4.828125 2 1.824218 0 3.539062-.710938 4.824218-2zm0 0" fill="#54596e"/><path d="m344.484375 83.425781c-16.335937-16.339843-42.824219-16.339843-59.164063 0-16.335937 16.335938-16.335937 42.824219 0 59.160157l59.164063 59.167968 59.164063-59.167968c16.339843-16.335938 16.339843-42.824219 0-59.160157-16.335938-16.339843-42.828126-16.339843-59.164063 0zm0 0" fill="#ff80c3"/><path d="m344.484375 83.425781 4.828125-4.828125c-9.484375-9.492187-21.976562-14.261718-34.410156-14.257812-12.429688-.007813-24.925782 4.761718-34.410156 14.257812-9.488282 9.480469-14.257813 21.976563-14.253907 34.40625-.007812 12.429688 4.765625 24.925782 14.253907 34.410156l59.164062 59.164063c1.289062 1.289063 3.003906 2 4.828125 2s3.539063-.710937 4.824219-2l59.164062-59.164063c9.492188-9.484374 14.261719-21.980468 14.253906-34.410156.007813-12.429687-4.765624-24.925781-14.253906-34.410156-9.484375-9.488281-21.976562-14.257812-34.410156-14.253906-12.429688-.007813-24.925781 4.761718-34.410156 14.257812l4.832031 4.828125 4.828125-4.828125-4.828125 4.828125 4.828125 4.824219c6.851562-6.851562 15.769531-10.25 24.753906-10.257812 8.984375.007812 17.902344 3.40625 24.753906 10.257812 6.851563 6.851562 10.25 15.769531 10.253907 24.753906-.007813 8.980469-3.402344 17.898438-10.253907 24.753906l-54.335937 54.339844-54.335937-54.339844c-6.851563-6.851562-10.25-15.769531-10.253907-24.753906.007813-8.980468 3.402344-17.898437 10.253907-24.753906 6.855468-6.851562 15.773437-10.25 24.753906-10.257812 8.984375.007812 17.902344 3.40625 24.753906 10.257812 1.289062 1.289062 3.007812 2 4.828125 2 1.824219 0 3.539063-.710938 4.828125-2zm0 0" fill="#54596e"/><path d="m49.527344 91.109375-20.480469 20.480469c-2.667969 2.667968-2.667969 6.988281 0 9.65625 2.664063 2.664062 6.988281 2.664062 9.652344 0l20.480469-20.480469c2.667968-2.667969 2.667968-6.988281 0-9.65625-2.667969-2.664063-6.988282-2.664063-9.652344 0" fill="#fff"/><path d="m315.765625 91.109375-20.480469 20.480469c-2.664062 2.667968-2.664062 6.988281 0 9.65625 2.667969 2.664062 6.988282 2.664062 9.65625 0l20.480469-20.480469c2.664063-2.667969 2.664063-6.988281 0-9.65625-2.667969-2.664063-6.992187-2.664063-9.65625 0" fill="#fff"/></svg>