<svg height="416pt" viewBox="-10 0 416 416.42667" width="416pt" xmlns="http://www.w3.org/2000/svg"><path d="m274.023438 379.832031c-23.339844 10.328125-48.957032 16.117188-75.835938 16.117188s-52.5-5.789063-75.839844-16.117188c-28.644531 3.75-47.042968 9.574219-47.042968 16.117188 0 11.308593 55.015624 20.476562 122.882812 20.476562 67.863281 0 122.878906-9.167969 122.878906-20.476562 0-6.542969-18.398437-12.367188-47.042968-16.117188" fill="#eeeef0"/><path d="m389.332031 190.898438c0-105.570313-85.578125-184.066407-191.144531-184.066407-105.570312 0-191.148438 78.496094-191.148438 184.066407 0 105.566406 85.578126 198.226562 191.148438 198.226562 105.566406 0 191.144531-92.664062 191.144531-198.226562" fill="#fff35f"/><path d="m389.332031 190.898438h6.824219c.019531-54.652344-22.21875-102.554688-58.109375-136.578126-35.882813-34.046874-85.382813-54.320312-139.859375-54.320312-54.480469 0-103.980469 20.277344-139.859375 54.320312-35.898437 34.027344-58.136719 81.925782-58.113281 136.578126.003906 54.644531 22.121094 105.820312 57.863281 143.402343 35.730469 37.578125 85.289063 61.648438 140.109375 61.648438 54.816406 0 104.371094-24.070313 140.101562-61.648438 35.746094-37.582031 57.859376-88.761719 57.867188-143.402343h-13.652344c.007813 50.917968-20.664062 98.847656-54.105468 133.992187-33.449219 35.148437-79.460938 57.402344-130.210938 57.410156-50.753906-.007812-96.765625-22.261719-130.214844-57.410156-33.4375-35.144531-54.113281-83.074219-54.109375-133.992187.023438-50.921876 20.570313-95.054688 53.859375-126.671876 33.304688-31.589843 79.375-50.570312 130.464844-50.578124 51.082031.007812 97.15625 18.988281 130.460938 50.578124 33.289062 31.617188 53.835937 75.75 53.855468 126.671876z" fill="#54596e"/><path d="m380.910156 167.382812c-11.722656 91.417969-89.035156 167.128907-182.722656 167.128907-93.695312 0-171.003906-75.707031-182.726562-167.128907-1.007813 7.71875-1.589844 15.597657-1.597657 23.667969.035157 50.859375 20.707031 98.734375 54.109375 133.839844 33.449219 35.148437 79.460938 57.402344 130.214844 57.410156 50.75-.007812 96.761719-22.261719 130.210938-57.410156 33.410156-35.105469 54.074218-82.976563 54.105468-133.835937-.003906-8.074219-.585937-15.953126-1.59375-23.671876" fill="#eee361"/><g fill="#54596e"><path d="m382.503906 191.054688c-.03125 50.859374-20.695312 98.730468-54.105468 133.835937-33.449219 35.148437-79.460938 57.402344-130.210938 57.410156 101.796875 0 184.316406-89.351562 184.316406-191.152343 0-.03125 0-.066407 0-.09375m-368.640625-.003907v.097657c0 101.796874 82.527344 191.152343 184.324219 191.152343-50.753906-.007812-96.765625-22.261719-130.214844-57.410156-33.402344-35.109375-54.074218-82.980469-54.109375-133.839844"/><path d="m293.757812 163.839844c-.003906-15.082032-12.222656-27.300782-27.304687-27.304688-15.085937.003906-27.304687 12.222656-27.308594 27.304688 0 3.773437 3.058594 6.828125 6.828125 6.828125 3.769532 0 6.824219-3.054688 6.824219-6.828125.015625-7.535156 6.117187-13.636719 13.65625-13.652344 7.535156.015625 13.636719 6.117188 13.652344 13.652344 0 3.773437 3.054687 6.828125 6.828125 6.828125 3.769531 0 6.824218-3.054688 6.824218-6.828125zm0 0"/><path d="m157.226562 163.839844c-.007812-15.082032-12.226562-27.300782-27.308593-27.304688-15.082031.003906-27.300781 12.222656-27.304688 27.304688 0 3.773437 3.054688 6.828125 6.824219 6.828125s6.828125-3.054688 6.828125-6.828125c.011719-7.535156 6.117187-13.636719 13.652344-13.652344 7.535156.015625 13.640625 6.117188 13.652343 13.652344 0 3.773437 3.058594 6.828125 6.828126 6.828125 3.773437 0 6.828124-3.054688 6.828124-6.828125zm0 0"/><path d="m65.148438 224.808594c14.132812 10.695312 33.40625 19.234375 56.148437 25.234375 22.742187 5.984375 48.957031 9.371093 76.886719 9.371093 28.269531-.003906 54.78125-3.472656 77.710937-9.589843 22.929688-6.136719 42.289063-14.859375 56.34375-25.796875 2.972657-2.320313 3.5-6.609375 1.179688-9.582032-2.316407-2.96875-6.605469-3.5-9.578125-1.179687-11.972656 9.359375-29.832032 17.609375-51.46875 23.367187-21.636719 5.78125-47.039063 9.132813-74.1875 9.128907-26.824219.003906-51.941406-3.269531-73.410156-8.921875-21.46875-5.636719-39.269532-13.707032-51.378907-22.910156-3.003906-2.277344-7.285156-1.691407-9.5625 1.316406-2.277343 3-1.6875 7.285156 1.316407 9.5625zm0 0"/></g><path d="m143.570312 191.148438c0-7.539063-15.28125-13.652344-34.132812-13.652344s-34.132812 6.113281-34.132812 13.652344c0 7.539062 15.28125 13.652343 34.132812 13.652343s34.132812-6.113281 34.132812-13.652343zm0 0" fill="#f9bbed"/><path d="m321.066406 191.148438c0-7.539063-15.285156-13.652344-34.132812-13.652344-18.851563 0-34.136719 6.113281-34.136719 13.652344 0 7.539062 15.285156 13.652343 34.136719 13.652343 18.847656 0 34.132812-6.113281 34.132812-13.652343zm0 0" fill="#f9bbed"/></svg>