<svg height="416pt" viewBox="-10 0 416 416.42837" width="416pt" xmlns="http://www.w3.org/2000/svg"><path d="m274.015625 379.832031c-23.339844 10.328125-48.957031 16.117188-75.832031 16.117188s-52.492188-5.789063-75.832032-16.117188c-28.644531 3.75-47.046874 9.574219-47.046874 16.117188 0 11.3125 55.019531 20.480469 122.878906 20.480469 67.867187 0 122.886718-9.167969 122.886718-20.480469-.003906-6.542969-18.40625-12.367188-47.054687-16.117188" fill="#eeeef0"/><path d="m389.332031 190.894531c0-105.566406-85.582031-184.070312-191.148437-184.070312-105.5625 0-191.148438 78.503906-191.148438 184.070312 0 105.570313 85.582032 198.226563 191.148438 198.226563s191.148437-92.65625 191.148437-198.226563" fill="#9af43b"/><path d="m389.332031 190.894531h6.824219c.019531-54.652343-22.21875-102.546875-58.113281-136.574219-35.878907-34.046874-85.375-54.32421825-139.859375-54.320312-54.476563-.00390625-103.976563 20.273438-139.855469 54.320312-35.894531 34.027344-58.132813 81.921876-58.113281 136.574219.007812 54.640625 22.121094 105.828125 57.863281 143.402344 35.726563 37.578125 85.289063 61.652344 140.105469 61.652344s104.375-24.074219 140.105468-61.652344c35.75-37.574219 57.863282-88.761719 57.867188-143.402344h-13.652344c.011719 50.925781-20.667968 98.851563-54.105468 133.996094-33.453126 35.144531-79.464844 57.402344-130.214844 57.402344-50.746094 0-96.765625-22.257813-130.214844-57.402344-33.4375-35.144531-54.113281-83.074219-54.105469-133.996094.019531-50.921875 20.566407-95.054687 53.863281-126.671875 33.296876-31.589844 79.371094-50.5625 130.457032-50.570312 51.085937.007812 97.164062 18.980468 130.464844 50.570312 33.285156 31.617188 53.835937 75.75 53.855468 126.671875z" fill="#54596e"/><path d="m380.914062 167.382812c-11.726562 91.417969-89.039062 167.121094-182.730468 167.121094s-171-75.703125-182.726563-167.121094c-1.007812 7.714844-1.589843 15.597657-1.597656 23.664063.035156 50.867187 20.703125 98.730469 54.109375 133.84375 33.054688 34.734375 78.386719 56.878906 128.429688 57.394531h.261718c.113282.003906.21875.003906.332032.003906.078124 0 .164062.003907.246093.003907h.945313.933594c.085937 0 .167968-.003907.257812-.003907h.289062c.097657-.003906.203126-.003906.300782-.003906 50.050781-.515625 95.371094-22.660156 128.429687-57.394531 33.40625-35.109375 54.078125-82.972656 54.109375-133.835937-.003906-8.070313-.582031-15.953126-1.589844-23.671876" fill="#93e440"/><path d="m199.117188 382.292969c-.308594 0-.625 0-.933594 0zm-1.878907 0h.945313c-.316406 0-.628906 0-.945313 0m2.425781-.003907c-.097656 0-.195312 0-.289062 0zm-3-.003906c.109376.003906.214844.003906.328126.003906-.113282 0-.21875 0-.328126-.003906m185.839844-191.230468c-.03125 50.863281-20.703125 98.726562-54.109375 133.835937-33.058593 34.734375-78.382812 56.878906-128.429687 57.394531 100.980468-1.039062 182.539062-89.941406 182.539062-191.136718 0-.035157 0-.0625 0-.09375m-368.640625-.007813v.101563c0 101.195312 81.5625 190.097656 182.539063 191.136718-50.042969-.515625-95.375-22.660156-128.433594-57.394531-33.40625-35.113281-54.070312-82.976563-54.105469-133.84375" fill="#54596e"/><path d="m143.570312 204.800781c0 30.160157 24.449219 54.613281 54.613282 54.613281 30.164062 0 54.613281-24.453124 54.613281-54.613281zm0 0" fill="#54596e"/><path d="m143.570312 204.800781h-6.828124c.007812 33.933594 27.503906 61.433594 61.441406 61.4375 33.9375-.003906 61.433594-27.503906 61.441406-61.4375 0-1.800781-.730469-3.558593-2-4.828125-1.273438-1.273437-3.03125-2-4.828125-2h-109.226563c-1.796874 0-3.554687.726563-4.824218 2-1.273438 1.269532-2.003906 3.027344-2.003906 4.828125h6.828124v6.824219h109.226563v-6.824219h-6.824219c-.003906 13.214844-5.339844 25.121094-14 33.789063-8.667968 8.660156-20.570312 13.992187-33.789062 13.996094-13.21875-.003907-25.121094-5.335938-33.789063-13.996094-8.660156-8.667969-13.992187-20.574219-13.996093-33.789063h-6.828126v6.824219zm0 0" fill="#54596e"/><path d="m157.222656 225.28125h81.921875c3.769531 0 6.828125-3.058594 6.828125-6.828125 0-3.773437-3.058594-6.828125-6.828125-6.828125h-81.921875c-3.769531 0-6.824218 3.054688-6.824218 6.828125 0 3.769531 3.054687 6.828125 6.824218 6.828125" fill="#fff"/><path d="m198.183594 122.878906c0 33.933594-27.507813 61.441406-61.441406 61.441406-33.929688 0-61.4375-27.507812-61.4375-61.441406 0-33.929687 27.507812-61.4375 61.4375-61.4375 33.933593 0 61.441406 27.507813 61.441406 61.4375zm0 0" fill="#fff"/><g fill="#54596e"><path d="m198.183594 122.878906h6.828125c-.007813-37.703125-30.558594-68.261718-68.269531-68.265625-37.707032.003907-68.257813 30.5625-68.265626 68.265625.007813 37.703125 30.558594 68.261719 68.265626 68.265625 37.710937-.003906 68.261718-30.5625 68.269531-68.265625h-13.652344c-.003906 15.101563-6.101563 28.710938-15.996094 38.617188-9.90625 9.894531-23.515625 15.992187-38.621093 15.996094-15.101563-.003907-28.710938-6.101563-38.617188-15.996094-9.894531-9.90625-15.992188-23.515625-15.996094-38.617188.003906-15.101562 6.101563-28.710937 15.996094-38.617187 9.90625-9.894531 23.515625-15.992188 38.617188-15.996094 15.105468.003906 28.714843 6.101563 38.621093 15.996094 9.894531 9.90625 15.992188 23.515625 15.996094 38.617187zm0 0"/><path d="m360.027344 38.960938 23.890625-23.894532c2.667969-2.664062 2.667969-6.988281 0-9.65625-2.664063-2.664062-6.988281-2.664062-9.652344 0l-23.894531 23.894532c-2.664063 2.667968-2.664063 6.988281 0 9.65625 2.664062 2.664062 6.988281 2.664062 9.65625 0"/><path d="m22.105469 376.878906 23.894531-23.890625c2.664062-2.667969 2.664062-6.992187 0-9.65625-2.667969-2.664062-6.988281-2.664062-9.65625 0l-23.894531 23.894531c-2.664063 2.664063-2.664063 6.988282 0 9.652344 2.667969 2.667969 6.992187 2.667969 9.65625 0"/><path d="m46 29.304688-23.894531-23.894532c-2.664063-2.664062-6.988281-2.664062-9.65625 0-2.664063 2.667969-2.664063 6.992188 0 9.65625l23.894531 23.894532c2.667969 2.664062 6.988281 2.664062 9.65625 0 2.664062-2.667969 2.664062-6.988282 0-9.65625"/><path d="m383.917969 367.226562-23.890625-23.894531c-2.667969-2.664062-6.992188-2.664062-9.65625 0-2.664063 2.664063-2.664063 6.988281 0 9.65625l23.894531 23.890625c2.664063 2.667969 6.988281 2.667969 9.652344 0 2.667969-2.664062 2.667969-6.988281 0-9.652344"/><path d="m164.050781 102.398438v-13.652344c0-1.796875-.730469-3.554688-2-4.828125-1.273437-1.269531-3.03125-1.996094-4.828125-1.996094h-40.957031c-1.796875 0-3.558594.726563-4.828125 1.996094-1.269531 1.273437-2 3.03125-2 4.828125v34.132812c0 1.824219.710938 3.539063 2 4.828125 1.289062 1.289063 3.003906 1.996094 4.828125 1.996094h34.132813v20.480469h-27.308594v-6.824219c0-3.769531-3.054688-6.824219-6.824219-6.824219-3.773437 0-6.828125 3.054688-6.828125 6.824219v13.652344c0 1.824219.710938 3.539062 2 4.828125 1.289062 1.289062 3.003906 2 4.828125 2h40.957031c1.824219 0 3.539063-.710938 4.828125-2 1.289063-1.289063 2-3.003906 2-4.828125v-34.132813c0-1.796875-.730469-3.554687-2-4.828125-1.273437-1.269531-3.03125-1.996093-4.828125-1.996093h-34.132812v-20.484376h27.308594v6.828126c0 3.773437 3.054687 6.828124 6.824218 6.828124 3.773438 0 6.828125-3.054687 6.828125-6.828124zm0 0"/><path d="m129.917969 68.265625v116.054687c0 3.769532 3.054687 6.828126 6.824219 6.828126 3.773437 0 6.828124-3.058594 6.828124-6.828126v-116.054687c0-3.769531-3.054687-6.824219-6.828124-6.824219-3.769532 0-6.824219 3.054688-6.824219 6.824219"/></g><path d="m321.0625 122.878906c0 33.933594-27.507812 61.441406-61.4375 61.441406-33.933594 0-61.441406-27.507812-61.441406-61.441406 0-33.929687 27.507812-61.4375 61.441406-61.4375 33.929688 0 61.4375 27.507813 61.4375 61.4375zm0 0" fill="#fff"/><path d="m321.0625 122.878906h6.828125c-.003906-37.703125-30.558594-68.261718-68.265625-68.265625-37.707031.003907-68.261719 30.5625-68.265625 68.265625.003906 37.703125 30.558594 68.261719 68.265625 68.265625 37.707031-.003906 68.261719-30.5625 68.265625-68.265625h-13.652344c-.003906 15.101563-6.101562 28.710938-15.996093 38.617188-9.902344 9.894531-23.515626 15.992187-38.617188 15.996094-15.105469-.003907-28.714844-6.101563-38.621094-15.996094-9.890625-9.90625-15.988281-23.515625-15.992187-38.617188.003906-15.101562 6.101562-28.710937 15.992187-38.617187 9.90625-9.894531 23.515625-15.992188 38.621094-15.996094 15.101562.003906 28.710938 6.101563 38.617188 15.996094 9.894531 9.90625 15.992187 23.515625 15.996093 38.617187zm0 0" fill="#54596e"/><path d="m286.929688 102.398438v-13.652344c0-1.796875-.726563-3.554688-2-4.828125-1.269532-1.269531-3.027344-1.996094-4.824219-1.996094h-40.960938c-1.796875 0-3.558593.726563-4.828125 1.996094-1.269531 1.273437-2 3.03125-2 4.828125v34.132812c0 1.824219.710938 3.539063 2 4.828125 1.292969 1.289063 3.003906 1.996094 4.828125 1.996094h34.132813v20.480469h-27.304688v-6.824219c0-3.769531-3.058594-6.824219-6.828125-6.824219s-6.828125 3.054688-6.828125 6.824219v13.652344c0 1.824219.710938 3.539062 2 4.828125 1.292969 1.289062 3.003906 2 4.828125 2h40.960938c1.820312 0 3.535156-.710938 4.824219-2 1.292968-1.289063 2-3.003906 2-4.828125v-34.132813c0-1.796875-.726563-3.554687-2-4.828125-1.269532-1.269531-3.027344-1.996093-4.824219-1.996093h-34.132813v-20.484376h27.304688v6.828126c0 3.773437 3.058594 6.828124 6.828125 6.828124s6.824219-3.054687 6.824219-6.828124zm0 0" fill="#54596e"/><path d="m252.796875 68.265625v116.054687c0 3.769532 3.058594 6.828126 6.828125 6.828126s6.824219-3.058594 6.824219-6.828126v-116.054687c0-3.769531-3.054688-6.824219-6.824219-6.824219s-6.828125 3.054688-6.828125 6.824219" fill="#54596e"/></svg>