<svg height="421pt" viewBox="-13 0 421 421.28725" width="421pt" xmlns="http://www.w3.org/2000/svg"><path d="m122.292969 384.691406c-28.648438 3.746094-47.050781 9.570313-47.050781 16.113282 0 11.3125 55.011718 20.484374 122.875 20.484374 67.867187 0 122.882812-9.171874 122.882812-20.484374 0-6.542969-18.40625-12.367188-47.050781-16.113282-23.339844 10.324219-48.953125 16.113282-75.832031 16.113282-26.875 0-52.488282-5.789063-75.824219-16.113282" fill="#eeeef0"/><path d="m389.261719 195.753906c0-105.566406-85.574219-184.066406-191.144531-184.066406-105.5625 0-191.140626 78.5-191.140626 184.066406s85.578126 198.222656 191.140626 198.222656c105.570312.003907 191.144531-92.652343 191.144531-198.222656" fill="#fff35f"/><path d="m389.261719 195.753906h6.828125c.015625-54.648437-22.21875-102.550781-58.109375-136.574218-35.882813-34.046876-85.382813-54.320313-139.863281-54.320313-54.480469 0-103.976563 20.273437-139.859376 54.320313-35.886718 34.023437-58.132812 81.925781-58.113281 136.574218.011719 54.644532 22.125 105.828125 57.867188 143.40625 35.734375 37.570313 85.292969 61.644532 140.105469 61.644532 54.820312 0 104.378906-24.074219 140.109374-61.644532 35.742188-37.582031 57.859376-88.765625 57.867188-143.40625h-13.65625c.011719 50.921875-20.667969 98.855469-54.105469 133.996094-33.445312 35.148438-79.464843 57.402344-130.214843 57.402344-50.746094 0-96.765626-22.253906-130.210938-57.402344-33.441406-35.140625-54.117188-83.074219-54.109375-133.996094.019531-50.921875 20.566406-95.058594 53.855469-126.667968 33.304687-31.59375 79.378906-50.570313 130.464844-50.574219 51.089843.003906 97.164062 18.980469 130.46875 50.574219 33.289062 31.609374 53.835937 75.75 53.851562 126.667968z" fill="#54596e"/><path d="m359.074219 77.976562c21.738281-19.203124 31.5-45.910156 27.4375-68.507812-21.925781-6.8125-49.632813-.410156-71.363281 18.792969-6.742188 5.957031-10.433594 9.699219-12.207032 12.707031-30.113281-18.601562-66.082031-29.28125-104.820312-29.28125-39.007813 0-75.199219 10.824219-105.433594 29.667969-1.679688-3.078125-5.371094-6.878907-12.40625-13.09375-21.742188-19.203125-49.449219-25.605469-71.367188-18.792969-4.0625 22.59375 5.699219 49.304688 27.429688 68.507812 3.222656 2.84375 6.113281 4.648438 8.820312 5.789063-11.238281 14.335937-20.367187 30.394531-26.851562 47.878906 43.800781-40.027343 108.085938-65.34375 179.804688-65.34375 71.722656 0 136.007812 25.316407 179.808593 65.34375-6.519531-17.582031-15.714843-33.734375-27.042969-48.128906 2.53125-1.164063 5.222657-2.917969 8.191407-5.539063zm0 0" fill="#bfad88"/><path d="m359.074219 77.976562 4.519531 5.117188c19.855469-17.566406 30.617188-41.042969 30.644531-63.335938 0-3.882812-.332031-7.734374-1.007812-11.496093-.449219-2.507813-2.257813-4.554688-4.691407-5.3125-6.378906-1.980469-13.125-2.949219-20.007812-2.949219-19.71875.0117188-40.609375 7.871094-57.90625 23.144531-6.863281 6.125-10.898438 9.960938-13.566406 14.359375l5.882812 3.46875 3.585938-5.808594c-31.183594-19.269531-68.410156-30.304687-108.40625-30.300781-40.273438-.003906-77.734375 11.183594-109.042969 30.695313l3.609375 5.796875 5.992188-3.273438c-2.636719-4.652343-6.71875-8.539062-13.878907-14.9375-17.300781-15.265625-38.195312-23.1328122-57.910156-23.144531-6.882813 0-13.628906.960938-20.007813 2.949219-2.433593.757812-4.238281 2.804687-4.6875 5.3125-.679687 3.765625-1.007812 7.609375-1.007812 11.492187.027344 22.292969 10.789062 45.761719 30.640625 63.335938 3.664063 3.238281 7.207031 5.496094 10.683594 6.960937l2.65625-6.289062-5.371094-4.210938c-11.660156 14.867188-21.144531 31.546875-27.882813 49.714844-1.097656 2.953125-.027343 6.273437 2.585938 8.035156 2.617188 1.761719 6.089844 1.503907 8.417969-.621093 42.394531-38.765626 105.089843-63.566407 175.203125-63.554688 70.113281-.011719 132.808594 24.789062 175.199218 63.554688 2.328126 2.125 5.804688 2.382812 8.421876.621093 2.613281-1.761719 3.679687-5.082031 2.585937-8.035156-6.773437-18.265625-16.324219-35.039063-28.078125-49.972656l-5.363281 4.222656 2.855469 6.199219c3.226562-1.484375 6.484374-3.648438 9.851562-6.621094l-9.039062-10.234375c-2.570313 2.265625-4.699219 3.613281-6.523438 4.453125-1.90625.878906-3.292969 2.566406-3.78125 4.605469-.492188 2.035156-.023438 4.167969 1.269531 5.816406 10.902344 13.855469 19.738281 29.382813 26.003907 46.28125l6.402343-2.375 4.601563-5.039063c-45.207032-41.292968-111.082032-67.117187-184.410156-67.128906-73.328126.011719-139.203126 25.835938-184.414063 67.128906l4.605469 5.039063 6.402344 2.375c6.234374-16.804687 15.003906-32.242187 25.824218-46.039063 1.308594-1.671874 1.769532-3.871093 1.238282-5.921874-.53125-2.054688-2-3.757813-3.953126-4.582032-1.9375-.820312-4.179687-2.167968-6.960937-4.617187-17.164063-15.148438-26.054687-35.269531-26.023437-53.101563 0-3.105468.265624-6.144531.792968-9.082031l-6.71875-1.203125 2.03125 6.515625c4.960938-1.550781 10.335938-2.335937 15.945313-2.335937 16.054687-.015626 33.941406 6.527343 48.867187 19.726562 6.90625 6.035156 10.210938 9.746094 10.9375 11.25.898438 1.644531 2.441406 2.851562 4.257813 3.328125 1.8125.476563 3.753906.183594 5.34375-.808594 29.15625-18.167969 64.082031-28.628906 101.824219-28.632812 37.480468.003906 72.191406 10.324219 101.230468 28.265625 1.554688.957031 3.457032 1.253906 5.226563.816406s3.320312-1.589844 4.242187-3.160156c.878906-1.617188 4.234375-5.269532 10.847656-11.058594 14.917969-13.203125 32.804688-19.738281 48.863282-19.726562 5.601562 0 10.984375.792968 15.957031 2.335937l2.023437-6.515625-6.71875 1.203125c.527344 2.933594.792969 5.972656.792969 9.082031.027344 17.835938-8.859375 37.957032-26.035156 53.105469zm0 0" fill="#54596e"/><path d="m380.847656 172.242188c-11.722656 91.421874-89.035156 167.121093-182.730468 167.121093-93.691407 0-171.003907-75.699219-182.726563-167.121093-1.007813 7.714843-1.585937 15.601562-1.589844 23.667968.03125 50.863282 20.699219 98.734375 54.105469 133.839844 33.445312 35.148438 79.464844 57.402344 130.210938 57.402344 50.75 0 96.769531-22.253906 130.214843-57.402344 33.40625-35.105469 54.074219-82.976562 54.105469-133.839844-.003906-8.066406-.582031-15.953125-1.589844-23.667968" fill="#eee361"/><path d="m13.800781 195.910156v.09375c0 101.800782 82.523438 191.148438 184.316407 191.148438-50.746094 0-96.761719-22.253906-130.210938-57.402344-33.40625-35.105469-54.074219-82.976562-54.105469-133.839844m368.636719 0c-.03125 50.863282-20.699219 98.734375-54.105469 133.839844-33.445312 35.148438-79.464843 57.402344-130.214843 57.402344 101.800781 0 184.320312-89.347656 184.320312-191.148438 0-.03125 0-.0625 0-.09375" fill="#54596e"/><path d="m334.652344 196.007812c0 18.851563-15.28125 34.132813-34.132813 34.132813-18.851562 0-34.132812-15.28125-34.132812-34.132813 0-18.851562 15.28125-34.132812 34.132812-34.132812 18.851563 0 34.132813 15.28125 34.132813 34.132812zm0 0" fill="#54596e"/><path d="m297.105469 206.246094c0 5.65625-4.582031 10.242187-10.238281 10.242187s-10.238282-4.585937-10.238282-10.242187c0-5.652344 4.582032-10.238282 10.238282-10.238282s10.238281 4.585938 10.238281 10.238282zm0 0" fill="#fff"/><path d="m334.652344 178.941406c0 9.425782-7.640625 17.066406-17.066406 17.066406-9.425782 0-17.066407-7.640624-17.066407-17.066406 0-9.425781 7.640625-17.066406 17.066407-17.066406 9.425781 0 17.066406 7.640625 17.066406 17.066406zm0 0" fill="#fff"/><path d="m129.855469 196.007812c0 18.851563-15.285157 34.132813-34.136719 34.132813s-34.132812-15.28125-34.132812-34.132813c0-18.851562 15.28125-34.132812 34.132812-34.132812s34.136719 15.28125 34.136719 34.132812zm0 0" fill="#54596e"/><path d="m92.308594 206.246094c0 5.65625-4.585938 10.242187-10.242188 10.242187s-10.238281-4.585937-10.238281-10.242187c0-5.652344 4.582031-10.238282 10.238281-10.238282s10.242188 4.585938 10.242188 10.238282zm0 0" fill="#fff"/><path d="m198.121094 305.234375c-18.855469 0-34.132813-15.28125-34.132813-34.132813v-20.480468h68.265625v20.480468c0 18.851563-15.28125 34.132813-34.132812 34.132813zm0 0" fill="#54596e"/><path d="m129.855469 178.941406c0 9.425782-7.644531 17.066406-17.070313 17.066406-9.421875 0-17.066406-7.640624-17.066406-17.066406 0-9.425781 7.644531-17.066406 17.066406-17.066406 9.425782 0 17.070313 7.640625 17.070313 17.066406zm0 0" fill="#fff"/><path d="m130.355469 246.796875c5.917969 12.894531 18.949219 21.851563 34.078125 21.851563 14.792968 0 27.59375-8.574219 33.6875-21.027344" fill="#fff35f"/><path d="m124.148438 249.644531c6.988281 15.246094 22.410156 25.824219 40.285156 25.828125 17.480468-.003906 32.625-10.136718 39.816406-24.851562 1.65625-3.386719.253906-7.476563-3.132812-9.132813-3.382813-1.660156-7.472657-.253906-9.128907 3.132813-4.996093 10.1875-15.453125 17.207031-27.558593 17.199218-12.378907.007813-23.023438-7.324218-27.875-17.871093-1.574219-3.429688-5.625-4.933594-9.050782-3.359375-3.425781 1.574218-4.929687 5.628906-3.355468 9.054687zm0 0" fill="#54596e"/><path d="m198.621094 246.796875c5.917968 12.894531 18.953125 21.851563 34.078125 21.851563 14.796875 0 27.59375-8.574219 33.6875-21.027344" fill="#fff35f"/><path d="m192.414062 249.644531c6.988282 15.246094 22.410157 25.824219 40.285157 25.828125 17.484375-.003906 32.625-10.136718 39.816406-24.851562 1.660156-3.386719.257813-7.476563-3.128906-9.132813-3.386719-1.660156-7.476563-.253906-9.132813 3.132813-4.996094 10.1875-15.449218 17.207031-27.554687 17.199218-12.378907.007813-23.027344-7.324218-27.875-17.871093-1.574219-3.429688-5.628907-4.933594-9.054688-3.359375-3.425781 1.574218-4.929687 5.628906-3.355469 9.054687zm0 0" fill="#54596e"/></svg>