<svg height="416pt" viewBox="-10 0 416 416.4352" width="416pt" xmlns="http://www.w3.org/2000/svg"><path d="m286.882812 381.777344c-.84375 11.742187-10.625 21-22.578124 21h-132.226563c-11.953125 0-21.734375-9.257813-22.578125-21-21.171875 3.679687-34.1875 8.675781-34.1875 14.171875 0 11.316406 55.015625 20.484375 122.878906 20.484375 67.863282 0 122.878906-9.167969 122.878906-20.484375 0-5.496094-13.015624-10.492188-34.1875-14.171875" fill="#eeeef0"/><path d="m389.335938 190.898438c0-105.273438-85.09375-183.621094-190.253907-184.066407-102.75-.421875-190.195312 77.902344-192.003906 180.632813-1.367187 77.585937 43.652344 148.683594 109.1875 181.902344v10.777343c0 8.726563 7.085937 15.804688 15.8125 15.804688h132.226563c8.726562 0 15.804687-7.078125 15.804687-15.804688v-10.777343c64.570313-32.726563 109.226563-102.21875 109.226563-178.46875" fill="#adf2a2"/><g fill="#54596e"><path d="m389.335938 190.898438h6.832031c.011719-54.496094-22.101563-102.28125-57.820313-136.285157-35.703125-34.03125-84.964844-54.382812-139.242187-54.6054685h.015625l-.878906-.0078125c-52.941407.0078125-101.929688 20.207031-137.953126 53.722656-36.023437 33.5-59.117187 80.460938-60.039062 133.617188-.019531 1.183594-.03125 2.375-.03125 3.558594.046875 78.933593 46.078125 150.613281 112.964844 184.5625l3.085937-6.09375h-6.824219v10.78125c.003907 12.5 10.132813 22.628906 22.632813 22.628906h132.230469c12.5 0 22.628906-10.128906 22.636718-22.628906v-10.78125h-6.835937l3.089844 6.09375c66.882812-33.941407 112.921875-105.621094 112.972656-184.5625h-13.664063c.050782 73.550781-43.222656 140.867187-105.480468 172.378906-2.292969 1.164062-3.746094 3.523437-3.746094 6.089844v10.777343c-.003906 4.953125-4.019531 8.972657-8.976562 8.980469h-132.226563c-4.960937-.007812-8.96875-4.023438-8.984375-8.980469v-10.777343c0-2.566407-1.445312-4.925782-3.742188-6.089844-62.261718-31.519532-105.527343-98.828125-105.484374-172.378906 0-1.101563.011718-2.210938.03125-3.316407.875-49.296875 22.179687-92.652343 55.691406-123.859375 33.511718-31.183594 79.203125-50.070312 128.652344-50.066406h.808593c50.886719.214844 96.746094 19.261719 129.882813 50.839844 33.125 31.597656 53.558594 75.625 53.574218 126.402344z"/><path d="m143.578125 153.605469c0 9.425781-7.640625 17.066406-17.066406 17.066406s-17.066407-7.640625-17.066407-17.066406 7.640626-17.066407 17.066407-17.066407 17.066406 7.640626 17.066406 17.066407zm0 0"/><path d="m280.109375 153.605469c0 9.425781-7.640625 17.066406-17.066406 17.066406s-17.066407-7.640625-17.066407-17.066406 7.640626-17.066407 17.066407-17.066407 17.066406 7.640626 17.066406 17.066407zm0 0"/><path d="m250.835938 348.164062h-105.289063c-4.664063 0-8.28125-4.09375-7.707031-8.726562l12.5625-100.5c0-22.621094 18.34375-40.957031 40.964844-40.957031h13.652343c22.617188 0 40.957031 18.335937 40.957031 40.957031l12.5625 100.5c.578126 4.632812-3.035156 8.726562-7.703124 8.726562"/><path d="m250.835938 348.164062v-6.828124h-105.289063l-.941406-.929688.007812-.109375 12.566407-100.515625.050781-.847656c.003906-9.445313 3.804687-17.9375 9.996093-24.132813 6.199219-6.1875 14.691407-9.992187 24.140626-9.992187h13.652343c9.445313 0 17.9375 3.804687 24.132813 9.992187 6.1875 6.195313 9.996094 14.683594 10.003906 24.132813l.046875.847656 12.5625 100.5.007813.125-.28125.652344-.65625.277344v13.652343c8.164062-.019531 14.585937-6.617187 14.59375-14.578125l-.109376-1.820312-12.570312-100.5-6.773438.847656h6.828126c-.007813-26.394531-21.394532-47.78125-47.785157-47.78125h-13.652343c-26.394532 0-47.78125 21.386719-47.789063 47.78125h6.828125l-6.769531-.847656-12.570313 100.5-.109375 1.820312c0 7.960938 6.429688 14.558594 14.59375 14.578125h105.285157z"/></g><path d="m218.667969 341.335938c15.078125 0 27.308593-12.222657 27.308593-27.300782 0-15.082031-12.230468-27.3125-27.308593-27.3125-8.199219 0-15.46875 3.699219-20.476563 9.421875-5.007812-5.722656-12.277344-9.421875-20.480468-9.421875-15.078126 0-27.308594 12.230469-27.308594 27.3125 0 15.078125 12.230468 27.300782 27.308594 27.300782z" fill="#f99"/><path d="m380.917969 167.382812c-8.859375 69.089844-55.164063 129.195313-117.699219 154.441407l2.097656 16.765625.113282 1.816406c-.007813 7.964844-6.433594 14.558594-14.597657 14.582031h-105.285156c-8.164063-.023437-14.59375-6.617187-14.59375-14.582031l.109375-1.816406 2.097656-16.765625c-62.535156-25.246094-108.839844-85.351563-117.699218-154.441407-1.007813 7.714844-1.589844 15.59375-1.59375 23.660157.015624 73.492187 43.261718 140.734375 105.484374 172.234375.109376.054687.210938.109375.3125.167968 1.140626.574219 2.285157 1.136719 3.433594 1.683594v15.332032c.179688 4.808593 4.125 8.65625 8.980469 8.664062h132.226563c4.953124-.007812 8.96875-4.023438 8.976562-8.980469v-15.015625c1.152344-.546875 2.300781-1.109375 3.4375-1.683594.101562-.058593.207031-.113281.308594-.167968 62.21875-31.492188 105.472656-98.738282 105.480468-172.230469-.003906-8.070313-.582031-15.949219-1.589843-23.664063" fill="#a4e29d"/><path d="m123.101562 380.460938v8.664062h8.976563c-4.855469-.007812-8.800781-3.855469-8.976563-8.664062m150.179688-11.09375v10.777343c-.007812 4.953125-4.023438 8.972657-8.976562 8.980469h8.976562zm109.226562-178.320313c-.011718 73.492187-43.265624 140.738281-105.480468 172.230469-.105469.054687-.207032.109375-.308594.167968 62.507812-31.460937 105.789062-98.589843 105.789062-172.289062 0-.035156 0-.074219 0-.109375m-368.640624-.003906v.113281c0 73.699219 43.28125 140.828125 105.800781 172.289062-.101563-.058593-.207031-.113281-.3125-.167968-62.222657-31.5-105.472657-98.742188-105.488281-172.234375" fill="#54596e"/><path d="m146.332031 326.546875-1.722656 13.75-.007813.109375.945313.929688h105.285156l.660157-.277344.277343-.652344-.007812-.125-1.714844-13.734375c-2.816406.886719-5.65625 1.699219-8.527344 2.445313-4.878906 7.433593-13.292969 12.34375-22.851562 12.34375h-40.957031c-9.558594 0-17.96875-4.910157-22.847657-12.34375-2.871093-.742188-5.71875-1.5625-8.53125-2.445313" fill="#54596e"/><path d="m334.722656 115.082031c0 8.078125-6.546875 14.628907-14.628906 14.628907-8.074219 0-14.625-6.550782-14.625-14.628907s11.703125-26.332031 14.625-26.332031c2.925781 0 14.628906 18.253906 14.628906 26.332031zm0 0" fill="#55a6ff"/><path d="m68.484375 232.113281c0 7.539063-6.113281 13.652344-13.652344 13.652344-7.542969 0-13.65625-6.113281-13.65625-13.652344 0-7.542969 10.925781-24.578125 13.65625-24.578125s13.652344 17.035156 13.652344 24.578125zm0 0" fill="#55a6ff"/><path d="m362.03125 180.910156c0 9.425782-7.640625 17.066406-17.066406 17.066406-9.425782 0-17.066406-7.640624-17.066406-17.066406 0-9.421875 13.652343-30.71875 17.066406-30.71875 3.414062 0 17.066406 21.296875 17.066406 30.71875zm0 0" fill="#55a6ff"/></svg>