<svg height="416pt" viewBox="-10 0 416 416.43008" width="416pt" xmlns="http://www.w3.org/2000/svg"><path d="m274.011719 379.835938c-23.339844 10.324218-48.949219 16.109374-75.824219 16.109374-26.878906 0-52.488281-5.785156-75.828125-16.109374-28.648437 3.746093-47.058594 9.574218-47.058594 16.109374 0 11.316407 55.023438 20.484376 122.886719 20.484376 67.859375 0 122.882812-9.167969 122.882812-20.484376 0-6.535156-18.410156-12.363281-47.058593-16.109374" fill="#eeeef0"/><path d="m389.328125 190.898438c0-105.566407-85.570313-184.066407-191.140625-184.066407-105.566406 0-191.148438 78.5-191.148438 184.066407 0 105.566406 85.582032 198.222656 191.148438 198.222656 105.570312 0 191.140625-92.65625 191.140625-198.222656" fill="#fff35f"/><g fill="#54596e"><path d="m389.328125 190.898438h6.832031c.015625-54.648438-22.222656-102.550782-58.117187-136.578126-35.878907-34.046874-85.378907-54.320312-139.855469-54.320312-54.484375 0-103.980469 20.273438-139.863281 54.320312-35.894531 34.027344-58.128907 81.929688-58.109375 136.578126.007812 54.644531 22.113281 105.824218 57.863281 143.402343 35.730469 37.574219 85.292969 61.644531 140.109375 61.644531 54.8125 0 104.371094-24.070312 140.105469-61.644531 35.746093-37.582031 57.855469-88.757812 57.867187-143.402343h-13.65625c.015625 50.914062-20.664062 98.847656-54.105468 133.992187-33.449219 35.148437-79.460938 57.40625-130.207032 57.40625-50.757812 0-96.769531-22.257813-130.214844-57.40625-33.445312-35.144531-54.113281-83.078125-54.109374-133.992187.023437-50.921876 20.566406-95.050782 53.859374-126.675782 33.300782-31.585937 79.371094-50.5625 130.460938-50.5625 51.085938 0 97.15625 18.976563 130.457031 50.566406 33.296875 31.621094 53.847657 75.75 53.859375 126.675782h6.824219"/><path d="m123.089844 225.285156c0 43.355469 33.621094 78.503906 75.09375 78.503906 41.476562 0 75.09375-35.148437 75.09375-78.503906zm0 0"/><path d="m123.089844 225.285156h-6.824219c-.003906 23.453125 9.101563 44.777344 23.886719 60.226563 14.769531 15.457031 35.34375 25.109375 58.03125 25.101562 22.691406.007813 43.265625-9.644531 58.03125-25.101562 14.785156-15.449219 23.890625-36.773438 23.890625-60.226563 0-1.800781-.730469-3.558594-2-4.828125-1.273438-1.273437-3.03125-2-4.828125-2h-150.1875c-1.796875 0-3.554688.726563-4.824219 2-1.273437 1.269531-2 3.027344-2 4.828125h6.824219v6.824219h150.1875v-6.824219h-6.824219c-.003906 19.898438-7.707031 37.828125-20.101563 50.792969-12.410156 12.957031-29.382812 20.878906-48.167968 20.886719-18.78125-.007813-35.753906-7.929688-48.164063-20.886719-12.394531-12.964844-20.097656-30.894531-20.101562-50.792969h-6.828125v6.824219zm0 0"/></g><path d="m380.914062 167.386719c-11.722656 91.417969-89.035156 167.125-182.726562 167.125-93.695312 0-171.007812-75.707031-182.726562-167.125-1.011719 7.714843-1.589844 15.597656-1.59375 23.664062.035156 50.859375 20.695312 98.734375 54.105468 133.839844 33.449219 35.148437 79.460938 57.40625 130.214844 57.40625 50.75 0 96.761719-22.257813 130.210938-57.40625 33.40625-35.105469 54.074218-82.980469 54.105468-133.835937-.003906-8.070313-.582031-15.949219-1.589844-23.667969" fill="#eee361"/><path d="m382.503906 191.054688c-.03125 50.855468-20.699218 98.730468-54.105468 133.835937-33.449219 35.148437-79.460938 57.40625-130.210938 57.40625 101.792969 0 184.316406-89.351563 184.316406-191.148437 0-.03125 0-.0625 0-.09375m-368.636718-.003907v.097657c0 101.796874 82.523437 191.148437 184.320312 191.148437-50.753906 0-96.765625-22.257813-130.214844-57.40625-33.410156-35.105469-54.074218-82.980469-54.105468-133.839844" fill="#54596e"/><path d="m119.648438 108.296875 16.480468 9.628906-23.132812 12.617188c-3.308594 1.808593-4.527344 5.953125-2.722656 9.265625 1.804687 3.308594 5.953124 4.527344 9.261718 2.722656l33.742188-18.410156c2.164062-1.179688 3.523437-3.433594 3.558594-5.894532.035156-2.457031-1.257813-4.753906-3.382813-5.992187l-26.914063-15.722656c-3.257812-1.90625-7.4375-.808594-9.339843 2.449219-1.902344 3.253906-.804688 7.433593 2.449219 9.335937zm0 0" fill="#54596e"/><path d="m269.445312 96.507812-26.917968 15.722657c-2.121094 1.242187-3.417969 3.535156-3.378906 5.996093.035156 2.460938 1.394531 4.714844 3.554687 5.890626l33.742187 18.410156c3.308594 1.808594 7.457032.589844 9.261719-2.722656 1.804688-3.308594.589844-7.453126-2.722656-9.261719l-23.128906-12.621094 16.476562-9.625c3.253907-1.902344 4.351563-6.082031 2.453125-9.335937-1.902344-3.257813-6.085937-4.355469-9.339844-2.453126zm0 0" fill="#54596e"/><path d="m143.570312 170.671875c0-7.542969-15.28125-13.65625-34.132812-13.65625s-34.132812 6.113281-34.132812 13.65625c0 7.539063 15.28125 13.652344 34.132812 13.652344s34.132812-6.113281 34.132812-13.652344zm0 0" fill="#f9bbed"/><path d="m321.066406 170.671875c0-7.542969-15.285156-13.65625-34.136718-13.65625-18.847657 0-34.132813 6.113281-34.132813 13.65625 0 7.539063 15.285156 13.652344 34.132813 13.652344 18.851562 0 34.136718-6.113281 34.136718-13.652344zm0 0" fill="#f9bbed"/><path d="m198.183594 361.816406c-18.847656 0-34.132813-15.28125-34.132813-34.132812v-95.574219h68.265625v95.574219c0 18.851562-15.28125 34.132812-34.132812 34.132812zm0 0" fill="#ff7d7d"/><path d="m198.183594 361.816406v-6.828125c-7.5625-.003906-14.34375-3.042969-19.304688-7.996093-4.953125-4.964844-7.996094-11.75-8-19.308594v-88.75h54.613282v88.75c-.003907 7.5625-3.046876 14.34375-8 19.308594-4.960938 4.949218-11.746094 7.992187-19.308594 7.996093v13.652344c22.625-.003906 40.957031-18.332031 40.960937-40.957031v-102.398438h-81.917969v102.398438c.003907 22.625 18.335938 40.953125 40.957032 40.957031zm0 0" fill="#54596e"/><path d="m205.011719 279.898438v-47.789063h-13.652344v47.789063" fill="#54596e"/></svg>