<?xml version="1.0" encoding="iso-8859-1"?>
<!-- Generator: Adobe Illustrator 19.0.0, SVG Export Plug-In . SVG Version: 6.00 Build 0)  -->
<svg xmlns="http://www.w3.org/2000/svg" xmlns:xlink="http://www.w3.org/1999/xlink" version="1.1" id="Capa_1" x="0px" y="0px" viewBox="0 0 473.77 473.77" style="enable-background:new 0 0 473.77 473.77;" xml:space="preserve">
<circle style="fill:#FFFFFF;" cx="236.94" cy="236.89" r="236.83"/>
<path style="fill:#E4E4E4;" d="M460.241,157.917H314.315c6.335,50.596,6.376,106.339,0.12,156.999h146.116  c8.526-24.438,13.219-50.682,13.219-78.026C473.774,209.186,468.976,182.619,460.241,157.917z"/>
<path style="fill:#C42B27;" d="M314.315,157.917h145.922c-0.026-0.075-0.049-0.138-0.075-0.206  C429.849,72.243,351.883,9.362,258.203,1.015C294.458,20.891,305.044,83.851,314.315,157.917z"/>
<path style="fill:#0B0B0B;" d="M258.206,472.743c93.848-8.362,171.927-71.46,202.12-157.156c0.079-0.228,0.146-0.452,0.228-0.673  h-146.12C305.239,389.385,294.611,452.789,258.206,472.743z"/>
<path style="fill:#F3F4F5;" d="M0.097,236.889c0,27.348,4.693,53.588,13.219,78.026h313.313c6.256-50.66,6.215-106.402-0.12-156.999  H13.631C4.895,182.619,0.097,209.186,0.097,236.889z"/>
<path style="fill:#CC3434;" d="M13.702,157.714c-0.026,0.067-0.049,0.131-0.075,0.206h312.879  c-9.27-74.07-32.052-137.029-68.303-156.901c-7.012-0.621-14.102-0.972-21.274-0.972C133.903,0.047,46.281,65.845,13.702,157.714z"/>
<path style="fill:#151515;" d="M326.629,314.915H13.317c0.079,0.221,0.15,0.445,0.228,0.673  c32.452,92.102,120.19,158.135,223.387,158.135c7.173,0,14.263-0.352,21.274-0.98C294.611,452.789,317.434,389.385,326.629,314.915z  "/>
<path style="fill:#0D8C45;" d="M236.838,237.408L28.211,125.21h-0.007C10.209,158.604,0,196.811,0,237.404  c0,40.245,10.067,78.138,27.785,111.327l209.053-111.29"/>
<g>
</g>
<g>
</g>
<g>
</g>
<g>
</g>
<g>
</g>
<g>
</g>
<g>
</g>
<g>
</g>
<g>
</g>
<g>
</g>
<g>
</g>
<g>
</g>
<g>
</g>
<g>
</g>
<g>
</g>
</svg>
