<?xml version="1.0" encoding="iso-8859-1"?>
<!-- Generator: Adobe Illustrator 19.0.0, SVG Export Plug-In . SVG Version: 6.00 Build 0)  -->
<svg xmlns="http://www.w3.org/2000/svg" xmlns:xlink="http://www.w3.org/1999/xlink" version="1.1" id="Capa_1" x="0px" y="0px" viewBox="0 0 473.677 473.677" style="enable-background:new 0 0 473.677 473.677;" xml:space="preserve">
<g>
	<path style="fill:#263778;" d="M236.835,473.677c68.715,0,130.563-29.288,173.83-76.033H295.512   C279.167,443.154,270.023,473.677,236.835,473.677z"/>
	<path style="fill:#263778;" d="M301.122,76.033h109.543C367.398,29.296,305.549,0,236.835,0   C270.023,0,284.776,30.522,301.122,76.033z"/>
</g>
<g>
	<path style="fill:#E4E4E4;" d="M307.666,132.579h141.85c-10.19-20.736-23.32-39.763-38.85-56.546h-117.8   C298.975,93.059,303.915,112.172,307.666,132.579z"/>
	<path style="fill:#E4E4E4;" d="M300.188,397.644h110.478c15.527-16.776,28.66-35.803,38.85-56.546H314.992   C311.241,361.512,306.301,380.625,300.188,397.644z"/>
</g>
<path style="fill:#CD2029;" d="M449.516,132.579h-138.11c11.993,65.143,11.993,143.383,0,208.519h138.11  c15.456-31.457,24.161-66.83,24.161-104.256C473.677,199.424,464.971,164.044,449.516,132.579z"/>
<g>
	<path style="fill:#214183;" d="M311.121,397.644H63.019c43.259,46.745,105.108,76.033,173.815,76.033   C270.023,473.677,294.776,443.154,311.121,397.644z"/>
	<path style="fill:#214183;" d="M63.012,76.033h248.109C294.776,30.522,270.023,0,236.835,0C168.128,0,106.279,29.296,63.012,76.033   z"/>
</g>
<g>
	<path style="fill:#F3F2F2;" d="M63.012,76.033c-15.527,16.783-28.66,35.81-38.85,56.546h301.765   c-3.762-20.407-8.691-39.52-14.805-56.546C311.122,76.033,63.012,76.033,63.012,76.033z"/>
	<path style="fill:#F3F2F2;" d="M63.019,397.644h248.102c6.114-17.019,11.043-36.132,14.805-56.546H24.169   C34.352,361.841,47.481,380.868,63.019,397.644z"/>
</g>
<path style="fill:#D71F37;" d="M0,236.842c0,37.426,8.713,72.798,24.169,104.256h301.757c11.993-65.136,11.993-143.375,0-208.519  H24.161C8.713,164.044,0,199.424,0,236.842z"/>
<g>
</g>
<g>
</g>
<g>
</g>
<g>
</g>
<g>
</g>
<g>
</g>
<g>
</g>
<g>
</g>
<g>
</g>
<g>
</g>
<g>
</g>
<g>
</g>
<g>
</g>
<g>
</g>
<g>
</g>
</svg>
