<?xml version="1.0" encoding="iso-8859-1"?>
<!-- Generator: Adobe Illustrator 19.0.0, SVG Export Plug-In . SVG Version: 6.00 Build 0)  -->
<svg xmlns="http://www.w3.org/2000/svg" xmlns:xlink="http://www.w3.org/1999/xlink" version="1.1" id="Capa_1" x="0px" y="0px" viewBox="0 0 473.68 473.68" style="enable-background:new 0 0 473.68 473.68;" xml:space="preserve">
<circle style="fill:#FFFFFF;" cx="236.85" cy="236.85" r="236.83"/>
<path style="fill:#0B0B0B;" d="M460.143,157.874H314.218c6.331,50.593,6.376,106.339,0.116,156.995h146.12  c8.523-24.438,13.219-50.682,13.219-78.026C473.677,209.139,468.879,182.573,460.143,157.874z"/>
<path style="fill:#151515;" d="M0,236.842c0,27.348,4.689,53.588,13.219,78.026h313.313c6.253-50.66,6.215-106.402-0.123-156.995  H13.534C4.798,182.573,0,209.139,0,236.842z"/>
<g>
	<path style="fill:#66A4D2;" d="M311.993,140.642h14.416h126.839C419.109,63.943,345.451,8.747,258.109,0.969   C291.511,19.281,301.496,74.186,311.993,140.642z"/>
	<path style="fill:#66A4D2;" d="M314.337,332.295c-10.452,66.785-22.699,122.026-56.224,140.402   c87.611-7.808,161.467-63.333,195.468-140.402H326.532L314.337,332.295L314.337,332.295z"/>
</g>
<g>
	<path style="fill:#E4E4E4;" d="M323.963,140.642c0.897,5.669,1.716,11.409,2.446,17.228h133.735   c-0.03-0.075-0.052-0.138-0.075-0.206c-2.053-5.785-4.345-11.458-6.821-17.026H326.409h-2.446L323.963,140.642L323.963,140.642z"/>
	<path style="fill:#E4E4E4;" d="M460.457,314.868H326.532c-0.729,5.886-1.548,11.694-2.446,17.426h2.446h127.045   c2.416-5.486,4.645-11.065,6.653-16.753C460.304,315.313,460.375,315.089,460.457,314.868z"/>
</g>
<path style="fill:#75ABDC;" d="M258.113,0.972C251.101,0.352,244.011,0,236.838,0C140.29,0,57.279,57.78,20.403,140.642h291.593  h2.229h9.742C313.466,74.186,291.511,19.281,258.113,0.972z"/>
<path style="fill:#F3F4F5;" d="M323.963,140.642h-9.742h-2.229H20.399c-2.476,5.564-4.749,11.241-6.791,17.026  c-0.03,0.067-0.052,0.131-0.075,0.206h300.684h12.191C325.679,152.051,324.861,146.311,323.963,140.642z"/>
<path style="fill:#75ABDC;" d="M314.337,332.295h-2.221H20.085c36.708,83.25,119.921,141.382,216.749,141.382  c7.173,0,14.263-0.352,21.274-0.98c33.525-18.376,55.525-73.617,65.977-140.402L314.337,332.295L314.337,332.295z"/>
<path style="fill:#F3F4F5;" d="M314.337,314.868H13.219c0.079,0.221,0.146,0.445,0.228,0.673c2.001,5.688,4.222,11.279,6.638,16.753  h292.031h2.221h9.749c0.897-5.733,1.716-11.54,2.446-17.426H314.337z"/>
<g>
</g>
<g>
</g>
<g>
</g>
<g>
</g>
<g>
</g>
<g>
</g>
<g>
</g>
<g>
</g>
<g>
</g>
<g>
</g>
<g>
</g>
<g>
</g>
<g>
</g>
<g>
</g>
<g>
</g>
</svg>
