<?xml version="1.0" encoding="iso-8859-1"?>
<!-- Generator: Adobe Illustrator 19.0.0, SVG Export Plug-In . SVG Version: 6.00 Build 0)  -->
<svg xmlns="http://www.w3.org/2000/svg" xmlns:xlink="http://www.w3.org/1999/xlink" version="1.1" id="Capa_1" x="0px" y="0px" viewBox="0 0 473.677 473.677" style="enable-background:new 0 0 473.677 473.677;" xml:space="preserve">
<path style="fill:#029D49;" d="M18.156,145.813C6.473,173.838,0,204.581,0,236.842s6.473,63.004,18.152,91.029l178.217-91.029  L18.156,145.813z"/>
<g>
	<path style="fill:#FBD015;" d="M473.677,236.842c0,3.463-0.112,6.888-0.262,10.314   C473.583,243.738,473.677,240.305,473.677,236.842z"/>
	<path style="fill:#FBD015;" d="M473.415,226.528c0.15,3.425,0.262,6.858,0.262,10.314   C473.677,233.387,473.583,229.946,473.415,226.528z"/>
</g>
<path style="fill:#CD2029;" d="M36.689,110.288C13.485,146.902,0,190.288,0,236.842s13.485,89.941,36.689,126.555l159.684-126.555  L36.689,110.288z"/>
<g>
	<path style="fill:#029D49;" d="M316.039,170.158l156.733,46.651c0.269,3.22,0.49,6.466,0.643,9.723   c0.15,3.425,0.262,6.858,0.262,10.314c0-130.81-106.036-236.842-236.842-236.842C289.809,0,305.968,77.697,316.039,170.158z"/>
	<path style="fill:#029D49;" d="M473.415,247.156c-0.153,3.257-0.374,6.492-0.643,9.723l-157.668,46.647   c-10.063,92.453-25.294,170.151-78.269,170.151c130.807,0,236.842-106.036,236.842-236.835   C473.677,240.305,473.565,243.73,473.415,247.156z"/>
</g>
<path style="fill:#FBD015;" d="M472.772,216.809l-145.514-48.054c4.723,43.379-21.454,101.529-26.177,144.908l171.691-56.789  c0.269-3.227,0.49-6.466,0.643-9.723c0.15-3.425,0.262-6.851,0.262-10.314c0-3.455-0.112-6.888-0.262-10.314  C473.262,223.271,473.041,220.029,472.772,216.809z"/>
<g>
	<path style="fill:#029D49;" d="M35.825,362.047c-1.343-2.139-2.633-4.323-3.908-6.514C33.192,357.72,34.486,359.897,35.825,362.047   z"/>
	<path style="fill:#029D49;" d="M22.445,136.173c0.961-2.038,1.967-4.054,2.988-6.062C24.412,132.119,23.406,134.135,22.445,136.173   z"/>
	<path style="fill:#029D49;" d="M27.067,126.906c1.088-2.068,2.206-4.114,3.351-6.144C29.273,122.793,28.155,124.838,27.067,126.906   z"/>
	<path style="fill:#029D49;" d="M25.444,343.596c-1.025-2.016-2.038-4.046-3.003-6.099C23.406,339.55,24.419,341.573,25.444,343.596   z"/>
	<path style="fill:#029D49;" d="M18.156,145.806c0.883-2.124,1.84-4.214,2.782-6.305C19.999,141.591,19.042,143.682,18.156,145.806z   "/>
	<path style="fill:#029D49;" d="M20.953,334.209c-0.946-2.105-1.903-4.2-2.793-6.331C19.049,330.01,20.007,332.108,20.953,334.209z"/>
	<path style="fill:#029D49;" d="M31.932,118.133c1.268-2.184,2.554-4.353,3.885-6.492C34.486,113.78,33.196,115.949,31.932,118.133z   "/>
	<path style="fill:#029D49;" d="M30.429,352.937c-1.156-2.038-2.27-4.099-3.366-6.178C28.152,348.839,29.277,350.899,30.429,352.937   z"/>
</g>
<g>
	<path style="fill:#14A755;" d="M331.39,303.526L59.156,393.351c43.398,49.235,106.888,80.326,177.678,80.326   C289.809,473.677,321.327,395.98,331.39,303.526z"/>
	<path style="fill:#14A755;" d="M59.16,80.33l272.23,89.828C321.323,77.697,289.809,0,236.835,0   C166.048,0,102.562,31.098,59.16,80.33z"/>
</g>
<g>
	<path style="fill:#029D49;" d="M59.141,393.336c-8.235-9.349-15.736-19.356-22.437-29.909   C43.401,373.987,50.903,383.987,59.141,393.336z"/>
	<path style="fill:#029D49;" d="M36.715,110.246c6.679-10.523,14.154-20.5,22.359-29.823   C50.869,89.742,43.394,99.712,36.715,110.246z"/>
	<path style="fill:#029D49;" d="M27.06,346.759c-0.546-1.043-1.084-2.105-1.619-3.164C25.975,344.654,26.514,345.712,27.06,346.759z   "/>
	<path style="fill:#029D49;" d="M31.917,355.529c-0.497-0.86-1.002-1.724-1.488-2.592C30.919,353.805,31.416,354.669,31.917,355.529   z"/>
	<path style="fill:#029D49;" d="M36.704,363.427c-0.292-0.46-0.595-0.912-0.879-1.38C36.109,362.514,36.412,362.967,36.704,363.427z   "/>
	<polygon style="fill:#029D49;" points="59.156,393.351 59.156,393.351 59.141,393.336  "/>
	<path style="fill:#029D49;" d="M35.818,111.641c0.295-0.467,0.602-0.927,0.897-1.395C36.42,110.714,36.113,111.174,35.818,111.641z   "/>
	<path style="fill:#029D49;" d="M30.421,120.762c0.497-0.883,1.002-1.761,1.511-2.629C31.42,119.001,30.919,119.88,30.421,120.762z"/>
	<path style="fill:#029D49;" d="M22.441,337.497c-0.516-1.088-0.995-2.191-1.488-3.287   C21.446,335.305,21.925,336.408,22.441,337.497z"/>
	<path style="fill:#029D49;" d="M59.156,80.33c-0.03,0.03-0.056,0.067-0.082,0.093C59.104,80.393,59.134,80.356,59.156,80.33   L59.156,80.33z"/>
	<path style="fill:#029D49;" d="M25.433,130.111c0.542-1.073,1.081-2.139,1.638-3.205C26.514,127.972,25.971,129.038,25.433,130.111   z"/>
	<path style="fill:#029D49;" d="M18.156,327.871v0.007V327.871z"/>
	<path style="fill:#029D49;" d="M20.942,139.505c0.505-1.111,0.987-2.229,1.503-3.332C21.925,137.276,21.443,138.394,20.942,139.505   z"/>
	<polygon style="fill:#029D49;" points="18.156,145.813 18.156,145.813 18.156,145.806  "/>
</g>
<path style="fill:#FCD943;" d="M331.39,170.158L59.16,80.33c-0.03,0.03-0.06,0.067-0.086,0.093  c-8.201,9.319-15.676,19.296-22.359,29.823c-0.295,0.467-0.602,0.927-0.897,1.395c-1.331,2.139-2.618,4.308-3.885,6.492  c-0.512,0.868-1.013,1.746-1.511,2.629c-1.148,2.031-2.262,4.076-3.351,6.144c-0.553,1.066-1.096,2.132-1.638,3.205  c-1.017,2.008-2.027,4.024-2.988,6.062c-0.52,1.103-1.002,2.221-1.503,3.332c-0.942,2.09-1.9,4.177-2.782,6.305c0,0,0,0-0.004,0.007  l178.217,91.029L18.156,327.871l0.004,0.007c0.89,2.132,1.847,4.229,2.793,6.331c0.497,1.096,0.976,2.199,1.488,3.287  c0.965,2.053,1.974,4.084,3.003,6.099c0.535,1.058,1.07,2.117,1.619,3.164c1.096,2.083,2.214,4.14,3.366,6.178  c0.49,0.868,0.995,1.731,1.488,2.592c1.275,2.191,2.565,4.375,3.908,6.514c0.284,0.467,0.587,0.92,0.879,1.38  c6.701,10.553,14.203,20.56,22.437,29.909c0.004,0.007,0.011,0.015,0.011,0.015l272.237-89.825  C336.113,260.147,336.113,213.537,331.39,170.158z"/>
<g>
</g>
<g>
</g>
<g>
</g>
<g>
</g>
<g>
</g>
<g>
</g>
<g>
</g>
<g>
</g>
<g>
</g>
<g>
</g>
<g>
</g>
<g>
</g>
<g>
</g>
<g>
</g>
<g>
</g>
</svg>
