<?xml version="1.0" encoding="iso-8859-1"?>
<!-- Generator: Adobe Illustrator 19.0.0, SVG Export Plug-In . SVG Version: 6.00 Build 0)  -->
<svg xmlns="http://www.w3.org/2000/svg" xmlns:xlink="http://www.w3.org/1999/xlink" version="1.1" id="Capa_1" x="0px" y="0px" viewBox="0 0 473.68 473.68" style="enable-background:new 0 0 473.68 473.68;" xml:space="preserve">
<path style="fill:#E8BD1F;" d="M315.8,13.535l-27.64,76.632c25.511,84.193,25.511,209.154,0,293.351l27.639,76.624  c91.975-32.523,157.881-120.194,157.881-223.309C473.681,133.737,407.774,46.058,315.8,13.535z"/>
<g>
	<path style="fill:#D32027;" d="M315.8,90.167V13.535C291.1,4.8,264.534,0.002,236.838,0.002   C273.359,0.002,222.722,123.774,315.8,90.167z"/>
	<path style="fill:#D32027;" d="M236.838,473.678c27.695,0,54.261-4.798,78.961-13.534V383.52   C223.656,374.326,236.838,473.678,236.838,473.678z"/>
</g>
<path style="fill:#359846;" d="M0,236.837C0,340.296,66.355,428.198,158.805,460.46V13.229C66.355,45.49,0,133.392,0,236.837z"/>
<path style="fill:#F8D12E;" d="M315.8,90.167v293.351C341.315,299.321,341.315,174.358,315.8,90.167z"/>
<path style="fill:#DB2727;" d="M315.8,383.521V90.167c-16.125-53.229-42.44-90.165-78.961-90.165  c-27.351,0-53.592,4.697-78.034,13.227V460.46c24.442,8.53,50.682,13.219,78.034,13.219  C273.359,473.678,299.674,436.743,315.8,383.521z"/>
<polygon style="fill:#F8D12E;" points="235.481,185.315 248.143,224.298 289.129,224.298 255.97,248.384 268.636,287.366   235.481,263.268 202.326,287.366 214.988,248.384 181.829,224.298 222.815,224.298 "/>
<g>
</g>
<g>
</g>
<g>
</g>
<g>
</g>
<g>
</g>
<g>
</g>
<g>
</g>
<g>
</g>
<g>
</g>
<g>
</g>
<g>
</g>
<g>
</g>
<g>
</g>
<g>
</g>
<g>
</g>
</svg>
