<?xml version="1.0" encoding="iso-8859-1"?>
<!-- Generator: Adobe Illustrator 19.0.0, SVG Export Plug-In . SVG Version: 6.00 Build 0)  -->
<svg xmlns="http://www.w3.org/2000/svg" xmlns:xlink="http://www.w3.org/1999/xlink" version="1.1" id="Capa_1" x="0px" y="0px" viewBox="0 0 473.69 473.69" style="enable-background:new 0 0 473.69 473.69;" xml:space="preserve">
<circle style="fill:#FFFFFF;" cx="236.86" cy="236.859" r="236.83"/>
<path style="fill:#D02027;" d="M460.15,157.874c-0.022-0.075-0.045-0.138-0.075-0.206C429.766,72.2,351.795,9.318,258.118,0.971  c36.248,19.872,36.401,451.777,0,471.732c93.849-8.362,171.928-71.46,202.122-157.149c0.078-0.236,0.146-0.46,0.228-0.681  c8.53-24.438,13.22-50.683,13.22-78.027C473.684,209.141,468.886,182.574,460.15,157.874z"/>
<path style="fill:#DB2727;" d="M326.422,157.874c-9.274-74.07-32.056-137.03-68.308-156.902c-6.735-0.591-13.549-0.92-20.429-0.95  c-0.284,0-0.561-0.022-0.849-0.022c-103.03,0-190.645,65.802-223.228,157.669c-0.022,0.067-0.045,0.131-0.075,0.206  C4.798,182.574,0,209.141,0,236.843c0,27.348,4.697,53.588,13.219,78.027c0.079,0.221,0.153,0.445,0.228,0.681  C45.9,407.646,133.642,473.68,236.836,473.68c0.284,0,0.561-0.015,0.849-0.022c6.881-0.022,13.694-0.352,20.429-0.957  c36.401-19.954,59.228-83.359,68.423-157.83C332.798,264.21,332.757,208.467,326.422,157.874z"/>
<g>
	<path style="fill:#F3F4F5;" d="M111.272,127.271c0-32.108,26.031-58.14,58.147-58.14c10.804,0,20.912,2.951,29.58,8.085   c-12.715-12.561-30.186-20.328-49.475-20.328c-38.873,0-70.379,31.51-70.379,70.379s31.51,70.379,70.379,70.379   c19.289,0,36.76-7.771,49.475-20.336c-8.668,5.134-18.777,8.092-29.58,8.092C137.303,185.408,111.272,159.378,111.272,127.271z"/>
	<polygon style="fill:#F3F4F5;" points="235.722,89.244 250.183,112.808 277.063,106.331 259.124,127.373 273.585,150.925    248.044,140.372 230.098,161.408 232.24,133.843 206.699,123.29 233.575,116.817  "/>
</g>
<g>
</g>
<g>
</g>
<g>
</g>
<g>
</g>
<g>
</g>
<g>
</g>
<g>
</g>
<g>
</g>
<g>
</g>
<g>
</g>
<g>
</g>
<g>
</g>
<g>
</g>
<g>
</g>
<g>
</g>
</svg>
