<?xml version="1.0" encoding="iso-8859-1"?>
<!-- Generator: Adobe Illustrator 19.0.0, SVG Export Plug-In . SVG Version: 6.00 Build 0)  -->
<svg xmlns="http://www.w3.org/2000/svg" xmlns:xlink="http://www.w3.org/1999/xlink" version="1.1" id="Capa_1" x="0px" y="0px" viewBox="0 0 473.681 473.681" style="enable-background:new 0 0 473.681 473.681;" xml:space="preserve">
<path style="fill:#0B0B0B;" d="M49.011,92.64c-30.71,39.939-49.007,89.919-49.007,144.202c0,54.276,18.301,104.248,49.007,144.194  l144.202-144.202L49.011,92.64z"/>
<g>
	<path style="fill:#258F44;" d="M236.838,473.677c54.28,0,104.259-18.305,144.202-49.015l-73.546-73.535   C292.128,414.326,277.547,473.677,236.838,473.677z"/>
	<path style="fill:#258F44;" d="M227.351,473.479c-0.344-0.015-0.684-0.03-1.025-0.045   C226.67,473.449,227.011,473.464,227.351,473.479z"/>
	<path style="fill:#258F44;" d="M303.62,126.424l77.417-77.413C341.09,18.298,291.115,0,236.838,0   C277.547,0,288.254,63.214,303.62,126.424z"/>
	<path style="fill:#258F44;" d="M226.326,0.236c0.344-0.015,0.684-0.022,1.025-0.037C227.011,0.213,226.67,0.221,226.326,0.236z"/>
</g>
<path style="fill:#0B0B0B;" d="M424.67,92.64L314.528,202.778c2.879,34.352,3.953,34.83,1.073,69.19L424.67,381.036  c30.709-39.946,49.007-89.918,49.007-144.194C473.681,182.559,455.379,132.579,424.67,92.64z"/>
<g>
	<path style="fill:#F3C515;" d="M307.494,351.127l73.542,73.535c16.372-12.584,31.046-27.258,43.633-43.626L315.601,271.968   C313.376,298.508,313.156,327.848,307.494,351.127z"/>
	<path style="fill:#F3C515;" d="M322.942,194.364L424.67,92.644c-12.587-16.376-27.261-31.05-43.633-43.633l-72.742,72.738   C313.956,145.024,320.717,167.813,322.942,194.364z"/>
</g>
<g>
	<path style="fill:#FFFFFF;" d="M236.838,473.677c-3.179,0-6.339-0.075-9.484-0.198   C230.541,473.598,233.712,473.677,236.838,473.677z"/>
	<path style="fill:#FFFFFF;" d="M227.351,0.198C230.496,0.075,233.66,0,236.835,0C233.712,0,230.541,0.082,227.351,0.198z"/>
</g>
<g>
	<path style="fill:#339846;" d="M320.949,364.579l-84.107-84.111L92.644,424.67c37.343,28.712,83.475,46.569,133.682,48.768   c0.344,0.015,0.684,0.03,1.025,0.045c3.145,0.123,6.309,0.198,9.484,0.198C277.547,473.677,305.579,427.781,320.949,364.579z"/>
	<path style="fill:#339846;" d="M236.842,193.201l84.107-84.103C305.579,45.892,277.547,0,236.838,0   c-3.179,0-6.339,0.075-9.484,0.198c-0.344,0.015-0.684,0.022-1.025,0.037C176.118,2.43,129.99,20.29,92.643,49.007L236.842,193.201   z"/>
</g>
<path style="fill:#151515;" d="M332.766,289.129c2.879-34.359,2.879-70.233,0-104.592l-52.294,52.298L332.766,289.129z"/>
<path style="fill:#F8CD1B;" d="M236.842,193.201L92.644,49.007C76.272,61.591,61.598,76.265,49.011,92.64l144.202,144.194  L49.011,381.036c12.587,16.368,27.258,31.042,43.633,43.633l144.198-144.202l84.107,84.111c5.662-23.279,9.592-48.906,11.817-75.45  l-52.294-52.294l52.294-52.294c-2.225-26.543-6.155-52.171-11.817-75.442L236.842,193.201z"/>
<g>
</g>
<g>
</g>
<g>
</g>
<g>
</g>
<g>
</g>
<g>
</g>
<g>
</g>
<g>
</g>
<g>
</g>
<g>
</g>
<g>
</g>
<g>
</g>
<g>
</g>
<g>
</g>
<g>
</g>
</svg>
