<?xml version="1.0" encoding="iso-8859-1"?>
<!-- Generator: Adobe Illustrator 19.0.0, SVG Export Plug-In . SVG Version: 6.00 Build 0)  -->
<svg xmlns="http://www.w3.org/2000/svg" xmlns:xlink="http://www.w3.org/1999/xlink" version="1.1" id="Capa_1" x="0px" y="0px" viewBox="0 0 473.68 473.68" style="enable-background:new 0 0 473.68 473.68;" xml:space="preserve">
<circle style="fill:#FFFFFF;" cx="236.85" cy="236.85" r="236.83"/>
<g>
	<path style="fill:#F3F4F5;" d="M200.075,2.857C98.717,18.653,18.66,98.714,2.857,200.067h197.218V2.857z"/>
	<path style="fill:#F3F4F5;" d="M2.857,273.61c15.8,101.357,95.864,181.422,197.218,197.218V273.61H2.857z"/>
</g>
<g>
	<rect x="111.35" y="82.3" style="fill:#DA1E37;" width="20.231" height="80.4"/>
	<rect x="81.27" y="112.4" style="fill:#DA1E37;" width="80.4" height="20.239"/>
	<rect x="111.35" y="316.02" style="fill:#DA1E37;" width="20.231" height="80.4"/>
	<rect x="81.27" y="346.12" style="fill:#DA1E37;" width="80.4" height="20.239"/>
</g>
<g>
	<path style="fill:#E4E4E4;" d="M324.976,346.109h68.546v20.239H320.5c-10.209,41.12-25.833,74.691-46.883,92.768v11.709   c101.35-15.807,181.407-95.864,197.203-197.21H323.092C321.633,298.736,329.449,323.282,324.976,346.109z"/>
	<path style="fill:#E4E4E4;" d="M321.719,112.385h71.804v20.239h-67.589c3.93,21.387-1.387,44.168-0.037,67.443H470.82   C455.02,98.717,374.963,18.66,273.617,2.857v11.709C295.52,33.387,311.555,68.969,321.719,112.385z"/>
</g>
<g>
	<path style="fill:#CF2028;" d="M221.424,473.138c-1.754-0.108-3.511-0.239-5.265-0.389   C217.905,472.903,219.663,473.026,221.424,473.138z"/>
	<path style="fill:#CF2028;" d="M216.159,0.935c1.754-0.146,3.511-0.284,5.265-0.393C219.663,0.658,217.905,0.782,216.159,0.935z"/>
	<path style="fill:#CF2028;" d="M225.99,0.277C229.614,0.116,233.23,0,236.835,0C233.196,0,229.591,0.108,225.99,0.277z"/>
	<path style="fill:#CF2028;" d="M470.82,200.067H325.896c1.41,24.345,1.41,49.205,0,73.542H470.82   c1.87-11.978,2.857-24.255,2.857-36.767S472.69,212.053,470.82,200.067z"/>
	<path style="fill:#CF2028;" d="M236.835,473.677c12.513,0,24.797-0.987,36.782-2.857v-11.709   C262.787,468.426,250.536,473.677,236.835,473.677z"/>
	<path style="fill:#CF2028;" d="M273.617,2.857C261.632,0.987,249.347,0,236.835,0c13.702,0,25.949,5.258,36.782,14.566V2.857z"/>
	<path style="fill:#CF2028;" d="M236.835,473.677c-3.609,0-7.225-0.108-10.845-0.269   C229.591,473.576,233.196,473.677,236.835,473.677z"/>
	<path style="fill:#CF2028;" d="M393.523,132.624v-20.239H318.26c1.541,6.582,2.943,13.335,4.214,20.239H393.523z"/>
	<path style="fill:#CF2028;" d="M393.523,366.347v-20.239h-71.987c-1.35,6.926-2.85,13.672-4.476,20.239H393.523z"/>
</g>
<g>
	<path style="fill:#FFFFFF;" d="M221.424,0.542c1.518-0.093,3.04-0.198,4.566-0.262C224.468,0.344,222.95,0.445,221.424,0.542z"/>
	<path style="fill:#FFFFFF;" d="M225.99,473.408c-1.526-0.067-3.044-0.168-4.566-0.269   C222.95,473.232,224.468,473.34,225.99,473.408z"/>
</g>
<g>
	<path style="fill:#F3F4F5;" d="M273.617,459.115c21.05-18.077,36.674-51.647,46.883-92.768h-7.378v-20.239h11.854   c4.469-22.826,7.419-47.373,8.882-72.499h-60.241V459.115z"/>
	<path style="fill:#F3F4F5;" d="M313.122,132.624v-20.239h8.597c-10.168-43.413-26.199-78.998-48.102-97.82v185.502h60.241   c-1.35-23.279-3.994-46.057-7.924-67.443H313.122z"/>
</g>
<g>
	<path style="fill:#DA1E37;" d="M273.617,273.61h60.241c1.41-24.337,1.41-49.198,0-73.542h-60.241V14.566   C262.787,5.262,250.536,0,236.835,0c-3.609,0-7.225,0.116-10.845,0.277c-1.526,0.067-3.044,0.168-4.566,0.262   c-1.754,0.108-3.511,0.247-5.265,0.393c-5.411,0.475-10.781,1.096-16.084,1.922v197.21H2.857C0.987,212.049,0,224.326,0,236.838   s0.987,24.79,2.857,36.768h197.218v197.218c5.303,0.826,10.673,1.447,16.084,1.922c1.754,0.146,3.511,0.277,5.265,0.389   c1.518,0.101,3.04,0.206,4.566,0.269c3.624,0.161,7.24,0.269,10.845,0.269c13.702,0,25.949-5.25,36.782-14.566V273.61z"/>
	<path style="fill:#DA1E37;" d="M313.122,132.624h12.812c-1.271-6.903-2.674-13.657-4.214-20.239h-8.597v20.239H313.122z"/>
	<path style="fill:#DA1E37;" d="M313.122,366.347h7.378c1.63-6.567,3.126-13.317,4.476-20.239h-11.854V366.347z"/>
</g>
<g>
	<rect x="343.21" y="316.02" style="fill:#CF2028;" width="20.231" height="80.4"/>
	<rect x="343.21" y="82.3" style="fill:#CF2028;" width="20.231" height="80.4"/>
</g>
<g>
</g>
<g>
</g>
<g>
</g>
<g>
</g>
<g>
</g>
<g>
</g>
<g>
</g>
<g>
</g>
<g>
</g>
<g>
</g>
<g>
</g>
<g>
</g>
<g>
</g>
<g>
</g>
<g>
</g>
</svg>
