<?xml version="1.0" encoding="iso-8859-1"?>
<!-- Generator: Adobe Illustrator 19.0.0, SVG Export Plug-In . SVG Version: 6.00 Build 0)  -->
<svg xmlns="http://www.w3.org/2000/svg" xmlns:xlink="http://www.w3.org/1999/xlink" version="1.1" id="Capa_1" x="0px" y="0px" viewBox="0 0 473.677 473.677" style="enable-background:new 0 0 473.677 473.677;" xml:space="preserve">
<path style="fill:#F3C515;" d="M306.148,236.842h167.529C473.677,106.032,367.641,0,236.835,0  C302.236,0,306.148,118.417,306.148,236.842z"/>
<path style="fill:#D02027;" d="M290.632,236.842c0,118.417-53.798,236.835-53.798,236.835  c130.807,0,236.842-106.036,236.842-236.835H290.632L290.632,236.842z"/>
<path style="fill:#F8D12E;" d="M61.83,236.842h273.105C334.935,118.417,302.236,0,236.835,0C106.036,0,61.83,106.032,61.83,236.842z  "/>
<path style="fill:#DB2727;" d="M334.935,236.842H66.819c0,130.799,39.217,236.835,170.016,236.835  C302.236,473.677,334.935,355.259,334.935,236.842z"/>
<path style="fill:#359846;" d="M177.192,7.58C75.266,34.023,0,126.633,0,236.842c0,110.194,75.27,202.805,177.196,229.255  L177.192,7.58L177.192,7.58z"/>
<g>
</g>
<g>
</g>
<g>
</g>
<g>
</g>
<g>
</g>
<g>
</g>
<g>
</g>
<g>
</g>
<g>
</g>
<g>
</g>
<g>
</g>
<g>
</g>
<g>
</g>
<g>
</g>
<g>
</g>
</svg>
