<?xml version="1.0" encoding="iso-8859-1"?>
<!-- Generator: Adobe Illustrator 19.0.0, SVG Export Plug-In . SVG Version: 6.00 Build 0)  -->
<svg xmlns="http://www.w3.org/2000/svg" xmlns:xlink="http://www.w3.org/1999/xlink" version="1.1" id="Capa_1" x="0px" y="0px" viewBox="0 0 473.681 473.681" style="enable-background:new 0 0 473.681 473.681;" xml:space="preserve">
<path style="fill:#FBD015;" d="M305.456,226.706h167.967C468.105,100.604,364.238,0.002,236.835,0.002  C300.37,0.002,303.642,111.759,305.456,226.706z"/>
<path style="fill:#21428C;" d="M305.456,351.039h138.888c18.679-33.869,29.337-72.783,29.337-114.195  c0-3.396-0.112-6.772-0.254-10.138h-157.1C317.004,269.595,313.369,312.899,305.456,351.039z"/>
<g>
	<path style="fill:#CD202A;" d="M229.258,473.548c-0.606-0.015-1.215-0.045-1.821-0.067   C228.039,473.503,228.649,473.533,229.258,473.548z"/>
	<path style="fill:#CD202A;" d="M236.835,473.679c89.387,0,167.185-49.534,207.505-122.639H300.467   C285.92,421.119,280.397,473.679,236.835,473.679z"/>
</g>
<path style="fill:#FFFFFF;" d="M236.835,473.679c-2.539,0-5.063-0.052-7.576-0.131C231.786,473.626,234.314,473.679,236.835,473.679  z"/>
<path style="fill:#FCD73E;" d="M0.254,226.706h334.595C333.039,111.759,300.37,0.002,236.835,0.002  C109.439,0.002,5.572,100.604,0.254,226.706z"/>
<path style="fill:#1D4F95;" d="M334.849,226.706H0.254C0.112,230.072,0,233.449,0,236.844c0,41.412,10.658,80.326,29.337,114.195  h294.645C331.895,312.899,335.53,269.595,334.849,226.706z"/>
<path style="fill:#D11F3E;" d="M227.433,473.48c0.606,0.022,1.215,0.052,1.821,0.067c2.517,0.079,5.041,0.131,7.576,0.131  c43.562,0,72.596-52.56,87.143-122.639H29.333C68.236,421.564,142.022,470.145,227.433,473.48z"/>
<g>
</g>
<g>
</g>
<g>
</g>
<g>
</g>
<g>
</g>
<g>
</g>
<g>
</g>
<g>
</g>
<g>
</g>
<g>
</g>
<g>
</g>
<g>
</g>
<g>
</g>
<g>
</g>
<g>
</g>
</svg>
