<?xml version="1.0" encoding="iso-8859-1"?>
<!-- Generator: Adobe Illustrator 19.0.0, SVG Export Plug-In . SVG Version: 6.00 Build 0)  -->
<svg xmlns="http://www.w3.org/2000/svg" xmlns:xlink="http://www.w3.org/1999/xlink" version="1.1" id="Capa_1" x="0px" y="0px" viewBox="0 0 475.584 475.584" style="enable-background:new 0 0 475.584 475.584;" xml:space="preserve">
<path style="fill:#F3F4F5;" d="M0.002,237.794c0,86.123,45.787,161.549,114.346,203.278V34.516  C45.789,76.237,0.002,151.667,0.002,237.794z"/>
<g>
	<path style="fill:#036535;" d="M237.788,0c0,0,88.293,324.011,91.939,327.657c24.044-2.155,47.586-12.011,66.603-29.759   c15.27-14.256,25.666-31.79,31.144-50.473c-1.393,34.546-15.844,68.582-43.118,94.034c-18.72,17.474-41.068,28.636-64.421,33.6   L237.788,475.58c131.332,0,237.794-106.462,237.794-237.786C475.582,106.454,369.121,0,237.788,0z"/>
	<path style="fill:#036535;" d="M230.091,475.449c-0.571-0.015-1.149-0.045-1.72-0.068   C228.946,475.408,229.517,475.434,230.091,475.449z"/>
	<path style="fill:#036535;" d="M228.372,0.199c0.571-0.023,1.149-0.045,1.72-0.06C229.517,0.154,228.946,0.176,228.372,0.199z"/>
</g>
<path style="fill:#F3F4F5;" d="M384.357,341.458c27.277-25.452,41.725-59.488,43.118-94.034  c-5.478,18.687-15.874,36.217-31.144,50.473c-19.017,17.748-42.558,27.604-66.603,29.759c-2.534,16.618-5.79,32.56-9.792,47.402  C343.289,370.095,365.636,358.932,384.357,341.458z"/>
<g>
	<path style="fill:#263778;" d="M230.091,0.139C232.648,0.06,235.213,0,237.788,0C235.235,0,232.671,0.06,230.091,0.139z"/>
	<path style="fill:#263778;" d="M237.788,475.58c-2.576,0-5.14-0.053-7.697-0.131C232.671,475.532,235.235,475.58,237.788,475.58z"/>
</g>
<path style="fill:#0C723E;" d="M319.935,375.058c-45.183,9.608-94.143-4.017-127.953-40.253  c-51.292-54.96-48.318-141.083,6.638-192.371c27.273-25.456,62.221-37.527,96.775-36.536c-19.021,4.171-37.223,13.333-52.497,27.589  c-45.401,42.371-47.856,113.524-5.485,158.925c24.619,26.376,58.955,38.229,92.314,35.244C351.008,188.053,320.375,0,237.788,0  c-2.576,0-5.14,0.06-7.697,0.139c-0.571,0.015-1.149,0.038-1.72,0.06c-41.646,1.626-80.551,13.948-114.023,34.317v406.556  c33.472,20.365,72.374,32.691,114.023,34.313c0.571,0.022,1.149,0.053,1.72,0.068c2.557,0.079,5.121,0.131,7.697,0.131  C276.701,475.58,304.083,433.825,319.935,375.058z"/>
<g>
	<path style="fill:#F3F4F5;" d="M237.417,292.412c-42.371-45.401-39.915-116.554,5.485-158.925   c15.274-14.256,33.476-23.417,52.497-27.589c-34.554-0.991-69.505,11.08-96.775,36.536c-54.96,51.288-57.934,137.411-6.642,192.371   c33.81,36.232,82.77,49.857,127.953,40.253c4.002-14.842,7.261-30.784,9.792-47.402   C296.371,330.641,262.032,318.792,237.417,292.412z"/>
	<polygon style="fill:#F3F4F5;" points="354.414,137.287 374.009,159.653 401.343,147.928 386.118,173.478 405.72,195.851    376.712,189.273 361.491,214.82 358.78,185.211 329.784,178.625 357.117,166.9  "/>
</g>
<g>
</g>
<g>
</g>
<g>
</g>
<g>
</g>
<g>
</g>
<g>
</g>
<g>
</g>
<g>
</g>
<g>
</g>
<g>
</g>
<g>
</g>
<g>
</g>
<g>
</g>
<g>
</g>
<g>
</g>
</svg>
