<?xml version="1.0" encoding="iso-8859-1"?>
<!-- Generator: Adobe Illustrator 19.0.0, SVG Export Plug-In . SVG Version: 6.00 Build 0)  -->
<svg xmlns="http://www.w3.org/2000/svg" xmlns:xlink="http://www.w3.org/1999/xlink" version="1.1" id="Capa_1" x="0px" y="0px" viewBox="0 0 473.68 473.68" style="enable-background:new 0 0 473.68 473.68;" xml:space="preserve">
<circle style="fill:#FFFFFF;" cx="236.85" cy="236.85" r="236.83"/>
<path style="fill:#C42B27;" d="M460.14,157.874c-0.026-0.075-0.049-0.138-0.075-0.206C429.752,72.2,351.785,9.319,258.105,0.972  c36.248,19.872,36.401,451.774,0,471.728c93.848-8.362,171.927-71.46,202.12-157.156c0.078-0.228,0.146-0.453,0.228-0.673  c8.526-24.438,13.219-50.682,13.219-78.026C473.677,209.139,468.875,182.573,460.14,157.874z"/>
<path style="fill:#CC3434;" d="M326.412,157.874c-9.274-74.07-32.056-137.029-68.303-156.901c-6.739-0.598-13.548-0.927-20.433-0.95  v473.632c6.885-0.03,13.694-0.359,20.433-0.957c36.401-19.954,59.227-83.359,68.423-157.829  C332.788,264.208,332.747,208.466,326.412,157.874z"/>
<path style="fill:#E9E9EA;" d="M236.835,0C133.806,0,46.187,65.802,13.608,157.668c-0.026,0.067-0.049,0.131-0.075,0.206  C4.798,182.573,0,209.139,0,236.842c0,27.348,4.693,53.588,13.219,78.026c0.079,0.221,0.15,0.445,0.228,0.673  c32.452,92.102,120.19,158.135,223.387,158.135c0.28,0,0.557-0.022,0.845-0.022V0.022C237.392,0.015,237.115,0,236.835,0z"/>
<g>
</g>
<g>
</g>
<g>
</g>
<g>
</g>
<g>
</g>
<g>
</g>
<g>
</g>
<g>
</g>
<g>
</g>
<g>
</g>
<g>
</g>
<g>
</g>
<g>
</g>
<g>
</g>
<g>
</g>
</svg>
