<?xml version="1.0" encoding="iso-8859-1"?>
<!-- Generator: Adobe Illustrator 19.0.0, SVG Export Plug-In . SVG Version: 6.00 Build 0)  -->
<svg xmlns="http://www.w3.org/2000/svg" xmlns:xlink="http://www.w3.org/1999/xlink" version="1.1" id="Capa_1" x="0px" y="0px" viewBox="0 0 473.773 473.773" style="enable-background:new 0 0 473.773 473.773;" xml:space="preserve">
<circle style="fill:#FFFFFF;" cx="236.94" cy="236.898" r="236.83"/>
<path style="fill:#E4E4E4;" d="M460.244,157.918H314.317c6.331,50.593,6.376,106.339,0.116,156.996h146.121  c8.523-24.438,13.219-50.683,13.219-78.027C473.778,209.185,468.98,182.618,460.244,157.918z"/>
<path style="fill:#0B0B0B;" d="M314.317,157.918H460.24c-0.03-0.075-0.052-0.138-0.075-0.206  C429.848,72.243,351.885,9.361,258.204,1.014C294.46,20.887,305.043,83.846,314.317,157.918z"/>
<path style="fill:#086936;" d="M258.208,472.743c93.849-8.362,171.928-71.46,202.122-157.157c0.075-0.228,0.146-0.453,0.228-0.673  H314.433C305.237,389.384,294.613,452.789,258.208,472.743z"/>
<path style="fill:#F3F4F5;" d="M0.097,236.888c0,27.348,4.689,53.588,13.219,78.027h313.315  c6.253-50.66,6.215-106.403-0.123-156.996H13.631C4.895,182.618,0.097,209.185,0.097,236.888z"/>
<path style="fill:#151515;" d="M13.702,157.713c-0.03,0.067-0.052,0.131-0.075,0.206h312.877  c-9.27-74.07-32.048-137.03-68.3-156.902c-7.012-0.621-14.102-0.972-21.275-0.972C133.904,0.042,46.278,65.844,13.702,157.713z"/>
<path style="fill:#0C763C;" d="M326.632,314.913H13.317c0.079,0.221,0.146,0.445,0.228,0.673  c32.452,92.103,120.187,158.136,223.389,158.136c7.173,0,14.263-0.352,21.275-0.98C294.613,452.789,317.436,389.384,326.632,314.913  z"/>
<path style="fill:#CD2029;" d="M236.836,237.407L28.208,125.21H28.2C10.209,158.605,0,196.81,0,237.407  c0,40.253,10.063,78.139,27.785,111.328l209.051-111.291"/>
<path style="fill:#FFFFFF;" d="M62.896,263.977c4.873-4.229,9.618-8.582,14.199-13.104c5.041,3.818,9.884,9.779,14.566,12.737  c-0.067-6.604-1.133-12.221-1.096-18.934c6.107-1.171,12.415-2.147,18.934-2.906c-4.63-4.353-10.62-7.341-15.654-11.286  c2.857-5.886,6.17-11.305,9.465-16.75c-5.778,0.651-12.232,3.777-18.567,5.09c-2.812-5.565-4.85-11.899-7.281-17.838  c-2.879,5.501-4.88,11.869-7.281,17.838c-6.713-1.41-12.445-3.814-18.934-5.456c3.235,5.624,6.253,11.466,9.831,16.742  c-5.034,4.192-11.249,7.202-16.017,11.656c6.484,0.546,12.045,2.031,18.567,2.55C64.56,250.612,62.765,257.279,62.896,263.977z"/>
<g>
</g>
<g>
</g>
<g>
</g>
<g>
</g>
<g>
</g>
<g>
</g>
<g>
</g>
<g>
</g>
<g>
</g>
<g>
</g>
<g>
</g>
<g>
</g>
<g>
</g>
<g>
</g>
<g>
</g>
</svg>
