<?xml version="1.0" encoding="iso-8859-1"?>
<!-- Generator: Adobe Illustrator 19.0.0, SVG Export Plug-In . SVG Version: 6.00 Build 0)  -->
<svg xmlns="http://www.w3.org/2000/svg" xmlns:xlink="http://www.w3.org/1999/xlink" version="1.1" id="Capa_1" x="0px" y="0px" viewBox="0 0 473.68 473.68" style="enable-background:new 0 0 473.68 473.68;" xml:space="preserve">
<g>
	<circle style="fill:#FFFFFF;" cx="236.84" cy="236.85" r="236.83"/>
	<path style="fill:#FFFFFF;" d="M236.823,0c-1.709,0-3.44,0.03-5.164,0.067c1.862-0.037,3.732-0.045,5.602-0.037   C237.115,0.03,236.969,0,236.823,0z"/>
</g>
<path style="fill:#D02027;" d="M238.035,473.613c24.263-0.131,48.514-3.953,71.819-11.488l-36.424-36.431  C259.523,445.435,258.289,473.153,238.035,473.613z"/>
<path style="fill:#DB2727;" d="M289.279,441.542L11.55,163.813c-26.484,81.935-7.262,175.432,57.803,240.501  c46.562,46.554,107.667,69.628,168.682,69.299C258.289,473.153,275.375,461.287,289.279,441.542z"/>
<g>
	<path style="fill:#D02027;" d="M404.294,69.373C358.162,23.234,297.73,0.131,237.261,0.03c53.02,0.43,63.88,78.846,73.726,171.767   l152.95,132.382C487.743,223.639,467.86,132.932,404.294,69.373z"/>
	<path style="fill:#D02027;" d="M231.143,0.075c0.168,0,0.344,0,0.52-0.007C231.483,0.075,231.307,0.075,231.143,0.075z"/>
</g>
<path style="fill:#DB2727;" d="M331.555,171.797C321.716,78.876,290.281,0.46,237.261,0.03c-1.87-0.007-3.74,0-5.602,0.037  c-0.176,0.007-0.352,0.007-0.52,0.007c-20.796,0.497-41.536,3.717-61.644,9.663L331.555,171.797z"/>
<path style="fill:#E4E4E4;" d="M289.279,441.542l20.575,20.583c7.771-2.513,15.441-5.426,22.965-8.766l-31.794-31.794  C297.401,428.88,293.486,435.57,289.279,441.542z"/>
<path style="fill:#FFFFFF;" d="M11.55,163.813l277.733,277.733c4.207-5.976,8.122-12.666,11.746-19.977L20.315,140.848  C16.976,148.38,14.063,156.05,11.55,163.813z"/>
<path style="fill:#E4E4E4;" d="M334.176,206.146L455.62,327.597c3.186-7.692,5.983-15.501,8.321-23.417L331.559,171.797  C332.752,183.072,333.615,194.56,334.176,206.146z"/>
<path style="fill:#FFFFFF;" d="M146.078,18.047l188.098,188.098c-0.561-11.585-1.425-23.073-2.621-34.352L169.496,9.738  C161.579,12.075,153.763,14.865,146.078,18.047z"/>
<path style="fill:#0B0B0B;" d="M280.565,401.102l52.253,52.261c25.923-11.488,50.23-27.793,71.475-49.045  c22.684-22.677,39.771-48.828,51.326-76.722L313.713,185.679C317.531,264.943,306.488,348.826,280.565,401.102z"/>
<path style="fill:#151515;" d="M69.353,69.373c-21.248,21.256-37.549,45.556-49.037,71.475l280.709,280.717  c25.923-52.276,36.973-136.159,33.152-215.42L146.078,18.047C118.184,29.61,92.037,46.693,69.353,69.373z"/>
<g>
</g>
<g>
</g>
<g>
</g>
<g>
</g>
<g>
</g>
<g>
</g>
<g>
</g>
<g>
</g>
<g>
</g>
<g>
</g>
<g>
</g>
<g>
</g>
<g>
</g>
<g>
</g>
<g>
</g>
</svg>
