<?xml version="1.0" encoding="iso-8859-1"?>
<!-- Generator: Adobe Illustrator 19.0.0, SVG Export Plug-In . SVG Version: 6.00 Build 0)  -->
<svg xmlns="http://www.w3.org/2000/svg" xmlns:xlink="http://www.w3.org/1999/xlink" version="1.1" id="Capa_1" x="0px" y="0px" viewBox="0 0 473.677 473.677" style="enable-background:new 0 0 473.677 473.677;" xml:space="preserve">
<path style="fill:#518D51;" d="M315.796,13.534l-27.639,76.624c25.511,84.2,25.511,209.162,0,293.358l27.639,76.624  c91.979-32.523,157.881-120.201,157.881-223.309C473.677,133.735,407.774,46.057,315.796,13.534z"/>
<g>
	<path style="fill:#F3C515;" d="M315.796,90.157V13.534C291.096,4.798,264.53,0,236.835,0C273.355,0,222.718,123.772,315.796,90.157   z"/>
	<path style="fill:#F3C515;" d="M236.835,473.677c27.695,0,54.261-4.798,78.961-13.534v-76.624   C223.653,374.324,236.835,473.677,236.835,473.677z"/>
</g>
<path style="fill:#DB2727;" d="M0,236.835c0,103.452,66.355,191.361,158.801,223.623V13.219C66.355,45.481,0,133.391,0,236.835z"/>
<path style="fill:#5FA15E;" d="M315.796,90.157v293.358C341.311,299.319,341.311,174.358,315.796,90.157z"/>
<path style="fill:#F8D12E;" d="M315.796,383.519V90.157C299.671,36.936,273.355,0,236.835,0c-27.351,0-53.588,4.697-78.034,13.219  v447.238c24.446,8.53,50.682,13.219,78.034,13.219C273.355,473.677,299.671,436.741,315.796,383.519z"/>
<g>
</g>
<g>
</g>
<g>
</g>
<g>
</g>
<g>
</g>
<g>
</g>
<g>
</g>
<g>
</g>
<g>
</g>
<g>
</g>
<g>
</g>
<g>
</g>
<g>
</g>
<g>
</g>
<g>
</g>
</svg>
