<?xml version="1.0" encoding="iso-8859-1"?>
<!-- Generator: Adobe Illustrator 19.0.0, SVG Export Plug-In . SVG Version: 6.00 Build 0)  -->
<svg xmlns="http://www.w3.org/2000/svg" xmlns:xlink="http://www.w3.org/1999/xlink" version="1.1" id="Capa_1" x="0px" y="0px" viewBox="0 0 473.684 473.684" style="enable-background:new 0 0 473.684 473.684;" xml:space="preserve">
<circle style="fill:#FFFFFF;" cx="236.85" cy="236.85" r="236.83"/>
<path style="fill:#338BC1;" d="M460.147,157.877c-0.022-0.067-0.045-0.138-0.075-0.206C429.762,72.202,351.792,9.321,258.115,0.974  c36.248,19.872,46.839,82.832,56.109,156.902c6.339,50.593,6.376,106.339,0.123,156.996c-9.196,74.478-19.831,137.875-56.232,157.83  c93.849-8.362,171.928-71.46,202.122-157.157c0.079-0.228,0.146-0.452,0.228-0.673c8.53-24.438,13.219-50.683,13.219-78.027  C473.68,209.143,468.882,182.577,460.147,157.877z"/>
<path style="fill:#3D91CF;" d="M326.419,157.877c-9.274-74.07-32.056-137.03-68.308-156.902c-7.012-0.621-14.102-0.973-21.275-0.973  c-103.029,0-190.644,65.802-223.228,157.669c-0.022,0.067-0.045,0.138-0.075,0.206C4.798,182.577,0,209.143,0,236.846  c0,27.348,4.697,53.589,13.219,78.027c0.079,0.221,0.153,0.445,0.228,0.673C45.9,407.648,133.642,473.682,236.836,473.682  c7.173,0,14.263-0.352,21.275-0.98c36.401-19.954,59.228-83.352,68.423-157.83C332.795,264.212,332.753,208.47,326.419,157.877z"/>
<polygon style="fill:#FAF9FB;" points="234.72,115.462 262.853,202.049 353.912,202.049 280.246,255.559 308.379,342.161   234.72,288.647 161.057,342.161 189.194,255.559 115.535,202.049 206.583,202.049 "/>
<g>
</g>
<g>
</g>
<g>
</g>
<g>
</g>
<g>
</g>
<g>
</g>
<g>
</g>
<g>
</g>
<g>
</g>
<g>
</g>
<g>
</g>
<g>
</g>
<g>
</g>
<g>
</g>
<g>
</g>
</svg>
