<?xml version="1.0" encoding="iso-8859-1"?>
<!-- Generator: Adobe Illustrator 19.0.0, SVG Export Plug-In . SVG Version: 6.00 Build 0)  -->
<svg xmlns="http://www.w3.org/2000/svg" xmlns:xlink="http://www.w3.org/1999/xlink" version="1.1" id="Capa_1" x="0px" y="0px" viewBox="0 0 473.68 473.68" style="enable-background:new 0 0 473.68 473.68;" xml:space="preserve">
<circle style="fill:#FFFFFF;" cx="236.85" cy="236.85" r="236.83"/>
<path style="fill:#E4E4E4;" d="M460.143,157.874H314.218c6.335,50.593,6.376,106.339,0.12,156.995h146.116  c8.526-24.438,13.219-50.682,13.219-78.026C473.677,209.139,468.879,182.573,460.143,157.874z"/>
<g>
	<path style="fill:#66A4D2;" d="M314.218,157.874H460.14c-0.026-0.075-0.049-0.138-0.075-0.206   C429.752,72.2,351.785,9.319,258.105,0.972C294.361,20.844,304.947,83.804,314.218,157.874z"/>
	<path style="fill:#66A4D2;" d="M258.113,472.697c93.848-8.362,171.927-71.46,202.12-157.156c0.079-0.228,0.146-0.453,0.228-0.673   h-146.12C305.145,389.338,294.514,452.743,258.113,472.697z"/>
</g>
<path style="fill:#F3F4F5;" d="M0,236.842c0,27.348,4.693,53.588,13.219,78.026h313.313c6.256-50.66,6.215-106.402-0.12-156.995  H13.534C4.798,182.573,0,209.139,0,236.842z"/>
<g>
	<path style="fill:#75ABDC;" d="M13.608,157.668c-0.026,0.067-0.049,0.131-0.075,0.206h312.879   c-9.27-74.07-32.052-137.029-68.303-156.901C251.097,0.352,244.007,0,236.835,0C133.806,0,46.187,65.802,13.608,157.668z"/>
	<path style="fill:#75ABDC;" d="M326.532,314.868H13.219c0.079,0.221,0.15,0.445,0.228,0.673   c32.452,92.102,120.19,158.135,223.387,158.135c7.173,0,14.263-0.352,21.274-0.98C294.514,452.743,317.336,389.338,326.532,314.868   z"/>
</g>
<g>
</g>
<g>
</g>
<g>
</g>
<g>
</g>
<g>
</g>
<g>
</g>
<g>
</g>
<g>
</g>
<g>
</g>
<g>
</g>
<g>
</g>
<g>
</g>
<g>
</g>
<g>
</g>
<g>
</g>
</svg>
