<?xml version="1.0" encoding="iso-8859-1"?>
<!-- Generator: Adobe Illustrator 19.0.0, SVG Export Plug-In . SVG Version: 6.00 Build 0)  -->
<svg xmlns="http://www.w3.org/2000/svg" xmlns:xlink="http://www.w3.org/1999/xlink" version="1.1" id="Capa_1" x="0px" y="0px" viewBox="0 0 473.681 473.681" style="enable-background:new 0 0 473.681 473.681;" xml:space="preserve">
<g>
	<path style="fill:#DB2727;" d="M189.348,249.306h-45.597L1.427,262.638c2.797,25.796,9.757,50.338,20.16,72.974l128.787-62.623   L189.348,249.306z"/>
	<path style="fill:#DB2727;" d="M223.565,259.657l-59.373,36.072L49.177,381.25c34.254,44.452,83.912,76.414,141.023,87.813   l33.364-184.757v-24.649L223.565,259.657L223.565,259.657z"/>
	<path style="fill:#DB2727;" d="M223.565,212.34v-24.651L190.496,4.57C133.729,15.833,84.307,47.399,50.022,91.369l114.173,84.9   L223.565,212.34z"/>
	<path style="fill:#DB2727;" d="M189.34,222.692l-38.966-23.672L22.215,136.704C11.692,159.22,4.613,183.669,1.64,209.379   l142.111,13.317h45.589V222.692z"/>
</g>
<g>
	<path style="fill:#FDE73D;" d="M189.348,249.306l21.895-13.309l-21.903-13.309h-45.589L1.64,209.375   c-1.043,9.02-1.638,18.171-1.638,27.471c0,8.721,0.505,17.318,1.425,25.788l142.324-13.328H189.348L189.348,249.306z"/>
	<path style="fill:#FDE73D;" d="M223.565,259.657v-10.351h-34.217l-38.974,23.679L21.587,335.608   c7.494,16.293,16.761,31.588,27.594,45.642l115.014-85.52L223.565,259.657z"/>
</g>
<g>
	<polygon style="fill:#FDE500;" points="223.565,249.306 223.565,259.657 236.874,251.572 233.149,249.306  "/>
	<polygon style="fill:#FDE500;" points="250.179,222.692 250.179,212.34 236.874,220.425 240.599,222.692  "/>
	<polygon style="fill:#FDE500;" points="262.501,235.997 284.415,222.692 250.179,222.692 250.179,228.514  "/>
	<polygon style="fill:#FDE500;" points="211.243,235.997 189.348,249.306 223.565,249.306 223.565,243.484  "/>
	<polygon style="fill:#FDE500;" points="250.179,228.514 250.179,222.692 240.599,222.692  "/>
	<polygon style="fill:#FDE500;" points="223.565,243.484 223.565,249.306 233.149,249.306  "/>
</g>
<path style="fill:#FDE73D;" d="M189.34,222.692h34.225V212.34l-59.373-36.072l-114.173-84.9  c-10.882,13.949-20.239,29.135-27.807,45.335L150.37,199.02L189.34,222.692z"/>
<g>
	<polygon style="fill:#FDE500;" points="236.874,251.572 250.179,259.657 250.179,249.306 240.606,249.306  "/>
	<polygon style="fill:#FDE500;" points="236.874,220.425 223.565,212.34 223.565,222.692 233.149,222.692  "/>
	<polygon style="fill:#FDE500;" points="250.179,243.484 250.179,249.306 284.4,249.306 262.501,235.997  "/>
	<polygon style="fill:#FDE500;" points="223.565,222.692 189.34,222.692 211.243,235.997 223.565,228.514  "/>
	<polygon style="fill:#FDE500;" points="240.606,249.306 250.179,249.306 250.179,243.484  "/>
	<polygon style="fill:#FDE500;" points="233.149,222.692 223.565,222.692 223.565,228.514  "/>
	<polygon style="fill:#FDE500;" points="233.149,249.306 236.874,251.572 240.606,249.306  "/>
	<polygon style="fill:#FDE500;" points="240.599,222.692 236.874,220.425 233.149,222.692  "/>
	<polygon style="fill:#FDE500;" points="250.179,243.484 262.501,235.997 250.179,228.514  "/>
	<polygon style="fill:#FDE500;" points="223.565,228.514 211.243,235.997 223.565,243.484  "/>
	<polygon style="fill:#FDE500;" points="240.599,222.692 233.149,222.692 223.565,228.514 223.565,243.484 233.149,249.306    240.606,249.306 250.179,243.484 250.179,228.514  "/>
</g>
<g>
	<path style="fill:#CD2027;" d="M332.241,222.295l139.804-12.913c-2.965-25.702-10.037-50.14-20.56-72.66l-121.114,59.082   C330.999,205.119,332.027,212.86,332.241,222.295z"/>
	<path style="fill:#CD2027;" d="M326.01,164.018l97.681-72.623c-34.277-43.959-83.68-75.536-140.44-86.81l-3.366,19.823   C305.697,52.16,318.486,104.345,326.01,164.018z"/>
	<path style="fill:#CD2027;" d="M331.62,276.826l120.493,58.752c10.392-22.628,17.355-47.152,20.145-72.952l-140.013-12.913   C332.05,259.167,332.226,267.492,331.62,276.826z"/>
	<path style="fill:#CD2027;" d="M280.552,452.432l3.003,16.622c57.088-11.424,106.731-43.387,140.978-87.835l-99.151-73.849   C317.982,367.484,306.441,424.374,280.552,452.432z"/>
</g>
<g>
	<path style="fill:#FDE500;" d="M236.837,473.681c15.994,0,31.611-1.608,46.715-4.622l-3.979-22.385   C267.135,460.155,253.549,473.681,236.837,473.681z"/>
	<path style="fill:#FDE500;" d="M279.887,24.404l3.366-19.823C268.241,1.593,252.73,0,236.837,0   C253.433,0.004,267.497,11.099,279.887,24.404z"/>
	<path style="fill:#FDE500;" d="M472.045,209.382l-139.804,12.913c0.213,9.158-1.058,17.946-1.249,27.112l141.262,13.219   c0.92-8.474,1.425-17.064,1.425-25.784C473.679,227.557,473.088,218.402,472.045,209.382z"/>
	<path style="fill:#FDE500;" d="M330.371,195.804l121.114-59.082c-7.565-16.192-16.914-31.379-27.793-45.327l-96.126,71.688   C328.931,173.969,329.604,184.552,330.371,195.804z"/>
	<path style="fill:#FDE500;" d="M327.252,308.926l97.281,72.293c10.826-14.053,20.093-29.348,27.579-45.642L331.62,276.826   C330.883,288.104,328.594,298.014,327.252,308.926z"/>
</g>
<g>
	<path style="fill:#DB2727;" d="M323.374,199.02l-38.959,23.671h45.589l4.749-0.445c-0.213-9.435-0.628-18.836-1.256-28.148   L323.374,199.02z"/>
	<path style="fill:#DB2727;" d="M330.303,160.843c-7.524-59.672-24.199-112.12-50.009-139.875l-30.115,166.725v24.651l59.373-36.076   L330.303,160.843z"/>
	<path style="fill:#DB2727;" d="M284.4,249.306l38.974,23.679l10.224,4.966c0.606-9.334,1.01-18.75,1.197-28.2l-4.79-0.445   L284.4,249.306L284.4,249.306z"/>
	<path style="fill:#DB2727;" d="M250.179,259.657v24.651l30.369,168.127c25.893-28.062,42.53-81.029,49.938-141.139l-20.934-15.568   L250.179,259.657z"/>
</g>
<g>
	<path style="fill:#FDE73D;" d="M280.552,452.432l-30.369-168.128v-24.651l-13.309-8.085l-13.309,8.085v24.651L190.2,469.062   c15.082,3.018,30.668,4.615,46.636,4.615C253.549,473.681,268.103,465.917,280.552,452.432z"/>
	<path style="fill:#FDE73D;" d="M223.565,187.693v24.651l13.309,8.085l13.309-8.085v-24.651l30.115-166.725   c-12.389-13.309-26.865-20.96-43.458-20.96c-15.863,0-31.349,1.593-46.345,4.566L223.565,187.693z"/>
	<path style="fill:#FDE73D;" d="M284.415,222.692l-21.91,13.309L284.4,249.31h45.604l4.79,0.445   c0.191-9.158,0.168-18.346-0.045-27.505L330,222.695h-45.585V222.692z"/>
	<path style="fill:#FDE73D;" d="M333.497,194.095c-0.759-11.256-1.825-22.37-3.194-33.256l-20.751,15.429l-59.373,36.072v10.351   h34.232l38.959-23.672L333.497,194.095z"/>
	<path style="fill:#FDE73D;" d="M284.4,249.306h-34.217v10.351l59.369,36.072l20.934,15.564c1.343-10.92,2.375-22.064,3.111-33.342   l-10.224-4.966L284.4,249.306z"/>
</g>
<circle style="fill:#DB2727;" cx="236.85" cy="236.86" r="85.39"/>
<circle style="fill:#FDE500;" cx="236.85" cy="236.86" r="68.56"/>
<g>
</g>
<g>
</g>
<g>
</g>
<g>
</g>
<g>
</g>
<g>
</g>
<g>
</g>
<g>
</g>
<g>
</g>
<g>
</g>
<g>
</g>
<g>
</g>
<g>
</g>
<g>
</g>
<g>
</g>
</svg>
