<?xml version="1.0" encoding="iso-8859-1"?>
<!-- Generator: Adobe Illustrator 19.0.0, SVG Export Plug-In . SVG Version: 6.00 Build 0)  -->
<svg xmlns="http://www.w3.org/2000/svg" xmlns:xlink="http://www.w3.org/1999/xlink" version="1.1" id="Capa_1" x="0px" y="0px" viewBox="0 0 473.68 473.68" style="enable-background:new 0 0 473.68 473.68;" xml:space="preserve">
<circle style="fill:#FFFFFF;" cx="236.85" cy="236.85" r="236.83"/>
<path style="fill:#E4E4E4;" d="M460.143,157.873c-0.022-0.075-0.045-0.138-0.075-0.206C429.759,72.201,351.789,9.32,258.109,0.973  c36.248,19.872,46.838,82.832,56.109,156.901c6.339,50.593,6.376,106.339,0.123,156.995c-9.196,74.47-19.831,137.874-56.232,157.829  c93.848-8.362,171.927-71.46,202.12-157.156c0.079-0.228,0.146-0.453,0.228-0.673c8.53-24.438,13.219-50.682,13.219-78.026  C473.677,209.139,468.879,182.574,460.143,157.873z"/>
<path style="fill:#F3F4F5;" d="M326.416,157.873c-9.274-74.07-32.056-137.029-68.307-156.901C251.097,0.351,244.007,0,236.835,0  C133.806,0,46.192,65.802,13.609,157.668c-0.022,0.067-0.045,0.131-0.075,0.206C4.798,182.574,0,209.139,0,236.842  c0,27.348,4.697,53.588,13.219,78.026c0.079,0.221,0.153,0.445,0.228,0.673C45.9,407.644,133.641,473.678,236.835,473.678  c7.173,0,14.263-0.352,21.274-0.98c36.401-19.954,59.227-83.359,68.423-157.829C332.792,264.209,332.751,208.466,326.416,157.873z"/>
<g>
	<path style="fill:#3757A6;" d="M467.368,182.596h-99.084h-48.712c2.229,34.049,2.39,69.006,0.381,103.145h48.715h99.925   c3.317-15.785,5.082-32.138,5.082-48.899C473.677,218.167,471.448,200.022,467.368,182.596z"/>
	<path style="fill:#3757A6;" d="M331.173,285.742c2.008-34.139,1.847-69.096-0.381-103.145H224.726V0.308   c-37.321,1.877-72.338,12.438-103.145,29.64v152.649H6.32c-4.091,17.426-6.316,35.571-6.316,54.246   c0,16.761,1.769,33.114,5.082,48.899h116.495v157.99c30.807,17.195,65.824,27.755,103.145,29.64v-187.63H331.173z"/>
</g>
<path style="fill:#E21D39;" d="M469.668,193.576H308.429c1.784,27.157,1.907,55.043,0.307,82.271h161.699  c2.117-12.688,3.242-25.71,3.242-39.004C473.677,222.052,472.275,207.606,469.668,193.576z"/>
<path style="fill:#ED2A3D;" d="M329.756,193.576h-114.51V1.011c-29.296,2.644-57.036,10.635-82.271,22.98v169.59H4.016  C1.41,207.606,0,222.052,0,236.842c0,13.294,1.133,26.315,3.25,39.004h129.722v173.838c25.235,12.344,52.975,20.336,82.271,22.983  V275.846h114.816C331.663,248.615,331.536,220.729,329.756,193.576z"/>
<g>
</g>
<g>
</g>
<g>
</g>
<g>
</g>
<g>
</g>
<g>
</g>
<g>
</g>
<g>
</g>
<g>
</g>
<g>
</g>
<g>
</g>
<g>
</g>
<g>
</g>
<g>
</g>
<g>
</g>
</svg>
