<?xml version="1.0" encoding="iso-8859-1"?>
<!-- Generator: Adobe Illustrator 19.0.0, SVG Export Plug-In . SVG Version: 6.00 Build 0)  -->
<svg xmlns="http://www.w3.org/2000/svg" xmlns:xlink="http://www.w3.org/1999/xlink" version="1.1" id="Capa_1" x="0px" y="0px" viewBox="0 0 473.681 473.681" style="enable-background:new 0 0 473.681 473.681;" xml:space="preserve">
<circle style="fill:#FFFFFF;" cx="236.85" cy="236.85" r="236.83"/>
<path style="fill:#258F44;" d="M236.837,0C106.037,0,0.002,106.032,0.002,236.842c0,35.649,7.928,69.444,22.045,99.772  L336.62,22.045C306.288,7.924,272.493,0,236.837,0z"/>
<path style="fill:#079FD7;" d="M137.063,451.636c30.324,14.109,64.115,22.045,99.772,22.045  c130.807,0,236.842-106.036,236.842-236.835c0-35.664-7.928-69.451-22.045-99.779L137.063,451.636z"/>
<g>
	<path style="fill:#F8D12E;" d="M342.913,25.089c-5.392-2.704-10.893-5.217-16.514-7.517L17.578,326.394   c2.296,5.617,4.809,11.125,7.517,16.514L342.913,25.089z"/>
	<path style="fill:#F8D12E;" d="M448.586,130.769L130.77,448.581c5.389,2.711,10.893,5.22,16.514,7.517l308.821-308.821   C453.807,141.659,451.294,136.158,448.586,130.769z"/>
</g>
<path style="fill:#0B0B0B;" d="M342.913,25.089L25.094,342.908c22.894,45.612,60.065,82.783,105.677,105.673L448.586,130.77  C425.691,85.158,388.525,47.986,342.913,25.089z"/>
<g>
</g>
<g>
</g>
<g>
</g>
<g>
</g>
<g>
</g>
<g>
</g>
<g>
</g>
<g>
</g>
<g>
</g>
<g>
</g>
<g>
</g>
<g>
</g>
<g>
</g>
<g>
</g>
<g>
</g>
</svg>
