<?xml version="1.0" encoding="iso-8859-1"?>
<!-- Generator: Adobe Illustrator 19.0.0, SVG Export Plug-In . SVG Version: 6.00 Build 0)  -->
<svg xmlns="http://www.w3.org/2000/svg" xmlns:xlink="http://www.w3.org/1999/xlink" version="1.1" id="Capa_1" x="0px" y="0px" viewBox="0 0 474.759 474.759" style="enable-background:new 0 0 474.759 474.759;" xml:space="preserve">
<g>
	<path style="fill:#258F44;" d="M237.377,474.759c80.967,0,152.421-40.562,195.269-102.443H309.652   C293.918,432.071,276.68,474.759,237.377,474.759z"/>
	<path style="fill:#258F44;" d="M305.559,102.443h127.084c1.346,1.949,2.657,3.924,3.947,5.915C394.277,43.16,320.889,0,237.377,0   C276.68,0,289.825,42.691,305.559,102.443z"/>
</g>
<g>
	<path style="fill:#E4E4E4;" d="M309.652,102.443c2.328,8.827,4.408,18.002,6.214,27.489h133.159   c-3.489-6.859-7.301-13.519-11.413-19.977c-0.341-0.536-0.682-1.061-1.023-1.597c-1.289-1.99-2.597-3.969-3.947-5.915   C432.642,102.443,309.652,102.443,309.652,102.443z"/>
	<path style="fill:#E4E4E4;" d="M436.567,366.434c0.36-0.555,0.716-1.113,1.072-1.668c4.1-6.451,7.905-13.096,11.387-19.94H315.867   c-1.807,9.486-3.887,18.666-6.214,27.489h122.991c0.004-0.008,0.007-0.008,0.015-0.015   C433.992,370.366,435.289,368.413,436.567,366.434z"/>
</g>
<path style="fill:#B31F30;" d="M315.867,129.932c12.751,66.836,12.751,148.066,0,214.894h133.159  c3.073-6.038,5.9-12.234,8.463-18.549c0.019-0.052,0.038-0.101,0.06-0.154c1.514-3.756,2.931-7.571,4.262-11.428  c0.307-0.892,0.615-1.788,0.907-2.68c0.892-2.695,1.735-5.409,2.534-8.141c0.45-1.537,0.9-3.081,1.319-4.64  c0.424-1.574,0.836-3.156,1.229-4.745c0.656-2.65,1.282-5.315,1.844-7.995c0.255-1.199,0.476-2.418,0.712-3.624  c0.48-2.466,0.93-4.955,1.331-7.451c0.135-0.836,0.289-1.66,0.412-2.504c0.483-3.227,0.885-6.484,1.241-9.76  c0.094-0.87,0.191-1.743,0.274-2.612c0.326-3.358,0.588-6.743,0.772-10.146c0.037-0.682,0.064-1.361,0.09-2.05  c0.169-3.639,0.277-7.283,0.277-10.967c0-3.673-0.109-7.328-0.277-10.967c-0.03-0.682-0.056-1.368-0.09-2.05  c-0.184-3.403-0.446-6.78-0.772-10.146c-0.082-0.87-0.18-1.743-0.274-2.612c-0.356-3.265-0.753-6.522-1.241-9.745  c-0.124-0.851-0.277-1.683-0.416-2.526c-0.401-2.496-0.851-4.97-1.327-7.429c-0.236-1.214-0.461-2.436-0.716-3.647  c-0.562-2.672-1.184-5.33-1.84-7.972c-0.397-1.597-0.81-3.193-1.241-4.779c-0.409-1.522-0.851-3.032-1.289-4.546  c-0.81-2.766-1.657-5.521-2.564-8.25c-0.292-0.87-0.585-1.743-0.885-2.612c-1.346-3.902-2.777-7.759-4.318-11.567  c0-0.007-0.004-0.015-0.007-0.015c-2.564-6.338-5.39-12.534-8.471-18.587H315.867V129.932z"/>
<path style="fill:#258F44;" d="M42.108,372.308c-1.338-1.941-2.642-3.902-3.924-5.877C39.47,368.406,40.77,370.366,42.108,372.308z"/>
<g>
	<path style="fill:#2A9847;" d="M38.161,108.373c1.289-1.99,2.597-3.977,3.954-5.93h277.807C304.188,42.691,276.68,0,237.377,0   C153.866,0,80.474,43.167,38.161,108.373z"/>
	<path style="fill:#2A9847;" d="M319.922,372.315H42.116c42.848,61.881,114.303,102.443,195.262,102.443   C276.68,474.759,304.188,432.071,319.922,372.315z"/>
</g>
<path style="fill:#F3F2F2;" d="M326.137,129.932c-1.807-9.486-3.887-18.662-6.214-27.489H42.116  c-1.353,1.953-2.665,3.939-3.954,5.93c-0.341,0.521-0.675,1.046-1.008,1.567c-4.115,6.465-7.931,13.133-11.424,19.992H326.137z"/>
<polygon style="fill:#258F44;" points="42.116,372.315 42.116,372.315 42.108,372.308 "/>
<path style="fill:#F3F2F2;" d="M37.131,364.782c0.352,0.547,0.701,1.098,1.053,1.645c1.282,1.975,2.582,3.939,3.924,5.877  l0.007,0.008h277.807c2.328-8.823,4.408-18.002,6.214-27.489H25.733C29.218,351.678,33.023,358.331,37.131,364.782z"/>
<path style="fill:#C11F40;" d="M326.137,129.932H25.733c-3.077,6.053-5.907,12.249-8.471,18.587c-0.004,0-0.007,0.007-0.007,0.015  c-1.54,3.808-2.972,7.672-4.318,11.567c-0.3,0.87-0.592,1.743-0.885,2.612c-0.903,2.732-1.754,5.484-2.564,8.25  c-0.439,1.514-0.877,3.025-1.289,4.546c-0.431,1.589-0.843,3.186-1.241,4.779c-0.656,2.642-1.278,5.3-1.84,7.972  c-0.255,1.207-0.48,2.429-0.716,3.647c-0.476,2.459-0.922,4.933-1.327,7.429c-0.139,0.843-0.292,1.675-0.416,2.526  c-0.484,3.22-0.885,6.473-1.237,9.738c-0.094,0.877-0.195,1.75-0.277,2.62c-0.326,3.366-0.588,6.743-0.772,10.146  c-0.037,0.682-0.064,1.368-0.09,2.05c-0.169,3.639-0.277,7.29-0.277,10.967c0,3.681,0.109,7.328,0.277,10.967  c0.03,0.69,0.056,1.368,0.09,2.05c0.184,3.403,0.446,6.788,0.772,10.146c0.082,0.877,0.184,1.75,0.274,2.62  c0.356,3.265,0.757,6.522,1.241,9.753c0.124,0.843,0.277,1.668,0.412,2.504c0.401,2.496,0.855,4.985,1.331,7.451  c0.236,1.207,0.457,2.421,0.712,3.624c0.562,2.68,1.188,5.345,1.844,7.995c0.394,1.589,0.806,3.171,1.229,4.745  c0.416,1.559,0.866,3.103,1.319,4.64c0.798,2.732,1.642,5.446,2.534,8.141c0.292,0.892,0.596,1.788,0.903,2.68  c1.331,3.849,2.744,7.672,4.265,11.428c0.022,0.052,0.041,0.101,0.06,0.154c2.564,6.319,5.39,12.511,8.463,18.549h300.404  C338.891,277.998,338.891,196.769,326.137,129.932z"/>
<polygon style="fill:#F0C219;" points="236.309,157.128 255.204,215.28 316.358,215.28 266.879,251.225 285.777,309.388   236.309,273.436 186.838,309.388 205.736,251.225 156.257,215.28 217.415,215.28 "/>
<g>
</g>
<g>
</g>
<g>
</g>
<g>
</g>
<g>
</g>
<g>
</g>
<g>
</g>
<g>
</g>
<g>
</g>
<g>
</g>
<g>
</g>
<g>
</g>
<g>
</g>
<g>
</g>
<g>
</g>
</svg>
