<?xml version="1.0" encoding="iso-8859-1"?>
<!-- Generator: Adobe Illustrator 19.0.0, SVG Export Plug-In . SVG Version: 6.00 Build 0)  -->
<svg xmlns="http://www.w3.org/2000/svg" xmlns:xlink="http://www.w3.org/1999/xlink" version="1.1" id="Capa_1" x="0px" y="0px" viewBox="0 0 473.722 473.722" style="enable-background:new 0 0 473.722 473.722;" xml:space="preserve">
<path style="fill:#F3F2F2;" d="M0.022,236.842c0-40.593,10.209-78.8,28.2-112.195l445.477,112.195L33.48,358.277  C12.236,322.766,0.022,281.227,0.022,236.842z"/>
<path style="fill:#338BC1;" d="M309.97,236.842H473.7C473.699,106.032,367.664,0,236.857,0C302.255,0,309.97,118.425,309.97,236.842  z"/>
<path style="fill:#258F44;" d="M236.857,473.684c-1.402,0-2.767-0.022-4.147-0.037c1.38,0.03,2.76,0.075,4.147,0.075  c130.807,0,236.842-106.032,236.842-236.842H304.36C304.353,355.289,302.247,473.684,236.857,473.684z"/>
<path style="fill:#3D91CF;" d="M28.23,124.647l208.627,112.195h98.096C334.954,118.425,302.255,0,236.857,0  C146.647,0,68.217,50.436,28.23,124.647z"/>
<path style="fill:#359846;" d="M334.954,236.88h-98.096L27.755,348.199c39.236,73.55,116.14,123.926,204.955,125.452  c1.38,0.015,2.745,0.037,4.147,0.037C302.247,473.684,334.95,355.289,334.954,236.88z"/>
<polygon style="fill:#D32027;" points="85.004,177.637 97.666,216.619 138.648,216.619 105.49,240.705 118.156,279.686   85.004,255.592 51.842,279.686 64.508,240.705 31.349,216.619 72.338,216.619 "/>
<g>
</g>
<g>
</g>
<g>
</g>
<g>
</g>
<g>
</g>
<g>
</g>
<g>
</g>
<g>
</g>
<g>
</g>
<g>
</g>
<g>
</g>
<g>
</g>
<g>
</g>
<g>
</g>
<g>
</g>
</svg>
