<?xml version="1.0" encoding="iso-8859-1"?>
<!-- Generator: Adobe Illustrator 19.0.0, SVG Export Plug-In . SVG Version: 6.00 Build 0)  -->
<svg xmlns="http://www.w3.org/2000/svg" xmlns:xlink="http://www.w3.org/1999/xlink" version="1.1" id="Capa_1" x="0px" y="0px" viewBox="0 0 473.68 473.68" style="enable-background:new 0 0 473.68 473.68;" xml:space="preserve">
<circle style="fill:#FFFFFF;" cx="236.85" cy="236.85" r="236.83"/>
<path style="fill:#214391;" d="M460.143,157.874c-0.022-0.075-0.045-0.138-0.075-0.206C429.759,72.2,351.789,9.323,258.113,0.972  c36.248,19.872,46.838,82.832,56.109,156.901c6.339,50.593,6.376,106.335,0.123,156.995c-9.196,74.47-19.831,137.874-56.232,157.829  c93.848-8.362,171.927-71.46,202.12-157.156c0.078-0.228,0.146-0.452,0.228-0.673c8.53-24.438,13.219-50.682,13.219-78.026  C473.677,209.139,468.879,182.577,460.143,157.874z"/>
<path style="fill:#2B479D;" d="M326.416,157.874c-9.274-74.07-32.056-137.029-68.307-156.901C251.097,0.352,244.007,0,236.835,0  C133.806,0,46.191,65.802,13.608,157.668c-0.022,0.067-0.045,0.131-0.075,0.206C4.798,182.573,0,209.139,0,236.842  c0,27.348,4.697,53.588,13.219,78.026c0.079,0.221,0.153,0.445,0.228,0.673C45.9,407.643,133.641,473.677,236.835,473.677  c7.173,0,14.263-0.352,21.274-0.98c36.401-19.954,59.227-83.359,68.423-157.829C332.792,264.208,332.751,208.47,326.416,157.874z"/>
<g>
	<path style="fill:#F3F4F5;" d="M467.368,182.607h-99.084h-48.712c2.229,34.045,2.39,68.999,0.381,103.137h48.715h99.925   c3.317-15.785,5.082-32.13,5.082-48.899C473.677,218.167,471.448,200.034,467.368,182.607z"/>
	<path style="fill:#F3F4F5;" d="M331.173,285.741c2.008-34.139,1.847-69.092-0.381-103.137H224.726V0.31   c-37.321,1.877-72.338,12.438-103.145,29.64v152.657H6.32c-4.091,17.426-6.316,35.563-6.316,54.235   c0,16.768,1.769,33.114,5.082,48.899h116.495v157.99c30.807,17.202,65.824,27.763,103.145,29.64v-187.63L331.173,285.741   L331.173,285.741z"/>
</g>
<path style="fill:#E21D39;" d="M469.668,193.575H308.429c1.784,27.157,1.907,55.039,0.307,82.271h161.699  c2.117-12.688,3.242-25.71,3.242-39.004C473.677,222.052,472.275,207.606,469.668,193.575z"/>
<path style="fill:#ED2A3D;" d="M329.756,193.575h-114.51V1.01c-29.296,2.651-57.036,10.635-82.271,22.98v169.59H4.016  C1.41,207.61,0,222.056,0,236.846c0,13.294,1.133,26.315,3.25,39.004h129.722v173.838c25.235,12.352,52.975,20.34,82.271,22.983  V275.846h114.816C331.663,248.614,331.536,220.732,329.756,193.575z"/>
<g>
</g>
<g>
</g>
<g>
</g>
<g>
</g>
<g>
</g>
<g>
</g>
<g>
</g>
<g>
</g>
<g>
</g>
<g>
</g>
<g>
</g>
<g>
</g>
<g>
</g>
<g>
</g>
<g>
</g>
</svg>
