<?xml version="1.0" encoding="iso-8859-1"?>
<!-- Generator: Adobe Illustrator 19.0.0, SVG Export Plug-In . SVG Version: 6.00 Build 0)  -->
<svg xmlns="http://www.w3.org/2000/svg" xmlns:xlink="http://www.w3.org/1999/xlink" version="1.1" id="Capa_1" x="0px" y="0px" viewBox="0 0 473.681 473.681" style="enable-background:new 0 0 473.681 473.681;" xml:space="preserve">
<circle style="fill:#FFFFFF;" cx="236.85" cy="236.851" r="236.83"/>
<path style="fill:#E4E4E4;" d="M460.147,157.874c-0.026-0.075-0.049-0.138-0.075-0.206C429.759,72.202,351.793,9.321,258.113,0.974  c36.248,19.872,46.834,82.832,56.109,156.901c6.335,50.596,6.376,106.339,0.12,156.999c-9.196,74.47-19.827,137.874-56.228,157.829  c93.848-8.362,171.927-71.46,202.12-157.156c0.079-0.228,0.146-0.452,0.228-0.673c8.526-24.438,13.219-50.682,13.219-78.026  C473.681,209.145,468.883,182.577,460.147,157.874z"/>
<path style="fill:#F3F4F5;" d="M326.416,157.874c-9.27-74.07-32.052-137.029-68.303-156.901C251.101,0.352,244.011,0,236.838,0  C133.809,0,46.191,65.803,13.612,157.668c-0.026,0.067-0.049,0.131-0.075,0.206c-8.736,24.7-13.534,51.266-13.534,78.972  c0,27.348,4.693,53.588,13.219,78.026c0.079,0.221,0.15,0.445,0.228,0.673c32.452,92.103,120.19,158.135,223.387,158.135  c7.173,0,14.263-0.352,21.274-0.98c36.401-19.954,59.227-83.359,68.423-157.829C332.792,264.214,332.751,208.471,326.416,157.874z"/>
<path style="fill:#254B97;" d="M470.506,275.332c0.292-1.761,0.531-3.534,0.778-5.303c0.28-1.963,0.546-3.938,0.778-5.916  c0.187-1.638,0.359-3.272,0.512-4.91c0.228-2.337,0.4-4.682,0.553-7.034c0.086-1.343,0.191-2.681,0.254-4.024  c0.18-3.747,0.295-7.509,0.295-11.297c0-4.252-0.15-8.459-0.378-12.651c-0.075-1.372-0.191-2.73-0.288-4.106  c-0.202-2.827-0.445-5.647-0.748-8.451c-0.168-1.548-0.344-3.089-0.542-4.63c-0.355-2.76-0.767-5.501-1.212-8.231  c-0.224-1.357-0.419-2.73-0.666-4.084c-0.067-0.374-0.112-0.752-0.183-1.118h-0.049c-0.684-3.683-1.406-7.356-2.255-10.979h-99.08  h-48.704c0.236,3.639,0.359,7.318,0.546,10.979h-11.69c1.784,27.157,1.907,55.043,0.307,82.271h11.641  c-0.153,3.295-0.232,6.612-0.423,9.895h48.715h99.929c0.688-3.272,1.268-6.582,1.817-9.895h0.019  C470.465,275.675,470.483,275.508,470.506,275.332z"/>
<path style="fill:#3757A6;" d="M329.756,193.579h-0.022c-0.191-3.661-0.31-7.341-0.546-10.979H224.726V0.312  c-3.186,0.161-6.327,0.467-9.48,0.752V1.012c-0.542,0.052-1.07,0.131-1.608,0.183c-2.199,0.213-4.383,0.475-6.559,0.744  c-1.982,0.247-3.953,0.527-5.916,0.826c-2.09,0.314-4.173,0.628-6.245,1.002c-2.24,0.4-4.454,0.868-6.671,1.328  c-1.799,0.381-3.612,0.714-5.392,1.133c-3.68,0.86-7.326,1.81-10.938,2.842c-1.571,0.452-3.115,0.95-4.671,1.432  c-2.405,0.737-4.79,1.496-7.158,2.307c-1.563,0.535-3.119,1.096-4.667,1.664c-2.431,0.89-4.843,1.825-7.24,2.797  c-1.361,0.546-2.73,1.088-4.08,1.664c-3.164,1.343-6.286,2.76-9.375,4.244c-0.535,0.254-1.073,0.482-1.604,0.737  c-0.052,0.03-0.097,0.052-0.15,0.075v0.007c-3.855,1.885-7.659,3.863-11.394,5.953v152.652H6.32  c-0.849,3.624-1.571,7.296-2.255,10.979H4.016c-0.071,0.366-0.116,0.744-0.183,1.118c-0.243,1.35-0.441,2.726-0.666,4.084  c-0.445,2.73-0.856,5.471-1.212,8.231c-0.198,1.541-0.374,3.081-0.542,4.63c-0.303,2.805-0.546,5.624-0.748,8.451  c-0.097,1.372-0.217,2.73-0.288,4.106C0.15,228.393,0,232.6,0,236.852c0,3.792,0.116,7.554,0.295,11.294  c0.067,1.35,0.168,2.696,0.254,4.039c0.153,2.345,0.329,4.689,0.553,7.019c0.153,1.642,0.325,3.287,0.512,4.914  c0.236,1.978,0.497,3.945,0.774,5.909c0.251,1.776,0.49,3.549,0.782,5.31c0.026,0.176,0.045,0.344,0.075,0.52h0.019  c0.55,3.317,1.133,6.623,1.817,9.895h116.491v157.99c3.736,2.083,7.539,4.061,11.394,5.946v0.007  c0.015,0.007,0.03,0.015,0.049,0.022c0.77,0.381,1.571,0.714,2.348,1.081c2.853,1.357,5.729,2.674,8.646,3.915  c1.429,0.613,2.872,1.182,4.308,1.761c2.326,0.942,4.663,1.847,7.03,2.719c1.582,0.583,3.171,1.156,4.768,1.702  c2.348,0.804,4.727,1.556,7.105,2.292c1.559,0.475,3.104,0.98,4.678,1.432c3.665,1.043,7.367,2.016,11.107,2.883  c1.679,0.393,3.388,0.707,5.082,1.058c2.277,0.482,4.559,0.957,6.862,1.365c2.034,0.367,4.087,0.681,6.14,0.995  c2.001,0.299,4.009,0.583,6.028,0.834c2.154,0.269,4.312,0.527,6.484,0.737c0.546,0.06,1.084,0.138,1.634,0.191v-0.06  c3.152,0.284,6.297,0.598,9.48,0.759V285.746h104.839c0.194-3.287,0.269-6.604,0.423-9.895h0.075  C331.663,248.618,331.536,220.732,329.756,193.579z"/>
<g>
</g>
<g>
</g>
<g>
</g>
<g>
</g>
<g>
</g>
<g>
</g>
<g>
</g>
<g>
</g>
<g>
</g>
<g>
</g>
<g>
</g>
<g>
</g>
<g>
</g>
<g>
</g>
<g>
</g>
</svg>
