<?xml version="1.0" encoding="iso-8859-1"?>
<!-- Generator: Adobe Illustrator 19.0.0, SVG Export Plug-In . SVG Version: 6.00 Build 0)  -->
<svg xmlns="http://www.w3.org/2000/svg" xmlns:xlink="http://www.w3.org/1999/xlink" version="1.1" id="Capa_1" x="0px" y="0px" viewBox="0 0 473.681 473.681" style="enable-background:new 0 0 473.681 473.681;" xml:space="preserve">
<g>
	<path style="fill:#4371B7;" d="M324.415,160.112l106.548-58.868c4.286,6.114,8.279,12.445,11.978,18.967   C402.244,48.448,325.223,0.002,236.835,0.002C287.188,0.002,312.83,73.78,324.415,160.112z"/>
	<path style="fill:#4371B7;" d="M473.602,239.869l-152.859,84.013c-11.739,85.681-33.836,149.796-83.909,149.796   c130.807,0,236.842-106.036,236.842-236.835C473.677,237.861,473.61,238.86,473.602,239.869z"/>
</g>
<g>
	<path style="fill:#F8D12E;" d="M330.35,292.44c-0.808,9.218-1.84,18.309-3.063,27.235l146.315-79.81   c0.011-1.01,0.079-2.008,0.079-3.025c0-3.732-0.108-7.442-0.28-11.14c-0.172-3.47-0.426-6.926-0.733-10.362   c-0.015-0.168-0.022-0.337-0.037-0.497L330.35,292.44z"/>
	<path style="fill:#F8D12E;" d="M324.573,159.095c1.066,7.909,1.974,15.946,2.715,24.087l115.684-62.93   c-0.011-0.015-0.019-0.03-0.019-0.03c-3.706-6.537-7.7-12.868-11.985-18.982L324.573,159.095z"/>
</g>
<path style="fill:#DC1F28;" d="M328.533,182.796c1.881,37.665,3.336,74.384,0.157,110.706l143.936-78.654  c-0.004-0.022-0.007-0.045-0.007-0.067c-3.156-34.124-13.556-66.123-29.64-94.503c0,0-0.007-0.015,1.391-1.425L328.533,182.796z"/>
<g>
	<path style="fill:#4371B7;" d="M472.663,215.341c0.307,3.44,0.561,6.896,0.733,10.362   C473.236,222.23,472.97,218.782,472.663,215.341z"/>
	<path style="fill:#4371B7;" d="M442.979,120.274c16.084,28.383,26.484,60.379,29.64,94.503   C469.462,180.657,459.063,148.65,442.979,120.274z"/>
</g>
<g>
	<path style="fill:#F8D12E;" d="M472.663,215.341c-0.015-0.168-0.022-0.337-0.037-0.505v0.007   C472.641,215.005,472.648,215.173,472.663,215.341z"/>
	<path style="fill:#F8D12E;" d="M473.396,225.708c0.172,3.695,0.28,7.404,0.28,11.14   C473.677,233.112,473.58,229.402,473.396,225.708z"/>
	<path style="fill:#F8D12E;" d="M442.967,120.252l-0.019-0.03L442.967,120.252z"/>
</g>
<g>
	<polygon style="fill:#DC1F28;" points="442.979,120.274 442.967,120.252 442.967,120.252  "/>
	<path style="fill:#DC1F28;" d="M472.626,214.837c0,0-0.007-0.037-0.007-0.06c0,0.022,0.004,0.045,0.007,0.067V214.837z"/>
</g>
<path style="fill:#4371B7;" d="M100.875,430.703c-3.377-2.375-6.69-4.835-9.936-7.378  C94.185,425.868,97.491,428.329,100.875,430.703z"/>
<g>
	<path style="fill:#467EC0;" d="M329.524,318.569L111.406,437.708c-3.519-2.206-6.974-4.499-10.366-6.881   c38.454,26.974,85.259,42.852,135.795,42.852C286.908,473.679,317.789,404.25,329.524,318.569z"/>
	<path style="fill:#467EC0;" d="M0,236.844c0,71.258,31.517,135.115,81.321,178.535c-21.925-19.105-40.294-42.171-53.992-68.101   c-3.493-6.612-6.683-13.395-9.547-20.347l311.933-170.386c-11.582-86.34-42.527-156.543-92.88-156.543   C106.036,0.002,0,106.034,0,236.844z"/>
</g>
<g>
	<path style="fill:#4371B7;" d="M90.928,423.318c-3.272-2.558-6.473-5.209-9.603-7.932   C84.455,418.112,87.656,420.756,90.928,423.318z"/>
	<path style="fill:#4371B7;" d="M101.04,430.827c-0.056-0.045-0.112-0.079-0.165-0.123   C100.924,430.748,100.983,430.782,101.04,430.827z"/>
	<path style="fill:#4371B7;" d="M90.931,423.325h0.004H90.931z"/>
</g>
<g>
	<path style="fill:#F8D852;" d="M90.931,423.325L90.931,423.325c3.25,2.543,6.563,5.004,9.94,7.378   c0.052,0.045,0.108,0.079,0.165,0.123c3.392,2.382,6.847,4.674,10.366,6.881L329.52,318.569c1.223-8.926,2.259-18.017,3.063-27.235   L90.931,423.325z"/>
	<path style="fill:#F8D852;" d="M329.718,156.544L17.785,326.93c2.865,6.952,6.054,13.739,9.547,20.347l305.101-166.65   C331.693,172.49,330.784,164.457,329.718,156.544z"/>
</g>
<g>
	<polygon style="fill:#4371B7;" points="90.928,423.318 90.931,423.325 90.931,423.325  "/>
	<path style="fill:#4371B7;" d="M81.325,415.386l-0.004-0.007L81.325,415.386z"/>
</g>
<path style="fill:#E31C42;" d="M332.59,291.33c3.179-36.322,3.123-74.44-0.157-110.706l-305.1,166.653  c13.694,25.93,32.063,48.996,53.992,68.101l0.004,0.007c3.13,2.726,6.331,5.378,9.603,7.932l0.004,0.007L332.59,291.33z"/>
<polygon style="fill:#F8D12E;" points="137.908,72.684 153.685,121.239 204.742,121.239 163.434,151.241 179.212,199.8   137.908,169.793 96.604,199.8 112.378,151.241 71.074,121.239 122.131,121.239 "/>
<g>
</g>
<g>
</g>
<g>
</g>
<g>
</g>
<g>
</g>
<g>
</g>
<g>
</g>
<g>
</g>
<g>
</g>
<g>
</g>
<g>
</g>
<g>
</g>
<g>
</g>
<g>
</g>
<g>
</g>
</svg>
