<?xml version="1.0" encoding="iso-8859-1"?>
<!-- Generator: Adobe Illustrator 19.0.0, SVG Export Plug-In . SVG Version: 6.00 Build 0)  -->
<svg xmlns="http://www.w3.org/2000/svg" xmlns:xlink="http://www.w3.org/1999/xlink" version="1.1" id="Capa_1" x="0px" y="0px" viewBox="0 0 473.68 473.68" style="enable-background:new 0 0 473.68 473.68;" xml:space="preserve">
<circle style="fill:#FFFFFF;" cx="236.85" cy="236.85" r="236.83"/>
<path style="fill:#E4E4E4;" d="M460.144,157.87c-0.026-0.075-0.049-0.138-0.075-0.206C429.756,72.196,351.79,9.315,258.109,0.969  c36.248,19.872,36.401,451.774,0,471.729c93.848-8.362,171.927-71.46,202.12-157.156c0.079-0.228,0.146-0.452,0.228-0.673  c8.526-24.438,13.219-50.682,13.219-78.026C473.678,209.139,468.88,182.573,460.144,157.87z"/>
<path style="fill:#F3F4F5;" d="M326.413,157.87c-9.27-74.07-32.052-137.029-68.303-156.901c-6.739-0.598-13.548-0.927-20.433-0.95  v473.636c6.885-0.03,13.694-0.359,20.433-0.957c36.401-19.954,59.227-83.359,68.423-157.829  C332.789,264.208,332.747,208.466,326.413,157.87z"/>
<path style="fill:#036535;" d="M236.835,0C133.807,0,46.188,65.802,13.608,157.668c-0.026,0.067-0.049,0.131-0.075,0.206  c-8.735,24.703-13.533,51.265-13.533,78.972c0,27.348,4.693,53.588,13.219,78.026c0.079,0.221,0.15,0.445,0.228,0.673  C45.9,407.647,133.637,473.68,236.835,473.68c0.28,0,0.557-0.022,0.845-0.022V0.019C237.393,0.011,237.115,0,236.835,0z"/>
<g>
	<path style="fill:#E61E25;" d="M168.378,242.078c0-48.775,39.538-88.321,88.314-88.321c16.409,0,31.775,4.499,44.931,12.292   c-19.311-19.087-45.847-30.881-75.15-30.881c-59.044,0-106.903,47.863-106.903,106.907s47.859,106.914,106.903,106.914   c29.303,0,55.839-11.802,75.15-30.889c-13.156,7.793-28.522,12.285-44.931,12.285C207.921,330.391,168.378,290.853,168.378,242.078   z"/>
	<polygon style="fill:#E61E25;" points="304.566,185.965 303.254,227.931 342.759,242.16 302.428,253.868 301.115,295.841    277.507,261.112 237.182,272.828 262.915,239.639 239.314,204.917 278.835,219.146  "/>
</g>
<g>
</g>
<g>
</g>
<g>
</g>
<g>
</g>
<g>
</g>
<g>
</g>
<g>
</g>
<g>
</g>
<g>
</g>
<g>
</g>
<g>
</g>
<g>
</g>
<g>
</g>
<g>
</g>
<g>
</g>
</svg>
