<?xml version="1.0" encoding="iso-8859-1"?>
<!-- Generator: Adobe Illustrator 19.0.0, SVG Export Plug-In . SVG Version: 6.00 Build 0)  -->
<svg xmlns="http://www.w3.org/2000/svg" xmlns:xlink="http://www.w3.org/1999/xlink" version="1.1" id="Capa_1" x="0px" y="0px" viewBox="0 0 473.68 473.68" style="enable-background:new 0 0 473.68 473.68;" xml:space="preserve">
<path style="fill:#CD2027;" d="M315.8,13.537l-27.64,76.632c25.511,84.193,25.511,209.151,0,293.351l27.639,76.624  C407.774,427.621,473.68,339.95,473.68,236.835C473.681,133.735,407.774,46.06,315.8,13.537z"/>
<g>
	<path style="fill:#E6BF1F;" d="M315.8,90.169V13.537c-24.7-8.736-51.266-13.534-78.961-13.534   C273.359,0.004,222.722,123.772,315.8,90.169z"/>
	<path style="fill:#E6BF1F;" d="M236.838,473.677c27.695,0,54.261-4.798,78.961-13.534v-76.624   C223.656,374.324,236.838,473.677,236.838,473.677z"/>
</g>
<path style="fill:#2DB24A;" d="M0,236.835c0,103.459,66.355,191.361,158.805,223.623V13.231C66.355,45.492,0,133.391,0,236.835z"/>
<path style="fill:#E43533;" d="M315.8,90.169V383.52C341.315,299.319,341.315,174.361,315.8,90.169z"/>
<path style="fill:#F8D12E;" d="M315.8,383.519V90.169c-16.125-53.233-42.44-90.165-78.961-90.165  c-27.351,0-53.592,4.697-78.034,13.227v447.227c24.442,8.53,50.682,13.219,78.034,13.219  C273.359,473.677,299.674,436.741,315.8,383.519z"/>
<g>
</g>
<g>
</g>
<g>
</g>
<g>
</g>
<g>
</g>
<g>
</g>
<g>
</g>
<g>
</g>
<g>
</g>
<g>
</g>
<g>
</g>
<g>
</g>
<g>
</g>
<g>
</g>
<g>
</g>
</svg>
