<?xml version="1.0" encoding="iso-8859-1"?>
<!-- Generator: Adobe Illustrator 19.0.0, SVG Export Plug-In . SVG Version: 6.00 Build 0)  -->
<svg xmlns="http://www.w3.org/2000/svg" xmlns:xlink="http://www.w3.org/1999/xlink" version="1.1" id="Capa_1" x="0px" y="0px" viewBox="0 0 474.763 474.763" style="enable-background:new 0 0 474.763 474.763;" xml:space="preserve">
<circle style="fill:#FFFFFF;" cx="237.38" cy="237.39" r="237.37"/>
<path style="fill:#EFECEC;" d="M461.196,158.238c-0.026-0.075-0.049-0.139-0.075-0.21C430.739,72.369,352.595,9.348,258.701,0.978  c36.33,19.917,46.941,83.021,56.237,157.26c6.349,50.708,6.391,106.581,0.12,157.353c-9.217,74.64-19.873,138.189-56.357,158.189  c94.063-8.381,172.32-71.623,202.582-157.515c0.079-0.229,0.146-0.454,0.229-0.675c8.546-24.498,13.25-50.798,13.25-78.208  C474.76,209.621,469.952,182.998,461.196,158.238z"/>
<path style="fill:#F3F4F5;" d="M327.16,158.238C317.865,84.003,295.035,20.9,258.701,0.978C251.673,0.356,244.564,0,237.376,0  C134.113,0,46.295,65.956,13.641,158.028c-0.026,0.071-0.049,0.135-0.075,0.21C4.81,182.994,0.002,209.621,0.002,237.383  c0,27.41,4.704,53.71,13.25,78.208c0.079,0.221,0.15,0.446,0.229,0.675c32.526,92.312,120.464,158.497,223.897,158.497  c7.189,0,14.295-0.352,21.323-0.982c36.484-20,59.363-83.549,68.579-158.189C333.549,264.819,333.509,208.95,327.16,158.238z"/>
<path style="fill:#BE2126;" d="M470.739,194.021H309.128c1.788,27.219,1.912,55.165,0.307,82.459h162.068  c2.121-12.721,3.253-25.772,3.253-39.097C474.76,222.567,473.351,208.08,470.739,194.021z"/>
<path style="fill:#D32027;" d="M330.503,194.021H215.73V1.012c-29.363,2.654-57.166,10.663-82.459,23.036v169.977H4.024  c-2.612,14.059-4.022,28.542-4.022,43.362c0,13.325,1.132,26.375,3.253,39.097h130.018v174.235  c25.292,12.373,53.096,20.382,82.459,23.036V276.48H330.81C332.415,249.186,332.29,221.24,330.503,194.021z"/>
<g>
</g>
<g>
</g>
<g>
</g>
<g>
</g>
<g>
</g>
<g>
</g>
<g>
</g>
<g>
</g>
<g>
</g>
<g>
</g>
<g>
</g>
<g>
</g>
<g>
</g>
<g>
</g>
<g>
</g>
</svg>
