<?xml version="1.0" encoding="iso-8859-1"?>
<!-- Generator: Adobe Illustrator 19.0.0, SVG Export Plug-In . SVG Version: 6.00 Build 0)  -->
<svg xmlns="http://www.w3.org/2000/svg" xmlns:xlink="http://www.w3.org/1999/xlink" version="1.1" id="Capa_1" x="0px" y="0px" viewBox="0 0 473.677 473.677" style="enable-background:new 0 0 473.677 473.677;" xml:space="preserve">
<g>
	<rect x="25.627" y="129.71" style="fill:#C42126;" width="422.42" height="0.007"/>
	<rect x="8.829" y="172.79" style="fill:#C42126;" width="456" height="0.007"/>
	<rect x="54.751" y="388.27" style="fill:#C42126;" width="364.2" height="0.007"/>
	<polygon style="fill:#C42126;" points="101.791,431.36 371.886,431.36 371.901,431.352 101.776,431.352  "/>
	<path style="fill:#C42126;" d="M236.835,0c-4.652,0-9.267,0.176-13.848,0.438h27.699C246.101,0.176,241.487,0,236.835,0z"/>
	<rect x="0.976" y="215.89" style="fill:#C42126;" width="471.71" height="0.007"/>
</g>
<path style="fill:#E4E4E4;" d="M314.674,86.616h105.254c-13.433-16.353-29.045-30.829-46.341-43.084h-77.08  C303.534,55.895,309.573,70.483,314.674,86.616z"/>
<path style="fill:#DC3027;" d="M296.507,43.532h77.08C338.48,18.646,296.331,3.066,250.686,0.438h-7.292  C264.878,3.134,282.585,19.034,296.507,43.532z"/>
<path style="fill:#E4E4E4;" d="M464.844,172.802c-4.211-15.026-9.858-29.434-16.798-43.084H325.41  c2.636,13.825,4.716,28.282,6.256,43.084H464.844z"/>
<path style="fill:#DC3027;" d="M325.41,129.711h122.632c-7.831-15.403-17.239-29.857-28.114-43.091H314.674  C318.907,100.011,322.501,114.465,325.41,129.711z"/>
<path style="fill:#E4E4E4;" d="M334.557,258.988h138.054c0.681-7.296,1.066-14.674,1.066-22.146c0-7.064-0.37-14.038-0.976-20.942  H334.587C335.058,230.231,335.051,244.665,334.557,258.988z"/>
<path style="fill:#DC3027;" d="M472.701,215.893c-1.298-14.798-3.964-29.195-7.857-43.084H331.663  c1.473,14.109,2.446,28.544,2.921,43.084H472.701z"/>
<path style="fill:#E4E4E4;" d="M325.167,345.174h122.258c7.038-13.649,12.774-28.062,17.075-43.091H331.547  C329.973,316.899,327.845,331.349,325.167,345.174z"/>
<path style="fill:#DC3027;" d="M464.504,302.079c3.975-13.893,6.735-28.286,8.107-43.091H334.557  c-0.505,14.558-1.507,28.989-3.01,43.091H464.504z"/>
<path style="fill:#E4E4E4;" d="M371.901,431.352c17.546-12.206,33.379-26.697,47.025-43.084H314.3  c-5.194,16.192-11.361,30.758-18.515,43.084H371.901L371.901,431.352z"/>
<g>
	<path style="fill:#DC3027;" d="M314.3,388.258h104.63c11.002-13.212,20.553-27.665,28.499-43.084H325.167   C322.22,360.424,318.586,374.885,314.3,388.258z"/>
	<path style="fill:#DC3027;" d="M228.275,473.516c-0.494-0.022-0.987-0.037-1.481-0.06   C227.284,473.479,227.777,473.494,228.275,473.516z"/>
	<path style="fill:#DC3027;" d="M236.835,473.677c50.211,0,96.735-15.665,135.051-42.317h-76.104   C280.562,457.578,260.921,473.677,236.835,473.677z"/>
</g>
<path style="fill:#C42126;" d="M236.835,473.677c-2.868,0-5.718-0.067-8.56-0.161C231.143,473.61,234,473.677,236.835,473.677z"/>
<path style="fill:#F3F4F5;" d="M296.507,43.532H100.09c-17.3,12.255-32.909,26.731-46.345,43.084h260.929  C309.573,70.483,303.534,55.895,296.507,43.532z"/>
<path style="fill:#E73525;" d="M100.09,43.532h196.417c-13.922-24.498-31.629-40.399-53.113-43.095h-20.407  C177.342,3.066,135.193,18.646,100.09,43.532z"/>
<path style="fill:#F3F4F5;" d="M8.833,172.802h322.83c-1.541-14.805-3.62-29.258-6.256-43.084H25.631  C18.69,143.368,13.044,157.776,8.833,172.802z"/>
<path style="fill:#E73525;" d="M53.745,86.616c-10.867,13.234-20.283,27.688-28.11,43.091h299.772  c-2.906-15.243-6.499-29.696-10.733-43.091H53.745z"/>
<path style="fill:#F3F4F5;" d="M0,236.842c0,7.472,0.389,14.85,1.066,22.146h333.491c0.494-14.323,0.501-28.754,0.03-43.084H0.976  C0.37,222.804,0,229.778,0,236.842z"/>
<path style="fill:#E73525;" d="M0.976,215.893h333.611c-0.475-14.543-1.451-28.974-2.921-43.084H8.829  C4.936,186.702,2.27,201.096,0.976,215.893z"/>
<path style="fill:#F3F4F5;" d="M331.547,302.079H9.173c4.301,15.033,10.041,29.442,17.075,43.091h298.919  C327.845,331.349,329.973,316.899,331.547,302.079z"/>
<path style="fill:#E73525;" d="M9.173,302.079h322.374c1.5-14.102,2.506-28.537,3.01-43.091H1.066  C2.438,273.793,5.202,288.19,9.173,302.079z"/>
<path style="fill:#F3F4F5;" d="M101.776,431.352h194.009c7.154-12.329,13.324-26.891,18.515-43.084H54.751  C68.397,404.656,84.226,419.146,101.776,431.352z"/>
<g>
	<path style="fill:#E73525;" d="M26.252,345.174c7.947,15.418,17.497,29.872,28.499,43.084H314.3   c4.286-13.373,7.92-27.834,10.867-43.084H26.252L26.252,345.174z"/>
	<path style="fill:#E73525;" d="M226.794,473.456c0.497,0.022,0.991,0.037,1.481,0.06c2.842,0.093,5.692,0.161,8.56,0.161   c24.087,0,43.727-16.099,58.947-42.317h-193.99C137.534,456.221,180.431,471.515,226.794,473.456z"/>
</g>
<path style="fill:#384DA0;" d="M231.94,0.123C110.572,2.592,11.653,96.309,1.006,215.508h230.937V0.123H231.94z"/>
<polygon style="fill:#FAF9FB;" points="134.183,48.629 150.843,99.903 204.757,99.903 161.138,131.588 177.798,182.858   134.183,151.176 90.569,182.858 107.229,131.588 63.61,99.903 117.524,99.903 "/>
<g>
</g>
<g>
</g>
<g>
</g>
<g>
</g>
<g>
</g>
<g>
</g>
<g>
</g>
<g>
</g>
<g>
</g>
<g>
</g>
<g>
</g>
<g>
</g>
<g>
</g>
<g>
</g>
<g>
</g>
</svg>
