<?xml version="1.0" encoding="iso-8859-1"?>
<!-- Generator: Adobe Illustrator 19.0.0, SVG Export Plug-In . SVG Version: 6.00 Build 0)  -->
<svg xmlns="http://www.w3.org/2000/svg" xmlns:xlink="http://www.w3.org/1999/xlink" version="1.1" id="Capa_1" x="0px" y="0px" viewBox="0 0 473.773 473.773" style="enable-background:new 0 0 473.773 473.773;" xml:space="preserve">
<circle style="fill:#FFFFFF;" cx="236.94" cy="236.899" r="236.83"/>
<path style="fill:#C32127;" d="M460.244,157.918H314.317c6.331,50.593,6.376,106.339,0.116,156.996h146.121  c8.523-24.438,13.219-50.683,13.219-78.027C473.778,209.185,468.98,182.619,460.244,157.918z"/>
<path style="fill:#CD2029;" d="M0.097,236.888c0,27.348,4.689,53.589,13.219,78.027h313.315  c6.253-50.66,6.215-106.403-0.123-156.996H13.631C4.895,182.619,0.097,209.185,0.097,236.888z"/>
<path style="fill:#0B0B0B;" d="M312.088,140.686h14.416h126.84C419.206,63.987,345.547,8.791,258.205,1.012  C291.61,19.325,301.595,74.23,312.088,140.686z"/>
<path style="fill:#198441;" d="M314.433,332.341c-10.452,66.786-22.699,122.027-56.225,140.403  c87.611-7.808,161.469-63.334,195.469-140.403H326.632L314.433,332.341L314.433,332.341z"/>
<g>
	<path style="fill:#E4E4E4;" d="M324.063,140.686c0.898,5.669,1.716,11.41,2.446,17.228h133.736   c-0.03-0.075-0.052-0.138-0.075-0.206c-2.053-5.785-4.345-11.458-6.821-17.026h-126.84h-2.446L324.063,140.686L324.063,140.686z"/>
	<path style="fill:#E4E4E4;" d="M460.558,314.914H326.632c-0.729,5.886-1.548,11.694-2.446,17.427h2.446h127.045   c2.416-5.486,4.645-11.065,6.653-16.753C460.405,315.359,460.476,315.135,460.558,314.914z"/>
</g>
<path style="fill:#151515;" d="M258.208,1.016c-7.012-0.621-14.102-0.972-21.275-0.972c-96.549,0-179.561,57.781-216.437,140.643  h291.595h2.229h9.742C313.566,74.23,291.61,19.325,258.208,1.016z"/>
<path style="fill:#F3F4F5;" d="M324.063,140.686h-9.742h-2.229H20.497c-2.476,5.565-4.749,11.241-6.791,17.026  c-0.03,0.067-0.052,0.131-0.075,0.206h300.686h12.191C325.779,152.096,324.96,146.356,324.063,140.686z"/>
<path style="fill:#1A9647;" d="M314.433,332.341h-2.218H20.183c36.708,83.251,119.922,141.383,216.751,141.383  c7.173,0,14.263-0.352,21.275-0.98c33.526-18.376,55.526-73.618,65.978-140.403L314.433,332.341L314.433,332.341z"/>
<path style="fill:#F3F4F5;" d="M314.433,314.914H13.317c0.079,0.221,0.146,0.445,0.228,0.673c2.001,5.688,4.222,11.279,6.638,16.753  h292.033h2.221h9.749c0.897-5.733,1.716-11.54,2.446-17.427h-12.199V314.914z"/>
<path style="fill:#214391;" d="M236.836,237.407L28.208,125.212H28.2C10.209,158.607,0,196.81,0,237.407  c0,40.253,10.063,78.139,27.785,111.328l209.051-111.291"/>
<polygon style="fill:#F8D12E;" points="60.047,183.759 83.427,215.026 120.393,202.442 97.88,234.337 121.275,265.608   83.973,254.06 61.472,285.97 60.922,246.925 23.631,235.384 60.589,222.797 "/>
<g>
</g>
<g>
</g>
<g>
</g>
<g>
</g>
<g>
</g>
<g>
</g>
<g>
</g>
<g>
</g>
<g>
</g>
<g>
</g>
<g>
</g>
<g>
</g>
<g>
</g>
<g>
</g>
<g>
</g>
</svg>
