<?xml version="1.0" encoding="iso-8859-1"?>
<!-- Generator: Adobe Illustrator 19.0.0, SVG Export Plug-In . SVG Version: 6.00 Build 0)  -->
<svg xmlns="http://www.w3.org/2000/svg" xmlns:xlink="http://www.w3.org/1999/xlink" version="1.1" id="Capa_1" x="0px" y="0px" viewBox="0 0 473.684 473.684" style="enable-background:new 0 0 473.684 473.684;" xml:space="preserve">
<path style="fill:#CD2029;" d="M236.954,0c-0.067,0-0.127,0-0.194,0v473.677c0.067,0,0.127-0.007,0.194-0.007  c130.717-0.101,236.648-106.095,236.648-236.827C473.602,106.095,367.671,0.108,236.954,0z"/>
<path style="fill:#DA1E34;" d="M236.76,0c-18.818,0-37.1,2.259-54.65,6.406c20.355,7.999,52.118,20.014,54.845,21.043v0.138  l-70.599,25.104l70.599,27.463v0.138l-70.599,25.096l70.599,27.456v0.138l-70.599,25.111l70.599,27.456v0.138l-70.599,25.104  l70.599,27.456v0.146l-70.599,25.096l70.599,27.463v0.138l-70.599,25.104l70.599,27.456v0.138l-70.599,25.104l70.599,25.893v0.138  l-70.6,26.677l70.599,27.448v0.138c-2.476,0.834-30.339,10.246-52.309,18.668c16.776,3.777,34.202,5.83,52.118,5.83  C367.566,473.677,367.566,0,236.76,0z"/>
<path style="fill:#EFEFEF;" d="M237.111,448.726l-70.599-27.448l70.599-26.667v-0.146l-70.599-25.893l70.599-25.096v-0.146  l-70.599-27.452l70.599-25.096v-0.146l-70.599-27.463l70.599-25.096v-0.146l-70.599-27.448l70.599-25.104v-0.146l-70.599-27.456  l70.599-25.104v-0.146l-70.599-27.452l70.599-25.089V79.84l-70.599-27.463l70.599-25.096v-0.146  c-2.726-1.028-34.49-13.036-54.845-21.035C77.828,30.78,0.082,124.539,0.082,236.528c0,112.883,79.006,207.262,184.72,231.012  c21.97-8.429,49.834-17.838,52.309-18.668V448.726z"/>
<g>
</g>
<g>
</g>
<g>
</g>
<g>
</g>
<g>
</g>
<g>
</g>
<g>
</g>
<g>
</g>
<g>
</g>
<g>
</g>
<g>
</g>
<g>
</g>
<g>
</g>
<g>
</g>
<g>
</g>
</svg>
