<?xml version="1.0" encoding="iso-8859-1"?>
<!-- Generator: Adobe Illustrator 19.0.0, SVG Export Plug-In . SVG Version: 6.00 Build 0)  -->
<svg xmlns="http://www.w3.org/2000/svg" xmlns:xlink="http://www.w3.org/1999/xlink" version="1.1" id="Capa_1" x="0px" y="0px" viewBox="0 0 476.868 476.868" style="enable-background:new 0 0 476.868 476.868;" xml:space="preserve">
<path style="fill:#518D51;" d="M317.926,13.628l-27.825,77.146c25.683,84.759,25.683,210.56,0,295.322l27.825,77.139  c92.589-32.742,158.942-121.001,158.942-224.809C476.868,134.637,410.515,46.37,317.926,13.628z"/>
<g>
	<path style="fill:#E4E4E4;" d="M317.926,90.775V13.628c-24.866-8.794-51.61-13.624-79.492-13.624   C275.2,0.004,224.222,124.604,317.926,90.775z"/>
	<path style="fill:#E4E4E4;" d="M238.434,476.864c27.881,0,54.626-4.83,79.492-13.624v-77.139   C225.163,376.84,238.434,476.864,238.434,476.864z"/>
</g>
<g>
	<path style="fill:#589F58;" d="M0,238.43c0,104.154,66.801,192.655,159.876,225.126V13.32C66.801,45.798,0,134.291,0,238.43z"/>
	<path style="fill:#589F58;" d="M317.926,90.775v295.322C343.612,301.335,343.612,175.533,317.926,90.775z"/>
</g>
<path style="fill:#F3F4F5;" d="M317.926,386.097V90.775C301.692,37.188,275.2,0.004,238.434,0.004  c-27.535,0-53.956,4.728-78.558,13.316v450.236c24.602,8.587,51.023,13.308,78.558,13.308  C275.2,476.864,301.692,439.68,317.926,386.097z"/>
<g>
</g>
<g>
</g>
<g>
</g>
<g>
</g>
<g>
</g>
<g>
</g>
<g>
</g>
<g>
</g>
<g>
</g>
<g>
</g>
<g>
</g>
<g>
</g>
<g>
</g>
<g>
</g>
<g>
</g>
</svg>
