<?xml version="1.0" encoding="iso-8859-1"?>
<!-- Generator: Adobe Illustrator 19.0.0, SVG Export Plug-In . SVG Version: 6.00 Build 0)  -->
<svg xmlns="http://www.w3.org/2000/svg" xmlns:xlink="http://www.w3.org/1999/xlink" version="1.1" id="Capa_1" x="0px" y="0px" viewBox="0 0 473.681 473.681" style="enable-background:new 0 0 473.681 473.681;" xml:space="preserve">
<path style="fill:#518D51;" d="M290.388,68.277l46.225-46.232C306.289,7.935,272.493,0,236.833,0  C264.825,0,274.372,34.176,290.388,68.277z"/>
<path style="fill:#DB2727;" d="M451.639,137.063L311.292,277.409c-3.01,112.427-12.221,196.268-74.455,196.268  c130.807,0,236.842-106.036,236.842-236.835C473.68,201.185,465.747,167.398,451.639,137.063z"/>
<path style="fill:#F3C515;" d="M316.281,272.428l135.354-135.361c-23.548-50.6-64.422-91.474-115.022-115.022l-52.197,52.208  C307.628,123.675,318.247,199.132,316.281,272.428z"/>
<path style="fill:#5C9A5C;" d="M0.003,236.842c0,35.657,7.924,69.444,22.045,99.779L302.822,55.839  C286.81,21.738,264.825,0,236.838,0C106.039,0,0.003,106.032,0.003,236.842z"/>
<path style="fill:#E03736;" d="M334.687,254.014L137.066,451.636c30.324,14.117,64.115,22.045,99.772,22.045  C299.075,473.677,331.677,366.441,334.687,254.014z"/>
<path style="fill:#F8D12E;" d="M302.822,55.839L22.048,336.621c23.548,50.6,64.422,91.474,115.022,115.014l197.621-197.621  C336.651,180.719,326.034,105.269,302.822,55.839z"/>
<g>
</g>
<g>
</g>
<g>
</g>
<g>
</g>
<g>
</g>
<g>
</g>
<g>
</g>
<g>
</g>
<g>
</g>
<g>
</g>
<g>
</g>
<g>
</g>
<g>
</g>
<g>
</g>
<g>
</g>
</svg>
