<svg height="437pt" viewBox="-55 0 437 437.02272" width="437pt" xmlns="http://www.w3.org/2000/svg"><path d="m268.054688 334.546875h-201.582032c-32.933594 0-59.632812 22.886719-59.632812 51.117187v44.457032h314.023437v-50.308594c0-25-23.644531-45.265625-52.808593-45.265625zm0 0" fill="#61c5a8"/><path d="m268.054688 334.546875v-6.828125h-201.582032c-18.050781.003906-34.515625 6.257812-46.609375 16.613281-12.085937 10.328125-19.85937475 25.007813-19.8515622 41.332031v44.457032c0 1.796875.7265622 3.554687 2.0000002 4.824218 1.269531 1.273438 3.027343 2 4.828125 2h314.023437c1.796875 0 3.554688-.726562 4.828125-2 1.269532-1.269531 2-3.027343 2-4.824218v-50.308594c.007813-14.707031-7.003906-27.925781-17.851562-37.191406-10.863282-9.300782-25.617188-14.898438-41.785156-14.902344v13.652344c12.996093-.003906 24.648437 4.535156 32.898437 11.617187 8.265625 7.113281 13.074219 16.527344 13.082031 26.824219v43.480469h-300.371094v-37.628907c.007813-11.910156 5.582032-22.789062 15.085938-30.960937 9.484375-8.144531 22.84375-13.335937 37.726562-13.332031h201.578126zm0 0" fill="#54596e"/><path d="m163.851562 382.332031c-15.082031 0-27.308593-12.226562-27.308593-27.304687v-68.269532h54.613281v68.269532c0 15.078125-12.226562 27.304687-27.304688 27.304687zm0 0" fill="#ffd578"/><path d="m163.851562 382.332031v-6.824219c-11.308593-.023437-20.460937-9.175781-20.480468-20.480468v-61.441406h40.960937v61.441406c-.019531 11.304687-9.175781 20.457031-20.480469 20.480468v13.652344c18.851563-.003906 34.128907-15.28125 34.132813-34.132812v-68.269532c0-1.796874-.726563-3.554687-2-4.828124-1.269531-1.269532-3.027344-1.996094-4.828125-1.996094h-54.613281c-1.796875 0-3.554688.726562-4.824219 1.996094-1.273438 1.273437-2 3.03125-2 4.828124v68.269532c.003906 18.851562 15.277344 34.125 34.132812 34.132812zm0 0" fill="#54596e"/><path d="m286.378906 114.839844c-3.617187-44.882813-60.785156-67.015625-122.527344-67.015625-61.742187 0-118.910156 22.132812-122.527343 67.015625l-16.703125 148.78125c-2.203125 19.617187 13.148437 36.792968 32.894531 36.792968h212.671875c19.742188 0 35.09375-17.171874 32.890625-36.792968zm0 0" fill="#fff35f"/><path d="m286.378906 114.839844 6.804688-.546875c-1-12.625-5.890625-23.859375-13.5-33.171875-11.441406-13.996094-28.667969-23.878906-48.777344-30.417969-20.136719-6.527344-43.289062-9.699219-67.054688-9.703125-31.691406.019531-62.285156 5.605469-86.09375 17.386719-11.894531 5.902343-22.125 13.402343-29.738281 22.734375-7.613281 9.3125-12.5 20.546875-13.5 33.171875l6.804688.546875-6.785157-.761719-16.703124 148.78125c-.167969 1.511719-.253907 3.019531-.25 4.511719.003906 21.753906 17.640624 39.847656 39.929687 39.867187h212.671875c22.289062-.019531 39.925781-18.113281 39.933594-39.867187 0-1.496094-.085938-3-.253906-4.515625l-16.703126-148.777344-6.785156.761719 6.804688-.546875-6.804688.546875-6.785156.761718 16.703125 148.78125c.113281 1.003907.167969 2.003907.167969 2.988282 0 7.136718-2.890625 13.671875-7.644532 18.464844-4.761718 4.78125-11.269531 7.746093-18.632812 7.75h-212.671875c-7.367187-.003907-13.875-2.96875-18.636719-7.753907-4.75-4.792969-7.640625-11.328125-7.640625-18.464843 0-.980469.054688-1.980469.167969-2.984376l16.703125-148.785156.019531-.210937c.808594-9.816407 4.421875-18.179688 10.476563-25.640625 9.054687-11.164063 23.945312-20.085938 42.40625-26.058594 18.433593-5.988281 40.296875-9.039062 62.839843-9.035156 30.054688-.023438 58.910157 5.457031 80.027344 15.964844 10.566406 5.238281 19.164063 11.6875 25.21875 19.128906 6.054688 7.460937 9.667969 15.824218 10.476563 25.640625l.019531.210937zm0 0" fill="#54596e"/><path d="m163.851562 334.546875c-56.554687 0-102.398437-66.328125-102.398437-122.882813v-102.398437h204.796875v102.398437c0 56.554688-45.84375 122.882813-102.398438 122.882813zm0 0" fill="#ffd578"/><path d="m163.851562 334.546875v-6.828125c-12.789062-.003906-25.050781-3.734375-36.433593-10.328125-17.058594-9.867187-31.984375-26.265625-42.503907-45.296875-10.546874-19.015625-16.652343-40.605469-16.636718-60.429688v-95.574218h191.148437v95.574218c.046875 26.4375-10.898437 55.984376-28.539062 78.4375-8.800781 11.238282-19.230469 20.703126-30.601563 27.289063-11.378906 6.59375-23.640625 10.324219-36.433594 10.328125v13.652344c15.488282.003906 30.164063-4.554688 43.285157-12.164063 19.695312-11.4375 36.039062-29.648437 47.601562-50.5 11.539063-20.871093 18.324219-44.449219 18.34375-67.039062v-102.398438c0-1.800781-.730469-3.558593-2-4.828125-1.273437-1.273437-3.03125-2-4.828125-2h-204.800781c-1.800781 0-3.558594.726563-4.828125 2-1.273438 1.269532-2 3.027344-2 4.824219v102.398437c.046875 30.117188 12.023438 62.011719 31.445312 86.859376 9.730469 12.414062 21.367188 23.0625 34.5 30.679687 13.117188 7.613281 27.792969 12.171875 43.28125 12.167969zm0 0" fill="#54596e"/><path d="m116.066406 187.773438c0 5.65625-4.585937 10.238281-10.242187 10.238281s-10.238281-4.582031-10.238281-10.238281 4.582031-10.242188 10.238281-10.242188 10.242187 4.585938 10.242187 10.242188zm0 0" fill="#54596e"/><path d="m232.117188 187.773438c0 5.65625-4.582032 10.238281-10.238282 10.238281s-10.242187-4.582031-10.242187-10.238281 4.585937-10.242188 10.242187-10.242188 10.238282 4.585938 10.238282 10.242188zm0 0" fill="#54596e"/><path d="m157.023438 259.453125h13.65625c7.539062 0 13.652343-6.113281 13.652343-13.652344 0-7.542969-6.113281-13.65625-13.652343-13.65625h-13.65625c-7.539063 0-13.652344 6.113281-13.652344 13.65625 0 7.539063 6.113281 13.652344 13.652344 13.652344" fill="#ff927d"/><path d="m136.542969 245.800781h54.613281c3.773438 0 6.828125-3.058593 6.828125-6.828125 0-3.769531-3.054687-6.828125-6.828125-6.828125h-54.613281c-3.769531 0-6.824219 3.058594-6.824219 6.828125 0 3.769532 3.054688 6.828125 6.824219 6.828125" fill="#ff927d"/><path d="m170.679688 430.121094v-47.789063c0-3.769531-3.058594-6.824219-6.828126-6.824219-3.769531 0-6.828124 3.054688-6.828124 6.824219v47.789063c0 3.769531 3.058593 6.824218 6.828124 6.824218 3.769532 0 6.828126-3.054687 6.828126-6.824218" fill="#54596e"/><path d="m102.410156 344.3125v85.808594h122.882813v-85.8125l-61.445313 44.851562zm0 0" fill="#fff"/><path d="m102.410156 344.3125h-6.824218v85.808594c0 1.796875.726562 3.554687 2 4.824218 1.269531 1.273438 3.027343 2 4.824218 2h122.882813c1.796875 0 3.554687-.726562 4.824219-2 1.273437-1.269531 2-3.027343 2-4.824218v-85.8125c0-2.570313-1.441407-4.921875-3.734376-6.085938-2.289062-1.164062-5.039062-.941406-7.117187.574219l-57.417969 41.910156-57.410156-41.90625c-2.078125-1.515625-4.828125-1.738281-7.117188-.574219-2.292968 1.164063-3.734374 3.519532-3.734374 6.085938h6.824218l-4.023437 5.511719 61.4375 44.847656c2.398437 1.75 5.652343 1.75 8.050781 0l50.589844-36.925781v65.546875h-109.226563v-78.980469h-6.828125l-4.023437 5.511719zm0 0" fill="#54596e"/><path d="m136.542969 389.160156-34.132813 13.652344-6.824218-68.265625h40.957031zm0 0" fill="#fff"/><path d="m136.542969 389.160156-2.535157-6.339844-25.707031 10.28125-5.171875-51.730468h26.589844v47.789062h6.824219l-2.535157-6.339844 2.535157 6.339844h6.828125v-54.613281c0-1.800781-.726563-3.558594-2-4.828125-1.269532-1.273438-3.027344-2-4.828125-2h-40.957031c-1.929688 0-3.769532.816406-5.0625 2.246094-1.292969 1.425781-1.925782 3.34375-1.730469 5.261718l6.824219 68.265626c.214843 2.132812 1.417968 4.042968 3.253906 5.15625 1.832031 1.113281 4.085937 1.296874 6.074218.5l34.132813-13.652344c2.582031-1.03125 4.292969-3.558594 4.292969-6.339844h-6.828125zm0 0" fill="#54596e"/><path d="m191.15625 389.160156 34.136719 13.652344 6.824219-68.265625h-40.960938zm0 0" fill="#fff"/><path d="m191.15625 389.160156-2.535156 6.335938 34.132812 13.65625c1.992188.792968 4.242188.609375 6.078125-.503906 1.832031-1.109376 3.035157-3.023438 3.25-5.15625l6.828125-68.265626c.191406-1.917968-.441406-3.832031-1.730468-5.257812-1.292969-1.429688-3.136719-2.246094-5.0625-2.246094h-40.960938c-1.796875 0-3.554688.726563-4.828125 1.996094-1.269531 1.273438-2 3.03125-2 4.828125v54.613281c0 2.78125 1.710937 5.304688 4.292969 6.339844l2.535156-6.339844h6.828125v-47.789062h26.589844l-5.171875 51.730468-25.707032-10.28125-2.539062 6.339844h6.828125zm0 0" fill="#54596e"/><path d="m54.625 129.746094c0 22.621094 48.902344 40.960937 109.226562 40.960937 60.324219 0 109.226563-18.339843 109.226563-40.960937zm0 0" fill="#999"/><path d="m54.625 129.746094h-6.828125c-.003906 4.066406 1.128906 8.011718 3.054687 11.523437 3.398438 6.167969 8.980469 11.167969 16 15.523438 10.5625 6.5 24.640626 11.574219 41.195313 15.160156 16.542969 3.566406 35.554687 5.578125 55.804687 5.578125 30.863282-.015625 58.8125-4.640625 79.632813-12.429688 10.414063-3.921874 19.082031-8.601562 25.539063-14.304687 3.21875-2.859375 5.898437-6 7.828124-9.527344 1.925782-3.511719 3.058594-7.453125 3.054688-11.523437 0-1.796875-.730469-3.554688-2-4.828125-1.273438-1.269531-3.03125-1.996094-4.828125-1.996094h-218.453125c-1.796875 0-3.558594.726563-4.828125 1.996094s-2 3.03125-2 4.828125h6.828125v6.828125h218.453125v-6.828125h-6.828125c-.003906 1.585937-.398438 3.164062-1.382812 4.984375-1.695313 3.164062-5.4375 6.917969-11.1875 10.445312-8.59375 5.320313-21.433594 10.105469-36.898438 13.429688-15.476562 3.335937-33.589844 5.273437-52.929688 5.273437-29.457031.015625-56.125-4.527344-74.835937-11.5625-9.351563-3.492187-16.679687-7.640625-21.277344-11.738281-2.308593-2.039063-3.917969-4.042969-4.902343-5.847656-.984376-1.820313-1.378907-3.398438-1.382813-4.984375h-6.828125v6.828125zm0 0" fill="#54596e"/><path d="m54.625 109.265625h218.453125v20.480469h-218.453125zm0 0" fill="#a1b7ff"/><path d="m273.078125 109.265625v-6.828125h-218.453125c-1.796875 0-3.558594.730469-4.828125 2-1.269531 1.273438-2 3.03125-2 4.828125v20.480469c0 1.796875.730469 3.554687 2 4.828125 1.273437 1.269531 3.03125 2 4.828125 2h218.453125c1.796875 0 3.554687-.730469 4.828125-2 1.269531-1.273438 2-3.03125 2-4.828125v-20.480469c0-1.796875-.730469-3.554687-2-4.828125-1.273438-1.269531-3.03125-2-4.828125-2v6.828125h-6.828125v13.652344h-204.796875v-6.824219h211.625v-6.828125h-6.828125zm0 0" fill="#54596e"/><path d="m124.972656 13.339844-90.828125 37.898437 20.480469 58.027344h218.453125l20.480469-58.027344-90.839844-37.902343c-25.375-8.679688-52.375-8.675782-77.746094.003906zm0 0" fill="#61c5a8"/><path d="m124.972656 13.339844-2.628906-6.300782-90.828125 37.898438c-3.347656 1.398438-5.011719 5.15625-3.808594 8.574219l20.480469 58.027343c.960938 2.71875 3.550781 4.554688 6.4375 4.554688h218.453125c2.886719 0 5.476563-1.835938 6.4375-4.554688l20.480469-58.027343c1.207031-3.417969-.464844-7.175781-3.808594-8.574219l-90.839844-37.902344-.417968-.160156c-13.386719-4.578125-27.234376-6.875-41.078126-6.875-13.851562 0-27.699218 2.296875-41.089843 6.878906l-.417969.160156 2.628906 6.300782 2.210938 6.457031c11.984375-4.101563 24.328125-6.144531 36.667968-6.144531 12.335938 0 24.675782 2.042968 36.660157 6.140625l2.210937-6.457031-2.628906 6.300781 84.878906 35.414062-16.722656 47.386719h-208.796875l-16.722656-47.386719 84.871093-35.414062-2.628906-6.296875 2.210938 6.457031zm0 0" fill="#54596e"/><path d="m143.359375 430.195312h40.960937l-9.101562-47.863281h-22.753906zm0 0" fill="#999"/><path d="m143.359375 430.195312v6.828126h40.960937c2.023438 0 3.96875-.914063 5.257813-2.472657 1.292969-1.5625 1.828125-3.640625 1.449219-5.628906l-9.105469-47.863281c-.609375-3.21875-3.429687-5.550782-6.707031-5.550782h-22.753906c-3.273438 0-6.09375 2.332032-6.707032 5.550782l-9.101562 47.863281c-.378906 1.988281.15625 4.066406 1.445312 5.628906 1.292969 1.558594 3.234375 2.472657 5.261719 2.472657v-6.828126l6.707031 1.277344 8.046875-42.3125h11.449219l6.507812 34.210938h-32.714843v6.824218l6.707031 1.277344zm0 0" fill="#54596e"/><g fill="#fff35f"><path d="m266.25 327.71875v47.789062h13.65625v-47.789062"/><path d="m238.945312 327.71875v47.789062h13.652344v-47.789062"/><path d="m34.144531 395.984375h40.960938v-13.652344h-40.960938"/><path d="m167.136719 27.414062 5.859375 18.023438c.460937 1.425781 1.789062 2.386719 3.285156 2.386719h18.953125c3.347656 0 4.742187 4.285156 2.03125 6.253906l-15.332031 11.140625c-1.210938.878906-1.71875 2.441406-1.253906 3.863281l5.855468 18.023438c1.035156 3.1875-2.609375 5.835937-5.320312 3.867187l-15.328125-11.136718c-1.210938-.882813-2.851563-.882813-4.066407 0l-15.328124 11.136718c-2.710938 1.96875-6.355469-.679687-5.320313-3.867187l5.855469-18.023438c.464844-1.421875-.042969-2.984375-1.253906-3.863281l-15.328126-11.140625c-2.710937-1.96875-1.316406-6.253906 2.027344-6.253906h18.953125c1.496094 0 2.820313-.960938 3.285157-2.386719l5.859374-18.023438c1.027344-3.183593 5.535157-3.183593 6.566407 0zm0 0"/></g><path d="m167.136719 27.414062-6.492188 2.109376 5.859375 18.023437c1.375 4.234375 5.324219 7.105469 9.777344 7.105469h18.953125v-3.417969l-2.496094 2.296875c.5625.667969 1.683594 1.152344 2.496094 1.121094v-3.414063l-2.496094 2.296875 2.410157-2.214844h-3.277344c.011718.839844.273437 1.550782.867187 2.214844l2.410157-2.214844h-3.277344 3.382812l-2.007812-2.753906c-.789063.519532-1.429688 1.8125-1.375 2.753906h3.382812l-2.007812-2.753906.007812-.007812-15.332031 11.140625.007813-.003907c-2.714844 1.96875-4.25 5.089844-4.246094 8.320313 0 1.0625.164062 2.136719.5 3.175781l5.859375 18.027344 3.089843-1.003906h-3.242187l.152344 1.003906 3.089843-1.003906h-3.242187 3.425781l-2.382812-2.484375c-.574219.53125-1.046875 1.457031-1.042969 2.484375h3.429687l-2.386718-2.484375 2.304687 2.398437v-3.308594c-.980469.007813-1.730469.367188-2.304687.910157l2.304687 2.398437v-3.308594 3.355469l1.976563-2.738281c-.472656-.355469-1.265625-.632812-1.976563-.617188v3.355469l1.976563-2.738281.019531.011719-15.332031-11.136719c-1.800782-1.308594-3.9375-1.96875-6.046875-1.964844-2.113281 0-4.246094.660156-6.039063 1.960938l-.007812.003906-15.328125 11.136719h.003906l1.988281 2.742187v-3.371094c-.707031-.011718-1.511718.265626-1.988281.628907l1.988281 2.738281v-3.367188 3.308594l2.308594-2.398437c-.570312-.542969-1.324219-.902344-2.308594-.914063v3.3125l2.308594-2.398437-2.382812 2.476562h3.421874c.003907-1.023437-.464843-1.945312-1.039062-2.476562l-2.382812 2.476562h3.421874-3.265624l3.105468 1.015625.160156-1.015625h-3.269531l3.109375 1.015625.003906-.011718 5.855469-18.023438c.339844-1.042969.503907-2.117188.503907-3.179688.003906-3.230468-1.527344-6.351562-4.253907-8.324218l.015625.007812-15.328125-11.136718h.003907l-2.007813 2.757812h3.386719c.054687-.941406-.582032-2.230469-1.378906-2.757812l-2.007813 2.757812h3.386719-3.277344l2.40625 2.214844c.589844-.660156.859375-1.375.867188-2.214844h-3.277344l2.40625 2.214844-2.492188-2.296875v3.417969c.8125.03125 1.929688-.453126 2.492188-1.121094l-2.492188-2.296875v3.417969h18.949219c4.457031 0 8.40625-2.871094 9.78125-7.109376l5.855469-18.023437-3.234375-1.050781 1.902343 2.792968c.625-.40625 1.152344-1.140624 1.332032-1.746093l-3.234375-1.046875 1.902343 2.792968-1.875-2.746093v3.339843c.605469 0 1.25-.164062 1.875-.585937l-1.875-2.753906v3.339843-3.339843l-1.875 2.75c.625.421875 1.265626.589843 1.875.589843v-3.339843l-1.875 2.75 1.902344-2.792969-3.234375 1.050781c.179688.601563.707031 1.339844 1.332031 1.742188l1.902344-2.792969-3.234375 1.050781 6.492188-2.105469 6.496093-2.109374c-.695312-2.191407-2.175781-4.125-3.96875-5.324219-1.789062-1.21875-3.816406-1.78125-5.8125-1.78125-1.988281 0-4.019531.5625-5.8125 1.777343-1.789062 1.203126-3.269531 3.132813-3.96875 5.328126l-5.855468 18.019531 3.207031 1.042969v-3.371094c-1.460937 0-2.757813.945312-3.207031 2.328125l3.207031 1.042969v-3.371094h-18.953125c-2.9375-.03125-5.785156 1.316406-7.550781 3.289062-1.792969 1.964844-2.726563 4.425782-2.738281 7.027344-.054688 2.972656 1.46875 6.320312 4.246093 8.285156v.003906l15.332031 11.136719.015626.011719 1.980468-2.738281h-3.382812c0 1.058593.5 2.085937 1.402344 2.738281l1.980468-2.738281h-3.382812 3.363281l-3.199219-1.039063-.164062 1.039063h3.363281l-3.199219-1.039063-5.855468 18.019532.003906-.007813c-.34375 1.046875-.519532 2.144531-.519532 3.226563 0 2.949218 1.296876 5.59375 3.152344 7.355468 1.855469 1.78125 4.347656 2.894532 7.15625 2.902344 2.0625.015625 4.261719-.675781 6.027344-1.972656l.003906-.003906 15.332032-11.136719h-.007813l-1.976563-2.71875v3.363281c.6875 0 1.390626-.21875 1.972657-.640625l-1.972657-2.722656v3.363281-3.371094l-1.980468 2.726563c.585937.425781 1.300781.648437 1.980468.644531v-3.371094l-1.980468 2.726563 15.328125 11.140625.019531.011718c1.765625 1.289063 3.953125 1.976563 6.011719 1.960938 2.808593-.007812 5.296875-1.117188 7.15625-2.898438 1.855469-1.761718 3.15625-4.40625 3.152343-7.359374 0-1.082032-.175781-2.179688-.515624-3.214844l-5.855469-18.023438-3.199219 1.039063h3.363281l-.164062-1.035157-3.199219 1.035157h3.359375-3.371094l1.980469 2.734375c.886719-.644532 1.394531-1.671875 1.390625-2.734375h-3.371094l1.980469 2.734375.003906-.003906 15.332032-11.140626.003906-.003906c2.769531-1.964844 4.296875-5.308594 4.242187-8.28125-.011719-2.605468-.945312-5.0625-2.738281-7.03125-1.765625-1.96875-4.613281-3.316406-7.554688-3.285156h-18.949218v3.367188l3.207031-1.039063c-.449219-1.386719-1.746094-2.328125-3.207031-2.328125v3.367188l3.207031-1.039063-5.859375-18.023437zm0 0" fill="#54596e"/></svg>