<svg height="436pt" viewBox="-41 0 436 436.90667" width="436pt" xmlns="http://www.w3.org/2000/svg"><path d="m295.804688 307.199219h-228.890626c-32.933593 0-59.636718 22.886719-59.636718 51.117187v71.761719h341.335937v-77.613281c0-25-23.648437-45.265625-52.808593-45.265625zm0 0" fill="#fff35f"/><path d="m295.804688 307.199219v-6.824219h-228.890626c-18.054687.003906-34.515624 6.253906-46.609374 16.613281-12.085938 10.328125-19.859376 25.007813-19.851563 41.328125v71.761719c0 1.800781.730469 3.558594 2 4.828125 1.269531 1.273438 3.027344 2 4.824219 2h341.335937c1.796875 0 3.554688-.726562 4.824219-2 1.273438-1.269531 2-3.027344 2-4.824219v-77.613281c.007812-14.707031-7.003906-27.925781-17.851562-37.191406-10.859376-9.300782-25.613282-14.898438-41.78125-14.902344v13.652344c12.996093-.003906 24.644531 4.53125 32.898437 11.613281 8.265625 7.117187 13.074219 16.53125 13.082031 26.828125v70.785156h-327.679687v-64.9375c.007812-11.910156 5.582031-22.785156 15.082031-30.960937 9.488281-8.140625 22.84375-13.332031 37.726562-13.328125h228.890626zm0 0" fill="#54596e"/><path d="m177.945312 368.640625c-18.855468 0-34.132812-15.285156-34.132812-34.132813v-13.65625c0-18.847656 15.277344-34.132812 34.132812-34.132812 18.851563 0 34.132813 15.285156 34.132813 34.132812v13.65625c0 18.847657-15.28125 34.132813-34.132813 34.132813zm0 0" fill="#bfad88"/><path d="m177.945312 368.640625v-6.828125c-7.5625-.003906-14.347656-3.046875-19.308593-8-4.953125-4.960938-7.996094-11.746094-8-19.304688v-13.65625c.003906-7.558593 3.046875-14.34375 8-19.308593 4.960937-4.949219 11.746093-7.992188 19.308593-7.996094 7.5625 0 14.347657 3.042969 19.308594 7.996094 4.953125 4.964843 7.996094 11.75 7.996094 19.308593v13.65625c0 7.558594-3.042969 14.34375-7.996094 19.304688-4.960937 4.953125-11.746094 7.996094-19.308594 8v13.652344c22.625 0 40.953126-18.335938 40.960938-40.957032v-13.65625c-.007812-22.621093-18.335938-40.953124-40.960938-40.957031-22.628906.003907-40.957031 18.335938-40.960937 40.957031v13.65625c.003906 22.621094 18.332031 40.953126 40.960937 40.957032zm0 0" fill="#54596e"/><path d="m27.757812 129.707031c0-22.625 67.238282-40.960937 150.1875-40.960937 82.945313 0 150.1875 18.335937 150.1875 40.960937" fill="#fff35f"/><path d="m34.585938 129.707031c.011718-1.097656.347656-2.347656 1.683593-4.160156 2.285157-3.144531 7.820313-7.214844 16.027344-10.851563 12.296875-5.535156 30.347656-10.402343 51.949219-13.777343 21.613281-3.390625 46.8125-5.347657 73.699218-5.34375 40.957032-.007813 78.054688 4.558593 104.402344 11.753906 13.15625 3.574219 23.628906 7.859375 30.28125 12.171875 3.332032 2.136719 5.667969 4.269531 6.992188 6.046875 1.335937 1.8125 1.671875 3.0625 1.6875 4.160156 0 3.769531 3.054687 6.828125 6.824218 6.828125 3.769532 0 6.828126-3.058594 6.828126-6.828125.011718-4.558593-1.753907-8.832031-4.417969-12.351562-4.714844-6.1875-12.003907-10.875-21.355469-15.117188-14.042969-6.289062-32.996094-11.28125-55.425781-14.8125-22.417969-3.511719-48.269531-5.503906-75.816407-5.503906-41.988281.007813-79.988281 4.609375-107.996093 12.234375-14.019531 3.839844-25.542969 8.378906-34.085938 13.867188-4.273437 2.761718-7.835937 5.773437-10.511719 9.332031-2.667968 3.519531-4.433593 7.792969-4.421874 12.351562 0 3.769531 3.058593 6.828125 6.828124 6.828125 3.769532 0 6.828126-3.058594 6.828126-6.828125zm0 0" fill="#54596e"/><path d="m82.371094 184.320312c0 15.082032-12.226563 27.304688-27.304688 27.304688-15.082031 0-27.308594-12.222656-27.308594-27.304688 0-15.082031 12.226563-27.308593 27.308594-27.308593 15.078125 0 27.304688 12.226562 27.304688 27.308593zm0 0" fill="#bfad88"/><path d="m82.371094 184.320312h6.828125c-.007813-18.855468-15.28125-34.128906-34.132813-34.132812-18.855468.003906-34.128906 15.277344-34.136718 34.132812.007812 18.851563 15.28125 34.128907 34.136718 34.132813 18.851563-.003906 34.125-15.28125 34.132813-34.132813h-13.652344c-.023437 11.304688-9.175781 20.460938-20.480469 20.480469-11.308594-.019531-20.460937-9.175781-20.480468-20.480469.019531-11.308593 9.171874-20.460937 20.480468-20.480468 11.304688.019531 20.457032 9.171875 20.480469 20.480468zm0 0" fill="#54596e"/><path d="m328.132812 184.320312c0 15.082032-12.226562 27.304688-27.308593 27.304688s-27.304688-12.222656-27.304688-27.304688c0-15.082031 12.222657-27.308593 27.304688-27.308593s27.308593 12.226562 27.308593 27.308593zm0 0" fill="#bfad88"/><path d="m328.132812 184.320312h6.824219c-.003906-18.855468-15.277343-34.128906-34.132812-34.132812-18.851563.003906-34.128907 15.277344-34.132813 34.132812.003906 18.851563 15.28125 34.128907 34.132813 34.132813 18.855469-.003906 34.128906-15.28125 34.132812-34.132813h-13.652343c-.019532 11.304688-9.171876 20.460938-20.480469 20.480469-11.304688-.019531-20.457031-9.175781-20.480469-20.480469.023438-11.308593 9.175781-20.460937 20.480469-20.480468 11.308593.019531 20.460937 9.171875 20.480469 20.480468zm0 0" fill="#54596e"/><path d="m218.816406 41.679688c-.90625 22.285156-43.269531 40.242187-95.484375 40.242187-13.019531 0-25.425781-1.128906-36.738281-3.148437-15.429688 19.703124-24.703125 44.449218-24.703125 71.414062v61.4375c0 64.09375 51.960937 116.054688 116.054687 116.054688s116.054688-51.960938 116.054688-116.054688v-61.4375c0-49.6875-31.28125-91.957031-75.183594-108.507812zm0 0" fill="#bfad88"/><g fill="#54596e"><path d="m218.816406 41.679688-6.820312-.277344c-.136719 3.367187-1.828125 7.054687-5.917969 11.089844-6.066406 6.011718-17.273437 11.914062-31.707031 16.007812-14.429688 4.132812-32.050782 6.597656-51.039063 6.59375-12.625 0-24.644531-1.097656-35.539062-3.042969-2.488281-.441406-5.019531.523438-6.578125 2.511719-16.316406 20.832031-26.152344 47.082031-26.148438 75.625v61.4375c.003906 67.867188 55.011719 122.875 122.878906 122.882812 67.867188-.003906 122.875-55.015624 122.878907-122.882812v-61.4375c-.007813-52.617188-33.121094-97.386719-79.597657-114.894531-2.050781-.773438-4.351562-.515625-6.175781.695312-1.828125 1.210938-2.964843 3.226563-3.050781 5.414063l6.816406.277344-2.40625 6.386718c41.324219 15.589844 70.769532 55.363282 70.761719 102.121094v61.4375c-.003906 30.183594-12.214844 57.449219-31.992187 77.234375-19.789063 19.777344-47.050782 31.992187-77.234376 31.992187-30.183593 0-57.445312-12.214843-77.234374-31.992187-19.777344-19.785156-31.988282-47.050781-31.992188-77.234375v-61.4375c.003906-25.386719 8.710938-48.628906 23.246094-67.207031l-5.371094-4.207031-1.203125 6.71875c11.730469 2.09375 24.527344 3.253906 37.941406 3.253906 26.898438-.015625 51.285157-4.570313 69.636719-12.300782 9.179688-3.882812 16.886719-8.554687 22.667969-14.199218 5.738281-5.601563 9.683593-12.515625 10-20.289063l-6.820313-.277343-2.40625 6.386718zm0 0"/><path d="m140.757812 258.691406 13.644532 6.828125c.964844.480469 1.976562.71875 3.054687.71875h40.96875c1.078125 0 2.085938-.238281 3.050781-.71875l13.65625-6.828125c3.371094-1.6875 4.738282-5.789062 3.050782-9.160156-1.683594-3.371094-5.785156-4.738281-9.15625-3.054688l-12.214844 6.109376h-37.742188l-12.207031-6.105469c-3.371093-1.6875-7.472656-.320313-9.15625 3.054687-1.6875 3.367188-.324219 7.46875 3.050781 9.15625zm0 0"/><path d="m130.160156 187.734375c0 5.65625-4.585937 10.238281-10.242187 10.238281s-10.238281-4.582031-10.238281-10.238281 4.582031-10.242187 10.238281-10.242187 10.242187 4.585937 10.242187 10.242187zm0 0"/><path d="m246.210938 187.734375c0 5.65625-4.582032 10.238281-10.238282 10.238281s-10.242187-4.582031-10.242187-10.238281 4.585937-10.242187 10.242187-10.242187 10.238282 4.585937 10.238282 10.242187zm0 0"/></g><path d="m177.945312 6.828125c-64.09375 0-116.054687 51.957031-116.054687 116.050781v6.828125h232.109375v-6.828125c0-64.09375-51.960938-116.050781-116.054688-116.050781zm0 0" fill="#ffd578"/><path d="m177.945312 6.828125v-6.828125c-67.867187.00390625-122.875 55.011719-122.878906 122.878906v6.828125c0 1.796875.726563 3.554688 2 4.824219 1.269532 1.273438 3.027344 2.003906 4.824219 2.003906h232.109375c1.796875 0 3.554688-.730468 4.824219-2 1.273437-1.273437 2-3.03125 2-4.828125v-6.828125c-.003907-67.867187-55.011719-122.87499975-122.878907-122.878906v13.652344c30.183594.003906 57.445313 12.21875 77.234376 31.996094 19.777343 19.785156 31.988281 47.046874 31.992187 77.230468h-218.453125c.003906-30.183594 12.214844-57.445312 31.992188-77.234375 19.789062-19.777343 47.050781-31.988281 77.234374-31.992187zm0 0" fill="#54596e"/><path d="m328.132812 129.707031c0 22.621094-67.242187 40.960938-150.1875 40.960938-82.949218 0-150.1875-18.339844-150.1875-40.960938" fill="#fff35f"/><path d="m321.304688 129.707031c-.011719 1.09375-.347657 2.347657-1.6875 4.15625-2.285157 3.144531-7.816407 7.214844-16.023438 10.855469-12.296875 5.53125-30.351562 10.398438-51.949219 13.777344-21.613281 3.390625-46.8125 5.34375-73.699219 5.34375-40.957031.007812-78.054687-4.558594-104.402343-11.757813-13.160157-3.574219-23.628907-7.859375-30.28125-12.167969-3.332031-2.140624-5.667969-4.273437-6.992188-6.050781-1.335937-1.808593-1.671875-3.0625-1.683593-4.15625 0-3.769531-3.058594-6.828125-6.828126-6.828125-3.769531 0-6.828124 3.058594-6.828124 6.828125-.011719 4.558594 1.753906 8.828125 4.417968 12.351563 4.714844 6.1875 12.003906 10.871094 21.359375 15.113281 14.042969 6.289063 32.992188 11.28125 55.425781 14.8125 22.414063 3.511719 48.265626 5.507813 75.8125 5.507813 41.992188-.007813 79.988282-4.609376 107.996094-12.238282 14.019532-3.839844 25.542969-8.378906 34.089844-13.867187 4.265625-2.761719 7.832031-5.773438 10.511719-9.328125 2.664062-3.523438 4.425781-7.792969 4.414062-12.351563 0-3.769531-3.054687-6.828125-6.824219-6.828125-3.769531 0-6.828124 3.058594-6.828124 6.828125zm0 0" fill="#54596e"/><path d="m198.425781 102.398438v-95.570313h-40.960937v95.570313" fill="#fff35f"/><path d="m205.25 102.398438v-95.570313c0-1.800781-.726562-3.554687-1.996094-4.828125-1.273437-1.269531-3.03125-2-4.828125-2h-40.960937c-1.796875 0-3.554688.726562-4.828125 2-1.269531 1.269531-2 3.027344-2 4.828125v95.570313c0 3.773437 3.058593 6.828124 6.828125 6.828124 3.769531 0 6.828125-3.054687 6.828125-6.828124v-88.746094h27.304687v88.746094c0 3.773437 3.058594 6.828124 6.828125 6.828124s6.824219-3.054687 6.824219-6.828124zm0 0" fill="#54596e"/><path d="m61.890625 136.535156h232.109375c3.769531 0 6.824219-3.058594 6.824219-6.828125s-3.054688-6.828125-6.824219-6.828125h-232.109375c-3.769531 0-6.824219 3.058594-6.824219 6.828125s3.054688 6.828125 6.824219 6.828125" fill="#54596e"/><path d="m246.210938 307.199219v88.746093h-136.53125v-88.746093h-40.960938v122.878906h218.453125v-122.878906zm0 0" fill="#55a6ff"/><path d="m246.210938 307.199219h-6.824219v81.921875h-122.882813v-81.921875c0-1.796875-.726562-3.554688-1.996094-4.828125-1.273437-1.269532-3.03125-1.996094-4.828124-1.996094h-40.960938c-1.796875 0-3.558594.726562-4.828125 1.996094-1.269531 1.273437-2 3.03125-2 4.828125v122.878906c0 1.800781.730469 3.558594 2 4.828125 1.269531 1.273438 3.03125 2 4.828125 2h218.453125c1.796875 0 3.554687-.726562 4.828125-2 1.269531-1.269531 1.996094-3.027344 1.996094-4.828125v-122.878906c0-1.796875-.726563-3.554688-1.996094-4.828125-1.273438-1.269532-3.03125-1.996094-4.828125-1.996094h-40.960937c-1.796876 0-3.554688.726562-4.828126 1.996094-1.269531 1.273437-1.996093 3.03125-1.996093 4.828125h6.824219v6.828125h34.132812v109.226562h-204.796875v-109.226562h27.304687v81.917968c0 1.796876.730469 3.554688 2 4.828126 1.273438 1.269531 3.03125 2 4.828126 2h136.53125c1.796874 0 3.554687-.730469 4.828124-2 1.269532-1.273438 2-3.03125 2-4.828126v-88.746093h-6.828124v6.828125zm0 0" fill="#54596e"/></svg>