<svg height="436pt" viewBox="-34 0 436 436.90624" width="436pt" xmlns="http://www.w3.org/2000/svg"><path d="m150.640625 286.722656h68.265625v109.226563h-68.265625zm0 0" fill="#ffd578"/><path d="m218.90625 395.949219v-6.828125h-61.441406v-95.574219h54.613281v102.402344h6.828125v-6.828125 6.828125h6.828125v-109.226563c0-1.800781-.730469-3.558594-2-4.828125-1.273437-1.273437-3.03125-2-4.828125-2h-68.265625c-1.796875 0-3.558594.726563-4.828125 2-1.273438 1.269531-2 3.027344-2 4.828125v109.226563c0 1.796875.730469 3.554687 2 4.824219 1.273438 1.273437 3.03125 2 4.828125 2h68.265625c1.796875 0 3.554688-.726563 4.828125-2 1.269531-1.269532 2-3.027344 2-4.824219zm0 0" fill="#54596e"/><path d="m302.632812 320.855469h-43.039062l-74.820312 75.09375-74.820313-75.09375h-36.210937c-32.933594 0-59.632813 22.886719-59.632813 51.117187v58.109375h341.332031v-63.960937c0-25-23.648437-45.265625-52.808594-45.265625zm0 0" fill="#8065c4"/><path d="m302.632812 320.855469v-6.828125h-43.039062c-1.824219 0-3.546875.714844-4.835938 2.007812l-69.984374 70.238282-69.984376-70.238282c-1.289062-1.292968-3.011718-2.007812-4.835937-2.007812h-36.210937c-18.054688.003906-34.515626 6.257812-46.609376 16.613281-12.085937 10.328125-19.859374 25.007813-19.851562 41.332031v58.109375c0 1.796875.730469 3.554688 2 4.824219 1.269531 1.273438 3.027344 2 4.824219 2h341.335937c1.796875 0 3.554688-.726562 4.824219-2 1.273437-1.269531 2-3.027344 2-4.824219v-63.960937c.007813-14.707032-7.003906-27.925782-17.851563-37.191406-10.859374-9.300782-25.613281-14.898438-41.78125-14.902344v13.652344c12.996094-.003907 24.644532 4.535156 32.898438 11.617187 8.265625 7.117187 13.074219 16.53125 13.082031 26.824219v57.132812h-327.679687v-51.28125c.007812-11.914062 5.582031-22.789062 15.082031-30.964844 9.488281-8.140624 22.84375-13.332031 37.726563-13.328124h33.375l72.820312 73.085937c1.289062 1.292969 3.011719 2.007813 4.835938 2.007813 1.824218 0 3.550781-.714844 4.835937-2.007813l72.820313-73.085937h40.203124zm0 0" fill="#54596e"/><path d="m150.640625 368.640625-34.132813 13.652344-6.828124-68.265625h40.960937zm0 0" fill="#fff"/><path d="m150.640625 368.640625-2.535156-6.339844-25.710938 10.285157-5.171875-51.734376h26.589844v47.789063h6.828125l-2.535156-6.339844 2.535156 6.339844h6.824219v-54.613281c0-1.796875-.726563-3.554688-2-4.828125-1.269532-1.269531-3.027344-1.996094-4.824219-1.996094h-40.960937c-1.925782 0-3.769532.816406-5.0625 2.242187-1.292969 1.429688-1.921876 3.34375-1.730469 5.261719l6.828125 68.265625c.210937 2.132813 1.417968 4.046875 3.25 5.15625 1.832031 1.113282 4.085937 1.300782 6.074218.503906l34.136719-13.65625c2.582031-1.03125 4.289063-3.554687 4.289063-6.335937zm0 0" fill="#54596e"/><path d="m218.90625 368.640625 34.132812 13.652344 6.828126-68.265625h-40.960938zm0 0" fill="#fff"/><path d="m218.90625 368.640625-2.535156 6.339844 34.132812 13.652343c1.988282.796876 4.242188.609376 6.074219-.5 1.835937-1.113281 3.039063-3.027343 3.253906-5.15625l6.824219-68.269531c.191406-1.914062-.4375-3.832031-1.730469-5.257812-1.289062-1.429688-3.132812-2.246094-5.0625-2.246094h-40.957031c-1.796875 0-3.558594.726563-4.828125 2-1.273437 1.269531-2 3.027344-2 4.828125v54.613281c0 2.78125 1.707031 5.304688 4.289063 6.335938l2.539062-6.339844h6.828125v-47.789063h26.589844l-5.175781 51.734376-25.707032-10.285157-2.535156 6.339844h6.828125zm0 0" fill="#54596e"/><path d="m75.546875 402.773438v20.480468c0 3.769532 3.054687 6.828125 6.828125 6.828125 3.769531 0 6.824219-3.058593 6.824219-6.828125v-20.480468c0-3.769532-3.054688-6.824219-6.824219-6.824219-3.773438 0-6.828125 3.054687-6.828125 6.824219" fill="#54596e"/><path d="m280.347656 402.773438v20.480468c0 3.769532 3.054688 6.828125 6.824219 6.828125s6.828125-3.058593 6.828125-6.828125v-20.480468c0-3.769532-3.058594-6.824219-6.828125-6.824219s-6.824219 3.054687-6.824219 6.824219" fill="#54596e"/><path d="m341.785156 184.320312c0 15.082032-12.222656 27.308594-27.304687 27.308594s-27.308594-12.226562-27.308594-27.308594c0-15.082031 12.226563-27.304687 27.308594-27.304687s27.304687 12.222656 27.304687 27.304687zm0 0" fill="#ffd578"/><path d="m341.785156 184.320312h6.828125c-.003906-18.851562-15.28125-34.128906-34.132812-34.132812-18.855469.003906-34.128907 15.28125-34.132813 34.132812.003906 18.855469 15.277344 34.128907 34.132813 34.132813 18.851562 0 34.128906-15.277344 34.132812-34.132813h-13.652343c-.023438 11.308594-9.175782 20.460938-20.480469 20.480469-11.308594-.019531-20.460938-9.171875-20.480469-20.480469.019531-11.304687 9.171875-20.457031 20.480469-20.480468 11.304687.023437 20.457031 9.175781 20.480469 20.480468zm0 0" fill="#54596e"/><path d="m82.375 184.320312c0 15.082032-12.226562 27.308594-27.308594 27.308594-15.082031 0-27.304687-12.226562-27.304687-27.308594 0-15.082031 12.222656-27.304687 27.304687-27.304687 15.082032 0 27.308594 12.222656 27.308594 27.304687zm0 0" fill="#ffd578"/><path d="m82.375 184.320312h6.824219c-.003907-18.851562-15.277344-34.128906-34.132813-34.132812-18.851562.003906-34.128906 15.28125-34.132812 34.132812.003906 18.855469 15.28125 34.128907 34.132812 34.132813 18.855469 0 34.128906-15.277344 34.132813-34.132813h-13.652344c-.019531 11.308594-9.171875 20.460938-20.480469 20.480469-11.304687-.019531-20.460937-9.171875-20.480468-20.480469.019531-11.304687 9.175781-20.457031 20.480468-20.480468 11.308594.023437 20.460938 9.175781 20.480469 20.480468zm0 0" fill="#54596e"/><path d="m184.773438 334.507812c64.09375 0 116.054687-51.960937 116.054687-116.054687v-62.875c0-25.601563-20.753906-46.351563-46.347656-46.351563h-139.414063c-25.59375 0-46.347656 20.75-46.347656 46.351563v62.875c0 64.09375 51.960938 116.054687 116.054688 116.054687zm0 0" fill="#ffd578"/><path d="m184.773438 334.507812v6.828126c67.867187-.003907 122.875-55.015626 122.878906-122.882813v-62.875c-.003906-29.375-23.804688-53.171875-53.171875-53.175781h-139.414063c-29.367187.003906-53.167968 23.800781-53.171875 53.175781v62.875c.003907 67.867187 55.011719 122.875 122.878907 122.882813v-13.65625c-30.183594 0-57.445313-12.214844-77.234376-31.992188-19.777343-19.789062-31.988281-47.050781-31.992187-77.234375v-62.875c.003906-10.9375 4.414063-20.773437 11.574219-27.949219 7.175781-7.164062 17.011718-11.570312 27.945312-11.574218h139.414063c10.933593 0 20.769531 4.410156 27.941406 11.574218 7.164063 7.175782 11.574219 17.011719 11.578125 27.949219v62.875c-.003906 30.183594-12.214844 57.449219-31.992188 77.234375-19.789062 19.777344-47.050781 31.988281-77.234374 31.992188zm0 0" fill="#54596e"/><path d="m150.640625 252.589844c0 18.847656 15.277344 34.132812 34.132813 34.132812 18.851562 0 34.132812-15.285156 34.132812-34.132812zm0 0" fill="#54596e"/><path d="m150.640625 252.589844h-6.828125c.003906 22.621094 18.332031 40.953125 40.960938 40.957031 22.625-.003906 40.953124-18.335937 40.960937-40.957031 0-1.800782-.730469-3.558594-2-4.828125-1.269531-1.273438-3.027344-2-4.828125-2h-68.265625c-1.796875 0-3.554687.726562-4.828125 2-1.269531 1.269531-1.996094 3.027343-1.996094 4.828125h6.824219v6.824218h68.265625v-6.824218h-6.828125c0 7.558594-3.042969 14.34375-7.996094 19.304687-4.960937 4.953125-11.746093 7.996094-19.308593 8-7.5625-.003906-14.347657-3.046875-19.308594-8-4.953125-4.960937-7.996094-11.746093-8-19.304687h-6.824219v6.824218zm0 0" fill="#54596e"/><path d="m198.425781 273.066406c0-3.769531-6.113281-6.824218-13.652343-6.824218-7.539063 0-13.652344 3.054687-13.652344 6.824218 0 3.773438 6.113281 6.828125 13.652344 6.828125 7.539062 0 13.652343-3.054687 13.652343-6.828125zm0 0" fill="#ff927d"/><path d="m150.640625 194.5625c0 5.652344-4.585937 10.238281-10.242187 10.238281-5.652344 0-10.238282-4.585937-10.238282-10.238281 0-5.65625 4.585938-10.242188 10.238282-10.242188 5.65625 0 10.242187 4.585938 10.242187 10.242188zm0 0" fill="#54596e"/><path d="m239.386719 194.5625c0 5.652344-4.585938 10.238281-10.242188 10.238281-5.652343 0-10.238281-4.585937-10.238281-10.238281 0-5.65625 4.585938-10.242188 10.238281-10.242188 5.65625 0 10.242188 4.585938 10.242188 10.242188zm0 0" fill="#54596e"/><g fill="#ff927d"><path d="m259.867188 245.761719c0 3.769531-3.058594 6.828125-6.828126 6.828125-3.769531 0-6.824218-3.058594-6.824218-6.828125s3.054687-6.828125 6.824218-6.828125c3.769532 0 6.828126 3.058594 6.828126 6.828125zm0 0"/><path d="m130.160156 252.589844c0 3.769531-3.058594 6.824218-6.828125 6.824218s-6.824219-3.054687-6.824219-6.824218c0-3.773438 3.054688-6.828125 6.824219-6.828125s6.828125 3.054687 6.828125 6.828125zm0 0"/><path d="m116.507812 238.933594c0 3.769531-3.058593 6.828125-6.828124 6.828125-3.769532 0-6.828126-3.058594-6.828126-6.828125 0-3.769532 3.058594-6.824219 6.828126-6.824219 3.769531 0 6.828124 3.054687 6.828124 6.824219zm0 0"/><path d="m143.8125 225.28125c0 3.769531-3.054688 6.828125-6.824219 6.828125-3.773437 0-6.828125-3.058594-6.828125-6.828125s3.054688-6.828125 6.828125-6.828125c3.769531 0 6.824219 3.058594 6.824219 6.828125zm0 0"/><path d="m246.214844 225.28125c0 3.769531-3.058594 6.828125-6.828125 6.828125s-6.828125-3.058594-6.828125-6.828125 3.058594-6.828125 6.828125-6.828125 6.828125 3.058594 6.828125 6.828125zm0 0"/><path d="m273.519531 218.453125c0 3.773437-3.054687 6.828125-6.828125 6.828125-3.769531 0-6.824218-3.054688-6.824218-6.828125 0-3.769531 3.054687-6.824219 6.824218-6.824219 3.773438 0 6.828125 3.054688 6.828125 6.824219zm0 0"/></g><path d="m68.71875 47.789062h232.109375v102.398438h-232.109375zm0 0" fill="#8065c4"/><path d="m300.828125 47.789062v-6.828124h-232.109375c-1.796875 0-3.554688.726562-4.828125 2-1.269531 1.269531-1.996094 3.027343-1.996094 4.828124v102.398438c0 1.796875.726563 3.554688 2 4.828125 1.269531 1.269531 3.027344 1.996094 4.824219 1.996094h232.109375c1.796875 0 3.554687-.726563 4.824219-1.996094 1.273437-1.273437 2-3.03125 2-4.828125v-102.398438c0-1.800781-.726563-3.554687-1.996094-4.828124-1.273438-1.273438-3.03125-2-4.828125-2v6.828124h-6.828125v95.570313h-218.453125v-88.746094h225.28125v-6.824219h-6.828125zm0 0" fill="#54596e"/><path d="m184.773438 6.828125-177.492188 40.960937 177.492188 40.957032 177.492187-40.957032zm0 0" fill="#8065c4"/><path d="m184.773438 6.828125-1.535157-6.652344-177.496093 40.960938c-3.09375.710937-5.289063 3.476562-5.289063 6.652343 0 3.171876 2.199219 5.9375 5.289063 6.648438l177.496093 40.960938c1.011719.234374 2.058594.234374 3.070313 0l177.492187-40.960938c3.09375-.710938 5.289063-3.476562 5.289063-6.648438 0-3.175781-2.195313-5.941406-5.289063-6.652343l-177.492187-40.960938c-1.011719-.2343748-2.058594-.2343748-3.070313 0l1.535157 6.652344-1.535157 6.652344 148.667969 34.304687-147.136719 33.957032-147.128906-33.957032 148.667969-34.304687-1.535156-6.652344-1.535157 6.652344zm0 0" fill="#54596e"/><path d="m341.785156 122.882812v-68.269531c0-3.769531-3.054687-6.824219-6.824218-6.824219-3.769532 0-6.828126 3.054688-6.828126 6.824219v68.269531c0 3.769532 3.058594 6.824219 6.828126 6.824219 3.769531 0 6.824218-3.054687 6.824218-6.824219" fill="#61c5a8"/><path d="m354.292969 139.574219-13.652344-20.480469c-1.265625-1.902344-3.398437-3.039062-5.679687-3.039062-2.285157 0-4.414063 1.136718-5.679688 3.039062l-13.65625 20.480469c-2.089844 3.136719-1.242188 7.375 1.894531 9.464843 3.136719 2.09375 7.375 1.246094 9.46875-1.890624l7.972657-11.960938 7.972656 11.960938c2.09375 3.136718 6.332031 3.984374 9.46875 1.890624 3.132812-2.089843 3.984375-6.328124 1.890625-9.464843zm0 0" fill="#61c5a8"/></svg>