<svg height="437pt" viewBox="-34 0 437 437.02272" width="437pt" xmlns="http://www.w3.org/2000/svg"><path d="m150.195312 286.757812h68.269532v81.921876h-68.269532zm0 0" fill="#ffd578"/><path d="m218.464844 368.679688v-6.828126h-61.441406v-68.265624h54.613281v75.09375h6.828125v-6.828126 6.828126h6.824218v-81.921876c0-1.796874-.726562-3.554687-1.996093-4.828124-1.273438-1.269532-3.03125-1.996094-4.828125-1.996094h-68.265625c-1.796875 0-3.558594.726562-4.828125 1.996094-1.273438 1.273437-2 3.03125-2 4.828124v81.921876c0 1.796874.730468 3.554687 2 4.824218 1.273437 1.273438 3.03125 2 4.828125 2h68.265625c1.796875 0 3.554687-.726562 4.828125-2 1.269531-1.269531 2-3.027344 2-4.824218zm0 0" fill="#54596e"/><path d="m309.015625 320.894531h-49.867187l-74.820313 54.613281-74.820313-54.613281h-43.039062c-32.929688 0-59.632812 22.882813-59.632812 51.113281v58.113282h354.988281v-63.960938c0-25-23.648438-45.265625-52.808594-45.265625zm0 0" fill="#55a6ff"/><path d="m309.015625 320.894531v-6.828125h-49.867187c-1.457032 0-2.84375.453125-4.023438 1.3125l-70.796875 51.675782-70.792969-51.675782c-1.175781-.859375-2.566406-1.3125-4.023437-1.3125h-43.042969c-18.050781.003906-34.511719 6.257813-46.605469 16.613282-12.085937 10.328124-19.85937475 25.007812-19.8515622 41.328124v58.113282c0 1.796875.7265622 3.554687 2.0000002 4.824218 1.269531 1.273438 3.027343 2 4.828125 2h354.984375c1.796875 0 3.554687-.726562 4.828125-2 1.269531-1.269531 2-3.027343 2-4.824218v-63.960938c.007812-14.707031-7.003906-27.925781-17.851563-37.191406-10.863281-9.304688-25.617187-14.898438-41.78125-14.902344v13.652344c12.992188-.003906 24.640625 4.535156 32.894531 11.617188 8.265626 7.117187 13.078126 16.53125 13.085938 26.824218v57.132813h-341.335938v-51.28125c.007813-11.910157 5.582032-22.789063 15.082032-30.964844 9.488281-8.140625 22.84375-13.332031 37.722656-13.328125h40.816406l73.019532 53.300781c2.398437 1.75 5.652343 1.75 8.050781 0l73.019531-53.300781h47.640625zm0 0" fill="#54596e"/><path d="m122.890625 330.660156v99.460938h122.878906v-99.464844l-61.441406 44.851562zm0 0" fill="#a1b7ff"/><path d="m122.890625 330.660156h-6.828125v99.460938c0 1.796875.730469 3.554687 2 4.824218 1.273438 1.273438 3.03125 2 4.828125 2h122.878906c1.796875 0 3.554688-.726562 4.828125-2 1.269532-1.269531 2-3.027343 2-4.824218v-99.464844c0-2.570312-1.445312-4.921875-3.734375-6.085938-2.292969-1.164062-5.042969-.945312-7.121093.570313l-57.414063 41.914063-57.414063-41.910157c-2.074218-1.515625-4.824218-1.734375-7.113281-.570312-2.292969 1.164062-3.734375 3.515625-3.734375 6.085937h6.824219l-4.023437 5.511719 61.4375 44.847656c2.398437 1.75 5.652343 1.75 8.050781 0l50.585937-36.929687v79.203125h-109.226562v-92.632813h-6.824219l-4.023437 5.511719zm0 0" fill="#54596e"/><path d="m150.195312 375.507812-34.132812 13.652344-13.652344-68.265625h47.785156zm0 0" fill="#a1b7ff"/><path d="m150.195312 375.507812-2.535156-6.339843-26.511718 10.605469-10.410157-52.054688h32.632813v47.789062h6.824218l-2.535156-6.339843 2.535156 6.339843h6.828126v-54.613281c0-1.800781-.730469-3.558593-2-4.832031-1.273438-1.269531-3.03125-1.996094-4.828126-1.996094h-47.785156c-2.050781 0-3.980468.914063-5.28125 2.5-1.296875 1.582032-1.816406 3.65625-1.414062 5.664063l13.652344 68.265625c.398437 1.984375 1.664062 3.699218 3.441406 4.664062 1.78125.964844 3.90625 1.089844 5.789062.335938l34.132813-13.652344c2.582031-1.035156 4.292969-3.558594 4.292969-6.339844h-6.828126zm0 0" fill="#54596e"/><path d="m218.464844 375.507812 34.132812 13.652344 13.652344-68.265625h-47.785156zm0 0" fill="#a1b7ff"/><path d="m218.464844 375.507812-2.539063 6.335938 34.132813 13.652344c1.878906.753906 4.007812.628906 5.789062-.335938 1.78125-.960937 3.042969-2.675781 3.441406-4.660156l13.652344-68.269531c.402344-2.007813-.113281-4.082031-1.414062-5.664063-1.296875-1.585937-3.230469-2.5-5.277344-2.5h-47.785156c-1.800782 0-3.558594.726563-4.828125 2-1.273438 1.269532-2 3.027344-2 4.828125v54.613281c0 2.78125 1.707031 5.304688 4.289062 6.339844l2.539063-6.339844h6.824218v-47.789062h32.632813l-10.410156 52.050781-26.511719-10.605469-2.535156 6.34375h6.824218zm0 0" fill="#54596e"/><path d="m163.84375 430.195312h40.960938l-9.109376-61.515624h-22.753906zm0 0" fill="#999"/><path d="m163.84375 430.195312v6.828126h40.960938c1.972656 0 3.875-.871094 5.164062-2.367188 1.292969-1.496094 1.875-3.507812 1.585938-5.460938l-9.105469-61.515624c-.496094-3.34375-3.375-5.828126-6.753907-5.828126h-22.753906c-3.378906 0-6.257812 2.484376-6.753906 5.828126l-9.101562 61.519531c-.285157 1.953125.296874 3.960937 1.585937 5.457031 1.292969 1.496094 3.195313 2.367188 5.167969 2.367188v-6.828126l6.753906 1 8.238281-55.6875h10.972657l7.085937 47.863282h-33.050781v6.824218l6.753906 1zm0 0" fill="#54596e"/><path d="m88.757812 184.359375c0 15.082031-12.226562 27.304687-27.308593 27.304687s-27.304688-12.222656-27.304688-27.304687 12.222657-27.308594 27.304688-27.308594 27.308593 12.226563 27.308593 27.308594zm0 0" fill="#ffd578"/><path d="m88.757812 184.359375h6.824219c-.003906-18.855469-15.277343-34.128906-34.132812-34.132813-18.851563.003907-34.128907 15.277344-34.132813 34.132813.003906 18.851563 15.28125 34.128906 34.132813 34.132813 18.855469-.003907 34.128906-15.28125 34.132812-34.132813h-13.652343c-.019532 11.304687-9.171876 20.460937-20.480469 20.480469-11.304688-.019532-20.460938-9.175782-20.480469-20.480469.019531-11.308594 9.175781-20.460937 20.480469-20.480469 11.308593.019532 20.460937 9.171875 20.480469 20.480469zm0 0" fill="#54596e"/><path d="m334.515625 184.359375c0 15.082031-12.226563 27.304687-27.304687 27.304687-15.082032 0-27.308594-12.222656-27.308594-27.304687s12.226562-27.308594 27.308594-27.308594c15.078124 0 27.304687 12.226563 27.304687 27.308594zm0 0" fill="#ffd578"/><path d="m334.515625 184.359375h6.828125c-.007812-18.855469-15.28125-34.128906-34.132812-34.132813-18.855469.003907-34.128907 15.277344-34.132813 34.132813.003906 18.851563 15.277344 34.128906 34.132813 34.132813 18.851562-.003907 34.125-15.28125 34.132812-34.132813h-13.652344c-.023437 11.304687-9.175781 20.460937-20.480468 20.480469-11.308594-.019532-20.460938-9.175782-20.480469-20.480469.019531-11.308594 9.171875-20.460937 20.480469-20.480469 11.304687.019532 20.457031 9.171875 20.480468 20.480469zm0 0" fill="#54596e"/><path d="m225.203125 41.71875c-.90625 22.289062-43.273437 40.242188-95.488281 40.242188-13.019532 0-25.425782-1.128907-36.738282-3.148438-15.425781 19.703125-24.699218 44.449219-24.699218 71.414062v61.4375c0 64.097657 51.957031 116.054688 116.050781 116.054688s116.054687-51.957031 116.054687-116.054688v-61.4375c0-49.6875-31.28125-91.957031-75.179687-108.507812zm0 0" fill="#ffd578"/><g fill="#54596e"><path d="m225.203125 41.71875-6.820313-.277344c-.136718 3.367188-1.828124 7.054688-5.917968 11.089844-6.066406 6.011719-17.273438 11.914062-31.707032 16.007812-14.433593 4.132813-32.050781 6.597657-51.042968 6.59375-12.625 0-24.644532-1.097656-35.539063-3.042968-2.488281-.441406-5.015625.523437-6.574219 2.515625-16.316406 20.828125-26.15625 47.078125-26.152343 75.621093v61.4375c.003906 67.867188 55.011719 122.875 122.878906 122.882813 67.867187-.003906 122.875-55.011719 122.882813-122.882813v-61.4375c-.011719-52.617187-33.125-97.386718-79.601563-114.894531-2.046875-.773437-4.347656-.515625-6.175781.695313-1.824219 1.210937-2.960938 3.226562-3.050782 5.414062l6.820313.277344-2.410156 6.390625c41.328125 15.589844 70.773437 55.359375 70.761719 102.117187v61.4375c0 30.183594-12.214844 57.449219-31.992188 77.234376-19.785156 19.777343-47.050781 31.988281-77.234375 31.996093-30.183594-.003906-57.445313-12.21875-77.234375-31.996093-19.777344-19.785157-31.988281-47.050782-31.992188-77.234376v-61.4375c.003907-25.386718 8.714844-48.628906 23.25-67.207031l-5.375-4.207031-1.199218 6.71875c11.730468 2.097656 24.523437 3.253906 37.9375 3.253906 26.898437-.015625 51.285156-4.570312 69.636718-12.300781 9.179688-3.882813 16.890626-8.554687 22.667969-14.199219 5.742188-5.601562 9.6875-12.515625 10.003907-20.289062l-6.820313-.277344-2.410156 6.390625zm0 0"/><path d="m147.140625 258.730469 13.648437 6.828125c.964844.480468 1.972657.71875 3.054688.71875h40.964844c1.078125 0 2.089844-.238282 3.054687-.71875l13.652344-6.828125c3.371094-1.6875 4.738281-5.785157 3.054687-9.160157-1.6875-3.371093-5.789062-4.738281-9.160156-3.050781l-12.210937 6.101563h-37.742188l-12.207031-6.101563c-3.371094-1.691406-7.472656-.324219-9.160156 3.050781s-.320313 7.472657 3.050781 9.160157zm0 0"/><path d="m136.542969 187.773438c0 5.65625-4.585938 10.238281-10.238281 10.238281-5.65625 0-10.242188-4.582031-10.242188-10.238281s4.585938-10.242188 10.242188-10.242188c5.652343 0 10.238281 4.585938 10.238281 10.242188zm0 0"/><path d="m252.597656 187.773438c0 5.65625-4.585937 10.238281-10.242187 10.238281s-10.238281-4.582031-10.238281-10.238281 4.582031-10.242188 10.238281-10.242188 10.242187 4.585938 10.242187 10.242188zm0 0"/></g><path d="m54.621094 129.746094c0 22.621094 58.074218 40.960937 129.707031 40.960937 71.636719 0 129.707031-18.339843 129.707031-40.960937zm0 0" fill="#55a6ff"/><path d="m54.621094 129.746094h-6.824219c-.011719 4.308594 1.425781 8.433594 3.730469 11.96875 4.078125 6.203125 10.535156 11.035156 18.726562 15.328125 12.308594 6.378906 28.8125 11.402343 48.292969 14.953125 19.472656 3.535156 41.894531 5.535156 65.78125 5.535156 36.414063-.011719 69.367187-4.621094 93.773437-12.3125 12.214844-3.871094 22.304688-8.46875 29.824219-14.058594 3.753907-2.808594 6.890625-5.890625 9.203125-9.445312 2.304688-3.535156 3.742188-7.65625 3.730469-11.96875 0-1.800782-.726563-3.554688-1.996094-4.828125-1.273437-1.273438-3.03125-2-4.828125-2h-259.414062c-1.796875 0-3.554688.726562-4.828125 2-1.269531 1.269531-1.996094 3.03125-1.996094 4.828125h6.824219v6.828125h259.414062v-6.828125h-6.824218c-.011719 1.34375-.390626 2.742187-1.539063 4.542968-1.972656 3.125-6.585937 7.046876-13.5625 10.636719-10.441406 5.445313-25.898437 10.28125-44.4375 13.636719-18.550781 3.371094-40.222656 5.316406-63.34375 5.316406-35.21875.011719-67.117187-4.546875-89.65625-11.679687-11.261719-3.539063-20.164063-7.769531-25.769531-11.980469-2.8125-2.09375-4.769532-4.15625-5.914063-5.929688-1.152343-1.800781-1.527343-3.199218-1.539062-4.542968h-6.828125v6.828125zm0 0" fill="#54596e"/><path d="m54.621094 109.265625h259.414062v20.480469h-259.414062zm0 0" fill="#a1b7ff"/><path d="m314.035156 109.265625v-6.828125h-259.414062c-1.796875 0-3.554688.730469-4.828125 2-1.269531 1.273438-1.996094 3.03125-1.996094 4.828125v20.480469c0 1.796875.726563 3.554687 2 4.828125 1.269531 1.269531 3.027344 1.996093 4.824219 1.996093h259.414062c1.796875 0 3.554688-.726562 4.828125-1.996093 1.269531-1.273438 2-3.03125 2-4.828125v-20.480469c0-1.796875-.730469-3.554687-2-4.828125-1.269531-1.269531-3.027343-2-4.824219-2v6.828125h-6.828124v13.652344h-245.761719v-6.824219h252.585937v-6.828125h-6.824218zm0 0" fill="#54596e"/><path d="m139.308594 13.339844-105.164063 37.898437 20.476563 58.027344h259.414062l20.480469-58.027344-105.179687-37.902343c-29.378907-8.679688-60.644532-8.675782-90.027344.003906zm0 0" fill="#55a6ff"/><path d="m139.308594 13.339844-2.3125-6.421875-105.167969 37.898437c-3.527344 1.273438-5.371094 5.160156-4.121094 8.695313l20.476563 58.027343c.960937 2.71875 3.554687 4.550782 6.4375 4.550782h259.414062c2.886719 0 5.476563-1.832032 6.4375-4.550782l20.480469-58.027343c1.25-3.535157-.59375-7.425781-4.121094-8.695313l-105.179687-37.902344-.382813-.125c-15.320312-4.527343-31.128906-6.789062-46.941406-6.789062s-31.628906 2.261719-46.953125 6.789062l-.378906.125 2.3125 6.425782 1.9375 6.546875c14.058594-4.15625 28.570312-6.234375 43.082031-6.234375s29.015625 2.078125 43.074219 6.230468l1.933594-6.546874-2.3125 6.421874 98.800781 35.605469-16.617188 47.074219h-249.757812l-16.613281-47.074219 98.789062-35.601562-2.316406-6.421875 1.9375 6.546875zm0 0" fill="#54596e"/><path d="m187.742188 88.785156c-13.191407 0-23.890626-10.695312-23.890626-23.890625v-30.722656h47.785157v30.722656c0 13.195313-10.699219 23.890625-23.894531 23.890625zm0 0" fill="#fff35f"/><path d="m187.742188 88.785156v-6.824218c-9.421876-.019532-17.046876-7.644532-17.066407-17.066407v-23.898437h34.132813v23.898437c-.015625 9.421875-7.644532 17.046875-17.066406 17.066407v13.652343c16.964843-.003906 30.714843-13.75 30.722656-30.71875v-30.722656c0-1.796875-.730469-3.554687-2-4.828125-1.273438-1.269531-3.03125-1.996094-4.828125-1.996094h-47.785157c-1.796874 0-3.558593.726563-4.828124 1.996094-1.273438 1.273438-2 3.03125-2 4.828125v30.722656c.007812 16.96875 13.753906 30.714844 30.722656 30.71875v-6.828125zm0 0" fill="#54596e"/></svg>