<svg height="436pt" viewBox="-13 0 436 436.90667" width="436pt" xmlns="http://www.w3.org/2000/svg"><path d="m341.964844 307.199219h-82.097656v-54.613281h-109.226563v54.613281h-74.183594c-38.203125 0-69.175781 22.886719-69.175781 51.117187v71.761719h395.945312v-77.613281c0-25-27.425781-45.265625-61.261718-45.265625zm0 0" fill="#ffd578"/><path d="m341.964844 307.199219v-6.824219h-75.273438v-47.789062c0-1.796876-.726562-3.554688-2-4.828126-1.269531-1.269531-3.027344-1.996093-4.824218-1.996093h-109.226563c-1.796875 0-3.558594.726562-4.828125 1.996093-1.269531 1.273438-2 3.03125-2 4.828126v47.789062h-67.355469c-20.464843.011719-39.113281 6.085938-52.972656 16.308594-13.816406 10.160156-23.03125 24.914062-23.03125 41.632812v71.761719c0 1.800781.730469 3.558594 2 4.828125 1.273437 1.273438 3.03125 2 4.828125 2h395.945312c1.796876 0 3.554688-.726562 4.828126-2 1.269531-1.269531 2-3.027344 2-4.824219v-77.613281c0-15.105469-8.332032-28.398438-20.714844-37.5-12.425782-9.164062-29.09375-14.582031-47.371094-14.59375v13.652344c15.550781-.011719 29.515625 4.703125 39.257812 11.921875 9.789063 7.277343 15.171876 16.621093 15.171876 26.519531v70.785156h-382.292969v-64.9375c0-11.511718 6.273437-22.316406 17.492187-30.652344 11.179688-8.28125 27.121094-13.648437 44.859375-13.636718h74.183594c1.796875 0 3.554687-.726563 4.824219-2 1.273437-1.269532 2-3.027344 2-4.824219v-47.789063h95.574218v47.789063c0 1.796875.730469 3.554687 2 4.824219 1.273438 1.273437 3.03125 2 4.828126 2h82.097656zm0 0" fill="#54596e"/><path d="m103.339844 386.582031-13.652344 34.136719c-1.398438 3.5.300781 7.472656 3.804688 8.875 3.5 1.398438 7.472656-.304688 8.871093-3.804688l13.652344-34.132812c1.402344-3.503906-.300781-7.476562-3.800781-8.875-3.5-1.402344-7.472656.300781-8.875 3.800781" fill="#54596e"/><path d="m301.316406 391.65625 13.652344 34.132812c1.398438 3.5 5.371094 5.203126 8.871094 3.804688 3.5-1.402344 5.203125-5.375 3.804687-8.875l-13.65625-34.136719c-1.398437-3.5-5.371093-5.203125-8.871093-3.800781-3.5 1.398438-5.203126 5.371094-3.800782 8.875" fill="#54596e"/><path d="m348.613281 122.878906c0 15.082032-12.226562 27.308594-27.304687 27.308594-15.082032 0-27.308594-12.226562-27.308594-27.308594 0-15.078125 12.226562-27.304687 27.308594-27.304687 15.078125 0 27.304687 12.226562 27.304687 27.304687zm0 0" fill="#ffd578"/><path d="m348.613281 122.878906h6.828125c-.007812-18.851562-15.28125-34.128906-34.132812-34.132812-18.855469.003906-34.128906 15.28125-34.136719 34.132812.007813 18.855469 15.28125 34.128906 34.136719 34.132813 18.851562 0 34.125-15.277344 34.132812-34.132813h-13.65625c-.019531 11.308594-9.171875 20.460938-20.476562 20.480469-11.308594-.019531-20.460938-9.171875-20.480469-20.480469.019531-11.304687 9.171875-20.457031 20.480469-20.480468 11.304687.023437 20.457031 9.175781 20.476562 20.480468zm0 0" fill="#54596e"/><path d="m116.507812 122.878906c0 15.082032-12.226562 27.308594-27.308593 27.308594s-27.304688-12.226562-27.304688-27.308594c0-15.078125 12.222657-27.304687 27.304688-27.304687s27.308593 12.226562 27.308593 27.304687zm0 0" fill="#ffd578"/><path d="m116.507812 122.878906h6.824219c-.003906-18.851562-15.277343-34.128906-34.132812-34.132812-18.851563.003906-34.128907 15.28125-34.132813 34.132812.003906 18.855469 15.28125 34.128906 34.132813 34.132813 18.855469 0 34.128906-15.277344 34.132812-34.132813h-13.652343c-.019532 11.308594-9.171876 20.460938-20.480469 20.480469-11.304688-.019531-20.457031-9.171875-20.480469-20.480469.023438-11.304687 9.175781-20.457031 20.480469-20.480468 11.308593.023437 20.460937 9.175781 20.480469 20.480468zm0 0" fill="#54596e"/><path d="m176.402344 6.828125c-44.390625 0-80.375 42.808594-80.375 87.199219v167.335937c0 10.234375 9.050781 18.53125 20.214844 18.53125h178.023437c11.164063 0 20.214844-8.296875 20.214844-18.53125v-167.335937c0-44.390625-35.984375-87.199219-80.375-87.199219zm0 0" fill="#ffd578"/><path d="m176.402344 6.828125v-6.828125c-24.453125.0078125-46.324219 11.78125-61.921875 29.226562-15.613281 17.46875-25.257813 40.746094-25.28125 64.800782v167.335937c-.007813 7.164063 3.207031 13.640625 8.132812 18.132813 4.929688 4.519531 11.625 7.21875 18.910157 7.222656h178.023437c7.28125 0 13.976563-2.703125 18.90625-7.222656 4.929687-4.492188 8.140625-10.96875 8.136719-18.132813v-167.335937c-.023438-24.050782-9.671875-47.328125-25.28125-64.800782-15.59375-17.445312-37.472656-29.2187495-61.921875-29.226562h-57.703125v13.652344h57.703125c19.941406-.003906 38.253906 9.625 51.746093 24.679687 13.476563 15.035157 21.824219 35.355469 21.800782 55.695313v167.335937c-.003906 3.070313-1.316406 5.859375-3.707032 8.070313-2.386718 2.191406-5.796874 3.636718-9.679687 3.636718h-178.023437c-3.882813 0-7.292969-1.445312-9.683594-3.636718-2.386719-2.210938-3.699219-5-3.707032-8.070313v-167.335937c-.019531-20.339844 8.324219-40.660156 21.800782-55.695313 13.496094-15.054687 31.808594-24.683593 51.75-24.679687zm0 0" fill="#54596e"/><path d="m171.121094 105.8125c0 5.65625-4.585938 10.242188-10.242188 10.242188s-10.238281-4.585938-10.238281-10.242188 4.582031-10.238281 10.238281-10.238281 10.242188 4.582031 10.242188 10.238281zm0 0" fill="#54596e"/><path d="m259.867188 105.8125c0 5.65625-4.585938 10.242188-10.242188 10.242188-5.652344 0-10.238281-4.585938-10.238281-10.242188s4.585937-10.238281 10.238281-10.238281c5.65625 0 10.242188 4.582031 10.242188 10.238281zm0 0" fill="#54596e"/><path d="m280.347656 204.800781h-150.1875l6.828125-27.308593h136.53125zm0 0" fill="#8065c4"/><path d="m280.347656 204.800781v-6.828125h-141.445312l3.414062-13.65625h125.875l5.53125 22.140625 6.625-1.65625v-6.828125 6.828125l6.621094-1.65625-6.824219-27.308593c-.761719-3.039063-3.492187-5.167969-6.625-5.167969h-136.53125c-3.136719 0-5.863281 2.128906-6.625 5.167969l-6.828125 27.308593c-.507812 2.035157-.046875 4.203125 1.242188 5.855469 1.292968 1.65625 3.285156 2.625 5.382812 2.625h150.1875c2.09375 0 4.089844-.972656 5.378906-2.625 1.292969-1.648438 1.753907-3.820312 1.242188-5.855469zm0 0" fill="#54596e"/><path d="m198.425781 361.8125v68.265625c0 3.773437 3.058594 6.828125 6.828125 6.828125 3.769532 0 6.824219-3.054688 6.824219-6.828125v-68.265625c0-3.769531-3.054687-6.824219-6.824219-6.824219-3.769531 0-6.828125 3.054688-6.828125 6.824219" fill="#54596e"/><path d="m167.609375 347.1875 34.132813 20.480469c2.164062 1.296875 4.859374 1.296875 7.023437 0l34.132813-20.480469c3.234374-1.941406 4.28125-6.132812 2.34375-9.367188-1.941407-3.230468-6.136719-4.28125-9.367188-2.339843l-30.621094 18.371093-30.621094-18.375c-3.234374-1.9375-7.429687-.890624-9.367187 2.34375-1.941406 3.234376-.890625 7.425782 2.34375 9.367188zm0 0" fill="#54596e"/><path d="m185.738281 225.210938 47.789063-6.828126c3.730468-.53125 6.324218-3.988281 5.792968-7.722656-.535156-3.730468-3.992187-6.324218-7.722656-5.792968l-47.789062 6.828124c-3.730469.53125-6.324219 3.988282-5.792969 7.722657.535156 3.730469 3.992187 6.328125 7.722656 5.792969" fill="#54596e"/><g fill="#ff927d"><path d="m138.988281 38.960938 34.132813 34.132812c2.664062 2.664062 6.988281 2.664062 9.652344 0 2.667968-2.667969 2.667968-6.988281 0-9.65625l-34.132813-34.132812c-2.664063-2.664063-6.988281-2.664063-9.652344 0-2.667969 2.667968-2.667969 6.988281 0 9.65625"/><path d="m173.121094 29.304688-37.546875 37.546874c-2.667969 2.667969-2.667969 6.988282 0 9.65625 2.664062 2.664063 6.988281 2.664063 9.652343 0l37.546876-37.546874c2.667968-2.667969 2.667968-6.988282 0-9.65625-2.667969-2.664063-6.988282-2.664063-9.652344 0"/><path d="m310.214844 329.175781-34.132813 27.304688c-2.945312 2.355469-3.421875 6.652343-1.066406 9.597656 2.355469 2.941406 6.648437 3.421875 9.59375 1.066406l34.132813-27.308593c2.945312-2.355469 3.421874-6.648438 1.066406-9.59375-2.355469-2.945313-6.648438-3.421876-9.59375-1.066407"/><path d="m30.492188 339.96875 27.304687 20.480469c3.015625 2.261719 7.296875 1.648437 9.558594-1.367188s1.648437-7.296875-1.367188-9.558593l-27.304687-20.476563c-3.015625-2.265625-7.296875-1.652344-9.558594 1.363281s-1.648438 7.296875 1.367188 9.558594"/><path d="m55.785156 324.625-13.652344 27.308594c-1.683593 3.371094-.320312 7.472656 3.054688 9.160156 3.371094 1.6875 7.472656.320312 9.160156-3.054688l13.652344-27.304687c1.6875-3.375.320312-7.472656-3.054688-9.160156-3.371093-1.6875-7.472656-.320313-9.160156 3.050781"/></g></svg>