<svg height="436pt" viewBox="-27 0 436 436.90667" width="436pt" xmlns="http://www.w3.org/2000/svg"><path d="m309.457031 307.199219h-228.886719c-32.9375 0-59.636718 22.886719-59.636718 51.117187v71.761719h341.332031v-77.613281c0-25-23.640625-45.265625-52.808594-45.265625zm0 0" fill="#fff35f"/><path d="m309.457031 307.199219v-6.824219h-228.886719c-18.054687.003906-34.515624 6.253906-46.613281 16.613281-12.082031 10.324219-19.859375 25.007813-19.851562 41.328125v71.761719c0 1.800781.730469 3.558594 2 4.828125 1.273437 1.273438 3.03125 2 4.828125 2h341.332031c1.796875 0 3.554687-.726562 4.828125-2 1.269531-1.269531 2-3.027344 2-4.824219v-77.613281c.007812-14.707031-7.003906-27.925781-17.851562-37.191406-10.863282-9.300782-25.617188-14.898438-41.785157-14.902344v13.652344c12.996094-.003906 24.644531 4.53125 32.898438 11.613281 8.265625 7.117187 13.074219 16.53125 13.082031 26.828125v70.785156h-327.675781v-64.9375c.007812-11.910156 5.582031-22.785156 15.082031-30.960937 9.488281-8.140625 22.84375-13.332031 37.726562-13.328125h228.886719zm0 0" fill="#54596e"/><path d="m375.921875 150.1875c0 22.621094-82.527344 40.960938-184.320313 40.960938-101.796874 0-184.320312-18.339844-184.320312-40.960938zm0 0" fill="#54596e"/><path d="m375.921875 150.1875h-6.828125c-.007812.664062-.242188 1.75-1.941406 3.628906-2.894532 3.253906-10.007813 7.5-20.261719 11.195313-15.394531 5.644531-37.738281 10.535156-64.410156 13.9375-26.6875 3.410156-57.75 5.371093-90.878907 5.371093-50.476562.007813-96.199218-4.570312-128.855468-11.835937-16.308594-3.613281-29.371094-7.949219-37.808594-12.398437-4.214844-2.203126-7.230469-4.445313-8.890625-6.269532-1.699219-1.878906-1.933594-2.964844-1.941406-3.628906h-6.824219v6.824219h368.640625v-6.824219h-6.828125 6.828125v-6.828125h-368.640625c-1.796875 0-3.558594.726563-4.828125 2-1.269531 1.269531-2 3.027344-2 4.828125-.007813 4.988281 2.335937 9.425781 5.550781 12.878906 5.699219 6.078125 14.320313 10.582032 25.617188 14.769532 16.933594 6.183593 40.003906 11.148437 67.367187 14.65625 27.347657 3.492187 58.9375 5.480468 92.613281 5.480468 51.316407-.007812 97.757813-4.597656 131.8125-12.160156 17.046876-3.800781 30.976563-8.285156 41.195313-13.640625 5.113281-2.695313 9.339844-5.597656 12.585937-9.105469 3.214844-3.453125 5.558594-7.890625 5.550782-12.878906 0-1.796875-.726563-3.554688-2-4.828125-1.269532-1.269531-3.027344-2-4.824219-2zm0 0" fill="#54596e"/><path d="m96.027344 184.320312c0 15.082032-12.226563 27.304688-27.308594 27.304688-15.078125 0-27.304688-12.222656-27.304688-27.304688 0-15.082031 12.226563-27.308593 27.304688-27.308593 15.082031 0 27.308594 12.226562 27.308594 27.308593zm0 0" fill="#ffd578"/><path d="m96.027344 184.320312h6.824218c-.003906-18.855468-15.277343-34.128906-34.132812-34.132812-18.851562.003906-34.125 15.277344-34.132812 34.132812.007812 18.851563 15.28125 34.128907 34.132812 34.132813 18.855469-.003906 34.128906-15.28125 34.132812-34.132813h-13.652343c-.019531 11.304688-9.171875 20.460938-20.480469 20.480469-11.304688-.019531-20.457031-9.175781-20.480469-20.480469.023438-11.308593 9.175781-20.460937 20.480469-20.480468 11.308594.019531 20.460938 9.171875 20.480469 20.480468zm0 0" fill="#54596e"/><path d="m123.332031 307.199219h-47.785156v122.878906h34.132813zm0 0" fill="#ff927d"/><path d="m123.332031 307.199219v-6.824219h-47.785156c-1.796875 0-3.558594.726562-4.828125 1.996094-1.269531 1.273437-2 3.03125-2 4.828125v122.878906c0 1.800781.730469 3.558594 2 4.828125 1.273438 1.273438 3.03125 2 4.828125 2h34.132813c3.480468 0 6.398437-2.613281 6.785156-6.070312l13.652344-122.882813c.214843-1.9375-.398438-3.851563-1.699219-5.304687-1.300781-1.457032-3.132813-2.273438-5.085938-2.273438v6.824219l-6.785156-.753907-12.976563 116.808594h-21.195312v-109.226562h40.957031v-6.828125l-6.785156-.753907zm0 0" fill="#54596e"/><path d="m307.652344 307.199219h-47.785156l13.652343 122.878906h34.132813zm0 0" fill="#ff927d"/><path d="m307.652344 307.199219v-6.824219h-47.785156c-1.953126 0-3.785157.816406-5.085938 2.273438-1.300781 1.453124-1.914062 3.367187-1.699219 5.304687l13.652344 122.878906c.382813 3.460938 3.304687 6.074219 6.785156 6.074219h34.132813c1.796875 0 3.554687-.726562 4.828125-2 1.269531-1.269531 2-3.027344 2-4.824219v-122.878906c0-1.800781-.730469-3.558594-2-4.828125-1.269531-1.273438-3.03125-2-4.828125-2v6.824219h-6.824219v116.054687h-21.199219l-12.136718-109.226562h40.160156v-6.828125h-6.824219zm0 0" fill="#54596e"/><path d="m341.785156 184.320312c0 15.082032-12.222656 27.304688-27.304687 27.304688s-27.308594-12.222656-27.308594-27.304688c0-15.082031 12.226563-27.308593 27.308594-27.308593s27.304687 12.226562 27.304687 27.308593zm0 0" fill="#ffd578"/><path d="m341.785156 184.320312h6.828125c-.003906-18.855468-15.28125-34.128906-34.132812-34.132812-18.855469.003906-34.128907 15.277344-34.132813 34.132812.003906 18.851563 15.277344 34.128907 34.132813 34.132813 18.851562-.003906 34.128906-15.28125 34.132812-34.132813h-13.652343c-.019532 11.304688-9.175782 20.460938-20.480469 20.480469-11.308594-.019531-20.460938-9.175781-20.480469-20.480469.019531-11.308593 9.171875-20.460937 20.480469-20.480468 11.304687.019531 20.460937 9.171875 20.480469 20.480468zm0 0" fill="#54596e"/><path d="m221.136719 368.640625h-59.074219c-47.78125 0-86.515625-38.734375-86.515625-86.515625v-77.324219h232.105469v77.324219c0 47.78125-38.730469 86.515625-86.515625 86.515625zm0 0" fill="#fff35f"/><path d="m221.136719 368.640625v-6.828125h-59.074219c-22.027344-.003906-41.90625-8.90625-56.347656-23.339844-14.433594-14.441406-23.339844-34.320312-23.339844-56.347656v-70.5h218.453125v70.5c-.003906 22.027344-8.910156 41.90625-23.34375 56.347656-14.441406 14.433594-34.320313 23.335938-56.347656 23.339844v13.652344c51.554687 0 93.339843-41.785156 93.34375-93.339844v-77.324219c0-1.800781-.730469-3.558593-2-4.828125-1.269531-1.269531-3.03125-2-4.828125-2h-232.105469c-1.796875 0-3.558594.726563-4.828125 2-1.269531 1.269532-2 3.027344-2 4.828125v77.324219c.003906 51.554688 41.789062 93.335938 93.34375 93.339844h59.074219zm0 0" fill="#54596e"/><path d="m232.472656 41.679688c-.902344 22.285156-43.269531 40.242187-95.484375 40.242187-13.023437 0-25.425781-1.128906-36.742187-3.148437-15.421875 19.703124-24.699219 44.449218-24.699219 71.414062v61.4375c0 64.09375 51.960937 116.054688 116.054687 116.054688s116.050782-51.960938 116.050782-116.054688v-61.4375c0-49.6875-31.28125-91.957031-75.179688-108.507812zm0 0" fill="#ffd578"/><g fill="#54596e"><path d="m232.472656 41.679688-6.820312-.277344c-.136719 3.371094-1.828125 7.058594-5.917969 11.09375-6.0625 6.011718-17.269531 11.910156-31.703125 16.003906-14.429688 4.132812-32.054688 6.597656-51.042969 6.59375-12.632812 0-24.644531-1.097656-35.542969-3.042969-2.484374-.441406-5.015624.523438-6.574218 2.511719-16.3125 20.832031-26.15625 47.082031-26.152344 75.625v61.4375c.007812 67.867188 55.015625 122.875 122.882812 122.882812 67.863282-.003906 122.875-55.015624 122.878907-122.882812v-61.4375c-.007813-52.617188-33.125-97.386719-79.597657-114.894531-2.050781-.773438-4.351562-.515625-6.179687.695312-1.828125 1.210938-2.964844 3.226563-3.050781 5.414063l6.820312.277344-2.40625 6.386718c41.320313 15.589844 70.769532 55.363282 70.761719 102.121094v61.4375c-.003906 30.183594-12.214844 57.449219-31.992187 77.234375-19.789063 19.777344-47.054688 31.992187-77.234376 31.992187-30.183593 0-57.449218-12.214843-77.238281-31.992187-19.773437-19.785156-31.988281-47.050781-31.988281-77.234375v-61.4375c0-25.386719 8.714844-48.628906 23.246094-67.207031l-5.375-4.207031-1.199219 6.722656c11.730469 2.089844 24.523437 3.25 37.941406 3.25 26.898438-.015625 51.285157-4.570313 69.640625-12.300782 9.175782-3.882812 16.886719-8.554687 22.664063-14.199218 5.742187-5.601563 9.6875-12.515625 10-20.289063l-6.820313-.277343-2.40625 6.386718zm0 0"/><path d="m154.410156 258.691406 13.648438 6.828125c.964844.480469 1.972656.71875 3.054687.71875h40.964844c1.082031 0 2.089844-.238281 3.054687-.71875l13.652344-6.828125c3.375-1.6875 4.742188-5.789062 3.054688-9.160156s-5.789063-4.738281-9.15625-3.054688l-12.214844 6.109376h-37.746094l-12.203125-6.105469c-3.371093-1.6875-7.472656-.320313-9.160156 3.054687-1.683594 3.367188-.316406 7.46875 3.050781 9.15625zm0 0"/><path d="m143.8125 187.734375c0 5.65625-4.582031 10.238281-10.238281 10.238281s-10.242188-4.582031-10.242188-10.238281 4.585938-10.242187 10.242188-10.242187 10.238281 4.585937 10.238281 10.242187zm0 0"/><path d="m259.867188 187.734375c0 5.65625-4.585938 10.238281-10.242188 10.238281-5.652344 0-10.238281-4.582031-10.238281-10.238281s4.585937-10.242187 10.238281-10.242187c5.65625 0 10.242188 4.585937 10.242188 10.242187zm0 0"/></g><path d="m191.601562 6.828125c-64.09375 0-116.054687 51.957031-116.054687 116.050781v6.828125h232.105469v-6.828125c0-64.09375-51.957032-116.050781-116.050782-116.050781zm0 0" fill="#ff927d"/><path d="m191.601562 6.828125v-6.828125c-67.867187.00390625-122.875 55.011719-122.882812 122.878906v6.828125c0 1.796875.730469 3.554688 2 4.824219 1.273438 1.273438 3.03125 2.003906 4.828125 2.003906h232.105469c1.796875 0 3.554687-.730468 4.828125-2 1.269531-1.273437 2-3.03125 2-4.828125v-6.828125c-.003907-67.867187-55.015625-122.87499975-122.878907-122.878906v13.652344c30.179688.003906 57.445313 12.21875 77.234376 31.996094 19.777343 19.785156 31.988281 47.046874 31.992187 77.230468h-218.453125c0-30.183594 12.214844-57.445312 31.988281-77.234375 19.789063-19.777343 47.054688-31.988281 77.238281-31.992187zm0 0" fill="#54596e"/><path d="m375.921875 150.1875c0-22.625-82.527344-40.960938-184.320313-40.960938-101.796874 0-184.320312 18.335938-184.320312 40.960938zm0 0" fill="#999"/><path d="m375.921875 150.1875h6.824219c.007812-4.988281-2.335938-9.429688-5.550782-12.882812-5.699218-6.078126-14.320312-10.582032-25.617187-14.769532-16.933594-6.179687-40.003906-11.148437-67.367187-14.652344-27.347657-3.496093-58.9375-5.484374-92.609376-5.484374-51.324218.007812-97.761718 4.601562-131.816406 12.160156-17.046875 3.800781-30.976562 8.289062-41.195312 13.640625-5.109375 2.695312-9.339844 5.601562-12.585938 9.105469-3.214844 3.453124-5.554687 7.894531-5.550781 12.882812 0 1.796875.730469 3.554688 2 4.824219 1.273437 1.273437 3.03125 2 4.828125 2h368.640625c1.796875 0 3.554687-.726563 4.824219-1.996094 1.273437-1.273437 2-3.03125 2-4.828125h-6.824219v-6.824219h-368.640625v6.824219h6.824219c.007812-.667969.242187-1.75 1.941406-3.632812 2.894531-3.25 10.007813-7.5 20.261719-11.195313 15.394531-5.640625 37.738281-10.535156 64.410156-13.933594 26.683594-3.414062 57.75-5.371093 90.882812-5.371093 50.476563-.007813 96.191407 4.566406 128.851563 11.832031 16.308594 3.613281 29.375 7.949219 37.808594 12.398437 4.214843 2.203125 7.230469 4.445313 8.894531 6.269532 1.695312 1.882812 1.933594 2.964843 1.9375 3.632812h6.828125v-6.824219zm0 0" fill="#54596e"/><path d="m194.886719 27.375 5.859375 18.023438c.460937 1.425781 1.789062 2.386718 3.285156 2.386718h18.953125c3.347656 0 4.738281 4.285156 2.027344 6.253906l-15.328125 11.140626c-1.214844.878906-1.71875 2.441406-1.253906 3.863281l5.855468 18.023437c1.03125 3.1875-2.609375 5.835938-5.320312 3.867188l-15.328125-11.136719c-1.214844-.882813-2.855469-.882813-4.066407 0l-15.332031 11.136719c-2.707031 1.96875-6.351562-.679688-5.316406-3.867188l5.855469-18.023437c.460937-1.421875-.042969-2.984375-1.257813-3.863281l-15.328125-11.140626c-2.714844-1.96875-1.320312-6.253906 2.023438-6.253906h18.953125c1.496093 0 2.824219-.960937 3.289062-2.386718l5.855469-18.023438c1.035156-3.183594 5.539062-3.183594 6.574219 0zm0 0" fill="#fff35f"/><path d="m194.886719 27.375-6.492188 2.109375 5.859375 18.023437c1.371094 4.234376 5.324219 7.105469 9.777344 7.105469h18.953125v-3.417969l-2.496094 2.296876c.5625.667968 1.679688 1.15625 2.496094 1.121093v-3.414062l-2.496094 2.296875 2.40625-2.214844h-3.277343c.011718.839844.277343 1.550781.871093 2.214844l2.40625-2.214844h-3.277343 3.382812l-2.007812-2.753906c-.789063.519531-1.429688 1.808594-1.375 2.753906h3.382812l-2.007812-2.753906-15.324219 11.132812c-2.707031 1.964844-4.242188 5.082032-4.238281 8.316406 0 1.058594.167968 2.140626.507812 3.183594l5.855469 18.019532 3.085937-1.003907h-3.242187l.15625 1.003907 3.089843-1.003907h-3.242187 3.425781l-2.386718-2.480469c-.570313.527344-1.042969 1.457032-1.039063 2.480469h3.425781l-2.382812-2.480469 2.304687 2.398438v-3.3125c-.980469.011719-1.734375.367188-2.304687.914062l2.304687 2.398438v-3.3125 3.359375l1.976563-2.738281c-.472656-.359375-1.265625-.632813-1.976563-.621094v3.359375l1.976563-2.738281.015625.011718-15.328125-11.140624c-1.800782-1.308594-3.941406-1.964844-6.046875-1.960938-2.113281-.003906-4.25.65625-6.042969 1.960938l-15.332031 11.140624 1.992187 2.738282v-3.367188c-.707031-.015625-1.511718.261719-1.988281.625l1.988281 2.742188v-3.367188 3.308594l2.308594-2.398438c-.574219-.542968-1.324219-.902343-2.308594-.914062v3.3125l2.308594-2.398438-2.382812 2.476563h3.421874c.003907-1.023437-.46875-1.949219-1.039062-2.476563l-2.382812 2.476563h3.421874-3.277343l3.117187 1.023437.160156-1.023437h-3.277343l3.117187 1.023437.003906-.019531 5.859376-18.023437c.339843-1.046875.503906-2.121094.503906-3.179688 0-3.234375-1.53125-6.351562-4.253906-8.328125l.011718.011719-15.328125-11.140625-2.003906 2.757813h3.386719c.054687-.941407-.585938-2.230469-1.378906-2.757813l-2.003907 2.757813h3.382813-3.277344l2.410156 2.21875c.589844-.664063.855469-1.378907.867188-2.21875h-3.277344l2.410156 2.21875-2.496094-2.300782v3.421875c.808594.03125 1.929688-.453125 2.496094-1.121093l-2.496094-2.296876v3.417969h18.953126c4.453124 0 8.402343-2.871093 9.777343-7.109375l5.855469-18.019531-3.234375-1.054687 1.90625 2.792968c.621094-.402344 1.152344-1.140625 1.332031-1.742187l-3.238281-1.050781 1.90625 2.792968-1.882813-2.75v3.339844c.605469 0 1.246094-.164062 1.871094-.585938l-1.871094-2.753906v3.339844-3.34375l-1.878906 2.753906c.625.421875 1.269532.589844 1.878906.589844v-3.34375l-1.878906 2.753906 1.90625-2.792968-3.234375 1.050781c.179688.601562.707031 1.339843 1.328125 1.742187l1.90625-2.792968-3.234375 1.050781 6.492188-2.105469 6.496093-2.109375c-.699218-2.191406-2.179687-4.125-3.96875-5.324219-1.792968-1.21875-3.820312-1.78125-5.8125-1.78125-1.992187 0-4.019531.5625-5.8125 1.777344-1.792968 1.203125-3.273437 3.132812-3.96875 5.328125l-5.855468 18.019531 3.207031 1.042969v-3.367187c-1.460937 0-2.757813.941406-3.207031 2.328124l3.207031 1.039063v-3.367187h-18.953125c-2.9375-.035157-5.789062 1.316406-7.554688 3.285156-1.792968 1.96875-2.726562 4.429687-2.734374 7.03125-.054688 2.972656 1.464843 6.316406 4.242187 8.285156l15.332031 11.140625.011719.007813 1.980469-2.738282h-3.382813c0 1.0625.503907 2.085938 1.402344 2.738282l1.976563-2.738282h-3.378907 3.359375l-3.195312-1.039062-.164063 1.039062h3.359375l-3.195312-1.039062-5.855469 18.019531.003906-.015625c-.34375 1.050781-.519531 2.148438-.519531 3.230469-.003906 2.953125 1.292969 5.597656 3.148438 7.363281 1.859374 1.777344 4.351562 2.890625 7.15625 2.902344 2.0625.011718 4.261718-.675782 6.027343-1.976563l15.335938-11.140625-1.972657-2.722656v3.367188c.683594 0 1.390626-.21875 1.976563-.644532l-1.976563-2.722656v3.367188-3.367188l-1.980468 2.722656c.585937.425782 1.296875.644532 1.980468.644532v-3.367188l-1.980468 2.722656 15.328125 11.140625.015625.011719c1.765625 1.289062 3.957031 1.976562 6.015625 1.960938 2.804687-.007813 5.296875-1.117188 7.15625-2.894532 1.855469-1.765625 3.15625-4.410156 3.152343-7.363281 0-1.074219-.175781-2.171875-.515624-3.214844l-5.855469-18.023437-3.210938 1.042968h3.375l-.167969-1.046874-3.207031 1.046874h3.375-3.375l1.980469 2.730469c.886719-.644531 1.394531-1.667969 1.394531-2.730469h-3.375l1.980469 2.730469 15.335938-11.144531c2.777343-1.964844 4.300781-5.3125 4.242187-8.285156-.007813-2.601563-.945313-5.0625-2.738281-7.027344-1.761719-1.972656-4.613282-3.320312-7.550782-3.289062h-18.953124v3.371093l3.207031-1.042969c-.449219-1.382812-1.746094-2.328124-3.207031-2.328124v3.371093l3.207031-1.042969-5.855469-18.023437zm0 0" fill="#54596e"/><path d="m198.425781 430.078125v-61.4375c0-3.769531-3.054687-6.828125-6.824219-6.828125-3.773437 0-6.828124 3.058594-6.828124 6.828125v61.4375c0 3.773437 3.054687 6.828125 6.828124 6.828125 3.769532 0 6.824219-3.054688 6.824219-6.828125" fill="#54596e"/></svg>