<svg height="436pt" viewBox="-34 0 436 436.90795" width="436pt" xmlns="http://www.w3.org/2000/svg"><path d="m288.980469 334.507812h-201.585938c-32.933593 0-59.632812 22.886719-59.632812 51.117188v44.457031h314.027343v-50.308593c0-25-23.648437-45.265626-52.808593-45.265626zm0 0" fill="#8065c4"/><path d="m288.980469 334.507812v-6.828124h-201.585938c-18.050781.007812-34.511719 6.257812-46.609375 16.617187-12.082031 10.324219-19.859375 25.007813-19.847656 41.328125v44.457031c0 1.796875.726562 3.554688 2 4.824219 1.269531 1.273438 3.027344 2 4.824219 2h314.027343c1.796876 0 3.554688-.726562 4.824219-1.996094 1.273438-1.273437 2-3.03125 2-4.828125v-50.304687c.007813-14.707032-7.003906-27.925782-17.851562-37.195313-10.859375-9.300781-25.613281-14.894531-41.78125-14.898437v13.652344c12.996093-.007813 24.644531 4.53125 32.898437 11.613281 8.265625 7.117187 13.074219 16.53125 13.082032 26.828125v43.476562h-300.375v-37.628906c.011718-11.910156 5.582031-22.785156 15.085937-30.960938 9.484375-8.144531 22.839844-13.335937 37.722656-13.328124h201.585938zm0 0" fill="#54596e"/><path d="m68.71875 402.773438v20.480468c0 3.769532 3.058594 6.828125 6.828125 6.828125s6.828125-3.058593 6.828125-6.828125v-20.480468c0-3.769532-3.058594-6.824219-6.828125-6.824219s-6.828125 3.054687-6.828125 6.824219" fill="#54596e"/><path d="m287.175781 402.773438v20.480468c0 3.769532 3.054688 6.828125 6.824219 6.828125s6.828125-3.058593 6.828125-6.828125v-20.480468c0-3.769532-3.058594-6.824219-6.828125-6.824219s-6.824219 3.054687-6.824219 6.824219" fill="#54596e"/><path d="m184.773438 382.292969c-15.078126 0-27.304688-12.226563-27.304688-27.304688v-68.265625h54.613281v68.265625c0 15.078125-12.226562 27.304688-27.308593 27.304688zm0 0" fill="#ffd578"/><path d="m184.773438 382.292969v-6.824219c-11.304688-.019531-20.457032-9.175781-20.480469-20.480469v-61.441406h40.960937v61.441406c-.019531 11.304688-9.171875 20.460938-20.480468 20.480469v13.652344c18.855468-.003906 34.128906-15.28125 34.132812-34.132813v-68.265625c0-1.800781-.726562-3.554687-1.996094-4.828125-1.273437-1.269531-3.03125-2-4.828125-2h-54.613281c-1.796875 0-3.558594.726563-4.828125 2-1.269531 1.269531-2 3.03125-2 4.828125v68.265625c.003906 18.851563 15.28125 34.128907 34.132813 34.132813zm0 0" fill="#54596e"/><path d="m285.09375 114.800781c-3.367188-44.882812-42.886719-67.011719-100.320312-67.011719-57.433594 0-96.953126 22.128907-100.320313 67.011719l-29.191406 148.78125c-2.046875 19.621094 12.230469 36.792969 30.597656 36.792969h197.828125c18.367188 0 32.648438-17.171875 30.601562-36.792969zm0 0" fill="#fff35f"/><path d="m285.09375 114.800781 6.808594-.507812c-.90625-12.167969-4.320313-23.082031-9.988282-32.429688-8.496093-14.058593-21.914062-24.378906-38.496093-31.039062-16.605469-6.679688-36.453125-9.855469-58.644531-9.863281-29.574219.019531-55.039063 5.628906-74.105469 17.746093-9.511719 6.054688-17.378907 13.796875-23.035157 23.152344-5.667968 9.347656-9.078124 20.261719-9.984374 32.429687l6.804687.511719-6.699219-1.316406-29.191406 148.78125-.089844.601563c-.15625 1.496093-.234375 2.984374-.230468 4.457031 0 10.730469 4.046874 20.628906 10.761718 27.910156 6.695313 7.273437 16.238282 11.972656 26.859375 11.964844h197.828125c10.617188.007812 20.164063-4.691407 26.855469-11.964844 6.71875-7.277344 10.761719-17.179687 10.765625-27.910156 0-1.472657-.078125-2.960938-.230469-4.453125l-.089843-.609375-29.191407-148.777344-6.707031 1.316406 6.808594-.507812-6.808594.507812-6.699219 1.316407 29.191407 148.777343 6.699218-1.3125-6.789062.707031c.105468 1.023438.15625 2.039063.15625 3.039063.003906 7.277344-2.753906 13.902344-7.140625 18.644531-4.40625 4.746094-10.257813 7.566406-16.824219 7.574219h-197.828125c-6.566406-.007813-12.417969-2.828125-16.828125-7.574219-4.382812-4.746094-7.144531-11.371094-7.140625-18.644531 0-1 .054687-2.011719.160156-3.039063l-6.789062-.707031 6.699219 1.3125 29.191406-148.78125.109375-.804687c.777343-10.273438 3.566406-18.957032 8.050781-26.378906 6.730469-11.101563 17.425781-19.589844 31.921875-25.441407 14.46875-5.835937 32.660156-8.882812 53.542969-8.875 27.859375-.019531 50.867187 5.433594 66.761718 15.605469 7.96875 5.085938 14.203126 11.292969 18.699219 18.710938 4.484375 7.421874 7.273438 16.105468 8.050781 26.378906l.109376.804687zm0 0" fill="#54596e"/><path d="m307.652344 184.320312c0 15.082032-12.222656 27.308594-27.304688 27.308594-15.082031 0-27.308594-12.226562-27.308594-27.308594 0-15.082031 12.226563-27.304687 27.308594-27.304687 15.082032 0 27.304688 12.222656 27.304688 27.304687zm0 0" fill="#ffd578"/><path d="m307.652344 184.320312h6.828125c-.003907-18.851562-15.28125-34.128906-34.132813-34.132812-18.855468.003906-34.128906 15.28125-34.132812 34.132812.003906 18.855469 15.277344 34.128907 34.132812 34.132813 18.851563 0 34.128906-15.277344 34.132813-34.132813h-13.652344c-.019531 11.308594-9.175781 20.460938-20.480469 20.480469-11.308594-.019531-20.460937-9.171875-20.480468-20.480469.019531-11.304687 9.171874-20.457031 20.480468-20.480468 11.304688.023437 20.460938 9.175781 20.480469 20.480468zm0 0" fill="#54596e"/><path d="m116.507812 184.320312c0 15.082032-12.226562 27.308594-27.308593 27.308594-15.078125 0-27.304688-12.226562-27.304688-27.308594 0-15.082031 12.226563-27.304687 27.304688-27.304687 15.082031 0 27.308593 12.222656 27.308593 27.304687zm0 0" fill="#ffd578"/><path d="m116.507812 184.320312h6.824219c-.003906-18.851562-15.277343-34.128906-34.132812-34.132812-18.851563.003906-34.125 15.28125-34.132813 34.132812.007813 18.855469 15.28125 34.128907 34.132813 34.132813 18.855469 0 34.128906-15.277344 34.132812-34.132813h-13.652343c-.019532 11.308594-9.171876 20.460938-20.480469 20.480469-11.304688-.019531-20.457031-9.171875-20.480469-20.480469.023438-11.304687 9.175781-20.457031 20.480469-20.480468 11.308593.023437 20.460937 9.175781 20.480469 20.480468zm0 0" fill="#54596e"/><path d="m184.773438 334.507812c-56.554688 0-102.398438-66.324218-102.398438-122.878906v-102.402344h204.800781v102.402344c0 56.554688-45.847656 122.878906-102.402343 122.878906zm0 0" fill="#ffd578"/><path d="m184.773438 334.507812v-6.828124c-12.789063 0-25.050782-3.734376-36.433594-10.324219-17.058594-9.871094-31.984375-26.269531-42.507813-45.300781-10.539062-19.015626-16.648437-40.601563-16.632812-60.425782v-95.574218h191.148437v95.574218c.046875 26.433594-10.898437 55.984375-28.539062 78.4375-8.800782 11.234375-19.230469 20.703125-30.597656 27.289063-11.382813 6.589843-23.644532 10.324219-36.433594 10.324219v13.65625c15.484375.003906 30.160156-4.554688 43.28125-12.167969 19.695312-11.4375 36.042968-29.648438 47.601562-50.5 11.539063-20.871094 18.324219-44.449219 18.339844-67.039063v-102.402344c0-1.796874-.726562-3.554687-1.996094-4.828124-1.273437-1.269532-3.03125-1.996094-4.828125-1.996094h-204.800781c-1.796875 0-3.558594.726562-4.828125 1.996094-1.269531 1.273437-2 3.03125-2 4.828124v102.402344c.046875 30.113282 12.027344 62.007813 31.445313 86.855469 9.730468 12.414063 21.367187 23.066406 34.5 30.683594 13.121093 7.609375 27.796874 12.167969 43.28125 12.164062zm0 0" fill="#54596e"/><path d="m136.988281 187.734375c0 5.65625-4.585937 10.242187-10.242187 10.242187-5.652344 0-10.238282-4.585937-10.238282-10.242187s4.585938-10.238281 10.238282-10.238281c5.65625 0 10.242187 4.582031 10.242187 10.238281zm0 0" fill="#54596e"/><path d="m253.039062 187.734375c0 5.65625-4.582031 10.242187-10.238281 10.242187s-10.238281-4.585937-10.238281-10.242187 4.582031-10.238281 10.238281-10.238281 10.238281 4.582031 10.238281 10.238281zm0 0" fill="#54596e"/><path d="m177.949219 279.894531h13.652343c7.539063 0 13.652344-6.113281 13.652344-13.652343 0-7.539063-6.113281-13.652344-13.652344-13.652344h-13.652343c-7.542969 0-13.65625 6.113281-13.65625 13.652344 0 7.539062 6.113281 13.652343 13.65625 13.652343" fill="#ff927d"/><path d="m157.46875 266.242188h54.613281c3.769531 0 6.824219-3.058594 6.824219-6.828126 0-3.769531-3.054688-6.824218-6.824219-6.824218h-54.613281c-3.769531 0-6.828125 3.054687-6.828125 6.824218 0 3.769532 3.058594 6.828126 6.828125 6.828126" fill="#ff927d"/><path d="m191.601562 430.082031v-47.789062c0-3.769531-3.058593-6.824219-6.828124-6.824219-3.769532 0-6.824219 3.054688-6.824219 6.824219v47.789062c0 3.769531 3.054687 6.824219 6.824219 6.824219 3.769531 0 6.828124-3.054688 6.828124-6.824219" fill="#54596e"/><path d="m157.46875 389.121094-34.136719 13.652344-6.824219-68.265626h40.960938zm0 0" fill="#fff"/><path d="m157.46875 389.121094-2.539062-6.339844-25.707032 10.285156-5.171875-51.734375h26.589844v47.789063h6.828125l-2.539062-6.339844 2.539062 6.339844h6.824219v-54.613282c0-1.796874-.726563-3.554687-2-4.828124-1.269531-1.269532-3.027344-2-4.824219-2h-40.960938c-1.925781 0-3.769531.820312-5.0625 2.246093-1.292968 1.429688-1.921874 3.34375-1.730468 5.261719l6.828125 68.265625c.210937 2.132813 1.417969 4.046875 3.25 5.15625 1.832031 1.113281 4.085937 1.300781 6.074219.503906l34.132812-13.65625c2.585938-1.03125 4.292969-3.554687 4.292969-6.335937zm0 0" fill="#54596e"/><path d="m212.082031 389.121094 34.132813 13.652344 6.824218-68.265626h-40.957031zm0 0" fill="#fff"/><path d="m212.082031 389.121094-2.539062 6.339844 34.136719 13.652343c1.988281.796875 4.242187.609375 6.074218-.5 1.832032-1.113281 3.039063-3.027343 3.25-5.15625l6.828125-68.269531c.191407-1.914062-.4375-3.832031-1.730469-5.257812-1.289062-1.429688-3.132812-2.25-5.0625-2.25h-40.957031c-1.796875 0-3.558593.730468-4.828125 2-1.269531 1.273437-2 3.03125-2 4.828124v54.613282c0 2.78125 1.707032 5.304687 4.289063 6.339844l2.539062-6.339844h6.824219v-47.789063h26.589844l-5.171875 51.734375-25.707031-10.285156-2.535157 6.339844h6.824219zm0 0" fill="#54596e"/><path d="m82.375 47.789062h204.800781v102.398438h-204.800781zm0 0" fill="#8065c4"/><path d="m287.175781 47.789062v-6.828124h-204.800781c-1.796875 0-3.558594.726562-4.828125 2-1.269531 1.269531-2 3.03125-2 4.828124v102.398438c0 1.796875.730469 3.554688 2 4.828125 1.273437 1.273437 3.03125 2 4.828125 2h204.800781c1.796875 0 3.554688-.726563 4.824219-2 1.273438-1.269531 2-3.027344 2-4.824219v-102.402344c0-1.800781-.726562-3.554687-1.996094-4.828124-1.273437-1.269532-3.03125-2-4.828125-2v6.828124h-6.828125v95.570313h-191.148437v-88.746094h197.976562v-6.824219h-6.828125zm0 0" fill="#54596e"/><path d="m184.773438 6.828125-177.492188 40.960937 177.492188 40.957032 177.492187-40.957032zm0 0" fill="#8065c4"/><path d="m184.773438 6.828125-1.535157-6.652344-177.492187 40.960938c-3.09375.710937-5.292969 3.476562-5.292969 6.652343 0 3.171876 2.199219 5.9375 5.292969 6.648438l177.492187 40.960938c1.011719.234374 2.058594.234374 3.070313 0l177.492187-40.960938c3.09375-.710938 5.292969-3.476562 5.292969-6.648438 0-3.175781-2.199219-5.941406-5.292969-6.652343l-177.492187-40.960938c-1.011719-.2343748-2.058594-.2343748-3.070313 0l1.535157 6.652344-1.535157 6.652344 148.667969 34.308593-147.132812 33.953126-147.132813-33.953126 148.667969-34.308593-1.535156-6.652344-1.535157 6.652344zm0 0" fill="#54596e"/><path d="m341.789062 122.882812v-68.269531c0-3.769531-3.058593-6.824219-6.828124-6.824219-3.769532 0-6.828126 3.054688-6.828126 6.824219v68.269531c0 3.769532 3.058594 6.824219 6.828126 6.824219 3.769531 0 6.828124-3.054687 6.828124-6.824219" fill="#61c5a8"/><path d="m354.292969 139.574219-13.652344-20.480469c-1.265625-1.898438-3.394531-3.039062-5.679687-3.039062-2.285157 0-4.414063 1.136718-5.679688 3.039062l-13.652344 20.480469c-2.09375 3.136719-1.246094 7.375 1.890625 9.46875 3.136719 2.089843 7.375 1.242187 9.46875-1.894531l7.972657-11.960938 7.976562 11.960938c2.089844 3.136718 6.328125 3.984374 9.464844 1.894531 3.136718-2.09375 3.984375-6.332031 1.890625-9.46875zm0 0" fill="#61c5a8"/><g fill="#ff927d"><path d="m246.214844 238.933594c0 3.769531-3.058594 6.828125-6.828125 6.828125s-6.824219-3.058594-6.824219-6.828125c0-3.769532 3.054688-6.824219 6.824219-6.824219s6.828125 3.054687 6.828125 6.824219zm0 0"/><path d="m130.160156 245.761719c0 3.769531-3.054687 6.828125-6.828125 6.828125-3.769531 0-6.824219-3.058594-6.824219-6.828125s3.054688-6.828125 6.824219-6.828125c3.773438 0 6.828125 3.058594 6.828125 6.828125zm0 0"/><path d="m116.507812 232.109375c0 3.769531-3.058593 6.824219-6.828124 6.824219-3.769532 0-6.824219-3.054688-6.824219-6.824219 0-3.773437 3.054687-6.828125 6.824219-6.828125 3.769531 0 6.828124 3.054688 6.828124 6.828125zm0 0"/><path d="m143.8125 218.453125c0 3.773437-3.054688 6.828125-6.824219 6.828125s-6.828125-3.054688-6.828125-6.828125c0-3.769531 3.058594-6.824219 6.828125-6.824219s6.824219 3.054688 6.824219 6.824219zm0 0"/><path d="m232.5625 218.453125c0 3.773437-3.058594 6.828125-6.828125 6.828125s-6.828125-3.054688-6.828125-6.828125c0-3.769531 3.058594-6.824219 6.828125-6.824219s6.828125 3.054688 6.828125 6.824219zm0 0"/><path d="m259.867188 218.453125c0 3.773437-3.054688 6.828125-6.828126 6.828125-3.769531 0-6.824218-3.054688-6.824218-6.828125 0-3.769531 3.054687-6.824219 6.824218-6.824219 3.773438 0 6.828126 3.054688 6.828126 6.824219zm0 0"/></g></svg>