<svg height="436pt" viewBox="-41 0 436 436.98349" width="436pt" xmlns="http://www.w3.org/2000/svg"><path d="m143.851562 286.71875h68.265626v81.917969h-68.265626zm0 0" fill="#ffd578"/><path d="m212.117188 368.636719v-6.824219h-61.4375v-68.269531h54.613281v75.09375h6.824219v-6.824219 6.824219h6.828124v-81.917969c0-1.800781-.730468-3.558594-2-4.828125-1.273437-1.273437-3.03125-2-4.828124-2h-68.265626c-1.796874 0-3.554687.726563-4.828124 2-1.269532 1.269531-2 3.027344-2 4.828125v81.917969c0 1.796875.730468 3.554687 2 4.828125 1.273437 1.269531 3.03125 2 4.828124 2h68.265626c1.796874 0 3.554687-.730469 4.828124-2 1.269532-1.273438 2-3.03125 2-4.828125zm0 0" fill="#54596e"/><path d="m295.84375 320.851562h-43.042969l-74.820312 54.613282-74.816407-54.613282h-36.210937c-32.9375 0-59.632813 22.886719-59.632813 51.117188v58.109375h341.332032v-63.960937c0-25-23.644532-45.265626-52.808594-45.265626zm0 0" fill="#fff"/><path d="m295.84375 320.851562v-6.828124h-43.042969c-1.457031 0-2.84375.453124-4.023437 1.3125l-70.796875 51.675781-70.789063-51.675781c-1.179687-.859376-2.566406-1.3125-4.023437-1.3125h-36.214844c-18.050781.007812-34.515625 6.257812-46.609375 16.617187-12.085938 10.324219-19.859375 25.007813-19.851562 41.328125v58.109375c0 1.796875.726562 3.554687 2 4.828125 1.269531 1.269531 3.027343 1.996094 4.828124 1.996094h341.332032c1.796875 0 3.554687-.726563 4.824218-1.996094 1.273438-1.273438 2-3.03125 2-4.828125v-63.960937c.011719-14.703126-7-27.925782-17.851562-37.191407-10.859375-9.300781-25.617188-14.898437-41.785156-14.902343v13.65625c13-.007813 24.648437 4.53125 32.898437 11.613281 8.265625 7.117187 13.078125 16.53125 13.085938 26.828125v57.128906h-327.679688v-51.28125c.007813-11.910156 5.582031-22.785156 15.085938-30.960938 9.484375-8.144531 22.84375-13.335937 37.726562-13.328124h33.980469l73.019531 53.300781c2.398438 1.75 5.652344 1.75 8.050781 0l73.019532-53.300781h40.816406zm0 0" fill="#54596e"/><path d="m143.851562 368.636719-34.132812 13.65625-6.828125-68.269531h40.960937zm0 0" fill="#fff"/><path d="m143.851562 368.636719-2.535156-6.335938-25.707031 10.28125-5.175781-51.730469h26.589844v47.785157h6.828124l-2.535156-6.335938 2.535156 6.335938h6.828126v-54.613281c0-1.796876-.730469-3.554688-2-4.828126-1.273438-1.269531-3.03125-1.996093-4.828126-1.996093h-40.960937c-1.925781 0-3.769531.816406-5.0625 2.246093-1.289063 1.425782-1.921875 3.34375-1.730469 5.257813l6.828125 68.269531c.214844 2.132813 1.417969 4.042969 3.25 5.152344 1.835938 1.113281 4.085938 1.300781 6.078125.503906l34.132813-13.652344c2.582031-1.035156 4.292969-3.558593 4.292969-6.339843zm0 0" fill="#54596e"/><path d="m212.117188 368.636719 34.132812 13.65625 6.828125-68.269531h-40.960937zm0 0" fill="#fff"/><path d="m212.117188 368.636719-2.535157 6.339843 34.132813 13.652344c1.992187.796875 4.242187.609375 6.078125-.5 1.832031-1.113281 3.035156-3.023437 3.25-5.15625l6.828125-68.265625c.1875-1.917969-.441406-3.835937-1.730469-5.261719-1.292969-1.429687-3.136719-2.246093-5.0625-2.246093h-40.960937c-1.796876 0-3.558594.726562-4.828126 2-1.269531 1.269531-2 3.027343-2 4.828125v54.613281c0 2.78125 1.710938 5.304687 4.292969 6.339844l2.535157-6.34375h6.828124v-47.785157h26.589844l-5.171875 51.730469-25.707031-10.28125-2.539062 6.335938h6.828124zm0 0" fill="#54596e"/><path d="m157.5 430.15625h40.957031l-9.097656-54.691406h-22.757813zm0 0" fill="#54596e"/><path d="m157.5 430.15625v6.824219h40.957031c2 0 3.917969-.886719 5.210938-2.410157 1.292969-1.527343 1.851562-3.5625 1.523437-5.535156l-9.097656-54.691406c-.546875-3.292969-3.398438-5.703125-6.734375-5.703125h-22.757813c-3.339843 0-6.1875 2.410156-6.734374 5.703125l-9.101563 54.691406c-.332031 1.972656.230469 4.007813 1.523437 5.535156 1.292969 1.527344 3.207032 2.414063 5.210938 2.414063v-6.828125l6.734375 1.121094 8.152344-48.984375h11.1875l6.828125 41.035156h-32.902344v6.828125l6.734375 1.121094zm0 0" fill="#54596e"/><path d="m177.984375 245.757812c-71.636719 0-129.707031-58.070312-129.707031-129.707031v-73.09375c0-19.953125 11.714844-36.132812 26.167968-36.132812h207.078126c14.457031 0 26.167968 16.179687 26.167968 36.132812v73.09375c0 71.636719-58.070312 129.707031-129.707031 129.707031zm0 0" fill="#bfad88"/><path d="m177.984375 245.757812v-6.824218c-33.957031-.003906-64.628906-13.746094-86.890625-35.992188-22.246094-22.261718-35.984375-52.9375-35.988281-86.890625v-73.09375c-.015625-8.640625 2.582031-16.351562 6.367187-21.546875 1.882813-2.601562 4.035156-4.574218 6.230469-5.851562 2.203125-1.277344 4.410156-1.898438 6.742187-1.90625h207.078126c2.332031.007812 4.539062.628906 6.746093 1.90625 3.289063 1.90625 6.492188 5.417968 8.820313 10.195312 2.335937 4.765625 3.777344 10.722656 3.773437 17.203125v73.09375c0 33.953125-13.742187 64.632813-35.988281 86.890625-22.257812 22.25-52.9375 35.988282-86.890625 35.992188v13.652344c75.410156-.003907 136.527344-61.125 136.535156-136.535157v-73.09375c-.015625-11.3125-3.277343-21.671875-8.960937-29.554687-2.851563-3.933594-6.335938-7.253906-10.402344-9.632813-4.058594-2.375-8.734375-3.7773435-13.632812-3.769531h-207.078126c-4.898437-.0078125-9.574218 1.394531-13.628906 3.769531-6.105468 3.578125-10.890625 9.230469-14.203125 15.988281-3.304687 6.765626-5.15625 14.714844-5.160156 23.199219v73.09375c.003906 75.410157 61.121094 136.527344 136.53125 136.535157zm0 0" fill="#54596e"/><path d="m314.519531 143.359375c0 15.078125-12.226562 27.304687-27.308593 27.304687-15.082032 0-27.304688-12.226562-27.304688-27.304687 0-15.082031 12.222656-27.308594 27.304688-27.308594 15.082031 0 27.308593 12.226563 27.308593 27.308594zm0 0" fill="#ffd578"/><path d="m314.519531 143.359375h6.824219c-.003906-18.855469-15.277344-34.132813-34.132812-34.132813-18.851563 0-34.128907 15.277344-34.132813 34.132813.003906 18.851563 15.28125 34.128906 34.132813 34.132813 18.855468-.003907 34.128906-15.28125 34.132812-34.132813h-13.652344c-.019531 11.304687-9.171875 20.457031-20.480468 20.480469-11.304688-.023438-20.457032-9.175782-20.480469-20.480469.023437-11.308594 9.175781-20.460937 20.480469-20.480469 11.308593.019532 20.460937 9.171875 20.480468 20.480469zm0 0" fill="#54596e"/><path d="m96.066406 143.359375c0 15.078125-12.226562 27.304687-27.308594 27.304687-15.082031 0-27.304687-12.226562-27.304687-27.304687 0-15.082031 12.222656-27.308594 27.304687-27.308594 15.082032 0 27.308594 12.226563 27.308594 27.308594zm0 0" fill="#ffd578"/><path d="m96.066406 143.359375h6.824219c-.003906-18.855469-15.277344-34.132813-34.132813-34.132813-18.851562 0-34.128906 15.277344-34.132812 34.132813.003906 18.851563 15.28125 34.128906 34.132812 34.132813 18.855469-.003907 34.128907-15.28125 34.132813-34.132813h-13.652344c-.019531 11.304687-9.171875 20.457031-20.480469 20.480469-11.304687-.023438-20.457031-9.175782-20.480468-20.480469.023437-11.308594 9.175781-20.460937 20.480468-20.480469 11.308594.019532 20.460938 9.171875 20.480469 20.480469zm0 0" fill="#54596e"/><path d="m239.222656 81.917969h-125.898437c-24.613281 0-44.566407 19.953125-44.566407 44.566406v78.3125c0 56.554687 45.847657 102.402344 102.402344 102.402344h13.652344c56.554688 0 102.398438-45.847657 102.398438-102.402344v-74.890625c0-26.5-21.484376-47.988281-47.988282-47.988281zm0 0" fill="#ffd578"/><path d="m239.222656 81.917969v-6.828125h-125.898437c-28.386719.003906-51.386719 23.007812-51.390625 51.394531v78.3125c.003906 60.328125 48.898437 109.222656 109.226562 109.226563h13.652344c60.324219-.003907 109.222656-48.898438 109.226562-109.226563v-74.890625c-.003906-30.273438-24.539062-54.8125-54.816406-54.816406v13.65625c11.386719.003906 21.632813 4.597656 29.105469 12.054687 7.460937 7.472657 12.054687 17.71875 12.058594 29.109375v74.890625c-.003907 26.410157-10.6875 50.261719-27.992188 67.578125-17.316406 17.308594-41.167969 27.992188-67.582031 27.996094h-13.652344c-26.414062-.003906-50.261718-10.6875-67.582031-27.996094-17.304687-17.316406-27.988281-41.167968-27.992187-67.578125v-78.316406c.003906-10.441406 4.214843-19.835937 11.054687-26.6875 6.851563-6.839844 16.242187-11.050781 26.6875-11.054687h125.894531zm0 0" fill="#54596e"/><path d="m143.851562 153.597656c0 5.65625-4.585937 10.242188-10.238281 10.242188-5.65625 0-10.242187-4.585938-10.242187-10.242188s4.585937-10.238281 10.242187-10.238281c5.652344 0 10.238281 4.582031 10.238281 10.238281zm0 0" fill="#54596e"/><path d="m232.597656 153.597656c0 5.65625-4.582031 10.242188-10.238281 10.242188s-10.242187-4.585938-10.242187-10.242188 4.585937-10.238281 10.242187-10.238281 10.238281 4.582031 10.238281 10.238281zm0 0" fill="#54596e"/><path d="m212.117188 68.265625v19.296875c0 15.734375-12.757813 28.488281-28.488282 28.488281h-86.378906c-15.734375 0-28.492188-12.757812-28.492188-28.488281v-19.296875" fill="#bfad88"/><g fill="#54596e"><path d="m205.292969 68.265625v19.296875c-.023438 11.957031-9.707031 21.640625-21.664063 21.664062h-86.378906c-11.960938-.023437-21.644531-9.707031-21.664062-21.664062v-19.296875c0-3.769531-3.058594-6.828125-6.828126-6.828125-3.769531 0-6.824218 3.058594-6.824218 6.828125v19.296875c.003906 19.507812 15.808594 35.3125 35.3125 35.316406h86.382812c19.503906-.003906 35.308594-15.808594 35.316406-35.316406v-19.296875c0-3.769531-3.058593-6.828125-6.828124-6.828125-3.769532 0-6.824219 3.054688-6.824219 6.828125zm0 0"/><path d="m140.796875 251.863281 13.644531 6.828125c.964844.480469 1.976563.71875 3.058594.71875h40.964844c1.078125 0 2.085937-.238281 3.054687-.71875l13.652344-6.828125c3.371094-1.6875 4.738281-5.789062 3.054687-9.160156-1.6875-3.371094-5.789062-4.738281-9.160156-3.054687l-12.210937 6.105468h-37.746094l-12.203125-6.105468c-3.375-1.6875-7.476562-.320313-9.160156 3.054687-1.6875 3.371094-.320313 7.472656 3.050781 9.160156zm0 0"/><path d="m280.386719 402.773438v-20.480469c.019531-11.308594 9.171875-20.460938 20.476562-20.480469 11.308594.019531 20.460938 9.171875 20.480469 20.480469v20.480469c0 3.769531 3.058594 6.824218 6.828125 6.824218s6.828125-3.054687 6.828125-6.824218v-20.480469c-.007812-18.855469-15.28125-34.132813-34.136719-34.132813-18.851562 0-34.125 15.277344-34.132812 34.132813v20.480469c0 3.769531 3.058593 6.824218 6.828125 6.824218 3.769531 0 6.828125-3.054687 6.828125-6.824218zm0 0"/><path d="m307.691406 354.984375v-40.960937c0-3.769532-3.054687-6.824219-6.828125-6.824219-3.769531 0-6.824219 3.054687-6.824219 6.824219v40.960937c0 3.769531 3.054688 6.828125 6.824219 6.828125 3.773438 0 6.828125-3.058594 6.828125-6.828125"/><path d="m75.585938 354.984375v-40.960937c0-3.769532-3.058594-6.824219-6.828126-6.824219-3.769531 0-6.824218 3.054687-6.824218 6.824219v40.960937c0 3.769531 3.054687 6.828125 6.824218 6.828125 3.769532 0 6.828126-3.058594 6.828126-6.828125"/><path d="m89.238281 382.292969h6.828125c-.007812-15.085938-12.222656-27.304688-27.308594-27.308594-15.082031.003906-27.300781 12.222656-27.304687 27.308594.003906 15.082031 12.222656 27.300781 27.304687 27.304687 15.085938-.003906 27.300782-12.222656 27.308594-27.304687h-13.65625c-.011718 7.535156-6.113281 13.636719-13.652344 13.652343-7.535156-.015624-13.640624-6.117187-13.652343-13.652343.011719-7.539063 6.117187-13.640625 13.652343-13.65625 7.539063.015625 13.640626 6.117187 13.652344 13.65625zm0 0"/></g></svg>