<svg height="436pt" viewBox="-51 0 436 436.90667" width="436pt" xmlns="http://www.w3.org/2000/svg"><path d="m286.820312 95.574219c-3.621093-59.441407-60.78125-88.746094-122.527343-88.746094-61.746094 0-118.90625 29.304687-122.527344 88.746094l-.351563 191.144531h245.757813zm0 0" fill="#fff35f"/><path d="m286.820312 95.574219 6.8125-.414063c-.960937-15.917968-5.566406-30.058594-12.988281-42.105468-11.136719-18.101563-28.425781-31.382813-48.707031-40.09375-20.304688-8.714844-43.679688-12.95703175-67.644531-12.960938-31.941407.0195312-62.882813 7.515625-86.808594 23.203125-11.949219 7.847656-22.128906 17.789063-29.542969 29.851563-7.421875 12.046874-12.027344 26.1875-12.988281 42.105468l-.011719.398438-.351562 191.148437c-.003906 1.820313.707031 3.542969 1.992187 4.835938 1.289063 1.289062 3.007813 2.003906 4.832031 2.003906h245.757813c1.824219 0 3.542969-.710937 4.832031-2.003906 1.289063-1.289063 2-3.011719 1.996094-4.835938l-.351562-191.144531-.011719-.402344-6.816407.414063-6.828124.011719.34375 184.308593h-232.085938l.34375-184.308593-6.828125-.011719 6.8125.414062c.851563-13.804687 4.746094-25.617187 10.992187-35.777343 9.359376-15.21875 24.183594-26.839844 42.46875-34.703126 18.265626-7.859374 39.90625-11.859374 62.253907-11.855468 29.804687-.019532 58.320312 7.136718 79.3125 20.964844 10.511719 6.90625 19.164062 15.4375 25.410156 25.589843 6.242187 10.164063 10.140625 21.976563 10.988281 35.78125l6.816406-.414062-6.828124.011719zm0 0" fill="#54596e"/><path d="m294 170.667969c0 15.078125-12.226562 27.304687-27.308594 27.304687-15.078125 0-27.304687-12.226562-27.304687-27.304687 0-15.082031 12.226562-27.308594 27.304687-27.308594 15.082032 0 27.308594 12.226563 27.308594 27.308594zm0 0" fill="#ffd578"/><path d="m294 170.667969h6.828125c-.007813-18.855469-15.28125-34.132813-34.136719-34.132813-18.851562 0-34.125 15.277344-34.132812 34.132813.007812 18.851562 15.28125 34.125 34.132812 34.132812 18.855469-.003906 34.128906-15.28125 34.136719-34.132812h-13.65625c-.019531 11.304687-9.171875 20.457031-20.480469 20.480469-11.304687-.023438-20.457031-9.175782-20.476562-20.480469.019531-11.308594 9.171875-20.460938 20.476562-20.480469 11.308594.019531 20.460938 9.171875 20.480469 20.480469zm0 0" fill="#54596e"/><path d="m89.199219 170.667969c0 15.078125-12.226563 27.304687-27.304688 27.304687-15.082031 0-27.308593-12.226562-27.308593-27.304687 0-15.082031 12.226562-27.308594 27.308593-27.308594 15.078125 0 27.304688 12.226563 27.304688 27.308594zm0 0" fill="#ffd578"/><path d="m89.199219 170.667969h6.828125c-.003906-18.855469-15.28125-34.132813-34.132813-34.132813-18.855469 0-34.128906 15.277344-34.132812 34.132813.003906 18.851562 15.277343 34.125 34.132812 34.132812 18.851563-.003906 34.128907-15.28125 34.132813-34.132812h-13.652344c-.023438 11.304687-9.175781 20.457031-20.480469 20.480469-11.308593-.023438-20.460937-9.175782-20.480469-20.480469.019532-11.308594 9.171876-20.460938 20.480469-20.480469 11.304688.019531 20.457031 9.171875 20.480469 20.480469zm0 0" fill="#54596e"/><path d="m164.292969 314.027344c-56.554688 0-102.398438-45.847656-102.398438-102.402344v-92.53125c0-16.761719 13.585938-30.347656 30.34375-30.347656l17.027344 4.839844c35.972656 10.222656 74.082031 10.222656 110.054687 0l17.027344-4.839844c16.757813 0 30.34375 13.585937 30.34375 30.347656v92.53125c0 56.554688-45.84375 102.402344-102.398437 102.402344zm0 0" fill="#ffd578"/><g fill="#54596e"><path d="m164.292969 314.027344v-6.828125c-26.414063-.003907-50.261719-10.6875-67.582031-27.992188-17.304688-17.316406-27.988282-41.167969-27.992188-67.582031v-92.53125c.023438-12.988281 10.535156-23.5 23.519531-23.523438v-6.824218l-1.867187 6.5625 17.027344 4.84375c18.597656 5.285156 37.746093 7.925781 56.894531 7.925781 19.148437 0 38.296875-2.644531 56.890625-7.925781l17.027344-4.84375-1.863282-6.5625v6.828125c12.988282.023437 23.496094 10.53125 23.519532 23.519531v92.53125c-.003907 26.414062-10.6875 50.265625-27.992188 67.582031-17.320312 17.304688-41.167969 27.988281-67.582031 27.992188v13.652343c60.324219 0 109.222656-48.898437 109.226562-109.226562v-92.53125c-.003906-20.535156-16.640625-37.167969-37.171875-37.171875-.640625 0-1.253906.082031-1.867187.257813l-17.027344 4.839843c-17.378906 4.9375-35.269531 7.40625-53.160156 7.40625s-35.785157-2.46875-53.160157-7.40625l-17.027343-4.839843c-.613281-.175782-1.226563-.257813-1.867188-.257813-20.53125.003906-37.167969 16.636719-37.171875 37.171875v92.53125c.003906 60.328125 48.898438 109.222656 109.226563 109.226562zm0 0"/><path d="m116.507812 160.425781c0 5.65625-4.585937 10.242188-10.242187 10.242188s-10.238281-4.585938-10.238281-10.242188 4.582031-10.238281 10.238281-10.238281 10.242187 4.582031 10.242187 10.238281zm0 0"/><path d="m232.558594 160.425781c0 5.65625-4.582032 10.242188-10.238282 10.242188s-10.242187-4.585938-10.242187-10.242188 4.585937-10.238281 10.242187-10.238281 10.238282 4.582031 10.238282 10.238281zm0 0"/></g><path d="m102.851562 191.148438c0 7.539062-6.109374 13.652343-13.652343 13.652343-7.539063 0-13.652344-6.113281-13.652344-13.652343 0-7.542969 6.113281-13.65625 13.652344-13.65625 7.542969 0 13.652343 6.113281 13.652343 13.65625zm0 0" fill="#ff927d"/><path d="m253.039062 191.148438c0 7.539062-6.113281 13.652343-13.652343 13.652343-7.539063 0-13.652344-6.113281-13.652344-13.652343 0-7.542969 6.113281-13.65625 13.652344-13.65625 7.539062 0 13.652343 6.113281 13.652343 13.65625zm0 0" fill="#ff927d"/><path d="m136.988281 225.28125h54.613281c3.769532 0 6.824219-3.058594 6.824219-6.828125s-3.054687-6.828125-6.824219-6.828125h-54.613281c-3.773437 0-6.828125 3.058594-6.828125 6.828125s3.054688 6.828125 6.828125 6.828125" fill="#ff927d"/><path d="m316.332031 430.078125h-297.253906c-6.519531 0-11.796875-5.28125-11.796875-11.796875v-188.027344c0-6.515625 5.277344-11.800781 11.796875-11.800781h297.253906c6.519531 0 11.800781 5.285156 11.800781 11.800781v188.027344c0 6.515625-5.28125 11.796875-11.800781 11.796875zm0 0" fill="#fff"/><path d="m316.332031 430.078125v-6.824219h-297.253906c-2.746094-.003906-4.964844-2.226562-4.972656-4.972656v-188.027344c.007812-2.746094 2.226562-4.96875 4.972656-4.976562h297.253906c2.75.007812 4.96875 2.226562 4.976563 4.976562v188.027344c-.007813 2.746094-2.226563 4.96875-4.976563 4.972656v13.652344c10.292969-.003906 18.625-8.339844 18.628907-18.625v-188.027344c-.003907-10.289062-8.335938-18.625-18.628907-18.628906h-297.253906c-10.292969.003906-18.621094 8.339844-18.625 18.628906v188.027344c.003906 10.285156 8.332031 18.621094 18.625 18.625h297.253906zm0 0" fill="#54596e"/><path d="m191.601562 324.265625c0 13.195313-10.699218 23.894531-23.894531 23.894531-13.195312 0-23.894531-10.699218-23.894531-23.894531s10.699219-23.890625 23.894531-23.890625c13.195313 0 23.894531 10.695312 23.894531 23.890625zm0 0" fill="#aaa"/></svg>