<svg height="436pt" viewBox="-54 0 436 436.90667" width="436pt" xmlns="http://www.w3.org/2000/svg"><path d="m268.496094 334.507812h-201.578125c-32.9375 0-59.636719 22.886719-59.636719 51.113282v44.457031h314.027344v-50.304687c0-25-23.644532-45.265626-52.8125-45.265626zm0 0" fill="#8065c4"/><path d="m268.496094 334.507812v-6.828124h-201.578125c-18.054688.003906-34.515625 6.257812-46.613281 16.613281-12.085938 10.328125-19.859376 25.007812-19.851563 41.328125v44.457031c0 1.800781.730469 3.558594 2 4.828125 1.273437 1.273438 3.03125 2 4.828125 2h314.027344c1.796875 0 3.554687-.726562 4.824218-2 1.273438-1.269531 2-3.027344 2-4.824219v-50.308593c.007813-14.703126-7-27.921876-17.851562-37.191407-10.859375-9.300781-25.617188-14.898437-41.785156-14.898437v13.648437c12.996094-.003906 24.648437 4.535157 32.898437 11.617188 8.265625 7.113281 13.074219 16.527343 13.082031 26.824219v43.480468h-300.371093v-37.628906c.007812-11.910156 5.582031-22.789062 15.085937-30.960938 9.484375-8.144531 22.84375-13.335937 37.726563-13.332031h201.578125zm0 0" fill="#54596e"/><path d="m48.238281 402.773438v20.480468c0 3.769532 3.058594 6.824219 6.828125 6.824219 3.769532 0 6.828125-3.054687 6.828125-6.824219v-20.480468c0-3.769532-3.058593-6.828126-6.828125-6.828126-3.769531 0-6.828125 3.058594-6.828125 6.828126" fill="#54596e"/><path d="m266.691406 402.773438v20.480468c0 3.769532 3.058594 6.824219 6.828125 6.824219s6.828125-3.054687 6.828125-6.824219v-20.480468c0-3.769532-3.058594-6.828126-6.828125-6.828126s-6.828125 3.058594-6.828125 6.828126" fill="#54596e"/><path d="m286.003906 88.746094h-243.417968c-.308594 2.257812-.675782 4.476562-.820313 6.828125l-7.179687 245.757812h259.414062l-7.179688-245.757812c-.140624-2.351563-.511718-4.570313-.816406-6.828125zm0 0" fill="#ff927d"/><path d="m286.003906 88.746094v-6.824219h-243.417968c-3.421876 0-6.304688 2.515625-6.765626 5.90625-.285156 2.117187-.699218 4.527344-.867187 7.339844l-.007813.207031-7.183593 245.757812c-.054688 1.847657.640625 3.628907 1.929687 4.957032 1.289063 1.324218 3.046875 2.070312 4.894532 2.070312h259.414062c1.851562 0 3.609375-.746094 4.894531-2.070312 1.289063-1.324219 1.984375-3.109375 1.929688-4.957032l-7.179688-245.757812-.007812-.207031c-.171875-2.8125-.585938-5.222657-.867188-7.339844-.460937-3.390625-3.347656-5.90625-6.765625-5.90625v6.824219l-6.765625.921875c.328125 2.394531.65625 4.425781.765625 6.3125l6.816406-.40625-6.824218.199219 6.972656 238.734374h-245.351562l6.972656-238.734374-6.824219-.199219 6.816406.40625c.109375-1.886719.4375-3.917969.765625-6.3125l-6.761718-.921875v6.828125h243.417968v-6.828125l-6.765625.921875zm0 0" fill="#54596e"/><path d="m294 177.492188c0 15.082031-12.226562 27.308593-27.308594 27.308593-15.078125 0-27.304687-12.226562-27.304687-27.308593 0-15.078126 12.226562-27.304688 27.304687-27.304688 15.082032 0 27.308594 12.226562 27.308594 27.304688zm0 0" fill="#ffd578"/><path d="m294 177.492188h6.828125c-.007813-18.851563-15.28125-34.128907-34.136719-34.132813-18.851562.003906-34.125 15.28125-34.132812 34.132813.007812 18.855468 15.28125 34.128906 34.132812 34.132812 18.855469 0 34.128906-15.277344 34.136719-34.132812h-13.65625c-.019531 11.308593-9.171875 20.460937-20.480469 20.480468-11.304687-.019531-20.457031-9.171875-20.476562-20.480468.019531-11.304688 9.171875-20.457032 20.476562-20.480469 11.308594.023437 20.460938 9.175781 20.480469 20.480469zm0 0" fill="#54596e"/><path d="m89.199219 177.492188c0 15.082031-12.226563 27.308593-27.304688 27.308593-15.082031 0-27.308593-12.226562-27.308593-27.308593 0-15.078126 12.226562-27.304688 27.308593-27.304688 15.078125 0 27.304688 12.226562 27.304688 27.304688zm0 0" fill="#ffd578"/><path d="m89.199219 177.492188h6.828125c-.003906-18.851563-15.28125-34.128907-34.132813-34.132813-18.855469.003906-34.128906 15.28125-34.132812 34.132813.003906 18.855468 15.277343 34.128906 34.132812 34.132812 18.851563 0 34.128907-15.277344 34.132813-34.132812h-13.652344c-.023438 11.308593-9.175781 20.460937-20.480469 20.480468-11.308593-.019531-20.460937-9.171875-20.480469-20.480468.019532-11.304688 9.171876-20.457032 20.480469-20.480469 11.304688.023437 20.457031 9.175781 20.480469 20.480469zm0 0" fill="#54596e"/><path d="m164.292969 382.292969c-15.078125 0-27.304688-12.226563-27.304688-27.304688v-68.269531h54.613281v68.269531c0 15.078125-12.226562 27.304688-27.308593 27.304688zm0 0" fill="#ffd578"/><path d="m164.292969 382.292969v-6.828125c-11.304688-.019532-20.460938-9.171875-20.480469-20.476563v-61.441406h40.960938v61.441406c-.019532 11.304688-9.171876 20.457031-20.480469 20.476563v13.65625c18.855469-.003906 34.128906-15.28125 34.132812-34.132813v-68.269531c0-1.796875-.726562-3.554688-2-4.828125-1.269531-1.269531-3.027343-1.996094-4.824219-1.996094h-54.613281c-1.796875 0-3.558593.726563-4.828125 1.996094-1.269531 1.273437-2 3.03125-2 4.828125v68.269531c.003906 18.851563 15.28125 34.125 34.132813 34.132813zm0 0" fill="#54596e"/><path d="m164.292969 320.851562c-56.554688 0-102.398438-66.324218-102.398438-122.878906v-102.398437h204.796875v102.398437c0 56.554688-45.84375 122.878906-102.398437 122.878906zm0 0" fill="#ffd578"/><g fill="#54596e"><path d="m164.292969 320.851562v-6.824218c-12.789063-.003906-25.050781-3.734375-36.433594-10.328125-17.058594-9.867188-31.984375-26.269531-42.503906-45.300781-10.542969-19.015626-16.652344-40.601563-16.636719-60.425782v-95.574218h191.148438v95.574218c.046874 26.4375-10.898438 55.984375-28.539063 78.4375-8.800781 11.238282-19.230469 20.703125-30.597656 27.289063-11.382813 6.589843-23.644531 10.324219-36.433594 10.328125v13.652344c15.484375.003906 30.160156-4.554688 43.28125-12.167969 19.695313-11.4375 36.042969-29.644531 47.601563-50.5 11.539062-20.871094 18.324218-44.445313 18.339843-67.039063v-102.398437c0-1.800781-.726562-3.558594-2-4.828125-1.269531-1.269532-3.027343-2-4.828125-2h-204.796875c-1.796875 0-3.558593.726562-4.828125 2-1.269531 1.269531-2 3.027344-2 4.828125v102.398437c.046875 30.117188 12.027344 62.007813 31.445313 86.859375 9.730469 12.410157 21.367187 23.0625 34.5 30.679688 13.117187 7.613281 27.796875 12.171875 43.28125 12.167969zm0 0"/><path d="m116.507812 167.253906c0 5.65625-4.585937 10.238282-10.242187 10.238282s-10.238281-4.582032-10.238281-10.238282 4.582031-10.242187 10.238281-10.242187 10.242187 4.585937 10.242187 10.242187zm0 0"/><path d="m232.558594 167.253906c0 5.65625-4.582032 10.238282-10.238282 10.238282s-10.242187-4.582032-10.242187-10.238282 4.585937-10.242187 10.242187-10.242187 10.238282 4.585937 10.238282 10.242187zm0 0"/><path d="m171.121094 430.078125v-47.785156c0-3.769531-3.058594-6.828125-6.828125-6.828125s-6.828125 3.058594-6.828125 6.828125v47.785156c0 3.773437 3.058594 6.828125 6.828125 6.828125s6.828125-3.054688 6.828125-6.828125"/></g><path d="m157.464844 245.761719h13.65625c7.539062 0 13.652344-6.113281 13.652344-13.65625 0-7.539063-6.113282-13.652344-13.652344-13.652344h-13.65625c-7.539063 0-13.652344 6.113281-13.652344 13.652344 0 7.542969 6.113281 13.65625 13.652344 13.65625" fill="#ff927d"/><path d="m136.988281 232.105469h54.613281c3.769532 0 6.824219-3.054688 6.824219-6.824219s-3.054687-6.828125-6.824219-6.828125h-54.613281c-3.773437 0-6.828125 3.058594-6.828125 6.828125s3.054688 6.824219 6.828125 6.824219" fill="#ff927d"/><path d="m44.828125 34.132812-3.414063 54.898438h47.785157zm0 0" fill="#fff35f"/><path d="m44.828125 34.132812-6.816406-.425781-3.410157 54.898438c-.117187 1.871093.554688 3.730469 1.835938 5.097656 1.285156 1.367187 3.101562 2.152344 4.976562 2.152344h47.785157c2.632812 0 5.023437-1.507813 6.160156-3.886719 1.136719-2.375.804687-5.183594-.851563-7.230469l-44.371093-54.898437c-1.777344-2.195313-4.695313-3.070313-7.386719-2.210938s-4.5625 3.261719-4.738281 6.078125l6.816406.425781-5.3125 4.292969 35.390625 43.777344h-26.230469l2.964844-47.648437-6.8125-.421876-5.3125 4.292969zm0 0" fill="#54596e"/><path d="m99.441406 13.652344-10.242187 75.09375h47.789062zm0 0" fill="#fff35f"/><path d="m99.441406 13.652344-6.765625-.921875-10.238281 75.09375c-.265625 1.957031.320312 3.921875 1.621094 5.410156 1.296875 1.488281 3.167968 2.339844 5.140625 2.339844h47.789062c2.371094 0 4.558594-1.21875 5.804688-3.238281 1.25-2.015626 1.363281-4.519532.300781-6.640626l-37.546875-75.09375c-1.335937-2.675781-4.273437-4.171874-7.222656-3.683593s-5.242188 2.851562-5.648438 5.8125l6.765625.921875-6.109375 3.054687 32.605469 65.210938h-28.917969l9.183594-67.34375-6.761719-.921875-6.109375 3.054687zm0 0" fill="#54596e"/><path d="m189.5 88.746094-25.207031-81.917969-25.207031 81.917969h-97.671876v34.132812l122.878907 13.65625 122.878906-13.65625v-34.132812zm0 0" fill="#fff35f"/><path d="m189.5 88.746094 6.527344-2.007813-25.210938-81.921875c-.878906-2.855468-3.53125-4.816406-6.523437-4.816406-2.988281 0-5.644531 1.960938-6.523438 4.816406l-23.726562 77.105469h-92.628907c-1.796874 0-3.558593.726563-4.828124 1.996094-1.269532 1.273437-2 3.03125-2 4.828125v34.132812c0 3.484375 2.613281 6.402344 6.074218 6.785156l122.878906 13.652344h1.507813l122.878906-13.652344c3.460938-.382812 6.074219-3.300781 6.074219-6.785156v-34.132812c0-1.796875-.730469-3.554688-2-4.828125-1.269531-1.269531-3.03125-1.996094-4.828125-1.996094h-97.671875v6.824219l6.527344-2.007813-6.527344 2.007813v6.828125h90.847656v21.195312l-116.050781 12.894531-116.058594-12.894531v-21.195312h90.847657c2.988281 0 5.648437-1.960938 6.527343-4.820313l18.679688-60.714844 18.683593 60.714844c.878907 2.855469 3.535157 4.820313 6.523438 4.820313zm0 0" fill="#54596e"/><path d="m229.148438 13.652344-37.546876 74.527344h47.785157zm0 0" fill="#fff35f"/><path d="m229.148438 13.652344-6.097657-3.070313-37.546875 74.527344c-1.070312 2.117187-.960937 4.628906.285156 6.648437 1.242188 2.023438 3.441407 3.246094 5.8125 3.246094h47.785157c1.976562 0 3.847656-.851562 5.148437-2.339844 1.296875-1.488281 1.886719-3.457031 1.617188-5.414062l-10.242188-74.527344c-.40625-2.960937-2.691406-5.3125-5.640625-5.804687-2.949219-.492188-5.871093.992187-7.21875 3.664062l6.097657 3.070313-6.765626.929687 9.175782 66.769531h-28.875l32.558594-64.628906-6.09375-3.070312-6.765626.929687zm0 0" fill="#54596e"/><path d="m283.761719 33-44.375 54.898438h47.785156zm0 0" fill="#fff35f"/><path d="m283.761719 33-5.3125-4.292969-44.371094 54.898438c-1.65625 2.046875-1.988281 4.855469-.851563 7.230469 1.132813 2.378906 3.523438 3.886718 6.160157 3.886718h47.785156c1.878906 0 3.691406-.785156 4.976563-2.152344 1.285156-1.367187 1.957031-3.226562 1.839843-5.097656l-3.414062-54.898437c-.175781-2.816407-2.050781-5.222657-4.742188-6.078125-2.691406-.855469-5.605469.015625-7.382812 2.210937l5.3125 4.292969-6.816407.421875 2.964844 47.648437h-26.226562l35.386718-43.78125-5.308593-4.289062-6.816407.421875zm0 0" fill="#54596e"/></svg>