<svg height="436pt" viewBox="-34 0 436 436.90667" width="436pt" xmlns="http://www.w3.org/2000/svg"><path d="m309.457031 320.851562h-242.539062c-32.9375 0-59.636719 22.886719-59.636719 51.117188v58.109375h354.984375v-63.957031c0-25-23.640625-45.269532-52.808594-45.269532zm0 0" fill="#61c5a8"/><path d="m309.457031 320.851562v-6.824218h-242.539062c-18.054688.003906-34.515625 6.257812-46.613281 16.617187-12.085938 10.324219-19.859376 25.007813-19.851563 41.328125v58.105469c0 1.800781.730469 3.558594 2 4.828125 1.273437 1.273438 3.03125 2 4.828125 2h354.984375c1.796875 0 3.554687-.726562 4.828125-2 1.269531-1.269531 2-3.027344 2-4.824219v-63.960937c.007812-14.703125-7.003906-27.925782-17.851562-37.191406-10.863282-9.300782-25.617188-14.894532-41.785157-14.902344v13.652344c12.996094-.003907 24.644531 4.535156 32.898438 11.617187 8.265625 7.113281 13.074219 16.527344 13.082031 26.824219v57.132812h-341.332031v-51.285156c.007812-11.910156 5.582031-22.785156 15.085937-30.960938 9.484375-8.140624 22.84375-13.335937 37.726563-13.328124h242.542969v-6.828126zm0 0" fill="#54596e"/><path d="m205.253906 368.640625h-40.960937c-22.621094 0-40.960938-18.339844-40.960938-40.960937v-13.652344c0-3.769532 3.058594-6.828125 6.828125-6.828125h109.226563c3.769531 0 6.828125 3.058593 6.828125 6.828125v13.652344c0 22.621093-18.339844 40.960937-40.960938 40.960937zm0 0" fill="#adf2a2"/><g fill="#54596e"><path d="m205.253906 368.640625v-6.828125h-40.960937c-9.445313-.003906-17.9375-3.808594-24.136719-9.996094-6.1875-6.199218-9.992188-14.691406-9.996094-24.136718v-13.652344h109.226563v13.652344c-.003907 9.445312-3.8125 17.9375-9.996094 24.136718-6.199219 6.1875-14.691406 9.992188-24.136719 9.996094v13.652344c26.394532-.003906 47.78125-21.390625 47.785156-47.785156v-13.652344c-.003906-7.542969-6.109374-13.648438-13.652343-13.652344h-109.226563c-7.542968.003906-13.648437 6.109375-13.652344 13.652344v13.652344c.003907 26.394531 21.390626 47.78125 47.785157 47.785156h40.960937zm0 0"/><path d="m164.292969 327.679688v40.960937c0 3.769531 3.058593 6.824219 6.828125 6.824219 3.769531 0 6.824218-3.054688 6.824218-6.824219v-40.960937c0-3.769532-3.054687-6.828126-6.824218-6.828126-3.769532 0-6.828125 3.058594-6.828125 6.828126"/><path d="m136.988281 327.679688v34.132812c0 3.769531 3.054688 6.828125 6.824219 6.828125s6.828125-3.058594 6.828125-6.828125v-34.132812c0-3.769532-3.058594-6.828126-6.828125-6.828126s-6.824219 3.058594-6.824219 6.828126"/><path d="m191.601562 327.679688v40.960937c0 3.769531 3.054688 6.824219 6.824219 6.824219s6.828125-3.054688 6.828125-6.824219v-40.960937c0-3.769532-3.058594-6.828126-6.828125-6.828126s-6.824219 3.058594-6.824219 6.828126"/><path d="m218.90625 327.679688v34.132812c0 3.769531 3.058594 6.828125 6.828125 6.828125s6.824219-3.058594 6.824219-6.828125v-34.132812c0-3.769532-3.054688-6.828126-6.824219-6.828126s-6.828125 3.058594-6.828125 6.828126"/></g><path d="m193.238281 6.828125h-16.929687c-74.496094 0-134.894532 60.394531-134.894532 134.894531v15.289063h286.71875v-15.289063c0-74.5-60.398437-134.894531-134.894531-134.894531zm0 0" fill="#fff35f"/><path d="m193.238281 6.828125v-6.828125h-16.929687c-78.269532.00390625-141.71875 63.449219-141.722656 141.722656v15.289063c0 1.796875.730468 3.554687 2 4.828125 1.273437 1.269531 3.027343 2 4.828124 2h286.71875c1.796876 0 3.554688-.730469 4.828126-2 1.269531-1.273438 1.996093-3.03125 1.996093-4.828125v-15.289063c-.003906-78.273437-63.449219-141.71874975-141.71875-141.722656v13.652344c35.382813.007812 67.359375 14.324218 90.554688 37.511718 23.1875 23.199219 37.507812 55.171876 37.515625 90.558594v8.464844h-273.070313v-8.464844c.003907-35.386718 14.324219-67.359375 37.511719-90.558594 23.199219-23.1875 55.175781-37.503906 90.558594-37.511718h16.929687z" fill="#54596e"/><path d="m68.71875 150.1875v61.4375c0 64.09375 51.960938 116.054688 116.054688 116.054688s116.054687-51.960938 116.054687-116.054688v-61.4375s-232.109375-26.964844-232.109375 0" fill="#ffd578"/><path d="m68.71875 150.1875h-6.824219v61.4375c.003907 67.867188 55.011719 122.875 122.878907 122.882812 67.867187-.007812 122.875-55.015624 122.878906-122.882812v-61.4375c0-3.460938-2.601563-6.382812-6.039063-6.78125-.132812-.007812-103.261719-12.019531-172.71875-12.03125-17.40625.007812-32.675781.734375-44.152343 2.726562-5.761719 1.019532-10.570313 2.28125-14.617188 4.371094-2.019531 1.066406-3.914062 2.363282-5.507812 4.292969-1.59375 1.882813-2.757813 4.632813-2.722657 7.421875h13.652344-1.875l1.5 1.234375.375-1.234375h-1.875l1.5 1.230469.195313-.171875c.566406-.496094 2.597656-1.542969 5.65625-2.367188 4.601562-1.292968 11.417968-2.308594 19.605468-2.933594 8.203125-.632812 17.8125-.917968 28.265625-.917968 34.007813 0 76.886719 2.980468 111.164063 5.96875 17.140625 1.492187 32.148437 2.984375 42.863281 4.109375 10.714844 1.121093 17.097656 1.859375 17.113281 1.863281l.789063-6.78125h-6.824219v61.4375c-.007812 30.183594-12.21875 57.449219-31.996094 77.234375-19.785156 19.78125-47.046875 31.992187-77.230468 31.992187-30.183594 0-57.445313-12.210937-77.234376-31.988281-19.777343-19.789062-31.988281-47.054687-31.992187-77.238281v-61.4375z" fill="#54596e"/><path d="m147.585938 258.691406 13.644531 6.828125c.96875.480469 1.976562.71875 3.054687.71875h40.96875c1.078125 0 2.089844-.234375 3.050782-.71875l13.65625-6.828125c3.371093-1.683594 4.738281-5.785156 3.050781-9.15625-1.683594-3.371094-5.785157-4.738281-9.15625-3.054687l-12.214844 6.105469h-37.742187l-12.203126-6.105469c-3.371093-1.6875-7.472656-.320313-9.160156 3.050781-1.6875 3.375-.324218 7.472656 3.050782 9.160156" fill="#54596e"/><path d="m136.988281 187.734375c0-5.65625-4.585937-10.238281-10.242187-10.238281s-10.238282 4.582031-10.238282 10.238281 4.582032 10.238281 10.238282 10.238281 10.242187-4.582031 10.242187-10.238281" fill="#54596e"/><path d="m253.039062 187.734375c0-5.65625-4.582031-10.238281-10.238281-10.238281-5.660156 0-10.242187 4.582031-10.242187 10.238281s4.585937 10.238281 10.242187 10.238281 10.238281-4.582031 10.238281-10.238281" fill="#54596e"/><path d="m164.285156 266.238281c-1.078125 0-2.085937-.238281-3.054687-.71875l-13.644531-6.828125c-3.371094-1.6875-4.738282-5.785156-3.050782-9.160156 1.195313-2.390625 3.605469-3.773438 6.109375-3.773438 1.027344 0 2.070313.234376 3.050781.722657l12.203126 6.105469h37.742187l12.214844-6.105469c.980469-.488281 2.019531-.722657 3.046875-.722657 2.503906 0 4.914062 1.382813 6.109375 3.777344 1.6875 3.371094.320312 7.472656-3.050781 9.15625l-13.65625 6.828125c-.964844.484375-1.972657.71875-3.050782.71875zm-37.539062-68.265625c-5.65625 0-10.238282-4.582031-10.238282-10.238281s4.582032-10.238281 10.238282-10.238281 10.242187 4.582031 10.242187 10.238281-4.585937 10.238281-10.242187 10.238281m116.054687 0c-5.660156 0-10.242187-4.582031-10.242187-10.238281s4.585937-10.238281 10.242187-10.238281 10.238281 4.582031 10.238281 10.238281-4.582031 10.238281-10.238281 10.238281m51.199219-40.960937h-218.453125v54.613281c0 17.71875 4.207031 34.421875 11.683594 49.207031 2.015625.734375 4.144531 1.246094 6.359375 1.507813l48.742187 5.734375c14.097657 1.65625 28.269531 2.488281 42.441407 2.488281 14.167968 0 28.339843-.832031 42.4375-2.488281l48.746093-5.734375c2.210938-.261719 4.339844-.773438 6.359375-1.507813 7.472656-14.78125 11.679688-31.492187 11.683594-49.207031z" fill="#ccc7a1"/><path d="m75.546875 157.011719h-6.828125v77.363281c0 12.046875 7.609375 22.484375 18.511719 26.453125-7.476563-14.777344-11.683594-31.484375-11.683594-49.203125zm225.28125 0h-6.828125v54.613281c0 17.71875-4.207031 34.425781-11.683594 49.207031 10.898438-3.96875 18.511719-14.410156 18.511719-26.457031z" fill="#54709a"/><path d="m150.644531 245.757812c-2.503906 0-4.914062 1.382813-6.109375 3.773438-1.6875 3.375-.320312 7.472656 3.050782 9.160156l13.644531 6.828125c.96875.480469 1.976562.71875 3.054687.71875h40.96875c1.078125 0 2.089844-.234375 3.050782-.71875l13.65625-6.828125c3.371093-1.683594 4.738281-5.785156 3.050781-9.15625-1.195313-2.394531-3.605469-3.777344-6.109375-3.777344-1.027344 0-2.066406.234376-3.046875.722657l-12.214844 6.105469h-37.742187l-12.203126-6.105469c-.980468-.488281-2.023437-.722657-3.050781-.722657" fill="#54709a"/><path d="m126.746094 177.492188c-5.65625 0-10.238282 4.585937-10.238282 10.238281 0 5.660156 4.582032 10.242187 10.238282 10.242187s10.242187-4.585937 10.242187-10.242187c0-5.652344-4.585937-10.238281-10.242187-10.238281" fill="#54709a"/><path d="m242.800781 177.492188c-5.660156 0-10.242187 4.585937-10.242187 10.238281 0 5.660156 4.585937 10.242187 10.242187 10.242187s10.238281-4.585937 10.238281-10.242187c0-5.652344-4.582031-10.238281-10.238281-10.238281" fill="#54709a"/><path d="m212.078125 129.707031v-98.289062c0-13.582031-11.007813-24.589844-24.585937-24.589844h-5.4375c-13.578126 0-24.589844 11.007813-24.589844 24.589844v98.289062h-93.039063c-12.710937 0-23.011719 10.304688-23.011719 23.015625v86.210938h27.304688v-81.921875h232.109375v81.921875h27.304687v-86.214844c0-12.707031-10.300781-23.011719-23.011718-23.011719zm0 0" fill="#ff927d"/><path d="m212.078125 129.707031h6.828125v-98.289062c-.003906-17.355469-14.0625-31.41406275-31.414062-31.417969h-5.4375c-17.351563.00390625-31.410157 14.0625-31.414063 31.417969v91.460937h-86.214844c-16.484375.003906-29.835937 13.359375-29.839843 29.839844v86.214844c0 1.796875.730468 3.554687 2 4.828125 1.273437 1.269531 3.03125 2 4.828124 2h27.304688c1.796875 0 3.558594-.730469 4.828125-2 1.269531-1.273438 2-3.03125 2-4.828125v-75.09375h218.453125v75.09375c0 1.796875.730469 3.554687 2 4.828125 1.273438 1.269531 3.03125 2 4.828125 2h27.304687c1.796876 0 3.558594-.730469 4.828126-2 1.269531-1.273438 2-3.03125 2-4.828125v-86.214844c-.007813-16.480469-13.355469-29.835938-29.839844-29.839844h-93.042969v6.828125h6.828125-6.828125v6.828125h93.042969c8.9375.015625 16.171875 7.25 16.1875 16.1875v79.382813h-13.65625v-75.09375c0-1.796875-.726563-3.554688-2-4.828125-1.269532-1.269532-3.027344-1.996094-4.824219-1.996094h-232.109375c-1.796875 0-3.554688.726562-4.824219 1.996094-1.269531 1.269531-2 3.03125-2 4.828125v75.09375h-13.65625v-79.386719c.019531-8.9375 7.25-16.171875 16.1875-16.1875h93.039063c1.800781 0 3.558594-.726562 4.828125-2 1.273437-1.269531 2-3.027344 2-4.824219v-98.289062c.015625-9.808594 7.957031-17.746094 17.761719-17.765625h5.4375c9.804687.019531 17.742187 7.957031 17.761718 17.765625v98.289062c0 1.796875.726563 3.554688 2 4.824219 1.269532 1.273438 3.027344 2.003906 4.824219 2.003906zm0 0" fill="#54596e"/><path d="m275.957031 262.339844-1.703125-6.609375-32.835937 8.457031c-11.640625 3-23.46875 5.023438-35.34375 5.738281-7.09375.421875-14.195313.632813-21.300781.632813-7.105469 0-14.210938-.210938-21.304688-.632813-11.871094-.714843-23.699219-2.738281-35.339844-5.738281l-32.835937-8.457031-.90625-.171875c-10.742188-1.261719-18.84375-10.371094-18.839844-21.183594v-70.535156h218.453125v70.535156c.003906 10.8125-8.097656 19.921875-18.839844 21.1875l-.90625.167969 1.703125 6.609375.796875 6.78125c17.625-2.078125 30.898438-17.007813 30.898438-34.746094v-77.363281c0-1.796875-.726563-3.554688-2-4.828125-1.269532-1.269532-3.027344-1.996094-4.824219-1.996094h-232.109375c-1.796875 0-3.554688.726562-4.824219 1.996094-1.269531 1.269531-2 3.03125-2 4.828125v77.363281c.003907 17.738281 13.273438 32.667969 30.894531 34.746094l.800782-6.78125-1.703125 6.609375 32.835937 8.460937c12.367188 3.1875 25.058594 5.371094 37.929688 6.144532 7.367187.441406 14.746094.660156 22.121094.660156s14.75-.222656 22.117187-.660156c12.875-.773438 25.566406-2.957032 37.933594-6.144532l32.835937-8.460937-1.703125-6.609375.796875 6.78125zm0 0" fill="#54596e"/><path d="m157.464844 368.640625h54.613281v61.4375h-54.613281zm0 0" fill="#fff35f"/><path d="m212.078125 430.078125v-6.824219h-47.785156v-47.789062h40.960937v54.613281h6.824219v-6.824219 6.824219h6.828125v-61.4375c0-1.796875-.726562-3.558594-2-4.828125-1.269531-1.269531-3.027344-2-4.828125-2h-54.613281c-1.796875 0-3.554688.730469-4.824219 2s-2 3.03125-2 4.828125v61.4375c0 1.800781.726563 3.558594 2 4.828125 1.269531 1.273438 3.027344 2 4.824219 2h54.613281c1.800781 0 3.558594-.726562 4.828125-2 1.273438-1.269531 2-3.027344 2-4.828125zm0 0" fill="#54596e"/><path d="m157.464844 395.945312h27.308594c3.769531 0 6.828124-3.054687 6.828124-6.824218 0-3.769532-3.058593-6.828125-6.828124-6.828125h-27.308594c-3.769532 0-6.824219 3.058593-6.824219 6.828125 0 3.769531 3.054687 6.824218 6.824219 6.824218" fill="#54596e"/><path d="m157.464844 416.425781h27.308594c3.769531 0 6.828124-3.054687 6.828124-6.824219 0-3.773437-3.058593-6.828124-6.828124-6.828124h-27.308594c-3.769532 0-6.824219 3.054687-6.824219 6.828124 0 3.769532 3.054687 6.824219 6.824219 6.824219" fill="#54596e"/></svg>