<svg height="436pt" viewBox="-41 0 436 436.90667" width="436pt" xmlns="http://www.w3.org/2000/svg"><path d="m295.804688 307.199219h-228.890626c-32.933593 0-59.636718 22.886719-59.636718 51.117187v71.761719h341.335937v-77.613281c0-25-23.648437-45.265625-52.808593-45.265625zm0 0" fill="#fff"/><path d="m295.804688 307.199219v-6.824219h-228.890626c-18.054687.003906-34.515624 6.253906-46.609374 16.613281-12.085938 10.328125-19.859376 25.007813-19.851563 41.328125v71.761719c0 1.800781.730469 3.558594 2 4.828125 1.269531 1.273438 3.027344 2 4.824219 2h341.335937c1.796875 0 3.554688-.726562 4.824219-2 1.273438-1.269531 2-3.027344 2-4.824219v-77.613281c.007812-14.707031-7.003906-27.925781-17.851562-37.191406-10.859376-9.300782-25.613282-14.898438-41.78125-14.902344v13.652344c12.996093-.003906 24.644531 4.53125 32.898437 11.613281 8.265625 7.117187 13.074219 16.53125 13.082031 26.828125v70.785156h-327.679687v-64.9375c.007812-11.910156 5.582031-22.785156 15.082031-30.960937 9.488281-8.140625 22.84375-13.332031 37.726562-13.328125h228.890626zm0 0" fill="#54596e"/><path d="m242.796875 341.332031h-122.878906c-16.964844 0-30.71875-13.753906-30.71875-30.71875 0-16.964843 13.753906-30.71875 30.71875-30.71875h122.878906c16.96875 0 30.722656 13.753907 30.722656 30.71875 0 16.964844-13.753906 30.71875-30.722656 30.71875zm0 0" fill="#d8d8d8"/><path d="m242.796875 341.332031v-6.824219h-122.878906c-13.195313-.023437-23.867188-10.703124-23.894531-23.894531.027343-13.195312 10.699218-23.871093 23.894531-23.894531h122.878906c13.195313.023438 23.871094 10.703125 23.894531 23.894531-.023437 13.191407-10.699218 23.871094-23.894531 23.894531v13.652344c20.742187-.003906 37.542969-16.808594 37.546875-37.546875-.003906-20.738281-16.804688-37.542969-37.546875-37.546875h-122.878906c-20.738281.003906-37.542969 16.808594-37.546875 37.546875.003906 20.738281 16.808594 37.542969 37.546875 37.546875h122.878906zm0 0" fill="#54596e"/><path d="m307.652344 286.722656-129.707032 27.304688-129.707031-27.304688v-157.878906c0-67.390625 54.628907-122.015625 122.011719-122.015625h15.386719c67.386719 0 122.011719 54.625 122.011719 122.015625v157.878906" fill="#fff"/><path d="m307.652344 286.71875-1.40625-6.679688-128.304688 27.011719-122.875-25.871093v-152.335938c.003906-31.832031 12.878906-60.585938 33.734375-81.453125 20.867188-20.855469 49.621094-33.734375 81.449219-33.738281h15.386719c31.832031.003906 60.585937 12.882812 81.449219 33.738281 20.855468 20.867187 33.734374 49.621094 33.738281 81.453125v157.875h6.828125l-1.40625-6.679688 1.40625 6.679688h6.824218v-157.875c-.003906-71.164062-57.679687-128.83984375-128.839843-128.84375h-15.386719c-71.15625.00390625-128.832031 57.679688-128.839844 128.84375v157.875c0 3.238281 2.253906 6.015625 5.421875 6.679688l129.707031 27.308593c.933594.195313 1.878907.195313 2.8125 0l129.707032-27.308593c3.164062-.664063 5.417968-3.445313 5.417968-6.679688zm0 0" fill="#54596e"/><path d="m177.945312 109.226562c-33.53125 0-65.667968 1.679688-95.574218 4.707032v87.238281c0 18.679687 7.1875 35.640625 18.867187 48.425781 5.109375.40625 10.300781.75 15.515625 1.074219-.128906-1.625-.246094-3.253906-.246094-4.910156-.003906-33.933594 27.503907-61.441407 61.4375-61.441407 33.933594 0 61.441407 27.507813 61.441407 61.441407 0 1.65625-.121094 3.285156-.246094 4.910156 5.210937-.324219 10.40625-.667969 15.511719-1.074219 11.679687-12.785156 18.867187-29.742187 18.867187-48.425781v-87.238281c-29.90625-3.027344-62.039062-4.707032-95.574219-4.707032" fill="#ffd578"/><path d="m177.945312 109.226562v-6.828124c-33.761718 0-66.117187 1.691406-96.257812 4.742187-3.488281.355469-6.140625 3.289063-6.140625 6.792969v87.238281c-.003906 20.449219 7.886719 39.070313 20.652344 53.03125 1.160156 1.265625 2.785156 2.0625 4.496093 2.199219 5.171876.410156 10.402344.757812 15.628907 1.085937 1.972656.121094 3.902343-.617187 5.289062-2.027343 1.386719-1.40625 2.09375-3.347657 1.945313-5.316407-.128906-1.609375-.230469-3.058593-.230469-4.382812.003906-15.105469 6.105469-28.714844 16-38.621094 9.902344-9.894531 23.511719-15.992187 38.613281-15.996094 15.105469.003907 28.714844 6.101563 38.617188 15.996094 9.894531 9.90625 15.992187 23.511719 15.996094 38.621094.003906 1.324219-.097657 2.773437-.226563 4.382812-.152344 1.96875.558594 3.910157 1.945313 5.316407 1.386718 1.410156 3.316406 2.148437 5.289062 2.027343 5.230469-.328125 10.460938-.675781 15.628906-1.085937 1.710938-.136719 3.339844-.933594 4.496094-2.199219 12.765625-13.960937 20.660156-32.578125 20.652344-53.03125v-87.238281c0-3.5-2.652344-6.441406-6.136719-6.789063-30.140625-3.050781-62.5-4.742187-96.261719-4.742187v13.652344c33.308594 0 65.21875 1.667968 94.886719 4.671874l.6875-6.792968h-6.824219v87.238281c-.007812 16.914063-6.488281 32.214844-17.082031 43.820313l5.039063 4.605468-.539063-6.804687c-5.046875.398437-10.203125.742187-15.398437 1.066406l.425781 6.8125 6.804687.53125c.128906-1.644531.265625-3.453125.269532-5.441406-.003907-37.707031-30.5625-68.261719-68.269532-68.265625-37.707031.003906-68.257812 30.558594-68.265625 68.265625.003907 1.988281.140625 3.796875.269531 5.441406l6.808594-.53125.425782-6.8125c-5.199219-.324219-10.351563-.667969-15.398438-1.066406l-.542969 6.804687 5.042969-4.605468c-10.597656-11.605469-17.078125-26.90625-17.082031-43.820313v-87.238281h-6.828125l.6875 6.792968c29.671875-3.003906 61.582031-4.671874 94.886718-4.671874z" fill="#54596e"/><path d="m177.945312 116.054688c-31.019531 0-60.828124 1.449218-88.746093 4.074218v20.449219c27.949219-2.609375 57.75-4.042969 88.746093-4.042969 30.996094 0 60.796876 1.433594 88.746094 4.042969v-20.453125c-27.914062-2.625-57.726562-4.070312-88.746094-4.070312" fill="#ddbc76"/><g fill="#54596e"><path d="m177.945312 109.226562c-33.53125 0-65.667968 1.679688-95.574218 4.707032v27.304687c2.261718-.226562 4.539062-.449219 6.828125-.664062v-20.449219c27.917969-2.625 57.726562-4.070312 88.746093-4.070312 31.019532 0 60.832032 1.449218 88.746094 4.074218v20.449219c2.289063.210937 4.5625.433594 6.828125.664063v-27.308594c-29.90625-3.027344-62.039062-4.707032-95.574219-4.707032"/><path d="m130.160156 153.601562c0 5.652344-4.585937 10.238282-10.242187 10.238282s-10.238281-4.585938-10.238281-10.238282c0-5.65625 4.582031-10.242187 10.238281-10.242187s10.242187 4.585937 10.242187 10.242187zm0 0"/><path d="m246.210938 153.601562c0 5.652344-4.582032 10.238282-10.238282 10.238282s-10.242187-4.585938-10.242187-10.238282c0-5.65625 4.585937-10.242187 10.242187-10.242187s10.238282 4.585937 10.238282 10.242187zm0 0"/><path d="m150.636719 375.464844c0 3.773437-3.054688 6.828125-6.824219 6.828125s-6.828125-3.054688-6.828125-6.828125c0-3.769532 3.058594-6.824219 6.828125-6.824219s6.824219 3.054687 6.824219 6.824219zm0 0"/><path d="m150.636719 402.773438c0 3.769531-3.054688 6.828124-6.824219 6.828124s-6.828125-3.058593-6.828125-6.828124c0-3.769532 3.058594-6.828126 6.828125-6.828126s6.824219 3.058594 6.824219 6.828126zm0 0"/><path d="m218.90625 375.464844c0 3.773437-3.058594 6.828125-6.828125 6.828125s-6.828125-3.054688-6.828125-6.828125c0-3.769532 3.058594-6.824219 6.828125-6.824219s6.828125 3.054687 6.828125 6.824219zm0 0"/><path d="m218.90625 402.773438c0 3.769531-3.058594 6.828124-6.828125 6.828124s-6.828125-3.058593-6.828125-6.828124c0-3.769532 3.058594-6.828126 6.828125-6.828126s6.828125 3.058594 6.828125 6.828126zm0 0"/></g><path d="m218.90625 245.761719c0 22.621093-18.339844 40.957031-40.960938 40.957031-22.621093 0-40.960937-18.335938-40.960937-40.957031 0-22.625 18.339844-40.960938 40.960937-40.960938 22.621094 0 40.960938 18.335938 40.960938 40.960938zm0 0" fill="#999"/><path d="m218.90625 245.761719h6.824219c-.003907-26.394531-21.390625-47.785157-47.785157-47.789063-26.394531.003906-47.78125 21.394532-47.785156 47.789063.003906 26.390625 21.390625 47.78125 47.785156 47.785156 26.394532-.003906 47.78125-21.394531 47.785157-47.785156h-13.652344c-.003906 9.445312-3.8125 17.933593-9.996094 24.132812-6.199219 6.1875-14.691406 9.996094-24.136719 10-9.445312-.003906-17.9375-3.8125-24.136718-10-6.1875-6.199219-9.992188-14.6875-9.996094-24.132812.003906-9.449219 3.808594-17.9375 9.996094-24.136719 6.199218-6.1875 14.691406-9.996094 24.136718-10 9.445313.003906 17.9375 3.8125 24.136719 10 6.1875 6.199219 9.992188 14.6875 9.996094 24.136719zm0 0" fill="#54596e"/><path d="m198.425781 245.761719c0 11.308593-9.171875 20.476562-20.480469 20.476562-11.3125 0-20.480468-9.167969-20.480468-20.476562 0-11.3125 9.167968-20.480469 20.480468-20.480469 11.308594 0 20.480469 9.167969 20.480469 20.480469zm0 0" fill="#54596e"/></svg>