<svg height="430pt" viewBox="-38 0 430 430.08" width="430pt" xmlns="http://www.w3.org/2000/svg"><path d="m81.960938 184.320312c0 15.082032-12.226563 27.304688-27.308594 27.304688-15.078125 0-27.304688-12.222656-27.304688-27.304688 0-15.082031 12.226563-27.308593 27.304688-27.308593 15.082031 0 27.308594 12.226562 27.308594 27.308593zm0 0" fill="#ffd578"/><path d="m81.960938 184.320312h6.824218c-.003906-18.855468-15.277344-34.128906-34.132812-34.132812-18.851563.003906-34.128906 15.277344-34.132813 34.132812.003907 18.851563 15.28125 34.128907 34.132813 34.132813 18.855468-.003906 34.128906-15.28125 34.132812-34.132813h-13.652344c-.019531 11.304688-9.171874 20.460938-20.480468 20.480469-11.304688-.019531-20.457032-9.175781-20.480469-20.480469.023437-11.308593 9.175781-20.460937 20.480469-20.480468 11.308594.019531 20.460937 9.171875 20.480468 20.480468zm0 0" fill="#54596e"/><path d="m290.796875 327.679688h-219.109375c-35.796875 0-64.820312 22.886718-64.820312 51.117187v44.457031h341.332031v-50.308594c0-25-25.699219-45.265624-57.402344-45.265624zm0 0" fill="#a1b7ff"/><path d="m290.796875 327.679688v-6.828126h-219.109375c-19.355469.011719-37 6.15625-50.0625 16.4375-13.03125 10.238282-21.59375 24.972657-21.5859375 41.507813v44.457031c0 1.796875.7304685 3.554688 1.9999995 4.824219 1.273438 1.273437 3.03125 2 4.828126 2h341.332031c1.796875 0 3.554687-.726563 4.828125-1.996094 1.269531-1.273437 2-3.03125 2-4.828125v-50.304687c.007812-14.921875-7.722656-28.195313-19.414063-37.371094-11.71875-9.222656-27.507812-14.714844-44.816406-14.722656v13.652343c14.398437-.011718 27.308594 4.632813 36.363281 11.792969 9.085938 7.203125 14.207032 16.566407 14.214844 26.648438v43.476562h-327.683594v-37.628906c.007813-11.695313 5.960938-22.519531 16.390625-30.785156 10.398438-8.214844 25.164063-13.515625 41.609375-13.503907h219.105469zm0 0" fill="#54596e"/><path d="m184.359375 375.464844h-13.652344c-15.082031 0-27.308593-12.226563-27.308593-27.304688v-68.265625h68.269531v68.265625c0 15.078125-12.226563 27.304688-27.308594 27.304688zm0 0" fill="#ffd578"/><path d="m184.359375 375.464844v-6.824219h-13.652344c-11.308593-.019531-20.460937-9.175781-20.480469-20.480469v-61.441406h54.613282v61.441406c-.019532 11.304688-9.171875 20.460938-20.480469 20.480469v13.652344c18.855469-.003907 34.128906-15.28125 34.132813-34.132813v-68.265625c0-1.800781-.726563-3.558593-2-4.828125-1.269532-1.273437-3.027344-2-4.824219-2h-68.269531c-1.796876 0-3.554688.726563-4.824219 2-1.273438 1.269532-2 3.03125-2 4.828125v68.265625c.003906 18.851563 15.277343 34.128906 34.132812 34.132813h13.652344zm0 0" fill="#54596e"/><path d="m6.867188 395.945312h34.132812c15.082031 0 27.308594 12.226563 27.308594 27.308594h-61.441406zm0 0" fill="#ffd578"/><path d="m6.867188 395.945312v6.828126h34.132812c11.308594.019531 20.460938 9.171874 20.480469 20.480468h6.828125v-6.828125h-54.617188v-20.480469h-6.824218v6.828126-6.828126h-6.8281255v27.308594c0 1.796875.7304685 3.554688 1.9999995 4.824219 1.273438 1.273437 3.03125 2 4.828126 2h61.441406c1.796875 0 3.554687-.726563 4.824218-1.996094 1.273438-1.273437 2-3.03125 2-4.828125-.003906-18.855468-15.277343-34.128906-34.132812-34.132812h-34.132812c-1.796876 0-3.558594.726562-4.828126 1.996094-1.269531 1.273437-1.9999995 3.03125-1.9999995 4.828124zm0 0" fill="#54596e"/><path d="m348.199219 395.945312h-34.132813c-15.078125 0-27.304687 12.226563-27.304687 27.308594h61.4375zm0 0" fill="#ffd578"/><path d="m348.199219 395.945312v-6.824218h-34.132813c-18.851562.003906-34.128906 15.277344-34.132812 34.132812 0 1.796875.726562 3.554688 2 4.824219 1.269531 1.273437 3.027344 2 4.828125 2h61.4375c1.796875 0 3.554687-.726563 4.828125-2 1.269531-1.269531 2-3.027344 2-4.824219v-27.308594c0-1.796874-.730469-3.554687-2-4.828124-1.269532-1.269532-3.03125-1.996094-4.828125-1.996094v6.824218h-6.824219v20.480469h-54.613281v6.828125h6.824219c.019531-11.308594 9.175781-20.460937 20.480468-20.480468h34.132813v-6.828126h-6.824219zm0 0" fill="#54596e"/><path d="m218.492188 409.601562h40.960937c3.769531 0 6.828125-3.058593 6.828125-6.828124 0-3.769532-3.058594-6.828126-6.828125-6.828126h-40.960937c-3.769532 0-6.824219 3.058594-6.824219 6.828126 0 3.769531 3.054687 6.828124 6.824219 6.828124" fill="#54596e"/><path d="m327.71875 184.320312c0 15.082032-12.222656 27.304688-27.304688 27.304688-15.082031 0-27.308593-12.222656-27.308593-27.304688 0-15.082031 12.226562-27.308593 27.308593-27.308593 15.082032 0 27.304688 12.226562 27.304688 27.308593zm0 0" fill="#ffd578"/><path d="m327.71875 184.320312h6.828125c-.003906-18.855468-15.28125-34.128906-34.132813-34.132812-18.855468.003906-34.128906 15.277344-34.132812 34.132812.003906 18.851563 15.277344 34.128907 34.132812 34.132813 18.851563-.003906 34.128907-15.28125 34.132813-34.132813h-13.652344c-.023437 11.304688-9.175781 20.460938-20.480469 20.480469-11.308593-.019531-20.460937-9.175781-20.480468-20.480469.019531-11.308593 9.171875-20.460937 20.480468-20.480468 11.304688.019531 20.457032 9.171875 20.480469 20.480468zm0 0" fill="#54596e"/><path d="m218.40625 41.679688c-.902344 22.289062-43.269531 40.242187-95.484375 40.242187-13.027344 0-25.429687-1.128906-36.742187-3.148437-15.421876 19.703124-24.699219 44.449218-24.699219 71.414062v61.4375c0 64.09375 51.960937 116.054688 116.054687 116.054688s116.050782-51.960938 116.050782-116.054688v-61.4375c0-49.6875-31.28125-91.957031-75.179688-108.507812zm0 0" fill="#ffd578"/><g fill="#54596e"><path d="m218.40625 41.679688-6.820312-.277344c-.136719 3.371094-1.828126 7.058594-5.917969 11.09375-6.0625 6.011718-17.273438 11.910156-31.703125 16.003906-14.433594 4.132812-32.054688 6.597656-51.042969 6.59375-12.632813 0-24.644531-1.097656-35.542969-3.042969-2.484375-.441406-5.015625.523438-6.574218 2.511719-16.3125 20.832031-26.15625 47.082031-26.152344 75.625v61.4375c.007812 67.867188 55.015625 122.875 122.882812 122.882812 67.863282-.003906 122.875-55.015624 122.878906-122.882812v-61.4375c-.007812-52.617188-33.128906-97.386719-79.601562-114.894531-2.046875-.773438-4.347656-.515625-6.175781.695312-1.828125 1.210938-2.964844 3.226563-3.050781 5.414063l6.820312.277344-2.40625 6.386718c41.320312 15.59375 70.769531 55.363282 70.761719 102.121094v61.4375c-.003907 30.183594-12.214844 57.449219-31.992188 77.234375-19.789062 19.78125-47.054687 31.992187-77.234375 31.992187-30.183594 0-57.449218-12.214843-77.238281-31.992187-19.777344-19.785156-31.988281-47.050781-31.988281-77.234375v-61.4375c0-25.386719 8.714844-48.628906 23.246094-67.207031l-5.375-4.207031-1.199219 6.722656c11.730469 2.089844 24.523437 3.25 37.941406 3.25 26.898437-.015625 51.285156-4.570313 69.636719-12.300782 9.179687-3.882812 16.890625-8.554687 22.667968-14.199218 5.742188-5.601563 9.6875-12.515625 10-20.289063l-6.820312-.277343-2.40625 6.386718zm0 0"/><path d="m140.34375 258.691406 13.648438 6.828125c.964843.480469 1.972656.71875 3.054687.71875h40.964844c1.082031 0 2.089843-.238281 3.054687-.71875l13.652344-6.828125c3.375-1.6875 4.742188-5.789062 3.054688-9.160156s-5.789063-4.738281-9.160157-3.054688l-12.210937 6.109376h-37.746094l-12.203125-6.105469c-3.371094-1.6875-7.472656-.320313-9.160156 3.054687-1.6875 3.367188-.320313 7.46875 3.050781 9.15625zm0 0"/><path d="m129.746094 187.734375c0 5.65625-4.585938 10.238281-10.238282 10.238281-5.65625 0-10.242187-4.582031-10.242187-10.238281s4.585937-10.242187 10.242187-10.242187c5.652344 0 10.238282 4.585937 10.238282 10.242187zm0 0"/><path d="m245.800781 187.734375c0 5.65625-4.585937 10.238281-10.242187 10.238281-5.652344 0-10.238282-4.582031-10.238282-10.238281s4.585938-10.242187 10.238282-10.242187c5.65625 0 10.242187 4.585937 10.242187 10.242187zm0 0"/></g><path d="m227.125 6.828125h-99.179688c-36.707031 0-66.464843 29.757813-66.464843 66.464844v56.414062h232.105469v-56.414062c0-36.707031-29.757813-66.464844-66.460938-66.464844zm0 0" fill="#fff"/><path d="m227.125 6.828125v-6.828125h-99.179688c-40.480468.00390625-73.285156 32.8125-73.292968 73.292969v56.414062c0 1.796875.730468 3.554688 2 4.824219 1.273437 1.273438 3.03125 2.003906 4.828125 2.003906h232.105469c1.796874 0 3.554687-.730468 4.828124-2 1.269532-1.273437 2-3.03125 2-4.828125v-56.414062c-.003906-40.480469-32.8125-73.28906275-73.289062-73.292969v13.652344c16.488281.003906 31.355469 6.664062 42.167969 17.46875 10.804687 10.8125 17.464843 25.679687 17.46875 42.171875v49.585937h-218.453125v-49.585937c0-16.492188 6.664062-31.359375 17.464844-42.171875 10.8125-10.804688 25.679687-17.460938 42.171874-17.46875h99.179688zm0 0" fill="#54596e"/><path d="m61.480469 102.398438h232.105469v27.308593h-232.105469zm0 0" fill="#d8d8d8"/><path d="m293.585938 129.707031v-6.828125h-225.277344v-13.652344h218.453125v20.480469h6.824219v-6.828125 6.828125h6.828124v-27.308593c0-1.796876-.730468-3.554688-2-4.828126-1.269531-1.269531-3.03125-1.996093-4.828124-1.996093h-232.105469c-1.796875 0-3.558594.726562-4.828125 1.996093-1.269532 1.273438-2 3.03125-2 4.828126v27.308593c0 1.796875.730468 3.554688 2 4.824219 1.273437 1.273438 3.03125 2.003906 4.828125 2.003906h232.105469c1.796874 0 3.554687-.730468 4.828124-2 1.269532-1.273437 2-3.03125 2-4.828125zm0 0" fill="#54596e"/><path d="m211.667969 116.054688c0 18.851562-15.285157 34.132812-34.132813 34.132812-18.851562 0-34.136718-15.28125-34.136718-34.132812 0-18.851563 15.285156-34.132813 34.136718-34.132813 18.847656 0 34.132813 15.28125 34.132813 34.132813zm0 0" fill="#d8d8d8"/><path d="m211.667969 116.054688h6.824219c-.003907-22.625-18.335938-40.957032-40.957032-40.960938-22.625.003906-40.957031 18.335938-40.960937 40.960938.003906 22.621093 18.335937 40.953124 40.960937 40.957031 22.621094 0 40.953125-18.335938 40.957032-40.957031h-13.652344c-.003906 7.558593-3.046875 14.34375-8 19.304687-4.960938 4.953125-11.746094 7.996094-19.304688 8-7.5625-.003906-14.347656-3.046875-19.308594-8-4.953124-4.960937-7.996093-11.746094-8-19.304687.003907-7.5625 3.046876-14.347657 8-19.308594 4.960938-4.953125 11.746094-7.996094 19.308594-8 7.558594.003906 14.34375 3.046875 19.304688 8 4.953125 4.960937 7.996094 11.746094 8 19.308594zm0 0" fill="#54596e"/></svg>