<svg height="436pt" viewBox="-27 0 436 436.90667" width="436pt" xmlns="http://www.w3.org/2000/svg"><path d="m375.921875 150.1875c0 22.621094-82.527344 40.960938-184.320313 40.960938-101.796874 0-184.320312-18.339844-184.320312-40.960938zm0 0" fill="#54596e"/><path d="m375.921875 150.1875h-6.828125c-.007812.664062-.242188 1.75-1.941406 3.628906-2.894532 3.253906-10.007813 7.5-20.261719 11.195313-15.394531 5.644531-37.738281 10.535156-64.410156 13.9375-26.6875 3.410156-57.75 5.371093-90.878907 5.371093-50.476562.007813-96.199218-4.570312-128.855468-11.835937-16.308594-3.613281-29.371094-7.949219-37.808594-12.398437-4.214844-2.203126-7.230469-4.445313-8.890625-6.269532-1.699219-1.878906-1.933594-2.964844-1.941406-3.628906h-6.824219v6.824219h368.640625v-6.824219h-6.828125 6.828125v-6.828125h-368.640625c-1.796875 0-3.558594.726563-4.828125 2-1.269531 1.269531-2 3.03125-2 4.828125-.007813 4.988281 2.335937 9.425781 5.550781 12.878906 5.699219 6.078125 14.320313 10.582032 25.617188 14.769532 16.933594 6.183593 40.003906 11.148437 67.367187 14.65625 27.347657 3.492187 58.9375 5.480468 92.613281 5.480468 51.316407-.007812 97.757813-4.597656 131.8125-12.160156 17.046876-3.800781 30.976563-8.285156 41.195313-13.640625 5.113281-2.695313 9.339844-5.597656 12.585937-9.105469 3.214844-3.453125 5.558594-7.890625 5.550782-12.878906 0-1.796875-.726563-3.554688-2-4.828125-1.269532-1.269531-3.027344-2-4.824219-2zm0 0" fill="#54596e"/><path d="m116.507812 191.148438c0 15.078124-12.226562 27.304687-27.308593 27.304687s-27.304688-12.226563-27.304688-27.304687c0-15.082032 12.222657-27.308594 27.304688-27.308594s27.308593 12.226562 27.308593 27.308594zm0 0" fill="#ffd578"/><path d="m116.507812 191.148438h6.824219c-.003906-18.855469-15.277343-34.132813-34.132812-34.136719-18.851563.003906-34.128907 15.28125-34.132813 34.136719.003906 18.851562 15.28125 34.125 34.132813 34.132812 18.855469-.003906 34.128906-15.28125 34.132812-34.132812h-13.652343c-.019532 11.304687-9.171876 20.457031-20.480469 20.476562-11.304688-.019531-20.457031-9.171875-20.480469-20.476562.023438-11.308594 9.175781-20.460938 20.480469-20.480469 11.308593.019531 20.460937 9.171875 20.480469 20.480469zm0 0" fill="#54596e"/><path d="m321.308594 191.148438c0 15.078124-12.226563 27.304687-27.308594 27.304687s-27.308594-12.226563-27.308594-27.304687c0-15.082032 12.226563-27.308594 27.308594-27.308594s27.308594 12.226562 27.308594 27.308594zm0 0" fill="#ffd578"/><path d="m321.308594 191.148438h6.824218c-.003906-18.855469-15.277343-34.132813-34.132812-34.136719-18.855469.003906-34.128906 15.28125-34.132812 34.136719.003906 18.851562 15.277343 34.125 34.132812 34.132812 18.855469-.003906 34.128906-15.28125 34.132812-34.132812h-13.652343c-.019531 11.304687-9.171875 20.457031-20.480469 20.476562-11.308594-.019531-20.460938-9.171875-20.480469-20.476562.019531-11.308594 9.171875-20.460938 20.480469-20.480469 11.308594.019531 20.460938 9.171875 20.480469 20.480469zm0 0" fill="#54596e"/><path d="m295.804688 334.507812h-201.582032c-32.933594 0-59.636718 22.886719-59.636718 51.113282v44.457031h314.027343v-50.304687c0-25-23.640625-45.265626-52.808593-45.265626zm0 0" fill="#fff35f"/><path d="m295.804688 334.507812v-6.828124h-201.582032c-18.054687.003906-34.515625 6.257812-46.613281 16.613281-12.082031 10.328125-19.859375 25.007812-19.847656 41.328125v44.457031c0 1.800781.726562 3.558594 2 4.828125 1.269531 1.273438 3.027343 2 4.824219 2h314.027343c1.796875 0 3.554688-.726562 4.828125-2 1.269532-1.269531 2-3.027344 2-4.824219v-50.308593c.007813-14.703126-7.003906-27.921876-17.851562-37.191407-10.863282-9.300781-25.617188-14.898437-41.789063-14.898437v13.648437c13-.003906 24.648438 4.535157 32.902344 11.617188 8.265625 7.113281 13.074219 16.527343 13.082031 26.824219v43.480468h-300.371094v-37.628906c.007813-11.910156 5.582032-22.789062 15.082032-30.960938 9.488281-8.144531 22.84375-13.335937 37.726562-13.332031h201.582032zm0 0" fill="#54596e"/><path d="m136.988281 334.507812h-47.789062v95.570313h34.132812zm0 0" fill="#ff927d"/><path d="m136.988281 334.507812v-6.828124h-47.789062c-1.796875 0-3.554688.726562-4.824219 2-1.273438 1.269531-2 3.03125-2 4.828124v95.570313c0 1.800781.726562 3.558594 2 4.828125 1.269531 1.273438 3.027344 2 4.824219 2h34.132812c3.402344 0 6.277344-2.496094 6.757813-5.859375l13.65625-95.574219c.277344-1.957031-.308594-3.945312-1.601563-5.4375-1.296875-1.492187-3.179687-2.355468-5.15625-2.355468v6.828124l-6.761719-.96875-12.8125 89.714844h-21.386718v-81.921875h40.960937v-6.824219l-6.761719-.96875zm0 0" fill="#54596e"/><path d="m294 334.507812h-47.785156l13.652344 95.570313h34.132812zm0 0" fill="#ff927d"/><path d="m294 334.507812v-6.828124h-47.785156c-1.976563 0-3.863282.859374-5.160156 2.355468-1.292969 1.492188-1.878907 3.480469-1.601563 5.4375l13.65625 95.574219c.476563 3.363281 3.359375 5.859375 6.757813 5.859375h34.132812c1.796875 0 3.554688-.726562 4.828125-2 1.269531-1.269531 2-3.027344 2-4.824219v-95.574219c0-1.796874-.730469-3.554687-2-4.828124-1.269531-1.269532-3.03125-2-4.828125-2v6.828124h-6.828125v88.746094h-21.382813l-11.703124-81.921875h39.914062v-6.824219h-6.828125zm0 0" fill="#54596e"/><path d="m207.484375 382.292969h-31.765625c-47.785156 0-86.519531-38.734375-86.519531-86.515625v-77.324219h204.800781v77.324219c0 47.78125-38.734375 86.515625-86.515625 86.515625zm0 0" fill="#fff35f"/><path d="m207.484375 382.292969v-6.828125h-31.765625c-22.027344 0-41.90625-8.90625-56.351562-23.339844-14.433594-14.441406-23.335938-34.320312-23.339844-56.347656v-70.496094h191.144531v70.496094c0 22.027344-8.90625 41.90625-23.339844 56.347656-14.441406 14.433594-34.320312 23.339844-56.347656 23.339844v13.65625c51.554687-.003906 93.339844-41.789063 93.34375-93.34375v-77.324219c0-1.796875-.730469-3.554687-2-4.828125-1.269531-1.269531-3.03125-2-4.828125-2h-204.800781c-1.796875 0-3.554688.730469-4.824219 2-1.273438 1.273438-2 3.03125-2 4.828125v77.324219c0 51.554687 41.785156 93.335937 93.339844 93.34375h31.765625v-6.828125zm0 0" fill="#54596e"/><path d="m191.601562 334.507812c-56.554687 0-102.402343-66.328124-102.402343-122.882812v-102.398438h204.800781v102.398438c0 56.554688-45.847656 122.882812-102.398438 122.882812zm0 0" fill="#ffd578"/><g fill="#54596e"><path d="m191.601562 334.507812v-6.828124c-12.792968-.003907-25.054687-3.734376-36.4375-10.328126-17.058593-9.867187-31.984374-26.269531-42.503906-45.296874-10.542968-19.015626-16.652344-40.605469-16.632812-60.429688v-95.574219h191.144531v95.574219c.046875 26.4375-10.898437 55.984375-28.539063 78.4375-8.800781 11.238281-19.226562 20.703125-30.597656 27.289062-11.382812 6.59375-23.644531 10.324219-36.433594 10.328126v13.652343c15.488282.003907 30.160157-4.554687 43.28125-12.164062 19.695313-11.441407 36.042969-29.648438 47.605469-50.5 11.535157-20.871094 18.320313-44.449219 18.339844-67.042969v-102.398438c0-1.796874-.730469-3.554687-2-4.828124-1.269531-1.269532-3.03125-2-4.828125-2h-204.800781c-1.796875 0-3.554688.730468-4.824219 2-1.273438 1.273437-2 3.03125-2 4.828124v102.398438c.042969 30.117188 12.023438 62.011719 31.445312 86.859375 9.726563 12.414063 21.363282 23.0625 34.496094 30.679687 13.121094 7.613282 27.796875 12.171876 43.285156 12.167969zm0 0"/><path d="m143.8125 187.734375c0 5.65625-4.582031 10.238281-10.238281 10.238281s-10.242188-4.582031-10.242188-10.238281 4.585938-10.242187 10.242188-10.242187 10.238281 4.585937 10.238281 10.242187zm0 0"/><path d="m259.867188 187.734375c0 5.65625-4.585938 10.238281-10.242188 10.238281-5.652344 0-10.238281-4.582031-10.238281-10.238281s4.585937-10.242187 10.238281-10.242187c5.65625 0 10.242188 4.585937 10.242188 10.242187zm0 0"/></g><path d="m184.773438 259.414062h13.652343c7.539063 0 13.652344-6.113281 13.652344-13.652343 0-7.542969-6.113281-13.65625-13.652344-13.65625h-13.652343c-7.539063 0-13.652344 6.113281-13.652344 13.65625 0 7.539062 6.113281 13.652343 13.652344 13.652343" fill="#ff927d"/><path d="m164.292969 245.761719h54.613281c3.769531 0 6.828125-3.058594 6.828125-6.828125 0-3.769532-3.058594-6.828125-6.828125-6.828125h-54.613281c-3.769531 0-6.828125 3.058593-6.828125 6.828125 0 3.769531 3.058594 6.828125 6.828125 6.828125" fill="#ff927d"/><path d="m191.601562 6.828125c-64.09375 0-116.054687 51.957031-116.054687 116.050781v6.828125h232.105469v-6.828125c0-64.089844-51.957032-116.050781-116.050782-116.050781zm0 0" fill="#ff927d"/><path d="m191.601562 6.828125v-6.828125c-67.867187.00390625-122.875 55.011719-122.882812 122.878906v6.828125c0 1.796875.730469 3.554688 2 4.824219 1.273438 1.273438 3.03125 2.003906 4.828125 2.003906h232.105469c1.796875 0 3.554687-.730468 4.828125-2 1.269531-1.273437 2-3.03125 2-4.828125v-6.828125c-.003907-67.867187-55.015625-122.87499975-122.878907-122.878906v13.652344c30.179688.003906 57.445313 12.21875 77.234376 31.996094 19.777343 19.785156 31.988281 47.050781 31.992187 77.230468h-218.453125c0-30.183594 12.214844-57.445312 31.988281-77.234375 19.789063-19.777343 47.054688-31.988281 77.238281-31.992187zm0 0" fill="#54596e"/><path d="m375.921875 150.1875c0-22.625-82.527344-40.960938-184.320313-40.960938-101.796874 0-184.320312 18.335938-184.320312 40.960938zm0 0" fill="#999"/><path d="m375.921875 150.1875h6.824219c.007812-4.988281-2.335938-9.429688-5.550782-12.882812-5.699218-6.078126-14.320312-10.582032-25.617187-14.769532-16.933594-6.179687-40.003906-11.148437-67.367187-14.652344-27.347657-3.496093-58.9375-5.484374-92.609376-5.484374-51.324218.007812-97.761718 4.601562-131.816406 12.160156-17.046875 3.800781-30.976562 8.289062-41.195312 13.640625-5.109375 2.695312-9.339844 5.601562-12.585938 9.105469-3.214844 3.453124-5.554687 7.894531-5.550781 12.882812 0 1.796875.730469 3.554688 2 4.824219 1.273437 1.273437 3.03125 2 4.828125 2h368.640625c1.796875 0 3.554687-.726563 4.824219-1.996094 1.273437-1.273437 2-3.03125 2-4.828125h-6.824219v-6.824219h-368.640625v6.824219h6.824219c.007812-.667969.242187-1.75 1.941406-3.632812 2.894531-3.25 10.007813-7.5 20.261719-11.195313 15.394531-5.640625 37.738281-10.535156 64.410156-13.933594 26.683594-3.410156 57.75-5.371093 90.882812-5.371093 50.476563-.007813 96.191407 4.566406 128.851563 11.832031 16.308594 3.613281 29.375 7.949219 37.808594 12.398437 4.214843 2.203125 7.230469 4.445313 8.894531 6.269532 1.695312 1.882812 1.933594 2.964843 1.9375 3.632812h6.828125v-6.824219zm0 0" fill="#54596e"/><path d="m194.886719 27.375 5.859375 18.023438c.460937 1.425781 1.789062 2.386718 3.285156 2.386718h18.953125c3.347656 0 4.738281 4.285156 2.027344 6.253906l-15.328125 11.140626c-1.214844.878906-1.71875 2.441406-1.253906 3.863281l5.855468 18.023437c1.03125 3.1875-2.609375 5.835938-5.320312 3.867188l-15.328125-11.136719c-1.214844-.882813-2.855469-.882813-4.066407 0l-15.332031 11.136719c-2.707031 1.96875-6.351562-.679688-5.316406-3.867188l5.855469-18.023437c.460937-1.421875-.042969-2.984375-1.257813-3.863281l-15.328125-11.140626c-2.714844-1.96875-1.320312-6.253906 2.023438-6.253906h18.953125c1.496093 0 2.824219-.960937 3.289062-2.386718l5.855469-18.023438c1.035156-3.183594 5.539062-3.183594 6.574219 0zm0 0" fill="#fff35f"/><path d="m194.886719 27.375-6.492188 2.109375 5.859375 18.023437c1.371094 4.234376 5.324219 7.105469 9.777344 7.105469h18.953125v-3.417969l-2.496094 2.296876c.5625.667968 1.679688 1.15625 2.496094 1.121093v-3.414062l-2.496094 2.296875 2.40625-2.214844h-3.277343c.011718.839844.277343 1.550781.871093 2.214844l2.40625-2.214844h-3.277343 3.382812l-2.007812-2.753906c-.789063.519531-1.429688 1.808594-1.375 2.753906h3.382812l-2.007812-2.753906-15.324219 11.132812c-2.707031 1.964844-4.242188 5.082032-4.238281 8.316406 0 1.058594.167968 2.140626.507812 3.183594l5.855469 18.019532 3.085937-1.003907h-3.242187l.15625 1.003907 3.089843-1.003907h-3.242187 3.425781l-2.386718-2.480469c-.570313.527344-1.042969 1.457032-1.039063 2.480469h3.425781l-2.382812-2.480469 2.304687 2.398438v-3.3125c-.980469.011719-1.734375.367188-2.304687.914062l2.304687 2.398438v-3.3125 3.359375l1.976563-2.738281c-.472656-.359375-1.265625-.632813-1.976563-.621094v3.359375l1.976563-2.738281.015625.011718-15.328125-11.140624c-1.800782-1.308594-3.941406-1.964844-6.046875-1.960938-2.113281-.003906-4.25.65625-6.042969 1.960938l-15.332031 11.140624 1.992187 2.738282v-3.367188c-.707031-.015625-1.511718.261719-1.988281.625l1.988281 2.742188v-3.367188 3.308594l2.308594-2.398438c-.574219-.542968-1.324219-.902343-2.308594-.914062v3.3125l2.308594-2.398438-2.382812 2.476563h3.421874c.003907-1.023437-.46875-1.949219-1.039062-2.476563l-2.382812 2.476563h3.421874-3.277343l3.117187 1.023437.160156-1.023437h-3.277343l3.117187 1.023437.003906-.019531 5.859376-18.023437c.339843-1.046875.503906-2.121094.503906-3.179688 0-3.234375-1.53125-6.351562-4.253906-8.328125l.011718.011719-15.328125-11.140625-2.003906 2.757813h3.386719c.054687-.941407-.585938-2.230469-1.378906-2.757813l-2.003907 2.757813h3.382813-3.277344l2.410156 2.21875c.589844-.664063.855469-1.378907.867188-2.21875h-3.277344l2.410156 2.21875-2.496094-2.300782v3.421875c.808594.03125 1.929688-.453125 2.496094-1.121093l-2.496094-2.296876v3.417969h18.953126c4.453124 0 8.402343-2.871093 9.777343-7.109375l5.855469-18.019531-3.234375-1.054687 1.90625 2.792968c.621094-.402344 1.152344-1.140625 1.332031-1.742187l-3.238281-1.050781 1.90625 2.792968-1.882813-2.75v3.339844c.605469 0 1.246094-.164062 1.871094-.585938l-1.871094-2.753906v3.339844-3.34375l-1.878906 2.753906c.625.421875 1.269532.589844 1.878906.589844v-3.34375l-1.878906 2.753906 1.90625-2.792968-3.234375 1.050781c.179688.601562.707031 1.339843 1.328125 1.742187l1.90625-2.792968-3.234375 1.050781 6.492188-2.105469 6.496093-2.109375c-.699218-2.191406-2.179687-4.125-3.96875-5.324219-1.792968-1.21875-3.820312-1.78125-5.8125-1.78125-1.992187 0-4.019531.5625-5.8125 1.777344-1.792968 1.203125-3.273437 3.132812-3.96875 5.328125l-5.855468 18.019531 3.207031 1.042969v-3.367187c-1.460937 0-2.757813.941406-3.207031 2.328124l3.207031 1.039063v-3.367187h-18.953125c-2.9375-.035157-5.789062 1.316406-7.554688 3.285156-1.792968 1.96875-2.726562 4.429687-2.734374 7.03125-.054688 2.972656 1.464843 6.316406 4.242187 8.285156l15.332031 11.140625.011719.007813 1.980469-2.738282h-3.382813c0 1.0625.503907 2.085938 1.402344 2.738282l1.976563-2.738282h-3.378907 3.359375l-3.195312-1.039062-.164063 1.039062h3.359375l-3.195312-1.039062-5.855469 18.019531.003906-.015625c-.34375 1.050781-.519531 2.148438-.519531 3.230469-.003906 2.953125 1.292969 5.597656 3.148438 7.363281 1.859374 1.777344 4.351562 2.890625 7.15625 2.902344 2.0625.011718 4.261718-.675782 6.027343-1.976563l15.335938-11.140625-1.972657-2.722656v3.367188c.683594 0 1.390626-.21875 1.976563-.644532l-1.976563-2.722656v3.367188-3.367188l-1.980468 2.722656c.585937.425782 1.296875.644532 1.980468.644532v-3.367188l-1.980468 2.722656 15.328125 11.140625.015625.011719c1.765625 1.289062 3.957031 1.976562 6.015625 1.960938 2.804687-.007813 5.296875-1.117188 7.15625-2.894532 1.855469-1.765625 3.15625-4.410156 3.152343-7.363281 0-1.074219-.175781-2.171875-.515624-3.214844l-5.855469-18.023437-3.210938 1.042968h3.375l-.167969-1.046874-3.207031 1.046874h3.375-3.375l1.980469 2.730469c.886719-.644531 1.394531-1.667969 1.394531-2.730469h-3.375l1.980469 2.730469 15.335938-11.144531c2.777343-1.964844 4.300781-5.3125 4.242187-8.285156-.007813-2.601563-.945313-5.0625-2.738281-7.027344-1.761719-1.972656-4.613282-3.320312-7.550782-3.289062h-18.953124v3.371093l3.207031-1.042969c-.449219-1.382812-1.746094-2.328124-3.207031-2.328124v3.371093l3.207031-1.042969-5.855469-18.023437zm0 0" fill="#54596e"/></svg>