<svg height="430pt" viewBox="-51 0 430 430.08" width="430pt" xmlns="http://www.w3.org/2000/svg"><path d="m268.082031 327.679688h-201.578125c-32.9375 0-59.636718 22.886718-59.636718 51.117187v44.457031h314.027343v-50.308594c0-25-23.644531-45.265624-52.8125-45.265624zm0 0" fill="#fff35f"/><path d="m268.082031 327.679688v-6.828126h-201.578125c-18.054687.007813-34.515625 6.257813-46.613281 16.617188-12.082031 10.324219-19.859375 25.007812-19.8515625 41.328125v44.457031c0 1.796875.7304685 3.554688 1.9999995 4.824219 1.273438 1.273437 3.03125 2 4.828126 2h314.027343c1.796875 0 3.554688-.726563 4.824219-1.996094 1.273438-1.273437 2-3.03125 2-4.828125v-50.304687c.011719-14.707031-7-27.925781-17.851562-37.191407-10.859376-9.304687-25.617188-14.898437-41.785157-14.902343v13.652343c13-.007812 24.648438 4.53125 32.898438 11.613282 8.265625 7.117187 13.074219 16.53125 13.085937 26.828125v43.476562h-300.375v-37.628906c.011719-11.910156 5.585938-22.785156 15.085938-30.960937 9.488281-8.144532 22.84375-13.335938 37.726562-13.328126h201.578125zm0 0" fill="#54596e"/><path d="m163.878906 375.464844c-15.078125 0-27.304687-12.226563-27.304687-27.304688v-68.265625h54.613281v68.265625c0 15.078125-12.226562 27.304688-27.308594 27.304688zm0 0" fill="#ffd578"/><path d="m163.878906 375.464844v-6.824219c-11.304687-.019531-20.457031-9.175781-20.480468-20.480469v-61.441406h40.960937v61.441406c-.019531 11.304688-9.171875 20.460938-20.480469 20.480469v13.652344c18.855469-.003907 34.128906-15.28125 34.132813-34.132813v-68.265625c0-1.800781-.726563-3.558593-2-4.828125-1.269531-1.273437-3.027344-2-4.824219-2h-54.613281c-1.796875 0-3.558594.726563-4.828125 2-1.269532 1.269532-2 3.027344-2 4.828125v68.265625c.003906 18.851563 15.28125 34.128906 34.132812 34.132813zm0 0" fill="#54596e"/><path d="m163.878906 327.679688c-56.550781 0-102.398437-66.324219-102.398437-122.878907v-54.613281h204.800781v54.613281c0 56.554688-45.847656 122.878907-102.402344 122.878907zm0 0" fill="#ffd578"/><g fill="#54596e"><path d="m163.878906 327.679688v-6.828126c-12.789062 0-25.050781-3.730468-36.433594-10.324218-17.058593-9.867188-31.980468-26.269532-42.503906-45.300782-10.542968-19.015624-16.652344-40.605468-16.632812-60.425781v-47.789062h191.144531v47.789062c.046875 26.433594-10.898437 55.984375-28.539063 78.4375-8.800781 11.234375-19.230468 20.703125-30.597656 27.289063-11.382812 6.589844-23.644531 10.324218-36.433594 10.324218v13.65625c15.484376.003907 30.160157-4.554687 43.28125-12.167968 19.695313-11.4375 36.042969-29.648438 47.601563-50.5 11.539063-20.871094 18.324219-44.449219 18.339844-67.039063v-54.613281c0-1.800781-.726563-3.558594-2-4.828125-1.269531-1.273437-3.027344-2-4.824219-2h-204.800781c-1.796875 0-3.558594.726563-4.828125 2-1.269532 1.269531-2 3.027344-2 4.828125v54.613281c.046875 30.113281 12.027344 62.007813 31.445312 86.855469 9.730469 12.414062 21.367188 23.066406 34.5 30.683594 13.117188 7.609375 27.796875 12.167968 43.28125 12.164062zm0 0"/><path d="m116.09375 194.558594c0 5.65625-4.585938 10.242187-10.242188 10.242187-5.652343 0-10.238281-4.585937-10.238281-10.242187 0-5.652344 4.585938-10.238282 10.238281-10.238282 5.65625 0 10.242188 4.585938 10.242188 10.238282zm0 0"/><path d="m232.148438 194.558594c0 5.65625-4.585938 10.242187-10.242188 10.242187s-10.238281-4.585937-10.238281-10.242187c0-5.652344 4.582031-10.238282 10.238281-10.238282s10.242188 4.585938 10.242188 10.238282zm0 0"/><path d="m170.707031 423.253906v-20.480468c0-3.769532-3.058593-6.828126-6.828125-6.828126-3.769531 0-6.824218 3.058594-6.824218 6.828126v20.480468c0 3.769532 3.054687 6.824219 6.824218 6.824219 3.769532 0 6.828125-3.054687 6.828125-6.824219"/></g><path d="m157.054688 273.066406h13.652343c7.539063 0 13.652344-6.113281 13.652344-13.652344 0-7.539062-6.113281-13.652343-13.652344-13.652343h-13.652343c-7.542969 0-13.65625 6.113281-13.65625 13.652343 0 7.539063 6.113281 13.652344 13.65625 13.652344" fill="#ff927d"/><path d="m136.574219 259.414062h54.613281c3.769531 0 6.824219-3.058593 6.824219-6.828124 0-3.769532-3.054688-6.824219-6.824219-6.824219h-54.613281c-3.769531 0-6.828125 3.054687-6.828125 6.824219 0 3.769531 3.058594 6.828124 6.828125 6.828124" fill="#ff927d"/><path d="m143.398438 61.441406h46.183593v20.480469c0 45.242187-36.675781 81.917969-81.921875 81.917969h-46.179687v-20.480469c0-45.242187 36.675781-81.917969 81.917969-81.917969zm0 0" fill="#55a6ff"/><path d="m143.398438 61.441406v6.824219h39.355468v13.65625c-.003906 20.757813-8.394531 39.484375-21.992187 53.097656-13.613281 13.597657-32.34375 21.988281-53.101563 21.992188h-39.351562v-13.652344c0-20.757813 8.394531-39.488281 21.992187-53.097656 13.609375-13.601563 32.339844-21.992188 53.097657-21.996094v-13.652344c-49.015626.003907-88.738282 39.730469-88.746094 88.746094v20.480469c0 1.796875.730468 3.554687 2 4.828125 1.273437 1.269531 3.03125 2 4.828125 2h46.179687c49.015625-.003907 88.742188-39.730469 88.746094-88.746094v-20.480469c0-1.800781-.726562-3.558594-2-4.828125-1.269531-1.273437-3.027344-2-4.824219-2h-46.183593zm0 0" fill="#54596e"/><path d="m184.359375 47.785156h-61.4375v34.136719c0 45.242187 36.675781 81.917969 81.917969 81.917969h61.441406v-34.132813c0-45.242187-36.675781-81.921875-81.921875-81.921875zm0 0" fill="#55a6ff"/><path d="m184.359375 47.785156v-6.824218h-61.4375c-1.800781 0-3.558594.726562-4.828125 1.996093-1.273438 1.273438-2 3.03125-2 4.828125v34.136719c.003906 49.011719 39.730469 88.738281 88.746094 88.746094h61.441406c1.796875 0 3.554688-.726563 4.824219-2 1.273437-1.269531 2-3.027344 2-4.828125v-34.132813c-.003907-49.015625-39.730469-88.742187-88.746094-88.746093v13.652343c20.757813.003907 39.488281 8.394531 53.101563 21.996094 13.597656 13.609375 21.988281 32.339844 21.992187 53.097656v27.304688h-54.613281c-20.757813 0-39.488282-8.394531-53.097656-21.992188-13.601563-13.613281-21.992188-32.339843-21.996094-53.097656v-27.308594h54.613281zm0 0" fill="#54596e"/><path d="m41 177.492188v-40.957032c.003906-33.957031 13.742188-64.636718 35.988281-86.890625 22.261719-22.25 52.9375-35.988281 86.890625-35.992187 33.957032.003906 64.632813 13.746094 86.890625 35.992187 22.25 22.257813 35.988281 52.933594 35.992188 86.890625v40.957032c0 3.769531 3.054687 6.828124 6.824219 6.828124 3.769531 0 6.828124-3.058593 6.828124-6.828124v-40.957032c-.003906-75.414062-61.125-136.53124975-136.535156-136.535156-75.40625.00390625-136.527344 61.121094-136.53125 136.535156v40.957032c0 3.769531 3.054688 6.828124 6.824219 6.828124 3.773437 0 6.828125-3.058593 6.828125-6.828124zm0 0" fill="#54596e"/><path d="m34.171875 163.839844h27.308594v81.921875h-27.308594zm0 0" fill="#61c5a8"/><path d="m34.171875 245.761719v6.824219h27.308594c1.796875 0 3.554687-.726563 4.824219-2 1.273437-1.269532 2.003906-3.027344 2.003906-4.824219v-81.921875c0-1.796875-.730469-3.554688-2.003906-4.828125-1.269532-1.269531-3.027344-2-4.824219-2h-27.308594c-1.796875 0-3.554687.730469-4.824219 2-1.273437 1.273437-2 3.03125-2 4.828125v81.921875c0 1.796875.726563 3.554687 2 4.824219 1.269532 1.273437 3.027344 2 4.824219 2v-6.824219h6.828125v-75.09375h13.652344v68.265625h-20.480469v6.828125h6.828125zm0 0" fill="#54596e"/><path d="m13.691406 184.320312h20.480469v47.785157h-20.480469zm0 0" fill="#54596e"/><path d="m266.28125 163.839844h27.304688v81.921875h-27.304688zm0 0" fill="#61c5a8"/><path d="m293.585938 245.761719v-6.828125h-20.480469v-68.265625h13.65625v75.09375h6.824219v-6.828125 6.828125h6.828124v-81.921875c0-1.796875-.730468-3.554688-2-4.828125-1.269531-1.269531-3.03125-2-4.828124-2h-27.304688c-1.796875 0-3.558594.730469-4.828125 2-1.269531 1.273437-2 3.03125-2 4.828125v81.921875c0 1.796875.730469 3.554687 2 4.824219 1.273437 1.273437 3.03125 2 4.828125 2h27.304688c1.796874 0 3.558593-.726563 4.828124-2 1.269532-1.269532 2-3.027344 2-4.824219zm0 0" fill="#54596e"/><path d="m293.585938 184.320312h20.480468v47.785157h-20.480468zm0 0" fill="#54596e"/></svg>