<svg height="436pt" viewBox="-34 0 436 436.90667" width="436pt" xmlns="http://www.w3.org/2000/svg"><path d="m302.632812 320.851562h-228.890624c-32.933594 0-59.636719 22.886719-59.636719 51.117188v58.109375h341.335937v-63.957031c0-25-23.648437-45.269532-52.808594-45.269532zm0 0" fill="#fff"/><g fill="#54596e"><path d="m302.632812 320.851562v-6.824218h-228.890624c-18.050782.003906-34.515626 6.257812-46.609376 16.613281-12.085937 10.328125-19.859374 25.007813-19.851562 41.328125v58.109375c0 1.800781.730469 3.558594 2 4.828125 1.269531 1.273438 3.027344 2 4.824219 2h341.335937c1.796875 0 3.554688-.726562 4.824219-2 1.273437-1.269531 2-3.027344 2-4.824219v-63.960937c.007813-14.703125-7.003906-27.925782-17.851563-37.191406-10.859374-9.300782-25.613281-14.898438-41.78125-14.902344v13.652344c12.996094-.003907 24.644532 4.535156 32.898438 11.617187 8.265625 7.117187 13.074219 16.53125 13.082031 26.824219v57.132812h-327.679687v-51.28125c.007812-11.910156 5.582031-22.789062 15.082031-30.964844 9.488281-8.140624 22.84375-13.332031 37.726563-13.328124h228.890624zm0 0"/><path d="m75.546875 402.773438v20.480468c0 3.769532 3.054687 6.824219 6.828125 6.824219 3.769531 0 6.824219-3.054687 6.824219-6.824219v-20.480468c0-3.769532-3.054688-6.828126-6.824219-6.828126-3.773438 0-6.828125 3.058594-6.828125 6.828126"/><path d="m280.347656 402.773438v20.480468c0 3.769532 3.054688 6.824219 6.824219 6.824219 3.773437 0 6.828125-3.054687 6.828125-6.824219v-20.480468c0-3.769532-3.054688-6.828126-6.828125-6.828126-3.769531 0-6.824219 3.058594-6.824219 6.828126"/></g><path d="m314.480469 157.011719h-259.414063c-26.394531 0-47.785156-21.390625-47.785156-47.785157 0-26.394531 21.390625-47.785156 47.785156-47.785156h259.414063c26.394531 0 47.785156 21.390625 47.785156 47.785156 0 26.394532-21.390625 47.785157-47.785156 47.785157zm0 0" fill="#fff"/><path d="m314.480469 157.011719v-6.824219h-259.414063c-11.332031-.003906-21.53125-4.574219-28.964844-11.996094-7.421874-7.433594-11.992187-17.628906-11.996093-28.964844.003906-11.332031 4.574219-21.53125 11.996093-28.964843 7.433594-7.421875 17.632813-11.992188 28.964844-11.996094h259.414063c11.332031.003906 21.527343 4.574219 28.964843 11.996094 7.421876 7.433593 11.992188 17.632812 11.996094 28.964843-.003906 11.335938-4.574218 21.53125-11.996094 28.964844-7.433593 7.421875-17.632812 11.992188-28.964843 11.996094v13.652344c30.164062-.003906 54.609375-24.445313 54.613281-54.613282-.003906-30.167968-24.445312-54.609374-54.613281-54.613281h-259.414063c-30.167968.003907-54.609375 24.445313-54.613281 54.613281.003906 30.164063 24.445313 54.609376 54.613281 54.613282h259.414063zm0 0" fill="#54596e"/><path d="m341.785156 177.492188c0 15.082031-12.222656 27.308593-27.304687 27.308593s-27.308594-12.226562-27.308594-27.308593c0-15.078126 12.226563-27.304688 27.308594-27.304688s27.304687 12.226562 27.304687 27.304688zm0 0" fill="#ffd578"/><path d="m341.785156 177.492188h6.828125c-.003906-18.851563-15.28125-34.128907-34.132812-34.132813-18.855469.003906-34.128907 15.28125-34.132813 34.132813.003906 18.855468 15.277344 34.128906 34.132813 34.132812 18.851562 0 34.128906-15.277344 34.132812-34.132812h-13.652343c-.019532 11.308593-9.175782 20.460937-20.480469 20.480468-11.308594-.019531-20.460938-9.171875-20.480469-20.480468.019531-11.304688 9.171875-20.457032 20.480469-20.480469 11.304687.023437 20.460937 9.175781 20.480469 20.480469zm0 0" fill="#54596e"/><path d="m82.375 177.492188c0 15.082031-12.226562 27.308593-27.308594 27.308593-15.082031 0-27.304687-12.226562-27.304687-27.308593 0-15.078126 12.222656-27.304688 27.304687-27.304688 15.082032 0 27.308594 12.226562 27.308594 27.304688zm0 0" fill="#ffd578"/><path d="m82.375 177.492188h6.824219c-.003907-18.851563-15.277344-34.128907-34.132813-34.132813-18.851562.003906-34.128906 15.28125-34.132812 34.132813.003906 18.855468 15.28125 34.128906 34.132812 34.132812 18.855469 0 34.128906-15.277344 34.132813-34.132812h-13.652344c-.019531 11.308593-9.171875 20.460937-20.480469 20.480468-11.304687-.019531-20.460937-9.171875-20.480468-20.480468.019531-11.304688 9.175781-20.457032 20.480468-20.480469 11.308594.023437 20.460938 9.175781 20.480469 20.480469zm0 0" fill="#54596e"/><path d="m184.773438 334.507812c-66.941407 0-121.207032-54.269531-121.207032-121.207031v-119.925781c0-47.796875 38.753906-86.546875 86.554688-86.546875h69.304687c47.800781 0 86.554688 38.75 86.554688 86.546875v119.925781c0 66.9375-54.265625 121.207031-121.207031 121.207031zm0 0" fill="#ffd578"/><path d="m184.773438 334.507812v-6.828124c-31.609376-.003907-60.160157-12.792969-80.878907-33.5-20.710937-20.722657-33.5-49.273438-33.503906-80.878907v-119.925781c.003906-22.035156 8.914063-41.921875 23.355469-56.371094 14.449218-14.4375 34.335937-23.347656 56.375-23.351562h69.304687c22.035157.003906 41.925781 8.914062 56.375 23.351562 14.4375 14.449219 23.347657 34.335938 23.351563 56.371094v119.925781c-.003906 31.605469-12.792969 60.160157-33.5 80.878907-20.722656 20.707031-49.273438 33.496093-80.878906 33.503906v13.648437c70.710937-.003906 128.027343-57.320312 128.03125-128.03125v-119.925781c-.003907-51.570312-41.808594-93.37109375-93.382813-93.375h-69.304687c-51.574219.00390625-93.375 41.804688-93.378907 93.375v119.925781c.007813 70.710938 57.324219 128.027344 128.035157 128.03125zm0 0" fill="#54596e"/><path d="m150.640625 225.28125c0 18.847656 15.277344 34.132812 34.132813 34.132812 18.851562 0 34.132812-15.285156 34.132812-34.132812zm0 0" fill="#54596e"/><path d="m150.640625 225.28125h-6.828125c.003906 22.621094 18.332031 40.953125 40.960938 40.957031 22.625 0 40.953124-18.335937 40.960937-40.957031 0-1.800781-.730469-3.554688-2-4.828125-1.269531-1.269531-3.03125-2-4.828125-2h-68.265625c-1.796875 0-3.558594.726563-4.828125 2-1.269531 1.269531-2 3.03125-2 4.828125h6.828125v6.824219h68.265625v-6.824219h-6.828125c0 7.558594-3.042969 14.34375-7.996094 19.304688-4.960937 4.953124-11.746093 7.996093-19.308593 8-7.5625-.003907-14.347657-3.046876-19.308594-8-4.953125-4.960938-7.996094-11.746094-8-19.304688h-6.824219v6.824219zm0 0" fill="#54596e"/><path d="m198.425781 245.761719c0-3.773438-6.113281-6.828125-13.652343-6.828125-7.539063 0-13.652344 3.054687-13.652344 6.828125 0 3.769531 6.113281 6.824219 13.652344 6.824219 7.539062 0 13.652343-3.054688 13.652343-6.824219zm0 0" fill="#ff927d"/><path d="m136.988281 133.121094c0 5.65625-4.585937 10.238281-10.242187 10.238281s-10.238282-4.582031-10.238282-10.238281 4.582032-10.242188 10.238282-10.242188 10.242187 4.585938 10.242187 10.242188zm0 0" fill="#54596e"/><path d="m253.039062 133.121094c0 5.65625-4.582031 10.238281-10.238281 10.238281s-10.242187-4.582031-10.242187-10.238281 4.585937-10.242188 10.242187-10.242188 10.238281 4.585938 10.238281 10.242188zm0 0" fill="#54596e"/><path d="m232.558594 273.066406v46.417969c0 27.148437-21.390625 49.15625-47.785156 49.15625-26.394532 0-47.785157-22.007813-47.785157-49.15625v-46.417969l47.785157-13.652344zm0 0" fill="#fff"/><path d="m232.558594 273.066406h-6.824219v46.417969c-.003906 11.769531-4.625 22.339844-12.066406 30-7.457031 7.65625-17.617188 12.324219-28.894531 12.328125-11.277344-.003906-21.441407-4.671875-28.894532-12.328125-7.441406-7.660156-12.0625-18.230469-12.066406-30v-41.269531l40.960938-11.703125 45.910156 13.117187 1.875-6.5625h-6.824219 6.824219l1.878906-6.5625-47.789062-13.65625c-1.214844-.347656-2.535157-.347656-3.75 0l-47.789063 13.65625c-2.933594.835938-4.949219 3.511719-4.949219 6.5625v46.417969c0 15.382813 6.074219 29.386719 15.929688 39.515625 9.835937 10.136719 23.566406 16.46875 38.683594 16.464844 15.117187.003906 28.847656-6.328125 38.683593-16.464844 9.855469-10.128906 15.929688-24.132812 15.929688-39.515625v-46.417969c0-3.050781-2.015625-5.726562-4.949219-6.5625zm0 0" fill="#54596e"/><path d="m253.039062 191.148438h-27.304687c0-7.542969-18.339844-13.65625-40.960937-13.65625-22.621094 0-40.960938 6.113281-40.960938 13.65625h-27.304688l-6.828124 27.304687h150.1875zm0 0" fill="#fff"/><path d="m253.039062 191.148438v-6.828126h-27.304687v6.828126h6.824219c.011718-2.347657-.75-4.570313-1.839844-6.324219-1.945312-3.089844-4.621094-5.058594-7.632812-6.742188-4.542969-2.472656-10.144532-4.226562-16.640626-5.484375-6.484374-1.242187-13.84375-1.929687-21.671874-1.929687-11.9375.011719-22.738282 1.570312-31.121094 4.347656-4.203125 1.417969-7.820313 3.09375-10.84375 5.457031-1.503906 1.191406-2.882813 2.578125-3.980469 4.351563-1.089844 1.753906-1.851563 3.980469-1.839844 6.324219h6.824219v-6.828126h-27.304688c-3.132812 0-5.863281 2.132813-6.625 5.171876l-6.828124 27.308593c-.507813 2.03125-.046876 4.203125 1.246093 5.855469 1.289063 1.65625 3.285157 2.625 5.378907 2.625h150.1875c2.09375 0 4.089843-.972656 5.378906-2.625 1.292968-1.652344 1.753906-3.824219 1.246094-5.859375l-6.828126-27.304687c-.761718-3.039063-3.488281-5.171876-6.621093-5.171876v6.828126l-6.625 1.652343 4.707031 18.824219h-132.703125l3.414063-13.652344h21.976562c1.796875 0 3.554688-.726562 4.828125-2 1.269531-1.269531 1.996094-3.027344 1.996094-4.824218h-1.511719l1.335938.816406.179687-.816406h-1.511719l1.332032.816406c-.011719-.03125.785156-.96875 2.566406-1.914063 2.640625-1.464843 7.132812-3 12.644531-4.042969 5.519531-1.0625 12.082031-1.691406 19.101563-1.691406 10.683593-.011718 20.359374 1.488282 26.804687 3.652344 3.210937 1.054688 5.589844 2.316406 6.710937 3.222656l.796876.773438 1.332031-.820313-1.511719.003907.179688.816406 1.332031-.820313-1.511719.003907c0 1.796874.730469 3.554687 2 4.824218 1.269531 1.273438 3.027344 2 4.828125 2h27.304687v-6.824218l-6.621093 1.652343zm0 0" fill="#54596e"/><path d="m82.375 389.121094h68.265625v40.957031h-68.265625zm0 0" fill="#ff927d"/><path d="m150.640625 389.121094v-6.828125h-68.265625c-1.796875 0-3.558594.726562-4.828125 2-1.269531 1.269531-2 3.03125-2 4.828125v40.957031c0 1.800781.730469 3.558594 2 4.828125 1.269531 1.273438 3.03125 2 4.828125 2h68.265625c1.796875 0 3.554687-.726562 4.824219-2 1.273437-1.269531 2-3.027344 2-4.824219v-40.960937c0-1.796875-.726563-3.554688-1.996094-4.828125-1.273438-1.269531-3.03125-2-4.828125-2v6.828125h-6.828125v34.132812h-54.613281v-27.308594h61.441406v-6.824218h-6.828125zm0 0" fill="#54596e"/></svg>