<svg height="436pt" viewBox="-54 0 436 436.94421" width="436pt" xmlns="http://www.w3.org/2000/svg"><path d="m268.519531 334.542969h-201.585937c-32.933594 0-59.632813 22.886719-59.632813 51.117187v44.457032h314.027344v-50.308594c-.003906-24.996094-23.648437-45.265625-52.808594-45.265625zm0 0" fill="#55a6ff"/><g fill="#54596e"><path d="m268.519531 334.542969v-6.824219h-201.585937c-18.050782.003906-34.515625 6.253906-46.609375 16.613281-12.085938 10.328125-19.859375 25.007813-19.851563 41.332031v44.457032c0 1.796875.726563 3.554687 2 4.824218 1.269532 1.273438 3.027344 2 4.824219 2h314.027344c1.796875 0 3.554687-.726562 4.828125-2 1.269531-1.269531 2-3.027343 2-4.824218v-50.308594c.007812-14.707031-7.003906-27.925781-17.851563-37.191406-10.863281-9.300782-25.617187-14.898438-41.78125-14.902344v13.652344c12.996094-.003906 24.640625 4.53125 32.894531 11.617187 8.265626 7.113281 13.078126 16.527344 13.085938 26.824219v43.476562h-300.375v-37.625c.007812-11.914062 5.582031-22.789062 15.082031-30.964843 9.488281-8.140625 22.84375-13.332031 37.726563-13.328125h201.585937zm0 0"/><path d="m48.257812 402.8125v20.476562c0 3.773438 3.058594 6.828126 6.828126 6.828126 3.769531 0 6.828124-3.054688 6.828124-6.828126v-20.476562c0-3.773438-3.058593-6.828125-6.828124-6.828125-3.769532 0-6.828126 3.054687-6.828126 6.828125"/><path d="m266.710938 402.8125v20.476562c0 3.773438 3.058593 6.828126 6.828124 6.828126 3.769532 0 6.828126-3.054688 6.828126-6.828126v-20.476562c0-3.773438-3.058594-6.828125-6.828126-6.828125-3.769531 0-6.828124 3.054687-6.828124 6.828125"/></g><path d="m164.3125 382.332031c-15.082031 0-27.308594-12.226562-27.308594-27.308593v-68.265626h54.613282v68.265626c0 15.082031-12.226563 27.308593-27.304688 27.308593zm0 0" fill="#ffd578"/><path d="m164.3125 382.332031v-6.828125c-11.308594-.019531-20.460938-9.171875-20.480469-20.480468v-61.4375h40.960938v61.4375c-.019531 11.308593-9.175781 20.460937-20.480469 20.480468v13.652344c18.851562-.003906 34.128906-15.277344 34.132812-34.132812v-68.265626c0-1.800781-.730468-3.554687-2-4.828124-1.269531-1.273438-3.027343-2-4.824218-2h-54.613282c-1.796874 0-3.558593.726562-4.828124 2-1.273438 1.269531-2 3.027343-2 4.828124v68.265626c.007812 18.855468 15.28125 34.128906 34.132812 34.132812zm0 0" fill="#54596e"/><path d="m286.839844 114.839844c-3.621094-44.886719-60.78125-67.015625-122.527344-67.015625s-118.90625 22.128906-122.527344 67.015625l-16.699218 148.777344c-2.207032 19.621093 13.144531 36.796874 32.890624 36.796874h212.667969c19.746094 0 35.097657-17.175781 32.890625-36.796874zm0 0" fill="#bfad88"/><path d="m286.839844 114.839844 6.804687-.550782c-1-12.625-5.890625-23.859374-13.503906-33.167968-11.441406-14-28.664063-23.878906-48.773437-30.421875-20.132813-6.527344-43.289063-9.695313-67.054688-9.703125-31.691406.023437-62.289062 5.609375-86.09375 17.386718-11.894531 5.902344-22.125 13.402344-29.738281 22.738282-7.609375 9.308594-12.5 20.542968-13.5 33.167968l6.804687.550782-6.785156-.761719-16.699219 148.777344c-.167969 1.515625-.253906 3.023437-.253906 4.519531.003906 21.753906 17.644531 39.84375 39.929687 39.863281h212.667969c22.285157-.019531 39.925781-18.109375 39.929688-39.863281 0-1.496094-.082031-3.003906-.25-4.515625l-16.703125-148.78125-6.78125.761719 6.804687-.550782-6.804687.550782-6.785156.757812 16.699218 148.78125c.113282 1.007813.167969 2.007813.167969 2.996094 0 7.132812-2.890625 13.667969-7.640625 18.460938-4.761719 4.78125-11.269531 7.742187-18.636719 7.75h-212.667969c-7.363281-.003907-13.875-2.96875-18.636718-7.75-4.75-4.792969-7.640625-11.328126-7.640625-18.460938 0-.988281.054687-1.984375.167969-2.992188l16.699218-148.78125.023438-.214843c.808594-9.816407 4.421875-18.179688 10.476562-25.640625 9.054688-11.164063 23.945313-20.085938 42.402344-26.058594 18.433594-5.988281 40.300781-9.039062 62.839844-9.035156 30.058594-.023438 58.914062 5.457031 80.027344 15.964844 10.570312 5.238281 19.164062 11.6875 25.21875 19.128906 6.054687 7.460937 9.667968 15.824218 10.476562 25.640625l.023438.214843zm0 0" fill="#54596e"/><path d="m164.3125 334.542969c-56.554688 0-102.398438-66.324219-102.398438-122.878907v-102.398437h204.796876v102.398437c0 56.554688-45.84375 122.878907-102.398438 122.878907zm0 0" fill="#ffd578"/><path d="m164.3125 334.542969v-6.824219c-12.792969-.003906-25.050781-3.734375-36.4375-10.328125-17.058594-9.867187-31.980469-26.269531-42.503906-45.300781-10.542969-19.015625-16.648438-40.601563-16.632813-60.425782v-95.574218h191.144531v95.574218c.046876 26.4375-10.898437 55.984376-28.539062 78.4375-8.800781 11.234376-19.226562 20.703126-30.597656 27.289063-11.382813 6.589844-23.644532 10.324219-36.433594 10.328125v13.652344c15.484375.003906 30.160156-4.554688 43.28125-12.167969 19.695312-11.4375 36.042969-29.644531 47.601562-50.5 11.539063-20.871094 18.328126-44.445313 18.34375-67.039063v-102.398437c0-1.796875-.726562-3.554687-1.996093-4.828125-1.273438-1.269531-3.03125-2-4.828125-2h-204.800782c-1.800781 0-3.558593.730469-4.832031 2-1.269531 1.269531-1.996093 3.03125-1.996093 4.828125v102.398437c.046874 30.117188 12.023437 62.007813 31.445312 86.859376 9.730469 12.410156 21.367188 23.0625 34.5 30.679687 13.117188 7.609375 27.792969 12.167969 43.28125 12.167969zm0 0" fill="#54596e"/><path d="m116.527344 187.769531c0 5.65625-4.585938 10.242188-10.242188 10.242188s-10.238281-4.585938-10.238281-10.242188c0-5.652343 4.582031-10.238281 10.238281-10.238281s10.242188 4.585938 10.242188 10.238281zm0 0" fill="#54596e"/><path d="m232.578125 187.769531c0 5.65625-4.582031 10.242188-10.238281 10.242188s-10.242188-4.585938-10.242188-10.242188c0-5.652343 4.585938-10.238281 10.242188-10.238281s10.238281 4.585938 10.238281 10.238281zm0 0" fill="#54596e"/><path d="m157.484375 259.449219h13.65625c7.539063 0 13.652344-6.113281 13.652344-13.652344s-6.113281-13.652344-13.652344-13.652344h-13.65625c-7.539063 0-13.652344 6.113281-13.652344 13.652344s6.113281 13.652344 13.652344 13.652344" fill="#ff927d"/><path d="m137.003906 245.796875h54.613282c3.773437 0 6.828124-3.054687 6.828124-6.824219 0-3.773437-3.054687-6.828125-6.828124-6.828125h-54.613282c-3.769531 0-6.824218 3.054688-6.824218 6.828125 0 3.769532 3.054687 6.824219 6.824218 6.824219" fill="#ff927d"/><path d="m171.140625 430.117188v-47.785157c0-3.769531-3.058594-6.828125-6.828125-6.828125s-6.828125 3.058594-6.828125 6.828125v47.785157c0 3.769531 3.058594 6.828124 6.828125 6.828124s6.828125-3.058593 6.828125-6.828124" fill="#54596e"/><path d="m137.003906 389.15625-34.132812 13.65625-6.824219-68.269531h40.957031zm0 0" fill="#a1b7ff"/><path d="m137.003906 389.15625-2.535156-6.335938-25.707031 10.28125-5.171875-51.730468h26.589844v47.785156h6.824218l-2.535156-6.335938 2.535156 6.335938h6.828125v-54.613281c0-1.796875-.730469-3.554688-2-4.828125-1.273437-1.269532-3.03125-1.996094-4.828125-1.996094h-40.957031c-1.929687 0-3.769531.816406-5.0625 2.246094-1.292969 1.425781-1.925781 3.34375-1.730469 5.257812l6.824219 68.265625c.214844 2.136719 1.417969 4.046875 3.253906 5.15625 1.832031 1.113281 4.085938 1.300781 6.074219.503907l34.132812-13.652344c2.582032-1.035156 4.292969-3.558594 4.292969-6.339844zm0 0" fill="#54596e"/><path d="m191.617188 389.15625 34.136718 13.65625 6.824219-68.269531h-40.960937zm0 0" fill="#a1b7ff"/><path d="m191.617188 389.15625-2.535157 6.339844 34.132813 13.652344c1.992187.796874 4.242187.609374 6.078125-.5 1.832031-1.113282 3.035156-3.023438 3.25-5.15625l6.828125-68.265626c.191406-1.917968-.441406-3.835937-1.730469-5.261718-1.292969-1.429688-3.136719-2.246094-5.0625-2.246094h-40.960937c-1.796876 0-3.558594.726562-4.828126 2-1.273437 1.269531-2 3.027344-2 4.828125v54.613281c0 2.78125 1.710938 5.304688 4.292969 6.335938l2.535157-6.339844h6.828124v-47.785156h26.589844l-5.171875 51.730468-25.707031-10.28125-2.539062 6.335938h6.828124zm0 0" fill="#54596e"/><path d="m55.085938 129.746094c0 22.617187 48.898437 40.957031 109.226562 40.957031s109.226562-18.339844 109.226562-40.957031zm0 0" fill="#55a6ff"/><path d="m55.085938 129.746094h-6.828126c-.007812 4.066406 1.128907 8.011718 3.054688 11.523437 3.398438 6.164063 8.976562 11.167969 16 15.523438 10.5625 6.496093 24.636719 11.574219 41.191406 15.15625 16.546875 3.566406 35.558594 5.578125 55.804688 5.582031 30.867187-.015625 58.816406-4.644531 79.636718-12.433594 10.414063-3.917968 19.082032-8.601562 25.535157-14.300781 3.222656-2.859375 5.902343-6.003906 7.828125-9.527344 1.925781-3.511719 3.0625-7.457031 3.054687-11.523437 0-1.800782-.726562-3.554688-2-4.828125-1.269531-1.273438-3.027343-2-4.824219-2h-218.453124c-1.796876 0-3.558594.726562-4.828126 2-1.269531 1.269531-2 3.027343-2 4.828125h6.828126v6.824218h218.453124v-6.824218h-6.828124c-.003907 1.585937-.398438 3.164062-1.382813 4.980468-1.695313 3.164063-5.4375 6.921876-11.1875 10.445313-8.59375 5.324219-21.433594 10.109375-36.898437 13.429687-15.472657 3.339844-33.59375 5.277344-52.933594 5.273438-29.457032.015625-56.125-4.523438-74.835938-11.5625-9.351562-3.492188-16.679687-7.636719-21.277344-11.734375-2.304687-2.042969-3.917968-4.042969-4.902343-5.851563-.984375-1.820312-1.375-3.398437-1.382813-4.980468h-6.824218v6.824218zm0 0" fill="#54596e"/><path d="m55.085938 109.265625h218.453124v20.480469h-218.453124zm0 0" fill="#a1b7ff"/><path d="m273.539062 109.265625v-6.828125h-218.453124c-1.796876 0-3.558594.726562-4.828126 2-1.269531 1.269531-2 3.03125-2 4.828125v20.480469c0 1.796875.730469 3.554687 2 4.824218 1.269532 1.273438 3.027344 2 4.828126 2h218.453124c1.796876 0 3.554688-.726562 4.824219-2 1.273438-1.269531 2-3.027343 2-4.824218v-20.480469c0-1.800781-.726562-3.554687-2-4.828125-1.269531-1.273438-3.027343-2-4.824219-2v6.828125h-6.828124v13.652344h-204.796876v-6.828125h211.625v-6.824219h-6.828124zm0 0" fill="#54596e"/><path d="m125.433594 13.335938-90.828125 37.902343 20.480469 58.027344h218.453124l20.480469-58.027344-90.839843-37.902343c-25.375-8.679688-52.375-8.675782-77.746094 0zm0 0" fill="#55a6ff"/><path d="m125.433594 13.335938-2.632813-6.300782-90.824219 37.902344c-3.347656 1.398438-5.011718 5.15625-3.808593 8.574219l20.480469 58.027343c.960937 2.71875 3.554687 4.554688 6.4375 4.554688h218.453124c2.886719 0 5.476563-1.835938 6.4375-4.554688l20.480469-58.027343c1.207031-3.417969-.460937-7.175781-3.804687-8.574219l-90.84375-37.902344-.417969-.160156c-13.386719-4.578125-27.230469-6.875-41.078125-6.875-13.851562 0-27.703125 2.296875-41.089844 6.878906l-.417968.160156 2.628906 6.296876 2.210937 6.460937c11.980469-4.101563 24.324219-6.144531 36.664063-6.148437 12.339844 0 24.675781 2.042968 36.660156 6.144531l2.210938-6.457031-2.632813 6.296874 84.886719 35.417969-16.726563 47.386719h-208.792969l-16.722656-47.386719 84.871094-35.414062-2.628906-6.300781 2.210937 6.460937zm0 0" fill="#54596e"/><path d="m167.726562 88.785156c-13.195312 0-23.894531-10.699218-23.894531-23.894531v-30.71875h47.785157v30.71875c0 13.199219-10.699219 23.894531-23.890626 23.894531zm0 0" fill="#fff35f"/><path d="m167.726562 88.785156v-6.828125c-9.421874-.015625-17.050781-7.644531-17.066406-17.066406v-23.894531h34.132813v23.894531c-.019531 9.421875-7.648438 17.050781-17.066407 17.066406v13.652344c16.964844 0 30.714844-13.746094 30.71875-30.71875v-30.71875c0-1.800781-.730468-3.554687-2-4.828125-1.269531-1.273438-3.027343-2-4.824218-2h-47.789063c-1.796875 0-3.554687.726562-4.828125 2-1.269531 1.269531-1.996094 3.027344-1.996094 4.828125v30.71875c.003907 16.96875 13.753907 30.714844 30.71875 30.71875zm0 0" fill="#54596e"/></svg>