<svg height="430pt" viewBox="-38 0 430 430.08" width="430pt" xmlns="http://www.w3.org/2000/svg"><path d="m295.390625 334.507812h-228.886719c-32.9375 0-59.636718 22.886719-59.636718 51.113282v37.632812h341.332031v-43.480468c0-25-23.640625-45.265626-52.808594-45.265626zm0 0" fill="#999"/><path d="m295.390625 334.507812v-6.828124h-228.886719c-18.054687.003906-34.515625 6.257812-46.613281 16.613281-12.082031 10.328125-19.859375 25.007812-19.8515625 41.328125v37.632812c0 1.796875.7304685 3.554688 1.9999995 4.824219 1.273438 1.273437 3.03125 2 4.828126 2h341.332031c1.796875 0 3.554687-.726563 4.828125-1.996094 1.269531-1.273437 2-3.03125 2-4.828125v-43.480468c.007812-14.703126-7.003906-27.921876-17.851563-37.191407-10.863281-9.300781-25.617187-14.898437-41.785156-14.898437v13.648437c12.996094-.003906 24.644531 4.535157 32.898437 11.617188 8.265626 7.113281 13.074219 16.527343 13.082032 26.824219v36.652343h-327.679688v-30.800781c.011719-11.910156 5.585938-22.789062 15.085938-30.960938 9.488281-8.144531 22.84375-13.335937 37.726562-13.332031h228.886719zm0 0" fill="#54596e"/><path d="m81.960938 402.773438v20.480468c0 3.769532 3.054687 6.824219 6.824218 6.824219 3.773438 0 6.828125-3.054687 6.828125-6.824219v-20.480468c0-3.769532-3.054687-6.828126-6.828125-6.828126-3.769531 0-6.824218 3.058594-6.824218 6.828126" fill="#54596e"/><path d="m259.453125 402.773438v20.480468c0 3.769532 3.058594 6.824219 6.828125 6.824219s6.824219-3.054687 6.824219-6.824219v-20.480468c0-3.769532-3.054688-6.828126-6.824219-6.828126s-6.828125 3.058594-6.828125 6.828126" fill="#54596e"/><path d="m184.359375 382.292969h-13.652344c-15.082031 0-27.308593-12.226563-27.308593-27.304688v-54.613281h68.269531v54.613281c0 15.078125-12.226563 27.304688-27.308594 27.304688zm0 0" fill="#ffd578"/><path d="m184.359375 382.292969v-6.828125h-13.652344c-11.308593-.019532-20.460937-9.171875-20.480469-20.476563v-47.789062h54.613282v47.789062c-.019532 11.304688-9.171875 20.457031-20.480469 20.476563v13.65625c18.855469-.003906 34.128906-15.28125 34.132813-34.132813v-54.613281c0-1.800781-.726563-3.558594-2-4.828125-1.269532-1.273437-3.027344-2-4.824219-2h-68.269531c-1.796876 0-3.554688.726563-4.824219 2-1.273438 1.269531-2 3.027344-2 4.828125v54.613281c.003906 18.851563 15.277343 34.125 34.132812 34.132813h13.652344zm0 0" fill="#54596e"/><path d="m177.535156 334.507812c-64.09375 0-116.054687-51.960937-116.054687-116.054687v-61.441406c0-64.09375 51.960937-116.050781 116.054687-116.050781s116.050782 51.957031 116.050782 116.050781v61.441406c0 64.09375-51.957032 116.054687-116.050782 116.054687zm0 0" fill="#ffd578"/><path d="m177.535156 334.507812v-6.828124c-30.183594-.003907-57.449218-12.214844-77.238281-31.992188-19.777344-19.789062-31.988281-47.050781-31.988281-77.234375v-61.441406c0-30.183594 12.210937-57.445313 31.988281-77.234375 19.789063-19.777344 47.054687-31.988282 77.238281-31.992188 30.179688.003906 57.445313 12.21875 77.234375 31.996094 19.777344 19.785156 31.988281 47.046875 31.992188 77.230469v61.441406c-.003907 30.183594-12.214844 57.445313-31.992188 77.234375-19.789062 19.777344-47.054687 31.988281-77.234375 31.992188v13.652343c67.863282-.003906 122.875-55.011719 122.878906-122.878906v-61.441406c-.003906-67.867188-55.011718-122.875-122.878906-122.878907-67.867187.003907-122.875 55.011719-122.882812 122.878907v61.441406c.007812 67.867187 55.015625 122.875 122.882812 122.878906zm0 0" fill="#54596e"/><path d="m54.652344 177.492188v-40.957032c.003906-33.957031 13.742187-64.636718 35.992187-86.890625 22.257813-22.25 52.933594-35.988281 86.890625-35.992187 33.953125.003906 64.628906 13.746094 86.886719 35.992187 22.25 22.257813 35.988281 52.933594 35.992187 86.890625v40.957032c0 3.769531 3.054688 6.828124 6.824219 6.828124 3.773438 0 6.828125-3.058593 6.828125-6.828124v-40.957032c-.003906-75.414062-61.125-136.53124975-136.53125-136.535156-75.410156.00390625-136.53125 61.121094-136.535156 136.535156v40.957032c0 3.769531 3.058594 6.828124 6.828125 6.828124s6.824219-3.058593 6.824219-6.828124zm0 0" fill="#54596e"/><path d="m34.171875 163.839844h27.308594v81.921875h-27.308594zm0 0" fill="#55a6ff"/><path d="m34.171875 245.761719v6.824219h27.308594c1.796875 0 3.554687-.726563 4.824219-2 1.273437-1.269532 2.003906-3.027344 2.003906-4.824219v-81.921875c0-1.796875-.730469-3.554688-2.003906-4.828125-1.269532-1.269531-3.027344-2-4.824219-2h-27.308594c-1.796875 0-3.554687.730469-4.824219 2-1.273437 1.273437-2 3.03125-2 4.828125v81.921875c0 1.796875.726563 3.554687 2 4.824219 1.269532 1.273437 3.027344 2 4.824219 2v-6.824219h6.828125v-75.09375h13.652344v68.265625h-20.480469v6.828125h6.828125zm0 0" fill="#54596e"/><path d="m13.691406 184.320312h20.480469v47.785157h-20.480469zm0 0" fill="#54596e"/><path d="m293.585938 163.839844h27.308593v81.921875h-27.308593zm0 0" fill="#55a6ff"/><g fill="#54596e"><path d="m320.894531 245.761719v-6.828125h-20.480469v-68.265625h13.652344v75.09375h6.828125v-6.828125 6.828125h6.824219v-81.921875c0-1.796875-.726562-3.554688-2-4.828125-1.269531-1.269531-3.027344-2-4.824219-2h-27.308593c-1.796876 0-3.554688.730469-4.824219 2-1.273438 1.273437-2 3.03125-2 4.828125v81.921875c0 1.796875.726562 3.554687 2 4.824219 1.269531 1.273437 3.027343 2 4.824219 2h27.308593c1.796875 0 3.554688-.726563 4.824219-2 1.269531-1.269532 2-3.027344 2-4.824219zm0 0"/><path d="m320.894531 184.320312h20.480469v47.785157h-20.480469zm0 0"/><path d="m126.332031 170.667969c-20.734375 0-37.546875 3.054687-37.546875 6.824219v32.859374c0 12.015626 10.71875 21.753907 23.933594 21.753907h27.226562c13.21875 0 23.933594-9.738281 23.933594-21.753907v-32.859374c0-3.769532-16.808594-6.824219-37.546875-6.824219zm0 0"/><path d="m228.734375 170.667969c-20.738281 0-37.546875 3.054687-37.546875 6.824219v32.859374c0 12.015626 10.714844 21.753907 23.933594 21.753907h27.226562c13.214844 0 23.929688-9.738281 23.929688-21.753907v-32.859374c.003906-3.769532-16.808594-6.824219-37.542969-6.824219zm0 0"/><path d="m293.585938 184.320312h-34.132813c-3.769531 0-6.828125 3.054688-6.828125 6.828126 0 3.769531 3.058594 6.824218 6.828125 6.824218h34.132813c3.769531 0 6.828124-3.054687 6.828124-6.824218 0-3.773438-3.058593-6.828126-6.828124-6.828126"/><path d="m102.441406 184.320312h-34.132812c-3.773438 0-6.828125 3.054688-6.828125 6.828126 0 3.769531 3.054687 6.824218 6.828125 6.824218h34.132812c3.769532 0 6.824219-3.054687 6.824219-6.824218 0-3.773438-3.054687-6.828126-6.824219-6.828126"/><path d="m198.011719 177.492188h-34.132813c-3.769531 0-6.824218 3.058593-6.824218 6.828124 0 3.769532 3.054687 6.828126 6.824218 6.828126h34.132813c3.773437 0 6.828125-3.058594 6.828125-6.828126 0-3.769531-3.054688-6.828124-6.828125-6.828124"/><path d="m178.5 279.824219 47.785156-6.828125c3.734375-.53125 6.328125-3.988282 5.792969-7.722656-.535156-3.730469-3.992187-6.324219-7.722656-5.792969l-47.789063 6.828125c-3.730468.53125-6.324218 3.988281-5.792968 7.722656.535156 3.730469 3.992187 6.328125 7.726562 5.792969"/></g></svg>