<svg height="436pt" viewBox="-54 0 436 436.90667" width="436pt" xmlns="http://www.w3.org/2000/svg"><path d="m268.496094 334.507812h-201.578125c-32.9375 0-59.636719 22.886719-59.636719 51.113282v44.457031h314.027344v-50.304687c0-25-23.644532-45.265626-52.8125-45.265626zm0 0" fill="#a1b7ff"/><path d="m268.496094 334.507812v-6.828124h-201.578125c-18.054688.003906-34.515625 6.257812-46.613281 16.613281-12.085938 10.328125-19.859376 25.007812-19.851563 41.328125v44.457031c0 1.800781.730469 3.558594 2 4.828125 1.273437 1.273438 3.03125 2 4.828125 2h314.027344c1.796875 0 3.554687-.726562 4.824218-2 1.273438-1.269531 2-3.027344 2-4.824219v-50.308593c.007813-14.703126-7-27.921876-17.851562-37.191407-10.859375-9.300781-25.617188-14.898437-41.785156-14.898437v13.648437c12.996094-.003906 24.648437 4.535157 32.898437 11.617188 8.265625 7.113281 13.074219 16.527343 13.082031 26.824219v43.480468h-300.371093v-37.628906c.007812-11.910156 5.582031-22.789062 15.085937-30.960938 9.484375-8.144531 22.84375-13.335937 37.726563-13.332031h201.578125zm0 0" fill="#54596e"/><path d="m89.199219 170.667969c0 15.078125-12.226563 27.304687-27.304688 27.304687-15.082031 0-27.308593-12.226562-27.308593-27.304687 0-15.082031 12.226562-27.308594 27.308593-27.308594 15.078125 0 27.304688 12.226563 27.304688 27.308594zm0 0" fill="#ffd578"/><path d="m89.199219 170.667969h6.828125c-.003906-18.855469-15.28125-34.132813-34.132813-34.132813-18.855469 0-34.128906 15.277344-34.132812 34.132813.003906 18.851562 15.277343 34.125 34.132812 34.132812 18.851563-.003906 34.128907-15.28125 34.132813-34.132812h-13.652344c-.023438 11.304687-9.175781 20.457031-20.480469 20.480469-11.308593-.023438-20.460937-9.175782-20.480469-20.480469.019532-11.308594 9.171876-20.460938 20.480469-20.480469 11.304688.019531 20.457031 9.171875 20.480469 20.480469zm0 0" fill="#54596e"/><path d="m294 170.667969c0 15.078125-12.226562 27.304687-27.308594 27.304687-15.078125 0-27.304687-12.226562-27.304687-27.304687 0-15.082031 12.226562-27.308594 27.304687-27.308594 15.082032 0 27.308594 12.226563 27.308594 27.308594zm0 0" fill="#ffd578"/><path d="m294 170.667969h6.828125c-.007813-18.855469-15.28125-34.132813-34.136719-34.132813-18.851562 0-34.125 15.277344-34.132812 34.132813.007812 18.851562 15.28125 34.125 34.132812 34.132812 18.855469-.003906 34.128906-15.28125 34.136719-34.132812h-13.65625c-.019531 11.304687-9.171875 20.457031-20.480469 20.480469-11.304687-.023438-20.457031-9.175782-20.476562-20.480469.019531-11.308594 9.171875-20.460938 20.476562-20.480469 11.308594.019531 20.460938 9.171875 20.480469 20.480469zm0 0" fill="#54596e"/><path d="m164.292969 382.292969c-15.078125 0-27.304688-12.226563-27.304688-27.304688v-68.269531h54.613281v68.269531c0 15.078125-12.226562 27.304688-27.308593 27.304688zm0 0" fill="#ffd578"/><path d="m164.292969 382.292969v-6.828125c-11.304688-.019532-20.460938-9.171875-20.480469-20.476563v-61.441406h40.960938v61.441406c-.019532 11.304688-9.171876 20.457031-20.480469 20.476563v13.65625c18.855469-.003906 34.128906-15.28125 34.132812-34.132813v-68.269531c0-1.796875-.726562-3.554688-2-4.828125-1.269531-1.269531-3.027343-1.996094-4.824219-1.996094h-54.613281c-1.796875 0-3.558593.726563-4.828125 1.996094-1.269531 1.273437-2 3.03125-2 4.828125v68.269531c.003906 18.851563 15.28125 34.125 34.132813 34.132813zm0 0" fill="#54596e"/><path d="m164.292969 314.027344c-56.554688 0-102.398438-66.328125-102.398438-122.878906v-81.921876h204.796875v81.921876c0 56.550781-45.84375 122.878906-102.398437 122.878906zm0 0" fill="#ffd578"/><g fill="#54596e"><path d="m164.292969 314.027344v-6.828125c-12.789063-.003907-25.050781-3.734375-36.433594-10.328125-17.058594-9.867188-31.984375-26.265625-42.503906-45.296875-10.542969-19.015625-16.652344-40.605469-16.636719-60.425781v-75.097657h191.148438v75.097657c.046874 26.433593-10.898438 55.980468-28.539063 78.433593-8.800781 11.238281-19.230469 20.703125-30.597656 27.289063-11.382813 6.59375-23.644531 10.324218-36.433594 10.328125v13.652343c15.484375.003907 30.160156-4.554687 43.28125-12.164062 19.695313-11.4375 36.042969-29.648438 47.601563-50.5 11.539062-20.871094 18.324218-44.449219 18.339843-67.039062v-81.921876c0-1.796874-.726562-3.554687-2-4.828124-1.269531-1.269532-3.027343-2-4.828125-2h-204.796875c-1.796875 0-3.558593.730468-4.828125 2-1.269531 1.273437-2 3.03125-2 4.828124v81.921876c.046875 30.113281 12.027344 62.007812 31.445313 86.855468 9.730469 12.414063 21.367187 23.0625 34.5 30.679688 13.117187 7.613281 27.796875 12.171875 43.28125 12.167968zm0 0"/><path d="m116.507812 160.425781c0 5.65625-4.585937 10.242188-10.242187 10.242188s-10.238281-4.585938-10.238281-10.242188 4.582031-10.238281 10.238281-10.238281 10.242187 4.582031 10.242187 10.238281zm0 0"/><path d="m232.558594 160.425781c0 5.65625-4.582032 10.242188-10.238282 10.242188s-10.242187-4.585938-10.242187-10.242188 4.585937-10.238281 10.242187-10.238281 10.238282 4.582031 10.238282 10.238281zm0 0"/></g><path d="m157.464844 238.933594h13.65625c7.539062 0 13.652344-6.113282 13.652344-13.652344 0-7.542969-6.113282-13.65625-13.652344-13.65625h-13.65625c-7.539063 0-13.652344 6.113281-13.652344 13.65625 0 7.539062 6.113281 13.652344 13.652344 13.652344" fill="#ff927d"/><path d="m136.988281 225.28125h54.613281c3.769532 0 6.824219-3.058594 6.824219-6.828125s-3.054687-6.828125-6.824219-6.828125h-54.613281c-3.773437 0-6.828125 3.058594-6.828125 6.828125s3.054688 6.828125 6.828125 6.828125" fill="#ff927d"/><path d="m7.28125 402.773438h20.480469c15.078125 0 27.304687 12.226562 27.304687 27.304687h-47.785156zm0 0" fill="#ffd578"/><path d="m7.28125 402.773438v6.828124h20.480469c11.304687.019532 20.457031 9.171876 20.476562 20.476563h6.828125v-6.824219h-40.960937v-20.480468h-6.824219v6.828124-6.828124h-6.828125v27.304687c0 1.800781.730469 3.558594 2 4.828125 1.273437 1.273438 3.03125 2 4.828125 2h47.785156c1.796875 0 3.554688-.726562 4.828125-2 1.269531-1.269531 2-3.027344 2-4.828125-.007812-18.851563-15.28125-34.128906-34.132812-34.132813h-20.480469c-1.796875 0-3.558594.726563-4.828125 2-1.269531 1.269532-2 3.03125-2 4.828126zm0 0" fill="#54596e"/><path d="m321.308594 402.773438h-20.480469c-15.082031 0-27.308594 12.226562-27.308594 27.304687h47.789063zm0 0" fill="#ffd578"/><path d="m321.308594 402.773438v-6.828126h-20.480469c-18.855469.003907-34.128906 15.28125-34.136719 34.132813 0 1.800781.730469 3.558594 2.003906 4.828125 1.269532 1.273438 3.027344 2 4.824219 2h47.789063c1.796875 0 3.554687-.726562 4.824218-2 1.273438-1.269531 2-3.027344 2-4.828125v-27.304687c0-1.800782-.726562-3.558594-2-4.828126-1.269531-1.269531-3.027343-2-4.824218-2v6.828126h-6.828125v20.480468h-40.960938v6.824219h6.828125c.019532-11.304687 9.171875-20.457031 20.480469-20.476563h20.480469v-6.828124h-6.828125zm0 0" fill="#54596e"/><path d="m200.230469 6.828125h-71.871094c-36.707031 0-66.464844 29.757813-66.464844 66.464844v56.414062h204.796875v-56.414062c0-36.707031-29.753906-66.464844-66.460937-66.464844zm0 0" fill="#fff"/><path d="m200.230469 6.828125v-6.828125h-71.871094c-40.480469.00390625-73.289063 32.8125-73.292969 73.292969v56.414062c0 1.796875.730469 3.554688 2 4.824219 1.273438 1.273438 3.03125 2.003906 4.828125 2.003906h204.796875c1.800782 0 3.558594-.730468 4.828125-2 1.273438-1.273437 2-3.03125 2-4.828125v-56.414062c-.003906-40.480469-32.808593-73.28906275-73.289062-73.292969v13.652344c16.488281.003906 31.355469 6.664062 42.171875 17.46875 10.800781 10.8125 17.460937 25.679687 17.464844 42.171875v49.585937h-191.148438v-49.585937c.003906-16.492188 6.664062-31.359375 17.46875-42.171875 10.8125-10.804688 25.679688-17.460938 42.171875-17.46875h71.871094zm0 0" fill="#54596e"/><path d="m61.894531 102.398438h204.796875v27.308593h-204.796875zm0 0" fill="#d8d8d8"/><path d="m266.691406 129.707031v-6.828125h-197.972656v-13.652344h191.148438v20.480469h6.824218v-6.828125 6.828125h6.828125v-27.308593c0-1.796876-.726562-3.554688-2-4.828126-1.269531-1.269531-3.027343-1.996093-4.828125-1.996093h-204.796875c-1.796875 0-3.558593.726562-4.828125 1.996093-1.269531 1.273438-2 3.03125-2 4.828126v27.308593c0 1.796875.730469 3.554688 2 4.824219 1.273438 1.273438 3.03125 2.003906 4.828125 2.003906h204.796875c1.800782 0 3.558594-.730468 4.828125-2 1.273438-1.273437 2-3.03125 2-4.828125zm0 0" fill="#54596e"/><path d="m198.425781 116.054688c0 18.851562-15.28125 34.132812-34.132812 34.132812-18.851563 0-34.132813-15.28125-34.132813-34.132812 0-18.851563 15.28125-34.132813 34.132813-34.132813 18.851562 0 34.132812 15.28125 34.132812 34.132813zm0 0" fill="#d8d8d8"/><path d="m198.425781 116.054688h6.828125c-.003906-22.625-18.335937-40.957032-40.960937-40.960938-22.625.003906-40.953125 18.335938-40.960938 40.960938.007813 22.621093 18.335938 40.953124 40.960938 40.957031 22.625 0 40.957031-18.335938 40.960937-40.957031h-13.652344c-.003906 7.558593-3.046874 14.34375-8 19.304687-4.964843 4.953125-11.746093 7.996094-19.308593 8-7.558594-.003906-14.34375-3.046875-19.308594-8-4.953125-4.960937-7.996094-11.746094-7.996094-19.304687 0-7.5625 3.042969-14.347657 7.996094-19.308594 4.964844-4.953125 11.75-7.996094 19.308594-8 7.5625.003906 14.34375 3.046875 19.308593 8 4.953126 4.960937 7.996094 11.746094 8 19.308594zm0 0" fill="#54596e"/><path d="m205.253906 416.425781h40.960938c3.769531 0 6.824218-3.054687 6.824218-6.824219 0-3.773437-3.054687-6.828124-6.824218-6.828124h-40.960938c-3.769531 0-6.828125 3.054687-6.828125 6.828124 0 3.769532 3.058594 6.824219 6.828125 6.824219" fill="#54596e"/></svg>