<svg height="436pt" viewBox="-51 0 436 436.90667" width="436pt" xmlns="http://www.w3.org/2000/svg"><path d="m321.308594 191.148438c0 15.078124-12.226563 27.304687-27.308594 27.304687s-27.308594-12.226563-27.308594-27.304687c0-15.082032 12.226563-27.308594 27.308594-27.308594s27.308594 12.226562 27.308594 27.308594zm0 0" fill="#ffd578"/><path d="m321.308594 191.148438h6.824218c-.003906-18.855469-15.277343-34.132813-34.132812-34.136719-18.855469.003906-34.128906 15.28125-34.132812 34.136719.003906 18.851562 15.277343 34.125 34.132812 34.132812 18.855469-.003906 34.128906-15.28125 34.132812-34.132812h-13.652343c-.019531 11.304687-9.171875 20.457031-20.480469 20.476562-11.308594-.019531-20.460938-9.171875-20.480469-20.476562.019531-11.308594 9.171875-20.460938 20.480469-20.480469 11.308594.019531 20.460938 9.171875 20.480469 20.480469zm0 0" fill="#54596e"/><path d="m75.546875 191.148438c0 15.078124-12.226563 27.304687-27.308594 27.304687-15.078125 0-27.304687-12.226563-27.304687-27.304687 0-15.082032 12.226562-27.308594 27.304687-27.308594 15.082031 0 27.308594 12.226562 27.308594 27.308594zm0 0" fill="#ffd578"/><path d="m75.546875 191.148438h6.828125c-.007812-18.855469-15.28125-34.132813-34.136719-34.136719-18.851562.003906-34.125 15.28125-34.132812 34.136719.007812 18.851562 15.28125 34.125 34.132812 34.132812 18.855469-.003906 34.128907-15.28125 34.136719-34.132812h-13.65625c-.019531 11.304687-9.171875 20.457031-20.480469 20.476562-11.304687-.019531-20.457031-9.171875-20.476562-20.476562.019531-11.308594 9.171875-20.460938 20.476562-20.480469 11.308594.019531 20.460938 9.171875 20.480469 20.480469zm0 0" fill="#54596e"/><path d="m275.328125 334.507812h-201.585937c-32.933594 0-59.636719 22.886719-59.636719 51.113282v44.457031h314.027343v-50.304687c0-25-23.644531-45.265626-52.804687-45.265626zm0 0" fill="#fff"/><path d="m275.328125 334.507812v-6.828124h-201.585937c-18.050782.003906-34.515626 6.257812-46.609376 16.613281-12.085937 10.328125-19.859374 25.007812-19.851562 41.328125v44.457031c0 1.800781.730469 3.558594 2 4.828125 1.269531 1.273438 3.027344 2 4.824219 2h314.027343c1.796876 0 3.554688-.726562 4.828126-2 1.269531-1.269531 2-3.027344 2-4.824219v-50.308593c.007812-14.703126-7.003907-27.921876-17.851563-37.191407-10.863281-9.300781-25.617187-14.898437-41.78125-14.898437v13.648437c12.992187-.003906 24.640625 4.535157 32.894531 11.617188 8.265625 7.117187 13.078125 16.53125 13.085938 26.824219v43.480468h-300.375v-37.628906c.007812-11.910156 5.582031-22.789062 15.082031-30.960938 9.488281-8.144531 22.84375-13.335937 37.726563-13.332031h201.585937zm0 0" fill="#54596e"/><path d="m55.066406 402.773438v20.480468c0 3.769532 3.058594 6.824219 6.828125 6.824219s6.824219-3.054687 6.824219-6.824219v-20.480468c0-3.769532-3.054688-6.828126-6.824219-6.828126s-6.828125 3.058594-6.828125 6.828126" fill="#54596e"/><path d="m273.519531 402.773438v20.480468c0 3.769532 3.058594 6.824219 6.828125 6.824219 3.769532 0 6.824219-3.054687 6.824219-6.824219v-20.480468c0-3.769532-3.054687-6.828126-6.824219-6.828126-3.769531 0-6.828125 3.058594-6.828125 6.828126" fill="#54596e"/><path d="m171.121094 382.292969c-15.082032 0-27.308594-12.226563-27.308594-27.304688v-68.269531h54.613281v68.269531c0 15.078125-12.226562 27.304688-27.304687 27.304688zm0 0" fill="#ffd578"/><path d="m171.121094 382.292969v-6.828125c-11.308594-.019532-20.460938-9.171875-20.480469-20.476563v-61.441406h40.960937v61.441406c-.023437 11.304688-9.175781 20.457031-20.480468 20.476563v13.65625c18.851562-.003906 34.128906-15.28125 34.132812-34.132813v-68.269531c0-1.796875-.730468-3.554688-2-4.828125-1.269531-1.269531-3.03125-1.996094-4.828125-1.996094h-54.613281c-1.796875 0-3.554688.726563-4.828125 1.996094-1.269531 1.273437-1.996094 3.03125-1.996094 4.828125v68.269531c.003907 18.851563 15.277344 34.125 34.132813 34.132813zm0 0" fill="#54596e"/><path d="m177.945312 430.078125v-47.785156c0-3.769531-3.054687-6.828125-6.824218-6.828125-3.769532 0-6.828125 3.058594-6.828125 6.828125v47.785156c0 3.773437 3.058593 6.828125 6.828125 6.828125 3.769531 0 6.824218-3.054688 6.824218-6.828125" fill="#54596e"/><path d="m143.8125 389.121094-34.132812 13.652344-6.828126-68.265626h40.960938zm0 0" fill="#fff"/><path d="m143.8125 389.121094-2.535156-6.339844-25.707032 10.28125-5.171874-51.730469h26.589843v47.789063h6.824219l-2.535156-6.339844 2.535156 6.339844h6.828125v-54.613282c0-1.800781-.730469-3.558593-2-4.828124-1.269531-1.273438-3.03125-2-4.828125-2h-40.960938c-1.925781 0-3.769531.816406-5.058593 2.246093-1.292969 1.425781-1.925781 3.34375-1.730469 5.261719l6.824219 68.265625c.214843 2.132813 1.417969 4.042969 3.25 5.15625 1.835937 1.113281 4.085937 1.296875 6.078125.5l34.132812-13.652344c2.582032-1.03125 4.292969-3.554687 4.292969-6.335937zm0 0" fill="#54596e"/><path d="m198.425781 389.121094 34.132813 13.652344 6.828125-68.265626h-40.960938zm0 0" fill="#fff"/><path d="m198.425781 389.121094-2.535156 6.335937 34.132813 13.65625c1.992187.792969 4.242187.609375 6.078124-.503906 1.832032-1.109375 3.035157-3.023437 3.25-5.15625l6.824219-68.265625c.191407-1.917969-.4375-3.832031-1.730469-5.261719-1.289062-1.429687-3.132812-2.246093-5.058593-2.246093h-40.960938c-1.796875 0-3.554687.726562-4.828125 2-1.269531 1.269531-1.996094 3.027343-1.996094 4.828124v54.613282c0 2.78125 1.707032 5.304687 4.289063 6.335937l2.535156-6.335937h6.828125v-47.789063h26.589844l-5.171875 51.730469-25.710937-10.28125-2.535157 6.339844h6.828125zm0 0" fill="#54596e"/><path d="m171.121094 327.679688c64.09375 0 116.050781-51.960938 116.050781-116.054688v-68.265625h-232.105469v68.265625c0 64.09375 51.960938 116.054688 116.054688 116.054688zm0 0" fill="#ffd578"/><path d="m171.121094 327.679688v6.828124c67.863281-.003906 122.875-55.015624 122.878906-122.882812v-68.265625c0-1.796875-.730469-3.554687-2-4.828125-1.269531-1.269531-3.03125-1.996094-4.828125-1.996094h-232.105469c-1.796875 0-3.554687.726563-4.828125 1.996094-1.269531 1.273438-2 3.03125-2 4.828125v68.265625c.003907 67.867188 55.015625 122.875 122.882813 122.882812v-13.65625c-30.183594 0-57.449219-12.214843-77.234375-31.992187-19.777344-19.785156-31.988281-47.050781-31.992188-77.234375v-61.441406h218.453125v61.441406c-.003906 30.183594-12.214844 57.449219-31.996094 77.234375-19.785156 19.777344-47.050781 31.992187-77.230468 31.992187zm0 0" fill="#54596e"/><path d="m136.988281 245.761719c0 18.847656 15.277344 34.132812 34.132813 34.132812 18.851562 0 34.132812-15.285156 34.132812-34.132812zm0 0" fill="#54596e"/><path d="m136.988281 245.761719h-6.828125c.003906 22.621093 18.332032 40.953125 40.960938 40.957031 22.625-.003906 40.953125-18.335938 40.957031-40.957031 0-1.800781-.726563-3.558594-1.996094-4.828125-1.273437-1.273438-3.03125-2-4.828125-2h-68.265625c-1.796875 0-3.558593.726562-4.828125 2-1.269531 1.269531-2 3.027344-2 4.828125h6.828125v6.824219h68.265625v-6.824219h-6.828125c-.003906 7.558593-3.042969 14.34375-7.996093 19.304687-4.964844 4.953125-11.746094 7.996094-19.308594 8-7.566406-.003906-14.347656-3.046875-19.308594-8-4.953125-4.960937-7.996094-11.746094-8-19.304687h-6.824219v6.824219zm0 0" fill="#54596e"/><path d="m136.988281 180.90625c0 5.65625-4.585937 10.242188-10.242187 10.242188s-10.238282-4.585938-10.238282-10.242188 4.582032-10.238281 10.238282-10.238281 10.242187 4.582031 10.242187 10.238281zm0 0" fill="#54596e"/><path d="m225.734375 180.90625c0 5.65625-4.585937 10.242188-10.242187 10.242188-5.652344 0-10.238282-4.585938-10.238282-10.242188s4.585938-10.238281 10.238282-10.238281c5.65625 0 10.242187 4.582031 10.242187 10.238281zm0 0" fill="#54596e"/><path d="m157.464844 259.414062h27.308594v-13.652343h-27.308594" fill="#fff"/><path d="m48.238281 109.226562h245.761719v34.132813h-245.761719zm0 0" fill="#999"/><path d="m294 143.359375v-6.824219h-238.933594v-20.484375h232.105469v27.308594h6.828125v-6.824219 6.824219h6.828125v-34.132813c0-1.796874-.730469-3.554687-2-4.828124-1.269531-1.269532-3.03125-2-4.828125-2h-245.761719c-1.796875 0-3.554687.730468-4.828125 2-1.269531 1.273437-1.996094 3.03125-1.996094 4.828124v34.132813c0 1.796875.726563 3.554687 2 4.828125 1.269532 1.269531 3.027344 2 4.824219 2h245.761719c1.796875 0 3.554688-.726562 4.828125-2 1.269531-1.269531 2-3.027344 2-4.824219h-6.828125zm0 0" fill="#54596e"/><path d="m55.066406 204.800781c15.082032 0 27.308594-12.226562 27.308594-27.308593v-34.132813h-27.308594zm0 0" fill="#ff927d"/><path d="m55.066406 204.800781v6.824219c18.855469 0 34.128906-15.277344 34.132813-34.132812v-34.132813c0-1.796875-.726563-3.554687-1.996094-4.828125-1.273437-1.269531-3.03125-1.996094-4.828125-1.996094h-27.308594c-1.796875 0-3.554687.726563-4.828125 1.996094-1.269531 1.273438-2 3.03125-2 4.828125v61.441406c0 1.796875.730469 3.554688 2 4.824219 1.273438 1.273438 3.03125 2 4.828125 2v-6.824219h6.828125v-54.613281h13.652344v27.304688c-.019531 11.308593-9.171875 20.460937-20.480469 20.480468v6.828125h6.828125zm0 0" fill="#54596e"/><path d="m287.171875 204.800781v-61.441406h-27.304687v34.132813c0 15.082031 12.226562 27.308593 27.304687 27.308593zm0 0" fill="#ff927d"/><path d="m287.171875 204.800781h6.828125v-61.441406c0-1.796875-.730469-3.554687-2-4.828125-1.269531-1.269531-3.03125-1.996094-4.828125-1.996094h-27.304687c-1.796876 0-3.558594.726563-4.828126 1.996094-1.269531 1.273438-2 3.03125-2 4.828125v34.132813c.007813 18.855468 15.28125 34.128906 34.132813 34.132812 1.796875 0 3.554687-.726562 4.828125-1.996094 1.269531-1.273437 2-3.03125 2-4.828125h-6.828125v-6.824219c-11.304687-.023437-20.457031-9.175781-20.480469-20.480468v-27.308594h13.65625v54.613281h6.824219v-6.824219zm0 0" fill="#54596e"/><path d="m205.253906 27.308594h-68.265625c-45.242187 0-81.921875 36.675781-81.921875 81.917968h232.105469c0-45.242187-36.679687-81.917968-81.917969-81.917968zm0 0" fill="#999"/><g fill="#54596e"><path d="m205.253906 27.308594v-6.828125h-68.265625c-49.015625.003906-88.742187 39.730469-88.75 88.746093 0 1.796876.730469 3.554688 2 4.828126 1.273438 1.269531 3.03125 2 4.828125 2h232.105469c1.796875 0 3.554687-.726563 4.828125-2 1.269531-1.273438 2-3.03125 2-4.828126-.003906-49.015624-39.734375-88.742187-88.746094-88.746093v13.652343c20.757813.003907 39.484375 8.394532 53.097656 21.996094 13.601563 13.609375 21.992188 32.339844 21.996094 53.097656h6.824219v-6.828124h-232.105469v6.828124h6.828125c.003907-20.757812 8.394531-39.488281 21.996094-53.097656 13.609375-13.601562 32.339844-21.992187 53.097656-21.996094h68.265625zm0 0"/><path d="m284.441406 73.726562 27.308594-20.480468c3.015625-2.257813 3.625-6.539063 1.363281-9.554688s-6.539062-3.628906-9.554687-1.367187l-27.308594 20.480469c-3.015625 2.261718-3.625 6.542968-1.363281 9.558593s6.539062 3.625 9.554687 1.363281"/><path d="m56.40625 68.398438-34.132812-6.824219c-3.695313-.742188-7.292969 1.65625-8.035157 5.355469-.738281 3.695312 1.660157 7.292968 5.355469 8.03125l34.136719 6.828124c3.695312.738282 7.292969-1.65625 8.03125-5.355468.738281-3.699219-1.660157-7.292969-5.355469-8.035156"/><path d="m79.917969 49.367188-40.960938-34.132813c-2.894531-2.414063-7.199219-2.019531-9.613281.875-2.417969 2.894531-2.023438 7.199219.871094 9.613281l40.960937 34.136719c2.894531 2.410156 7.199219 2.019531 9.617188-.875 2.414062-2.894531 2.019531-7.203125-.875-9.617187"/><path d="m27.761719 68.265625c0 7.542969-6.113281 13.65625-13.65625 13.65625-7.539063 0-13.652344-6.113281-13.652344-13.65625 0-7.539063 6.113281-13.652344 13.652344-13.652344 7.542969 0 13.65625 6.113281 13.65625 13.652344zm0 0"/><path d="m41.414062 13.652344c0 7.542968-6.113281 13.65625-13.652343 13.65625-7.542969 0-13.65625-6.113282-13.65625-13.65625 0-7.539063 6.113281-13.652344 13.65625-13.652344 7.539062 0 13.652343 6.113281 13.652343 13.652344zm0 0"/><path d="m328.132812 40.960938c0 7.539062-6.113281 13.652343-13.652343 13.652343-7.539063 0-13.652344-6.113281-13.652344-13.652343 0-7.542969 6.113281-13.652344 13.652344-13.652344 7.539062 0 13.652343 6.109375 13.652343 13.652344zm0 0"/><path d="m212.078125 13.652344c0 7.542968-6.109375 13.65625-13.652344 13.65625-7.539062 0-13.652343-6.113282-13.652343-13.65625 0-7.539063 6.113281-13.652344 13.652343-13.652344 7.542969 0 13.652344 6.113281 13.652344 13.652344zm0 0"/><path d="m150.640625 13.652344c0 7.542968-6.113281 13.65625-13.652344 13.65625-7.542969 0-13.65625-6.113282-13.65625-13.65625 0-7.539063 6.113281-13.652344 13.65625-13.652344 7.539063 0 13.652344 6.113281 13.652344 13.652344zm0 0"/><path d="m109.679688 47.785156h13.652343v13.65625h-13.652343zm0 0"/><path d="m143.8125 47.785156h13.652344v13.65625h-13.652344zm0 0"/><path d="m130.160156 75.09375h13.652344v13.652344h-13.652344zm0 0"/><path d="m164.292969 75.09375h13.652343v13.652344h-13.652343zm0 0"/></g></svg>