<svg height="436pt" viewBox="-41 0 436 436.90667" width="436pt" xmlns="http://www.w3.org/2000/svg"><path d="m82.375 191.148438c0 15.078124-12.226562 27.304687-27.308594 27.304687-15.082031 0-27.304687-12.226563-27.304687-27.304687 0-15.082032 12.222656-27.308594 27.304687-27.308594 15.082032 0 27.308594 12.226562 27.308594 27.308594zm0 0" fill="#ffd578"/><path d="m82.375 191.148438h6.824219c-.003907-18.855469-15.277344-34.132813-34.132813-34.136719-18.851562.003906-34.128906 15.28125-34.132812 34.136719.003906 18.851562 15.28125 34.125 34.132812 34.132812 18.855469-.003906 34.128906-15.28125 34.132813-34.132812h-13.652344c-.019531 11.304687-9.171875 20.457031-20.480469 20.476562-11.304687-.019531-20.460937-9.171875-20.480468-20.476562.019531-11.308594 9.175781-20.460938 20.480468-20.480469 11.308594.019531 20.460938 9.171875 20.480469 20.480469zm0 0" fill="#54596e"/><path d="m291.210938 334.507812h-219.109376c-35.796874 0-64.820312 22.886719-64.820312 51.113282v44.457031h341.332031v-50.304687c0-25-25.699219-45.265626-57.402343-45.265626zm0 0" fill="#d8d8d8"/><path d="m291.210938 334.507812v-6.828124h-219.109376c-19.355468.011718-37 6.15625-50.0625 16.4375-13.035156 10.234374-21.59375 24.96875-21.585937 41.503906v44.457031c0 1.800781.730469 3.558594 2 4.828125 1.273437 1.273438 3.03125 2 4.828125 2h341.332031c1.796875 0 3.554688-.726562 4.828125-2 1.269532-1.269531 2-3.027344 2-4.824219v-50.308593c.003906-14.917969-7.722656-28.191407-19.414062-37.367188-11.71875-9.226562-27.507813-14.714844-44.816406-14.722656v13.648437c14.394531-.007812 27.308593 4.636719 36.363281 11.792969 9.085937 7.207031 14.207031 16.570312 14.214843 26.648438v43.480468h-327.683593v-37.628906c.007812-11.695312 5.960937-22.519531 16.386719-30.785156 10.402343-8.21875 25.167968-13.515625 41.613281-13.507813h219.105469zm0 0" fill="#54596e"/><path d="m184.773438 382.292969h-13.652344c-15.082032 0-27.308594-12.226563-27.308594-27.304688v-68.269531h68.265625v68.269531c0 15.078125-12.226563 27.304688-27.304687 27.304688zm0 0" fill="#ffd578"/><path d="m184.773438 382.292969v-6.828125h-13.652344c-11.308594-.019532-20.460938-9.171875-20.480469-20.476563v-61.441406h54.613281v61.441406c-.019531 11.304688-9.175781 20.457031-20.480468 20.476563v13.65625c18.851562-.003906 34.128906-15.28125 34.132812-34.132813v-68.269531c0-1.796875-.726562-3.554688-2-4.828125-1.269531-1.269531-3.027344-1.996094-4.828125-1.996094h-68.265625c-1.796875 0-3.554688.726563-4.824219 1.996094-1.273437 1.273437-2 3.03125-2 4.828125v68.269531c.003907 18.851563 15.277344 34.125 34.132813 34.132813h13.652344zm0 0" fill="#54596e"/><path d="m7.28125 402.773438h34.132812c15.078126 0 27.304688 12.226562 27.304688 27.304687h-61.4375zm0 0" fill="#ffd578"/><path d="m7.28125 402.773438v6.828124h34.132812c11.304688.019532 20.457032 9.171876 20.480469 20.476563h6.824219v-6.824219h-54.613281v-20.480468h-6.824219v6.828124-6.828124h-6.828125v27.304687c0 1.800781.730469 3.558594 2 4.828125 1.273437 1.273438 3.03125 2 4.828125 2h61.4375c1.796875 0 3.554688-.726562 4.828125-2 1.269531-1.269531 2-3.027344 2-4.828125-.003906-18.851563-15.28125-34.128906-34.132813-34.132813h-34.132812c-1.796875 0-3.558594.726563-4.828125 2-1.269531 1.269532-2 3.03125-2 4.828126zm0 0" fill="#54596e"/><path d="m348.613281 402.773438h-34.132812c-15.082031 0-27.308594 12.226562-27.308594 27.304687h61.441406zm0 0" fill="#ffd578"/><path d="m348.613281 402.773438v-6.828126h-34.132812c-18.855469.003907-34.128907 15.28125-34.132813 34.132813 0 1.800781.726563 3.558594 2 4.828125 1.269532 1.273438 3.027344 2 4.824219 2h61.441406c1.796875 0 3.554688-.726562 4.828125-2 1.269532-1.269531 2-3.027344 2-4.828125v-27.304687c0-1.800782-.730468-3.558594-2-4.828126-1.269531-1.269531-3.03125-2-4.828125-2v6.828126h-6.828125v20.480468h-54.613281v6.824219h6.828125c.019531-11.304687 9.171875-20.457031 20.480469-20.476563h34.132812v-6.828124h-6.828125zm0 0" fill="#54596e"/><path d="m328.132812 191.148438c0 15.078124-12.226562 27.304687-27.304687 27.304687-15.082031 0-27.308594-12.226563-27.308594-27.304687 0-15.082032 12.226563-27.308594 27.308594-27.308594 15.078125 0 27.304687 12.226562 27.304687 27.308594zm0 0" fill="#ffd578"/><path d="m328.132812 191.148438h6.828126c-.007813-18.855469-15.28125-34.132813-34.132813-34.136719-18.855469.003906-34.128906 15.28125-34.136719 34.136719.007813 18.851562 15.28125 34.125 34.136719 34.132812 18.851563-.003906 34.125-15.28125 34.132813-34.132812h-13.652344c-.023438 11.304687-9.175782 20.457031-20.480469 20.476562-11.308594-.019531-20.460937-9.171875-20.480469-20.476562.019532-11.308594 9.171875-20.460938 20.480469-20.480469 11.304687.019531 20.457031 9.171875 20.480469 20.480469zm0 0" fill="#54596e"/><path d="m218.820312 48.507812c-.902343 22.285157-43.269531 40.238282-95.488281 40.238282-13.023437 0-25.425781-1.125-36.738281-3.148438-15.421875 19.707032-24.699219 44.453125-24.699219 71.414063v61.441406c0 64.09375 51.957031 116.054687 116.050781 116.054687s116.054688-51.960937 116.054688-116.054687v-61.441406c0-49.683594-31.28125-91.957031-75.179688-108.503907zm0 0" fill="#ffd578"/><g fill="#54596e"><path d="m218.820312 48.507812-6.820312-.277343c-.136719 3.367187-1.828125 7.054687-5.917969 11.089843-6.066406 6.011719-17.273437 11.914063-31.707031 16.007813-14.429688 4.132813-32.050781 6.59375-51.042969 6.59375-12.628906 0-24.644531-1.097656-35.539062-3.042969-2.484375-.445312-5.015625.523438-6.574219 2.511719-16.316406 20.832031-26.15625 47.082031-26.152344 75.621094v61.441406c.003906 67.867187 55.011719 122.875 122.878906 122.878906 67.867188-.003906 122.875-55.011719 122.882813-122.878906v-61.441406c-.011719-52.617188-33.128906-97.382813-79.601563-114.894531-2.046874-.769532-4.347656-.511719-6.175781.699218-1.828125 1.207032-2.964843 3.226563-3.050781 5.414063l6.820312.277343-2.410156 6.386719c41.324219 15.589844 70.773438 55.363281 70.761719 102.117188v61.441406c0 30.183594-12.214844 57.445313-31.988281 77.234375-19.789063 19.777344-47.054688 31.988281-77.238282 31.992188-30.179687-.003907-57.445312-12.214844-77.234374-31.992188-19.777344-19.789062-31.988282-47.050781-31.992188-77.234375v-61.441406c.003906-25.386719 8.71875-48.628907 23.25-67.203125l-5.375-4.207032-1.203125 6.71875c11.734375 2.09375 24.523437 3.253907 37.941406 3.253907 26.902344-.015625 51.289063-4.574219 69.640625-12.300781 9.179688-3.886719 16.890625-8.554688 22.667969-14.203126 5.742187-5.597656 9.683594-12.511718 10-20.285156l-6.820313-.277344-2.410156 6.386719zm0 0"/><path d="m140.757812 265.519531 13.648438 6.824219c.964844.484375 1.972656.722656 3.054688.722656h40.964843c1.078125 0 2.089844-.238281 3.054688-.722656l13.652343-6.824219c3.371094-1.6875 4.738282-5.789062 3.054688-9.160156-1.6875-3.375-5.789062-4.742187-9.160156-3.054687l-12.214844 6.109374h-37.742188l-12.203124-6.105468c-3.371094-1.6875-7.472657-.320313-9.160157 3.050781s-.320312 7.472656 3.050781 9.160156zm0 0"/><path d="m130.160156 194.558594c0 5.65625-4.585937 10.242187-10.238281 10.242187-5.65625 0-10.242187-4.585937-10.242187-10.242187 0-5.652344 4.585937-10.238282 10.242187-10.238282 5.652344 0 10.238281 4.585938 10.238281 10.238282zm0 0"/><path d="m246.214844 194.558594c0 5.65625-4.585938 10.242187-10.242188 10.242187s-10.238281-4.585937-10.238281-10.242187c0-5.652344 4.582031-10.238282 10.238281-10.238282s10.242188 4.585938 10.242188 10.238282zm0 0"/></g><path d="m314.480469 61.441406c0-30.164062-24.449219-54.613281-54.613281-54.613281-16.332032 0-30.953126 7.207031-40.960938 18.570313-10.003906-11.363282-24.625-18.570313-40.960938-18.570313-18.300781 0-34.460937 9.035156-44.371093 22.855469-9.910157-13.820313-26.070313-22.855469-44.375-22.855469-30.164063 0-54.613281 24.449219-54.613281 54.613281 0 20.203125 11 37.796875 27.308593 47.246094v55.152344h232.105469v-59.804688c12.472656-10.007812 20.480469-25.359375 20.480469-42.59375zm0 0" fill="#d8d8d8"/><path d="m314.480469 61.441406h6.828125c-.003906-33.9375-27.507813-61.43749975-61.441406-61.441406-18.371094-.00390625-34.863282 8.128906-46.082032 20.886719l5.121094 4.511719 5.125-4.511719c-11.222656-12.757813-27.714844-20.89062525-46.085938-20.886719-20.585937 0-38.804687 10.183594-49.921874 25.707031l5.550781 3.976563 5.546875-3.976563c-11.113282-15.523437-29.332032-25.707031-49.921875-25.707031-33.933594.00390625-61.4375 27.503906-61.4375 61.441406 0 22.726563 12.386719 42.550782 30.710937 53.152344l3.421875-5.90625h-6.828125v55.152344c0 1.796875.730469 3.554687 2 4.828125 1.273438 1.269531 3.03125 2 4.828125 2h232.105469c1.796875 0 3.554688-.726563 4.828125-2 1.269531-1.269531 2-3.027344 2-4.828125v-59.804688h-6.828125l4.273438 5.328125c14.011718-11.234375 23.035156-28.542969 23.035156-47.921875h-13.65625c0 15.089844-6.988282 28.480469-17.925782 37.269532-1.617187 1.296874-2.554687 3.253906-2.554687 5.324218v52.976563h-218.453125v-48.324219c0-2.4375-1.292969-4.683594-3.402344-5.90625-14.292968-8.292969-23.90625-23.664062-23.902344-41.339844.003907-13.222656 5.335938-25.125 13.996094-33.792968 8.667969-8.65625 20.570313-13.992188 33.789063-13.996094 16.019531.003906 30.121093 7.890625 38.824219 20.011718 1.277343 1.777344 3.359374 2.847657 5.550781 2.847657 2.191406 0 4.269531-1.070313 5.546875-2.847657 8.703125-12.121093 22.808594-20.007812 38.824218-20.011718 14.300782.003906 27.046876 6.289062 35.839844 16.257812 1.285156 1.464844 3.171875 2.316406 5.121094 2.316406s3.835938-.851562 5.125-2.316406c8.789062-9.972656 21.535156-16.253906 35.835938-16.257812 13.21875.003906 25.121093 5.339844 33.789062 13.996094 8.660156 8.667968 13.992188 20.574218 13.996094 33.792968zm0 0" fill="#54596e"/><path d="m123.332031 68.265625v61.441406c0 3.769531 3.058594 6.828125 6.828125 6.828125 3.769532 0 6.828125-3.058594 6.828125-6.828125v-61.441406c0-3.769531-3.058593-6.824219-6.828125-6.824219-3.769531 0-6.828125 3.054688-6.828125 6.824219" fill="#999"/><path d="m212.078125 68.265625v61.441406c0 3.769531 3.058594 6.828125 6.828125 6.828125s6.828125-3.058594 6.828125-6.828125v-61.441406c0-3.769531-3.058594-6.824219-6.828125-6.824219s-6.828125 3.054688-6.828125 6.824219" fill="#999"/></svg>