<svg height="436pt" viewBox="-27 0 436 436.98347" width="436pt" xmlns="http://www.w3.org/2000/svg"><path d="m143.851562 286.71875h68.265626v81.921875h-68.265626zm0 0" fill="#ffd578"/><path d="m212.117188 368.640625v-6.828125h-61.441407v-68.265625h54.613281v75.09375h6.828126v-6.828125 6.828125h6.828124v-81.921875c0-1.796875-.730468-3.554688-2.003906-4.828125-1.269531-1.269531-3.027344-1.996094-4.824218-1.996094h-68.265626c-1.796874 0-3.558593.726563-4.828124 1.996094-1.269532 1.273437-2 3.03125-2 4.828125v81.921875c0 1.796875.730468 3.554687 2 4.824219 1.273437 1.273437 3.03125 2 4.828124 2h68.265626c1.796874 0 3.554687-.726563 4.824218-2 1.273438-1.269532 2.003906-3.027344 2.003906-4.824219zm0 0" fill="#54596e"/><path d="m295.839844 320.851562h-43.039063l-74.820312 54.613282-74.816407-54.613282h-36.210937c-32.9375 0-59.632813 22.886719-59.632813 51.117188v58.109375h341.332032v-63.957031c-.003906-25-23.644532-45.269532-52.8125-45.269532zm0 0" fill="#fff"/><path d="m295.839844 320.851562v-6.824218h-43.039063c-1.460937 0-2.847656.453125-4.023437 1.3125l-70.796875 51.671875-70.792969-51.671875c-1.175781-.859375-2.566406-1.3125-4.023438-1.3125h-36.210937c-18.050781.003906-34.515625 6.257812-46.609375 16.613281-12.085938 10.324219-19.859375 25.007813-19.851562 41.328125v58.109375c0 1.800781.726562 3.558594 2 4.828125 1.269531 1.273438 3.027343 2 4.828124 2h341.332032c1.796875 0 3.554687-.726562 4.824218-2 1.273438-1.269531 2-3.027344 2-4.828125v-63.957031c.011719-14.707032-7-27.925782-17.851562-37.195313-10.859375-9.300781-25.617188-14.894531-41.785156-14.898437v13.652344c13-.003907 24.648437 4.535156 32.898437 11.617187 8.265625 7.113281 13.078125 16.527344 13.085938 26.824219v57.132812h-327.679688v-51.28125c.007813-11.910156 5.582031-22.789062 15.082031-30.964844 9.488282-8.140624 22.84375-13.332031 37.726563-13.328124h33.984375l73.019531 53.300781c2.394531 1.75 5.652344 1.75 8.050781 0l73.019532-53.300781h40.816406v-6.828126zm0 0" fill="#54596e"/><path d="m143.851562 368.640625-34.136718 13.652344-6.824219-68.265625h40.960937zm0 0" fill="#fff"/><path d="m143.851562 368.640625-2.539062-6.339844-25.707031 10.285157-5.171875-51.734376h26.589844v47.789063h6.828124l-2.539062-6.339844 2.539062 6.339844h6.824219v-54.613281c0-1.800782-.726562-3.558594-2-4.828125-1.269531-1.273438-3.027343-2-4.824219-2h-40.960937c-1.925781 0-3.769531.816406-5.0625 2.246093-1.292969 1.425782-1.921875 3.34375-1.730469 5.261719l6.828125 68.265625c.210938 2.132813 1.417969 4.042969 3.25 5.15625 1.832031 1.113282 4.085938 1.296875 6.074219.5l34.132812-13.652344c2.582032-1.03125 4.292969-3.554687 4.292969-6.339843h-6.824219zm0 0" fill="#54596e"/><path d="m212.117188 368.640625 34.132812 13.652344 6.828125-68.265625h-40.960937zm0 0" fill="#fff"/><g fill="#54596e"><path d="m212.117188 368.640625-2.535157 6.339844 34.132813 13.652343c1.988281.792969 4.242187.609376 6.074218-.503906 1.832032-1.109375 3.039063-3.019531 3.25-5.15625l6.828126-68.265625c.191406-1.914062-.4375-3.832031-1.730469-5.257812-1.292969-1.429688-3.136719-2.246094-5.0625-2.246094h-40.960938c-1.796875 0-3.554687.726563-4.824219 1.996094-1.273437 1.273437-2 3.03125-2 4.828125v54.613281c0 2.78125 1.707032 5.304687 4.289063 6.339844l2.539063-6.339844h6.828124v-47.789063h26.589844l-5.175781 51.734376-25.707031-10.285157-2.535156 6.339844h6.828124zm0 0"/><path d="m157.496094 430.15625h40.960937l-9.101562-54.691406h-22.753907zm0 0"/><path d="m157.496094 430.15625v6.828125h40.960937c2 0 3.914063-.886719 5.207031-2.414063 1.292969-1.527343 1.855469-3.5625 1.527344-5.535156l-9.101562-54.691406c-.546875-3.292969-3.394532-5.703125-6.734375-5.703125h-22.753907c-3.339843 0-6.1875 2.410156-6.734374 5.703125l-9.105469 54.691406c-.328125 1.972656.234375 4.007813 1.527343 5.535156 1.292969 1.527344 3.207032 2.414063 5.207032 2.414063v-6.828125l6.734375 1.121094 8.152343-48.984375h11.1875l6.828126 41.039062h-32.902344v6.824219l6.734375 1.121094zm0 0"/><path d="m68.757812 402.773438v20.480468c0 3.769532 3.054688 6.824219 6.824219 6.824219s6.828125-3.054687 6.828125-6.824219v-20.480468c0-3.769532-3.058594-6.828126-6.828125-6.828126s-6.824219 3.054688-6.824219 6.828126"/><path d="m273.558594 402.773438v20.480468c0 3.769532 3.054687 6.824219 6.824218 6.824219 3.769532 0 6.828126-3.054687 6.828126-6.824219v-20.480468c0-3.769532-3.058594-6.828126-6.828126-6.828126-3.769531 0-6.824218 3.054688-6.824218 6.828126"/></g><path d="m296.554688 34.132812h-74.738282v-1.652343c0-14.171875-12.085937-25.652344-27-25.652344h-81.453125c-14.914062 0-27 11.484375-27 25.652344v1.652343h-26.949219c-9.917968 0-17.960937 7.640626-17.960937 17.066407v157.015625c0 9.425781 8.042969 17.066406 17.960937 17.066406h237.140626c9.917968 0 17.960937-7.640625 17.960937-17.066406v-157.015625c0-9.425781-8.042969-17.066407-17.960937-17.066407zm0 0" fill="#999"/><path d="m296.554688 34.132812v-6.824218h-74.738282v6.824218h6.828125v-1.652343c.007813-9.054688-3.894531-17.277344-10.03125-23.089844-6.136719-5.832031-14.574219-9.390625-23.796875-9.390625h-81.453125c-9.21875 0-17.660156 3.558594-23.792969 9.390625-6.140624 5.8125-10.039062 14.035156-10.03125 23.089844v1.652343h6.824219v-6.824218h-26.949219c-6.722656 0-12.902343 2.59375-17.402343 6.871094-4.503907 4.261718-7.394531 10.335937-7.386719 17.019531v157.015625c-.007812 6.679687 2.882812 12.753906 7.386719 17.015625 4.5 4.277343 10.675781 6.875 17.402343 6.875h237.140626c6.722656 0 12.902343-2.597657 17.402343-6.875 4.503907-4.261719 7.390625-10.335938 7.386719-17.015625v-157.015625c.007812-6.683594-2.882812-12.757813-7.386719-17.019531-4.5-4.277344-10.679687-6.875-17.402343-6.871094v13.652344c3.195312 0 6 1.222656 8 3.121093 1.996093 1.917969 3.128906 4.375 3.136718 7.117188v157.015625c-.007812 2.742187-1.140625 5.199218-3.136718 7.117187-2 1.898438-4.804688 3.121094-8 3.121094h-237.140626c-3.195312 0-6-1.222656-8-3.121094-1.996093-1.917969-3.128906-4.375-3.136718-7.117187v-157.015625c.007812-2.742188 1.140625-5.203125 3.136718-7.117188 2-1.898437 4.804688-3.121093 8-3.121093h26.949219c1.796875 0 3.554688-.726563 4.828125-2 1.269532-1.269532 2-3.027344 2-4.824219v-1.65625c.007813-5.117188 2.148438-9.722657 5.785156-13.191407 3.632813-3.449218 8.695313-5.632812 14.390626-5.632812h81.453124c5.691407 0 10.753907 2.183594 14.390626 5.632812 3.632812 3.472657 5.777343 8.074219 5.785156 13.191407v1.65625c0 1.796875.726562 3.554687 2 4.824219 1.269531 1.273437 3.027344 2 4.824218 2h74.738282v-6.828126zm0 0" fill="#54596e"/><path d="m177.984375 334.507812c64.09375 0 116.050781-51.960937 116.050781-116.054687v-123.398437c0-11.023438-8.933594-19.960938-19.960937-19.960938h-192.179688c-11.027343 0-19.964843 8.9375-19.964843 19.960938v123.398437c0 64.09375 51.960937 116.054687 116.054687 116.054687zm0 0" fill="#ffd578"/><path d="m177.984375 334.507812v6.824219c67.863281-.003906 122.875-55.011719 122.878906-122.878906v-123.398437c-.003906-14.796876-11.992187-26.785157-26.789062-26.789063h-192.179688c-14.800781.003906-26.789062 11.992187-26.792969 26.789063v123.398437c.007813 67.867187 55.015626 122.875 122.882813 122.878906v-13.652343c-30.183594-.003907-57.449219-12.214844-77.234375-31.992188-19.777344-19.789062-31.988281-47.050781-31.992188-77.234375v-123.398437c.011719-7.253907 5.882813-13.121094 13.136719-13.136719h192.175781c7.257813.015625 13.125 5.882812 13.136719 13.136719v123.398437c-.003906 30.183594-12.214843 57.445313-31.988281 77.234375-19.789062 19.777344-47.050781 31.988281-77.234375 31.992188zm0 0" fill="#54596e"/><path d="m143.851562 174.078125c0 5.65625-4.585937 10.242187-10.242187 10.242187s-10.238281-4.585937-10.238281-10.242187c0-5.652344 4.582031-10.238281 10.238281-10.238281s10.242187 4.585937 10.242187 10.238281zm0 0" fill="#54596e"/><path d="m232.597656 174.078125c0 5.65625-4.585937 10.242187-10.242187 10.242187-5.652344 0-10.238281-4.585937-10.238281-10.242187 0-5.652344 4.585937-10.238281 10.238281-10.238281 5.65625 0 10.242187 4.585937 10.242187 10.238281zm0 0" fill="#54596e"/><path d="m266.730469 61.441406v19.296875c0 15.734375-12.757813 28.488281-28.488281 28.488281h-86.382813c-15.730469 0-28.488281-12.757812-28.488281-28.488281v-19.296875" fill="#999"/><path d="m259.902344 61.441406v19.296875c-.019532 11.957031-9.703125 21.640625-21.660156 21.660157h-86.382813c-11.957031-.019532-21.640625-9.703126-21.660156-21.660157v-19.296875c0-3.769531-3.058594-6.828125-6.828125-6.828125-3.769532 0-6.824219 3.058594-6.824219 6.828125v19.296875c.003906 19.507813 15.808594 35.308594 35.3125 35.316407h86.382813c19.503906-.003907 35.308593-15.808594 35.316406-35.316407v-19.296875c0-3.769531-3.058594-6.828125-6.828125-6.828125s-6.828125 3.054688-6.828125 6.828125zm0 0" fill="#54596e"/><path d="m171.15625 174.078125c0 20.738281-16.808594 37.546875-37.546875 37.546875-20.734375 0-37.546875-16.808594-37.546875-37.546875 0-20.734375 16.8125-37.542969 37.546875-37.542969 20.738281 0 37.546875 16.808594 37.546875 37.542969zm0 0" fill="#f4a14e"/><path d="m171.15625 174.078125h6.828125c-.007813-24.507813-19.863281-44.367187-44.375-44.371094-24.507813.003907-44.367187 19.863281-44.371094 44.371094.003907 24.511719 19.863281 44.371094 44.371094 44.375 24.511719-.003906 44.367187-19.863281 44.375-44.375h-13.65625c0 8.507813-3.425781 16.144531-8.996094 21.722656-5.582031 5.570313-13.21875 8.996094-21.722656 9-8.503906-.003906-16.140625-3.429687-21.722656-9-5.570313-5.578125-8.992188-13.214843-8.996094-21.722656.003906-8.503906 3.429687-16.140625 8.996094-21.71875 5.582031-5.574219 13.21875-8.996094 21.722656-9 8.503906.003906 16.140625 3.429687 21.722656 9 5.570313 5.578125 8.996094 13.214844 8.996094 21.71875zm0 0" fill="#54596e"/><path d="m55.101562 184.320312v85.332032c.007813 24.511718 19.867188 44.371094 44.375 44.375 24.507813-.003906 44.367188-19.863282 44.375-44.375v-52.648438c0-3.769531-3.058593-6.828125-6.828124-6.828125-3.769532 0-6.828126 3.058594-6.828126 6.828125v52.648438c-.003906 8.503906-3.425781 16.144531-8.996093 21.722656-5.582031 5.570312-13.21875 8.996094-21.722657 9-8.503906-.003906-16.140624-3.429688-21.722656-9-5.570312-5.578125-8.992187-13.21875-8.996094-21.722656v-85.332032c0-3.769531-3.058593-6.828124-6.828124-6.828124-3.769532 0-6.828126 3.054687-6.828126 6.828124zm0 0" fill="#54596e"/><path d="m304.457031 305.867188-94.371093-21.960938c-7.34375-1.710938-11.910157-9.050781-10.199219-16.394531 1.707031-7.347657 9.046875-11.910157 16.390625-10.203125l94.367187 21.96875c7.34375 1.707031 11.914063 9.046875 10.207031 16.390625-1.710937 7.34375-9.050781 11.910156-16.394531 10.199219zm0 0" fill="#f4a14e"/><path d="m304.457031 305.867188 1.546875-6.648438-94.367187-21.960938c-3.152344-.71875-5.28125-3.558593-5.28125-6.636718l.179687-1.554688c.71875-3.164062 3.554688-5.289062 6.636719-5.292968l1.542969.179687h.019531l94.367187 21.96875c3.152344.71875 5.277344 3.554687 5.28125 6.636719l-.183593 1.566406c-.714844 3.144531-3.554688 5.269531-6.632813 5.273438l-1.570312-.183594-3.078125 13.304687c1.542969.355469 3.101562.53125 4.648437.53125 9.328125.003907 17.71875-6.382812 19.933594-15.835937.359375-1.550782.535156-3.113282.535156-4.65625 0-9.332032-6.390625-17.71875-15.839844-19.933594l-94.367187-21.964844.019531.003906c-1.570312-.371093-3.140625-.542968-4.675781-.542968-9.332031-.003906-17.722656 6.390625-19.933594 15.847656-.363281 1.542969-.535156 3.109375-.535156 4.652344-.003906 9.328125 6.382813 17.71875 15.835937 19.933594l94.371094 21.960937zm0 0" fill="#54596e"/><path d="m166.867188 272.578125 32.910156-13.164063h25.992187c3.769531 0 6.828125-3.058593 6.828125-6.828124 0-3.769532-3.058594-6.824219-6.828125-6.824219h-27.304687c-.863282 0-1.738282.164062-2.539063.488281l-34.132812 13.652344c-3.5 1.398437-5.203125 5.371094-3.804688 8.875 1.402344 3.496094 5.375 5.199218 8.878907 3.800781zm0 0" fill="#54596e"/><path d="m321.34375 266.238281h37.546875c9.425781 0 17.0625-7.640625 17.066406-17.066406-.003906-9.429687-7.640625-17.066406-17.066406-17.066406h-6.828125c-1.886719-.003907-3.410156-1.53125-3.414062-3.414063v-6.828125c.003906-1.882812 1.527343-3.410156 3.414062-3.410156h23.894531c3.769531 0 6.828125-3.058594 6.828125-6.828125s-3.058594-6.828125-6.828125-6.828125h-23.894531c-9.425781.003906-17.0625 7.640625-17.066406 17.066406v6.828125c.003906 9.429688 7.640625 17.0625 17.066406 17.066406h6.828125c1.886719.003907 3.410156 1.527344 3.414063 3.414063-.003907 1.882813-1.527344 3.410156-3.414063 3.414063h-37.546875c-3.769531 0-6.828125 3.054687-6.828125 6.824218 0 3.773438 3.058594 6.828125 6.828125 6.828125zm0 0" fill="#999"/></svg>