<svg height="436pt" viewBox="-54 0 436 436.90667" width="436pt" xmlns="http://www.w3.org/2000/svg"><path d="m286.820312 95.574219c-3.621093-59.441407-60.78125-88.746094-122.527343-88.746094-61.746094 0-118.90625 29.304687-122.527344 88.746094l-.351563 191.144531h245.757813z" fill="#fff35f"/><path d="m286.820312 95.574219 6.8125-.414063c-.960937-15.917968-5.566406-30.058594-12.988281-42.105468-11.136719-18.101563-28.425781-31.382813-48.707031-40.09375-20.304688-8.714844-43.679688-12.95703175-67.644531-12.960938-31.941407.0195312-62.882813 7.515625-86.808594 23.203125-11.949219 7.847656-22.128906 17.792969-29.542969 29.851563-7.421875 12.046874-12.027344 26.1875-12.988281 42.105468l-.011719.402344-.351562 191.144531c-.003906 1.824219.707031 3.546875 1.992187 4.835938 1.289063 1.289062 3.007813 2.003906 4.832031 2.003906h245.757813c1.824219 0 3.542969-.714844 4.832031-2.003906 1.289063-1.289063 2-3.011719 1.996094-4.835938l-.351562-191.144531-.011719-.402344-6.816407.414063-6.828124.011719.34375 184.308593h-232.082032l.339844-184.308593-6.828125-.011719 6.8125.414062c.851563-13.804687 4.746094-25.617187 10.992187-35.777343 9.359376-15.21875 24.183594-26.839844 42.46875-34.703126 18.265626-7.859374 39.90625-11.859374 62.253907-11.855468 29.804687-.019532 58.320312 7.136718 79.3125 20.964844 10.511719 6.90625 19.164062 15.4375 25.410156 25.589843 6.242187 10.164063 10.140625 21.976563 10.988281 35.78125l6.816406-.414062-6.828124.011719zm0 0" fill="#54596e"/><path d="m268.5 334.507812h-76.898438v-47.789062h-54.613281v47.789062h-70.074219c-32.933593 0-59.632812 22.886719-59.632812 51.113282v44.457031h314.027344v-50.304687c0-25-23.640625-45.265626-52.808594-45.265626zm0 0" fill="#ffd578"/><g fill="#54596e"><path d="m268.5 334.507812v-6.828124h-70.074219v-40.960938c0-1.796875-.726562-3.554688-1.996093-4.824219-1.269532-1.273437-3.03125-2-4.828126-2h-54.613281c-1.796875 0-3.558593.726563-4.828125 1.996094-1.273437 1.269531-2 3.03125-2 4.828125v40.960938h-63.246094c-18.054687.003906-34.515624 6.257812-46.609374 16.617187-12.085938 10.328125-19.859376 25.007813-19.851563 41.328125v44.453125c0 1.800781.730469 3.558594 2 4.828125 1.273437 1.273438 3.03125 2 4.828125 2h314.027344c1.796875 0 3.554687-.726562 4.824218-2 1.273438-1.269531 2-3.027344 2-4.828125v-50.304687c.007813-14.707032-7-27.925782-17.847656-37.191407-10.863281-9.300781-25.617187-14.898437-41.785156-14.902343v13.652343c13-.003906 24.648438 4.535157 32.898438 11.617188 8.261718 7.113281 13.074218 16.527343 13.082031 26.824219v43.480468h-300.375v-37.632812c.007812-11.910156 5.582031-22.785156 15.085937-30.960938 9.484375-8.140625 22.839844-13.332031 37.722656-13.328125h70.074219c1.796875 0 3.554688-.730469 4.824219-2 1.273438-1.269531 2-3.027343 2-4.824219v-40.960937h40.960938v40.960937c0 1.796876.730468 3.554688 2 4.824219 1.273437 1.273438 3.03125 2 4.828124 2h76.898438zm0 0"/><path d="m48.238281 402.773438v20.480468c0 3.769532 3.058594 6.824219 6.828125 6.824219 3.769532 0 6.828125-3.054687 6.828125-6.824219v-20.480468c0-3.769532-3.058593-6.828126-6.828125-6.828126-3.769531 0-6.828125 3.058594-6.828125 6.828126"/><path d="m266.691406 402.773438v20.480468c0 3.769532 3.058594 6.824219 6.828125 6.824219s6.828125-3.054687 6.828125-6.824219v-20.480468c0-3.769532-3.058594-6.828126-6.828125-6.828126s-6.828125 3.058594-6.828125 6.828126"/></g><path d="m294 170.667969c0-15.082031-12.226562-27.308594-27.308594-27.308594-15.078125 0-27.304687 12.226563-27.304687 27.308594 0 15.078125 12.226562 27.304687 27.304687 27.304687 15.082032 0 27.308594-12.226562 27.308594-27.304687" fill="#ffd578"/><path d="m294 170.667969h6.828125c-.007813-18.855469-15.28125-34.128907-34.136719-34.132813-18.851562.003906-34.125 15.277344-34.132812 34.132813.007812 18.851562 15.28125 34.125 34.132812 34.132812 18.855469-.007812 34.128906-15.28125 34.136719-34.132812h-13.65625c-.015625 11.304687-9.171875 20.457031-20.480469 20.480469-11.304687-.023438-20.457031-9.175782-20.476562-20.480469.019531-11.308594 9.171875-20.460938 20.476562-20.480469 11.308594.019531 20.460938 9.171875 20.480469 20.480469z" fill="#54596e"/><path d="m89.199219 170.667969c0-15.082031-12.226563-27.308594-27.304688-27.308594-15.082031 0-27.308593 12.226563-27.308593 27.308594 0 15.078125 12.226562 27.304687 27.308593 27.304687s27.304688-12.226562 27.304688-27.304687" fill="#ffd578"/><path d="m89.199219 170.667969h6.828125c-.003906-18.855469-15.28125-34.128907-34.132813-34.132813-18.855469.003906-34.128906 15.277344-34.132812 34.132813.003906 18.851562 15.277343 34.125 34.132812 34.132812 18.851563-.007812 34.128907-15.28125 34.132813-34.132812h-13.652344c-.023438 11.304687-9.175781 20.457031-20.480469 20.480469-11.308593-.023438-20.460937-9.175782-20.480469-20.480469.019532-11.308594 9.171876-20.460938 20.480469-20.480469 11.304688.019531 20.457031 9.171875 20.480469 20.480469z" fill="#54596e"/><path d="m164.292969 314.027344c-56.550781 0-102.398438-45.847656-102.398438-102.402344v-92.53125c0-16.761719 13.585938-30.347656 30.34375-30.347656l17.027344 4.839844c35.972656 10.222656 74.082031 10.222656 110.054687 0l17.027344-4.839844c16.757813 0 30.34375 13.585937 30.34375 30.347656v92.53125c0 56.554688-45.84375 102.402344-102.398437 102.402344" fill="#ffd578"/><path d="m164.292969 314.027344v-6.828125c-26.410157-.003907-50.261719-10.6875-67.582031-27.992188-17.304688-17.316406-27.988282-41.167969-27.992188-67.582031v-92.53125c.023438-12.988281 10.535156-23.496094 23.519531-23.519531v-6.828125l-1.867187 6.566406 17.027344 4.839844c18.597656 5.285156 37.746093 7.925781 56.894531 7.925781 19.148437 0 38.296875-2.640625 56.890625-7.925781l17.027344-4.839844-1.863282-6.566406v6.824218c12.988282.023438 23.496094 10.535157 23.519532 23.523438v92.53125c-.003907 26.414062-10.6875 50.265625-27.992188 67.582031-17.316406 17.304688-41.167969 27.988281-67.582031 27.992188v13.652343c60.324219-.003906 109.222656-48.898437 109.226562-109.226562v-92.53125c-.003906-20.53125-16.640625-37.167969-37.171875-37.171875-.640625 0-1.253906.082031-1.867187.257813l-17.027344 4.839843c-17.375 4.941407-35.265625 7.410157-53.160156 7.410157-17.890625 0-35.785157-2.472657-53.160157-7.410157l-17.027343-4.839843c-.613281-.175782-1.226563-.257813-1.867188-.257813-20.53125 0-37.167969 16.636719-37.171875 37.171875v92.53125c.003906 60.328125 48.902344 109.222656 109.226563 109.226562z" fill="#54596e"/><path d="m116.507812 160.425781c0-5.65625-4.589843-10.238281-10.242187-10.238281s-10.238281 4.582031-10.238281 10.238281 4.585937 10.242188 10.238281 10.242188 10.242187-4.585938 10.242187-10.242188" fill="#54596e"/><path d="m232.558594 160.425781c0-5.65625-4.585938-10.238281-10.238282-10.238281-5.65625 0-10.242187 4.582031-10.242187 10.238281s4.589844 10.242188 10.242187 10.242188c5.652344 0 10.238282-4.585938 10.238282-10.242188" fill="#54596e"/><path d="m102.851562 191.148438c0-7.542969-6.113281-13.65625-13.652343-13.65625-7.539063 0-13.652344 6.113281-13.652344 13.65625 0 7.539062 6.113281 13.652343 13.652344 13.652343 7.539062 0 13.652343-6.113281 13.652343-13.652343" fill="#ff927d"/><path d="m253.039062 191.148438c0-7.542969-6.113281-13.65625-13.652343-13.65625-7.539063 0-13.652344 6.113281-13.652344 13.65625 0 7.539062 6.113281 13.652343 13.652344 13.652343 7.539062 0 13.652343-6.113281 13.652343-13.652343" fill="#ff927d"/><path d="m89.199219 204.800781c-7.539063 0-13.652344-6.113281-13.652344-13.652343 0-7.542969 6.113281-13.65625 13.652344-13.65625 7.539062 0 13.652343 6.113281 13.652343 13.65625 0 7.539062-6.113281 13.652343-13.652343 13.652343m150.1875 0c-7.539063 0-13.652344-6.113281-13.652344-13.652343 0-7.542969 6.113281-13.65625 13.652344-13.65625 7.539062 0 13.652343 6.113281 13.652343 13.65625 0 7.539062-6.113281 13.652343-13.652343 13.652343m-133.117188-34.132812c-5.65625 0-10.242187-4.585938-10.242187-10.242188s4.589844-10.238281 10.242187-10.238281c5.652344 0 10.238281 4.582031 10.238281 10.238281s-4.589843 10.242188-10.238281 10.242188m116.050781 0c-5.65625 0-10.242187-4.585938-10.242187-10.242188s4.589844-10.238281 10.242187-10.238281c5.652344 0 10.238282 4.582031 10.238282 10.238281s-4.585938 10.242188-10.238282 10.242188m7.800782-47.789063h-131.652344c-12.261719 0-23.113281 6.65625-29.746094 16.867188v57.675781c6.023438 8.640625 15.492188 14.203125 26.136719 14.203125h42.210937c6.058594 0 10.96875-5.414062 10.96875-12.101562 0-6.683594 4.914063-12.101563 10.976563-12.101563h10.558594c6.058593 0 10.972656 5.417969 10.972656 12.101563 0 6.683593 10.601563 12.101562 16.660156 12.101562h36.519531c10.644532 0 20.113282-5.5625 26.140626-14.203125v-57.675781c-6.636719-10.210938-17.488282-16.867188-29.746094-16.867188" fill="#ccc7a1"/><path d="m259.867188 139.746094v57.675781c4.28125-6.132813 6.824218-13.816406 6.824218-22.15625v-12.046875c0-8.753906-2.527344-16.859375-6.824218-23.472656m-191.148438 0c-4.296875 6.613281-6.824219 14.71875-6.824219 23.472656v12.046875c0 8.339844 2.546875 16.023437 6.824219 22.15625z" fill="#54709a"/><path d="m106.269531 150.1875c-5.65625 0-10.242187 4.582031-10.242187 10.238281s4.589844 10.242188 10.242187 10.242188c5.652344 0 10.238281-4.585938 10.238281-10.242188s-4.589843-10.238281-10.238281-10.238281" fill="#54709a"/><path d="m222.320312 150.1875c-5.65625 0-10.242187 4.582031-10.242187 10.238281s4.589844 10.242188 10.242187 10.242188c5.652344 0 10.238282-4.585938 10.238282-10.242188s-4.585938-10.238281-10.238282-10.238281" fill="#54709a"/><path d="m89.199219 177.492188c-7.539063 0-13.652344 6.113281-13.652344 13.65625 0 7.539062 6.113281 13.652343 13.652344 13.652343 7.539062 0 13.652343-6.113281 13.652343-13.652343 0-7.542969-6.113281-13.65625-13.652343-13.65625" fill="#cc98a4"/><path d="m239.386719 177.492188c-7.539063 0-13.652344 6.113281-13.652344 13.65625 0 7.539062 6.113281 13.652343 13.652344 13.652343 7.539062 0 13.652343-6.113281 13.652343-13.652343 0-7.542969-6.113281-13.65625-13.652343-13.65625" fill="#cc98a4"/><path d="m61.894531 163.21875h-6.828125v12.046875c.003906 11.71875 4.304688 22.4375 11.425782 30.296875 7.09375 7.855469 17.191406 12.898438 28.367187 12.890625h42.207031c5.101563.011719 9.699219-2.320313 12.816406-5.785156 3.140626-3.464844 4.980469-8.121094 4.984376-13.144531-.003907-1.660157.613281-3.058594 1.441406-3.96875.855468-.914063 1.746094-1.296876 2.703125-1.304688h10.558593c.960938.007812 1.851563.386719 2.703126 1.304688.828124.914062 1.449218 2.308593 1.445312 3.96875 0 3.523437 1.402344 6.542968 3.117188 8.816406 2.625 3.429687 6.015624 5.703125 9.507812 7.390625 3.53125 1.640625 7.101562 2.683593 10.859375 2.722656h36.519531c11.175782.011719 21.273438-5.035156 28.367188-12.890625 7.121094-7.855469 11.421875-18.578125 11.425781-30.296875v-12.046875c-.003906-12.820312-4.707031-24.53125-12.480469-33.109375-7.75-8.574219-18.75-14.066406-30.921875-14.054687h-131.644531c-12.171875-.011719-23.171875 5.480468-30.921875 14.054687-7.773437 8.578125-12.476563 20.289063-12.480469 33.109375h13.652344c0-9.457031 3.480469-17.917969 8.945312-23.9375 5.484376-6.027344 12.773438-9.566406 20.804688-9.574219h131.652344c8.027344.007813 15.316406 3.546875 20.804687 9.574219 5.460938 6.023438 8.945313 14.480469 8.941407 23.9375v12.046875c.003906 8.359375-3.074219 15.824219-7.886719 21.125-4.832031 5.308594-11.21875 8.402344-18.25 8.410156h-36.519531c-.507813.011719-1.71875-.164062-3.011719-.605469-1.960938-.632812-4.160157-1.847656-5.449219-3.015624-.65625-.574219-1.074219-1.117188-1.246094-1.425782l-.128906-.285156-.179688.054688h.183594l-.003906-.054688-.179688.054688h.183594c-.003906-5.023438-1.84375-9.675782-4.984375-13.144532-3.117187-3.464844-7.714843-5.792968-12.816406-5.78125h-10.558594c-5.101562-.011718-9.699219 2.320313-12.820312 5.78125-3.140625 3.46875-4.980469 8.121094-4.980469 13.144532 0 1.664062-.617188 3.058593-1.445312 3.972656-.855469.914062-1.742188 1.296875-2.703126 1.304687h-42.207031c-7.03125-.007812-13.417969-3.101562-18.25-8.410156-4.8125-5.300781-7.890625-12.765625-7.886719-21.125v-12.046875zm0 0" fill="#54596e"/><path d="m188.1875 273.066406h-47.789062c-9.425782 0-17.066407-7.640625-17.066407-17.066406s7.640625-17.066406 17.066407-17.066406h47.789062c9.425781 0 17.066406 7.640625 17.066406 17.066406s-7.640625 17.066406-17.066406 17.066406zm0 0" fill="#55a6ff"/><path d="m188.1875 273.066406v-6.828125h-47.789062c-5.652344-.007812-10.226563-4.585937-10.238282-10.238281.011719-5.652344 4.585938-10.230469 10.238282-10.238281h47.789062c5.652344.007812 10.230469 4.585937 10.238281 10.238281-.007812 5.652344-4.585937 10.230469-10.238281 10.238281v13.65625c13.199219-.003906 23.890625-10.695312 23.890625-23.894531s-10.691406-23.890625-23.890625-23.894531h-47.789062c-13.199219.003906-23.886719 10.695312-23.890626 23.894531.003907 13.199219 10.691407 23.890625 23.890626 23.894531h47.789062zm0 0" fill="#54596e"/><path d="m177.945312 259.414062v13.652344c0 15.054688 12.25 27.308594 27.308594 27.308594h6.824219c15.0625 0 27.308594-12.253906 27.308594-27.308594v-204.800781h27.304687v204.800781c0 30.113282-24.496094 54.613282-54.613281 54.613282h-6.824219c-30.113281 0-54.613281-24.5-54.613281-54.613282v-13.652344" fill="#9af43b"/><path d="m171.121094 259.414062v13.652344c.011718 18.839844 15.289062 34.121094 34.132812 34.132813h6.824219c18.84375-.011719 34.125-15.292969 34.136719-34.132813v-197.972656h13.652344v197.972656c-.003907 13.1875-5.347657 25.09375-14.015626 33.773438-8.679687 8.667968-20.585937 14.011718-33.773437 14.011718h-6.824219c-13.1875 0-25.09375-5.34375-33.773437-14.011718-8.667969-8.679688-14.011719-20.585938-14.015625-33.773438v-13.652344c0-3.769531-3.054688-6.828124-6.824219-6.828124s-6.828125 3.058593-6.828125 6.828124v13.652344c.011719 33.894532 27.542969 61.425782 61.441406 61.441406h6.824219c33.898437-.015624 61.429687-27.546874 61.441406-61.441406v-204.800781c0-1.796875-.726562-3.554687-1.996093-4.824219-1.273438-1.273437-3.03125-2-4.832032-2h-27.304687c-1.796875 0-3.558594.726563-4.828125 1.996094-1.273438 1.269531-2 3.03125-2 4.828125v204.800781c-.003906 5.65625-2.28125 10.738282-6.007813 14.472656-3.734375 3.722657-8.8125 6.003907-14.472656 6.007813h-6.824219c-5.660156-.003906-10.742187-2.285156-14.476562-6.007813-3.71875-3.734374-6.003906-8.816406-6.003906-14.472656v-13.652344c0-3.769531-3.058594-6.828124-6.828126-6.828124-3.769531 0-6.824218 3.058593-6.824218 6.828124zm0 0" fill="#54596e"/><path d="m239.386719 6.828125h27.304687v61.4375h-27.304687zm0 0" fill="#ff927d"/><path d="m266.691406 6.828125v-6.828125h-27.304687c-1.796875 0-3.558594.730469-4.828125 2-1.273438 1.269531-2 3.03125-2 4.828125v61.4375c0 1.796875.730468 3.554687 2 4.828125 1.269531 1.269531 3.03125 2 4.828125 2h27.304687c1.800782 0 3.558594-.730469 4.828125-2 1.273438-1.273438 2-3.03125 2-4.828125v-61.4375c0-1.796875-.726562-3.554687-1.996093-4.828125-1.273438-1.269531-3.03125-2-4.832032-2v6.828125h-6.824218v54.613281h-13.652344v-47.789062h20.476562v-6.824219h-6.824218zm0 0" fill="#54596e"/></svg>