<svg height="436pt" viewBox="-54 0 436 436.90667" width="436pt" xmlns="http://www.w3.org/2000/svg"><path d="m268.5 334.507812h-201.585938c-32.933593 0-59.636718 22.886719-59.636718 51.113282v44.457031h314.027344v-50.304687c0-25-23.644532-45.265626-52.804688-45.265626zm0 0" fill="#fff"/><g fill="#54596e"><path d="m268.5 334.507812v-6.828124h-201.585938c-18.054687.003906-34.515624 6.257812-46.609374 16.613281-12.085938 10.328125-19.859376 25.007812-19.851563 41.328125v44.457031c0 1.800781.730469 3.558594 2 4.828125 1.269531 1.273438 3.027344 2 4.824219 2h314.027344c1.796874 0 3.554687-.726562 4.828124-2 1.269532-1.269531 2-3.027344 2-4.824219v-50.308593c.007813-14.703126-7.003906-27.921876-17.851562-37.191407-10.863281-9.300781-25.617188-14.898437-41.78125-14.898437v13.648437c12.992188-.003906 24.640625 4.535157 32.894531 11.617188 8.265625 7.117187 13.078125 16.53125 13.085938 26.824219v43.480468h-300.375v-37.628906c.007812-11.910156 5.582031-22.789062 15.082031-30.960938 9.488281-8.144531 22.84375-13.335937 37.726562-13.332031h201.585938zm0 0"/><path d="m48.238281 402.773438v20.480468c0 3.769532 3.058594 6.824219 6.828125 6.824219 3.769532 0 6.824219-3.054687 6.824219-6.824219v-20.480468c0-3.769532-3.054687-6.828126-6.824219-6.828126-3.769531 0-6.828125 3.058594-6.828125 6.828126"/><path d="m266.691406 402.773438v20.480468c0 3.769532 3.058594 6.824219 6.828125 6.824219s6.824219-3.054687 6.824219-6.824219v-20.480468c0-3.769532-3.054688-6.828126-6.824219-6.828126s-6.828125 3.058594-6.828125 6.828126"/></g><path d="m164.292969 382.292969c-15.082031 0-27.308594-12.226563-27.308594-27.304688v-68.269531h54.613281v68.269531c0 15.078125-12.226562 27.304688-27.304687 27.304688zm0 0" fill="#ffd578"/><path d="m164.292969 382.292969v-6.828125c-11.308594-.019532-20.460938-9.171875-20.480469-20.476563v-61.441406h40.960938v61.441406c-.023438 11.304688-9.175782 20.457031-20.480469 20.476563v13.65625c18.851562-.003906 34.125-15.28125 34.132812-34.132813v-68.269531c0-1.796875-.730469-3.554688-2-4.828125-1.269531-1.269531-3.03125-1.996094-4.828125-1.996094h-54.613281c-1.796875 0-3.554687.726563-4.828125 1.996094-1.269531 1.273437-1.996094 3.03125-1.996094 4.828125v68.269531c.003906 18.851563 15.277344 34.125 34.132813 34.132813zm0 0" fill="#54596e"/><path d="m264.609375 114.800781c-3.363281-44.882812-42.886719-67.015625-100.316406-67.015625-57.433594 0-96.953125 22.132813-100.320313 67.015625l-29.191406 148.78125c-2.050781 19.617188 12.230469 36.792969 30.597656 36.792969h197.824219c18.367187 0 32.648437-17.175781 30.601563-36.796875zm0 0" fill="#bfad88"/><path d="m264.609375 114.800781 6.808594-.511719c-.90625-12.167968-4.320313-23.078124-9.984375-32.429687-8.496094-14.058594-21.917969-24.375-38.496094-31.035156-16.609375-6.679688-36.453125-9.859375-58.644531-9.863281-29.574219.019531-55.042969 5.628906-74.105469 17.742187-9.511719 6.058594-17.378906 13.796875-23.039062 23.15625-5.664063 9.347656-9.078126 20.261719-9.984376 32.429687l6.808594.511719-6.699218-1.316406-29.191407 148.777344-.089843.605469c-.160157 1.492187-.234376 2.980468-.234376 4.453124.003907 10.734376 4.046876 20.632813 10.765626 27.910157 6.691406 7.277343 16.238281 11.976562 26.859374 11.964843h197.824219c10.621094.011719 20.164063-4.6875 26.859375-11.964843 6.71875-7.277344 10.761719-17.175781 10.765625-27.910157 0-1.472656-.078125-2.957031-.230469-4.449218l-.09375-.609375-29.191406-148.78125-6.707031 1.320312 6.808594-.511719-6.808594.511719-6.695313 1.3125 29.191407 148.78125 6.699219-1.3125-6.792969.707031c.105469 1.023438.160156 2.039063.160156 3.039063.003906 7.273437-2.757813 13.898437-7.140625 18.644531-4.40625 4.746094-10.257812 7.566406-16.828125 7.574219h-197.824219c-6.570312-.007813-12.421875-2.828125-16.828125-7.574219-4.382812-4.746094-7.144531-11.375-7.140625-18.648437 0-.996094.050782-2.007813.160156-3.035157l-6.789062-.710937 6.695312 1.316406 29.195313-148.78125.109375-.804687c.773438-10.273438 3.5625-18.957032 8.050781-26.382813 6.730469-11.101562 17.421875-19.585937 31.917969-25.441406 14.46875-5.832031 32.660156-8.878906 53.542969-8.871094 27.859375-.019531 50.871093 5.433594 66.765625 15.605469 7.96875 5.082031 14.199218 11.292969 18.695312 18.707031 4.484375 7.425781 7.273438 16.109375 8.054688 26.382813l.105468.804687zm0 0" fill="#54596e"/><path d="m164.292969 334.507812c-56.554688 0-102.402344-66.328124-102.402344-122.882812v-102.398438h204.800781v102.398438c0 56.554688-45.847656 122.882812-102.398437 122.882812zm0 0" fill="#ffd578"/><path d="m164.292969 334.507812v-6.828124c-12.792969-.003907-25.054688-3.734376-36.4375-10.328126-17.058594-9.867187-31.980469-26.269531-42.503907-45.296874-10.542968-19.015626-16.648437-40.605469-16.632812-60.429688v-95.574219h191.144531v95.574219c.046875 26.4375-10.898437 55.984375-28.539062 78.4375-8.800781 11.238281-19.226563 20.703125-30.597657 27.289062-11.382812 6.59375-23.644531 10.324219-36.433593 10.328126v13.652343c15.488281.003907 30.164062-4.554687 43.28125-12.164062 19.695312-11.441407 36.042969-29.648438 47.605469-50.5 11.535156-20.875 18.320312-44.449219 18.339843-67.042969v-102.398438c0-1.796874-.730469-3.554687-2-4.828124-1.269531-1.269532-3.03125-2-4.828125-2h-204.800781c-1.796875 0-3.554687.730468-4.828125 2-1.269531 1.273437-1.996094 3.03125-1.996094 4.828124v102.398438c.042969 30.117188 12.023438 62.011719 31.445313 86.859375 9.726562 12.414063 21.363281 23.0625 34.496093 30.679687 13.121094 7.613282 27.796876 12.171876 43.285157 12.167969zm0 0" fill="#54596e"/><path d="m116.503906 187.734375c0 5.65625-4.582031 10.238281-10.238281 10.238281s-10.242187-4.582031-10.242187-10.238281 4.585937-10.242187 10.242187-10.242187 10.238281 4.585937 10.238281 10.242187zm0 0" fill="#54596e"/><path d="m232.558594 187.734375c0 5.65625-4.585938 10.238281-10.242188 10.238281-5.652344 0-10.238281-4.582031-10.238281-10.238281s4.585937-10.242187 10.238281-10.242187c5.65625 0 10.242188 4.585937 10.242188 10.242187zm0 0" fill="#54596e"/><path d="m157.464844 259.414062h13.652344c7.542968 0 13.65625-6.113281 13.65625-13.652343 0-7.542969-6.113282-13.65625-13.65625-13.65625h-13.652344c-7.539063 0-13.652344 6.113281-13.652344 13.65625 0 7.539062 6.113281 13.652343 13.652344 13.652343" fill="#ff927d"/><path d="m136.984375 245.761719h54.613281c3.769532 0 6.828125-3.058594 6.828125-6.828125 0-3.769532-3.058593-6.828125-6.828125-6.828125h-54.613281c-3.769531 0-6.824219 3.058593-6.824219 6.828125 0 3.769531 3.054688 6.828125 6.824219 6.828125" fill="#ff927d"/><path d="m171.117188 430.078125v-47.785156c0-3.769531-3.054688-6.828125-6.824219-6.828125s-6.828125 3.058594-6.828125 6.828125v47.785156c0 3.773437 3.058594 6.828125 6.828125 6.828125s6.824219-3.054688 6.824219-6.828125" fill="#54596e"/><path d="m136.984375 389.121094-34.132813 13.652344-6.828124-68.265626h40.960937zm0 0" fill="#fff"/><path d="m136.984375 389.121094-2.535156-6.339844-25.707031 10.28125-5.171876-51.730469h26.589844v47.789063h6.824219l-2.535156-6.339844 2.535156 6.339844h6.828125v-54.613282c0-1.800781-.730469-3.558593-2-4.828124-1.269531-1.273438-3.03125-2-4.828125-2h-40.960937c-1.925782 0-3.769532.816406-5.058594 2.246093-1.292969 1.425781-1.925782 3.34375-1.730469 5.261719l6.824219 68.265625c.214844 2.132813 1.417968 4.042969 3.25 5.15625 1.835937 1.113281 4.085937 1.296875 6.078125.5l34.132812-13.652344c2.582031-1.03125 4.292969-3.554687 4.292969-6.335937zm0 0" fill="#54596e"/><path d="m191.597656 389.121094 34.132813 13.652344 6.828125-68.265626h-40.960938zm0 0" fill="#fff"/><path d="m191.597656 389.121094-2.535156 6.335937 34.132812 13.65625c1.988282.792969 4.242188.609375 6.074219-.503906 1.835938-1.109375 3.039063-3.023437 3.253907-5.15625l6.824218-68.265625c.191406-1.917969-.4375-3.832031-1.730468-5.261719-1.289063-1.429687-3.132813-2.246093-5.058594-2.246093h-40.960938c-1.796875 0-3.554687.726562-4.828125 2-1.269531 1.269531-1.996093 3.027343-1.996093 4.828124v54.613282c0 2.78125 1.707031 5.304687 4.289062 6.335937l2.535156-6.335937h6.828125v-47.789063h26.589844l-5.171875 51.730469-25.710938-10.28125-2.535156 6.339844h6.828125zm0 0" fill="#54596e"/><path d="m200.226562 6.828125h-71.867187c-36.707031 0-66.46875 29.757813-66.46875 66.460937v56.417969h204.800781v-56.417969c0-36.703124-29.757812-66.460937-66.464844-66.460937zm0 0" fill="#fff"/><path d="m200.226562 6.828125v-6.828125h-71.867187c-40.480469.00390625-73.289063 32.808594-73.292969 73.289062v56.417969c0 1.796875.726563 3.554688 2 4.824219 1.269532 1.273438 3.027344 2.003906 4.824219 2.003906h204.800781c1.796875 0 3.554688-.730468 4.828125-2 1.269531-1.273437 2-3.03125 2-4.828125v-56.417969c-.007812-40.480468-32.816406-73.28515575-73.292969-73.289062v13.652344c16.488282.003906 31.355469 6.664062 42.171876 17.46875 10.800781 10.8125 17.464843 25.679687 17.46875 42.171875v49.585937h-191.148438v-49.585937c.003906-16.492188 6.664062-31.359375 17.46875-42.171875 10.816406-10.804688 25.683594-17.460938 42.171875-17.46875h71.867187zm0 0" fill="#54596e"/><path d="m198.425781 54.613281h-20.480469v-20.480469h-27.308593v20.480469h-20.476563v27.308594h20.476563v20.476563h27.308593v-20.476563h20.480469zm0 0" fill="#ff927d"/><path d="m198.425781 54.613281v-6.828125h-13.652343v-13.652344c0-1.796874-.730469-3.554687-2-4.828124-1.273438-1.269532-3.03125-1.996094-4.828126-1.996094h-27.308593c-1.796875 0-3.554688.726562-4.828125 1.996094-1.269532 1.273437-1.996094 3.03125-1.996094 4.828124v13.652344h-13.652344c-1.800781 0-3.558594.730469-4.828125 2-1.273437 1.269532-2 3.03125-2 4.828125v27.308594c0 1.796875.726563 3.554687 2 4.824219 1.269531 1.273437 3.027344 2 4.828125 2h13.652344v13.652344c0 1.796874.726562 3.554687 1.996094 4.828124 1.273437 1.269532 3.03125 2 4.828125 2h27.308593c1.796876 0 3.554688-.730468 4.824219-2 1.273438-1.273437 2.003907-3.03125 2.003907-4.828124v-13.652344h13.652343c1.796875 0 3.554688-.726563 4.824219-2 1.273438-1.269532 2-3.027344 2-4.824219v-27.308594c0-1.796875-.726562-3.558593-2-4.828125-1.269531-1.269531-3.027344-2-4.824219-2v6.828125h-6.828125v20.480469h-13.652344c-1.796874 0-3.558593.726562-4.828124 2-1.269532 1.269531-2 3.027344-2 4.828125v13.652344h-13.652344v-13.652344c0-1.800781-.730469-3.558594-2-4.828125-1.269532-1.273438-3.03125-2-4.828125-2h-13.652344v-13.65625h13.652344c1.796875 0 3.554687-.726562 4.828125-1.996094 1.269531-1.273437 2-3.03125 2-4.828125v-13.652343h13.652344v13.652343c0 1.796875.730468 3.554688 2 4.828125 1.273437 1.269532 3.03125 2 4.828124 2h20.480469v-6.828125h-6.828125zm0 0" fill="#54596e"/></svg>