<svg height="436pt" viewBox="-41 0 436 436.90667" width="436pt" xmlns="http://www.w3.org/2000/svg" xmlns:xlink="http://www.w3.org/1999/xlink"><clipPath id="a"><path d="m82 150h192v76h-192zm0 0"/></clipPath><clipPath id="b"><path d="m119.921875 197.972656c-5.660156 0-10.242187-4.582031-10.242187-10.238281 0-5.660156 4.585937-10.242187 10.242187-10.242187 5.652344 0 10.238281 4.585937 10.238281 10.242187s-4.582031 10.238281-10.238281 10.238281m116.050781 0c-5.65625 0-10.238281-4.582031-10.238281-10.238281 0-5.660156 4.582031-10.242187 10.238281-10.242187s10.242188 4.585937 10.242188 10.242187-4.582032 10.238281-10.242188 10.238281m3.414063-47.785156h-122.878907c-18.847656 0-34.132812 15.285156-34.132812 34.132812v10.191407c0 16.992187 13.773438 30.769531 30.769531 30.769531h34.082031c5.65625 0 10.238282-4.582031 10.238282-10.242188 0-5.65625 4.585937-10.238281 10.242187-10.238281h20.480469c5.65625 0 10.238281 4.582031 10.238281 10.238281 0 5.660157 4.585938 10.242188 10.242188 10.242188h34.082031c16.992188 0 30.769531-13.777344 30.769531-30.769531v-10.191407c0-18.851562-15.28125-34.132812-34.132812-34.132812"/></clipPath><path d="m296.515625 34.132812h-61.082031v-1.652343c0-14.171875-12.085938-25.652344-27-25.652344h-60.972656c-14.914063 0-27 11.480469-27 25.652344v1.652343h-61.085938c-9.917969 0-17.960938 7.640626-17.960938 17.070313v150.183594c0 9.425781 8.042969 17.066406 17.960938 17.066406h237.140625c9.921875 0 17.964844-7.640625 17.964844-17.066406v-150.1875c0-9.425781-8.042969-17.066407-17.964844-17.066407" fill="#d8d8d8"/><path d="m296.515625 34.132812v-6.824218h-61.082031v6.824218h6.828125v-1.652343c.003906-9.054688-3.894531-17.277344-10.03125-23.089844-6.136719-5.832031-14.574219-9.390625-23.796875-9.390625h-60.972656c-9.222657 0-17.660157 3.558594-23.792969 9.390625-6.140625 5.816406-10.039063 14.035156-10.035157 23.089844v1.652343h6.828126v-6.824218h-61.085938c-6.722656-.003906-12.902344 2.59375-17.402344 6.875-4.503906 4.261718-7.394531 10.332031-7.386718 17.019531v150.183594c-.007813 6.683593 2.882812 12.757812 7.386718 17.015625 4.5 4.28125 10.675782 6.878906 17.402344 6.878906h237.140625c6.722656 0 12.902344-2.597656 17.40625-6.878906 4.503906-4.257813 7.390625-10.332032 7.386719-17.015625v-150.183594c.003906-6.6875-2.882813-12.757813-7.386719-17.019531-4.503906-4.28125-10.679687-6.878906-17.40625-6.875v13.652344c3.195313 0 6 1.222656 8 3.117187 1.996094 1.917969 3.132813 4.378906 3.136719 7.121094v150.1875c-.003906 2.746093-1.140625 5.203125-3.136719 7.117187-2 1.898438-4.804687 3.121094-8 3.121094h-237.140625c-3.195312 0-5.996094-1.222656-8-3.121094-1.996094-1.914062-3.128906-4.371094-3.136719-7.117187v-150.1875c.007813-2.742188 1.140625-5.203125 3.136719-7.121094 2.003906-1.894531 4.804688-3.117187 8-3.117187h61.085938c1.796874 0 3.554687-.730469 4.824218-2 1.273438-1.273438 2-3.03125 2-4.828126v-1.652343c.007813-5.117188 2.152344-9.722657 5.785156-13.191407 3.632813-3.453124 8.695313-5.636718 14.390626-5.636718h60.972656c5.691406 0 10.753906 2.183594 14.390625 5.636718 3.632812 3.46875 5.777343 8.074219 5.785156 13.191407v1.652343c0 1.796876.726563 3.554688 2 4.828126 1.269531 1.269531 3.027344 2 4.824219 2h61.082031z" fill="#54596e"/><path d="m82.375 191.148438c0 15.078124-12.226562 27.304687-27.308594 27.304687-15.082031 0-27.304687-12.226563-27.304687-27.304687 0-15.082032 12.222656-27.308594 27.304687-27.308594 15.082032 0 27.308594 12.226562 27.308594 27.308594zm0 0" fill="#ffd578"/><path d="m82.375 191.148438h6.824219c-.003907-18.855469-15.277344-34.128907-34.132813-34.136719-18.851562.007812-34.128906 15.28125-34.132812 34.136719.003906 18.851562 15.28125 34.125 34.132812 34.132812 18.855469-.007812 34.128906-15.28125 34.132813-34.132812h-13.652344c-.019531 11.304687-9.171875 20.457031-20.480469 20.476562-11.304687-.015625-20.460937-9.171875-20.480468-20.476562.019531-11.308594 9.175781-20.460938 20.480468-20.480469 11.308594.019531 20.460938 9.171875 20.480469 20.480469z" fill="#54596e"/><path d="m328.132812 191.148438c0 15.078124-12.226562 27.304687-27.304687 27.304687-15.082031 0-27.308594-12.226563-27.308594-27.304687 0-15.082032 12.226563-27.308594 27.308594-27.308594 15.078125 0 27.304687 12.226562 27.304687 27.308594zm0 0" fill="#ffd578"/><path d="m328.132812 191.148438h6.828126c-.007813-18.855469-15.28125-34.128907-34.132813-34.136719-18.855469.007812-34.132813 15.28125-34.136719 34.136719.003906 18.851562 15.28125 34.125 34.136719 34.132812 18.851563-.007812 34.125-15.28125 34.132813-34.132812h-13.652344c-.023438 11.304687-9.175782 20.457031-20.480469 20.476562-11.308594-.015625-20.460937-9.171875-20.484375-20.476562.023438-11.308594 9.175781-20.460938 20.484375-20.480469 11.304687.019531 20.457031 9.171875 20.480469 20.480469z" fill="#54596e"/><path d="m84.242188 81.921875c-13.992188 19.167969-22.347657 42.714844-22.347657 68.265625v68.265625c0 64.09375 51.957031 116.054687 116.050781 116.054687s116.054688-51.960937 116.054688-116.054687v-68.265625c0-25.550781-8.359375-49.097656-22.347656-68.265625z" fill="#ffd578"/><path d="m84.242188 81.921875-5.515626-4.027344c-14.796874 20.265625-23.664062 45.242188-23.660156 72.292969v68.265625c.003906 67.867187 55.011719 122.875 122.878906 122.878906 67.867188-.003906 122.875-55.011719 122.882813-122.878906v-68.265625c.003906-27.050781-8.863281-52.027344-23.660156-72.292969-1.292969-1.769531-3.324219-2.800781-5.515625-2.800781h-187.410156c-2.191407 0-4.222657 1.03125-5.515626 2.800781l5.515626 4.027344v6.824219h187.410156v-6.824219l-5.511719 4.023437c13.183594 18.074219 21.03125 40.191407 21.03125 64.242188v68.265625c0 30.183594-12.214844 57.445313-31.988281 77.234375-19.789063 19.777344-47.054688 31.988281-77.238282 31.992188-30.179687-.003907-57.445312-12.214844-77.234374-31.992188-19.777344-19.789062-31.988282-47.050781-31.992188-77.234375v-68.265625c.003906-24.050781 7.851562-46.167969 21.035156-64.242188l-5.511718-4.023437v6.824219zm0 0" fill="#54596e"/><path d="m291.210938 334.507812h-219.109376c-35.796874 0-64.820312 22.886719-64.820312 51.113282v44.457031h341.332031v-50.304687c0-25-25.699219-45.265626-57.402343-45.265626zm0 0" fill="#fff"/><path d="m291.210938 334.507812v-6.828124h-219.109376c-19.355468.011718-37 6.15625-50.0625 16.4375-13.035156 10.238281-21.59375 24.972656-21.585937 41.507812v44.453125c0 1.800781.730469 3.558594 2 4.828125 1.273437 1.273438 3.03125 2 4.828125 2h341.332031c1.796875 0 3.554688-.726562 4.828125-2 1.269532-1.269531 2-3.027344 2-4.824219v-50.308593c.003906-14.917969-7.722656-28.191407-19.414062-37.367188-11.71875-9.226562-27.507813-14.714844-44.816406-14.722656v13.648437c14.394531-.007812 27.308593 4.636719 36.363281 11.792969 9.085937 7.207031 14.207031 16.566406 14.214843 26.648438v43.480468h-327.683593v-37.632812c.007812-11.695313 5.960937-22.515625 16.386719-30.78125 10.402343-8.21875 25.167968-13.519532 41.613281-13.507813h219.105469zm0 0" fill="#54596e"/><path d="m184.773438 382.292969h-13.652344c-15.082032 0-27.308594-12.226563-27.308594-27.304688v-68.269531h68.265625v68.269531c0 15.078125-12.226563 27.304688-27.304687 27.304688zm0 0" fill="#ffd578"/><path d="m184.773438 382.292969v-6.828125h-13.652344c-11.308594-.019532-20.460938-9.171875-20.480469-20.476563v-61.441406h54.613281v61.441406c-.019531 11.304688-9.175781 20.457031-20.480468 20.476563v13.65625c18.851562-.007813 34.128906-15.28125 34.132812-34.132813v-68.269531c0-1.796875-.726562-3.554688-2-4.828125-1.269531-1.269531-3.027344-1.996094-4.828125-1.996094h-68.265625c-1.796875 0-3.554688.726563-4.824219 1.996094-1.273437 1.273437-2 3.03125-2 4.828125v68.269531c.003907 18.851563 15.277344 34.125 34.132813 34.132813h13.652344zm0 0" fill="#54596e"/><path d="m7.28125 402.773438h34.132812c15.078126 0 27.304688 12.226562 27.304688 27.304687h-61.4375zm0 0" fill="#ffd578"/><path d="m7.28125 402.773438v6.828124h34.132812c11.304688.019532 20.457032 9.171876 20.480469 20.476563h6.824219v-6.824219h-54.613281v-20.480468h-6.824219v6.828124-6.828124h-6.828125v27.304687c0 1.800781.730469 3.558594 2 4.828125 1.273437 1.273438 3.03125 2 4.828125 2h61.4375c1.796875 0 3.554688-.726562 4.828125-2 1.269531-1.269531 2-3.027344 2-4.828125-.003906-18.851563-15.28125-34.125-34.132813-34.132813h-34.132812c-1.796875 0-3.558594.730469-4.828125 2-1.269531 1.269532-2 3.03125-2 4.828126zm0 0" fill="#54596e"/><path d="m348.613281 402.773438h-34.132812c-15.082031 0-27.308594 12.226562-27.308594 27.304687h61.441406zm0 0" fill="#ffd578"/><path d="m348.613281 402.773438v-6.828126h-34.132812c-18.855469.007813-34.128907 15.28125-34.132813 34.132813 0 1.800781.726563 3.558594 2 4.828125 1.269532 1.273438 3.027344 2 4.824219 2h61.441406c1.796875 0 3.554688-.726562 4.828125-2 1.269532-1.269531 2-3.027344 2-4.828125v-27.304687c0-1.796876-.730468-3.558594-2-4.828126-1.269531-1.269531-3.03125-2-4.828125-2v6.828126h-6.828125v20.480468h-54.613281v6.824219h6.828125c.019531-11.304687 9.171875-20.457031 20.480469-20.476563h34.132812v-6.828124h-6.828125zm0 0" fill="#54596e"/><path d="m218.90625 416.425781h40.960938c3.769531 0 6.824218-3.054687 6.824218-6.824219 0-3.773437-3.054687-6.828124-6.824218-6.828124h-40.960938c-3.769531 0-6.828125 3.054687-6.828125 6.828124 0 3.769532 3.058594 6.824219 6.828125 6.824219" fill="#54596e"/><path d="m130.160156 187.734375c0-5.660156-4.582031-10.242187-10.238281-10.242187-5.660156 0-10.242187 4.585937-10.242187 10.242187s4.585937 10.238281 10.242187 10.238281c5.652344 0 10.238281-4.582031 10.238281-10.238281" fill="#54596e"/><path d="m246.214844 187.734375c0-5.660156-4.582032-10.242187-10.242188-10.242187-5.65625 0-10.238281 4.585937-10.238281 10.242187s4.582031 10.238281 10.238281 10.238281 10.242188-4.582031 10.242188-10.238281" fill="#54596e"/><g clip-path="url(#a)"><g clip-path="url(#b)"><path d="m82.375 150.1875h191.148438v75.09375h-191.148438zm0 0" fill="#ccc7a1"/></g></g><path d="m119.921875 177.492188c-5.660156 0-10.242187 4.585937-10.242187 10.242187s4.585937 10.238281 10.242187 10.238281c5.652344 0 10.238281-4.582031 10.238281-10.238281s-4.582031-10.242187-10.238281-10.242187" fill="#54709a"/><path d="m235.972656 177.492188c-5.65625 0-10.238281 4.585937-10.238281 10.242187s4.582031 10.238281 10.238281 10.238281 10.242188-4.582031 10.242188-10.238281-4.582032-10.242187-10.242188-10.242187" fill="#54709a"/><path d="m82.375 184.320312h-6.828125v10.191407c.003906 20.765625 16.828125 37.589843 37.597656 37.59375h34.082031c9.429688-.003907 17.0625-7.636719 17.066407-17.066407.003906-1.886718 1.527343-3.410156 3.414062-3.414062h20.480469c1.886719.003906 3.410156 1.53125 3.414062 3.414062 0 9.429688 7.636719 17.0625 17.066407 17.066407h34.082031c20.765625-.003907 37.59375-16.828125 37.597656-37.59375v-10.191407c-.007812-22.625-18.335937-40.957031-40.960937-40.960937h-122.878907c-22.625.003906-40.957031 18.335937-40.960937 40.960937h13.652344c.003906-7.5625 3.046875-14.34375 8-19.308593 4.964843-4.953125 11.746093-7.996094 19.308593-8h122.878907c7.558593.003906 14.34375 3.046875 19.308593 8 4.953126 4.964843 7.996094 11.746093 7.996094 19.308593v10.191407c0 6.632812-2.667968 12.574219-7.011718 16.929687-4.355469 4.34375-10.296876 7.007813-16.929688 7.011719h-34.082031c-1.886719-.003906-3.410157-1.527344-3.414063-3.414063-.003906-9.425781-7.640625-17.0625-17.066406-17.066406h-20.480469c-9.429687.003906-17.0625 7.640625-17.066406 17.066406-.003906 1.886719-1.527344 3.410157-3.414063 3.414063h-34.082031c-6.636719-.003906-12.578125-2.667969-16.933593-7.011719-4.339844-4.355468-7.007813-10.296875-7.011719-16.929687v-10.191407zm0 0" fill="#54596e"/><path d="m242.75 225.28125h-34.082031c-5.65625 0-10.242188-4.585938-10.242188-10.242188s-4.582031-10.238281-10.238281-10.238281h-20.480469c-5.65625 0-10.242187 4.582031-10.242187 10.238281s-4.582032 10.242188-10.238282 10.242188h-34.082031c-5.738281 0-11.046875-1.671875-15.640625-4.40625-.957031 5.851562-1.476562 11.882812-1.476562 18.058594 0 52.785156 36.675781 95.574218 81.917968 95.574218 45.246094 0 81.921876-42.789062 81.921876-95.574218 0-6.175782-.511719-12.214844-1.46875-18.0625-4.601563 2.738281-9.910157 4.410156-15.648438 4.410156zm0 0" fill="#61c5a8"/><g fill="#54596e"><path d="m242.75 225.28125v-6.828125h-34.082031c-1.886719-.003906-3.410157-1.527344-3.414063-3.414063-.003906-9.425781-7.640625-17.0625-17.066406-17.066406h-20.480469c-9.429687.003906-17.0625 7.640625-17.066406 17.066406-.003906 1.886719-1.527344 3.410157-3.414063 3.414063h-34.082031c-4.398437-.003906-8.476562-1.269531-12.152343-3.445313-1.941407-1.15625-4.324219-1.277343-6.375-.324218-2.046876.957031-3.488282 2.859375-3.851563 5.085937-1.011719 6.203125-1.566406 12.601563-1.566406 19.164063.007812 27.976562 9.703125 53.421875 25.636719 72.023437 15.902343 18.585938 38.285156 30.386719 63.109374 30.375 24.828126.011719 47.210938-11.789062 63.109376-30.375 15.933593-18.601562 25.632812-44.046875 25.636718-72.023437 0-6.554688-.539062-12.960938-1.558594-19.167969-.367187-2.230469-1.808593-4.132813-3.855468-5.085937-2.046875-.953126-4.429688-.832032-6.371094.324218-3.679688 2.179688-7.753906 3.445313-12.15625 3.449219v13.652344c7.078125.003906 13.617188-2.078125 19.136719-5.367188l-3.488281-5.867187-6.738282 1.105468c.902344 5.488282 1.382813 11.15625 1.382813 16.957032.003906 24.804687-8.636719 47.144531-22.351563 63.136718-13.75 16.003907-32.328125 25.601563-52.742187 25.609376-20.417969-.007813-38.996094-9.605469-52.742188-25.609376-13.71875-15.992187-22.359375-38.332031-22.355469-63.136718 0-5.792969.488282-11.453125 1.390626-16.960938l-6.738282-1.097656-3.488281 5.867188c5.515625 3.285156 12.050781 5.367187 19.128906 5.363281h34.082031c9.429688-.003907 17.0625-7.636719 17.066407-17.066407.003906-1.886718 1.527343-3.410156 3.414062-3.414062h20.480469c1.886719.003906 3.410156 1.53125 3.414062 3.414062 0 9.429688 7.636719 17.0625 17.066407 17.066407h34.082031zm0 0"/><path d="m68.71875 252.585938h27.308594c3.769531 0 6.824218-3.054688 6.824218-6.824219 0-3.773438-3.054687-6.828125-6.824218-6.828125h-27.308594c-3.769531 0-6.824219 3.054687-6.824219 6.828125 0 3.769531 3.054688 6.824219 6.824219 6.824219"/><path d="m259.867188 252.585938h27.304687c3.773437 0 6.828125-3.054688 6.828125-6.824219 0-3.773438-3.054688-6.828125-6.828125-6.828125h-27.304687c-3.769532 0-6.828126 3.054687-6.828126 6.828125 0 3.769531 3.058594 6.824219 6.828126 6.824219"/><path d="m266.691406 170.667969h20.480469c3.773437 0 6.828125-3.058594 6.828125-6.828125 0-3.769532-3.054688-6.828125-6.828125-6.828125h-20.480469c-3.769531 0-6.824218 3.058593-6.824218 6.828125 0 3.769531 3.054687 6.828125 6.824218 6.828125"/><path d="m61.894531 170.667969h27.304688c3.769531 0 6.828125-3.058594 6.828125-6.828125 0-3.769532-3.058594-6.828125-6.828125-6.828125h-27.304688c-3.769531 0-6.828125 3.058593-6.828125 6.828125 0 3.769531 3.058594 6.828125 6.828125 6.828125"/></g></svg>