<svg height="436pt" viewBox="-44 0 436 436.90667" width="436pt" xmlns="http://www.w3.org/2000/svg"><path d="m193.957031 18.296875c11.230469-20.21875 42.023438-11.964844 41.644531 11.160156-.289062 17.429688 18.691407 28.390625 33.644532 19.421875 19.835937-11.890625 42.378906 10.652344 30.484375 30.488282-8.964844 14.949218 1.992187 33.933593 19.425781 33.644531 23.121094-.382813 31.375 30.410156 11.160156 41.640625-15.242187 8.46875-15.242187 30.386718 0 38.855468 20.214844 11.230469 11.960938 42.023438-11.160156 41.640626-17.433594-.289063-28.390625 18.695312-19.425781 33.644531 11.894531 19.835937-10.648438 42.378906-30.484375 30.488281-14.953125-8.96875-33.933594 1.992188-33.644532 19.421875.378907 23.125-30.414062 31.375-41.644531 11.160156-8.464843-15.242187-30.386719-15.242187-38.851562 0-11.230469 20.214844-42.023438 11.964844-41.644531-11.160156.292968-17.429687-18.691407-28.390625-33.640626-19.421875-19.839843 11.890625-42.382812-10.652344-30.488281-30.488281 8.96875-14.949219-1.992187-33.933594-19.421875-33.644531-23.125.382812-31.378906-30.410157-11.160156-41.640626 15.238281-8.46875 15.238281-30.386718 0-38.855468-20.21875-11.230469-11.964844-42.023438 11.160156-41.640625 17.429688.289062 28.390625-18.695313 19.421875-33.644531-11.894531-19.835938 10.648438-42.378907 30.488281-30.488282 14.949219 8.96875 33.933594-1.992187 33.640626-19.421875-.378907-23.125 30.414062-31.378906 41.644531-11.160156 8.464843 15.242187 30.386719 15.242187 38.851562 0zm0 0" fill="#999"/><path d="m193.957031 18.296875 5.96875 3.316406c1.628907-2.914062 3.632813-4.808593 5.863281-6.078125 2.230469-1.261718 4.738282-1.878906 7.320313-1.882812 3.972656-.007813 8.019531 1.519531 10.898437 4.152344 2.871094 2.664062 4.734376 6.191406 4.773438 11.230468l-.003906.332032v-.027344l-.007813.511718c-.015625 8.375 3.515625 15.789063 8.886719 20.902344 5.367188 5.128906 12.574219 8.144532 20.203125 8.152344 5 .007812 10.171875-1.332031 14.894531-4.167969 2.824219-1.679687 5.464844-2.328125 7.996094-2.335937 4.007812-.007813 7.902344 1.746094 10.8125 4.652344 2.90625 2.90625 4.65625 6.800781 4.648438 10.808593-.007813 2.535157-.652344 5.175781-2.332032 8-2.839844 4.71875-4.179687 9.890625-4.171875 14.894531.007813 7.628907 3.023438 14.832032 8.152344 20.199219 5.113281 5.371094 12.527344 8.898438 20.902344 8.882813h.515625l.300781-.003906c5.039063.035156 8.566406 1.902343 11.230469 4.773437 2.628906 2.875 4.160156 6.925781 4.148437 10.894531-.003906 2.582032-.621093 5.09375-1.882812 7.324219-1.269531 2.230469-3.164063 4.234375-6.078125 5.863281-9.886719 5.46875-14.984375 15.5625-14.941406 25.394532-.042969 9.832031 5.054687 19.921874 14.945312 25.394531 2.910156 1.625 4.804688 3.628906 6.074219 5.859375 1.261719 2.230468 1.878906 4.738281 1.882812 7.324218.011719 3.964844-1.519531 8.015626-4.148437 10.894532-2.664063 2.871094-6.195313 4.734375-11.230469 4.769531h-.460937l.039062 6.828125.128906-6.828125-.523437-.003906c-8.375-.015625-15.792969 3.515625-20.902344 8.886719-5.128906 5.367187-8.144531 12.566406-8.152344 20.199218-.007812 5 1.332031 10.179688 4.171875 14.898438 1.679688 2.820312 2.324219 5.460937 2.332032 7.992187.007812 4.007813-1.742188 7.902344-4.648438 10.808594s-6.804688 4.660156-10.8125 4.652344c-2.53125-.007813-5.175781-.652344-7.996094-2.332031-4.71875-2.835938-9.890625-4.179688-14.894531-4.171876-7.628906.007813-14.832031 3.023438-20.199219 8.152344-5.371094 5.113282-8.902344 12.527344-8.886718 20.902344l.003906.519531.003906.296875c-.039062 5.035156-1.902344 8.566406-4.773438 11.230469-2.878906 2.632813-6.925781 4.160156-10.898437 4.148437-2.582031 0-5.09375-.617187-7.320313-1.878906-2.230468-1.273437-4.234374-3.164062-5.863281-6.078125-5.46875-9.886719-15.558593-14.984375-25.390625-14.9375-9.835937-.046875-19.925781 5.050781-25.398437 14.9375-1.625 2.914063-3.628907 4.804688-5.859375 6.078125-2.230469 1.261719-4.738282 1.878906-7.324219 1.882813-3.96875.007812-8.019531-1.519531-10.894531-4.152344-2.875-2.664063-4.738282-6.195313-4.773438-11.230469l.003906-.292968.003907-.523438c.015625-8.375-3.515625-15.789062-8.886719-20.902344-5.367188-5.128906-12.570312-8.144531-20.199219-8.152344-5-.007812-10.179687 1.332032-14.898437 4.175782-2.816406 1.675781-5.460938 2.320312-7.992188 2.328125-4.007812.007812-7.902344-1.742188-10.808594-4.648438-2.90625-2.910156-4.660156-6.804687-4.652343-10.8125.007812-2.527343.652343-5.171875 2.335937-7.988281 2.835938-4.722656 4.175782-9.898438 4.171875-14.902344-.007812-7.628906-3.023437-14.832031-8.15625-20.199218-5.109375-5.371094-12.527343-8.902344-20.902343-8.886719l-.652344.007812.261718 6.824219-.082031-6.828125h-.34375c-5.039062-.035156-8.566406-1.898437-11.230469-4.769531-2.632812-2.878906-4.160156-6.929688-4.148437-10.898438.003906-2.582031.621094-5.09375 1.882813-7.320312 1.269531-2.230469 3.164062-4.234375 6.074218-5.859375 9.890625-5.472657 14.988282-15.5625 14.945313-25.394531.042969-9.835938-5.054688-19.929688-14.941407-25.394532-2.910156-1.628906-4.804687-3.632812-6.078124-5.863281-1.261719-2.230469-1.878907-4.742187-1.878907-7.324219-.011719-3.96875 1.515625-8.019531 4.148438-10.898437 2.664062-2.871094 6.191406-4.734375 11.230469-4.773438l.179687.003907.15625.003906h.476563c8.378906.015625 15.792968-3.515625 20.902343-8.886719 5.132813-5.367187 8.148438-12.570313 8.152344-20.199219.007813-5.003906-1.332031-10.179687-4.171875-14.898437-1.679688-2.820313-2.324219-5.460938-2.332031-7.992188-.007813-4.007812 1.746093-7.90625 4.652343-10.8125s6.800782-4.65625 10.808594-4.648437c2.53125.007812 5.171875.652344 7.992188 2.332031 4.722656 2.839844 9.898437 4.179687 14.898437 4.171875 7.632813-.007812 14.835938-3.023438 20.203125-8.152344 5.371094-5.113281 8.902344-12.527344 8.886719-20.90625l-.003906-.488281-.003907-.324219c.035157-5.039062 1.898438-8.570312 4.769532-11.234375 2.878906-2.628906 6.929687-4.160156 10.898437-4.148437 2.585938 0 5.09375.617187 7.324219 1.878906 2.230469 1.273438 4.230469 3.164062 5.859375 6.082031 5.472656 9.886719 15.5625 14.984375 25.394531 14.941407 9.835938.042968 19.925782-5.054688 25.394532-14.941407l-5.972657-3.316406-5.964843-3.316406c-3 5.351562-8.101563 7.875-13.460938 7.917969-5.359375-.042969-10.460938-2.566407-13.457031-7.917969-2.769531-5.007813-6.667969-8.847657-11.074219-11.332031-4.410156-2.492188-9.277344-3.648438-14.046875-3.648438-7.335937.0117188-14.53125 2.679688-20.078125 7.695312-5.546875 4.988282-9.277344 12.5625-9.242188 21.339844l.003907.535156.003906.277344c-.015625 4.574219-1.816406 8.273438-4.675781 11.039063-2.863282 2.746093-6.789063 4.371093-10.757813 4.367187-2.617187-.007812-5.261719-.667968-7.878906-2.230468-4.824219-2.902344-10.027344-4.289063-15.015625-4.277344-7.976562.007812-15.222656 3.410156-20.464844 8.648437-5.238281 5.242188-8.640625 12.492188-8.648437 20.46875-.007813 4.984375 1.375 10.1875 4.277343 15.015625 1.5625 2.609375 2.222657 5.253906 2.230469 7.875.007813 3.96875-1.617187 7.894532-4.367187 10.757813-2.765625 2.859375-6.464844 4.660156-11.035156 4.675781l-.308594-.003906-.085938 6.828125.238282-6.824219-.664063-.007812c-8.777344-.035157-16.351563 3.695312-21.335937 9.242187-5.015626 5.546875-7.683594 12.742187-7.695313 20.078125 0 4.769531 1.15625 9.636719 3.652344 14.046875 2.480469 4.40625 6.324219 8.300781 11.328125 11.074219 5.351562 2.996094 7.875 8.097656 7.917968 13.457031-.042968 5.359375-2.566406 10.464844-7.917968 13.460937-5.003906 2.769532-8.847656 6.664063-11.328125 11.070313-2.496094 4.410156-3.652344 9.277344-3.652344 14.042969.011719 7.335937 2.679687 14.535156 7.695313 20.078125 4.984374 5.550781 12.558593 9.285156 21.335937 9.246093h.503906l.179688-.003906h.136719c4.570312.015625 8.269531 1.8125 11.035156 4.671875 2.75 2.863281 4.375 6.789063 4.367187 10.761719-.007812 2.617188-.667969 5.261719-2.230469 7.875-2.902343 4.824219-4.285156 10.027344-4.273437 15.015625.007813 7.976563 3.40625 15.222656 8.648437 20.464844 5.242188 5.242187 12.488282 8.640625 20.464844 8.648437 4.984375.011719 10.191406-1.371094 15.015625-4.273437 2.613281-1.566407 5.257813-2.222657 7.875-2.230469 3.972657-.007812 7.898438 1.617188 10.761719 4.363281 2.859375 2.765625 4.65625 6.46875 4.671875 11.039063v.285156l-.003906.53125c-.039063 8.777344 3.695312 16.351562 9.242187 21.335938 5.546875 5.019531 12.742188 7.683593 20.078125 7.699218 4.769531 0 9.636719-1.15625 14.042969-3.652344 4.410156-2.480468 8.304688-6.320312 11.078125-11.328124 2.996094-5.351563 8.097656-7.875 13.457031-7.917969 5.359375.042969 10.460938 2.566406 13.457032 7.917969 2.773437 5.003906 6.667968 8.847656 11.078124 11.328124 4.40625 2.492188 9.273438 3.648438 14.042969 3.648438 7.335938-.011719 14.535157-2.679688 20.078125-7.695312 5.546875-4.988282 9.28125-12.5625 9.242188-21.335938l-.003906-.53125-.003907-.285156c.015625-4.574219 1.816407-8.273438 4.675781-11.039063 2.859376-2.75 6.789063-4.375 10.761719-4.363281 2.613281.003906 5.257813.664062 7.871094 2.230469 4.828125 2.898437 10.03125 4.28125 15.015625 4.273437 7.976562-.007812 15.226562-3.410156 20.464844-8.648437 5.242187-5.242188 8.640625-12.488281 8.648437-20.464844.011719-4.984375-1.371093-10.191406-4.273437-15.015625-1.5625-2.613281-2.222656-5.257812-2.230469-7.875-.007813-3.972656 1.617187-7.898438 4.363281-10.761719 2.765625-2.859375 6.46875-4.65625 11.039063-4.671875l.265625.003906h.550781c8.777344.035157 16.351563-3.695312 21.335937-9.246093 5.019532-5.542969 7.6875-12.742188 7.699219-20.074219 0-4.769531-1.15625-9.636719-3.652343-14.042969-2.484376-4.410156-6.324219-8.304687-11.332032-11.078125-5.351562-2.996094-7.871094-8.097656-7.917968-13.457031.046874-5.359375 2.566406-10.460937 7.917968-13.457031 5.007813-2.773438 8.847656-6.671875 11.332032-11.078125 2.492187-4.40625 3.652343-9.277344 3.652343-14.042969-.011719-7.335938-2.679687-14.53125-7.699219-20.078125-4.984374-5.546875-12.558593-9.28125-21.335937-9.246094l-.542969.007813.121094 6.824218-.042969-6.824218h-.351562c-4.574219-.015625-8.273438-1.816406-11.039063-4.675782-2.75-2.859374-4.375-6.789062-4.363281-10.757812.003906-2.617188.664063-5.257812 2.226563-7.871094 2.902343-4.832031 4.285156-10.035156 4.277343-15.019531-.011719-7.976563-3.410156-15.222656-8.652343-20.464844-5.238282-5.242187-12.488282-8.640625-20.464844-8.648437-4.984375-.007813-10.1875 1.375-15.011719 4.277344-2.613281 1.558593-5.261719 2.21875-7.878906 2.226562-3.96875.007812-7.898438-1.617188-10.761719-4.363281-2.855469-2.765625-4.65625-6.464844-4.671875-11.039063l.003906-.273437v-.027344l.003907-.515625c.035156-8.777344-3.695313-16.351562-9.246094-21.335938-5.542969-5.015624-12.742188-7.6835932-20.074219-7.695312-4.769531 0-9.636719 1.15625-14.042969 3.652344-4.410156 2.480468-8.304687 6.324218-11.074218 11.332031zm0 0" fill="#54596e"/><path d="m278.734375 334.507812h-201.578125c-32.9375 0-59.636719 22.886719-59.636719 51.117188v44.453125h314.027344v-50.304687c0-25-23.644531-45.265626-52.8125-45.265626zm0 0" fill="#999"/><path d="m278.734375 334.507812v-6.828124h-201.578125c-18.054688.003906-34.515625 6.257812-46.613281 16.613281-12.082031 10.328125-19.859375 25.007812-19.851563 41.328125v44.457031c0 1.800781.730469 3.558594 2.003906 4.828125 1.269532 1.273438 3.027344 2 4.824219 2h314.027344c1.796875 0 3.554687-.726562 4.824219-2 1.273437-1.269531 2-3.027344 2-4.824219v-50.308593c.007812-14.703126-7-27.921876-17.851563-37.191407-10.859375-9.300781-25.617187-14.898437-41.785156-14.898437v13.648437c12.996094-.003906 24.648437 4.535157 32.898437 11.617188 8.265626 7.113281 13.074219 16.527343 13.082032 26.824219v43.480468h-300.371094v-37.628906c.007812-11.910156 5.582031-22.789062 15.085938-30.960938 9.484374-8.144531 22.84375-13.335937 37.726562-13.332031h201.578125zm0 0" fill="#54596e"/><path d="m304.238281 170.667969c0 15.078125-12.226562 27.304687-27.308593 27.304687-15.078126 0-27.304688-12.226562-27.304688-27.304687 0-15.082031 12.226562-27.308594 27.304688-27.308594 15.082031 0 27.308593 12.226563 27.308593 27.308594zm0 0" fill="#ffd578"/><path d="m304.238281 170.667969h6.828125c-.007812-18.855469-15.28125-34.132813-34.136718-34.132813-18.851563 0-34.125 15.277344-34.132813 34.132813.007813 18.851562 15.28125 34.125 34.132813 34.132812 18.855468-.003906 34.128906-15.28125 34.136718-34.132812h-13.65625c-.019531 11.304687-9.171875 20.457031-20.480468 20.480469-11.304688-.023438-20.457032-9.175782-20.476563-20.480469.019531-11.308594 9.171875-20.460938 20.476563-20.480469 11.308593.019531 20.460937 9.171875 20.480468 20.480469zm0 0" fill="#54596e"/><path d="m99.4375 170.667969c0 15.078125-12.226562 27.304687-27.304688 27.304687-15.082031 0-27.308593-12.226562-27.308593-27.304687 0-15.082031 12.226562-27.308594 27.308593-27.308594 15.078126 0 27.304688 12.226563 27.304688 27.308594zm0 0" fill="#ffd578"/><path d="m99.4375 170.667969h6.828125c-.003906-18.855469-15.28125-34.132813-34.132813-34.132813-18.855468 0-34.128906 15.277344-34.132812 34.132813.003906 18.851562 15.277344 34.125 34.132812 34.132812 18.851563-.003906 34.128907-15.28125 34.132813-34.132812h-13.652344c-.023437 11.304687-9.175781 20.457031-20.480469 20.480469-11.308593-.023438-20.460937-9.175782-20.480468-20.480469.019531-11.308594 9.171875-20.460938 20.480468-20.480469 11.304688.019531 20.457032 9.171875 20.480469 20.480469zm0 0" fill="#54596e"/><path d="m174.53125 382.292969c-15.078125 0-27.304688-12.226563-27.304688-27.304688v-68.269531h54.613282v68.269531c0 15.078125-12.226563 27.304688-27.308594 27.304688zm0 0" fill="#ffd578"/><path d="m174.53125 382.292969v-6.828125c-11.304688-.019532-20.460938-9.171875-20.480469-20.476563v-61.441406h40.960938v61.441406c-.019531 11.304688-9.171875 20.457031-20.480469 20.476563v13.65625c18.855469-.003906 34.128906-15.28125 34.132812-34.132813v-68.269531c0-1.796875-.726562-3.554688-2-4.828125-1.269531-1.269531-3.027343-1.996094-4.824218-1.996094h-54.613282c-1.796874 0-3.558593.726563-4.828124 1.996094-1.269532 1.273437-2 3.03125-2 4.828125v68.269531c.003906 18.851563 15.28125 34.125 34.132812 34.132813zm0 0" fill="#54596e"/><path d="m174.53125 314.027344c-56.554688 0-102.398438-45.847656-102.398438-102.402344v-72.402344c0-16.566406 13.429688-29.996094 29.996094-29.996094h144.804688c16.566406 0 29.996094 13.429688 29.996094 30v72.398438c0 56.554688-45.84375 102.402344-102.398438 102.402344zm0 0" fill="#ffd578"/><path d="m174.53125 314.027344v-6.828125c-26.410156-.003907-50.261719-10.6875-67.582031-27.992188-17.304688-17.316406-27.988281-41.167969-27.992188-67.582031v-72.402344c.023438-12.792968 10.378907-23.148437 23.171875-23.171875h144.804688c12.792968.023438 23.148437 10.378907 23.171875 23.171875v72.402344c-.003907 26.414062-10.6875 50.265625-27.992188 67.582031-17.320312 17.304688-41.167969 27.988281-67.582031 27.992188v13.652343c60.324219 0 109.222656-48.898437 109.226562-109.226562v-72.402344c-.003906-20.339844-16.484374-36.820312-36.824218-36.824218h-144.804688c-20.339844.007812-36.820312 16.484374-36.824218 36.828124v72.398438c.003906 60.328125 48.898437 109.222656 109.226562 109.226562zm0 0" fill="#54596e"/><path d="m127.574219 144.441406c-25.714844-3.671875-48.453125 6.617188-50.792969 22.980469-2.335938 16.363281 16.613281 32.605469 42.328125 36.277344s48.453125-6.613281 50.789063-22.976563c2.339843-16.367187-16.613282-32.609375-42.324219-36.28125zm0 0" fill="#54596e"/><path d="m272.304688 167.441406c-2.335938-16.363281-25.078126-26.652344-50.789063-22.980468-25.714844 3.671874-44.664063 19.914062-42.328125 36.28125 2.335938 16.363281 25.078125 26.648437 50.789062 22.976562 25.714844-3.671875 44.664063-19.914062 42.328126-36.277344zm0 0" fill="#54596e"/><path d="m167.703125 259.414062h13.65625c7.539063 0 13.652344-6.113281 13.652344-13.652343 0-7.542969-6.113281-13.65625-13.652344-13.65625h-13.65625c-7.539063 0-13.652344 6.113281-13.652344 13.65625 0 7.539062 6.113281 13.652343 13.652344 13.652343" fill="#ff927d"/><path d="m147.226562 245.761719h54.613282c3.769531 0 6.824218-3.058594 6.824218-6.828125 0-3.769532-3.054687-6.828125-6.824218-6.828125h-54.613282c-3.773437 0-6.828124 3.058593-6.828124 6.828125 0 3.769531 3.054687 6.828125 6.828124 6.828125" fill="#ff927d"/><path d="m17.519531 402.773438h20.480469c15.078125 0 27.304688 12.226562 27.304688 27.304687h-47.785157zm0 0" fill="#ffd578"/><path d="m17.519531 402.773438v6.828124h20.480469c11.304688.019532 20.457031 9.171876 20.476562 20.476563h6.828126v-6.824219h-40.960938v-20.480468h-6.824219v6.828124-6.828124h-6.828125v27.304687c0 1.800781.730469 3.558594 2 4.828125 1.273438 1.273438 3.03125 2 4.828125 2h47.785157c1.796874 0 3.554687-.726562 4.828124-2 1.269532-1.269531 2-3.027344 2-4.828125-.007812-18.851563-15.28125-34.128906-34.132812-34.132813h-20.480469c-1.796875 0-3.558593.726563-4.828125 2-1.269531 1.273438-2 3.03125-2 4.828126zm0 0" fill="#54596e"/><path d="m311.066406 402.773438h20.480469v27.304687h-47.789063c0-15.078125 12.226563-27.304687 27.308594-27.304687zm0 0" fill="#ffd578"/><path d="m311.066406 402.773438v6.828124h13.652344v13.652344h-40.960938v6.824219h6.828126c.019531-11.304687 9.171874-20.457031 20.480468-20.476563v-13.65625c-18.855468.003907-34.128906 15.28125-34.136718 34.132813 0 1.800781.730468 3.558594 2.003906 4.828125 1.269531 1.273438 3.027344 2 4.824218 2h47.789063c1.796875 0 3.554687-.726562 4.824219-2 1.273437-1.269531 2-3.027344 2-4.828125v-27.304687c0-1.800782-.726563-3.558594-2-4.828126-1.269532-1.269531-3.027344-2-4.824219-2h-20.480469zm0 0" fill="#54596e"/><g fill="#fff35f"><path d="m229.144531 351.574219c0 5.65625-4.585937 10.238281-10.238281 10.238281-5.65625 0-10.242188-4.582031-10.242188-10.238281s4.585938-10.242188 10.242188-10.242188c5.652344 0 10.238281 4.585938 10.238281 10.242188zm0 0"/><path d="m140.398438 351.574219c0 5.65625-4.585938 10.238281-10.238282 10.238281-5.65625 0-10.242187-4.582031-10.242187-10.238281s4.585937-10.242188 10.242187-10.242188c5.652344 0 10.238282 4.585938 10.238282 10.242188zm0 0"/><path d="m222.316406 378.878906c0 5.65625-4.582031 10.242188-10.238281 10.242188s-10.238281-4.585938-10.238281-10.242188 4.582031-10.238281 10.238281-10.238281 10.238281 4.582031 10.238281 10.238281zm0 0"/><path d="m147.226562 378.878906c0 5.65625-4.585937 10.242188-10.242187 10.242188s-10.238281-4.585938-10.238281-10.242188 4.582031-10.238281 10.238281-10.238281 10.242187 4.582031 10.242187 10.238281zm0 0"/><path d="m188.183594 395.945312c0 7.542969-6.113282 13.65625-13.652344 13.65625s-13.652344-6.113281-13.652344-13.65625c0-7.539062 6.113282-13.652343 13.652344-13.652343s13.652344 6.113281 13.652344 13.652343zm0 0"/></g><path d="m91.8125 74.175781c-3.824219 6.230469-6.027344 13.554688-6.027344 21.398438 0 22.621093 18.339844 40.960937 40.960938 40.960937 22.617187 0 40.957031-18.339844 40.957031-40.960937" fill="#999"/><path d="m85.996094 70.605469c-4.464844 7.257812-7.039063 15.839843-7.039063 24.96875.007813 26.394531 21.394531 47.78125 47.789063 47.785156 26.390625-.003906 47.78125-21.390625 47.785156-47.785156 0-3.769531-3.054688-6.828125-6.828125-6.828125-3.769531 0-6.824219 3.058594-6.824219 6.828125-.003906 9.445312-3.8125 17.933593-10 24.136719-6.195312 6.1875-14.6875 9.992187-24.132812 9.996093-9.449219-.003906-17.9375-3.8125-24.136719-9.996093-6.1875-6.199219-9.996094-14.691407-9.996094-24.136719 0-6.5625 1.832031-12.632813 5.015625-17.824219 1.972656-3.214844.96875-7.417969-2.246094-9.390625-3.210937-1.972656-7.417968-.964844-9.386718 2.246094zm0 0" fill="#54596e"/><path d="m154.050781 177.492188h54.613281c3.769532 0 6.828126-3.054688 6.828126-6.824219s-3.058594-6.828125-6.828126-6.828125h-54.613281c-3.769531 0-6.824219 3.058594-6.824219 6.828125s3.054688 6.824219 6.824219 6.824219" fill="#54596e"/></svg>