<svg height="436pt" viewBox="-41 0 436 436.90667" width="436pt" xmlns="http://www.w3.org/2000/svg"><path d="m68.71875 402.773438v20.480468c0 3.769532 3.058594 6.824219 6.828125 6.824219s6.828125-3.054687 6.828125-6.824219v-20.480468c0-3.769532-3.058594-6.828126-6.828125-6.828126s-6.828125 3.058594-6.828125 6.828126" fill="#54596e"/><path d="m273.519531 402.773438v20.480468c0 3.769532 3.058594 6.824219 6.828125 6.824219 3.769532 0 6.824219-3.054687 6.824219-6.824219v-20.480468c0-3.769532-3.054687-6.828126-6.824219-6.828126-3.769531 0-6.828125 3.058594-6.828125 6.828126" fill="#54596e"/><path d="m295.808594 320.851562h-228.894532c-32.933593 0-59.632812 22.886719-59.632812 51.117188v58.109375h341.332031v-63.960937c0-24.996094-23.648437-45.265626-52.804687-45.265626" fill="#fff"/><path d="m295.808594 320.851562v-6.824218h-228.894532c-18.054687.007812-34.515624 6.257812-46.609374 16.613281-12.085938 10.328125-19.859376 25.007813-19.851563 41.328125v58.109375c0 1.800781.730469 3.558594 2 4.828125 1.273437 1.273438 3.027344 2 4.828125 2h341.332031c1.800781 0 3.558594-.726562 4.828125-2 1.269532-1.269531 2-3.027344 2-4.824219v-63.960937c.007813-14.707032-7.003906-27.925782-17.851562-37.195313-10.859375-9.296875-25.613282-14.894531-41.78125-14.898437v13.652344c12.992187-.003907 24.644531 4.53125 32.894531 11.617187 8.265625 7.117187 13.078125 16.53125 13.085937 26.824219v57.132812h-327.683593v-51.285156c.007812-11.910156 5.582031-22.785156 15.082031-30.960938 9.488281-8.140624 22.84375-13.332031 37.726562-13.328124h228.894532z" fill="#54596e"/><path d="m328.132812 211.625c0 15.082031-12.226562 27.308594-27.304687 27.308594-15.082031 0-27.308594-12.226563-27.308594-27.308594 0-15.078125 12.226563-27.304688 27.308594-27.304688 15.078125 0 27.304687 12.226563 27.304687 27.304688zm0 0" fill="#ffd578"/><path d="m328.132812 211.625h6.828126c-.007813-18.851562-15.28125-34.128906-34.132813-34.132812-18.855469.003906-34.128906 15.28125-34.136719 34.132812.007813 18.855469 15.28125 34.128906 34.136719 34.136719 18.851563-.003907 34.125-15.28125 34.132813-34.136719h-13.652344c-.023438 11.308594-9.175782 20.460938-20.480469 20.480469-11.308594-.019531-20.460937-9.171875-20.480469-20.480469.019532-11.304688 9.171875-20.457031 20.480469-20.476562 11.304687.019531 20.457031 9.171874 20.480469 20.476562zm0 0" fill="#54596e"/><path d="m116.507812 327.679688h27.304688v95.574218h-27.304688zm0 0" fill="#ff927d"/><path d="m212.078125 327.679688h27.308594v95.574218h-27.308594zm0 0" fill="#ff927d"/><path d="m164.292969 409.601562h27.308593v13.652344h-27.308593zm0 0" fill="#ff927d"/><path d="m82.375 211.625c0 15.082031-12.226562 27.308594-27.308594 27.308594-15.082031 0-27.304687-12.226563-27.304687-27.308594 0-15.078125 12.222656-27.304688 27.304687-27.304688 15.082032 0 27.308594 12.226563 27.308594 27.304688zm0 0" fill="#ffd578"/><path d="m82.375 211.625h6.824219c-.003907-18.851562-15.277344-34.128906-34.132813-34.132812-18.851562.003906-34.128906 15.28125-34.132812 34.132812.003906 18.855469 15.28125 34.128906 34.132812 34.136719 18.855469-.003907 34.128906-15.28125 34.132813-34.136719h-13.652344c-.019531 11.308594-9.171875 20.460938-20.480469 20.480469-11.304687-.019531-20.460937-9.171875-20.480468-20.480469.019531-11.304688 9.175781-20.457031 20.480468-20.476562 11.308594.019531 20.460938 9.171874 20.480469 20.476562zm0 0" fill="#54596e"/><path d="m177.949219 6.828125h-170.667969c0 32.386719 20.539062 59.898437 49.273438 70.441406-9.617188 17.730469-15.140626 37.789063-15.140626 59.105469v54.773438l136.535157 102.398437 136.53125-102.398437v-54.773438c0-71.546875-61.125-129.546875-136.53125-129.546875" fill="#bfad88"/><path d="m177.949219 6.828125v-6.828125h-170.667969c-1.800781 0-3.558594.730469-4.828125 2s-2 3.03125-2 4.828125c.011719 35.335937 22.414063 65.363281 53.75 76.847656l2.351563-6.40625-6.003907-3.257812c-10.121093 18.660156-15.964843 39.863281-15.964843 62.363281v54.773438c0 2.140624 1.015624 4.171874 2.730468 5.460937l136.53125 102.398437c2.425782 1.816407 5.769532 1.816407 8.195313 0l136.53125-102.398437c1.71875-1.289063 2.730469-3.320313 2.730469-5.460937v-54.773438c.007812-37.746094-16.15625-71.941406-42.117188-96.558594-25.957031-24.632812-61.773438-39.816406-101.238281-39.816406v13.652344c35.941406.003906 68.386719 13.816406 91.839843 36.070312 23.457032 22.273438 37.859376 52.851563 37.863282 86.652344v51.359375l-129.707032 97.277344-129.707031-97.277344v-51.359375c.003907-20.128906 5.207031-39.046875 14.316407-55.855469.941406-1.738281 1.082031-3.820312.382812-5.667969-.695312-1.84375-2.179688-3.316406-4.035156-3.996093-26.128906-9.59375-44.804688-34.59375-44.796875-64.027344h-6.824219v6.824219h170.664062v-6.824219" fill="#54596e"/><path d="m177.953125 389.121094c22.613281 0 40.957031-18.335938 40.957031-40.953125v-40.96875h-81.914062v40.96875c-.003906 22.617187 18.335937 40.953125 40.957031 40.953125" fill="#ffd578"/><path d="m177.953125 389.121094v6.824218c26.386719-.003906 47.773437-21.386718 47.78125-47.777343v-40.96875c0-1.796875-.726563-3.554688-1.996094-4.828125-1.277343-1.269532-3.035156-1.996094-4.832031-1.996094h-81.914062c-1.796876 0-3.554688.726562-4.828126 1.996094-1.269531 1.273437-2 3.03125-2 4.828125v40.96875c.007813 26.386719 21.394532 47.773437 47.789063 47.777343v-13.648437c-9.449219-.007813-17.9375-3.8125-24.136719-9.996094-6.1875-6.199219-9.996094-14.6875-9.996094-24.132812v-34.140625h68.257813v34.140625c0 9.445312-3.808594 17.929687-9.996094 24.132812-6.199219 6.183594-14.683593 9.988281-24.128906 9.996094z" fill="#54596e"/><path d="m218.820312 48.507812c-.90625 22.285157-43.273437 40.238282-95.488281 40.238282-13.019531 0-25.425781-1.125-36.738281-3.148438-15.425781 19.707032-24.699219 44.453125-24.699219 71.414063v61.441406c0 64.097656 51.960938 116.054687 116.054688 116.054687s116.050781-51.957031 116.050781-116.054687v-61.441406c0-49.683594-31.28125-91.957031-75.179688-108.503907" fill="#ffd578"/><g fill="#54596e"><path d="m218.820312 48.507812-6.820312-.277343c-.136719 3.367187-1.828125 7.058593-5.917969 11.089843-6.066406 6.011719-17.273437 11.914063-31.707031 16.007813-14.429688 4.132813-32.050781 6.597656-51.039062 6.59375-12.625 0-24.644532-1.097656-35.542969-3.042969-2.488281-.445312-5.015625.523438-6.574219 2.511719-16.316406 20.832031-26.15625 47.082031-26.152344 75.621094v61.441406c.003906 67.867187 55.015625 122.875 122.878906 122.878906 67.867188-.003906 122.875-55.011719 122.878907-122.878906v-61.441406c-.007813-52.613281-33.121094-97.382813-79.597657-114.890625-2.046874-.773438-4.351562-.515625-6.175781.695312-1.828125 1.207032-2.964843 3.226563-3.050781 5.414063l6.820312.277343-2.40625 6.386719c41.324219 15.589844 70.769532 55.363281 70.757813 102.117188v61.441406c-.003906 30.183594-12.214844 57.445313-31.992187 77.234375-19.785157 19.777344-47.050782 31.988281-77.230469 31.992188-30.1875-.003907-57.445313-12.214844-77.234375-31.992188-19.78125-19.789062-31.988282-47.050781-31.996094-77.234375v-61.441406c.007812-25.382813 8.714844-48.628907 23.25-67.203125l-5.375-4.210938-1.199219 6.722656c11.730469 2.09375 24.523438 3.253907 37.9375 3.253907 26.898438-.019531 51.285157-4.574219 69.636719-12.300781 9.183594-3.886719 16.890625-8.558594 22.667969-14.203126 5.742187-5.597656 9.6875-12.511718 10.003906-20.289062l-6.820313-.273438-2.40625 6.386719z"/><path d="m143.8125 211.625c0 18.851562 15.28125 34.136719 34.132812 34.136719 18.855469 0 34.132813-15.285157 34.132813-34.136719zm0 0"/><path d="m143.8125 211.625h-6.824219c0 22.625 18.332031 40.957031 40.957031 40.960938 22.628907-.003907 40.957032-18.335938 40.960938-40.960938 0-1.796875-.726562-3.554688-2-4.828125-1.269531-1.269531-3.027344-1.996094-4.828125-1.996094h-68.265625c-1.796875 0-3.554688.726563-4.828125 1.996094-1.269531 1.273437-1.996094 3.03125-1.996094 4.828125h6.824219v6.828125h68.265625v-6.828125h-6.824219c-.003906 7.5625-3.046875 14.347656-7.996094 19.308594-4.964843 4.953125-11.75 7.996094-19.3125 8-7.5625-.003906-14.34375-3.046875-19.308593-8-4.953125-4.960938-7.992188-11.746094-7.996094-19.308594h-6.828125v6.828125zm0 0"/><path d="m143.8125 146.773438c0 5.65625-4.582031 10.238281-10.238281 10.238281s-10.242188-4.582031-10.242188-10.238281 4.585938-10.238282 10.242188-10.238282 10.238281 4.582032 10.238281 10.238282zm0 0"/><path d="m232.558594 146.773438c0 5.65625-4.582032 10.238281-10.238282 10.238281s-10.242187-4.582031-10.242187-10.238281 4.585937-10.238282 10.242187-10.238282 10.238282 4.582032 10.238282 10.238282zm0 0"/><path d="m68.71875 389.121094v34.132812c0 3.769532 3.058594 6.824219 6.828125 6.824219s6.828125-3.054687 6.828125-6.824219v-34.132812c0-3.769532-3.058594-6.828125-6.828125-6.828125s-6.828125 3.058593-6.828125 6.828125"/><path d="m273.519531 389.121094v34.132812c0 3.769532 3.058594 6.824219 6.828125 6.824219 3.769532 0 6.824219-3.054687 6.824219-6.824219v-34.132812c0-3.769532-3.054687-6.828125-6.824219-6.828125-3.769531 0-6.828125 3.058593-6.828125 6.828125"/></g><path d="m61.894531 327.679688h27.304688v47.785156h-27.304688zm0 0" fill="#ff927d"/><path d="m266.691406 327.679688h27.308594v47.785156h-27.308594zm0 0" fill="#ff927d"/><path d="m191.601562 232.105469c0-3.769531-6.113281-6.824219-13.65625-6.824219-7.539062 0-13.652343 3.054688-13.652343 6.824219s6.113281 6.828125 13.652343 6.828125c7.542969 0 13.65625-3.058594 13.65625-6.828125zm0 0" fill="#ff927d"/><path d="m96.027344 211.625c-3.769532 0-6.828125 3.058594-6.828125 6.828125v63.683594c3.46875 4.820312 7.324219 9.351562 11.515625 13.546875.703125.703125 1.417968 1.398437 2.140625 2.082031v-79.3125c-.003907-3.769531-3.058594-6.828125-6.828125-6.828125" fill="#a99773"/><path d="m89.199219 282.136719v18.238281c0 3.769531 3.058593 6.824219 6.828125 6.824219 3.769531 0 6.824218-3.054688 6.824218-6.824219v-2.605469c-.722656-.683593-1.433593-1.378906-2.136718-2.082031-4.191406-4.195312-8.046875-8.726562-11.515625-13.550781" fill="#54596e"/><path d="m123.332031 245.761719c-3.769531 0-6.824219 3.054687-6.824219 6.824219v56.1875c4.335938 2.957031 8.898438 5.609374 13.652344 7.925781v-64.113281c0-3.769532-3.054687-6.824219-6.828125-6.824219" fill="#a99773"/><path d="m116.507812 308.773438v12.078124c0 3.773438 3.054688 6.828126 6.824219 6.828126s6.828125-3.054688 6.828125-6.828126v-4.152343c-4.753906-2.316407-9.316406-4.96875-13.652344-7.925781" fill="#54596e"/><path d="m150.640625 279.894531c-3.769531 0-6.828125 3.054688-6.828125 6.824219v35.523438c4.433594 1.457031 8.992188 2.636718 13.65625 3.519531v-39.042969c0-3.769531-3.058594-6.824219-6.828125-6.824219" fill="#a99773"/><path d="m143.8125 322.242188v5.4375c0 3.769531 3.058594 6.828124 6.828125 6.828124s6.824219-3.058593 6.824219-6.828124v-1.917969c-4.660156-.882813-9.21875-2.0625-13.652344-3.519531" fill="#54596e"/><path d="m259.867188 211.625c-3.769532 0-6.828126 3.058594-6.828126 6.828125v79.316406c.722657-.683593 1.4375-1.378906 2.140626-2.082031 4.191406-4.195312 8.046874-8.726562 11.511718-13.550781v-63.683594c0-3.769531-3.054687-6.828125-6.824218-6.828125" fill="#a99773"/><path d="m266.691406 282.136719c-3.464844 4.824219-7.320312 9.355469-11.511718 13.550781-.703126.703125-1.417969 1.398438-2.140626 2.082031v2.605469c0 3.769531 3.058594 6.824219 6.828126 6.824219 3.769531 0 6.824218-3.054688 6.824218-6.824219z" fill="#54596e"/><path d="m232.558594 245.761719c-3.769532 0-6.824219 3.054687-6.824219 6.824219v64.113281c4.753906-2.316407 9.316406-4.96875 13.652344-7.925781v-56.1875c0-3.769532-3.058594-6.824219-6.828125-6.824219" fill="#a99773"/><path d="m239.386719 308.773438c-4.339844 2.957031-8.898438 5.609374-13.652344 7.925781v4.152343c0 3.773438 3.054687 6.828126 6.824219 6.828126 3.773437 0 6.828125-3.054688 6.828125-6.828126z" fill="#54596e"/><path d="m205.253906 279.894531c-3.769531 0-6.824218 3.054688-6.824218 6.824219v39.042969c4.660156-.882813 9.21875-2.066407 13.652343-3.519531v-35.523438c-.003906-3.769531-3.058593-6.824219-6.828125-6.824219" fill="#a99773"/><path d="m212.078125 322.242188c-4.429687 1.457031-8.988281 2.636718-13.652344 3.519531v1.917969c0 3.769531 3.058594 6.828124 6.824219 6.828124 3.773438 0 6.828125-3.058593 6.828125-6.828124z" fill="#54596e"/><path d="m177.949219 266.242188c-3.769531 0-6.828125 3.054687-6.828125 6.824218v54.402344c2.257812.140625 4.535156.214844 6.828125.214844s4.566406-.074219 6.824219-.210938v-54.40625c0-3.769531-3.058594-6.824218-6.824219-6.824218" fill="#a99773"/><path d="m171.121094 327.46875v.210938c0 3.769531 3.054687 6.828124 6.824218 6.828124 3.769532 0 6.828126-3.058593 6.828126-6.828124v-.210938c-2.257813.140625-4.535157.210938-6.828126.210938-2.289062 0-4.566406-.070313-6.824218-.210938" fill="#54596e"/></svg>