<svg height="436pt" viewBox="-34 0 436 436.98347" width="436pt" xmlns="http://www.w3.org/2000/svg"><path d="m150.679688 286.71875h68.265624v81.921875h-68.265624zm0 0" fill="#ffd578"/><path d="m218.945312 368.640625v-6.828125h-61.441406v-68.265625h54.613282v75.09375h6.828124v-6.828125 6.828125h6.828126v-81.921875c0-1.796875-.730469-3.554688-2-4.828125-1.273438-1.269531-3.03125-1.996094-4.828126-1.996094h-68.265624c-1.796876 0-3.558594.726563-4.828126 1.996094-1.269531 1.273437-2 3.03125-2 4.828125v81.921875c0 1.796875.730469 3.554687 2 4.824219 1.273438 1.273437 3.03125 2 4.828126 2h68.265624c1.796876 0 3.554688-.726563 4.828126-2 1.269531-1.269532 2-3.027344 2-4.824219zm0 0" fill="#54596e"/><path d="m309.496094 320.851562h-49.867188l-74.820312 54.613282-74.816406-54.613282h-43.039063c-32.9375 0-59.632813 22.886719-59.632813 51.117188v58.109375h354.984376v-63.957031c0-25-23.640626-45.269532-52.808594-45.269532zm0 0" fill="#999"/><path d="m309.496094 320.851562v-6.824218h-49.867188c-1.460937 0-2.847656.453125-4.023437 1.3125l-70.796875 51.671875-70.792969-51.671875c-1.175781-.859375-2.566406-1.3125-4.023437-1.3125h-43.039063c-18.050781.003906-34.515625 6.257812-46.609375 16.613281-12.085938 10.324219-19.859375 25.007813-19.851562 41.328125v58.109375c0 1.800781.726562 3.558594 2 4.828125 1.269531 1.273438 3.027343 2 4.828124 2h354.984376c1.796874 0 3.554687-.726562 4.828124-2 1.269532-1.269531 2-3.027344 2-4.828125v-63.957031c.007813-14.707032-7.003906-27.925782-17.851562-37.195313-10.863281-9.300781-25.617188-14.894531-41.789062-14.898437v13.652344c13-.003907 24.648437 4.535156 32.902343 11.617187 8.265625 7.113281 13.074219 16.527344 13.082031 26.824219v57.132812h-341.332031v-51.28125c.007813-11.910156 5.582031-22.789062 15.085938-30.964844 9.484375-8.140624 22.84375-13.332031 37.726562-13.328124h40.808594l73.019531 53.300781c2.398438 1.75 5.652344 1.75 8.050782 0l73.019531-53.300781h47.640625zm0 0" fill="#54596e"/><path d="m123.371094 330.617188v99.460937h122.878906v-99.460937l-61.441406 44.847656zm0 0" fill="#fff"/><path d="m123.371094 330.617188h-6.824219v99.460937c0 1.796875.726563 3.554687 2 4.828125 1.269531 1.269531 3.027344 1.996094 4.824219 1.996094h122.878906c1.800781 0 3.558594-.726563 4.828125-1.996094 1.273437-1.273438 2-3.03125 2-4.828125v-99.460937c0-2.570313-1.445313-4.921876-3.734375-6.085938s-5.042969-.945312-7.117188.570312l-57.417968 41.910157-57.414063-41.90625c-2.074219-1.515625-4.824219-1.738281-7.117187-.574219-2.289063 1.167969-3.730469 3.519531-3.730469 6.085938h6.824219l-4.023438 5.515624 61.4375 44.84375c2.398438 1.75 5.652344 1.75 8.050782 0l50.589843-36.925781v79.199219h-109.226562v-92.632812h-6.828125l-4.023438 5.515624zm0 0" fill="#54596e"/><path d="m150.679688 375.464844-34.132813 13.65625-13.65625-68.269532h47.789063zm0 0" fill="#fff"/><path d="m150.679688 375.464844-2.539063-6.335938-26.511719 10.605469-10.410156-52.054687h32.632812v47.785156h6.828126l-2.539063-6.335938 2.539063 6.335938h6.824218v-54.613282c0-1.796874-.726562-3.554687-2-4.828124-1.269531-1.269532-3.027344-1.996094-4.824218-1.996094h-47.789063c-2.046875 0-3.980469.914062-5.277344 2.496094-1.300781 1.585937-1.816406 3.660156-1.414062 5.667968l13.652343 68.265625c.398438 1.984375 1.664063 3.699219 3.441407 4.664063 1.78125.964844 3.90625 1.089844 5.789062.335937l34.132813-13.652343c2.582031-1.035157 4.292968-3.558594 4.292968-6.339844zm0 0" fill="#54596e"/><path d="m218.945312 375.464844 34.132813 13.65625 13.652344-68.269532h-47.785157zm0 0" fill="#fff"/><path d="m218.945312 375.464844-2.535156 6.339844 34.132813 13.652343c1.878906.753907 4.007812.628907 5.785156-.335937 1.78125-.964844 3.046875-2.675782 3.445313-4.660156l13.652343-68.269532c.402344-2.007812-.117187-4.082031-1.414062-5.664062-1.300781-1.585938-3.230469-2.5-5.28125-2.5h-47.785157c-1.796874 0-3.558593.726562-4.828124 2-1.269532 1.269531-2 3.027344-2 4.828125v54.613281c0 2.78125 1.710937 5.304688 4.292968 6.339844l2.535156-6.34375h6.828126v-47.785156h32.632812l-10.410156 52.050781-26.515625-10.605469-2.535157 6.339844h6.828126zm0 0" fill="#54596e"/><path d="m164.320312 430.15625h40.960938l-9.101562-61.515625h-22.753907zm0 0" fill="#fff35f"/><path d="m164.320312 430.15625v6.828125h40.960938c1.976562 0 3.878906-.871094 5.167969-2.367187 1.289062-1.496094 1.875-3.503907 1.585937-5.457032l-9.101562-61.519531c-.492188-3.34375-3.371094-5.828125-6.753906-5.828125h-22.753907c-3.378906 0-6.257812 2.484375-6.753906 5.828125l-9.105469 61.515625c-.289062 1.953125.296875 3.964844 1.585938 5.460938 1.292968 1.496093 3.195312 2.363281 5.167968 2.363281v-6.824219l6.753907 1 8.242187-55.691406h10.972656l7.082032 47.863281h-33.050782v6.828125l6.753907 1zm0 0" fill="#54596e"/><path d="m314.519531 184.320312v-80.253906c0-53.703125-42.421875-97.242187-94.75-97.242187h-69.917969c-52.324218.003906-94.746093 43.539062-94.746093 97.242187v80.25" fill="#999"/><path d="m321.34375 184.320312v-80.253906c.003906-28.664062-11.332031-54.695312-29.6875-73.523437-18.339844-18.835938-43.804688-30.54687525-71.882812-30.542969h-69.921876c-28.078124-.00390625-53.546874 11.707031-71.882812 30.542969-18.355469 18.828125-29.691406 44.859375-29.691406 73.523437v80.25c0 3.773438 3.058594 6.828125 6.828125 6.828125s6.828125-3.054687 6.828125-6.828125v-80.25c0-25.039062 9.875-47.632812 25.8125-63.996094 15.953125-16.355468 37.859375-26.414062 62.105468-26.417968h69.921876c24.246093.003906 46.152343 10.0625 62.105468 26.417968 15.9375 16.363282 25.8125 38.957032 25.8125 63.996094v80.25c0 3.773438 3.058594 6.828125 6.828125 6.828125 3.769531.003907 6.824219-3.054687 6.824219-6.824219zm0 0" fill="#54596e"/><path d="m89.238281 184.320312c0 15.082032-12.226562 27.304688-27.304687 27.304688-15.082032 0-27.308594-12.222656-27.308594-27.304688 0-15.082031 12.226562-27.308593 27.308594-27.308593 15.078125 0 27.304687 12.226562 27.304687 27.308593zm0 0" fill="#ffd578"/><path d="m89.238281 184.320312h6.828125c-.007812-18.855468-15.28125-34.128906-34.132812-34.132812-18.855469.003906-34.128906 15.277344-34.136719 34.132812.007813 18.851563 15.28125 34.128907 34.136719 34.132813 18.851562-.003906 34.125-15.28125 34.132812-34.132813h-13.65625c-.019531 11.304688-9.171875 20.460938-20.476562 20.480469-11.308594-.019531-20.460938-9.175781-20.480469-20.480469.019531-11.308593 9.171875-20.460937 20.480469-20.480468 11.304687.019531 20.457031 9.171875 20.476562 20.480468zm0 0" fill="#54596e"/><path d="m335 184.320312c0 15.082032-12.226562 27.304688-27.308594 27.304688-15.082031 0-27.304687-12.222656-27.304687-27.304688 0-15.082031 12.222656-27.308593 27.304687-27.308593 15.082032 0 27.308594 12.226562 27.308594 27.308593zm0 0" fill="#ffd578"/><path d="m335 184.320312h6.824219c-.003907-18.855468-15.277344-34.128906-34.132813-34.132812-18.851562.003906-34.128906 15.277344-34.132812 34.132812.003906 18.851563 15.28125 34.128907 34.132812 34.132813 18.855469-.003906 34.128906-15.28125 34.132813-34.132813h-13.652344c-.019531 11.304688-9.171875 20.460938-20.480469 20.480469-11.304687-.019531-20.460937-9.175781-20.480468-20.480469.019531-11.308593 9.175781-20.460937 20.480468-20.480468 11.308594.019531 20.460938 9.171875 20.480469 20.480468zm0 0" fill="#54596e"/><path d="m194.773438 68.265625h-19.925782c-62.363281 0-112.914062-16.304687-112.914062 47.789063v85.332031c0 48.8125 26.984375 91.074219 66.417968 112.097656 0 15.378906 12.132813 27.847656 27.101563 27.847656h58.71875c14.96875 0 27.101563-12.46875 27.101563-27.847656 39.433593-21.023437 66.417968-63.289063 66.417968-112.097656v-85.332031c0-64.09375-50.554687-47.789063-112.917968-47.789063zm0 0" fill="#ffd578"/><g fill="#54596e"><path d="m194.773438 68.265625v-6.824219h-19.925782c-20.640625.003906-40.230468-1.847656-57.578125-1.855468-8.53125.003906-16.535156.449218-23.953125 1.910156-5.554687 1.105468-10.800781 2.789062-15.578125 5.390625-7.179687 3.863281-13.175781 9.964843-16.972656 18.191406-3.832031 8.226563-5.652344 18.375-5.660156 30.976563v85.332031c.003906 51.363281 28.398437 95.929687 70.035156 118.121093l3.210937-6.023437h-6.828124c0 9.5 3.761718 18.179687 9.875 24.453125 6.09375 6.28125 14.648437 10.226562 24.054687 10.222656h58.71875c9.402344.003906 17.957031-3.941406 24.054687-10.222656 6.113282-6.273438 9.875-14.953125 9.871094-24.453125h-6.824218l3.210937 6.023437c41.632813-22.191406 70.027344-66.757812 70.035156-118.121093v-85.332031c-.007812-11.207032-1.449219-20.457032-4.457031-28.167969-2.25-5.769531-5.429688-10.652344-9.394531-14.535157-5.953125-5.859374-13.464844-9.3125-21.613281-11.253906-8.175782-1.953125-17.105469-2.507812-26.703126-2.511718-17.34375.007812-36.9375 1.863281-57.578124 1.855468v13.652344c21.425781-.007812 41.207031-1.867188 57.578124-1.855469 8.039063-.003906 15.234376.445313 21.300782 1.652344 4.554687.902344 8.453125 2.214844 11.703125 3.988281 4.867187 2.691406 8.40625 6.230469 11.132812 11.976563 2.691407 5.746093 4.382813 13.90625 4.375 25.203125v85.332031c.007813 46.253906-25.570312 86.21875-62.804687 106.070313-2.226563 1.191406-3.613282 3.5-3.613282 6.027343-.003906 5.878907-2.308593 11.125-6.003906 14.929688-3.710937 3.800781-8.707031 6.085937-14.269531 6.09375h-58.71875c-5.566406-.007813-10.558594-2.292969-14.269531-6.09375-3.699219-3.804688-6.003906-9.050781-6.003906-14.929688 0-2.527343-1.386719-4.835937-3.617188-6.027343-37.234375-19.855469-62.808594-59.820313-62.804688-106.074219v-85.332031c-.003906-10.035157 1.328126-17.613282 3.519532-23.191407 1.648437-4.199219 3.734375-7.296875 6.246094-9.773437 3.757812-3.6875 8.695312-6.140625 15.226562-7.714844 6.503906-1.570312 14.476562-2.144531 23.519531-2.140625 16.371094-.011719 36.15625 1.847656 57.578125 1.855469h19.925782zm0 0"/><path d="m130.199219 143.359375c-22.621094 0-40.960938 3.058594-40.960938 6.828125v32.855469c0 12.015625 11.691407 21.757812 26.109375 21.757812h29.699219c14.421875 0 26.113281-9.742187 26.113281-21.757812v-32.855469c0-3.769531-18.339844-6.828125-40.960937-6.828125zm0 0"/><path d="m239.425781 143.359375c-22.621093 0-40.960937 3.058594-40.960937 6.828125v32.855469c0 12.015625 11.691406 21.757812 26.109375 21.757812h29.699219c14.421874 0 26.113281-9.742187 26.113281-21.757812v-32.855469c0-3.769531-18.339844-6.828125-40.960938-6.828125zm0 0"/><path d="m153.734375 251.863281 12.203125-6.105469h37.742188l12.214843 6.105469c3.371094 1.6875 7.472657.320313 9.160157-3.050781 1.683593-3.375.316406-7.472656-3.054688-9.160156l-13.652344-6.824219c-.929687-.464844-2.015625-.722656-3.054687-.722656h-40.964844c-1.082031 0-2.089844.238281-3.054687.722656l-13.648438 6.824219c-3.371094 1.6875-4.738281 5.789062-3.050781 9.160156 1.6875 3.375 5.785156 4.738281 9.160156 3.050781zm0 0"/><path d="m68.757812 170.667969h232.105469c3.773438 0 6.828125-3.058594 6.828125-6.828125 0-3.769532-3.054687-6.828125-6.828125-6.828125h-232.105469c-3.769531 0-6.824218 3.058593-6.824218 6.828125 0 3.769531 3.054687 6.828125 6.824218 6.828125"/><path d="m177.984375 327.679688v13.652343c0 3.769531 3.058594 6.828125 6.828125 6.828125s6.824219-3.058594 6.824219-6.828125v-13.652343c0-3.769532-3.054688-6.828126-6.824219-6.828126s-6.828125 3.058594-6.828125 6.828126"/></g></svg>