<svg height="436pt" viewBox="-41 0 436 436.98347" width="436pt" xmlns="http://www.w3.org/2000/svg"><path d="m295.84375 307.199219h-228.894531c-32.933594 0-59.628907 22.886719-59.628907 51.117187v71.761719h341.332032v-77.613281c-.003906-25-23.648438-45.265625-52.808594-45.265625zm0 0" fill="#a1b7ff"/><path d="m295.84375 307.199219v-6.824219h-228.894531c-18.050781.003906-34.511719 6.253906-46.605469 16.613281-12.085938 10.328125-19.859375 25.007813-19.851562 41.328125v71.761719c0 1.800781.726562 3.558594 2 4.828125 1.269531 1.273438 3.027343 2 4.828124 2h341.332032c1.796875 0 3.554687-.726562 4.824218-2 1.273438-1.269531 2-3.027344 2-4.828125v-77.613281c.011719-14.703125-7.003906-27.921875-17.851562-37.191406-10.859375-9.300782-25.613281-14.898438-41.777344-14.898438v13.652344c12.992188-.003906 24.640625 4.53125 32.894532 11.613281 8.265624 7.117187 13.074218 16.53125 13.085937 26.828125v70.785156h-327.6875v-64.9375c.007813-11.910156 5.582031-22.785156 15.085937-30.960937 9.484376-8.140625 22.839844-13.332031 37.722657-13.328125h228.894531zm0 0" fill="#54596e"/><path d="m116.542969 330.617188v99.460937h122.878906v-99.460937l-61.4375 44.847656zm0 0" fill="#fff"/><path d="m116.542969 330.617188h-6.828125v99.460937c0 1.796875.730468 3.554687 2.003906 4.828125 1.269531 1.269531 3.027344 1.996094 4.824219 1.996094h122.878906c1.796875 0 3.554687-.726563 4.828125-1.996094 1.269531-1.273438 2-3.03125 2-4.828125v-99.460937c0-2.570313-1.445312-4.921876-3.734375-6.085938s-5.042969-.945312-7.117187.570312l-57.414063 41.910157-57.414063-41.90625c-2.078124-1.515625-4.828124-1.738281-7.117187-.574219s-3.734375 3.519531-3.734375 6.085938h6.824219l-4.023438 5.515624 61.441407 44.84375c2.394531 1.75 5.652343 1.75 8.046874 0l50.589844-36.925781v79.199219h-109.226562v-92.632812h-6.828125l-4.023438 5.515624zm0 0" fill="#54596e"/><path d="m157.496094 430.15625h40.960937l-9.105469-61.515625h-22.753906zm0 0" fill="#999"/><path d="m157.496094 430.15625v6.828125h40.960937c1.972657 0 3.878907-.871094 5.167969-2.367187 1.289062-1.496094 1.875-3.507813 1.582031-5.460938l-9.105469-61.515625c-.496093-3.34375-3.375-5.828125-6.753906-5.828125h-22.753906c-3.378906 0-6.257812 2.484375-6.753906 5.828125l-9.097656 61.519531c-.289063 1.953125.292968 3.960938 1.585937 5.457032 1.289063 1.496093 3.191406 2.367187 5.167969 2.367187v-6.828125l6.753906 1 8.234375-55.691406h10.972656l7.085938 47.867187h-33.046875v6.824219l6.753906 1zm0 0" fill="#54596e"/><path d="m143.851562 361.8125-34.136718 13.652344-13.652344-68.265625h47.789062zm0 0" fill="#fff"/><path d="m143.851562 361.8125-2.539062-6.335938-26.511719 10.601563-10.410156-52.050781h32.632813v47.785156h6.828124l-2.539062-6.335938 2.539062 6.335938h6.824219v-54.613281c0-1.796875-.726562-3.554688-2-4.828125-1.269531-1.269532-3.027343-1.996094-4.824219-1.996094h-47.789062c-2.050781 0-3.980469.910156-5.28125 2.496094-1.296875 1.585937-1.8125 3.65625-1.414062 5.667968l13.652343 68.265626c.398438 1.984374 1.664063 3.699218 3.445313 4.664062 1.777344.960938 3.90625 1.085938 5.785156.335938l34.132812-13.65625c2.582032-1.03125 4.292969-3.554688 4.292969-6.335938zm0 0" fill="#54596e"/><path d="m212.117188 361.8125 34.132812 13.652344 13.652344-68.265625h-47.785156zm0 0" fill="#fff"/><path d="m212.117188 361.8125-2.535157 6.339844 34.132813 13.652344c1.878906.75 4.007812.628906 5.785156-.335938 1.78125-.964844 3.046875-2.675781 3.445312-4.664062l13.652344-68.265626c.398438-2.007812-.117187-4.082031-1.414062-5.664062-1.300782-1.585938-3.230469-2.5-5.28125-2.5h-47.785156c-1.796876 0-3.558594.726562-4.828126 2-1.273437 1.269531-2 3.027344-2 4.828125v54.613281c0 2.78125 1.710938 5.304688 4.292969 6.335938l2.535157-6.339844h6.828124v-47.789062h32.632813l-10.414063 52.054687-26.511718-10.605469-2.535156 6.339844h6.828124zm0 0" fill="#54596e"/><path d="m177.984375 368.640625c-18.855469 0-34.132813-15.285156-34.132813-34.132813v-13.65625c0-18.847656 15.277344-34.132812 34.132813-34.132812 18.851563 0 34.132813 15.285156 34.132813 34.132812v13.65625c0 18.847657-15.28125 34.132813-34.132813 34.132813zm0 0" fill="#ffd578"/><path d="m177.984375 368.640625v-6.828125c-7.566406-.003906-14.347656-3.046875-19.308594-8-4.953125-4.960938-7.996093-11.746094-8-19.304688v-13.65625c.003907-7.558593 3.046875-14.34375 8-19.308593 4.960938-4.949219 11.746094-7.992188 19.308594-7.996094 7.5625 0 14.34375 3.042969 19.308594 7.996094 4.953125 4.964843 7.992187 11.75 7.996093 19.308593v13.65625c-.003906 7.558594-3.042968 14.34375-7.996093 19.304688-4.964844 4.953125-11.746094 7.996094-19.308594 8v13.652344c22.625 0 40.953125-18.335938 40.960937-40.957032v-13.65625c-.007812-22.621093-18.335937-40.953124-40.960937-40.957031-22.628906.003907-40.957031 18.335938-40.960937 40.957031v13.65625c.003906 22.621094 18.332031 40.953126 40.960937 40.957032zm0 0" fill="#54596e"/><path d="m82.410156 184.320312c0 15.082032-12.226562 27.304688-27.308594 27.304688-15.078124 0-27.304687-12.222656-27.304687-27.304688 0-15.082031 12.226563-27.308593 27.304687-27.308593 15.082032 0 27.308594 12.226562 27.308594 27.308593zm0 0" fill="#ffd578"/><path d="m82.410156 184.320312h6.828125c-.007812-18.855468-15.28125-34.128906-34.136719-34.132812-18.851562.003906-34.125 15.277344-34.132812 34.132812.007812 18.851563 15.28125 34.128907 34.132812 34.132813 18.855469-.003906 34.128907-15.28125 34.136719-34.132813h-13.65625c-.019531 11.304688-9.171875 20.460938-20.480469 20.480469-11.304687-.019531-20.457031-9.175781-20.476562-20.480469.019531-11.308593 9.171875-20.460937 20.476562-20.480468 11.308594.019531 20.460938 9.171875 20.480469 20.480468zm0 0" fill="#54596e"/><path d="m328.171875 184.320312c0 15.082032-12.226563 27.304688-27.308594 27.304688s-27.304687-12.222656-27.304687-27.304688c0-15.082031 12.222656-27.308593 27.304687-27.308593s27.308594 12.226562 27.308594 27.308593zm0 0" fill="#ffd578"/><path d="m328.171875 184.320312h6.824219c-.003906-18.855468-15.277344-34.128906-34.132813-34.132812-18.851562.003906-34.128906 15.277344-34.132812 34.132812.003906 18.851563 15.28125 34.128907 34.132812 34.132813 18.855469-.003906 34.128907-15.28125 34.132813-34.132813h-13.652344c-.019531 11.304688-9.171875 20.460938-20.480469 20.480469-11.304687-.019531-20.460937-9.175781-20.480469-20.480469.019532-11.308593 9.175782-20.460937 20.480469-20.480468 11.308594.019531 20.460938 9.171875 20.480469 20.480468zm0 0" fill="#54596e"/><path d="m218.855469 41.679688c-.90625 22.285156-43.273438 40.242187-95.484375 40.242187-13.019532 0-25.425782-1.128906-36.742188-3.148437-15.425781 19.703124-24.699218 44.449218-24.699218 71.414062v61.4375c0 64.09375 51.960937 116.054688 116.054687 116.054688s116.050781-51.960938 116.050781-116.054688v-61.4375c0-49.6875-31.277344-91.957031-75.179687-108.507812zm0 0" fill="#ffd578"/><g fill="#54596e"><path d="m218.855469 41.679688-6.820313-.277344c-.136718 3.367187-1.828125 7.054687-5.917968 11.089844-6.066407 6.011718-17.273438 11.914062-31.707032 16.007812-14.429687 4.132812-32.050781 6.597656-51.039062 6.59375-12.628906 0-24.644532-1.097656-35.539063-3.042969-2.488281-.441406-5.019531.523438-6.578125 2.511719-16.316406 20.832031-26.152344 47.082031-26.152344 75.625v61.4375c.003907 67.867188 55.015626 122.875 122.882813 122.882812 67.863281-.003906 122.875-55.015624 122.878906-122.882812v-61.4375c-.007812-52.617188-33.121093-97.386719-79.597656-114.894531-2.050781-.773438-4.351563-.515625-6.175781.695312-1.828125 1.210938-2.964844 3.226563-3.054688 5.414063l6.820313.277344-2.40625 6.386718c41.324219 15.59375 70.769531 55.363282 70.761719 102.121094v61.4375c-.003907 30.183594-12.214844 57.449219-31.992188 77.234375-19.789062 19.777344-47.054688 31.988281-77.234375 31.992187-30.183594 0-57.449219-12.214843-77.234375-31.992187-19.777344-19.789063-31.988281-47.050781-31.992188-77.234375v-61.4375c.003907-25.386719 8.710938-48.628906 23.246094-67.207031l-5.375-4.207031-1.199218 6.71875c11.730468 2.09375 24.527343 3.253906 37.941406 3.253906 26.898437-.015625 51.28125-4.570313 69.636718-12.300782 9.179688-3.882812 16.886719-8.554687 22.664063-14.199218 5.742187-5.601563 9.6875-12.515625 10.003906-20.289063l-6.820312-.277343-2.40625 6.386718zm0 0"/><path d="m140.796875 279.171875 13.644531 6.828125c.964844.480469 1.976563.71875 3.054688.71875h40.96875c1.078125 0 2.085937-.238281 3.050781-.71875l13.65625-6.828125c3.371094-1.6875 4.738281-5.789063 3.050781-9.160156-1.6875-3.371094-5.785156-4.738281-9.15625-3.054688l-12.214844 6.105469h-37.742187l-12.203125-6.105469c-3.375-1.6875-7.476562-.320312-9.160156 3.054688-1.6875 3.371093-.324219 7.472656 3.050781 9.160156zm0 0"/><path d="m130.195312 208.214844c0 5.652344-4.582031 10.238281-10.238281 10.238281s-10.242187-4.585937-10.242187-10.238281c0-5.65625 4.585937-10.242188 10.242187-10.242188s10.238281 4.585938 10.238281 10.242188zm0 0"/><path d="m246.25 208.214844c0 5.652344-4.585938 10.238281-10.238281 10.238281-5.65625 0-10.242188-4.585937-10.242188-10.238281 0-5.65625 4.585938-10.242188 10.242188-10.242188 5.652343 0 10.238281 4.585938 10.238281 10.242188zm0 0"/></g><path d="m184.808594 6.828125h-13.652344c-64.09375 0-116.054688 51.957031-116.054688 116.050781v6.828125h245.761719v-6.828125c0-64.09375-51.960937-116.050781-116.054687-116.050781zm0 0" fill="#a1b7ff"/><path d="m184.808594 6.828125v-6.828125h-13.652344c-67.867188.00390625-122.875 55.011719-122.878906 122.878906v6.828125c0 1.796875.726562 3.554688 2 4.824219 1.269531 1.273438 3.027344 2 4.824218 2h245.761719c1.796875 0 3.554688-.726562 4.828125-2 1.269532-1.269531 2-3.027344 2-4.824219v-6.828125c-.007812-67.867187-55.015625-122.87499975-122.882812-122.878906v13.652344c30.183594.003906 57.449218 12.21875 77.234375 31.996094 19.777343 19.785156 31.992187 47.046874 31.992187 77.230468h-232.105468c.003906-30.183594 12.214843-57.445312 31.992187-77.234375 19.789063-19.777343 47.050781-31.988281 77.234375-31.992187h13.652344zm0 0" fill="#54596e"/><path d="m300.863281 129.707031c0 30.160157-55.011719 54.613281-122.878906 54.613281-67.863281 0-122.882813-24.453124-122.882813-54.613281" fill="#a1b7ff"/><path d="m294.035156 129.707031c-.007812 5.386719-2.390625 10.855469-7.773437 16.550781-8.015625 8.496094-22.664063 16.566407-41.539063 22.195313-18.867187 5.671875-41.90625 9.042969-66.738281 9.039063-33.101563.019531-63.046875-6.019532-84.117187-15.40625-10.535157-4.671876-18.808594-10.183594-24.160157-15.828126-5.386719-5.695312-7.769531-11.164062-7.777343-16.550781 0-3.769531-3.054688-6.824219-6.828126-6.824219-3.769531 0-6.824218 3.054688-6.824218 6.824219-.011719 9.695313 4.484375 18.59375 11.539062 25.964844 10.636719 11.105469 27.152344 19.714844 47.503906 25.859375 20.355469 6.109375 44.597657 9.613281 70.664063 9.617188 34.761719-.019532 66.257813-6.207032 89.664063-16.585938 11.699218-5.214844 21.421874-11.46875 28.503906-18.890625 7.054687-7.375 11.546875-16.269531 11.539062-25.964844 0-3.769531-3.058594-6.824219-6.828125-6.824219-3.769531-.003906-6.828125 3.050782-6.828125 6.824219zm0 0" fill="#54596e"/><path d="m61.929688 136.535156h232.105468c3.773438 0 6.828125-3.058594 6.828125-6.828125s-3.054687-6.828125-6.828125-6.828125h-232.105468c-3.769532 0-6.828126 3.058594-6.828126 6.828125s3.058594 6.828125 6.828126 6.828125" fill="#54596e"/><path d="m143.851562 68.265625h68.265626v27.308594h-68.265626zm0 0" fill="#fff"/><path d="m212.117188 95.574219v-6.828125h-61.441407v-13.65625h54.613281v20.484375h6.828126v-6.828125 6.828125h6.828124v-27.308594c0-1.796875-.730468-3.554687-2.003906-4.828125-1.269531-1.269531-3.027344-1.996094-4.824218-1.996094h-68.265626c-1.796874 0-3.558593.726563-4.828124 1.996094-1.273438 1.273438-2 3.03125-2 4.828125v27.308594c0 1.796875.730468 3.554687 2 4.824219 1.273437 1.273437 3.03125 2 4.828124 2h68.265626c1.796874 0 3.554687-.726563 4.824218-2 1.273438-1.269532 2.003906-3.027344 2.003906-4.824219zm0 0" fill="#54596e"/></svg>