<svg height="436pt" viewBox="-41 0 436 436.90667" width="436pt" xmlns="http://www.w3.org/2000/svg"><path d="m334.960938 177.492188c0-15.078126-12.226563-27.304688-27.308594-27.304688-15.078125 0-27.304688 12.226562-27.304688 27.304688 0 15.082031 12.226563 27.308593 27.304688 27.308593 15.082031 0 27.308594-12.226562 27.308594-27.308593" fill="#ffd578"/><path d="m334.960938 177.492188h6.824218c-.003906-18.851563-15.277344-34.128907-34.132812-34.132813-18.851563.003906-34.128906 15.28125-34.132813 34.132813.003907 18.855468 15.28125 34.128906 34.132813 34.132812 18.855468-.003906 34.128906-15.277344 34.132812-34.132812h-13.652344c-.019531 11.304687-9.171874 20.457031-20.480468 20.480468-11.304688-.023437-20.457032-9.175781-20.480469-20.480468.023437-11.304688 9.175781-20.460938 20.480469-20.480469 11.308594.019531 20.460937 9.175781 20.480468 20.480469z" fill="#54596e"/><path d="m295.808594 341.332031h-83.730469v-68.265625h-68.265625v68.265625h-76.898438c-32.933593 0-59.632812 22.886719-59.632812 51.117188v37.628906h341.332031v-43.480469c0-24.996094-23.644531-45.265625-52.804687-45.265625zm0 0" fill="#ffd578"/><path d="m295.808594 341.332031v-6.824219h-76.902344v-61.441406c0-1.796875-.726562-3.554687-2-4.828125-1.269531-1.269531-3.027344-2-4.828125-2h-68.265625c-1.796875 0-3.554688.730469-4.828125 2-1.269531 1.269531-1.996094 3.03125-1.996094 4.828125v61.441406h-70.074219c-18.054687.003907-34.515624 6.253907-46.609374 16.613282-12.085938 10.328125-19.859376 25.007812-19.851563 41.332031v37.625c0 1.800781.730469 3.558594 2 4.828125 1.273437 1.273438 3.03125 2 4.828125 2h341.332031c1.796875 0 3.554688-.726562 4.828125-2 1.269532-1.269531 2-3.027344 2-4.828125v-43.480469c.007813-14.703125-7.003906-27.921875-17.851562-37.191406-10.863282-9.300781-25.617188-14.894531-41.78125-14.898438v13.652344c12.992187-.003906 24.640625 4.53125 32.894531 11.617188 8.265625 7.113281 13.078125 16.527344 13.085937 26.824218v36.652344h-327.683593v-30.804687c.007812-11.910157 5.582031-22.785157 15.085937-30.960938 9.484375-8.140625 22.839844-13.335937 37.722656-13.328125h76.898438c1.796875 0 3.554688-.730468 4.828125-2 1.269531-1.269531 2-3.03125 2-4.828125v-61.4375h54.613281v61.4375c0 1.796875.726563 3.554688 2 4.828125 1.269532 1.269532 3.027344 2 4.824219 2h83.730469zm0 0" fill="#54596e"/><path d="m75.546875 177.492188c0-15.078126-12.226563-27.304688-27.308594-27.304688-15.078125 0-27.304687 12.226562-27.304687 27.304688 0 15.082031 12.226562 27.308593 27.304687 27.308593 15.082031 0 27.308594-12.226562 27.308594-27.308593" fill="#ffd578"/><path d="m75.546875 177.492188h6.828125c-.007812-18.851563-15.28125-34.128907-34.136719-34.132813-18.851562.003906-34.125 15.28125-34.132812 34.132813.007812 18.855468 15.277343 34.128906 34.132812 34.132812 18.855469-.003906 34.128907-15.277344 34.136719-34.132812h-13.65625c-.019531 11.304687-9.171875 20.457031-20.480469 20.480468-11.304687-.023437-20.457031-9.175781-20.476562-20.480468.019531-11.304688 9.171875-20.460938 20.476562-20.480469 11.308594.019531 20.460938 9.175781 20.480469 20.480469z" fill="#54596e"/><path d="m300.828125 184.320312 6.824219-80.253906c0-53.703125-42.417969-97.238281-94.746094-97.238281h-69.921875c-52.324219 0-94.746094 43.535156-94.746094 97.238281l6.828125 80.253906z" fill="#999"/><path d="m307.628906 184.898438 6.824219-80.253907.027344-.578125c0-28.664062-11.335938-54.691406-29.6875-73.523437-18.339844-18.835938-43.808594-30.54687525-71.886719-30.542969h-69.921875c-28.078125-.00390625-53.542969 11.707031-71.886719 30.542969-18.351562 18.832031-29.6875 44.859375-29.683594 73.523437l.023438.578125 6.828125 80.253907c.316406 3.753906 3.621094 6.542968 7.378906 6.222656 3.753907-.320313 6.542969-3.625 6.222657-7.378906l-6.824219-80.253907-6.804688.578125h6.828125c.003906-25.039062 9.875-47.628906 25.8125-63.996094 15.953125-16.355468 37.859375-26.410156 62.105469-26.417968h69.921875c24.246094.007812 46.152344 10.0625 62.105469 26.417968 15.9375 16.367188 25.8125 38.957032 25.8125 63.996094h6.828125l-6.804688-.578125-6.824218 80.253907c-.320313 3.753906 2.464843 7.058593 6.222656 7.378906 3.757812.320312 7.0625-2.464844 7.382812-6.222656" fill="#54596e"/><path d="m132.675781 122.878906c-67.863281 0-77.609375-61.039062-77.609375 6.828125v56.753907c0 30.269531 13.960938 69.988281 37.707032 99.191406 17.992187 22.125 50.597656 35.199218 85.171874 35.199218 34.574219 0 67.183594-13.074218 85.175782-35.199218 23.746094-29.203125 37.707031-68.921875 37.707031-99.191406v-56.753907c0-67.867187-100.289063-6.828125-168.152344-6.828125" fill="#ffd578"/><g fill="#54596e"><path d="m132.675781 122.878906v-6.824218c-20.480469-.023438-34.949219-5.832032-45.722656-11.757813-5.390625-2.976563-9.796875-5.988281-13.652344-8.449219-1.933593-1.230468-3.730469-2.335937-5.617187-3.25-1.890625-.882812-3.90625-1.722656-6.679688-1.757812-1.523437-.011719-3.289062.351562-4.84375 1.199218-1.363281.726563-2.484375 1.765626-3.316406 2.839844-1.453125 1.914063-2.171875 3.867188-2.734375 5.957032-.816406 3.144531-1.222656 6.765624-1.503906 11.457031-.261719 4.675781-.367188 10.382812-.367188 17.414062v56.753907c.015625 16.179687 3.683594 34.355468 10.375 52.375 6.707031 18.011718 16.449219 35.851562 28.863281 51.125 9.863282 12.117187 23.476563 21.503906 39.074219 27.902343 15.609375 6.394531 33.246094 9.8125 51.394531 9.816407 18.148438-.003907 35.785157-3.421876 51.390626-9.816407 15.601562-6.398437 29.214843-15.785156 39.078124-27.902343 12.414063-15.273438 22.15625-33.113282 28.859376-51.125 6.695312-18.019532 10.367187-36.195313 10.375-52.375v-56.753907c0-6.65625-.867188-12.480469-2.714844-17.570312-2.714844-7.640625-7.96875-13.476563-14.496094-16.789063-6.519531-3.355468-13.976562-4.5-21.96875-4.511718-19.144531.0625-42.351562 6.566406-66.457031 12.832031-24.027344 6.304687-48.820313 12.417969-69.339844 12.382812v13.65625c23.097656-.03125 48.617187-6.53125 72.792969-12.828125 24.09375-6.34375 46.976562-12.445312 63.003906-12.386718 4.433594-.003907 8.300781.449218 11.457031 1.339843 4.769531 1.386719 7.820313 3.457031 10.136719 6.867188 2.300781 3.429687 3.9375 8.777343 3.9375 17.007812v56.753907c.011719 14.09375-3.296875 30.910156-9.523438 47.613281-6.207031 16.71875-15.320312 33.339843-26.652343 47.273437-8.128907 10-19.816407 18.214844-33.664063 23.882813-13.835937 5.679687-29.785156 8.800781-46.214844 8.796875-16.425781.003906-32.375-3.117188-46.214843-8.796875-13.847657-5.667969-25.535157-13.882813-33.660157-23.882813-11.335937-13.933594-20.445312-30.554687-26.65625-47.273437-6.222656-16.703125-9.53125-33.519531-9.519531-47.613281v-56.753907c-.015625-11.980469.347657-19.863281 1.097657-23.902343.179687-1 .375-1.738282.53125-2.1875l.199218-.496094-2.171875-1.253906 1.296875 2.070312c.621094-.390625.875-.8125.875-.816406l-2.171875-1.253906 1.296875 2.070312-1.84375-2.945312v3.5l1.84375-.554688-1.84375-2.945312v3.5-1.808594l-.300781 1.789062.300781.019532v-1.808594l-.300781 1.789062.03125-.1875-.042969.1875h.011719l.03125-.1875-.042969.1875c.082032 0 .949219.316406 2.15625 1.003906 2.148438 1.1875 5.355469 3.371094 9.339844 5.902344 11.980469 7.652344 31.515625 18.378906 60.484375 18.332032v-6.832032"/><path d="m130.160156 160.429688c0-5.660157-4.585937-10.242188-10.238281-10.242188-5.65625 0-10.242187 4.585938-10.242187 10.242188 0 5.652343 4.585937 10.238281 10.242187 10.238281 5.652344 0 10.238281-4.585938 10.238281-10.238281"/><path d="m246.214844 160.429688c0-5.660157-4.585938-10.242188-10.242188-10.242188-5.652344 0-10.238281 4.585938-10.238281 10.242188 0 5.652343 4.585937 10.238281 10.238281 10.238281s10.242188-4.585938 10.242188-10.238281"/><path d="m68.71875 389.121094v34.132812c0 3.769532 3.058594 6.824219 6.828125 6.824219s6.828125-3.054687 6.828125-6.824219v-34.132812c0-3.769532-3.058594-6.828125-6.828125-6.828125s-6.828125 3.058593-6.828125 6.828125"/><path d="m273.519531 389.121094v34.132812c0 3.769532 3.058594 6.824219 6.828125 6.824219 3.769532 0 6.824219-3.054687 6.824219-6.824219v-34.132812c0-3.769532-3.054687-6.828125-6.824219-6.828125-3.769531 0-6.828125 3.058593-6.828125 6.828125"/></g><path d="m116.507812 191.148438c0-7.542969-6.113281-13.65625-13.65625-13.65625-7.539062 0-13.652343 6.113281-13.652343 13.65625 0 7.539062 6.113281 13.652343 13.652343 13.652343 7.542969 0 13.65625-6.113281 13.65625-13.652343" fill="#ff927d"/><path d="m102.851562 204.800781c-7.539062 0-13.652343-6.113281-13.652343-13.652343 0-7.542969 6.113281-13.65625 13.652343-13.65625 7.542969 0 13.65625 6.113281 13.65625 13.65625 0 7.539062-6.113281 13.652343-13.65625 13.652343m17.070313-34.132812c-5.65625 0-10.238281-4.585938-10.238281-10.242188s4.585937-10.238281 10.238281-10.238281 10.238281 4.582031 10.238281 10.238281-4.585937 10.242188-10.238281 10.242188m116.050781 0c-5.652344 0-10.238281-4.585938-10.238281-10.242188s4.585937-10.238281 10.238281-10.238281 10.242188 4.582031 10.242188 10.238281-4.585938 10.242188-10.242188 10.242188m20.96875-47.789063h-75.457031c-16.601563 3.851563-33.257813 6.804688-48.808594 6.828125-.070312 0-.132812 0-.199219 0-14.90625 0-27.3125-2.855469-37.46875-6.667969-13.933593 1.144532-25.992187 8.269532-33.113281 18.5625v44.859376c-.003906 3.164062.160157 6.46875.488281 9.875 7.171876 9.257812 18.941407 15.289062 32.246094 15.289062h50.644532c7.273437 0 13.167968-5.414062 13.167968-12.101562 0-6.683594 5.894532-12.101563 13.167969-12.101563h12.679687c7.273438 0 13.164063 5.417969 13.164063 12.101563 0 6.6875 12.71875 12.101562 19.996094 12.101562h43.820312c13.300781 0 25.070313-6.03125 32.242188-15.289062.324219-3.40625.492187-6.707032.488281-9.875v-44.859376c-7.785156-11.253906-21.472656-18.722656-37.058594-18.722656" fill="#ccc7a1"/><path d="m294 141.601562v44.859376c0 3.164062-.164062 6.46875-.488281 9.875 4.605469-5.945313 7.316406-13.21875 7.316406-21.070313v-12.046875c0-7.953125-2.503906-15.367188-6.828125-21.617188m-232.105469 0c-4.324219 6.25-6.828125 13.664063-6.828125 21.617188v12.046875c0 7.851563 2.710938 15.125 7.316406 21.070313-.328124-3.40625-.492187-6.707032-.488281-9.871094zm119.585938-18.722656h-82.527344c-1.328125 0-2.644531.054688-3.945313.160156 10.15625 3.8125 22.558594 6.667969 37.464844 6.667969h.199219c15.554687-.023437 32.207031-2.976562 48.808594-6.828125" fill="#54709a"/><path d="m119.921875 150.1875c-5.65625 0-10.238281 4.582031-10.238281 10.238281s4.585937 10.242188 10.238281 10.242188 10.238281-4.585938 10.238281-10.242188-4.585937-10.238281-10.238281-10.238281" fill="#54709a"/><path d="m235.972656 150.1875c-5.652344 0-10.238281 4.582031-10.238281 10.238281s4.585937 10.242188 10.238281 10.242188 10.242188-4.585938 10.242188-10.242188-4.585938-10.238281-10.242188-10.238281" fill="#54709a"/><path d="m102.851562 177.492188c-7.539062 0-13.652343 6.113281-13.652343 13.65625 0 7.539062 6.113281 13.652343 13.652343 13.652343 7.542969 0 13.65625-6.113281 13.65625-13.652343 0-7.542969-6.113281-13.65625-13.65625-13.65625" fill="#cc98a4"/><path d="m55.066406 163.21875h-6.828125v12.046875c-.003906 12.082031 5.371094 23.011719 13.796875 30.738281 8.429688 7.746094 19.964844 12.449219 32.59375 12.449219h50.644532c5.339843 0 10.277343-1.988281 13.929687-5.34375 3.652344-3.335937 6.070313-8.203125 6.0625-13.585937.007813-1.300782.535156-2.484376 1.648437-3.53125 1.113282-1.019532 2.757813-1.742188 4.691407-1.742188h12.679687c1.933594-.003906 3.582032.71875 4.695313 1.742188 1.109375 1.046874 1.640625 2.230468 1.648437 3.53125.011719 3.921874 1.84375 7.066406 3.855469 9.285156 3.097656 3.363281 6.949219 5.492187 10.929687 7.101562 4.011719 1.558594 8.070313 2.515625 12.035157 2.542969h43.820312c12.625 0 24.160157-4.703125 32.589844-12.449219 8.429687-7.726562 13.800781-18.65625 13.796875-30.738281v-12.046875c.003906-13.179688-5.851562-25.105469-15.0625-33.550781-9.210938-8.464844-21.828125-13.613281-35.652344-13.613281h-157.984375c-13.824219 0-26.441406 5.148437-35.652343 13.613281-9.210938 8.445312-15.070313 20.371093-15.0625 33.550781h13.652343c.003907-9.097656 3.972657-17.339844 10.644531-23.496094 6.671876-6.136718 16-10.019531 26.414063-10.015625h157.988281c10.414063-.003906 19.738282 3.878907 26.414063 10.015625 6.671875 6.15625 10.636719 14.398438 10.644531 23.496094v12.046875c-.007812 8-3.488281 15.246094-9.382812 20.683594-5.886719 5.414062-14.132813 8.851562-23.351563 8.851562h-43.820313c-2.019531.0625-6.460937-1.042969-9.5-2.734375-1.546874-.816406-2.765624-1.765625-3.320312-2.402344l-.40625-.550781-.457031.210938.484375-.113281-.027344-.097657-.457031.210938.484375-.113281-1.34375.316406h1.378906l-.035156-.316406-1.34375.316406h1.378906c.007812-5.382813-2.414062-10.25-6.0625-13.585938-3.652344-3.355468-8.589844-5.339844-13.929688-5.34375h-12.679687c-5.339844.003906-10.277344 1.988282-13.929687 5.34375-3.652344 3.335938-6.070313 8.203125-6.0625 13.585938-.007813 1.304687-.535157 2.484375-1.648438 3.53125-1.113281 1.023437-2.757812 1.746094-4.691406 1.746094h-50.648438c-9.222656 0-17.464844-3.4375-23.355468-8.851563-5.890626-5.4375-9.371094-12.6875-9.378907-20.6875v-12.042969h-6.828125zm0 0" fill="#54596e"/><path d="m201.839844 273.066406h-47.785156c-9.425782 0-17.066407-7.640625-17.066407-17.066406s7.640625-17.066406 17.066407-17.066406h47.785156c9.425781 0 17.066406 7.640625 17.066406 17.066406s-7.636719 17.066406-17.066406 17.066406zm0 0" fill="#55a6ff"/><path d="m201.839844 273.066406v-6.828125h-47.785156c-5.65625-.007812-10.230469-4.585937-10.242188-10.238281.011719-5.652344 4.585938-10.230469 10.242188-10.238281h47.785156c5.65625.007812 10.230468 4.585937 10.238281 10.238281-.007813 5.652344-4.582031 10.230469-10.238281 10.238281v13.65625c13.199218-.003906 23.890625-10.695312 23.894531-23.894531-.003906-13.199219-10.695313-23.890625-23.894531-23.894531h-47.785156c-13.199219.003906-23.890626 10.695312-23.894532 23.894531.003906 13.199219 10.695313 23.890625 23.894532 23.894531h47.785156zm0 0" fill="#54596e"/><path d="m191.601562 259.414062v13.652344c0 15.054688 12.246094 27.308594 27.304688 27.308594h6.828125c15.058594 0 27.304687-12.253906 27.304687-27.308594v-204.800781h27.308594v204.800781c0 30.113282-24.5 54.613282-54.613281 54.613282h-6.828125c-30.113281 0-54.613281-24.5-54.613281-54.613282v-13.652344" fill="#9af43b"/><path d="m184.773438 259.414062v13.652344c.011718 18.839844 15.289062 34.121094 34.132812 34.132813h6.828125c18.84375-.011719 34.121094-15.292969 34.132813-34.132813v-197.972656h13.652343v197.972656c-.003906 13.1875-5.347656 25.09375-14.015625 33.773438-8.675781 8.667968-20.585937 14.011718-33.769531 14.011718h-6.828125c-13.183594 0-25.09375-5.34375-33.769531-14.011718-8.667969-8.679688-14.011719-20.585938-14.015625-33.773438v-13.652344c0-3.769531-3.058594-6.828124-6.828125-6.828124s-6.828125 3.058593-6.828125 6.828124v13.652344c.015625 33.894532 27.542968 61.425782 61.441406 61.441406h6.828125c33.894531-.015624 61.425781-27.546874 61.4375-61.441406v-204.800781c0-1.796875-.726563-3.554687-1.996094-4.824219-1.269531-1.273437-3.03125-2-4.828125-2h-27.308594c-1.796874 0-3.554687.726563-4.828124 1.996094-1.269532 1.269531-1.996094 3.03125-1.996094 4.828125v204.800781c-.003906 5.65625-2.285156 10.738282-6.007813 14.472656-3.734375 3.722657-8.8125 6.003907-14.472656 6.007813h-6.828125c-5.660156-.003906-10.738281-2.285156-14.472656-6.007813-3.722656-3.734374-6.003906-8.816406-6.007813-14.472656v-13.652344c0-3.769531-3.058593-6.828124-6.828125-6.828124-3.769531 0-6.824218 3.058593-6.824218 6.828124zm0 0" fill="#54596e"/><path d="m253.039062 6.828125h27.308594v61.4375h-27.308594zm0 0" fill="#ff927d"/><path d="m280.347656 6.828125v-6.828125h-27.308594c-1.796874 0-3.554687.730469-4.828124 2-1.269532 1.269531-1.996094 3.03125-1.996094 4.828125v61.4375c0 1.796875.726562 3.554687 1.996094 4.828125 1.269531 1.269531 3.03125 2 4.828124 2h27.308594c1.796875 0 3.554688-.730469 4.824219-2 1.273437-1.273438 2-3.03125 2-4.828125v-61.4375c0-1.796875-.726563-3.554687-1.996094-4.828125-1.269531-1.269531-3.03125-2-4.828125-2v6.828125h-6.828125v54.613281h-13.652343v-47.789062h20.480468v-6.824219h-6.828125zm0 0" fill="#54596e"/></svg>