<svg height="436pt" viewBox="-54 0 436 436.90667" width="436pt" xmlns="http://www.w3.org/2000/svg" xmlns:xlink="http://www.w3.org/1999/xlink"><clipPath id="a"><path d="m68 129h192v76h-192zm0 0"/></clipPath><clipPath id="b"><path d="m106.265625 170.667969c-5.65625 0-10.238281-4.585938-10.238281-10.242188s4.582031-10.238281 10.238281-10.238281 10.242187 4.582031 10.242187 10.238281-4.582031 10.242188-10.242187 10.242188m116.054687 0c-5.65625 0-10.242187-4.585938-10.242187-10.242188s4.585937-10.238281 10.242187-10.238281 10.238282 4.582031 10.238282 10.238281-4.582032 10.242188-10.238282 10.242188m3.414063-40.960938h-122.882813c-18.847656 0-34.132812 15.28125-34.132812 34.132813v10.1875c0 16.996094 13.777344 30.769531 30.769531 30.769531h34.085938c5.65625 0 10.238281-4.582031 10.238281-10.238281s4.585938-10.242188 10.242188-10.242188h20.480468c5.65625 0 10.238282 4.585938 10.238282 10.242188s4.585937 10.238281 10.238281 10.238281h34.082031c16.996094 0 30.773438-13.773437 30.773438-30.769531v-10.1875c0-18.851563-15.285157-34.132813-34.132813-34.132813"/></clipPath><path d="m300.4375 102.398438c-4.019531-59.4375-67.539062-95.570313-136.144531-95.570313s-132.121094 36.132813-136.140625 95.570313l-.390625 191.148437h273.066406z" fill="#999"/><path d="m300.4375 102.398438 6.808594-.460938c-2.140625-32.148438-20.617188-58.050781-46.902344-75.3125-26.324219-17.335938-60.554688-26.609375-96.050781-26.625-35.496094.015625-69.726563 9.289062-96.050781 26.625-26.285157 17.261719-44.765626 43.164062-46.902344 75.3125l-.015625.449219-.390625 191.144531c-.003906 1.828125.707031 3.546875 1.996094 4.839844 1.289062 1.289062 3.007812 2.003906 4.832031 2.003906h273.066406c1.820313 0 3.542969-.714844 4.832031-2.003906 1.285156-1.292969 1.996094-3.011719 1.992188-4.839844l-.390625-191.144531-.015625-.449219-6.808594.460938-6.828125.015624.378906 184.304688h-259.386719l.375-184.304688-6.828124-.015624 6.8125.460937c1.878906-27.285156 17.167968-49.171875 40.800781-64.835937 23.589843-15.589844 55.421875-24.386719 88.53125-24.371094 33.113281-.015625 64.941406 8.78125 88.535156 24.371094 23.628906 15.664062 38.917969 37.550781 40.796875 64.835937l6.8125-.460937-6.828125.015624zm0 0" fill="#54596e"/><path d="m268.496094 334.507812h-201.578125c-32.9375 0-59.636719 22.886719-59.636719 51.113282v44.457031h314.027344v-50.304687c0-25-23.644532-45.265626-52.8125-45.265626zm0 0" fill="#fff"/><path d="m268.496094 334.507812v-6.828124h-201.578125c-18.054688.003906-34.515625 6.257812-46.613281 16.617187-12.085938 10.324219-19.859376 25.007813-19.851563 41.328125v44.453125c0 1.800781.730469 3.558594 2 4.828125 1.273437 1.273438 3.03125 2 4.828125 2h314.027344c1.796875 0 3.554687-.726562 4.824218-2 1.273438-1.269531 2-3.027344 2-4.824219v-50.308593c.007813-14.703126-7-27.921876-17.851562-37.191407-10.859375-9.300781-25.617188-14.894531-41.785156-14.898437v13.648437c12.996094-.003906 24.648437 4.535157 32.898437 11.617188 8.265625 7.113281 13.074219 16.527343 13.082031 26.824219v43.480468h-300.371093v-37.632812c.007812-11.910156 5.582031-22.785156 15.085937-30.960938 9.484375-8.140625 22.84375-13.332031 37.726563-13.328125h201.578125zm0 0" fill="#54596e"/><path d="m82.375 170.667969c0-15.082031-12.226562-27.308594-27.308594-27.308594-15.078125 0-27.304687 12.226563-27.304687 27.308594 0 15.078125 12.226562 27.304687 27.304687 27.304687 15.082032 0 27.308594-12.226562 27.308594-27.304687" fill="#ffd578"/><path d="m82.375 170.667969h6.824219c-.003907-18.855469-15.277344-34.128907-34.132813-34.132813-18.851562.003906-34.128906 15.277344-34.132812 34.132813.003906 18.851562 15.28125 34.125 34.132812 34.132812 18.855469-.007812 34.128906-15.28125 34.132813-34.132812h-13.652344c-.019531 11.304687-9.171875 20.457031-20.480469 20.480469-11.304687-.023438-20.460937-9.175782-20.480468-20.480469.019531-11.308594 9.175781-20.460938 20.480468-20.480469 11.308594.019531 20.460938 9.171875 20.480469 20.480469z" fill="#54596e"/><path d="m300.828125 170.667969c0-15.082031-12.230469-27.308594-27.308594-27.308594s-27.308593 12.226563-27.308593 27.308594c0 15.078125 12.230468 27.304687 27.308593 27.304687 15.082031 0 27.308594-12.226562 27.308594-27.304687" fill="#ffd578"/><path d="m300.828125 170.667969h6.824219c-.003906-18.855469-15.28125-34.128907-34.132813-34.132813-18.851562.003906-34.128906 15.277344-34.132812 34.132813.003906 18.851562 15.28125 34.125 34.132812 34.132812 18.851563-.007812 34.128907-15.28125 34.132813-34.132812h-13.652344c-.019531 11.304687-9.175781 20.457031-20.480469 20.480469-11.304687-.023438-20.460937-9.175782-20.480469-20.480469.019532-11.308594 9.175782-20.460938 20.480469-20.480469 11.304688.019531 20.457031 9.171875 20.480469 20.480469z" fill="#54596e"/><path d="m164.292969 382.292969c-15.078125 0-27.304688-12.226563-27.304688-27.304688v-68.269531h54.613281v68.269531c0 15.078125-12.226562 27.304688-27.308593 27.304688zm0 0" fill="#ffd578"/><path d="m164.292969 382.292969v-6.828125c-11.304688-.019532-20.460938-9.171875-20.480469-20.476563v-61.441406h40.960938v61.441406c-.019532 11.304688-9.171876 20.457031-20.480469 20.476563v13.65625c18.855469-.007813 34.128906-15.28125 34.132812-34.132813v-68.269531c0-1.796875-.726562-3.554688-2-4.828125-1.269531-1.269531-3.027343-1.996094-4.824219-1.996094h-54.613281c-1.796875 0-3.558593.726563-4.828125 1.996094-1.269531 1.269531-2 3.03125-2 4.828125v68.269531c.003906 18.851563 15.28125 34.125 34.132813 34.132813zm0 0" fill="#54596e"/><path d="m164.292969 314.027344c-64.089844 0-116.054688-66.328125-116.054688-122.878906v-53.972657c0-26.746093 21.683594-48.429687 48.433594-48.429687l183.675781 20.480468v81.921876c0 56.550781-51.960937 122.878906-116.054687 122.878906" fill="#ffd578"/><g fill="#54596e"><path d="m164.292969 314.027344v-6.828125c-29.609375.027343-56.929688-15.390625-76.957031-37.9375-20.023438-22.488281-32.324219-51.929688-32.269532-78.113281v-53.972657c.003906-11.507812 4.644532-21.867187 12.1875-29.417969 7.546875-7.539062 17.90625-12.179687 29.417969-12.183593v-6.828125l-.757813 6.785156 177.605469 19.804688v75.8125c.054688 26.183593-12.246093 55.625-32.269531 78.113281-20.027344 22.546875-47.347656 37.964843-76.957031 37.9375v13.652343c34.484375-.027343 65.191406-17.769531 87.167969-42.523437 21.980468-24.816406 35.65625-56.8125 35.710937-87.179687v-81.921876c0-3.480468-2.609375-6.398437-6.070313-6.785156l-183.675781-20.480468-.753906-.039063c-30.523437.003906-55.253906 24.734375-55.257813 55.253906v53.972657c.054688 30.367187 13.734376 62.363281 35.714844 87.179687 21.976563 24.753906 52.679688 42.496094 87.164063 42.523437zm0 0"/><path d="m116.507812 160.425781c0-5.65625-4.582031-10.238281-10.242187-10.238281-5.65625 0-10.238281 4.582031-10.238281 10.238281s4.582031 10.242188 10.238281 10.242188 10.242187-4.585938 10.242187-10.242188"/><path d="m232.558594 160.425781c0-5.65625-4.582032-10.238281-10.238282-10.238281s-10.242187 4.582031-10.242187 10.238281 4.585937 10.242188 10.242187 10.242188 10.238282-4.585938 10.238282-10.242188"/></g><path d="m7.28125 402.773438h20.480469c15.078125 0 27.304687 12.226562 27.304687 27.304687h-47.785156zm0 0" fill="#ffd578"/><path d="m7.28125 402.773438v6.828124h20.480469c11.304687.019532 20.457031 9.171876 20.476562 20.476563h6.828125v-6.824219h-40.960937v-20.480468h-6.824219v6.828124-6.828124h-6.828125v27.304687c0 1.800781.730469 3.558594 2 4.828125 1.273437 1.273438 3.03125 2 4.828125 2h47.785156c1.796875 0 3.554688-.726562 4.828125-2 1.269531-1.269531 2-3.027344 2-4.828125-.007812-18.851563-15.28125-34.125-34.132812-34.132813h-20.480469c-1.796875 0-3.558594.730469-4.828125 2-1.269531 1.269532-2 3.03125-2 4.828126zm0 0" fill="#54596e"/><path d="m321.308594 402.773438h-20.480469c-15.082031 0-27.308594 12.226562-27.308594 27.304687h47.789063zm0 0" fill="#ffd578"/><path d="m321.308594 402.773438v-6.828126h-20.480469c-18.855469.007813-34.128906 15.28125-34.136719 34.132813 0 1.800781.730469 3.558594 2.003906 4.828125 1.269532 1.273438 3.027344 2 4.824219 2h47.789063c1.796875 0 3.554687-.726562 4.824218-2 1.273438-1.269531 2-3.027344 2-4.828125v-27.304687c0-1.796876-.726562-3.558594-2-4.828126-1.269531-1.273437-3.027343-2-4.824218-2v6.828126h-6.828125v20.480468h-40.960938v6.824219h6.828125c.019532-11.304687 9.171875-20.457031 20.480469-20.476563h20.480469v-6.828124h-6.828125zm0 0" fill="#54596e"/><path d="m205.253906 416.425781h40.960938c3.769531 0 6.824218-3.054687 6.824218-6.824219 0-3.773437-3.054687-6.828124-6.824218-6.828124h-40.960938c-3.769531 0-6.828125 3.054687-6.828125 6.828124 0 3.769532 3.058594 6.824219 6.828125 6.824219" fill="#54596e"/><g clip-path="url(#a)"><g clip-path="url(#b)"><path d="m68.71875 129.707031h191.148438v75.09375h-191.148438zm0 0" fill="#ccc7a1"/></g></g><path d="m106.265625 150.1875c-5.65625 0-10.238281 4.582031-10.238281 10.238281s4.582031 10.242188 10.238281 10.242188 10.242187-4.585938 10.242187-10.242188-4.582031-10.238281-10.242187-10.238281" fill="#54709a"/><path d="m222.320312 150.1875c-5.65625 0-10.242187 4.582031-10.242187 10.238281s4.585937 10.242188 10.242187 10.242188 10.238282-4.585938 10.238282-10.242188-4.582032-10.238281-10.238282-10.238281" fill="#54709a"/><path d="m68.71875 163.839844h-6.824219v10.191406c.003907 20.765625 16.828125 37.589844 37.59375 37.59375h34.085938c9.425781 0 17.0625-7.636719 17.066406-17.066406.003906-1.882813 1.527344-3.410156 3.414063-3.410156h20.480468c1.882813 0 3.40625 1.527343 3.410156 3.410156.003907 9.429687 7.640626 17.066406 17.066407 17.066406h34.085937c20.765625-.003906 37.589844-16.828125 37.59375-37.59375v-10.191406c-.003906-22.625-18.335937-40.953125-40.957031-40.960938h-122.882813c-22.621093.007813-40.953124 18.335938-40.957031 40.960938h13.652344c.003906-7.558594 3.046875-14.34375 8-19.308594 4.960937-4.953125 11.746094-7.996094 19.304687-7.996094h122.882813c7.558594 0 14.34375 3.042969 19.304687 7.996094 4.953126 4.964844 7.996094 11.75 8 19.308594v10.191406c-.003906 6.632812-2.667968 12.574219-7.011718 16.929688-4.355469 4.34375-10.296875 7.007812-16.929688 7.011718h-34.085937c-1.882813-.003906-3.410157-1.527344-3.410157-3.414062-.003906-9.425782-7.640624-17.0625-17.066406-17.066406h-20.480468c-9.429688.003906-17.066407 7.640624-17.066407 17.066406-.003906 1.886718-1.527343 3.410156-3.414062 3.414062h-34.085938c-6.632812-.003906-12.574219-2.667968-16.929687-7.011718-4.34375-4.355469-7.007813-10.296876-7.011719-16.929688v-10.191406zm0 0" fill="#54596e"/><path d="m229.097656 204.800781h-34.085937c-5.652344 0-10.238281-4.585937-10.238281-10.242187s-4.585938-10.238282-10.238282-10.238282h-20.480468c-5.65625 0-10.242188 4.582032-10.242188 10.238282s-4.582031 10.242187-10.238281 10.242187h-34.085938c-5.734375 0-11.042969-1.671875-15.640625-4.40625-.953125 5.851563-1.472656 11.882813-1.472656 18.058594 0 52.785156 36.675781 95.574219 81.917969 95.574219 45.242187 0 81.921875-42.789063 81.921875-95.574219 0-6.175781-.511719-12.210937-1.472656-18.0625-4.597657 2.738281-9.90625 4.410156-15.644532 4.410156zm0 0" fill="#61c5a8"/><path d="m229.097656 204.800781v-6.828125h-34.085937c-1.882813-.003906-3.410157-1.527344-3.410157-3.414062-.003906-9.425782-7.640624-17.0625-17.066406-17.066406h-20.480468c-9.429688.003906-17.066407 7.640624-17.066407 17.066406-.003906 1.886718-1.527343 3.410156-3.414062 3.414062h-34.085938c-4.398437-.003906-8.472656-1.265625-12.148437-3.445312-1.945313-1.15625-4.328125-1.277344-6.375-.324219-2.046875.957031-3.488282 2.859375-3.851563 5.085937-1.011719 6.203126-1.566406 12.605469-1.566406 19.164063.003906 27.976563 9.703125 53.425781 25.636719 72.023437 15.898437 18.585938 38.28125 30.386719 63.109375 30.375 24.824219.011719 47.210937-11.789062 63.109375-30.375 15.933594-18.597656 25.632812-44.046874 25.636718-72.023437 0-6.554687-.539062-12.960937-1.558593-19.167969-.367188-2.230468-1.808594-4.132812-3.855469-5.085937s-4.429688-.832031-6.371094.324219c-3.679687 2.183593-7.753906 3.445312-12.15625 3.449218v13.652344c7.078125.003906 13.617188-2.078125 19.136719-5.367188l-3.492187-5.867187-6.734376 1.105469c.902344 5.488281 1.378907 11.15625 1.378907 16.957031.007812 24.804687-8.632813 47.148437-22.347657 63.136719-13.75 16.003906-32.328124 25.601562-52.742187 25.609375-20.417969-.007813-38.996094-9.605469-52.746094-25.609375-13.714843-15.988282-22.355469-38.328125-22.347656-63.136719 0-5.792969.488281-11.453125 1.386719-16.957031l-6.738282-1.101563-3.488281 5.867188c5.515625 3.285156 12.050781 5.367187 19.128907 5.363281h34.082031c9.425781 0 17.0625-7.636719 17.066406-17.066406.003906-1.882813 1.527344-3.410156 3.414063-3.410156h20.480468c1.882813 0 3.40625 1.527343 3.410156 3.410156.003907 9.429687 7.640626 17.066406 17.066407 17.066406h34.085937zm0 0" fill="#54596e"/><path d="m55.066406 232.105469h27.308594c3.769531 0 6.824219-3.054688 6.824219-6.824219s-3.054688-6.828125-6.824219-6.828125h-27.308594c-3.769531 0-6.828125 3.058594-6.828125 6.828125s3.058594 6.824219 6.828125 6.824219" fill="#54596e"/><path d="m246.214844 232.105469h27.304687c3.769531 0 6.828125-3.054688 6.828125-6.824219s-3.058594-6.828125-6.828125-6.828125h-27.304687c-3.773438 0-6.828125 3.058594-6.828125 6.828125s3.054687 6.824219 6.828125 6.824219" fill="#54596e"/></svg>