<svg height="436pt" viewBox="-30 0 436 436.90667" width="436pt" xmlns="http://www.w3.org/2000/svg"><path d="m295.808594 334.507812h-201.585938c-32.933594 0-59.636718 22.886719-59.636718 51.113282v44.457031h314.027343v-50.304687c0-25-23.644531-45.265626-52.804687-45.265626zm0 0" fill="#fff35f"/><path d="m295.808594 334.507812v-6.828124h-201.585938c-18.054687.003906-34.515625 6.257812-46.609375 16.613281-12.085937 10.328125-19.859375 25.007812-19.851562 41.328125v44.457031c0 1.800781.730469 3.558594 2 4.828125 1.269531 1.273438 3.027343 2 4.824219 2h314.027343c1.796875 0 3.554688-.726562 4.828125-2 1.269532-1.269531 2-3.027344 2-4.824219v-50.308593c.007813-14.703126-7.003906-27.921876-17.851562-37.191407-10.863282-9.300781-25.617188-14.898437-41.78125-14.898437v13.648437c12.992187-.003906 24.640625 4.535157 32.894531 11.617188 8.265625 7.117187 13.078125 16.53125 13.085937 26.824219v43.480468h-300.375v-37.628906c.007813-11.910156 5.582032-22.789062 15.082032-30.960938 9.488281-8.144531 22.84375-13.335937 37.726562-13.332031h201.585938zm0 0" fill="#54596e"/><path d="m191.601562 382.292969c-15.082031 0-27.308593-12.226563-27.308593-27.304688v-68.269531h54.613281v68.269531c0 15.078125-12.226562 27.304688-27.304688 27.304688zm0 0" fill="#ffd578"/><path d="m191.601562 382.292969v-6.828125c-11.308593-.019532-20.460937-9.171875-20.480468-20.476563v-61.441406h40.957031v61.441406c-.019531 11.304688-9.171875 20.457031-20.476563 20.476563v13.65625c18.851563-.003906 34.125-15.28125 34.132813-34.132813v-68.269531c0-1.796875-.730469-3.554688-2-4.828125-1.269531-1.269531-3.03125-1.996094-4.828125-1.996094h-54.613281c-1.796875 0-3.554688.726563-4.828125 1.996094-1.269532 1.273437-2 3.03125-2 4.828125v68.269531c.007812 18.851563 15.28125 34.125 34.136718 34.132813zm0 0" fill="#54596e"/><path d="m109.679688 6.828125c-31.238282 0-58.800782 15.578125-75.464844 39.351563 35.964844 12.558593 61.8125 46.691406 61.8125 86.941406 0 19.660156-6.207032 37.84375-16.695313 52.804687 9.515625 3.324219 19.703125 5.222657 30.347657 5.222657 50.898437 0 92.160156-41.261719 92.160156-92.160157 0-50.902343-41.261719-92.160156-92.160156-92.160156zm0 0" fill="#ff80c3"/><path d="m109.679688 6.828125v-6.828125c-33.546876 0-63.183594 16.75-81.054688 42.261719-1.230469 1.753906-1.566406 3.96875-.910156 6.011719.65625 2.039062 2.222656 3.644531 4.25 4.351562 33.304687 11.640625 57.246094 43.234375 57.234375 80.496094-.003907 18.210937-5.734375 35.007812-15.457031 48.886718-1.230469 1.757813-1.566407 3.972657-.90625 6.011719.660156 2.039063 2.222656 3.644531 4.246093 4.351563 10.179688 3.558594 21.140625 5.601562 32.597657 5.601562 54.671874-.003906 98.980468-44.3125 98.988281-98.984375-.003907-54.675781-44.316407-98.98437475-98.988281-98.988281v13.652344c23.585937.003906 44.878906 9.542968 60.339843 24.996094 15.453125 15.460937 24.992188 36.75 24.992188 60.339843 0 23.585938-9.539063 44.875-24.992188 60.335938-15.460937 15.457031-36.753906 24.992187-60.339843 24.996093-9.832032 0-19.25-1.75-28.09375-4.839843l-2.253907 6.445312 5.59375 3.917969c11.25-16.046875 17.929688-35.617188 17.925781-56.722656-.007812-43.242188-27.761718-79.90625-66.386718-93.386719l-2.25 6.445313 5.585937 3.917968c15.464844-22.035156 40.945313-36.445312 69.878907-36.445312zm0 0" fill="#54596e"/><path d="m269.734375 6.828125c31.238281 0 58.796875 15.578125 75.464844 39.351563-35.964844 12.558593-61.8125 46.691406-61.8125 86.941406 0 19.660156 6.207031 37.84375 16.699219 52.804687-9.519532 3.324219-19.699219 5.222657-30.351563 5.222657-50.894531 0-92.160156-41.261719-92.160156-92.160157 0-50.902343 41.265625-92.160156 92.160156-92.160156zm0 0" fill="#ff80c3"/><path d="m269.734375 6.828125v6.824219c28.933594.003906 54.414063 14.410156 69.875 36.445312l5.589844-3.917968-2.25-6.445313c-38.628907 13.480469-66.378907 50.148437-66.390625 93.386719-.003906 21.105468 6.679687 40.679687 17.9375 56.726562l5.589844-3.917968-2.25-6.445313c-8.855469 3.089844-18.261719 4.835937-28.101563 4.835937-23.585937-.003906-44.875-9.539062-60.339844-24.992187-15.453125-15.464844-24.992187-36.753906-24.996093-60.339844.003906-23.585937 9.542968-44.875 24.996093-60.339843 15.464844-15.453126 36.753907-24.988282 60.339844-24.996094v-13.652344c-54.667969.00390625-98.984375 44.3125-98.988281 98.988281.003906 54.671875 44.320312 98.980469 98.988281 98.984375 11.464844.003906 22.417969-2.042968 32.601563-5.601562 2.023437-.707032 3.589843-2.308594 4.246093-4.351563.660157-2.039062.324219-4.257812-.90625-6.011719-9.726562-13.878906-15.460937-30.671874-15.460937-48.886718-.011719-37.261719 23.929687-68.855469 57.234375-80.496094 2.027343-.710938 3.589843-2.3125 4.25-4.351562.660156-2.039063.324219-4.257813-.90625-6.011719-17.875-25.511719-47.511719-42.261719-81.058594-42.261719zm0 0" fill="#54596e"/><path d="m321.308594 170.667969c0 15.078125-12.226563 27.304687-27.308594 27.304687s-27.308594-12.226562-27.308594-27.304687c0-15.082031 12.226563-27.308594 27.308594-27.308594s27.308594 12.226563 27.308594 27.308594zm0 0" fill="#ffd578"/><path d="m321.308594 170.667969h6.824218c-.003906-18.855469-15.277343-34.132813-34.132812-34.132813s-34.128906 15.277344-34.132812 34.132813c.003906 18.851562 15.277343 34.125 34.132812 34.132812 18.855469-.003906 34.128906-15.28125 34.132812-34.132812h-13.652343c-.019531 11.304687-9.171875 20.457031-20.480469 20.480469-11.308594-.023438-20.460938-9.175782-20.480469-20.480469.019531-11.308594 9.171875-20.460938 20.480469-20.480469 11.308594.019531 20.460938 9.171875 20.480469 20.480469zm0 0" fill="#54596e"/><path d="m116.507812 170.667969c0 15.078125-12.226562 27.304687-27.308593 27.304687s-27.304688-12.226562-27.304688-27.304687c0-15.082031 12.222657-27.308594 27.304688-27.308594s27.308593 12.226563 27.308593 27.308594zm0 0" fill="#ffd578"/><path d="m116.507812 170.667969h6.824219c-.003906-18.855469-15.277343-34.132813-34.132812-34.132813-18.851563 0-34.128907 15.277344-34.132813 34.132813.003906 18.851562 15.28125 34.125 34.132813 34.132812 18.855469-.003906 34.128906-15.28125 34.132812-34.132812h-13.652343c-.019532 11.304687-9.171876 20.457031-20.480469 20.480469-11.304688-.023438-20.457031-9.175782-20.480469-20.480469.023438-11.308594 9.175781-20.460938 20.480469-20.480469 11.308593.019531 20.460937 9.171875 20.480469 20.480469zm0 0" fill="#54596e"/><path d="m191.601562 314.027344c-56.554687 0-102.402343-66.328125-102.402343-122.878906v-47.789063h204.800781v47.789063c0 56.550781-45.847656 122.878906-102.398438 122.878906zm0 0" fill="#ffd578"/><g fill="#54596e"><path d="m191.601562 314.027344v-6.828125c-12.792968-.003907-25.054687-3.734375-36.4375-10.328125-17.058593-9.867188-31.984374-26.265625-42.503906-45.296875-10.542968-19.015625-16.652344-40.605469-16.632812-60.425781v-40.964844h191.144531v40.964844c.046875 26.433593-10.898437 55.980468-28.539063 78.433593-8.800781 11.238281-19.226562 20.703125-30.597656 27.289063-11.382812 6.59375-23.644531 10.324218-36.433594 10.328125v13.652343c15.488282.003907 30.160157-4.554687 43.28125-12.164062 19.695313-11.4375 36.042969-29.648438 47.605469-50.5 11.535157-20.875 18.320313-44.449219 18.339844-67.039062v-47.789063c0-1.796875-.730469-3.554687-2-4.828125-1.269531-1.269531-3.03125-1.996094-4.828125-1.996094h-204.800781c-1.796875 0-3.554688.726563-4.828125 1.996094-1.269532 1.273438-1.996094 3.03125-1.996094 4.828125v47.789063c.042969 30.113281 12.023438 62.007812 31.445312 86.855468 9.726563 12.414063 21.363282 23.0625 34.496094 30.679688 13.121094 7.613281 27.796875 12.171875 43.285156 12.167968zm0 0"/><path d="m143.8125 187.734375c0 5.65625-4.582031 10.238281-10.238281 10.238281s-10.242188-4.582031-10.242188-10.238281 4.585938-10.242187 10.242188-10.242187 10.238281 4.585937 10.238281 10.242187zm0 0"/><path d="m259.867188 187.734375c0 5.65625-4.585938 10.238281-10.242188 10.238281-5.652344 0-10.238281-4.582031-10.238281-10.238281s4.585937-10.242187 10.238281-10.242187c5.65625 0 10.242188 4.585937 10.242188 10.242187zm0 0"/><path d="m198.425781 430.078125v-20.476563c0-3.773437-3.054687-6.828124-6.824219-6.828124-3.773437 0-6.828124 3.054687-6.828124 6.828124v20.476563c0 3.773437 3.054687 6.828125 6.828124 6.828125 3.769532 0 6.824219-3.054688 6.824219-6.828125"/></g><path d="m184.773438 266.238281h13.652343c7.539063 0 13.652344-6.113281 13.652344-13.652343 0-7.539063-6.113281-13.652344-13.652344-13.652344h-13.652343c-7.539063 0-13.652344 6.113281-13.652344 13.652344 0 7.539062 6.113281 13.652343 13.652344 13.652343" fill="#ff927d"/><path d="m164.292969 252.585938h54.613281c3.769531 0 6.828125-3.054688 6.828125-6.824219 0-3.773438-3.058594-6.828125-6.828125-6.828125h-54.613281c-3.769531 0-6.828125 3.054687-6.828125 6.828125 0 3.769531 3.058594 6.824219 6.828125 6.824219" fill="#ff927d"/><path d="m34.585938 402.773438h20.480468c15.082032 0 27.308594 12.226562 27.308594 27.304687h-47.789062zm0 0" fill="#ff927d"/><path d="m34.585938 402.773438v6.828124h20.480468c11.308594.019532 20.460938 9.171876 20.480469 20.476563h6.828125v-6.824219h-40.960938v-20.480468h-6.828124v6.828124-6.828124h-6.824219v27.304687c0 1.800781.726562 3.558594 2 4.828125 1.269531 1.273438 3.027343 2 4.824219 2h47.789062c1.796875 0 3.554688-.726562 4.824219-2 1.273437-1.269531 2-3.027344 2-4.828125-.003907-18.851563-15.277344-34.128906-34.132813-34.132813h-20.480468c-1.796876 0-3.554688.726563-4.828126 2-1.269531 1.269532-1.996093 3.027344-1.996093 4.828126zm0 0" fill="#54596e"/><path d="m328.132812 402.773438h20.480469v27.304687h-47.785156c0-15.078125 12.226563-27.304687 27.304687-27.304687zm0 0" fill="#ff927d"/><path d="m328.132812 402.773438v6.828124h13.652344v13.652344h-40.957031v6.824219h6.824219c.019531-11.304687 9.175781-20.457031 20.480468-20.476563v-13.65625c-18.851562.003907-34.128906 15.28125-34.132812 34.132813 0 1.800781.730469 3.558594 2 4.828125 1.273438 1.273438 3.03125 2 4.828125 2h47.785156c1.796875 0 3.554688-.726562 4.828125-2 1.269532-1.269531 2-3.027344 2-4.828125v-27.304687c0-1.800782-.730468-3.558594-2-4.828126-1.269531-1.273437-3.03125-2-4.828125-2h-20.480469zm0 0" fill="#54596e"/><path d="m89.199219 102.398438h204.800781v40.960937h-204.800781zm0 0" fill="#ff927d"/><path d="m294 102.398438v-6.824219h-204.800781c-1.796875 0-3.554688.726562-4.828125 1.996093-1.269532 1.273438-1.996094 3.03125-1.996094 4.828126v40.960937c0 1.796875.726562 3.554687 2 4.828125 1.269531 1.269531 3.027344 2 4.824219 2h204.800781c1.796875 0 3.554688-.726562 4.828125-2 1.269531-1.269531 2-3.027344 2-4.824219v-40.964843c0-1.796876-.730469-3.554688-2-4.828126-1.269531-1.269531-3.03125-1.996093-4.828125-1.996093v6.824219h-6.828125v34.136718h-191.144531v-27.308594h197.972656v-6.828124h-6.828125zm0 0" fill="#54596e"/><path d="m48.238281 47.785156c0 11.3125-9.167969 20.480469-20.476562 20.480469-11.3125 0-20.480469-9.167969-20.480469-20.480469 0-11.308594 9.167969-20.476562 20.480469-20.476562 11.308593 0 20.476562 9.167968 20.476562 20.476562zm0 0" fill="#fff35f"/><path d="m48.238281 47.785156h6.828125c-.003906-15.082031-12.21875-27.300781-27.304687-27.304687-15.089844.003906-27.304688 12.222656-27.308594 27.304687.003906 15.082032 12.21875 27.304688 27.308594 27.308594 15.082031-.003906 27.300781-12.226562 27.304687-27.308594h-13.652344c-.015624 7.539063-6.113281 13.640625-13.652343 13.65625-7.542969-.015625-13.640625-6.117187-13.65625-13.65625.015625-7.535156 6.113281-13.636718 13.65625-13.652344 7.539062.015626 13.636719 6.117188 13.652343 13.652344zm0 0" fill="#54596e"/><path d="m369.09375 47.785156c0 11.3125-9.167969 20.480469-20.480469 20.480469s-20.480469-9.167969-20.480469-20.480469c0-11.308594 9.167969-20.476562 20.480469-20.476562s20.480469 9.167968 20.480469 20.476562zm0 0" fill="#fff35f"/><path d="m369.09375 47.785156h6.828125c-.003906-15.082031-12.222656-27.300781-27.308594-27.304687-15.085937.003906-27.304687 12.222656-27.304687 27.304687 0 15.082032 12.21875 27.304688 27.304687 27.308594 15.085938-.003906 27.304688-12.226562 27.308594-27.308594h-13.65625c-.011719 7.539063-6.113281 13.640625-13.652344 13.65625-7.539062-.015625-13.640625-6.117187-13.652343-13.65625.011718-7.535156 6.113281-13.636718 13.652343-13.652344 7.539063.015626 13.640625 6.117188 13.652344 13.652344zm0 0" fill="#54596e"/><path d="m116.507812 116.054688h27.304688v13.652343h-27.304688zm0 0" fill="#fff35f"/><path d="m177.945312 116.054688h27.308594v13.652343h-27.308594zm0 0" fill="#fff35f"/><path d="m239.386719 116.054688h27.304687v13.652343h-27.304687zm0 0" fill="#fff35f"/></svg>