<svg height="430pt" viewBox="-3 0 430 430.08" width="430pt" xmlns="http://www.w3.org/2000/svg"><path d="m295.390625 286.71875h-228.886719c-32.9375 0-59.636718 22.886719-59.636718 51.117188v71.765624h341.332031v-77.617187c0-24.996094-23.640625-45.265625-52.808594-45.265625zm0 0" fill="#aca3d3"/><path d="m295.390625 286.71875v-6.824219h-228.886719c-18.054687.003907-34.515625 6.253907-46.613281 16.613281-12.082031 10.324219-19.859375 25.007813-19.8515625 41.328126v71.765624c0 1.796876.7304685 3.554688 1.9999995 4.824219 1.273438 1.273438 3.03125 2 4.828126 2h341.332031c1.796875 0 3.554687-.726562 4.828125-1.996093 1.269531-1.273438 2-3.03125 2-4.828126v-77.613281c.007812-14.707031-7.003906-27.925781-17.851563-37.191406-10.863281-9.300781-25.617187-14.898437-41.785156-14.902344v13.652344c12.996094-.003906 24.644531 4.53125 32.898437 11.617187 8.265626 7.113282 13.074219 16.527344 13.082032 26.824219v70.785157h-327.679688v-64.933594c.011719-11.914063 5.585938-22.789063 15.085938-30.964844 9.488281-8.140625 22.84375-13.332031 37.726562-13.328125h228.886719zm0 0" fill="#54596e"/><path d="m252.625 320.851562h-150.183594c-15.082031 0-27.308594-12.226562-27.308594-27.304687 0-15.082031 12.226563-27.308594 27.308594-27.308594h150.183594c15.082031 0 27.308594 12.226563 27.308594 27.308594 0 15.078125-12.226563 27.304687-27.308594 27.304687zm0 0" fill="#8065c4"/><g fill="#54596e"><path d="m252.625 320.851562v-6.824218h-150.183594c-11.308594-.019532-20.460937-9.175782-20.480468-20.480469.019531-11.308594 9.171874-20.460937 20.480468-20.480469h150.183594c11.308594.019532 20.460938 9.171875 20.480469 20.480469-.019531 11.304687-9.171875 20.460937-20.480469 20.480469v13.652344c18.855469-.003907 34.128906-15.28125 34.136719-34.132813-.007813-18.855469-15.28125-34.128906-34.136719-34.132813h-150.183594c-18.855468.003907-34.128906 15.277344-34.132812 34.132813.003906 18.851563 15.277344 34.128906 34.132812 34.132813h150.183594zm0 0"/><path d="m68.308594 368.640625v34.132813c0 3.769531 3.054687 6.828124 6.824218 6.828124 3.769532 0 6.828126-3.058593 6.828126-6.828124v-34.132813c0-3.769531-3.058594-6.828125-6.828126-6.828125-3.769531 0-6.824218 3.058594-6.824218 6.828125"/><path d="m273.105469 368.640625v34.132813c0 3.769531 3.058593 6.828124 6.828125 6.828124 3.769531 0 6.828125-3.058593 6.828125-6.828124v-34.132813c0-3.769531-3.058594-6.828125-6.828125-6.828125-3.769532 0-6.828125 3.058594-6.828125 6.828125"/></g><path d="m334.546875 116.054688c0 15.078124-12.226563 27.304687-27.308594 27.304687-15.078125 0-27.304687-12.226563-27.304687-27.304687 0-15.082032 12.226562-27.308594 27.304687-27.308594 15.082031 0 27.308594 12.226562 27.308594 27.308594zm0 0" fill="#ffd578"/><path d="m334.546875 116.054688h6.828125c-.007812-18.855469-15.28125-34.132813-34.136719-34.132813-18.851562 0-34.125 15.277344-34.132812 34.132813.007812 18.851562 15.28125 34.125 34.132812 34.132812 18.855469-.003906 34.128907-15.28125 34.136719-34.132812h-13.65625c-.019531 11.304687-9.171875 20.457031-20.480469 20.480468-11.304687-.023437-20.457031-9.175781-20.476562-20.480468.019531-11.308594 9.171875-20.460938 20.476562-20.480469 11.308594.019531 20.460938 9.171875 20.480469 20.480469zm0 0" fill="#54596e"/><path d="m75.132812 116.054688c0 15.078124-12.226562 27.304687-27.304687 27.304687-15.082031 0-27.308594-12.226563-27.308594-27.304687 0-15.082032 12.226563-27.308594 27.308594-27.308594 15.078125 0 27.304687 12.226562 27.304687 27.308594zm0 0" fill="#ffd578"/><path d="m75.132812 116.054688h6.828126c-.007813-18.855469-15.28125-34.132813-34.132813-34.132813-18.855469 0-34.128906 15.277344-34.136719 34.132813.007813 18.851562 15.28125 34.125 34.136719 34.132812 18.851563-.003906 34.125-15.28125 34.132813-34.132812h-13.652344c-.023438 11.304687-9.175782 20.457031-20.480469 20.480468-11.308594-.023437-20.460937-9.175781-20.480469-20.480468.019532-11.308594 9.171875-20.460938 20.480469-20.480469 11.304687.019531 20.457031 9.171875 20.480469 20.480469zm0 0" fill="#54596e"/><path d="m217.796875 293.546875h-80.527344c-54.199219-22.820313-89.441406-72.375-89.441406-131.179687v-137.863282c0-9.761718 7.914063-17.675781 17.675781-17.675781h224.058594c9.765625 0 17.675781 7.914063 17.675781 17.675781v137.863282c0 58.804687-35.242187 108.359374-89.441406 131.179687zm0 0" fill="#fff35f"/><path d="m217.796875 293.546875v-6.828125h-80.527344v6.828125l2.648438-6.292969c-51.90625-21.929687-85.21875-68.890625-85.265625-124.886718v-137.863282c.011718-5.992187 4.859375-10.839844 10.851562-10.851562h224.058594c5.992188.011718 10.839844 4.859375 10.851562 10.851562v137.863282c-.046874 55.996093-33.359374 102.957031-85.265624 124.886718l2.648437 6.292969v-6.828125 6.828125l2.648437 6.292969c56.496094-23.710938 93.667969-75.855469 93.621094-137.472656v-137.863282c-.003906-13.535156-10.964844-24.49999975-24.503906-24.503906h-224.058594c-13.535156.00390625-24.5 10.96875-24.503906 24.503906v137.863282c-.046875 61.617187 37.125 113.761718 93.621094 137.472656.835937.351562 1.742187.535156 2.648437.535156h80.527344c.90625 0 1.8125-.183594 2.648437-.535156zm0 0" fill="#54596e"/><path d="m47.828125 153.863281c0 13.050781 13.398437 23.628907 29.933594 23.628907h199.546875c16.53125 0 29.929687-10.578126 29.929687-23.628907v-99.25h-220.183593c-21.664063 0-39.226563 18.84375-39.226563 33.671875zm0 0" fill="#ffd578"/><path d="m47.828125 153.863281h-6.828125c-.007812 8.941407 4.644531 16.804688 11.363281 22.070313 6.746094 5.308594 15.671875 8.378906 25.398438 8.386718h199.546875c9.722656-.007812 18.648437-3.078124 25.394531-8.386718 6.71875-5.265625 11.371094-13.128906 11.363281-22.070313v-99.25c0-1.796875-.726562-3.558593-2-4.828125-1.269531-1.269531-3.027344-2-4.828125-2h-220.183593c-12.851563.019532-24.195313 5.535156-32.375 13.089844-8.132813 7.613281-13.574219 17.285156-13.679688 27.410156v65.578125h13.652344v-65.578125c-.105469-4.707031 3.234375-11.867187 9.300781-17.386718 6.015625-5.570313 14.292969-9.476563 23.101563-9.457032h213.359374v92.421875c-.007812 4.109375-2.058593 8.0625-6.171874 11.351563-4.085938 3.238281-10.125 5.460937-16.933594 5.453125h-199.546875c-6.8125.007812-12.851563-2.214844-16.9375-5.453125-4.117188-3.289063-6.164063-7.242188-6.171875-11.351563zm0 0" fill="#54596e"/><path d="m143.398438 204.800781c0 18.847657 15.285156 34.132813 34.136718 34.132813 18.847656 0 34.132813-15.285156 34.132813-34.132813zm0 0" fill="#54596e"/><path d="m143.398438 204.800781h-6.824219c.003906 22.621094 18.335937 40.953125 40.960937 40.960938 22.621094-.003907 40.953125-18.339844 40.957032-40.960938 0-1.800781-.726563-3.558593-2-4.828125-1.269532-1.269531-3.027344-2-4.824219-2h-68.269531c-1.796876 0-3.554688.726563-4.824219 2-1.273438 1.269532-2 3.03125-2 4.828125h6.824219v6.824219h68.269531v-6.824219h-6.828125c-.003906 7.558594-3.046875 14.34375-8 19.308594-4.960938 4.949219-11.746094 7.992187-19.304688 7.996094-7.5625-.003907-14.347656-3.046875-19.308594-7.996094-4.953124-4.964844-7.996093-11.75-8-19.308594h-6.828124v6.824219zm0 0" fill="#54596e"/><path d="m191.1875 225.28125c0-3.773438-6.113281-6.828125-13.652344-6.828125-7.542968 0-13.65625 3.054687-13.65625 6.828125 0 3.769531 6.113282 6.824219 13.65625 6.824219 7.539063 0 13.652344-3.054688 13.652344-6.824219zm0 0" fill="#ff927d"/><path d="m129.746094 126.292969c0 5.65625-4.585938 10.242187-10.238282 10.242187-5.65625 0-10.242187-4.585937-10.242187-10.242187s4.585937-10.238281 10.242187-10.238281c5.652344 0 10.238282 4.582031 10.238282 10.238281zm0 0" fill="#54596e"/><path d="m245.800781 126.292969c0 5.65625-4.585937 10.242187-10.242187 10.242187-5.652344 0-10.238282-4.585937-10.238282-10.242187s4.585938-10.238281 10.238282-10.238281c5.65625 0 10.242187 4.582031 10.242187 10.238281zm0 0" fill="#54596e"/><path d="m204.839844 6.828125h143.359375v5.308594c0 23.460937-24.449219 42.476562-54.613281 42.476562h-88.746094" fill="#fff35f"/><path d="m204.839844 13.652344h143.359375v-6.824219h-6.824219v5.308594c-.007812 9.273437-4.78125 17.929687-13.363281 24.644531-8.546875 6.667969-20.777344 11.015625-34.425781 11.003906h-88.746094c-3.769532 0-6.828125 3.058594-6.828125 6.828125s3.058593 6.828125 6.828125 6.828125h88.746094c16.519531-.011718 31.59375-5.171875 42.808593-13.878906 11.1875-8.660156 18.636719-21.238281 18.632813-35.425781v-5.308594c0-1.800781-.730469-3.558594-2-4.828125-1.269532-1.269531-3.03125-2-4.828125-2h-143.359375c-3.769532 0-6.828125 3.054688-6.828125 6.828125 0 3.769531 3.058593 6.824219 6.828125 6.824219zm0 0" fill="#54596e"/><path d="m376.441406 259.414062h-29.175781c-22.105469 0-40.027344 17.917969-40.027344 40.027344v83.785156c0 22.105469 17.921875 40.027344 40.027344 40.027344h29.175781c22.105469 0 40.023438-17.921875 40.023438-40.027344v-83.785156c0-22.109375-17.917969-40.027344-40.023438-40.027344zm0 0" fill="#f3f3f3"/><path d="m376.441406 259.414062v-6.828124h-29.175781c-25.878906.003906-46.847656 20.972656-46.851563 46.855468v83.785156c.003907 25.878907 20.972657 46.847657 46.851563 46.851563h29.175781c25.878906 0 46.847656-20.972656 46.851563-46.851563v-83.785156c-.003907-25.882812-20.972657-46.851562-46.851563-46.855468v13.652343c9.1875.003907 17.445313 3.707031 23.472656 9.726563 6.019532 6.03125 9.722657 14.285156 9.726563 23.476562v83.789063c-.003906 9.1875-3.707031 17.445312-9.726563 23.472656-6.027343 6.019531-14.285156 9.71875-23.472656 9.726563h-29.175781c-9.191406-.003907-17.445313-3.707032-23.476563-9.726563-6.015624-6.027344-9.71875-14.285156-9.722656-23.472656v-83.789063c.003906-9.191406 3.703125-17.445312 9.722656-23.476562 6.03125-6.019532 14.285157-9.71875 23.476563-9.726563h29.175781zm0 0" fill="#54596e"/><path d="m361.851562 279.894531c-3.769531 0-6.824218 3.054688-6.824218 6.824219v20.480469c0 3.769531 3.054687 6.828125 6.824218 6.828125 3.773438 0 6.828126-3.058594 6.828126-6.828125v-20.480469c0-3.769531-3.054688-6.824219-6.828126-6.824219zm0 0" fill="#aaa"/></svg>