<svg height="436pt" viewBox="-34 0 436 436.90667" width="436pt" xmlns="http://www.w3.org/2000/svg"><path d="m309.457031 320.851562h-242.539062c-32.9375 0-59.636719 22.886719-59.636719 51.117188v58.109375h354.984375v-63.957031c0-25-23.644531-45.269532-52.808594-45.269532zm0 0" fill="#61c5a8"/><path d="m309.457031 320.851562v-6.824218h-242.539062c-18.054688.003906-34.515625 6.257812-46.613281 16.617187-12.085938 10.324219-19.859376 25.007813-19.851563 41.328125v58.105469c0 1.800781.730469 3.558594 2 4.828125 1.273437 1.273438 3.03125 2 4.828125 2h354.984375c1.796875 0 3.554687-.726562 4.828125-2 1.269531-1.269531 2-3.027344 2-4.828125v-63.957031c.007812-14.707032-7.003906-27.925782-17.851562-37.195313-10.863282-9.300781-25.617188-14.894531-41.785157-14.898437v13.652344c12.996094-.003907 24.644531 4.535156 32.898438 11.617187 8.265625 7.113281 13.074219 16.527344 13.082031 26.824219v57.132812h-341.332031v-51.285156c.007812-11.910156 5.582031-22.785156 15.085937-30.960938 9.484375-8.140624 22.84375-13.335937 37.726563-13.328124h242.542969v-6.828126zm0 0" fill="#54596e"/><path d="m193.238281 6.828125h-16.929687c-74.496094 0-134.894532 60.394531-134.894532 134.894531v15.289063h286.71875v-15.289063c0-74.5-60.398437-134.894531-134.894531-134.894531zm0 0" fill="#61c5a8"/><path d="m193.238281 6.828125v-6.828125h-16.929687c-78.269532.00390625-141.71875 63.449219-141.722656 141.722656v15.289063c0 1.796875.730468 3.554687 2 4.828125 1.273437 1.269531 3.03125 2 4.828124 2h286.71875c1.796876 0 3.554688-.730469 4.828126-2 1.269531-1.269532 2-3.03125 2-4.828125v-15.289063c-.007813-78.273437-63.453126-141.71874975-141.722657-141.722656v13.652344c35.382813.003906 67.359375 14.324218 90.558594 37.511718 23.1875 23.199219 37.507813 55.171876 37.511719 90.558594v8.464844h-273.070313v-8.464844c.003907-35.386718 14.324219-67.359375 37.511719-90.558594 23.199219-23.1875 55.175781-37.507812 90.558594-37.511718h16.929687zm0 0" fill="#54596e"/><path d="m184.773438 368.640625c-18.851563 0-34.132813-15.285156-34.132813-34.132813v-47.789062h68.265625v47.789062c0 18.847657-15.28125 34.132813-34.132812 34.132813zm0 0" fill="#ffd578"/><path d="m184.773438 368.640625v-6.828125c-7.5625-.003906-14.34375-3.046875-19.308594-8-4.953125-4.960938-7.996094-11.746094-8-19.304688v-40.960937h54.613281v40.960937c0 7.558594-3.042969 14.34375-7.996094 19.304688-4.964843 4.953125-11.75 7.996094-19.308593 8v13.652344c22.625-.003906 40.953124-18.335938 40.960937-40.957032v-47.789062c0-1.796875-.730469-3.554688-2-4.828125-1.269531-1.269531-3.03125-1.996094-4.828125-1.996094h-68.265625c-1.796875 0-3.558594.726563-4.828125 1.996094-1.269531 1.273437-2 3.03125-2 4.828125v47.789062c.007812 22.621094 18.335938 40.953126 40.960938 40.957032zm0 0" fill="#54596e"/><path d="m68.71875 150.1875v61.4375c0 64.09375 51.960938 116.054688 116.054688 116.054688s116.054687-51.960938 116.054687-116.054688v-61.4375s-232.109375-26.964844-232.109375 0zm0 0" fill="#ffd578"/><g fill="#54596e"><path d="m68.71875 150.1875h-6.824219v61.4375c.003907 67.867188 55.011719 122.875 122.878907 122.882812 67.867187-.003906 122.875-55.015624 122.878906-122.882812v-61.4375c0-3.460938-2.601563-6.382812-6.039063-6.78125-.132812-.007812-103.261719-12.015625-172.714843-12.03125-17.410157.007812-32.679688.734375-44.15625 2.722656-5.761719 1.023438-10.566407 2.285156-14.617188 4.375-2.019531 1.0625-3.914062 2.363282-5.507812 4.289063-1.597657 1.886719-2.757813 4.636719-2.722657 7.425781h13.652344-1.875l1.503906 1.230469.371094-1.230469h-1.875l1.503906 1.230469.191407-.171875c.566406-.496094 2.597656-1.542969 5.660156-2.367188 4.597656-1.292968 11.414062-2.308594 19.601562-2.933594 8.203125-.632812 17.8125-.917968 28.265625-.917968 34.007813 0 76.886719 2.976562 111.164063 5.964844 17.140625 1.496093 32.148437 2.988281 42.863281 4.109374 10.714844 1.121094 17.097656 1.863282 17.113281 1.863282l.792969-6.777344h-6.828125v61.4375c-.003906 30.183594-12.214844 57.449219-31.992188 77.234375-19.789062 19.78125-47.050781 31.992187-77.234374 31.992187-30.183594 0-57.445313-12.210937-77.234376-31.992187-19.777343-19.785156-31.988281-47.050781-31.992187-77.234375v-61.4375zm0 0"/><path d="m147.585938 258.691406 13.644531 6.828125c.96875.480469 1.976562.71875 3.054687.71875h40.96875c1.078125 0 2.085938-.234375 3.050782-.71875l13.65625-6.828125c3.371093-1.683594 4.738281-5.785156 3.050781-9.15625-1.683594-3.375-5.785157-4.742187-9.15625-3.054687l-12.214844 6.105469h-37.742187l-12.207032-6.105469c-3.371094-1.6875-7.472656-.320313-9.15625 3.054687-1.6875 3.367188-.320312 7.46875 3.050782 9.15625zm0 0"/><path d="m136.988281 187.734375c0 5.65625-4.585937 10.238281-10.242187 10.238281s-10.238282-4.582031-10.238282-10.238281 4.582032-10.242187 10.238282-10.242187 10.242187 4.585937 10.242187 10.242187zm0 0"/><path d="m253.039062 187.734375c0 5.65625-4.582031 10.238281-10.238281 10.238281s-10.242187-4.582031-10.242187-10.238281 4.585937-10.242187 10.242187-10.242187 10.238281 4.585937 10.238281 10.242187zm0 0"/></g><path d="m41.414062 320.851562h61.4375v27.308594h-61.4375zm0 0" fill="#61c5a8"/><path d="m102.851562 348.160156v-6.828125h-54.613281v-13.652343h47.789063v20.480468h6.824218v-6.828125 6.828125h6.828126v-27.308594c0-1.796874-.726563-3.554687-2-4.828124-1.269532-1.269532-3.027344-1.996094-4.828126-1.996094h-61.4375c-1.796874 0-3.558593.726562-4.828124 1.996094-1.269532 1.273437-2 3.03125-2 4.828124v27.308594c0 1.796875.730468 3.554688 2 4.828125 1.273437 1.269531 3.03125 2 4.828124 2h61.4375c1.800782 0 3.558594-.730469 4.828126-2 1.273437-1.273437 2-3.03125 2-4.828125zm0 0" fill="#54596e"/><path d="m61.894531 402.773438h61.4375v27.304687h-61.4375zm0 0" fill="#61c5a8"/><path d="m123.332031 430.078125v-6.824219h-54.613281v-13.652344h47.789062v20.476563h6.824219v-6.824219 6.824219h6.828125v-27.304687c0-1.796876-.730468-3.558594-2-4.828126-1.269531-1.269531-3.03125-2-4.828125-2h-61.4375c-1.796875 0-3.558593.730469-4.828125 2-1.269531 1.269532-2 3.03125-2 4.828126v27.304687c0 1.800781.730469 3.558594 2 4.828125 1.273438 1.273438 3.03125 2 4.828125 2h61.4375c1.796875 0 3.554688-.726562 4.828125-2 1.269532-1.269531 2-3.027344 2-4.824219h-6.828125zm0 0" fill="#54596e"/><path d="m246.214844 402.773438h61.4375v27.304687h-61.4375zm0 0" fill="#61c5a8"/><path d="m307.652344 430.078125v-6.824219h-54.613282v-13.652344h47.789063v20.476563h6.824219v-6.824219 6.824219h6.828125v-27.304687c0-1.796876-.730469-3.558594-2-4.828126-1.269531-1.269531-3.03125-2-4.828125-2h-61.4375c-1.796875 0-3.558594.730469-4.828125 2-1.269531 1.269532-2 3.03125-2 4.828126v27.304687c0 1.800781.730469 3.558594 2 4.828125 1.273437 1.273438 3.03125 2 4.828125 2h61.4375c1.796875 0 3.554687-.730469 4.828125-2 1.269531-1.269531 2-3.027344 2-4.828125zm0 0" fill="#54596e"/><path d="m157.464844 402.773438h54.613281v27.304687h-54.613281zm0 0" fill="#61c5a8"/><path d="m212.078125 430.078125v-6.824219h-47.785156v-13.652344h40.960937v20.476563h6.824219v-6.824219 6.824219h6.828125v-27.304687c0-1.796876-.726562-3.558594-2-4.828126-1.269531-1.269531-3.027344-2-4.828125-2h-54.613281c-1.796875 0-3.554688.730469-4.824219 2-1.273437 1.269532-2 3.03125-2 4.828126v27.304687c0 1.800781.726563 3.558594 2 4.828125 1.269531 1.273438 3.027344 2 4.824219 2h54.613281c1.800781 0 3.558594-.726562 4.828125-2 1.273438-1.269531 2-3.027344 2-4.828125zm0 0" fill="#54596e"/><path d="m266.691406 320.851562h61.441406v27.308594h-61.441406zm0 0" fill="#61c5a8"/><path d="m328.132812 348.160156v-6.828125h-54.613281v-13.652343h47.789063v20.480468h6.824218v-6.828125 6.828125h6.828126v-27.308594c0-1.796874-.730469-3.554687-2-4.828124-1.269532-1.269532-3.03125-1.996094-4.828126-1.996094h-61.441406c-1.796875 0-3.554687.726562-4.824218 1.996094-1.273438 1.273437-2 3.03125-2 4.828124v27.308594c0 1.796875.726562 3.554688 2 4.828125 1.269531 1.269531 3.027343 1.996094 4.824218 1.996094h61.441406c1.796876 0 3.554688-.726563 4.828126-1.996094 1.269531-1.273437 2-3.03125 2-4.828125zm0 0" fill="#54596e"/><path d="m41.414062 157.011719h27.304688v81.921875h-27.304688zm0 0" fill="#55a6ff"/><path d="m41.414062 238.933594v6.828125h27.304688c1.796875 0 3.558594-.730469 4.828125-2 1.269531-1.273438 2-3.03125 2-4.828125v-81.921875c0-1.796875-.730469-3.554688-2-4.828125-1.269531-1.269532-3.03125-1.996094-4.828125-1.996094h-27.304688c-1.796874 0-3.558593.726562-4.828124 1.996094-1.269532 1.273437-2 3.03125-2 4.828125v81.921875c0 1.796875.730468 3.554687 2 4.828125 1.269531 1.269531 3.03125 2 4.828124 2v-6.828125h6.824219v-75.09375h13.65625v68.265625h-20.480469v6.828125h6.824219zm0 0" fill="#54596e"/><path d="m20.933594 177.492188h20.480468v47.789062h-20.480468zm0 0" fill="#54596e"/><path d="m300.828125 157.011719h27.304687v81.921875h-27.304687zm0 0" fill="#55a6ff"/><path d="m328.132812 238.933594v-6.828125h-20.480468v-68.265625h13.65625v75.09375h6.824218v-6.828125 6.828125h6.828126v-81.921875c0-1.796875-.730469-3.554688-2-4.828125-1.269532-1.269532-3.03125-1.996094-4.828126-1.996094h-27.304687c-1.796875 0-3.558594.726562-4.828125 1.996094-1.269531 1.273437-2 3.03125-2 4.828125v81.921875c0 1.796875.730469 3.554687 2 4.828125 1.273438 1.269531 3.03125 2 4.828125 2h27.304687c1.796876 0 3.558594-.730469 4.828126-2 1.269531-1.273438 2-3.03125 2-4.828125zm0 0" fill="#54596e"/><path d="m328.132812 177.492188h20.480469v47.789062h-20.480469zm0 0" fill="#54596e"/><path d="m41.414062 129.707031v47.785157h27.304688v-20.480469h232.109375v20.480469h27.304687v-47.785157zm0 0" fill="#999"/><path d="m41.414062 129.707031h-6.828124v47.785157c0 1.796874.730468 3.554687 2 4.828124 1.269531 1.269532 3.03125 2 4.828124 2h27.304688c1.796875 0 3.558594-.730468 4.828125-2 1.269531-1.273437 2-3.03125 2-4.828124v-13.652344h218.453125v13.652344c0 1.796874.730469 3.554687 2 4.828124 1.273438 1.269532 3.03125 2 4.828125 2h27.304687c1.796876 0 3.558594-.730468 4.828126-2 1.269531-1.273437 2-3.03125 2-4.828124v-47.785157c0-1.796875-.730469-3.558593-2-4.828125-1.269532-1.269531-3.03125-2-4.828126-2h-286.71875c-1.796874 0-3.558593.730469-4.828124 2-1.269532 1.269532-2 3.03125-2 4.828125h6.828124v6.828125h279.894532v34.132813h-13.65625v-13.65625c0-1.796875-.726563-3.554688-2-4.828125-1.269532-1.269532-3.027344-1.996094-4.824219-1.996094h-232.109375c-1.796875 0-3.554688.726562-4.824219 1.996094-1.273437 1.273437-2 3.03125-2 4.828125v13.65625h-13.65625v-40.960938h-6.824219v6.828125zm0 0" fill="#54596e"/><path d="m89.199219 88.746094v10.191406c0 16.992188 13.777343 30.769531 30.769531 30.769531h34.085938c5.65625 0 10.238281-4.585937 10.238281-10.242187 0-5.652344 4.585937-10.238282 10.242187-10.238282h20.476563c5.65625 0 10.242187 4.585938 10.242187 10.238282 0 5.65625 4.582032 10.242187 10.238282 10.242187h34.085937c16.992187 0 30.769531-13.777343 30.769531-30.769531v-10.191406c0-18.847656-15.285156-34.132813-34.132812-34.132813h-122.882813c-18.847656 0-34.132812 15.285157-34.132812 34.132813zm0 0" fill="#999"/><path d="m89.199219 88.746094h-6.824219v10.191406c.003906 20.765625 16.828125 37.589844 37.59375 37.597656h34.085938c9.425781-.003906 17.0625-7.640625 17.066406-17.070312.003906-1.882813 1.527344-3.40625 3.414062-3.410156h20.476563c1.886719.003906 3.410156 1.527343 3.414062 3.410156.003907 9.429687 7.640625 17.066406 17.066407 17.070312h34.085937c20.765625-.007812 37.59375-16.832031 37.59375-37.597656v-10.191406c-.003906-22.621094-18.335937-40.953125-40.957031-40.960938h-122.882813c-22.621093.007813-40.953125 18.339844-40.957031 40.960938h13.652344c.003906-7.558594 3.046875-14.34375 8-19.308594 4.960937-4.949219 11.746094-7.992188 19.304687-7.996094h122.882813c7.558594.003906 14.34375 3.046875 19.304687 7.996094 4.953125 4.964844 7.996094 11.75 8 19.308594v10.191406c-.003906 6.632812-2.667969 12.574219-7.011719 16.929688-4.355468 4.34375-10.296874 7.007812-16.929687 7.011718h-34.085937c-1.882813-.003906-3.410157-1.527344-3.414063-3.414062 0-9.425782-7.636719-17.0625-17.066406-17.066406h-20.476563c-9.429687.003906-17.066406 7.640624-17.070312 17.066406 0 1.886718-1.527344 3.410156-3.410156 3.414062h-34.085938c-6.632812-.003906-12.574219-2.667968-16.929688-7.011718-4.34375-4.355469-7.007812-10.296876-7.011718-16.929688v-10.191406zm0 0" fill="#54596e"/><path d="m125.332031 70.265625-20.476562 20.480469c-2.667969 2.664062-2.667969 6.988281 0 9.652344 2.664062 2.667968 6.988281 2.667968 9.652343 0l20.480469-20.480469c2.664063-2.664063 2.664063-6.988281 0-9.652344-2.667969-2.667969-6.988281-2.667969-9.65625 0" fill="#fff"/><path d="m201.839844 307.199219h-34.132813c-5.65625 0-10.242187-4.582031-10.242187-10.238281v-6.828126c0-5.65625 4.585937-10.238281 10.242187-10.238281h34.132813c5.65625 0 10.238281 4.582031 10.238281 10.238281v6.828126c0 5.65625-4.582031 10.238281-10.238281 10.238281zm0 0" fill="#54596e"/><path d="m184.773438 300.375h86.011718c27.90625-.007812 50.515625-22.617188 50.523438-50.519531v-10.921875c0-3.769532-3.058594-6.828125-6.828125-6.828125s-6.828125 3.058593-6.828125 6.828125v10.917968c-.003906 10.203126-4.117188 19.375-10.796875 26.070313-6.695313 6.683594-15.867188 10.792969-26.066407 10.796875h-86.015624c-3.769532 0-6.828126 3.054688-6.828126 6.828125 0 3.769531 3.058594 6.828125 6.828126 6.828125zm0 0" fill="#54596e"/></svg>