<svg height="436pt" viewBox="-41 0 436 436.90667" width="436pt" xmlns="http://www.w3.org/2000/svg"><path d="m295.804688 307.199219h-228.886719c-32.9375 0-59.636719 22.886719-59.636719 51.117187v71.761719h341.332031v-77.613281c0-25-23.640625-45.265625-52.808593-45.265625zm0 0" fill="#61c5a8"/><path d="m295.804688 307.199219v-6.824219h-228.886719c-18.054688.003906-34.515625 6.253906-46.613281 16.613281-12.085938 10.328125-19.859376 25.007813-19.851563 41.328125v71.761719c0 1.800781.730469 3.558594 2 4.828125 1.273437 1.273438 3.03125 2 4.828125 2h341.332031c1.796875 0 3.554688-.726562 4.828125-2 1.269532-1.269531 2-3.027344 2-4.824219v-77.613281c.007813-14.707031-7.003906-27.925781-17.851562-37.191406-10.863282-9.300782-25.617188-14.898438-41.789063-14.902344v13.652344c13-.003906 24.648438 4.53125 32.902344 11.613281 8.265625 7.117187 13.074219 16.53125 13.082031 26.828125v70.785156h-327.679687v-64.9375c.007812-11.910156 5.582031-22.789062 15.085937-30.960937 9.484375-8.140625 22.84375-13.335938 37.726563-13.332031h228.886719zm0 0" fill="#54596e"/><path d="m263.015625 430.078125h-170.140625l-37.808594-122.878906h245.761719zm0 0" fill="#adf2a2"/><path d="m263.015625 430.078125v-6.824219h-165.097656l-33.609375-109.226562h227.273437l-35.089843 114.046875 6.523437 2.003906v-6.824219 6.824219l6.527344 2.007813 37.808593-122.878907c.636719-2.070312.253907-4.320312-1.035156-6.0625-1.285156-1.742187-3.320312-2.769531-5.488281-2.769531h-245.761719c-2.167968 0-4.203125 1.027344-5.492187 2.769531-1.289063 1.742188-1.671875 3.992188-1.035157 6.0625l37.8125 122.882813c.878907 2.855468 3.53125 4.816406 6.523438 4.816406h170.140625c2.988281 0 5.644531-1.960938 6.523437-4.816406zm0 0" fill="#54596e"/><path d="m239.386719 430.078125h-122.878907l-27.308593-122.878906h177.492187zm0 0" fill="#61c5a8"/><path d="m239.386719 430.078125v-6.824219h-117.402344l-24.273437-109.226562h160.472656l-25.460938 114.570312 6.664063 1.480469v-6.824219 6.824219l6.664062 1.484375 27.308594-122.882812c.449219-2.023438-.042969-4.132813-1.339844-5.75-1.296875-1.617188-3.253906-2.554688-5.328125-2.554688h-177.492187c-2.074219 0-4.027344.9375-5.324219 2.554688-1.296875 1.617187-1.789062 3.726562-1.339844 5.75l27.308594 122.882812c.691406 3.117188 3.46875 5.34375 6.664062 5.34375h122.878907c3.195312 0 5.972656-2.226562 6.664062-5.34375zm0 0" fill="#54596e"/><path d="m89.199219 184.320312c0 15.082032-12.226563 27.304688-27.304688 27.304688-15.082031 0-27.308593-12.222656-27.308593-27.304688 0-15.082031 12.226562-27.308593 27.308593-27.308593 15.078125 0 27.304688 12.226562 27.304688 27.308593zm0 0" fill="#ffd578"/><path d="m89.199219 184.320312h6.828125c-.003906-18.855468-15.28125-34.128906-34.132813-34.132812-18.855469.003906-34.128906 15.277344-34.132812 34.132812.003906 18.851563 15.277343 34.128907 34.132812 34.132813 18.851563-.003906 34.128907-15.28125 34.132813-34.132813h-13.652344c-.023438 11.304688-9.175781 20.460938-20.480469 20.480469-11.308593-.019531-20.460937-9.175781-20.480469-20.480469.019532-11.308593 9.171876-20.460937 20.480469-20.480468 11.304688.019531 20.457031 9.171875 20.480469 20.480468zm0 0" fill="#54596e"/><path d="m321.308594 184.320312c0 15.082032-12.226563 27.304688-27.308594 27.304688s-27.308594-12.222656-27.308594-27.304688c0-15.082031 12.226563-27.308593 27.308594-27.308593s27.308594 12.226562 27.308594 27.308593zm0 0" fill="#ffd578"/><path d="m321.308594 184.320312h6.824218c-.003906-18.855468-15.277343-34.128906-34.132812-34.132812-18.855469.003906-34.128906 15.277344-34.132812 34.132812.003906 18.851563 15.277343 34.128907 34.132812 34.132813 18.855469-.003906 34.128906-15.28125 34.132812-34.132813h-13.652343c-.019531 11.304688-9.171875 20.460938-20.480469 20.480469-11.308594-.019531-20.460938-9.175781-20.480469-20.480469.019531-11.308593 9.171875-20.460937 20.480469-20.480468 11.308594.019531 20.460938 9.171875 20.480469 20.480468zm0 0" fill="#54596e"/><path d="m198.425781 368.640625h-40.960937c-22.617188 0-40.957032-18.339844-40.957032-40.960937v-13.652344c0-3.769532 3.054688-6.828125 6.824219-6.828125h109.226563c3.769531 0 6.828125 3.058593 6.828125 6.828125v13.652344c0 22.621093-18.339844 40.960937-40.960938 40.960937zm0 0" fill="#adf2a2"/><path d="m198.425781 368.640625v-6.828125h-40.960937c-9.445313-.003906-17.933594-3.808594-24.132813-9.996094-6.1875-6.199218-9.996093-14.691406-10-24.136718v-13.652344h109.226563v13.652344c-.003906 9.445312-3.808594 17.9375-9.996094 24.136718-6.199219 6.1875-14.6875 9.992188-24.136719 9.996094v13.652344c26.394531-.003906 47.78125-21.390625 47.789063-47.785156v-13.652344c-.007813-7.542969-6.113282-13.648438-13.65625-13.652344h-109.226563c-7.542969.003906-13.648437 6.109375-13.652343 13.652344v13.652344c.003906 26.394531 21.394531 47.78125 47.785156 47.785156h40.960937zm0 0" fill="#54596e"/><path d="m218.820312 41.679688c-.902343 22.289062-43.269531 40.242187-95.488281 40.242187-13.023437 0-25.425781-1.128906-36.738281-3.148437-15.421875 19.703124-24.699219 44.449218-24.699219 71.414062v61.4375c0 64.09375 51.957031 116.054688 116.050781 116.054688s116.054688-51.960938 116.054688-116.054688v-61.4375c0-49.6875-31.28125-91.957031-75.179688-108.507812zm0 0" fill="#ffd578"/><g fill="#54596e"><path d="m218.820312 41.679688-6.820312-.277344c-.136719 3.371094-1.828125 7.058594-5.917969 11.09375-6.066406 6.011718-17.273437 11.914062-31.707031 16.007812-14.429688 4.128906-32.050781 6.59375-51.042969 6.589844-12.628906 0-24.644531-1.09375-35.539062-3.039062-2.484375-.445313-5.015625.519531-6.574219 2.511718-16.316406 20.828125-26.15625 47.078125-26.152344 75.621094v61.4375c.003906 67.867188 55.011719 122.875 122.878906 122.882812 67.867188-.003906 122.875-55.015624 122.882813-122.882812v-61.4375c-.011719-52.617188-33.128906-97.386719-79.601563-114.894531-2.046874-.773438-4.347656-.515625-6.175781.695312-1.824219 1.210938-2.960937 3.226563-3.050781 5.414063l6.820312.277344-2.410156 6.386718c41.324219 15.589844 70.773438 55.363282 70.761719 102.121094v61.4375c0 30.183594-12.214844 57.449219-31.988281 77.234375-19.789063 19.78125-47.054688 31.992187-77.238282 31.992187-30.179687 0-57.445312-12.210937-77.234374-31.992187-19.777344-19.785156-31.988282-47.050781-31.992188-77.234375v-61.4375c.003906-25.386719 8.71875-48.628906 23.25-67.207031l-5.375-4.207031-1.203125 6.722656c11.734375 2.089844 24.523437 3.25 37.941406 3.25 26.902344-.015625 51.289063-4.570313 69.640625-12.300782 9.179688-3.882812 16.890625-8.554687 22.667969-14.199218 5.742187-5.601563 9.683594-12.515625 10-20.289063l-6.820313-.277343-2.410156 6.386718zm0 0"/><path d="m146.867188 265.519531 12.207031-6.105469h37.742187l12.210938 6.105469c3.375 1.6875 7.476562.320313 9.160156-3.054687 1.6875-3.371094.320312-7.472656-3.050781-9.15625l-13.65625-6.828125c-.964844-.484375-1.976563-.71875-3.054688-.71875h-40.964843c-1.078126 0-2.089844.238281-3.054688.71875l-13.648438 6.828125c-3.371093 1.6875-4.738281 5.789062-3.050781 9.160156s5.789063 4.738281 9.160157 3.050781zm0 0"/><path d="m130.160156 187.734375c0 5.65625-4.585937 10.238281-10.238281 10.238281-5.65625 0-10.242187-4.582031-10.242187-10.238281s4.585937-10.242187 10.242187-10.242187c5.652344 0 10.238281 4.585937 10.238281 10.242187zm0 0"/><path d="m246.214844 187.734375c0 5.65625-4.585938 10.238281-10.242188 10.238281s-10.238281-4.582031-10.238281-10.238281 4.582031-10.242187 10.238281-10.242187 10.242188 4.585937 10.242188 10.242187zm0 0"/><path d="m61.894531 136.535156h232.105469c3.769531 0 6.828125-3.058594 6.828125-6.828125s-3.058594-6.828125-6.828125-6.828125h-232.105469c-3.769531 0-6.828125 3.058594-6.828125 6.828125s3.058594 6.828125 6.828125 6.828125"/></g><path d="m328.132812 129.707031c0-22.621093-67.242187-40.960937-150.1875-40.960937-82.945312 0-150.183593 18.339844-150.183593 40.960937 0 22.621094 67.238281 40.960938 150.183593 40.960938 82.945313 0 150.1875-18.339844 150.1875-40.960938zm0 0" fill="#61c5a8"/><path d="m27.761719 129.707031h-6.828125c-.011719 4.558594 1.753906 8.828125 4.417968 12.351563 4.714844 6.1875 12.003907 10.871094 21.355469 15.113281 14.042969 6.289063 32.996094 11.28125 55.425781 14.8125 22.414063 3.511719 48.265626 5.507813 75.8125 5.507813 41.992188-.011719 79.988282-4.609376 107.996094-12.238282 14.019532-3.839844 25.542969-8.378906 34.089844-13.871094 4.269531-2.757812 7.832031-5.773437 10.511719-9.328124 2.664062-3.519532 4.425781-7.792969 4.414062-12.351563.011719-4.558594-1.75-8.828125-4.414062-12.351563-4.71875-6.1875-12.007813-10.871093-21.359375-15.117187-14.042969-6.285156-32.996094-11.277344-55.425782-14.808594-22.414062-3.511719-48.261718-5.503906-75.8125-5.503906-41.984374.007813-79.980468 4.609375-107.992187 12.234375-14.019531 3.839844-25.542969 8.378906-34.089844 13.867188-4.269531 2.761718-7.832031 5.773437-10.511719 9.332031-2.667968 3.519531-4.433593 7.789062-4.421874 12.347656l6.832031.003906h6.824219c.011718-1.097656.351562-2.347656 1.6875-4.160156 2.285156-3.144531 7.816406-7.214844 16.027343-10.855469 12.296875-5.53125 30.347657-10.402344 51.949219-13.777344 21.609375-3.386718 46.8125-5.34375 73.695312-5.339843 40.957032-.011719 78.054688 4.558593 104.402344 11.753906 13.160156 3.574219 23.628906 7.859375 30.285156 12.171875 3.328126 2.136719 5.667969 4.269531 6.988282 6.046875 1.335937 1.8125 1.675781 3.0625 1.6875 4.160156-.015625 1.09375-.351563 2.347657-1.6875 4.15625-2.285156 3.144531-7.816406 7.214844-16.027344 10.855469-12.296875 5.53125-30.347656 10.398438-51.949219 13.777344-21.609375 3.390625-46.8125 5.34375-73.699219 5.34375-40.957031.011718-78.054687-4.558594-104.402343-11.757813-13.15625-3.574219-23.628907-7.859375-30.28125-12.167969-3.328125-2.140624-5.667969-4.273437-6.992188-6.050781-1.335937-1.808593-1.671875-3.0625-1.683593-4.15625zm0 0" fill="#54596e"/><path d="m294 129.707031v-6.828125c0-64.09375-51.960938-116.050781-116.054688-116.050781s-116.050781 51.957031-116.050781 116.050781v6.828125" fill="#61c5a8"/><path d="m300.828125 129.707031v-6.828125c-.007813-67.867187-55.015625-122.87499975-122.882813-122.878906-67.867187.00390625-122.875 55.011719-122.878906 122.878906v6.828125c0 3.769531 3.058594 6.828125 6.828125 6.828125s6.824219-3.058594 6.824219-6.828125v-6.828125c.003906-30.183594 12.214844-57.445312 31.992188-77.234375 19.789062-19.777343 47.054687-31.988281 77.234374-31.992187 30.183594.003906 57.449219 12.214844 77.238282 31.996094 19.773437 19.785156 31.988281 47.050781 31.988281 77.230468v6.828125c0 3.769531 3.058594 6.828125 6.828125 6.828125s6.828125-3.058594 6.828125-6.828125zm0 0" fill="#54596e"/><path d="m157.464844 327.679688v40.960937c0 3.769531 3.058594 6.824219 6.828125 6.824219s6.828125-3.054688 6.828125-6.824219v-40.960937c0-3.769532-3.058594-6.828126-6.828125-6.828126s-6.828125 3.058594-6.828125 6.828126" fill="#54596e"/><path d="m130.160156 327.679688v34.132812c0 3.769531 3.054688 6.828125 6.828125 6.828125 3.769531 0 6.824219-3.058594 6.824219-6.828125v-34.132812c0-3.769532-3.054688-6.828126-6.824219-6.828126-3.773437 0-6.828125 3.058594-6.828125 6.828126" fill="#54596e"/><path d="m184.773438 327.679688v40.960937c0 3.769531 3.054687 6.824219 6.828124 6.824219 3.769532 0 6.824219-3.054688 6.824219-6.824219v-40.960937c0-3.769532-3.054687-6.828126-6.824219-6.828126-3.773437 0-6.828124 3.058594-6.828124 6.828126" fill="#54596e"/><path d="m212.078125 327.679688v34.132812c0 3.769531 3.058594 6.828125 6.828125 6.828125s6.828125-3.058594 6.828125-6.828125v-34.132812c0-3.769532-3.058594-6.828126-6.828125-6.828126s-6.828125 3.058594-6.828125 6.828126" fill="#54596e"/></svg>