<svg height="436pt" viewBox="-54 0 436 436.90667" width="436pt" xmlns="http://www.w3.org/2000/svg"><path d="m268.496094 334.507812h-201.578125c-32.9375 0-59.636719 22.886719-59.636719 51.113282v44.457031h314.027344v-50.304687c0-25-23.644532-45.265626-52.8125-45.265626zm0 0" fill="#d8d8d8"/><path d="m268.496094 334.507812v-6.828124h-201.578125c-18.054688.003906-34.515625 6.257812-46.613281 16.613281-12.085938 10.328125-19.859376 25.007812-19.851563 41.328125v44.457031c0 1.800781.730469 3.558594 2 4.828125 1.273437 1.273438 3.03125 2 4.828125 2h314.027344c1.796875 0 3.554687-.726562 4.824218-2 1.273438-1.269531 2-3.027344 2-4.824219v-50.308593c.007813-14.703126-7-27.921876-17.851562-37.191407-10.859375-9.300781-25.617188-14.898437-41.785156-14.898437v13.648437c12.996094-.003906 24.648437 4.535157 32.898437 11.617188 8.265625 7.113281 13.074219 16.527343 13.082031 26.824219v43.480468h-300.371093v-37.628906c.007812-11.910156 5.582031-22.789062 15.085937-30.960938 9.484375-8.144531 22.84375-13.335937 37.726563-13.332031h201.578125zm0 0" fill="#54596e"/><path d="m89.199219 191.148438c0 15.078124-12.226563 27.304687-27.304688 27.304687-15.082031 0-27.308593-12.226563-27.308593-27.304687 0-15.082032 12.226562-27.308594 27.308593-27.308594 15.078125 0 27.304688 12.226562 27.304688 27.308594zm0 0" fill="#ffd578"/><path d="m89.199219 191.148438h6.828125c-.003906-18.855469-15.28125-34.132813-34.132813-34.136719-18.855469.003906-34.128906 15.28125-34.132812 34.136719.003906 18.851562 15.277343 34.125 34.132812 34.132812 18.851563-.003906 34.128907-15.28125 34.132813-34.132812h-13.652344c-.023438 11.304687-9.175781 20.457031-20.480469 20.476562-11.308593-.019531-20.460937-9.171875-20.480469-20.476562.019532-11.308594 9.171876-20.460938 20.480469-20.480469 11.304688.019531 20.457031 9.171875 20.480469 20.480469zm0 0" fill="#54596e"/><path d="m294 191.148438c0 15.078124-12.226562 27.304687-27.308594 27.304687-15.078125 0-27.304687-12.226563-27.304687-27.304687 0-15.082032 12.226562-27.308594 27.304687-27.308594 15.082032 0 27.308594 12.226562 27.308594 27.308594zm0 0" fill="#ffd578"/><path d="m294 191.148438h6.828125c-.007813-18.855469-15.28125-34.132813-34.136719-34.136719-18.851562.003906-34.125 15.28125-34.132812 34.136719.007812 18.851562 15.28125 34.125 34.132812 34.132812 18.855469-.003906 34.128906-15.28125 34.136719-34.132812h-13.65625c-.019531 11.304687-9.171875 20.457031-20.480469 20.476562-11.304687-.019531-20.457031-9.171875-20.476562-20.476562.019531-11.308594 9.171875-20.460938 20.476562-20.480469 11.308594.019531 20.460938 9.171875 20.480469 20.480469zm0 0" fill="#54596e"/><path d="m164.292969 382.292969c-15.078125 0-27.304688-12.226563-27.304688-27.304688v-68.269531h54.613281v68.269531c0 15.078125-12.226562 27.304688-27.308593 27.304688zm0 0" fill="#ffd578"/><path d="m164.292969 382.292969v-6.828125c-11.304688-.019532-20.460938-9.171875-20.480469-20.476563v-61.441406h40.960938v61.441406c-.019532 11.304688-9.171876 20.457031-20.480469 20.476563v13.65625c18.855469-.003906 34.128906-15.28125 34.132812-34.132813v-68.269531c0-1.796875-.726562-3.554688-2-4.828125-1.269531-1.269531-3.027343-1.996094-4.824219-1.996094h-54.613281c-1.796875 0-3.558593.726563-4.828125 1.996094-1.269531 1.273437-2 3.03125-2 4.828125v68.269531c.003906 18.851563 15.28125 34.125 34.132813 34.132813zm0 0" fill="#54596e"/><path d="m164.292969 334.507812c-56.554688 0-102.398438-66.328124-102.398438-122.882812v-81.917969h204.796875v81.917969c0 56.554688-45.84375 122.882812-102.398437 122.882812zm0 0" fill="#ffd578"/><g fill="#54596e"><path d="m164.292969 334.507812v-6.828124c-12.789063-.003907-25.050781-3.734376-36.433594-10.328126-17.058594-9.867187-31.984375-26.269531-42.507813-45.296874-10.539062-19.015626-16.648437-40.605469-16.632812-60.429688v-75.09375h191.148438v75.09375c.046874 26.4375-10.898438 55.984375-28.539063 78.4375-8.800781 11.238281-19.230469 20.703125-30.597656 27.289062-11.382813 6.59375-23.644531 10.324219-36.433594 10.328126v13.652343c15.484375.003907 30.160156-4.554687 43.28125-12.164062 19.695313-11.441407 36.042969-29.648438 47.601563-50.5 11.539062-20.871094 18.324218-44.449219 18.339843-67.042969v-81.917969c0-1.800781-.726562-3.558593-2-4.828125-1.269531-1.273437-3.027343-2-4.828125-2h-204.796875c-1.796875 0-3.558593.726563-4.828125 2-1.269531 1.269532-2 3.03125-2 4.828125v81.917969c.046875 30.117188 12.027344 62.011719 31.445313 86.859375 9.730469 12.414063 21.367187 23.0625 34.5 30.679687 13.117187 7.613282 27.796875 12.171876 43.28125 12.167969zm0 0"/><path d="m116.507812 187.734375c0 5.65625-4.585937 10.238281-10.242187 10.238281s-10.238281-4.582031-10.238281-10.238281 4.582031-10.242187 10.238281-10.242187 10.242187 4.585937 10.242187 10.242187zm0 0"/><path d="m232.558594 187.734375c0 5.65625-4.582032 10.238281-10.238282 10.238281s-10.242187-4.582031-10.242187-10.238281 4.585937-10.242187 10.242187-10.242187 10.238282 4.585937 10.238282 10.242187zm0 0"/></g><path d="m157.464844 273.066406h13.65625c7.539062 0 13.652344-6.113281 13.652344-13.652344 0-7.539062-6.113282-13.652343-13.652344-13.652343h-13.65625c-7.539063 0-13.652344 6.113281-13.652344 13.652343 0 7.539063 6.113281 13.652344 13.652344 13.652344" fill="#ff927d"/><path d="m136.988281 259.414062h54.613281c3.769532 0 6.824219-3.058593 6.824219-6.828124 0-3.769532-3.054687-6.824219-6.824219-6.824219h-54.613281c-3.773437 0-6.828125 3.054687-6.828125 6.824219 0 3.769531 3.054688 6.828124 6.828125 6.828124" fill="#ff927d"/><path d="m7.28125 402.773438h20.480469c15.078125 0 27.304687 12.226562 27.304687 27.304687h-47.785156zm0 0" fill="#ffd578"/><path d="m7.28125 402.773438v6.828124h20.480469c11.304687.019532 20.457031 9.171876 20.476562 20.476563h6.828125v-6.824219h-40.960937v-20.480468h-6.824219v6.828124-6.828124h-6.828125v27.304687c0 1.800781.730469 3.558594 2 4.828125 1.273437 1.273438 3.03125 2 4.828125 2h47.785156c1.796875 0 3.554688-.726562 4.828125-2 1.269531-1.269531 2-3.027344 2-4.828125-.007812-18.851563-15.28125-34.128906-34.132812-34.132813h-20.480469c-1.796875 0-3.558594.726563-4.828125 2-1.269531 1.269532-2 3.03125-2 4.828126zm0 0" fill="#54596e"/><path d="m321.308594 402.773438h-20.480469c-15.082031 0-27.308594 12.226562-27.308594 27.304687h47.789063zm0 0" fill="#ffd578"/><path d="m321.308594 402.773438v-6.828126h-20.480469c-18.855469.003907-34.128906 15.28125-34.136719 34.132813 0 1.800781.730469 3.558594 2.003906 4.828125 1.269532 1.273438 3.027344 2 4.824219 2h47.789063c1.796875 0 3.554687-.726562 4.824218-2 1.273438-1.269531 2-3.027344 2-4.828125v-27.304687c0-1.800782-.726562-3.558594-2-4.828126-1.269531-1.269531-3.027343-2-4.824218-2v6.828126h-6.828125v20.480468h-40.960938v6.824219h6.828125c.019532-11.304687 9.171875-20.457031 20.480469-20.476563h20.480469v-6.828124h-6.828125zm0 0" fill="#54596e"/><path d="m280.347656 61.441406c0-22.625-18.339844-40.960937-40.960937-40.960937-11.277344 0-21.488281 4.558593-28.894531 11.933593-9.664063-15.355468-26.714844-25.585937-46.199219-25.585937s-36.53125 10.230469-46.199219 25.582031c-7.40625-7.371094-17.617188-11.929687-28.894531-11.929687-22.621094 0-40.960938 18.335937-40.960938 40.960937 0 12.117188 5.296875 22.96875 13.65625 30.464844v71.933594h204.796875v-71.929688c8.359375-7.5 13.65625-18.351562 13.65625-30.46875zm0 0" fill="#d8d8d8"/><path d="m280.347656 61.441406h6.824219c-.003906-26.398437-21.394531-47.785156-47.785156-47.789062-13.136719-.003906-25.089844 5.332031-33.710938 13.921875l4.816407 4.839843 5.777343-3.636718c-10.84375-17.246094-30.058593-28.777344-51.976562-28.777344s-41.132813 11.527344-51.976563 28.769531l5.777344 3.640625 4.816406-4.839844c-8.621094-8.585937-20.574218-13.921874-33.710937-13.917968-26.390625.003906-47.78125 21.390625-47.785157 47.789062-.003906 14.128906 6.195313 26.839844 15.921876 35.546875l4.558593-5.082031h-6.828125v71.933594c0 1.796875.730469 3.554687 2 4.828125 1.273438 1.269531 3.03125 2 4.828125 2h204.796875c1.800782 0 3.558594-.726563 4.828125-2 1.273438-1.269531 2-3.027344 2-4.828125v-71.929688h-6.828125l4.558594 5.082032c9.726562-8.710938 15.925781-21.421876 15.921875-35.550782h-13.652344c-.003906 10.101563-4.390625 19.097656-11.382812 25.386719-1.453125 1.300781-2.269531 3.128906-2.269531 5.082031v65.101563h-191.148438v-65.105469c0-1.953125-.816406-3.777344-2.265625-5.082031-6.996094-6.285157-11.382813-15.28125-11.386719-25.382813.003906-9.449218 3.8125-17.941406 9.996094-24.140625 6.199219-6.183593 14.691406-9.992187 24.136719-9.992187 9.417969 0 17.882812 3.785156 24.078125 9.941406 1.46875 1.460938 3.523437 2.175781 5.585937 1.945312 2.058594-.234374 3.902344-1.394531 5.007813-3.148437 8.488281-13.457031 23.371094-22.394531 40.421875-22.394531s31.933593 8.9375 40.421875 22.398437c1.105468 1.753907 2.949218 2.914063 5.007812 3.144531 2.058594.234376 4.117188-.480468 5.585938-1.945312 6.195312-6.15625 14.660156-9.941406 24.078125-9.941406 9.445312 0 17.9375 3.808594 24.136719 9.996094 6.1875 6.199218 9.992187 14.6875 9.996093 24.136718zm0 0" fill="#54596e"/><path d="m116.507812 75.09375v47.785156c0 3.769532 3.054688 6.828125 6.824219 6.828125s6.828125-3.058593 6.828125-6.828125v-47.785156c0-3.769531-3.058594-6.828125-6.828125-6.828125s-6.824219 3.058594-6.824219 6.828125" fill="#999"/><path d="m198.425781 75.09375v47.785156c0 3.769532 3.058594 6.828125 6.828125 6.828125 3.769532 0 6.824219-3.058593 6.824219-6.828125v-47.785156c0-3.769531-3.054687-6.828125-6.824219-6.828125-3.769531 0-6.828125 3.058594-6.828125 6.828125" fill="#999"/></svg>