<svg height="437pt" viewBox="-34 0 437 437.02272" width="437pt" xmlns="http://www.w3.org/2000/svg"><path d="m150.199219 286.757812h68.265625v81.921876h-68.265625zm0 0" fill="#ffd578"/><path d="m218.464844 368.679688v-6.828126h-61.441406v-68.265624h54.613281v75.09375h6.828125v-6.828126 6.828126h6.828125v-81.921876c0-1.796874-.730469-3.554687-2-4.828124-1.273438-1.269532-3.03125-1.996094-4.828125-1.996094h-68.265625c-1.796875 0-3.558594.726562-4.828125 1.996094-1.269532 1.273437-2 3.03125-2 4.828124v81.921876c0 1.796874.730468 3.554687 2 4.824218 1.273437 1.273438 3.03125 2 4.828125 2h68.265625c1.796875 0 3.554687-.726562 4.828125-2 1.269531-1.269531 2-3.027344 2-4.824218zm0 0" fill="#54596e"/><path d="m309.015625 320.894531h-49.867187l-74.820313 54.613281-74.816406-54.613281h-43.039063c-32.933594 0-59.632812 22.882813-59.632812 51.113281v58.113282h354.984375v-63.960938c0-25-23.644531-45.265625-52.808594-45.265625zm0 0" fill="#61c5a8"/><path d="m309.015625 320.894531v-6.828125h-49.867187c-1.460938 0-2.847657.453125-4.023438 1.3125l-70.796875 51.675782-70.789063-51.675782c-1.179687-.859375-2.570312-1.3125-4.027343-1.3125h-43.039063c-18.050781.003906-34.515625 6.257813-46.609375 16.613282-12.085937 10.324218-19.85937475 25.007812-19.8515622 41.328124v58.113282c0 1.796875.7265622 3.554687 2.0000002 4.824218 1.269531 1.273438 3.027343 2 4.828125 2h354.984375c1.796875 0 3.554687-.726562 4.828125-2 1.269531-1.269531 2-3.027343 2-4.824218v-63.960938c.007812-14.707031-7.003906-27.925781-17.851563-37.191406-10.863281-9.304688-25.617187-14.898438-41.789062-14.902344v13.652344c13-.003906 24.648437 4.535156 32.902343 11.617188 8.265626 7.113281 13.074219 16.527343 13.082032 26.824218v57.132813h-341.332032v-51.28125c.007813-11.910157 5.582032-22.789063 15.085938-30.964844 9.484375-8.140625 22.84375-13.332031 37.726562-13.328125h40.8125l73.015626 53.300781c2.398437 1.75 5.652343 1.75 8.050781 0l73.023437-53.300781h47.640625v-6.824219zm0 0" fill="#54596e"/><path d="m122.890625 330.660156v99.460938h122.878906v-99.464844l-61.441406 44.851562zm0 0" fill="#fff"/><path d="m122.890625 330.660156h-6.824219v99.460938c0 1.796875.726563 3.554687 2 4.824218 1.269532 1.273438 3.027344 2 4.824219 2h122.878906c1.800781 0 3.558594-.726562 4.828125-2 1.273438-1.269531 2-3.027343 2-4.824218v-99.464844c0-2.570312-1.445312-4.921875-3.734375-6.085938-2.289062-1.164062-5.039062-.941406-7.117187.570313l-57.417969 41.914063-57.414063-41.910157c-2.074218-1.515625-4.824218-1.734375-7.113281-.570312-2.292969 1.164062-3.734375 3.515625-3.734375 6.085937h6.824219l-4.023437 5.511719 61.4375 44.847656c2.398437 1.75 5.652343 1.75 8.050781 0l50.589843-36.929687v79.203125h-109.226562v-92.632813h-6.828125l-4.023437 5.511719zm0 0" fill="#54596e"/><path d="m150.199219 375.507812-34.132813 13.652344-13.65625-68.265625h47.789063zm0 0" fill="#fff"/><path d="m150.199219 375.507812-2.539063-6.339843-26.511718 10.605469-10.410157-52.054688h32.632813v47.789062h6.828125l-2.539063-6.339843 2.539063 6.339843h6.824219v-54.613281c0-1.800781-.726563-3.558593-2-4.832031-1.269532-1.269531-3.027344-1.996094-4.824219-1.996094h-47.789063c-2.046875 0-3.980468.914063-5.277344 2.5-1.300781 1.582032-1.816406 3.65625-1.414062 5.664063l13.652344 68.265625c.398437 1.984375 1.664062 3.699218 3.441406 4.664062 1.78125.964844 3.90625 1.089844 5.789062.335938l34.132813-13.652344c2.582031-1.035156 4.289063-3.558594 4.289063-6.339844h-6.824219zm0 0" fill="#54596e"/><path d="m218.464844 375.507812 34.132812 13.652344 13.652344-68.265625h-47.785156zm0 0" fill="#fff"/><path d="m218.464844 375.507812-2.535156 6.335938 34.132812 13.652344c1.878906.753906 4.007812.628906 5.785156-.335938 1.78125-.960937 3.046875-2.675781 3.445313-4.660156l13.652343-68.269531c.402344-2.007813-.117187-4.082031-1.414062-5.664063-1.300781-1.585937-3.230469-2.5-5.28125-2.5h-47.785156c-1.796875 0-3.558594.726563-4.828125 2-1.269531 1.269532-2 3.027344-2 4.828125v54.613281c0 2.78125 1.710937 5.304688 4.292969 6.339844l2.535156-6.339844h6.828125v-47.789062h32.632812l-10.410156 52.050781-26.515625-10.605469-2.535156 6.34375h6.828125zm0 0" fill="#54596e"/><path d="m163.839844 430.195312h40.960937l-9.097656-61.515624h-22.757813zm0 0" fill="#999"/><path d="m163.839844 430.195312v6.828126h40.960937c1.976563 0 3.878907-.871094 5.167969-2.367188 1.289062-1.492188 1.875-3.503906 1.585938-5.457031l-9.101563-61.519531c-.492187-3.34375-3.371094-5.828126-6.75-5.828126h-22.757813c-3.378906 0-6.257812 2.484376-6.753906 5.828126l-9.105468 61.515624c-.289063 1.953126.296874 3.964844 1.585937 5.460938 1.292969 1.496094 3.195313 2.367188 5.167969 2.367188v-6.828126l6.753906 1 8.242188-55.691406h10.972656l7.082031 47.863282h-33.050781v6.828124l6.753906 1zm0 0" fill="#54596e"/><path d="m88.757812 184.359375c0 15.082031-12.226562 27.304687-27.304687 27.304687-15.082031 0-27.308594-12.222656-27.308594-27.304687s12.226563-27.308594 27.308594-27.308594c15.078125 0 27.304687 12.226563 27.304687 27.308594zm0 0" fill="#ffd578"/><path d="m88.757812 184.359375h6.828126c-.007813-18.855469-15.28125-34.128906-34.132813-34.132813-18.855469.003907-34.128906 15.277344-34.136719 34.132813.007813 18.851563 15.28125 34.128906 34.136719 34.132813 18.851563-.003907 34.125-15.28125 34.132813-34.132813h-13.65625c-.019532 11.304687-9.171876 20.460937-20.476563 20.480469-11.308594-.019532-20.460937-9.175782-20.480469-20.480469.019532-11.308594 9.171875-20.460937 20.480469-20.480469 11.304687.019532 20.457031 9.171875 20.476563 20.480469zm0 0" fill="#54596e"/><path d="m334.519531 184.359375c0 15.082031-12.226562 27.304687-27.308593 27.304687-15.082032 0-27.304688-12.222656-27.304688-27.304687s12.222656-27.308594 27.304688-27.308594c15.082031 0 27.308593 12.226563 27.308593 27.308594zm0 0" fill="#ffd578"/><path d="m334.519531 184.359375h6.824219c-.003906-18.855469-15.277344-34.128906-34.132812-34.132813-18.851563.003907-34.128907 15.277344-34.132813 34.132813.003906 18.851563 15.28125 34.128906 34.132813 34.132813 18.855468-.003907 34.128906-15.28125 34.132812-34.132813h-13.652344c-.019531 11.304687-9.171875 20.460937-20.480468 20.480469-11.304688-.019532-20.460938-9.175782-20.480469-20.480469.019531-11.308594 9.175781-20.460937 20.480469-20.480469 11.308593.019532 20.460937 9.171875 20.480468 20.480469zm0 0" fill="#54596e"/><path d="m225.203125 41.71875c-.902344 22.289062-43.269531 40.242188-95.484375 40.242188-13.023438 0-25.425781-1.128907-36.738281-3.148438-15.425781 19.703125-24.703125 44.449219-24.703125 71.414062v61.4375c0 64.097657 51.960937 116.054688 116.054687 116.054688s116.050781-51.957031 116.050781-116.054688v-61.4375c0-49.6875-31.28125-91.957031-75.179687-108.507812zm0 0" fill="#ffd578"/><g fill="#54596e"><path d="m225.203125 41.71875-6.820313-.277344c-.136718 3.371094-1.824218 7.058594-5.914062 11.09375-6.066406 6.011719-17.273438 11.910156-31.707031 16.003906-14.433594 4.132813-32.054688 6.597657-51.046875 6.59375-12.628906 0-24.644532-1.097656-35.539063-3.042968-2.484375-.441406-5.015625.523437-6.574219 2.515625-16.3125 20.828125-26.152343 47.078125-26.148437 75.621093v61.4375c.003906 67.867188 55.011719 122.875 122.878906 122.882813 67.863281-.003906 122.875-55.011719 122.878907-122.882813v-61.4375c-.007813-52.617187-33.125-97.386718-79.597657-114.894531-2.050781-.773437-4.351562-.515625-6.179687.695313-1.824219 1.210937-2.960938 3.226562-3.050782 5.414062l6.820313.277344-2.40625 6.390625c41.320313 15.589844 70.769531 55.359375 70.761719 102.117187v61.4375c-.003906 30.183594-12.214844 57.449219-31.992188 77.234376-19.785156 19.777343-47.050781 31.988281-77.234375 31.996093-30.183593-.003906-57.445312-12.21875-77.234375-31.996093-19.777344-19.785157-31.988281-47.050782-31.992187-77.234376v-61.4375c.003906-25.386718 8.714843-48.628906 23.246093-67.207031l-5.375-4.207031-1.199218 6.722656c11.730468 2.09375 24.523437 3.253906 37.9375 3.253906 26.902344-.015624 51.289062-4.574218 69.640625-12.300781 9.179687-3.886719 16.890625-8.554687 22.667969-14.203125 5.742187-5.597656 9.683593-12.511718 10-20.289062l-6.820313-.277344-2.40625 6.390625zm0 0"/><path d="m147.144531 258.730469 13.644531 6.828125c.964844.480468 1.976563.71875 3.054688.71875h40.96875c1.078125 0 2.085938-.238282 3.050781-.71875l13.65625-6.828125c3.371094-1.6875 4.738281-5.785157 3.050781-9.160157-1.683593-3.371093-5.785156-4.738281-9.15625-3.050781l-12.214843 6.101563h-37.742188l-12.207031-6.101563c-3.371094-1.691406-7.472656-.324219-9.160156 3.050781-1.683594 3.375-.316406 7.472657 3.054687 9.160157zm0 0"/><path d="m136.542969 187.773438c0 5.65625-4.582031 10.238281-10.238281 10.238281s-10.238282-4.582031-10.238282-10.238281 4.582032-10.242188 10.238282-10.242188 10.238281 4.585938 10.238281 10.242188zm0 0"/><path d="m252.597656 187.773438c0 5.65625-4.585937 10.238281-10.238281 10.238281-5.65625 0-10.242187-4.582031-10.242187-10.238281s4.585937-10.242188 10.242187-10.242188c5.652344 0 10.238281 4.585938 10.238281 10.242188zm0 0"/></g><path d="m54.625 129.746094c0 22.621094 58.070312 40.960937 129.707031 40.960937s129.707031-18.339843 129.707031-40.960937zm0 0" fill="#999"/><path d="m54.625 129.746094h-6.828125c-.007813 4.308594 1.429687 8.433594 3.734375 11.96875 4.074219 6.203125 10.535156 11.035156 18.722656 15.328125 12.308594 6.378906 28.8125 11.402343 48.292969 14.953125 19.472656 3.535156 41.894531 5.535156 65.785156 5.535156 36.414063-.011719 69.367188-4.621094 93.773438-12.3125 12.214843-3.871094 22.304687-8.46875 29.824219-14.058594 3.753906-2.808594 6.890624-5.890625 9.203124-9.445312 2.304688-3.535156 3.742188-7.65625 3.730469-11.96875 0-1.800782-.726562-3.558594-2-4.828125-1.269531-1.273438-3.027343-2-4.824219-2h-259.414062c-1.796875 0-3.558594.726562-4.828125 2-1.269531 1.269531-2 3.03125-2 4.828125h6.828125v6.828125h259.414062v-6.828125h-6.828124c-.011719 1.34375-.386719 2.742187-1.539063 4.542968-1.96875 3.125-6.582031 7.046876-13.558594 10.636719-10.441406 5.445313-25.894531 10.28125-44.4375 13.636719-18.554687 3.371094-40.222656 5.316406-63.34375 5.316406-35.222656.011719-67.121093-4.546875-89.660156-11.679687-11.261719-3.539063-20.164063-7.769531-25.769531-11.980469-2.8125-2.09375-4.769532-4.15625-5.914063-5.929688-1.152343-1.800781-1.527343-3.199218-1.539062-4.542968h-6.824219v6.828125zm0 0" fill="#54596e"/><path d="m54.625 109.265625h259.414062v20.480469h-259.414062zm0 0" fill="#fff35f"/><path d="m314.039062 109.265625v-6.828125h-259.414062c-1.796875 0-3.558594.730469-4.828125 2-1.269531 1.273438-2 3.03125-2 4.828125v20.480469c0 1.796875.730469 3.554687 2 4.828125 1.273437 1.269531 3.03125 1.996093 4.828125 1.996093h259.414062c1.796876 0 3.554688-.726562 4.824219-1.996093 1.273438-1.273438 2-3.03125 2-4.828125v-20.480469c0-1.796875-.726562-3.554687-2-4.828125-1.269531-1.269531-3.027343-2-4.824219-2v6.828125h-6.828124v13.652344h-245.757813v-6.824219h252.585937v-6.828125h-6.828124zm0 0" fill="#54596e"/><path d="m139.316406 13.339844-105.171875 37.898437 20.480469 58.027344h259.414062l20.480469-58.027344-105.183593-37.902343c-29.378907-8.679688-60.640626-8.675782-90.019532.003906zm0 0" fill="#61c5a8"/><path d="m139.316406 13.339844-2.316406-6.421875-105.167969 37.898437c-3.527343 1.273438-5.371093 5.160156-4.125 8.695313l20.480469 58.027343c.960938 2.71875 3.550781 4.550782 6.4375 4.550782h259.414062c2.886719 0 5.476563-1.832032 6.4375-4.550782l20.480469-58.027343c1.246094-3.535157-.597656-7.425781-4.125-8.695313l-105.179687-37.902344-.378906-.125c-15.320313-4.527343-31.132813-6.789062-46.941407-6.789062-15.8125 0-31.628906 2.261719-46.953125 6.789062l-.378906.125 2.316406 6.425782 1.933594 6.546875c14.0625-4.15625 28.570312-6.234375 43.085938-6.234375 14.503906 0 29.011718 2.078125 43.066406 6.230468l1.933594-6.546874-2.3125 6.421874 98.800781 35.601563-16.617188 47.078125h-249.753906l-16.613281-47.078125 98.789062-35.597656-2.3125-6.421875 1.933594 6.546875zm0 0" fill="#54596e"/><path d="m307.210938 314.066406v47.785156h13.652343v-47.785156" fill="#fff35f"/><path d="m279.90625 314.066406v47.785156h13.652344v-47.785156" fill="#fff35f"/><path d="m40.972656 395.984375h40.957032v-13.652344h-40.957032" fill="#fff35f"/><path d="m187.617188 27.414062 5.859374 18.023438c.460938 1.425781 1.789063 2.386719 3.285157 2.386719h18.953125c3.347656 0 4.738281 4.285156 2.03125 6.253906l-15.332032 11.140625c-1.210937.878906-1.71875 2.441406-1.253906 3.863281l5.855469 18.023438c1.035156 3.1875-2.609375 5.835937-5.320313 3.867187l-15.328124-11.136718c-1.214844-.882813-2.851563-.882813-4.066407 0l-15.328125 11.136718c-2.710937 1.96875-6.355468-.679687-5.320312-3.867187l5.855468-18.023438c.464844-1.421875-.042968-2.984375-1.253906-3.863281l-15.332031-11.140625c-2.707031-1.96875-1.3125-6.253906 2.03125-6.253906h18.953125c1.496094 0 2.820312-.960938 3.285156-2.386719l5.859375-18.023438c1.027344-3.183593 5.535157-3.183593 6.566407 0zm0 0" fill="#fff35f"/><path d="m187.617188 27.414062-6.492188 2.109376 5.859375 18.023437c1.371094 4.234375 5.324219 7.105469 9.777344 7.105469h18.953125v-3.417969l-2.496094 2.296875c.566406.667969 1.683594 1.152344 2.496094 1.121094v-3.417969l-2.496094 2.296875 2.410156-2.214844h-3.277344c.011719.839844.277344 1.550782.867188 2.214844l2.410156-2.21875h-3.277344 3.382813l-2.007813-2.753906c-.789062.523437-1.429687 1.8125-1.375 2.753906h3.382813l-2.007813-2.753906.007813-.003906-15.328125 11.140624.003906-.003906c-2.714844 1.96875-4.25 5.089844-4.246094 8.320313 0 1.058593.167969 2.136719.503907 3.171875v.003906l5.859375 18.023438 3.085937-1h-3.242187l.15625 1 3.089844-1h-3.242188 3.425781l-2.386719-2.484376c-.570312.53125-1.042968 1.457032-1.039062 2.484376h3.425781l-2.382812-2.484376 2.304687 2.398438v-3.308594c-.980468.007813-1.730468.363282-2.304687.910156l2.304687 2.398438v-3.308594 3.351563l1.972656-2.734375c-.472656-.359375-1.265624-.632813-1.972656-.621094v3.355469l1.972656-2.738281.019532.011718-15.328125-11.136718c-1.800781-1.3125-3.9375-1.96875-6.046875-1.964844-2.113282 0-4.246094.65625-6.042969 1.960937l-.003906.003907-15.328125 11.136718h.003906l1.988281 2.742188v-3.371094c-.707031-.011719-1.511719.265625-1.988281.625l1.988281 2.742188v-3.367188 3.308594l2.308594-2.398438c-.574219-.542968-1.324219-.902344-2.308594-.914062v3.3125l2.308594-2.398438-2.382813 2.476563h3.421876c.003906-1.023438-.464844-1.949219-1.039063-2.476563l-2.382813 2.476563h3.421876-3.265626l3.105469 1.011719.15625-1.011719h-3.261719l3.105469 1.011719.003907-.007813 5.855468-18.023437c.339844-1.042969.503906-2.121094.503906-3.179688 0-3.230469-1.527343-6.355469-4.253906-8.328125l.015625.011719-15.332031-11.140625h.003906l-2.003906 2.757812h3.382812c.054688-.941406-.582031-2.230469-1.378906-2.757812l-2.003906 2.757812h3.382812-3.277343l2.40625 2.21875c.59375-.664062.859375-1.378906.871093-2.21875h-3.277343l2.40625 2.21875-2.496094-2.300781v3.417969c.8125.03125 1.933594-.453125 2.496094-1.117188l-2.496094-2.300781v3.417969h18.953125c4.453125 0 8.40625-2.871094 9.78125-7.109375l5.855469-18.019532v-.003906l-3.234375-1.046875 1.902344 2.792969c.625-.40625 1.152343-1.144531 1.332031-1.746094l-3.234375-1.046875 1.902344 2.792969-1.878907-2.738281v3.339843c.605469 0 1.25-.164062 1.875-.585937l-1.875-2.753906v3.339843-3.339843l-1.875 2.75c.625.421875 1.265625.589843 1.875.589843v-3.339843l-1.875 2.75 1.902344-2.792969-3.234375 1.050781c.179688.601563.707031 1.339844 1.332031 1.742188l1.902344-2.792969-3.234375 1.050781 6.492188-2.105469 6.496093-2.109374c-.699219-2.191407-2.175781-4.125-3.96875-5.324219-1.789062-1.21875-3.816406-1.78125-5.8125-1.78125-1.992187 0-4.019531.5625-5.8125 1.777343-1.792969 1.203126-3.269531 3.132813-3.96875 5.328126h.003907l-5.859376 18.023437 3.207032 1.039063v-3.367188c-1.460938 0-2.757813.941406-3.207032 2.328125l3.207032 1.039063v-3.367188h-18.953125c-2.9375-.03125-5.789063 1.316406-7.550781 3.285156-1.792969 1.96875-2.726563 4.425782-2.738282 7.03125-.054687 2.972656 1.46875 6.316406 4.242188 8.285156h.003906l15.332031 11.140626.015625.007812 1.976563-2.738281h-3.382813c0 1.058593.503906 2.085937 1.40625 2.738281l1.976563-2.742188h-3.382813 3.367188l-3.203125-1.039062-.164063 1.039062h3.367188l-3.203125-1.039062-5.855469 18.023438.003906-.011719c-.34375 1.050781-.515625 2.144531-.515625 3.226562-.003906 2.953125 1.292969 5.59375 3.148438 7.359375 1.859375 1.777344 4.351562 2.890625 7.160156 2.902344 2.058594.011719 4.261719-.675781 6.027344-1.976562h.003906l15.328125-11.140626-.003906.003907-1.976563-2.71875v3.363281c.683594 0 1.394531-.21875 1.972657-.640625l-1.972657-2.722656v3.363281-3.371094l-1.980469 2.726563c.585938.425781 1.300782.648437 1.980469.644531v-3.371094l-1.980469 2.726563 15.328126 11.140625.019531.011718c1.761719 1.289063 3.953125 1.976563 6.015625 1.960938 2.804687-.007812 5.296875-1.117188 7.152344-2.898438 1.859374-1.761718 3.160156-4.40625 3.152343-7.359374.003907-1.082032-.175781-2.179688-.511719-3.214844l-5.859374-18.023438.003906.003906-3.199219 1.035157h3.363281l-.164062-1.035157-3.195313 1.035157h3.359375-3.371094l1.980469 2.730469c.886719-.644532 1.394531-1.667969 1.394531-2.730469h-3.375l1.980469 2.730469.007813-.003907 15.328125-11.136719.007812-.007812c2.769531-1.960938 4.292969-5.304688 4.238281-8.28125-.011718-2.601562-.945312-5.0625-2.738281-7.027344-1.761719-1.96875-4.613281-3.320312-7.550781-3.289062h-18.953125v3.367187l3.207031-1.039062c-.449218-1.382813-1.746094-2.328125-3.207031-2.328125v3.367187l3.207031-1.039062-5.855468-18.023438zm0 0" fill="#54596e"/></svg>