<svg height="436pt" viewBox="-34 0 436 436.90667" width="436pt" xmlns="http://www.w3.org/2000/svg"><path d="m150.636719 286.71875h68.269531v81.921875h-68.269531zm0 0" fill="#bfad88"/><path d="m218.90625 368.640625v-6.828125h-61.441406v-68.265625h54.613281v75.09375h6.828125v-6.828125 6.828125h6.824219v-81.921875c0-1.796875-.726563-3.554688-1.996094-4.828125-1.273437-1.269531-3.03125-1.996094-4.828125-1.996094h-68.269531c-1.796875 0-3.554688.726563-4.828125 1.996094-1.269532 1.273437-1.996094 3.03125-1.996094 4.828125v81.921875c0 1.796875.726562 3.554687 2 4.824219 1.269531 1.273437 3.027344 2 4.824219 2h68.269531c1.796875 0 3.554688-.726563 4.824219-2 1.273437-1.269532 2-3.027344 2-4.824219zm0 0" fill="#54596e"/><path d="m309.460938 320.851562h-49.867188l-74.820312 54.613282-74.820313-54.613282h-43.039063c-32.933593 0-59.636718 22.886719-59.636718 51.117188v58.109375h354.988281v-63.957031c0-25-23.648437-45.269532-52.804687-45.269532zm0 0" fill="#fff"/><path d="m309.460938 320.851562v-6.824218h-49.867188c-1.460938 0-2.847656.453125-4.027344 1.3125l-70.792968 51.675781-70.796876-51.675781c-1.175781-.859375-2.5625-1.3125-4.023437-1.3125h-43.039063c-18.054687.003906-34.515624 6.257812-46.609374 16.613281-12.085938 10.328125-19.859376 25.007813-19.851563 41.328125v58.109375c0 1.800781.730469 3.558594 2 4.828125 1.269531 1.273438 3.027344 2 4.824219 2h354.988281c1.796875 0 3.554687-.726562 4.824219-2 1.273437-1.269531 2-3.027344 2-4.824219v-63.960937c.011718-14.703125-7.003906-27.925782-17.851563-37.191406-10.859375-9.300782-25.613281-14.898438-41.777343-14.902344v13.652344c12.992187-.003907 24.640624 4.535156 32.894531 11.617187 8.265625 7.117187 13.074219 16.53125 13.085937 26.824219v57.132812h-341.335937v-51.28125c.007812-11.910156 5.582031-22.789062 15.082031-30.964844 9.488281-8.140624 22.84375-13.332031 37.726562-13.328124h40.8125l73.019532 53.300781c2.398437 1.75 5.652344 1.75 8.050781 0l73.019531-53.300781h47.644532zm0 0" fill="#54596e"/><path d="m150.636719 375.464844-34.132813 13.65625-13.652344-68.269532h47.785157zm0 0" fill="#fff"/><path d="m150.636719 375.464844-2.535157-6.335938-26.511718 10.605469-10.410156-52.054687h32.632812v47.785156h6.824219l-2.535157-6.335938 2.535157 6.335938h6.828125v-54.613282c0-1.796874-.730469-3.554687-2-4.828124-1.269532-1.269532-3.03125-1.996094-4.828125-1.996094h-47.785157c-2.050781 0-3.980468.914062-5.28125 2.496094-1.296874 1.585937-1.816406 3.660156-1.414062 5.667968l13.652344 68.265625c.398437 1.984375 1.664062 3.699219 3.445312 4.664063 1.777344.964844 3.90625 1.089844 5.785156.335937l34.132813-13.652343c2.585937-1.035157 4.292969-3.554688 4.292969-6.339844zm0 0" fill="#54596e"/><path d="m218.90625 375.464844 34.132812 13.65625 13.652344-68.269532h-47.785156zm0 0" fill="#fff"/><path d="m218.90625 375.464844-2.539062 6.339844 34.136718 13.652343c1.878906.753907 4.003906.628907 5.785156-.335937s3.046876-2.675782 3.441407-4.660156l13.65625-68.269532c.398437-2.007812-.117188-4.082031-1.417969-5.664062-1.296875-1.585938-3.226562-2.5-5.277344-2.5h-47.785156c-1.796875 0-3.558594.726562-4.828125 1.996094-1.269531 1.273437-2 3.03125-2 4.828124v54.613282c0 2.785156 1.707031 5.304687 4.289063 6.339844l2.539062-6.339844h6.824219v-47.785156h32.632812l-10.410156 52.050781-26.511719-10.605469-2.535156 6.339844h6.824219zm0 0" fill="#54596e"/><path d="m89.199219 184.320312c0 15.082032-12.226563 27.304688-27.308594 27.304688-15.078125 0-27.304687-12.222656-27.304687-27.304688 0-15.082031 12.226562-27.308593 27.304687-27.308593 15.082031 0 27.308594 12.226562 27.308594 27.308593zm0 0" fill="#bfad88"/><path d="m89.199219 184.320312h6.824219c-.003907-18.855468-15.277344-34.128906-34.132813-34.132812-18.851563.003906-34.128906 15.277344-34.132813 34.132812.003907 18.851563 15.28125 34.128907 34.132813 34.132813 18.855469-.003906 34.128906-15.28125 34.132813-34.132813h-13.652344c-.019532 11.304688-9.171875 20.460938-20.480469 20.480469-11.304687-.019531-20.457031-9.175781-20.480469-20.480469.023438-11.308593 9.175782-20.460937 20.480469-20.480468 11.308594.019531 20.460937 9.171875 20.480469 20.480468zm0 0" fill="#54596e"/><path d="m334.957031 184.320312c0 15.082032-12.222656 27.304688-27.304687 27.304688-15.082032 0-27.308594-12.222656-27.308594-27.304688 0-15.082031 12.226562-27.308593 27.308594-27.308593 15.082031 0 27.304687 12.226562 27.304687 27.308593zm0 0" fill="#bfad88"/><path d="m334.957031 184.320312h6.828125c-.003906-18.855468-15.28125-34.128906-34.132812-34.132812-18.855469.003906-34.128906 15.277344-34.132813 34.132812.003907 18.851563 15.277344 34.128907 34.132813 34.132813 18.851562-.003906 34.128906-15.28125 34.132812-34.132813h-13.652344c-.023437 11.304688-9.175781 20.460938-20.480468 20.480469-11.308594-.019531-20.460938-9.175781-20.480469-20.480469.019531-11.308593 9.171875-20.460937 20.480469-20.480468 11.304687.019531 20.457031 9.171875 20.480468 20.480468zm0 0" fill="#54596e"/><path d="m225.644531 41.679688c-.90625 22.285156-43.273437 40.242187-95.484375 40.242187-13.023437 0-25.429687-1.128906-36.742187-3.148437-15.425781 19.703124-24.699219 44.449218-24.699219 71.414062v61.4375c0 64.09375 51.960938 116.054688 116.054688 116.054688s116.050781-51.960938 116.050781-116.054688v-61.4375c0-49.6875-31.277344-91.957031-75.179688-108.507812zm0 0" fill="#bfad88"/><g fill="#54596e"><path d="m225.644531 41.679688-6.820312-.277344c-.136719 3.367187-1.828125 7.054687-5.917969 11.089844-6.066406 6.011718-17.273438 11.914062-31.707031 16.007812-14.429688 4.132812-32.050781 6.597656-51.039063 6.59375-12.628906 0-24.644531-1.097656-35.542968-3.042969-2.488282-.441406-5.015626.523438-6.574219 2.511719-16.316407 20.832031-26.15625 47.082031-26.152344 75.625v61.4375c.003906 67.867188 55.015625 122.875 122.882813 122.882812 67.863281-.003906 122.875-55.015624 122.878906-122.882812v-61.4375c-.007813-52.617188-33.125-97.386719-79.601563-114.894531-2.046875-.773438-4.347656-.515625-6.175781.695312-1.824219 1.210938-2.960938 3.226563-3.050781 5.414063l6.820312.277344-2.40625 6.386718c41.324219 15.589844 70.769531 55.363282 70.761719 102.121094v61.4375c-.003906 30.183594-12.214844 57.449219-31.996094 77.234375-19.785156 19.777344-47.050781 31.992187-77.230468 31.992187-30.1875 0-57.449219-12.214843-77.238282-31.992187-19.777344-19.785156-31.988281-47.050781-31.988281-77.234375v-61.4375c0-25.386719 8.710937-48.628906 23.246094-67.207031l-5.375-4.207031-1.199219 6.71875c11.730469 2.09375 24.523438 3.253906 37.941406 3.253906 26.898438-.015625 51.28125-4.570313 69.636719-12.300782 9.175781-3.882812 16.886719-8.554687 22.664063-14.199218 5.742187-5.601563 9.6875-12.515625 10.003906-20.289063l-6.820313-.277343-2.40625 6.386718zm0 0"/><path d="m147.582031 258.691406 13.648438 6.828125c.964843.480469 1.972656.71875 3.054687.71875h40.964844c1.082031 0 2.089844-.238281 3.054688-.71875l13.652343-6.828125c3.375-1.6875 4.742188-5.789062 3.054688-9.160156s-5.789063-4.738281-9.160157-3.054688l-12.210937 6.109376h-37.746094l-12.203125-6.105469c-3.371094-1.6875-7.472656-.320313-9.160156 3.054687-1.6875 3.367188-.320312 7.46875 3.050781 9.15625zm0 0"/><path d="m136.984375 187.734375c0 5.65625-4.585937 10.238281-10.238281 10.238281-5.65625 0-10.242188-4.582031-10.242188-10.238281s4.585938-10.242187 10.242188-10.242187c5.652344 0 10.238281 4.585937 10.238281 10.242187zm0 0"/><path d="m253.039062 187.734375c0 5.65625-4.585937 10.238281-10.242187 10.238281-5.652344 0-10.238281-4.582031-10.238281-10.238281s4.585937-10.242187 10.238281-10.242187c5.65625 0 10.242187 4.585937 10.242187 10.242187zm0 0"/></g><path d="m234.359375 6.828125h-99.171875c-36.707031 0-66.46875 29.757813-66.46875 66.460937v56.417969h232.105469v-56.417969c0-36.703124-29.757813-66.460937-66.464844-66.460937zm0 0" fill="#fff"/><path d="m234.359375 6.828125v-6.828125h-99.171875c-40.480469.00390625-73.289062 32.808594-73.296875 73.289062v56.417969c0 1.796875.730469 3.554688 2 4.824219 1.273437 1.273438 3.03125 2.003906 4.828125 2.003906h232.105469c1.796875 0 3.554687-.730468 4.828125-2 1.269531-1.273437 2-3.03125 2-4.828125v-56.417969c-.003906-40.480468-32.816406-73.28515575-73.292969-73.289062v13.652344c16.488281.003906 31.355469 6.664062 42.171875 17.46875 10.800781 10.8125 17.464844 25.679687 17.46875 42.171875v49.585937h-218.453125v-49.585937c0-16.492188 6.664063-31.359375 17.46875-42.171875 10.8125-10.804688 25.679687-17.460938 42.171875-17.46875h99.171875zm0 0" fill="#54596e"/><path d="m177.945312 375.464844v54.613281c0 3.773437 3.054688 6.828125 6.828126 6.828125 3.769531 0 6.824218-3.054688 6.824218-6.828125v-54.613281c0-3.769532-3.054687-6.824219-6.824218-6.824219-3.773438 0-6.828126 3.054687-6.828126 6.824219" fill="#54596e"/><path d="m218.90625 54.613281h-20.480469v-20.480469h-27.308593v20.480469h-20.480469v27.308594h20.480469v20.476563h27.308593v-20.476563h20.480469zm0 0" fill="#ff927d"/><path d="m218.90625 54.613281v-6.828125h-13.65625v-13.652344c0-1.796874-.726562-3.554687-1.996094-4.828124-1.273437-1.269532-3.03125-1.996094-4.828125-1.996094h-27.308593c-1.796876 0-3.554688.726562-4.828126 1.996094-1.269531 1.273437-1.996093 3.03125-1.996093 4.828124v13.652344h-13.65625c-1.796875 0-3.554688.730469-4.828125 2-1.269532 1.269532-1.996094 3.03125-1.996094 4.828125v27.308594c0 1.796875.726562 3.554687 2 4.824219 1.269531 1.273437 3.027344 2 4.824219 2h13.65625v13.652344c0 1.796874.726562 3.554687 1.996093 4.828124 1.273438 1.269532 3.03125 2 4.828126 2h27.308593c1.796875 0 3.554688-.730468 4.824219-2 1.273438-1.273437 2-3.03125 2-4.828124v-13.652344h13.65625c1.796875 0 3.554688-.726563 4.824219-2 1.273437-1.269532 2-3.027344 2-4.824219v-27.308594c0-1.796875-.726563-3.558593-2-4.828125-1.269531-1.269531-3.027344-2-4.824219-2v6.828125h-6.828125v20.480469h-13.652344c-1.796875 0-3.558593.726562-4.828125 2-1.269531 1.269531-2 3.027344-2 4.828125v13.652344h-13.652344v-13.652344c0-1.800781-.730468-3.558594-2-4.828125-1.269531-1.273438-3.03125-2-4.828124-2h-13.652344v-13.65625h13.652344c1.796874 0 3.554687-.726562 4.828124-1.996094 1.269532-1.273437 2-3.03125 2-4.828125v-13.652343h13.652344v13.652343c0 1.796875.730469 3.554688 2 4.828125 1.273438 1.269532 3.03125 2 4.828125 2h20.480469v-6.828125h-6.828125zm0 0" fill="#54596e"/></svg>