<svg height="436pt" viewBox="-3 0 436 436.90667" width="436pt" xmlns="http://www.w3.org/2000/svg"><path d="m295.804688 293.546875h-228.886719c-32.9375 0-59.636719 22.886719-59.636719 51.117187v71.761719h341.332031v-77.613281c0-24.996094-23.640625-45.265625-52.808593-45.265625" fill="#fff35f"/><path d="m295.804688 293.546875v-6.828125h-228.886719c-18.054688.003906-34.515625 6.257812-46.613281 16.617188-12.082032 10.324218-19.859376 25.007812-19.851563 41.328124v71.761719c0 1.800781.730469 3.554688 2 4.828125 1.273437 1.273438 3.03125 2 4.828125 2h341.332031c1.800781 0 3.554688-.730468 4.828125-2 1.269532-1.269531 2-3.027344 2-4.828125v-77.613281c.007813-14.703125-7.003906-27.921875-17.851562-37.191406-10.859375-9.300782-25.617188-14.898438-41.785156-14.902344v13.65625c12.996093-.007812 24.648437 4.53125 32.898437 11.613281 8.265625 7.117188 13.074219 16.53125 13.085937 26.824219v70.789062h-327.679687v-64.9375c.003906-11.910156 5.578125-22.785156 15.082031-30.960937 9.484375-8.140625 22.84375-13.335937 37.726563-13.328125h228.886719z" fill="#54596e"/><path d="m68.71875 375.464844v34.136718c0 3.765626 3.058594 6.824219 6.828125 6.824219 3.773437 0 6.828125-3.058593 6.828125-6.824219v-34.136718c0-3.769532-3.054688-6.824219-6.828125-6.824219-3.769531 0-6.828125 3.054687-6.828125 6.824219" fill="#54596e"/><path d="m273.523438 375.464844v34.136718c0 3.765626 3.054687 6.824219 6.824218 6.824219 3.769532 0 6.828125-3.058593 6.828125-6.824219v-34.136718c0-3.769532-3.058593-6.824219-6.828125-6.824219-3.769531 0-6.824218 3.054687-6.824218 6.824219" fill="#54596e"/><path d="m334.960938 122.878906c0 15.082032-12.226563 27.308594-27.308594 27.308594-15.078125 0-27.304688-12.226562-27.304688-27.308594 0-15.078125 12.226563-27.304687 27.304688-27.304687 15.082031 0 27.308594 12.226562 27.308594 27.304687zm0 0" fill="#ffd578"/><path d="m334.960938 122.878906h6.824218c-.003906-18.851562-15.277344-34.128906-34.132812-34.132812-18.851563.003906-34.128906 15.28125-34.132813 34.132812.003907 18.855469 15.28125 34.128906 34.132813 34.132813 18.855468 0 34.128906-15.277344 34.132812-34.132813h-13.652344c-.019531 11.308594-9.171874 20.460938-20.480468 20.480469-11.304688-.019531-20.457032-9.171875-20.480469-20.480469.023437-11.304687 9.175781-20.457031 20.480469-20.480468 11.308594.023437 20.460937 9.175781 20.480468 20.480468zm0 0" fill="#54596e"/><path d="m75.546875 122.878906c0 15.082032-12.226563 27.308594-27.308594 27.308594-15.078125 0-27.304687-12.226562-27.304687-27.308594 0-15.078125 12.226562-27.304687 27.304687-27.304687 15.082031 0 27.308594 12.226562 27.308594 27.304687zm0 0" fill="#ffd578"/><path d="m75.546875 122.878906h6.828125c-.007812-18.851562-15.28125-34.128906-34.136719-34.132812-18.851562.003906-34.125 15.28125-34.132812 34.132812.007812 18.855469 15.28125 34.128906 34.132812 34.132813 18.855469 0 34.128907-15.277344 34.136719-34.132813h-13.65625c-.019531 11.308594-9.171875 20.460938-20.480469 20.480469-11.304687-.019531-20.457031-9.171875-20.476562-20.480469.019531-11.304687 9.171875-20.457031 20.476562-20.480468 11.308594.023437 20.460938 9.175781 20.480469 20.480468zm0 0" fill="#54596e"/><path d="m218.210938 300.375h-80.527344c-54.199219-22.820312-89.445313-72.375-89.445313-131.179688v-137.863281c0-9.765625 7.914063-17.679687 17.679688-17.679687h224.058593c9.765626 0 17.675782 7.914062 17.675782 17.679687v137.863281c0 58.804688-35.242188 108.359376-89.441406 131.179688zm0 0" fill="#8065c4"/><path d="m218.210938 300.375v-6.828125h-80.527344v6.828125l2.648437-6.292969c-51.902343-21.933593-85.21875-68.890625-85.265625-124.886719v-137.863281c.011719-5.992187 4.859375-10.839843 10.847656-10.851562h224.0625c5.988282.011719 10.839844 4.859375 10.847657 10.851562v137.863281c-.046875 55.996094-33.359375 102.953126-85.265625 124.886719l2.652344 6.292969v-6.828125 6.828125l2.648437 6.289062c56.492187-23.707031 93.667969-75.855468 93.621094-137.46875v-137.863281c-.003907-13.535156-10.96875-24.5-24.503907-24.503906h-224.058593c-13.535157.003906-24.5 10.96875-24.503907 24.503906v137.863281c-.046874 61.613282 37.125 113.761719 93.621094 137.46875.835938.355469 1.738282.535157 2.648438.535157h80.527344c.90625 0 1.8125-.179688 2.648437-.535157zm0 0" fill="#54596e"/><path d="m48.238281 160.691406c0 13.050782 13.402344 23.628906 29.9375 23.628906h199.542969c16.535156 0 29.933594-10.578124 29.933594-23.628906v-99.25h-220.179688c-21.667968 0-39.234375 18.84375-39.234375 33.667969zm0 0" fill="#ffd578"/><path d="m48.238281 160.691406h-6.824219c-.007812 8.941406 4.644532 16.800782 11.363282 22.066406 6.746094 5.3125 15.671875 8.378907 25.394531 8.390626h199.546875c9.722656-.011719 18.648438-3.078126 25.398438-8.390626 6.71875-5.261718 11.371093-13.125 11.363281-22.066406v-99.25c0-1.800781-.730469-3.558594-2-4.828125-1.273438-1.273437-3.027344-2-4.828125-2h-220.179688c-12.855468.019531-24.195312 5.53125-32.378906 13.089844-8.132812 7.609375-13.574219 17.285156-13.679688 27.40625v65.582031h13.652344v-65.582031c-.105468-4.703125 3.234375-11.863281 9.296875-17.382813 6.019531-5.570312 14.292969-9.480468 23.105469-9.460937h213.359375v92.425781c-.007813 4.109375-2.058594 8.0625-6.171875 11.347656-4.085938 3.242188-10.125 5.464844-16.9375 5.453126h-199.542969c-6.808593.011718-12.851562-2.210938-16.9375-5.453126-4.113281-3.289062-6.164062-7.238281-6.167969-11.347656zm0 0" fill="#54596e"/><path d="m143.8125 211.625c0 18.851562 15.285156 34.136719 34.132812 34.136719 18.851563 0 34.132813-15.285157 34.132813-34.136719zm0 0" fill="#54596e"/><path d="m143.8125 211.625h-6.824219c.003907 22.625 18.335938 40.957031 40.957031 40.960938 22.625-.003907 40.957032-18.335938 40.960938-40.960938 0-1.796875-.726562-3.554688-2-4.828125-1.269531-1.269531-3.027344-1.996094-4.828125-1.996094h-68.265625c-1.796875 0-3.554688.726563-4.824219 1.996094-1.273437 1.273437-2 3.03125-2 4.828125h6.824219v6.828125h68.265625v-6.828125h-6.824219c-.003906 7.5625-3.046875 14.347656-8 19.308594-4.960937 4.953125-11.746094 7.996094-19.308594 8-7.558593-.003906-14.34375-3.046875-19.304687-8-4.953125-4.960938-7.996094-11.746094-8-19.308594h-6.828125v6.828125zm0 0" fill="#54596e"/><path d="m191.601562 232.105469c0-3.769531-6.113281-6.824219-13.65625-6.824219-7.539062 0-13.652343 3.054688-13.652343 6.824219s6.113281 6.828125 13.652343 6.828125c7.542969 0 13.65625-3.058594 13.65625-6.828125zm0 0" fill="#ff927d"/><path d="m130.160156 133.121094c0 5.65625-4.585937 10.238281-10.238281 10.238281-5.65625 0-10.242187-4.582031-10.242187-10.238281s4.585937-10.242188 10.242187-10.242188c5.652344 0 10.238281 4.585938 10.238281 10.242188zm0 0" fill="#54596e"/><path d="m246.214844 133.121094c0 5.65625-4.585938 10.238281-10.242188 10.238281s-10.238281-4.582031-10.238281-10.238281 4.582031-10.242188 10.238281-10.242188 10.242188 4.585938 10.242188 10.242188zm0 0" fill="#54596e"/><path d="m290.585938 61.441406h-88.746094c-9.425782 0-17.066406-7.640625-17.066406-17.066406v-20.480469c0-9.425781 7.640624-17.066406 17.066406-17.066406h88.746094c9.425781 0 17.066406 7.640625 17.066406 17.066406v20.480469c0 9.425781-7.636719 17.066406-17.066406 17.066406zm0 0" fill="#8065c4"/><path d="m290.585938 61.441406v-6.828125h-88.746094c-5.652344-.011719-10.230469-4.585937-10.238282-10.238281v-20.480469c.007813-5.65625 4.585938-10.230469 10.238282-10.242187h88.746094c5.65625.011718 10.230468 4.585937 10.242187 10.242187v20.480469c-.011719 5.652344-4.585937 10.226562-10.242187 10.238281v13.652344c13.199218-.003906 23.890624-10.691406 23.894531-23.890625v-20.480469c-.003907-13.199219-10.695313-23.89062475-23.894531-23.894531h-88.746094c-13.199219.00390625-23.890625 10.695312-23.894532 23.894531v20.480469c.003907 13.195312 10.695313 23.886719 23.894532 23.890625h88.746094zm0 0" fill="#54596e"/><path d="m396.390625 430.078125h-293.527344c-15.085937 0-27.316406-12.226563-27.316406-27.316406v-109.203125c0-15.089844 12.230469-27.316406 27.316406-27.316406h293.527344c15.085937 0 27.316406 12.226562 27.316406 27.316406v109.203125c0 15.089843-12.230469 27.316406-27.316406 27.316406" fill="#fff"/><path d="m396.390625 430.078125v-6.824219h-293.527344c-11.316406-.019531-20.46875-9.175781-20.488281-20.492187v-109.203125c.019531-11.3125 9.175781-20.472656 20.488281-20.492188h293.527344c11.3125.019532 20.46875 9.179688 20.488281 20.492188v109.203125c-.019531 11.316406-9.175781 20.472656-20.488281 20.492187v13.652344c18.859375-.003906 34.136719-15.28125 34.144531-34.144531v-109.203125c-.007812-18.863282-15.285156-34.140625-34.144531-34.144532h-293.527344c-18.859375.003907-34.136719 15.28125-34.144531 34.144532v109.203125c.007812 18.863281 15.285156 34.140625 34.144531 34.144531h293.527344z" fill="#54596e"/><path d="m416.882812 393.523438c-5.007812 5.671874-12.332031 9.25-20.492187 9.25h-293.527344c-8.160156 0-15.484375-3.578126-20.488281-9.25v9.238281c.019531 11.316406 9.175781 20.472656 20.488281 20.492187h293.527344c11.3125-.019531 20.46875-9.175781 20.488281-20.492187v-9.238281" fill="#dddee2"/><path d="m423.707031 375.457031c0 6.925781-2.578125 13.25-6.828125 18.066407v9.238281c-.019531 11.316406-9.175781 20.472656-20.488281 20.492187h-293.527344c-11.316406-.019531-20.46875-9.175781-20.488281-20.492187v-9.238281c-4.25-4.816407-6.828125-11.140626-6.828125-18.066407v27.304688c0 15.089843 12.230469 27.316406 27.316406 27.316406h293.527344c15.085937 0 27.316406-12.226563 27.316406-27.316406z" fill="#54596e"/><g fill="#aaa"><path d="m164.292969 361.8125h170.667969v20.480469h-170.667969zm0 0"/><path d="m130.160156 361.8125h20.480469v20.480469h-20.480469zm0 0"/><path d="m96.027344 361.8125h20.480468v20.480469h-20.480468zm0 0"/><path d="m382.746094 361.8125h20.480468v20.480469h-20.480468zm0 0"/><path d="m348.613281 361.8125h20.480469v20.480469h-20.480469zm0 0"/><path d="m150.640625 327.679688h20.480469v20.480468h-20.480469zm0 0"/><path d="m116.507812 327.679688h20.480469v20.480468h-20.480469zm0 0"/><path d="m355.441406 300.375h47.785156v40.957031h-47.785156zm0 0"/><path d="m253.039062 327.679688h20.480469v20.480468h-20.480469zm0 0"/><path d="m287.171875 327.679688h20.480469v20.480468h-20.480469zm0 0"/><path d="m218.90625 327.679688h20.480469v20.480468h-20.480469zm0 0"/><path d="m246.214844 293.546875h20.476562v20.480469h-20.476562zm0 0"/><path d="m212.078125 293.546875h20.480469v20.480469h-20.480469zm0 0"/><path d="m177.945312 293.546875h20.480469v20.480469h-20.480469zm0 0"/><path d="m143.8125 293.546875h20.480469v20.480469h-20.480469zm0 0"/><path d="m109.679688 293.546875h20.480468v20.480469h-20.480468zm0 0"/><path d="m184.773438 327.679688h20.480468v20.480468h-20.480468zm0 0"/><path d="m280.347656 293.546875h20.480469v20.480469h-20.480469zm0 0"/><path d="m321.308594 327.679688h20.476562v20.480468h-20.476562zm0 0"/><path d="m314.480469 293.546875h20.480469v20.480469h-20.480469zm0 0"/></g></svg>