<svg height="430pt" viewBox="-14 0 430 430.08" width="430pt" xmlns="http://www.w3.org/2000/svg"><path d="m268.082031 327.679688h-201.578125c-32.9375 0-59.636718 22.886718-59.636718 51.117187v44.457031h314.027343v-50.308594c0-25-23.644531-45.265624-52.8125-45.265624zm0 0" fill="#fff"/><path d="m268.082031 327.679688v-6.828126h-201.578125c-18.054687.007813-34.515625 6.257813-46.613281 16.617188-12.082031 10.324219-19.859375 25.007812-19.8515625 41.328125v44.457031c0 1.796875.7304685 3.554688 1.9999995 4.824219 1.273438 1.273437 3.03125 2 4.828126 2h314.027343c1.796875 0 3.554688-.726563 4.824219-1.996094 1.273438-1.273437 2-3.03125 2-4.828125v-50.304687c.011719-14.707031-7-27.925781-17.851562-37.191407-10.859376-9.304687-25.617188-14.898437-41.785157-14.902343v13.652343c13-.007812 24.648438 4.53125 32.898438 11.613282 8.265625 7.117187 13.074219 16.53125 13.085937 26.828125v43.476562h-300.375v-37.628906c.011719-11.910156 5.585938-22.785156 15.085938-30.960937 9.488281-8.144532 22.84375-13.335938 37.726562-13.328126h201.578125zm0 0" fill="#54596e"/><path d="m293.585938 163.839844c0 15.082031-12.226563 27.308594-27.304688 27.308594-15.082031 0-27.308594-12.226563-27.308594-27.308594 0-15.082032 12.226563-27.304688 27.308594-27.304688 15.078125 0 27.304688 12.222656 27.304688 27.304688zm0 0" fill="#ffd578"/><path d="m293.585938 163.839844h6.828124c-.003906-18.851563-15.28125-34.128906-34.132812-34.132813-18.855469.003907-34.128906 15.28125-34.132812 34.132813.003906 18.855468 15.277343 34.128906 34.132812 34.132812 18.851562-.003906 34.128906-15.277344 34.132812-34.132812h-13.652343c-.023438 11.308594-9.175781 20.460937-20.480469 20.480468-11.308594-.019531-20.460938-9.171874-20.480469-20.480468.019531-11.304688 9.171875-20.460938 20.480469-20.480469 11.304688.019531 20.457031 9.175781 20.480469 20.480469zm0 0" fill="#54596e"/><path d="m88.785156 163.839844c0 15.082031-12.222656 27.308594-27.304687 27.308594s-27.308594-12.226563-27.308594-27.308594c0-15.082032 12.226563-27.304688 27.308594-27.304688s27.304687 12.222656 27.304687 27.304688zm0 0" fill="#ffd578"/><path d="m88.785156 163.839844h6.828125c-.003906-18.851563-15.28125-34.128906-34.132812-34.132813-18.855469.003907-34.128907 15.28125-34.132813 34.132813.003906 18.855468 15.277344 34.128906 34.132813 34.132812 18.851562-.003906 34.128906-15.277344 34.132812-34.132812h-13.652343c-.019532 11.308594-9.175782 20.460937-20.480469 20.480468-11.308594-.019531-20.460938-9.171874-20.480469-20.480468.019531-11.304688 9.171875-20.460938 20.480469-20.480469 11.304687.019531 20.460937 9.175781 20.480469 20.480469zm0 0" fill="#54596e"/><path d="m163.878906 375.464844c-15.078125 0-27.304687-12.226563-27.304687-27.304688v-68.265625h54.613281v68.265625c0 15.078125-12.226562 27.304688-27.308594 27.304688zm0 0" fill="#ffd578"/><path d="m163.878906 375.464844v-6.824219c-11.304687-.019531-20.457031-9.175781-20.480468-20.480469v-61.441406h40.960937v61.441406c-.019531 11.304688-9.171875 20.460938-20.480469 20.480469v13.652344c18.855469-.003907 34.128906-15.28125 34.132813-34.132813v-68.265625c0-1.800781-.726563-3.558593-2-4.828125-1.269531-1.269531-3.027344-2-4.824219-2h-54.613281c-1.796875 0-3.558594.726563-4.828125 2-1.269532 1.269532-2 3.027344-2 4.828125v68.265625c.003906 18.851563 15.28125 34.128906 34.132812 34.132813zm0 0" fill="#54596e"/><path d="m163.878906 307.199219c-56.550781 0-102.398437-66.324219-102.398437-122.878907v-81.921874h204.800781v81.921874c0 56.554688-45.847656 122.878907-102.402344 122.878907zm0 0" fill="#ffd578"/><g fill="#54596e"><path d="m163.878906 307.199219v-6.824219c-12.789062-.003906-25.050781-3.734375-36.433594-10.328125-17.058593-9.867187-31.984374-26.269531-42.503906-45.300781-10.542968-19.015625-16.652344-40.601563-16.632812-60.425782v-75.09375h191.144531v75.09375c.046875 26.4375-10.898437 55.984376-28.539063 78.4375-8.800781 11.234376-19.230468 20.703126-30.597656 27.289063-11.382812 6.589844-23.644531 10.324219-36.433594 10.328125v13.652344c15.484376.003906 30.160157-4.554688 43.28125-12.167969 19.695313-11.4375 36.042969-29.644531 47.601563-50.5 11.539063-20.871094 18.324219-44.449219 18.339844-67.039063v-81.921874c0-1.796876-.726563-3.554688-2-4.828126-1.269531-1.269531-3.027344-1.996093-4.824219-1.996093h-204.800781c-1.796875 0-3.558594.726562-4.828125 1.996093-1.269532 1.273438-2 3.03125-2 4.828126v81.921874c.046875 30.117188 12.027344 62.007813 31.445312 86.855469 9.730469 12.414063 21.367188 23.066407 34.5 30.683594 13.117188 7.609375 27.796875 12.167969 43.28125 12.164063zm0 0"/><path d="m116.09375 153.601562c0 5.652344-4.585938 10.238282-10.242188 10.238282-5.652343 0-10.238281-4.585938-10.238281-10.238282 0-5.65625 4.585938-10.242187 10.238281-10.242187 5.65625 0 10.242188 4.585937 10.242188 10.242187zm0 0"/><path d="m232.148438 153.601562c0 5.652344-4.585938 10.238282-10.242188 10.238282s-10.238281-4.585938-10.238281-10.238282c0-5.65625 4.582031-10.242187 10.238281-10.242187s10.242188 4.585937 10.242188 10.242187zm0 0"/><path d="m170.707031 423.253906v-20.480468c0-3.769532-3.058593-6.828126-6.828125-6.828126-3.769531 0-6.824218 3.058594-6.824218 6.828126v20.480468c0 3.769532 3.054687 6.824219 6.824218 6.824219 3.769532 0 6.828125-3.054687 6.828125-6.824219"/></g><path d="m157.054688 232.105469h13.652343c7.539063 0 13.652344-6.113281 13.652344-13.652344s-6.113281-13.652344-13.652344-13.652344h-13.652343c-7.542969 0-13.65625 6.113281-13.65625 13.652344s6.113281 13.652344 13.65625 13.652344" fill="#ff927d"/><path d="m136.574219 218.453125h54.613281c3.769531 0 6.824219-3.054687 6.824219-6.828125 0-3.769531-3.054688-6.824219-6.824219-6.824219h-54.613281c-3.769531 0-6.828125 3.054688-6.828125 6.824219 0 3.773438 3.058594 6.828125 6.828125 6.828125" fill="#ff927d"/><path d="m6.867188 395.945312h20.480468c15.078125 0 27.304688 12.226563 27.304688 27.308594h-47.785156zm0 0" fill="#ffd578"/><path d="m6.867188 395.945312v6.828126h20.480468c11.304688.019531 20.457032 9.171874 20.480469 20.480468h6.824219v-6.828125h-40.960938v-20.480469h-6.824218v6.828126-6.828126h-6.8281255v27.308594c0 1.796875.7304685 3.554688 1.9999995 4.824219 1.273438 1.273437 3.03125 2 4.828126 2h47.785156c1.796875 0 3.554687-.726563 4.828125-1.996094 1.269531-1.273437 2-3.03125 2-4.828125-.003907-18.855468-15.28125-34.128906-34.132813-34.132812h-20.480468c-1.796876 0-3.558594.726562-4.828126 1.996094-1.269531 1.273437-1.9999995 3.03125-1.9999995 4.828124zm0 0" fill="#54596e"/><path d="m300.414062 395.945312h20.480469v27.308594h-47.789062c0-15.082031 12.226562-27.308594 27.308593-27.308594zm0 0" fill="#ffd578"/><path d="m300.414062 395.945312v6.828126h13.652344v13.652343h-40.960937v6.828125h6.828125c.019531-11.308594 9.171875-20.460937 20.480468-20.480468v-13.652344c-18.855468.003906-34.128906 15.277344-34.132812 34.132812 0 1.796875.726562 3.554688 2 4.824219 1.269531 1.273437 3.027344 2 4.824219 2h47.789062c1.796875 0 3.554688-.726563 4.824219-2 1.273438-1.269531 2-3.027344 2-4.824219v-27.308594c0-1.796874-.726562-3.554687-2-4.828124-1.269531-1.269532-3.027344-1.996094-4.824219-1.996094h-20.480469zm0 0" fill="#54596e"/><path d="m109.265625 47.785156h40.960937c18.851563 0 34.132813 15.285156 34.132813 34.136719" fill="#ff80c3"/><path d="m109.265625 54.613281h40.960937c7.5625.003907 14.34375 3.046875 19.308594 8 4.953125 4.960938 7.996094 11.746094 8 19.308594 0 3.769531 3.054688 6.824219 6.824219 6.824219s6.828125-3.054688 6.828125-6.824219c-.007812-22.625-18.335938-40.957031-40.960938-40.960937h-40.960937c-3.769531 0-6.824219 3.054687-6.824219 6.824218 0 3.773438 3.054688 6.828125 6.824219 6.828125zm0 0" fill="#54596e"/><path d="m41 6.828125h137.292969c48.59375 0 87.988281 39.390625 87.988281 87.984375v7.585938h-185.085938c-22.199218 0-40.195312-17.996094-40.195312-40.195313zm0 0" fill="#ff80c3"/><path d="m41 6.828125v6.824219h137.292969c22.433593.003906 42.679687 9.074218 57.386719 23.773437 14.699218 14.710938 23.769531 34.957031 23.773437 57.386719v.761719h-178.257813c-9.234374-.003907-17.535156-3.726563-23.59375-9.773438-6.050781-6.0625-9.769531-14.363281-9.773437-23.597656v-55.375h-6.828125v6.824219-6.824219h-6.828125v55.375c.007813 25.972656 21.050781 47.019531 47.023437 47.023437h185.085938c1.796875 0 3.554688-.726562 4.824219-2 1.273437-1.273437 2-3.03125 2-4.828124v-7.585938c-.003907-52.367188-42.445313-94.80859375-94.8125-94.8125h-137.292969c-1.796875 0-3.558594.726562-4.828125 2-1.269531 1.269531-2 3.027344-2 4.828125zm0 0" fill="#54596e"/><path d="m215.078125 102.398438h-72.441406c-22.199219 0-40.195313-17.996094-40.195313-40.195313v-55.375" fill="#ff80c3"/><path d="m215.078125 95.574219h-72.441406c-9.234375-.003907-17.535157-3.726563-23.597657-9.773438-6.046874-6.0625-9.769531-14.363281-9.773437-23.597656v-55.375c0-3.773437-3.054687-6.828125-6.824219-6.828125-3.769531 0-6.828125 3.054688-6.828125 6.828125v55.375c.003907 25.972656 21.050781 47.019531 47.023438 47.023437h72.441406c3.773437 0 6.828125-3.058593 6.828125-6.828124 0-3.769532-3.054688-6.824219-6.828125-6.824219zm0 0" fill="#54596e"/><path d="m395.988281 368.640625h-150.1875v-210.65625c0-11.847656 9.601563-21.449219 21.449219-21.449219h107.285156c11.847656 0 21.449219 9.601563 21.449219 21.449219v210.65625zm0 0" fill="#8065c4"/><path d="m395.988281 368.640625v-6.828125h-143.363281v-203.828125c.015625-8.074219 6.550781-14.609375 14.625-14.625h107.285156c8.074219.015625 14.609375 6.550781 14.625 14.625v210.65625h6.828125v-6.828125 6.828125h6.824219v-210.65625c-.003906-15.621094-12.65625-28.273437-28.273438-28.277344h-107.289062c-15.617188.003907-28.273438 12.65625-28.273438 28.277344v210.65625c0 1.796875.726563 3.554687 2 4.824219 1.269532 1.273437 3.027344 2 4.824219 2h150.1875c1.796875 0 3.554688-.726563 4.828125-2 1.269532-1.269532 2-3.027344 2-4.824219zm0 0" fill="#54596e"/><path d="m374.539062 423.253906h-107.289062c-11.84375 0-21.449219-9.605468-21.449219-21.449218v-33.164063h150.1875v33.164063c0 11.84375-9.605469 21.449218-21.449219 21.449218zm0 0" fill="#fff"/><path d="m374.539062 423.253906v-6.828125h-107.289062c-8.074219-.015625-14.609375-6.550781-14.621094-14.621093v-26.339844h136.53125v26.339844c-.015625 8.070312-6.546875 14.609374-14.621094 14.621093v13.652344c15.621094 0 28.273438-12.65625 28.277344-28.273437v-33.164063c0-1.800781-.730468-3.558594-2-4.828125-1.273437-1.269531-3.03125-2-4.828125-2h-150.1875c-1.796875 0-3.558593.726562-4.828125 2-1.269531 1.269531-2 3.027344-2 4.828125v33.164063c.003906 15.617187 12.65625 28.269531 28.277344 28.273437h107.285156v-6.824219zm0 0" fill="#54596e"/><path d="m334.546875 395.945312c0 7.542969-6.113281 13.65625-13.652344 13.65625-7.542969 0-13.65625-6.113281-13.65625-13.65625 0-7.539062 6.113281-13.652343 13.65625-13.652343 7.539063 0 13.652344 6.113281 13.652344 13.652343zm0 0" fill="#999"/><path d="m288.761719 165.839844-23.894531 23.890625c-2.667969 2.667969-2.667969 6.988281 0 9.65625 2.664062 2.664062 6.988281 2.664062 9.65625 0l23.890624-23.894531c2.667969-2.664063 2.667969-6.988282 0-9.652344-2.664062-2.667969-6.988281-2.667969-9.652343 0" fill="#aca3d3"/></svg>