<svg height="436pt" viewBox="-34 0 436 436.90496" width="436pt" xmlns="http://www.w3.org/2000/svg"><path d="m302.695312 320.851562h-228.886718c-32.9375 0-59.636719 22.886719-59.636719 51.117188v58.109375h341.332031v-63.957031c0-25-23.640625-45.269532-52.808594-45.269532zm0 0" fill="#8065c4"/><path d="m302.695312 320.851562v-6.824218h-228.886718c-18.054688.003906-34.515625 6.257812-46.613282 16.613281-12.082031 10.324219-19.859374 25.007813-19.847656 41.328125v58.109375c0 1.800781.726563 3.558594 2 4.828125 1.269532 1.273438 3.027344 2 4.824219 2h341.332031c1.800782 0 3.558594-.726562 4.828125-2 1.273438-1.269531 2-3.027344 2-4.828125v-63.957031c.007813-14.707032-7.003906-27.925782-17.851562-37.195313-10.859375-9.300781-25.617188-14.894531-41.785157-14.898437v13.652344c12.996094-.003907 24.648438 4.535156 32.898438 11.617187 8.265625 7.113281 13.074219 16.527344 13.082031 26.824219v57.132812h-327.679687v-51.28125c.011718-11.910156 5.582031-22.789062 15.085937-30.964844 9.484375-8.140624 22.84375-13.332031 37.726563-13.328124h228.886718zm0 0" fill="#54596e"/><path d="m75.613281 402.773438v20.480468c0 3.769532 3.054688 6.824219 6.824219 6.824219 3.773438 0 6.828125-3.054687 6.828125-6.824219v-20.480468c0-3.769532-3.054687-6.828126-6.828125-6.828126-3.769531 0-6.824219 3.058594-6.824219 6.828126" fill="#54596e"/><path d="m246.277344 68.265625c0 33.933594-27.507813 61.441406-61.4375 61.441406-33.933594 0-61.441406-27.507812-61.441406-61.441406 0-33.929687 27.507812-61.4375 61.441406-61.4375 33.929687 0 61.4375 27.507813 61.4375 61.4375zm0 0" fill="#8065c4"/><path d="m246.277344 68.265625h6.828125c-.003907-37.707031-30.5625-68.26171875-68.265625-68.265625-37.707032.00390625-68.261719 30.558594-68.265625 68.265625.003906 37.707031 30.558593 68.261719 68.265625 68.269531 37.703125-.003906 68.261718-30.5625 68.265625-68.269531h-13.652344c-.003906 15.101563-6.101563 28.714844-15.996094 38.617187-9.902343 9.894532-23.515625 15.992188-38.617187 15.996094-15.105469-.003906-28.714844-6.101562-38.621094-15.996094-9.890625-9.902343-15.988281-23.515624-15.992188-38.617187.003907-15.101563 6.101563-28.714844 15.992188-38.617187 9.90625-9.894532 23.515625-15.992188 38.621094-15.996094 15.101562.003906 28.710937 6.101562 38.617187 15.996094 9.894531 9.902343 15.992188 23.515624 15.996094 38.617187zm0 0" fill="#54596e"/><path d="m137.050781 286.71875h95.574219v143.359375h-95.574219zm0 0" fill="#ffd578"/><path d="m232.625 430.078125v-6.824219h-88.746094v-129.707031h81.921875v136.53125h6.824219v-6.824219 6.824219h6.828125v-143.359375c0-1.796875-.730469-3.554688-2-4.828125-1.273437-1.269531-3.03125-1.996094-4.828125-1.996094h-95.574219c-1.796875 0-3.554687.726563-4.824219 1.996094-1.273437 1.273437-2 3.03125-2 4.828125v143.359375c0 1.800781.726563 3.558594 2 4.828125 1.269532 1.273438 3.027344 2 4.824219 2h95.574219c1.796875 0 3.554688-.726562 4.828125-2 1.269531-1.269531 2-3.027344 2-4.828125zm0 0" fill="#54596e"/><path d="m280.414062 402.773438v20.480468c0 3.769532 3.054688 6.824219 6.824219 6.824219s6.828125-3.054687 6.828125-6.824219v-20.480468c0-3.769532-3.058594-6.828126-6.828125-6.828126s-6.824219 3.058594-6.824219 6.828126" fill="#54596e"/><path d="m289.410156 6.828125h-2.171875c0 30.164063-45.84375 54.613281-102.398437 54.613281-56.554688 0-102.402344-24.449218-102.402344-54.613281h-2.171875l-67.015625 65.75c-7.53125 9.28125-7.980469 22.433594-1.101562 32.207031l40.8125 38.574219h263.757812l40.085938-34.890625c7.289062-9.621094 7.21875-22.9375-.171876-32.480469zm0 0" fill="#8065c4"/><path d="m289.410156 6.828125v-6.828125h-2.171875c-1.796875 0-3.554687.726562-4.824219 2-1.273437 1.269531-2 3.027344-2 4.828125-.011718 5.773437-2.136718 11.394531-6.570312 17.015625-6.613281 8.394531-18.554688 16.285156-34.066406 21.84375-15.496094 5.589844-34.46875 8.929688-54.9375 8.925781-27.285156.019531-51.929688-5.960937-69.195313-15.191406-8.632812-4.597656-15.386719-9.992187-19.808593-15.578125-4.433594-5.621094-6.554688-11.242188-6.570313-17.015625 0-1.800781-.726563-3.558594-2-4.828125-1.269531-1.269531-3.03125-2-4.828125-2h-2.171875c-1.796875 0-3.496094.695312-4.78125 1.953125l-67.015625 65.75-.519531.570313c-4.976563 6.132812-7.5 13.636718-7.496094 21.132812-.003906 6.734375 2.03125 13.503906 6.113281 19.304688l.894532 1.03125 40.808593 38.578124c1.269531 1.199219 2.945313 1.867188 4.691407 1.867188h263.757812c1.636719 0 3.25-.605469 4.484375-1.675781l40.085937-34.894531.957032-1.027344c4.535156-5.980469 6.808594-13.128906 6.804687-20.25.003907-7.238282-2.347656-14.503906-7.019531-20.535156l-.503906-.574219-67.21875-69.160157c-1.289063-1.328124-3.046875-2.070312-4.894532-2.070312v6.828125l-4.894531 4.757813 67.21875 69.15625 4.894531-4.757813-5.394531 4.183594c2.777344 3.585937 4.15625 7.863281 4.160157 12.171875-.003907 4.234375-1.335938 8.445312-4.03125 12.003906l5.441406 4.121094-4.480469-5.148438-38.164063 33.21875h-258.488281l-38.835937-36.710937-4.691406 4.960937 5.585937-3.929687c-2.429687-3.453125-3.625-7.445313-3.628906-11.449219.003906-4.457031 1.488281-8.882812 4.445312-12.53125l-5.300781-4.300781 4.78125 4.875 67.015625-65.75-4.78125-4.871094v6.824219h2.171875v-6.824219h-6.824219c-.011719 9.308594 3.59375 18.050781 9.523438 25.496094 8.933593 11.207031 22.960937 19.996093 40.136719 26.210937 17.1875 6.1875 37.617187 9.726563 59.566406 9.730469 29.265625-.019531 55.820312-6.265625 75.621094-16.800781 9.894531-5.285156 18.136718-11.660156 24.078124-19.140625 5.933594-7.445313 9.539063-16.191407 9.527344-25.496094h-6.828125v6.824219h2.171875v-6.824219l-4.894531 4.757813zm0 0" fill="#54596e"/><path d="m335.027344 218.453125c0 15.082031-12.226563 27.308594-27.308594 27.308594s-27.304688-12.226563-27.304688-27.308594 12.222657-27.304687 27.304688-27.304687 27.308594 12.222656 27.308594 27.304687zm0 0" fill="#fff"/><path d="m335.027344 218.453125h6.824218c-.003906-18.851563-15.277343-34.128906-34.132812-34.132813-18.851562.003907-34.128906 15.28125-34.132812 34.132813.003906 18.855469 15.28125 34.128906 34.132812 34.132813 18.855469-.003907 34.128906-15.277344 34.132812-34.132813h-13.652343c-.019531 11.308594-9.171875 20.460937-20.480469 20.480469-11.304688-.019532-20.460938-9.171875-20.480469-20.480469.019531-11.304687 9.175781-20.460937 20.480469-20.480469 11.308594.019532 20.460938 9.175782 20.480469 20.480469zm0 0" fill="#54596e"/><path d="m89.265625 218.453125c0 15.082031-12.226563 27.308594-27.304687 27.308594-15.082032 0-27.308594-12.226563-27.308594-27.308594s12.226562-27.304687 27.308594-27.304687c15.078124 0 27.304687 12.222656 27.304687 27.304687zm0 0" fill="#fff"/><path d="m89.265625 218.453125h6.828125c-.007812-18.851563-15.28125-34.128906-34.132812-34.132813-18.855469.003907-34.128907 15.28125-34.136719 34.132813.007812 18.855469 15.28125 34.128906 34.136719 34.132813 18.851562-.003907 34.125-15.277344 34.132812-34.132813h-13.65625c-.019531 11.308594-9.171875 20.460937-20.476562 20.480469-11.308594-.019532-20.460938-9.171875-20.480469-20.480469.019531-11.304687 9.171875-20.460937 20.480469-20.480469 11.304687.019532 20.457031 9.175782 20.476562 20.480469zm0 0" fill="#54596e"/><path d="m184.839844 361.8125c64.09375 0 116.050781-51.957031 116.050781-116.050781v-82.546875c0-41.128906-33.339844-74.46875-74.464844-74.46875h-83.171875c-41.128906 0-74.46875 33.339844-74.46875 74.46875v82.546875c0 64.09375 51.960938 116.050781 116.054688 116.050781zm0 0" fill="#ffd578"/><g fill="#54596e"><path d="m184.839844 361.8125v6.828125c67.863281-.003906 122.875-55.011719 122.878906-122.878906v-82.546875c-.003906-44.902344-36.394531-81.289063-81.292969-81.292969h-83.171875c-44.898437 0-81.289062 36.390625-81.292968 81.292969v82.546875c.003906 67.863281 55.011718 122.875 122.878906 122.878906v-13.652344c-30.183594-.003906-57.445313-12.21875-77.234375-31.996093-19.777344-19.785157-31.988281-47.050782-31.992188-77.230469v-82.546875c.003907-18.699219 7.558594-35.566406 19.808594-47.832032 12.265625-12.25 29.132813-19.804687 47.832031-19.808593h83.171875c18.699219.003906 35.566407 7.558593 47.828125 19.808593 12.25 12.265626 19.808594 29.132813 19.8125 47.832032v82.546875c-.003906 30.179687-12.214844 57.445312-31.992187 77.230469-19.785157 19.777343-47.050781 31.988281-77.234375 31.996093zm0 0"/><path d="m150.707031 279.894531c0 18.847657 15.28125 34.132813 34.132813 34.132813 18.847656 0 34.132812-15.285156 34.132812-34.132813zm0 0"/><path d="m150.707031 279.894531h-6.828125c.003906 22.621094 18.335938 40.953125 40.960938 40.957031 22.621094 0 40.953125-18.335937 40.960937-40.957031 0-1.800781-.730469-3.558593-2.003906-4.828125-1.269531-1.273437-3.027344-2-4.824219-2h-68.265625c-1.796875 0-3.558593.726563-4.828125 2-1.269531 1.269532-2 3.027344-2 4.828125h6.828125v6.824219h68.265625v-6.824219h-6.828125c-.003906 7.558594-3.046875 14.34375-7.996093 19.304688-4.964844 4.953125-11.75 7.996093-19.308594 8-7.5625-.003907-14.34375-3.046875-19.308594-8-4.953125-4.960938-7.996094-11.746094-8-19.304688h-6.824219v6.824219zm0 0"/><path d="m150.707031 201.386719c0 5.65625-4.585937 10.238281-10.242187 10.238281s-10.238282-4.582031-10.238282-10.238281 4.582032-10.238281 10.238282-10.238281 10.242187 4.582031 10.242187 10.238281zm0 0"/><path d="m239.453125 201.386719c0 5.65625-4.585937 10.238281-10.242187 10.238281-5.652344 0-10.238282-4.582031-10.238282-10.238281s4.585938-10.238281 10.238282-10.238281c5.65625 0 10.242187 4.582031 10.242187 10.238281zm0 0"/></g><path d="m171.1875 293.546875h27.304688v-13.652344h-27.304688" fill="#fff"/><path d="m173.726562 247.667969c-.523437-.371094-4.25-2.972657-10.691406-5.535157-6.429687-2.558593-15.613281-5.082031-26.859375-5.082031-8.984375-.003906-19.265625 1.632813-30.234375 6.03125-8.6875 3.492188-16.347656 8.824219-23.457031 14.621094-10.628906 8.707031-20.164063 18.613281-28.753906 25.902344-4.269531 3.644531-8.28125 6.605469-11.734375 8.46875-3.476563 1.890625-6.222656 2.613281-8.28125 2.601562-2.023438-.050781-3.78125-.46875-6.570313-2.496093-4.527343-3.394532-10.945312-2.476563-14.335937 2.050781-3.394532 4.527343-2.472656 10.945312 2.050781 14.335937 5.667969 4.3125 12.371094 6.636719 18.855469 6.585938 4.414062 0 8.597656-.96875 12.453125-2.46875 6.753906-2.644532 12.660156-6.792969 18.398437-11.453125 8.5625-7.007813 16.773438-15.347657 25.015625-22.660157 8.207031-7.335937 16.433594-13.507812 23.964844-16.476562 8.535156-3.410156 16.089844-4.558594 22.628906-4.566406 8.164063 0 14.777344 1.835937 19.292969 3.628906 2.253906.898438 3.972656 1.78125 5.0625 2.398438l1.152344.6875.199218.132812 1.761719-2.597656-1.824219 2.554687.0625.042969 1.757813-2.597656-1.824219 2.554687c4.601563 3.285157 10.996094 2.21875 14.285156-2.382812 3.289063-4.597657 2.226563-10.992188-2.375-14.28125zm0 0" fill="#54596e"/><path d="m204.445312 264.332031-1.832031-2.566406 1.769531 2.609375.0625-.042969-1.832031-2.566406 1.769531 2.609375c.386719-.285156 10.457032-6.886719 25.707032-6.84375 6.539062.003906 14.09375 1.152344 22.625 4.5625 5.734375 2.277344 11.890625 6.367188 18.109375 11.464844 9.371093 7.632812 18.757812 17.367187 28.4375 25.636718 4.863281 4.132813 9.828125 7.929688 15.238281 10.878907 5.390625 2.917969 11.40625 5.070312 18.050781 5.082031 6.484375.046875 13.1875-2.277344 18.855469-6.589844 4.527344-3.390625 5.445312-9.8125 2.054688-14.335937-3.394532-4.523438-9.8125-5.441407-14.335938-2.050781-2.792969 2.027343-4.550781 2.445312-6.574219 2.496093-1.390625 0-3.035156-.304687-5.046875-1.082031-3.511718-1.335938-7.996094-4.238281-12.855468-8.226562-7.332032-5.964844-15.484376-14.195313-24.359376-22.101563-8.917968-7.886719-18.570312-15.585937-29.96875-20.1875-10.96875-4.394531-21.25-6.03125-30.230468-6.027344-11.246094 0-20.429688 2.523438-26.863282 5.082031-6.4375 2.5625-10.164062 5.164063-10.6875 5.535157-4.601562 3.289062-5.667968 9.683593-2.378906 14.285156 3.289063 4.601563 9.683594 5.664063 14.285156 2.378906zm0 0" fill="#54596e"/><path d="m144.140625 218.453125h-14.179687c-14.355469 0-25.992188-11.636719-25.992188-25.992187l23.628906-11.816407 39.910156-23.632812 2.628907 35.449219c0 14.355468-11.636719 25.992187-25.996094 25.992187zm0 0" fill="#54596e"/><path d="m219.523438 92.882812.394531.167969-.390625-.171875-.003906.003906.394531.167969-.390625-.171875c-.242188.554688-8.648438 19.378906-31.679688 40.660156-23.046875 21.28125-60.65625 45.132813-120.007812 55.898438-3.710938.671875-6.171875 4.222656-5.5 7.933594.671875 3.707031 4.222656 6.171875 7.933594 5.5 62.859374-11.363282 103.375-37.214844 128.011718-60.394532 24.660156-23.179687 33.515625-43.578124 33.789063-44.210937 1.488281-3.464844-.117188-7.476563-3.582031-8.964844-3.464844-1.488281-7.480469.117188-8.96875 3.582031zm0 0" fill="#54596e"/></svg>