<svg height="436pt" viewBox="-22 0 436 436.90496" width="436pt" xmlns="http://www.w3.org/2000/svg"><path d="m220.105469 130.582031c17-26.210937 45.066406-40.855469 74.082031-41.902343-9.035156 37.011718 5.535156 77.265624 39.300781 99.167968 16.496094 10.699219 35.128907 15.390625 53.390625 14.730469-2.390625 9.789063-6.339844 19.367187-12.136718 28.300781-27.695313 42.703125-84.765626 54.867188-127.46875 27.171875-42.703126-27.699219-54.867188-84.769531-27.167969-127.46875zm0 0" fill="#fff35f"/><path d="m220.105469 130.582031 5.726562 3.710938c15.746094-24.273438 41.699219-37.808594 68.601563-38.792969l-.246094-6.820312-6.632812-1.621094c-1.890626 7.75-2.816407 15.632812-2.816407 23.46875-.011719 32.359375 15.84375 64.109375 45.039063 83.050781 16.613281 10.777344 35.304687 15.886719 53.734375 15.882813 1.210937 0 2.410156-.023438 3.597656-.0625l-.226563-6.820313-6.632812-1.621094c-2.226562 9.105469-5.878906 17.957031-11.234375 26.207031-16.347656 25.203126-43.707031 38.898438-71.675781 38.90625-15.921875-.003906-31.984375-4.4375-46.351563-13.75-25.203125-16.351562-38.898437-43.710937-38.90625-71.679687.003907-15.921875 4.433594-31.984375 13.75-46.347656l-5.726562-3.710938-5.730469-3.71875c-10.78125 16.617188-15.953125 35.324219-15.949219 53.777344-.011719 32.398437 15.917969 64.1875 45.132813 83.136719 16.621094 10.78125 35.324218 15.953125 53.777344 15.949218 32.398437.007813 64.1875-15.917968 83.136718-45.132812 6.238282-9.613281 10.484375-19.917969 13.039063-30.398438.507812-2.082031.019531-4.257812-1.335938-5.921874-1.351562-1.664063-3.382812-2.589844-5.523437-2.519532-1.058594.035156-2.109375.058594-3.144532.058594-15.921874-.003906-31.960937-4.390625-46.304687-13.6875-25.175781-16.335938-38.804687-43.644531-38.816406-71.59375 0-6.761719.800781-13.554688 2.429687-20.230469.507813-2.085937.015625-4.269531-1.339844-5.933593-1.355468-1.660157-3.394531-2.585938-5.535156-2.507813-31.132812 1.109375-61.3125 16.859375-79.566406 45.007813zm0 0" fill="#54596e"/><path d="m174.054688 130.582031c-16.996094-26.210937-45.066407-40.855469-74.078126-41.902343 9.03125 37.011718-5.539062 77.265624-39.308593 99.167968-16.492188 10.699219-35.125 15.390625-53.386719 14.730469 2.390625 9.789063 6.339844 19.367187 12.136719 28.300781 27.699219 42.703125 84.765625 54.867188 127.46875 27.171875 42.703125-27.699219 54.867187-84.769531 27.167969-127.46875zm0 0" fill="#fff35f"/><path d="m174.054688 130.582031 5.726562-3.71875c-18.25-28.144531-48.433594-43.894531-79.558594-45.007812-2.144531-.074219-4.1875.847656-5.539062 2.511719-1.355469 1.664062-1.847656 3.847656-1.339844 5.929687 1.628906 6.675781 2.429688 13.46875 2.429688 20.230469-.011719 27.953125-13.640626 55.261718-38.820313 71.597656-14.34375 9.296875-30.382813 13.679688-46.300781 13.6875-1.039063 0-2.085938-.023438-3.144532-.058594-2.140624-.070312-4.171874.855469-5.523437 2.519532-1.351563 1.664062-1.84375 3.839843-1.335937 5.921874 2.558593 10.480469 6.800781 20.785157 13.042968 30.402344 18.949219 29.210938 50.734375 45.136719 83.132813 45.128906 18.453125.003907 37.15625-5.167968 53.777343-15.949218 29.214844-18.949219 45.140626-50.734375 45.132813-83.132813 0-18.453125-5.167969-37.160156-15.953125-53.777343l-11.453125 7.429687c9.3125 14.363281 13.746094 30.425781 13.75 46.347656-.007813 27.96875-13.703125 55.328125-38.90625 71.679688-14.367187 9.3125-30.429687 13.746093-46.351563 13.75-27.96875-.011719-55.332031-13.703125-71.675781-38.90625-5.355469-8.253907-9.007812-17.101563-11.234375-26.207031l-6.632812 1.617187-.226563 6.824219c1.1875.039062 2.386719.0625 3.597657.0625 18.425781.003906 37.117187-5.105469 53.730468-15.882813 29.195313-18.9375 45.054688-50.691406 45.042969-83.050781 0-7.835938-.925781-15.71875-2.820313-23.464844l-6.632812 1.617188-.246094 6.824218c26.898438.980469 52.859375 14.515626 68.597656 38.792969zm0 0" fill="#54596e"/><path d="m120.695312 170.667969c0 15.078125-12.226562 27.304687-27.308593 27.304687s-27.304688-12.226562-27.304688-27.304687c0-15.082031 12.222657-27.308594 27.304688-27.308594s27.308593 12.226563 27.308593 27.308594zm0 0" fill="#ffd578"/><path d="m120.695312 170.667969h6.824219c-.003906-18.855469-15.277343-34.132813-34.132812-34.132813-18.851563 0-34.128907 15.277344-34.132813 34.132813.003906 18.851562 15.28125 34.125 34.132813 34.132812 18.855469-.003906 34.128906-15.28125 34.132812-34.132812h-13.652343c-.019532 11.304687-9.171876 20.457031-20.480469 20.480469-11.304688-.023438-20.457031-9.175782-20.480469-20.480469.023438-11.308594 9.175781-20.460938 20.480469-20.480469 11.308593.019531 20.460937 9.171875 20.480469 20.480469zm0 0" fill="#54596e"/><path d="m325.492188 170.667969c0 15.078125-12.222657 27.304687-27.304688 27.304687s-27.308594-12.226562-27.308594-27.304687c0-15.082031 12.226563-27.308594 27.308594-27.308594s27.304688 12.226563 27.304688 27.308594zm0 0" fill="#ffd578"/><path d="m325.492188 170.667969h6.828124c-.003906-18.855469-15.28125-34.132813-34.132812-34.132813-18.855469 0-34.128906 15.277344-34.132812 34.132813.003906 18.851562 15.277343 34.125 34.132812 34.132812 18.851562-.003906 34.128906-15.28125 34.132812-34.132812h-13.652343c-.019531 11.304687-9.175781 20.457031-20.480469 20.480469-11.308594-.023438-20.460938-9.175782-20.480469-20.480469.019531-11.308594 9.171875-20.460938 20.480469-20.480469 11.304688.019531 20.460938 9.171875 20.480469 20.480469zm0 0" fill="#54596e"/><path d="m299.992188 334.507812h-201.582032c-32.933594 0-59.632812 22.886719-59.632812 51.113282v44.457031h314.023437v-50.304687c0-25-23.640625-45.265626-52.808593-45.265626zm0 0" fill="#fff"/><path d="m299.992188 334.507812v-6.828124h-201.582032c-18.050781.003906-34.515625 6.257812-46.609375 16.613281-12.085937 10.328125-19.859375 25.007812-19.851562 41.328125v44.457031c0 1.800781.730469 3.558594 2 4.828125 1.273437 1.273438 3.03125 2 4.828125 2h314.023437c1.796875 0 3.554688-.726562 4.828125-2 1.269532-1.269531 2-3.027344 2-4.828125v-50.304687c.007813-14.707032-7.003906-27.925782-17.851562-37.191407-10.859375-9.300781-25.617188-14.898437-41.785156-14.902343v13.652343c12.996093-.003906 24.648437 4.535157 32.898437 11.617188 8.265625 7.113281 13.074219 16.527343 13.082031 26.824219v43.480468h-300.371094v-37.628906c.007813-11.910156 5.582032-22.789062 15.082032-30.960938 9.488281-8.144531 22.84375-13.335937 37.726562-13.332031h201.582032zm0 0" fill="#54596e"/><path d="m195.789062 382.292969c-15.082031 0-27.308593-12.226563-27.308593-27.304688v-68.269531h54.613281v68.269531c0 15.078125-12.226562 27.304688-27.304688 27.304688zm0 0" fill="#ffd578"/><path d="m195.789062 382.292969v-6.828125c-11.308593-.019532-20.460937-9.171875-20.480468-20.476563v-61.441406h40.957031v61.441406c-.019531 11.304688-9.171875 20.457031-20.476563 20.476563v13.65625c18.851563-.003906 34.125-15.28125 34.132813-34.132813v-68.269531c0-1.796875-.730469-3.554688-2-4.828125-1.273437-1.269531-3.03125-1.996094-4.828125-1.996094h-54.613281c-1.796875 0-3.554688.726563-4.828125 1.996094-1.269532 1.273437-2 3.03125-2 4.828125v68.269531c.007812 18.851563 15.28125 34.125 34.136718 34.132813zm0 0" fill="#54596e"/><path d="m195.789062 314.027344c-56.554687 0-102.402343-66.328125-102.402343-122.878906v-102.402344h204.800781v102.402344c0 56.550781-45.847656 122.878906-102.398438 122.878906zm0 0" fill="#ffd578"/><path d="m195.789062 314.027344v-6.828125c-12.792968-.003907-25.054687-3.734375-36.4375-10.328125-17.058593-9.867188-31.984374-26.265625-42.503906-45.296875-10.542968-19.015625-16.652344-40.605469-16.636718-60.425781v-95.578126h191.148437v95.578126c.046875 26.433593-10.898437 55.980468-28.539063 78.433593-8.800781 11.238281-19.230468 20.703125-30.597656 27.289063-11.382812 6.59375-23.644531 10.324218-36.433594 10.328125v13.652343c15.484376.003907 30.160157-4.554687 43.28125-12.164062 19.695313-11.4375 36.042969-29.648438 47.601563-50.5 11.539063-20.871094 18.328125-44.449219 18.34375-67.039062v-102.402344c0-1.796875-.730469-3.554688-2-4.828125-1.273437-1.269531-3.03125-1.996094-4.828125-1.996094h-204.796875c-1.796875 0-3.558594.726563-4.828125 1.996094-1.269531 1.273437-2 3.03125-2 4.828125v102.402344c.046875 30.113281 12.023438 62.007812 31.445312 86.855468 9.730469 12.414063 21.367188 23.0625 34.5 30.679688 13.117188 7.613281 27.796876 12.171875 43.28125 12.167968zm0 0" fill="#54596e"/><path d="m148 160.425781c0 5.65625-4.582031 10.242188-10.238281 10.242188s-10.242188-4.585938-10.242188-10.242188 4.585938-10.238281 10.242188-10.238281 10.238281 4.582031 10.238281 10.238281zm0 0" fill="#54596e"/><path d="m264.054688 160.425781c0 5.65625-4.585938 10.242188-10.242188 10.242188-5.652344 0-10.238281-4.585938-10.238281-10.242188s4.585937-10.238281 10.238281-10.238281c5.65625 0 10.242188 4.582031 10.242188 10.238281zm0 0" fill="#54596e"/><path d="m188.960938 252.585938h13.652343c7.539063 0 13.652344-6.113282 13.652344-13.652344 0-7.539063-6.113281-13.652344-13.652344-13.652344h-13.652343c-7.539063 0-13.652344 6.113281-13.652344 13.652344 0 7.539062 6.113281 13.652344 13.652344 13.652344" fill="#ff927d"/><path d="m168.480469 238.933594h54.613281c3.769531 0 6.828125-3.058594 6.828125-6.828125s-3.058594-6.824219-6.828125-6.824219h-54.613281c-3.769531 0-6.828125 3.054688-6.828125 6.824219s3.058594 6.828125 6.828125 6.828125" fill="#ff927d"/><path d="m168.480469 389.121094-34.132813 13.652344-6.828125-68.265626h40.960938zm0 0" fill="#fff"/><path d="m168.480469 389.121094-2.535157-6.339844-25.707031 10.28125-5.175781-51.730469h26.589844v47.789063h6.828125l-2.535157-6.339844 2.535157 6.339844h6.828125v-54.613282c0-1.800781-.730469-3.558593-2-4.828124-1.273438-1.273438-3.03125-2-4.828125-2h-40.960938c-1.925781 0-3.769531.816406-5.0625 2.246093-1.289062 1.425781-1.921875 3.34375-1.730469 5.261719l6.828126 68.265625c.214843 2.132813 1.417968 4.042969 3.25 5.15625 1.835937 1.113281 4.085937 1.296875 6.078124.5l34.132813-13.652344c2.582031-1.03125 4.292969-3.558593 4.292969-6.339843h-6.828125zm0 0" fill="#54596e"/><path d="m223.09375 389.121094 34.132812 13.652344 6.828126-68.265626h-40.960938zm0 0" fill="#fff"/><g fill="#54596e"><path d="m223.09375 389.121094-2.535156 6.335937 34.132812 13.65625c1.988282.792969 4.242188.609375 6.074219-.503906 1.835937-1.109375 3.039063-3.023437 3.253906-5.15625l6.824219-68.265625c.191406-1.917969-.4375-3.832031-1.730469-5.261719-1.289062-1.425781-3.132812-2.242187-5.0625-2.242187h-40.957031c-1.796875 0-3.558594.726562-4.828125 1.996094-1.269531 1.273437-2 3.03125-2 4.828124v54.613282c0 2.78125 1.707031 5.304687 4.289063 6.339844l2.539062-6.339844h6.828125v-47.789063h26.589844l-5.175781 51.730469-25.707032-10.28125-2.535156 6.339844h6.828125zm0 0"/><path d="m284.535156 409.601562v-20.480468c.019532-11.308594 9.171875-20.460938 20.480469-20.480469 11.304687.019531 20.457031 9.171875 20.476563 20.480469v20.480468c0 3.769532 3.058593 6.824219 6.828124 6.824219 3.769532 0 6.828126-3.054687 6.828126-6.824219v-20.480468c-.007813-18.855469-15.28125-34.132813-34.132813-34.132813-18.855469 0-34.128906 15.277344-34.136719 34.132813v20.480468c0 3.769532 3.058594 6.824219 6.828125 6.824219s6.828125-3.054687 6.828125-6.824219zm0 0"/><path d="m311.839844 361.8125v-34.132812c0-3.769532-3.054688-6.828126-6.824219-6.828126-3.773437 0-6.828125 3.058594-6.828125 6.828126v34.132812c0 3.769531 3.054688 6.828125 6.828125 6.828125 3.769531 0 6.824219-3.058594 6.824219-6.828125"/><path d="m100.214844 361.8125v-34.132812c0-3.769532-3.058594-6.828126-6.828125-6.828126s-6.824219 3.058594-6.824219 6.828126v34.132812c0 3.769531 3.054688 6.828125 6.824219 6.828125s6.828125-3.058594 6.828125-6.828125"/><path d="m113.867188 389.121094h6.828124c-.007812-15.085938-12.222656-27.304688-27.308593-27.308594-15.082031.003906-27.300781 12.222656-27.304688 27.308594.003907 15.082031 12.222657 27.300781 27.304688 27.304687 15.085937-.003906 27.300781-12.222656 27.308593-27.304687h-13.65625c-.011718 7.535156-6.113281 13.636718-13.652343 13.652344-7.535157-.015626-13.640625-6.117188-13.652344-13.652344.011719-7.539063 6.117187-13.640625 13.652344-13.65625 7.539062.015625 13.640625 6.117187 13.652343 13.65625zm0 0"/></g><path d="m72.90625 6.828125h137.292969c48.59375 0 87.988281 39.390625 87.988281 87.984375v7.585938h-185.082031c-22.203125 0-40.199219-17.996094-40.199219-40.195313zm0 0" fill="#fff35f"/><path d="m72.90625 6.828125v6.824219h137.292969c22.433593.003906 42.679687 9.074218 57.390625 23.773437 14.695312 14.710938 23.765625 34.957031 23.769531 57.386719v.761719h-178.253906c-9.238281-.003907-17.535157-3.726563-23.597657-9.773438-6.050781-6.0625-9.769531-14.363281-9.773437-23.597656v-55.375h-6.828125v6.824219-6.824219h-6.824219v55.375c.003907 25.972656 21.046875 47.019531 47.023438 47.023437h185.082031c1.796875 0 3.554688-.726562 4.828125-2 1.269531-1.269531 2-3.027343 2-4.824218v-7.585938c-.003906-52.371094-42.449219-94.81249975-94.8125-94.816406h-137.296875c-1.796875 0-3.554688.726562-4.824219 2-1.273437 1.269531-2 3.027344-2 4.828125zm0 0" fill="#54596e"/><path d="m246.988281 95.574219h-72.445312c-9.234375-.003907-17.535157-3.726563-23.59375-9.773438-6.050781-6.0625-9.773438-14.363281-9.773438-23.597656v-55.375c0-3.773437-3.058593-6.828125-6.828125-6.828125-3.769531 0-6.828125 3.054688-6.828125 6.828125v55.375c.007813 25.972656 21.050781 47.019531 47.023438 47.023437h72.445312c3.769531 0 6.824219-3.058593 6.824219-6.828124 0-3.769532-3.054688-6.824219-6.824219-6.824219zm0 0" fill="#54596e"/></svg>