<svg height="437pt" viewBox="-34 0 437 437.02272" width="437pt" xmlns="http://www.w3.org/2000/svg"><path d="m150.199219 286.757812h68.265625v81.921876h-68.265625zm0 0" fill="#ffd578"/><path d="m218.464844 368.679688v-6.828126h-61.441406v-68.265624h54.613281v75.09375h6.828125v-6.828126 6.828126h6.828125v-81.921876c0-1.796874-.730469-3.554687-2-4.828124-1.273438-1.269532-3.03125-1.996094-4.828125-1.996094h-68.265625c-1.796875 0-3.558594.726562-4.828125 1.996094-1.269532 1.273437-2 3.03125-2 4.828124v81.921876c0 1.796874.730468 3.554687 2 4.824218 1.273437 1.273438 3.03125 2 4.828125 2h68.265625c1.796875 0 3.554687-.726562 4.828125-2 1.269531-1.269531 2-3.027344 2-4.824218zm0 0" fill="#54596e"/><path d="m309.015625 320.894531h-49.867187l-74.820313 54.613281-74.816406-54.613281h-43.039063c-32.933594 0-59.632812 22.882813-59.632812 51.113281v58.113282h354.984375v-63.960938c0-25-23.640625-45.265625-52.808594-45.265625zm0 0" fill="#999"/><path d="m309.015625 320.894531v-6.828125h-49.867187c-1.460938 0-2.847657.453125-4.023438 1.3125l-70.796875 51.675782-70.789063-51.675782c-1.179687-.859375-2.570312-1.3125-4.027343-1.3125h-43.039063c-18.050781.003906-34.515625 6.257813-46.609375 16.613282-12.085937 10.324218-19.85937475 25.007812-19.8515622 41.328124v58.113282c0 1.796875.7265622 3.554687 2.0000002 4.824218 1.269531 1.273438 3.027343 2 4.828125 2h354.984375c1.796875 0 3.554687-.726562 4.828125-2 1.269531-1.269531 2-3.027343 2-4.824218v-63.960938c.007812-14.707031-7.003906-27.925781-17.851563-37.191406-10.863281-9.304688-25.617187-14.898438-41.789062-14.902344v13.652344c13-.003906 24.648437 4.535156 32.902343 11.617188 8.265626 7.113281 13.074219 16.527343 13.082032 26.824218v57.132813h-341.332032v-51.28125c.007813-11.910157 5.582032-22.789063 15.085938-30.964844 9.484375-8.140625 22.84375-13.332031 37.726562-13.328125h40.808594l73.019532 53.300781c2.398437 1.75 5.652343 1.75 8.050781 0l73.019531-53.300781h47.640625zm0 0" fill="#54596e"/><path d="m122.890625 330.660156v99.460938h122.878906v-99.464844l-61.441406 44.851562zm0 0" fill="#fff"/><path d="m122.890625 330.660156h-6.824219v99.460938c0 1.796875.726563 3.554687 2 4.824218 1.269532 1.273438 3.027344 2 4.824219 2h122.878906c1.800781 0 3.558594-.726562 4.828125-2 1.273438-1.269531 2-3.027343 2-4.824218v-99.464844c0-2.570312-1.445312-4.921875-3.734375-6.085938-2.289062-1.164062-5.039062-.941406-7.117187.570313l-57.417969 41.914063-57.414063-41.910157c-2.074218-1.515625-4.824218-1.734375-7.113281-.570312-2.292969 1.164062-3.734375 3.515625-3.734375 6.085937h6.824219l-4.023437 5.511719 61.4375 44.847656c2.398437 1.75 5.652343 1.75 8.050781 0l50.589843-36.929687v79.203125h-109.226562v-92.632813h-6.828125l-4.023437 5.511719zm0 0" fill="#54596e"/><path d="m150.199219 375.507812-34.132813 13.652344-13.65625-68.265625h47.789063zm0 0" fill="#fff"/><path d="m150.199219 375.507812-2.539063-6.339843-26.511718 10.605469-10.410157-52.054688h32.632813v47.789062h6.828125l-2.539063-6.339843 2.539063 6.339843h6.824219v-54.613281c0-1.800781-.726563-3.558593-2-4.832031-1.269532-1.269531-3.027344-1.996094-4.824219-1.996094h-47.789063c-2.046875 0-3.980468.914063-5.277344 2.5-1.300781 1.582032-1.816406 3.65625-1.414062 5.664063l13.652344 68.265625c.398437 1.984375 1.664062 3.699218 3.441406 4.664062 1.78125.964844 3.90625 1.089844 5.789062.335938l34.132813-13.652344c2.582031-1.035156 4.289063-3.558594 4.289063-6.339844h-6.824219zm0 0" fill="#54596e"/><path d="m218.464844 375.507812 34.132812 13.652344 13.652344-68.265625h-47.785156zm0 0" fill="#fff"/><path d="m218.464844 375.507812-2.535156 6.335938 34.132812 13.652344c1.878906.753906 4.007812.628906 5.785156-.335938 1.78125-.960937 3.046875-2.675781 3.445313-4.660156l13.652343-68.269531c.402344-2.007813-.117187-4.082031-1.414062-5.664063-1.300781-1.585937-3.230469-2.5-5.28125-2.5h-47.785156c-1.796875 0-3.558594.726563-4.828125 2-1.269531 1.269532-2 3.027344-2 4.828125v54.613281c0 2.78125 1.710937 5.304688 4.292969 6.339844l2.535156-6.339844h6.828125v-47.789062h32.632812l-10.410156 52.050781-26.515625-10.605469-2.535156 6.34375h6.828125zm0 0" fill="#54596e"/><path d="m163.839844 430.195312h40.960937l-9.097656-61.515624h-22.757813zm0 0" fill="#999"/><path d="m163.839844 430.195312v6.828126h40.960937c1.976563 0 3.878907-.871094 5.167969-2.367188 1.289062-1.492188 1.875-3.503906 1.585938-5.457031l-9.101563-61.519531c-.492187-3.34375-3.371094-5.828126-6.75-5.828126h-22.757813c-3.378906 0-6.257812 2.484376-6.753906 5.828126l-9.105468 61.515624c-.289063 1.953126.296874 3.964844 1.585937 5.460938 1.292969 1.496094 3.195313 2.367188 5.167969 2.367188v-6.828126l6.753906 1 8.242188-55.691406h10.972656l7.082031 47.863282h-33.050781v6.828124l6.753906 1zm0 0" fill="#54596e"/><path d="m88.757812 184.359375c0 15.082031-12.226562 27.304687-27.304687 27.304687-15.082031 0-27.308594-12.222656-27.308594-27.304687s12.226563-27.308594 27.308594-27.308594c15.078125 0 27.304687 12.226563 27.304687 27.308594zm0 0" fill="#ffd578"/><path d="m88.757812 184.359375h6.828126c-.007813-18.855469-15.28125-34.128906-34.132813-34.132813-18.855469.003907-34.128906 15.277344-34.136719 34.132813.007813 18.851563 15.28125 34.128906 34.136719 34.132813 18.851563-.003907 34.125-15.28125 34.132813-34.132813h-13.65625c-.019532 11.304687-9.171876 20.460937-20.476563 20.480469-11.308594-.019532-20.460937-9.175782-20.480469-20.480469.019532-11.308594 9.171875-20.460937 20.480469-20.480469 11.304687.019532 20.457031 9.171875 20.476563 20.480469zm0 0" fill="#54596e"/><path d="m334.519531 184.359375c0 15.082031-12.226562 27.304687-27.308593 27.304687-15.082032 0-27.304688-12.222656-27.304688-27.304687s12.222656-27.308594 27.304688-27.308594c15.082031 0 27.308593 12.226563 27.308593 27.308594zm0 0" fill="#ffd578"/><path d="m334.519531 184.359375h6.824219c-.003906-18.855469-15.277344-34.128906-34.132812-34.132813-18.851563.003907-34.128907 15.277344-34.132813 34.132813.003906 18.851563 15.28125 34.128906 34.132813 34.132813 18.855468-.003907 34.128906-15.28125 34.132812-34.132813h-13.652344c-.019531 11.304687-9.171875 20.460937-20.480468 20.480469-11.304688-.019532-20.460938-9.175782-20.480469-20.480469.019531-11.308594 9.175781-20.460937 20.480469-20.480469 11.308593.019532 20.460937 9.171875 20.480468 20.480469zm0 0" fill="#54596e"/><path d="m225.203125 41.71875c-.902344 22.289062-43.269531 40.242188-95.484375 40.242188-13.023438 0-25.425781-1.128907-36.738281-3.148438-15.425781 19.703125-24.703125 44.449219-24.703125 71.414062v61.4375c0 64.097657 51.960937 116.054688 116.054687 116.054688s116.050781-51.957031 116.050781-116.054688v-61.4375c0-49.6875-31.28125-91.957031-75.179687-108.507812zm0 0" fill="#ffd578"/><g fill="#54596e"><path d="m225.203125 41.71875-6.820313-.277344c-.136718 3.371094-1.824218 7.058594-5.914062 11.09375-6.066406 6.011719-17.273438 11.910156-31.707031 16.003906-14.433594 4.132813-32.054688 6.597657-51.046875 6.59375-12.628906 0-24.644532-1.097656-35.539063-3.042968-2.484375-.441406-5.015625.523437-6.574219 2.515625-16.3125 20.828125-26.152343 47.078125-26.148437 75.621093v61.4375c.003906 67.867188 55.011719 122.875 122.878906 122.882813 67.863281-.003906 122.875-55.011719 122.878907-122.882813v-61.4375c-.007813-52.617187-33.125-97.386718-79.597657-114.894531-2.050781-.773437-4.351562-.515625-6.179687.695313-1.824219 1.210937-2.960938 3.226562-3.050782 5.414062l6.820313.277344-2.40625 6.390625c41.320313 15.589844 70.769531 55.359375 70.761719 102.117187v61.4375c-.003906 30.183594-12.214844 57.449219-31.992188 77.234376-19.785156 19.777343-47.050781 31.988281-77.234375 31.996093-30.183593-.003906-57.445312-12.21875-77.234375-31.996093-19.777344-19.785157-31.988281-47.050782-31.992187-77.234376v-61.4375c.003906-25.386718 8.714843-48.628906 23.246093-67.207031l-5.375-4.207031-1.199218 6.722656c11.730468 2.09375 24.523437 3.253906 37.9375 3.253906 26.902344-.015624 51.289062-4.574218 69.640625-12.300781 9.179687-3.886719 16.890625-8.554687 22.667969-14.203125 5.742187-5.597656 9.683593-12.511718 10-20.289062l-6.820313-.277344-2.40625 6.390625zm0 0"/><path d="m147.144531 258.730469 13.644531 6.828125c.964844.480468 1.976563.71875 3.054688.71875h40.96875c1.078125 0 2.085938-.238282 3.050781-.71875l13.65625-6.828125c3.371094-1.6875 4.738281-5.785157 3.050781-9.160157-1.683593-3.371093-5.785156-4.738281-9.15625-3.050781l-12.214843 6.101563h-37.742188l-12.207031-6.101563c-3.371094-1.691406-7.472656-.324219-9.160156 3.050781-1.683594 3.375-.316406 7.472657 3.054687 9.160157zm0 0"/><path d="m136.542969 187.773438c0 5.65625-4.582031 10.238281-10.238281 10.238281s-10.238282-4.582031-10.238282-10.238281 4.582032-10.242188 10.238282-10.242188 10.238281 4.585938 10.238281 10.242188zm0 0"/><path d="m252.597656 187.773438c0 5.65625-4.585937 10.238281-10.238281 10.238281-5.65625 0-10.242187-4.582031-10.242187-10.238281s4.585937-10.242188 10.242187-10.242188c5.652344 0 10.238281 4.585938 10.238281 10.242188zm0 0"/></g><path d="m54.625 129.746094c0 22.621094 58.070312 40.960937 129.707031 40.960937s129.707031-18.339843 129.707031-40.960937zm0 0" fill="#999"/><path d="m54.625 129.746094h-6.828125c-.007813 4.308594 1.429687 8.433594 3.734375 11.96875 4.074219 6.203125 10.535156 11.035156 18.722656 15.328125 12.308594 6.378906 28.8125 11.402343 48.292969 14.953125 19.472656 3.535156 41.894531 5.535156 65.785156 5.535156 36.414063-.011719 69.367188-4.621094 93.773438-12.3125 12.214843-3.871094 22.304687-8.46875 29.824219-14.058594 3.753906-2.808594 6.890624-5.890625 9.203124-9.445312 2.304688-3.535156 3.742188-7.65625 3.730469-11.96875 0-1.800782-.726562-3.558594-2-4.828125-1.269531-1.273438-3.027343-2-4.824219-2h-259.414062c-1.796875 0-3.558594.726562-4.828125 2-1.269531 1.269531-2 3.03125-2 4.828125h6.828125v6.828125h259.414062v-6.828125h-6.828124c-.011719 1.34375-.386719 2.742187-1.539063 4.542968-1.96875 3.125-6.582031 7.046876-13.558594 10.636719-10.441406 5.445313-25.894531 10.28125-44.4375 13.636719-18.554687 3.371094-40.222656 5.316406-63.34375 5.316406-35.222656.011719-67.121093-4.546875-89.660156-11.679687-11.261719-3.539063-20.164063-7.769531-25.769531-11.980469-2.8125-2.09375-4.769532-4.15625-5.914063-5.929688-1.152343-1.800781-1.527343-3.199218-1.539062-4.542968h-6.824219v6.828125zm0 0" fill="#54596e"/><path d="m54.625 109.265625h259.414062v20.480469h-259.414062zm0 0" fill="#fff35f"/><path d="m314.039062 109.265625v-6.828125h-259.414062c-1.796875 0-3.558594.730469-4.828125 2-1.269531 1.273438-2 3.03125-2 4.828125v20.480469c0 1.796875.730469 3.554687 2 4.828125 1.273437 1.269531 3.03125 1.996093 4.828125 1.996093h259.414062c1.796876 0 3.554688-.726562 4.824219-1.996093 1.273438-1.273438 2-3.03125 2-4.828125v-20.480469c0-1.796875-.726562-3.554687-2-4.828125-1.269531-1.269531-3.027343-2-4.824219-2v6.828125h-6.828124v13.652344h-245.757813v-6.824219h252.585937v-6.828125h-6.828124zm0 0" fill="#54596e"/><path d="m139.316406 13.339844-105.171875 37.898437 20.480469 58.027344h259.414062l20.480469-58.027344-105.183593-37.902343c-29.378907-8.679688-60.640626-8.675782-90.019532.003906zm0 0" fill="#fff"/><path d="m139.316406 13.339844-2.316406-6.421875-105.167969 37.898437c-3.527343 1.273438-5.371093 5.160156-4.125 8.695313l20.480469 58.027343c.960938 2.71875 3.550781 4.550782 6.4375 4.550782h259.414062c2.886719 0 5.476563-1.832032 6.4375-4.550782l20.480469-58.027343c1.246094-3.535157-.597656-7.425781-4.125-8.695313l-105.179687-37.902344-.378906-.125c-15.320313-4.527343-31.132813-6.789062-46.941407-6.789062-15.8125 0-31.628906 2.261719-46.953125 6.789062l-.378906.125 2.316406 6.425782 1.933594 6.546875c14.0625-4.15625 28.570312-6.234375 43.085938-6.234375 14.503906 0 29.011718 2.078125 43.066406 6.230468l1.9375-6.546874-2.316406 6.421874 98.800781 35.605469-16.613281 47.074219h-249.757813l-16.613281-47.074219 98.789062-35.601562-2.3125-6.421875 1.933594 6.546875zm0 0" fill="#54596e"/><path d="m199.5 47.824219c-3.75-4.160157-9.128906-6.824219-15.167969-6.824219-6.039062 0-11.417969 2.664062-15.167969 6.824219h-39.445312c0 11.3125 9.167969 20.480469 20.480469 20.480469h14.90625c2.820312 7.9375 10.320312 13.65625 19.226562 13.65625 8.902344 0 16.402344-5.71875 19.226563-13.65625h14.90625c11.308594 0 20.480468-9.167969 20.480468-20.480469zm0 0" fill="#fff35f"/><path d="m199.5 47.824219 5.070312-4.570313c-4.929687-5.484375-12.15625-9.085937-20.238281-9.082031-8.082031-.003906-15.3125 3.597656-20.238281 9.082031l5.070312 4.570313v-6.824219h-39.445312c-1.796875 0-3.558594.726562-4.828125 1.996094-1.269531 1.273437-2 3.03125-2 4.828125.007813 15.085937 12.222656 27.304687 27.308594 27.308593h14.90625v-6.828124l-6.433594 2.289062c3.730469 10.539062 13.753906 18.183594 25.65625 18.191406 11.902344-.007812 21.929687-7.652344 25.660156-18.191406l-6.433593-2.289062v6.828124h14.910156c15.082031-.003906 27.300781-12.222656 27.304687-27.308593 0-1.796875-.726562-3.554688-2-4.828125-1.269531-1.269532-3.027343-1.996094-4.824219-1.996094h-39.445312v6.824219l5.070312-4.570313-5.070312 4.570313v6.828125h39.445312v-6.828125h-6.828124c-.011719 7.539062-6.117188 13.640625-13.652344 13.65625h-14.90625c-2.886719 0-5.464844 1.816406-6.433594 4.535156-1.914062 5.335937-6.890625 9.125-12.792969 9.117187-5.902343.007813-10.878906-3.78125-12.796875-9.117187-.964844-2.71875-3.546875-4.535156-6.429687-4.535156h-14.90625c-7.539063-.015625-13.640625-6.117188-13.65625-13.65625h-6.824219v6.828125h39.445312c1.925782 0 3.78125-.824219 5.070313-2.253906 2.574219-2.835938 6.097656-4.566407 10.097656-4.574219 3.996094.007812 7.523438 1.738281 10.097657 4.574219 1.289062 1.429687 3.144531 2.253906 5.070312 2.253906zm0 0" fill="#54596e"/><path d="m75.105469 314.066406v34.132813h13.652343v-34.132813" fill="#fff35f"/><path d="m47.796875 314.066406v34.132813h13.65625v-34.132813" fill="#fff35f"/><path d="m307.210938 314.066406v34.132813h13.652343v-34.132813" fill="#fff35f"/><path d="m279.90625 314.066406v34.132813h13.652344v-34.132813" fill="#fff35f"/></svg>