<svg height="436pt" viewBox="-14 0 436 436.90667" width="436pt" xmlns="http://www.w3.org/2000/svg"><path d="m289.050781 73.839844c-3.625-44.882813-60.78125-67.011719-122.527343-67.011719-61.746094 0-118.90625 22.128906-122.527344 67.011719l-35.441406 136.609375c-6.425782 24.785156 12.28125 48.964843 37.878906 48.964843h240.175781c25.597656 0 44.304687-24.179687 37.878906-48.964843zm0 0" fill="#d8d8d8"/><path d="m289.050781 73.839844 6.800781-.546875c-1-12.625-5.886718-23.859375-13.5-33.171875-11.441406-13.996094-28.667968-23.878906-48.773437-30.417969-20.132813-6.527344-43.289063-9.69921875-67.054687-9.703125-31.691407.0234375-62.289063 5.609375-86.09375 17.386719-11.894532 5.902343-22.125 13.402343-29.738282 22.734375-7.609375 9.3125-12.5 20.546875-13.5 33.171875l6.804688.546875-6.609375-1.714844-35.441407 136.609375c-1.007812 3.890625-1.492187 7.792969-1.492187 11.617187.003906 12.332032 4.996094 23.792969 13.222656 32.167969 8.210938 8.382813 19.792969 13.730469 32.757813 13.722657h240.175781c12.964844.007812 24.542969-5.339844 32.757813-13.71875 8.222656-8.375 13.21875-19.835938 13.222656-32.167969 0-3.828125-.484375-7.730469-1.492188-11.617188l-35.441406-136.609375-6.605469 1.710938 6.800781-.546875-6.800781.546875-6.609375 1.714844 35.441406 136.609374c.71875 2.769532 1.054688 5.507813 1.054688 8.1875.003906 8.609376-3.5 16.683594-9.3125 22.601563-5.828125 5.914063-13.820312 9.625-23.015625 9.636719h-240.175781c-9.195313-.011719-17.191406-3.722656-23.015625-9.636719-5.8125-5.917969-9.316407-13.988281-9.3125-22.601563 0-2.675781.335937-5.414062 1.054687-8.1875l35.441406-136.609374.195313-1.167969c.8125-9.816407 4.425781-18.179688 10.480469-25.640625 9.054687-11.164063 23.941406-20.085938 42.402344-26.058594 18.433593-5.984375 40.300781-9.039062 62.839843-9.035156 30.058594-.019532 58.914063 5.457031 80.027344 15.964844 10.570313 5.238281 19.164063 11.6875 25.21875 19.128906 6.054687 7.460937 9.667969 15.824218 10.476563 25.640625l.195312 1.167969zm0 0" fill="#54596e"/><path d="m270.726562 334.507812h-201.585937c-32.933594 0-59.632813 22.886719-59.632813 51.113282v44.457031h314.027344v-50.304687c0-25-23.648437-45.265626-52.808594-45.265626zm0 0" fill="#999"/><path d="m270.726562 334.507812v-6.828124h-201.585937c-18.050781.003906-34.511719 6.257812-46.609375 16.613281-12.082031 10.328125-19.859375 25.007812-19.847656 41.328125v44.457031c0 1.800781.726562 3.558594 2 4.828125 1.269531 1.273438 3.027344 2 4.824218 2h314.027344c1.796875 0 3.554688-.726562 4.828125-2 1.269531-1.269531 2-3.027344 2-4.828125v-50.304687c.007813-14.707032-7.003906-27.925782-17.851562-37.191407-10.863281-9.300781-25.617188-14.898437-41.78125-14.902343v13.652343c12.992187-.003906 24.640625 4.535157 32.894531 11.617188 8.265625 7.117187 13.078125 16.53125 13.085938 26.824219v43.480468h-300.375v-37.628906c.011718-11.910156 5.582031-22.789062 15.085937-30.960938 9.484375-8.144531 22.839844-13.335937 37.722656-13.332031h201.585938v-6.824219zm0 0" fill="#54596e"/><path d="m50.46875 402.773438v20.480468c0 3.769532 3.058594 6.824219 6.828125 6.824219s6.824219-3.054687 6.824219-6.824219v-20.480468c0-3.769532-3.054688-6.828126-6.824219-6.828126-3.773437 0-6.828125 3.058594-6.828125 6.828126" fill="#54596e"/><path d="m268.921875 402.773438v20.480468c0 3.769532 3.058594 6.824219 6.828125 6.824219s6.824219-3.054687 6.824219-6.824219v-20.480468c0-3.769532-3.054688-6.828126-6.824219-6.828126-3.773438 0-6.828125 3.058594-6.828125 6.828126" fill="#54596e"/><path d="m166.523438 382.292969c-15.082032 0-27.308594-12.226563-27.308594-27.304688v-68.269531h54.613281v68.269531c0 15.078125-12.226563 27.304688-27.304687 27.304688zm0 0" fill="#ffd578"/><path d="m166.523438 382.292969v-6.828125c-11.308594-.019532-20.460938-9.171875-20.480469-20.476563v-61.441406h40.960937v61.441406c-.023437 11.304688-9.175781 20.457031-20.480468 20.476563v13.65625c18.851562-.003906 34.128906-15.28125 34.132812-34.132813v-68.269531c0-1.796875-.730469-3.554688-2-4.828125-1.269531-1.269531-3.027344-1.996094-4.824219-1.996094h-54.613281c-1.796875 0-3.558594.726563-4.828125 1.996094-1.273437 1.273437-2 3.03125-2 4.828125v68.269531c.003906 18.851563 15.28125 34.125 34.132813 34.132813zm0 0" fill="#54596e"/><path d="m166.523438 314.027344c-56.554688 0-102.402344-66.328125-102.402344-122.878906v-102.402344h204.800781v102.402344c0 56.550781-45.847656 122.878906-102.398437 122.878906zm0 0" fill="#ffd578"/><g fill="#54596e"><path d="m166.523438 314.027344v-6.828125c-12.792969-.003907-25.054688-3.734375-36.4375-10.328125-17.058594-9.867188-31.980469-26.265625-42.503907-45.296875-10.542969-19.015625-16.648437-40.605469-16.636719-60.425781v-95.578126h191.148438v95.578126c.046875 26.433593-10.898438 55.980468-28.539062 78.433593-8.800782 11.238281-19.230469 20.703125-30.597657 27.289063-11.382812 6.59375-23.644531 10.324218-36.433593 10.328125v13.652343c15.484374.003907 30.160156-4.554687 43.28125-12.164062 19.695312-11.4375 36.042968-29.648438 47.601562-50.5 11.539062-20.871094 18.328125-44.449219 18.34375-67.039062v-102.402344c0-1.796875-.726562-3.554688-1.996094-4.828125-1.273437-1.269531-3.03125-1.996094-4.828125-1.996094h-204.800781c-1.796875 0-3.554688.726563-4.828125 1.996094-1.269531 1.273437-1.996094 3.03125-1.996094 4.828125v102.402344c.042969 30.113281 12.023438 62.007812 31.445313 86.855468 9.726562 12.414063 21.363281 23.0625 34.496094 30.679688 13.121093 7.613281 27.796874 12.171875 43.285156 12.167968v-6.824218zm0 0"/><path d="m118.734375 160.425781c0 5.65625-4.582031 10.242188-10.238281 10.242188s-10.242188-4.585938-10.242188-10.242188 4.585938-10.238281 10.242188-10.238281 10.238281 4.582031 10.238281 10.238281zm0 0"/><path d="m234.789062 160.425781c0 5.65625-4.585937 10.242188-10.238281 10.242188-5.65625 0-10.242187-4.585938-10.242187-10.242188s4.585937-10.238281 10.242187-10.238281c5.652344 0 10.238281 4.582031 10.238281 10.238281zm0 0"/><path d="m173.347656 430.078125v-47.785156c0-3.769531-3.054687-6.828125-6.824218-6.828125-3.769532 0-6.828126 3.058594-6.828126 6.828125v47.785156c0 3.773437 3.058594 6.828125 6.828126 6.828125 3.769531 0 6.824218-3.054688 6.824218-6.828125"/></g><path d="m159.695312 238.933594h13.652344c7.542969 0 13.65625-6.113282 13.65625-13.652344 0-7.542969-6.113281-13.65625-13.65625-13.65625h-13.652344c-7.539062 0-13.652343 6.113281-13.652343 13.65625 0 7.539062 6.109375 13.652344 13.652343 13.652344" fill="#ff927d"/><path d="m139.214844 225.28125h54.613281c3.769531 0 6.828125-3.058594 6.828125-6.828125s-3.058594-6.828125-6.828125-6.828125h-54.613281c-3.769532 0-6.824219 3.058594-6.824219 6.828125s3.054687 6.828125 6.824219 6.828125" fill="#ff927d"/><path d="m88.574219 184.320312v6.828126h50.640625c1.796875 0 3.554687-.730469 4.828125-2 1.269531-1.273438 2-3.03125 2-4.828126v-34.460937c-.003907-14.902344-12.074219-26.972656-26.972657-26.976563h-68.601562c-1.796875 0-3.554688.726563-4.828125 1.996094-1.269531 1.273438-2 3.03125-2 4.828125v16.507813c.003906 24.820312 20.113281 44.929687 44.933594 44.933594v-13.65625c-8.660157-.003907-16.4375-3.488282-22.117188-9.160157-5.671875-5.679687-9.15625-13.457031-9.160156-22.117187v-9.683594h61.773437c7.355469.015625 13.308594 5.96875 13.320313 13.324219v27.636719h-43.8125v6.828124zm0 0" fill="#aaa"/><path d="m244.46875 184.320312v-6.828124h-43.816406v-27.636719c.015625-7.355469 5.96875-13.308594 13.320312-13.320313h61.773438v9.679688c-.003906 8.660156-3.488282 16.4375-9.160156 22.117187-5.679688 5.671875-13.457032 9.15625-22.117188 9.160157v13.65625c24.816406-.003907 44.925781-20.113282 44.933594-44.933594v-16.507813c0-1.800781-.730469-3.554687-2-4.828125-1.273438-1.273437-3.03125-2-4.828125-2h-68.597657c-14.898437.003906-26.96875 12.074219-26.972656 26.976563v34.464843c0 1.796876.726563 3.554688 2 4.824219 1.269532 1.273438 3.027344 2 4.824219 2h50.640625zm0 0" fill="#aaa"/><path d="m139.214844 157.011719h47.789062c3.769532 0 6.824219-3.054688 6.824219-6.824219s-3.054687-6.828125-6.824219-6.828125h-47.789062c-3.769532 0-6.824219 3.058594-6.824219 6.828125s3.054687 6.824219 6.824219 6.824219" fill="#aaa"/><path d="m368.007812 324.597656c35.914063-65.972656 44.671876-130.75 16.121094-164.203125-2.527344-4.183593-6.070312-7.832031-10.667968-10.339843l-18.367188-9.996094c-5.726562-3.117188-12.894531-1-16.015625 4.726562l-31.296875 57.515625c-3.121094 5.726563-1 12.894531 4.726562 16.011719l37.527344 20.429688c-3.546875 17.675781-11.914062 39.25-24.65625 62.65625-12.738281 23.40625-26.3125 42.144531-39.230468 54.722656l-37.527344-20.425782c-5.726563-3.117187-12.898438-1.003906-16.011719 4.726563l-31.308594 57.511719c-3.113281 5.730468-1 12.898437 4.726563 16.015625l18.359375 9.992187c4.609375 2.507813 9.589843 3.496094 14.480469 3.34375 43.59375 5.816406 93.234374-36.707031 129.140624-102.6875zm0 0" fill="#55a6ff"/><path d="m368.007812 324.597656 5.996094 3.265625c21.75-40.011719 33.917969-79.707031 33.957032-113.421875.003906-22.90625-5.722657-43.324218-18.640626-58.476562l-5.191406 4.433594 5.84375-3.527344c-3.070312-5.09375-7.484375-9.671875-13.246094-12.808594l-18.367187-9.996094c-2.808594-1.53125-5.886719-2.273437-8.894531-2.269531-6.589844-.011719-13 3.527344-16.378906 9.726563l-31.300782 57.515624c-1.53125 2.804688-2.273437 5.882813-2.269531 8.894532-.011719 6.59375 3.53125 13 9.726563 16.378906l37.53125 20.425781 3.261718-5.996093-6.695312-1.34375c-3.339844 16.71875-11.453125 37.789062-23.953125 60.734374-12.488281 22.960938-25.777344 41.214844-38 53.097657l4.761719 4.890625 3.261718-5.996094-37.527344-20.425781c-2.804687-1.53125-5.882812-2.273438-8.898437-2.269531-6.589844-.011719-13 3.527343-16.375 9.734374l-31.304687 57.507813c-1.527344 2.808594-2.269532 5.882813-2.269532 8.894531-.007812 6.589844 3.527344 12.996094 9.726563 16.378906l18.363281 9.996094c5.390625 2.9375 11.203125 4.191406 16.78125 4.183594l1.121094-.015625-.160156-6.824219-.902344 6.769532c2.96875.394531 5.960937.585937 8.957031.585937 23.105469-.042969 46.308594-11.328125 67.949219-30.042969 21.664062-18.769531 41.949218-45.1875 59.128906-76.734375l-5.992188-3.265625-5.996093-3.261718c-16.53125 30.390624-36.011719 55.582031-56.074219 72.9375-20.082031 17.40625-40.566406 26.757812-59.011719 26.714843-2.414062 0-4.796875-.15625-7.15625-.472656l-1.058593-.054687-.800782.011718c-3.585937-.007812-7.039062-.78125-10.261718-2.527344l-18.355469-9.992187c-1.671875-.90625-2.59375-2.609375-2.601563-4.390625 0-.804688.1875-1.59375.609375-2.371094l31.304688-57.511718c.902343-1.667969 2.597656-2.59375 4.378906-2.601563.804687 0 1.59375.1875 2.371094.609375l37.53125 20.425781c2.625 1.425781 5.882812.980469 8.023437-1.105469 13.617188-13.273437 27.472656-32.5 40.46875-56.351562 12.976563-23.859375 21.597656-45.9375 25.351563-64.578125.585937-2.933594-.804688-5.910156-3.433594-7.339844l-37.523437-20.425781c-1.675782-.90625-2.59375-2.605469-2.605469-4.382812 0-.800782.1875-1.589844.609375-2.367188l31.300781-57.519531c.90625-1.667969 2.601563-2.589844 4.382813-2.601563.804687.003906 1.589843.1875 2.371093.609375l18.367188 9.996094c3.433593 1.875 6.101562 4.59375 8.085937 7.871094l.652344.90625c10.203125 11.933593 15.363281 28.878906 15.371094 49.613281.035156 30.40625-11.300782 68.382812-32.292969 106.894531zm0 0" fill="#54596e"/></svg>