<svg height="436pt" viewBox="-20 0 436 436.90667" width="436pt" xmlns="http://www.w3.org/2000/svg"><path d="m328.132812 197.972656h-259.414062v-78.507812c0-62.207032 50.4375-112.636719 112.644531-112.636719h34.132813c62.203125 0 112.636718 50.429687 112.636718 112.636719z" fill="#54596e"/><path d="m328.132812 197.972656v-6.824218h-252.585937v-71.683594c.003906-29.238282 11.835937-55.648438 30.996094-74.816406 19.167969-19.164063 45.578125-30.992188 74.820312-30.996094h34.132813c29.238281.003906 55.648437 11.832031 74.816406 30.996094 19.160156 19.167968 30.988281 45.578124 30.996094 74.816406v78.507812h6.824218v-6.824218 6.824218h6.828126v-78.507812c-.007813-65.976563-53.488282-119.46093775-119.46875-119.464844h-34.132813c-65.980469.00390625-119.460937 53.488281-119.464844 119.464844v78.507812c0 1.796875.730469 3.554688 2 4.828125 1.273438 1.273438 3.03125 1.996094 4.828125 1.996094h259.414063c1.796875 0 3.554687-.722656 4.828125-1.996094 1.269531-1.273437 1.996094-3.03125 1.996094-4.828125z" fill="#54596e"/><path d="m210.878906 6.828125h-24.90625c-11.972656 0-21.679687 9.707031-21.679687 21.679687v108.027344h68.265625v-108.027344c0-11.972656-9.703125-21.679687-21.679688-21.679687zm0 0" fill="#8065c4"/><path d="m210.878906 6.828125v-6.828125h-24.90625c-15.746094.00390625-28.503906 12.761719-28.507812 28.507812v108.027344c0 1.796875.730468 3.554688 2.003906 4.824219 1.269531 1.273437 3.027344 2 4.824219 2h68.265625c1.796875 0 3.554687-.726563 4.828125-2 1.269531-1.269531 2-3.027344 2-4.824219v-108.027344c-.003907-15.75-12.761719-28.50390575-28.507813-28.507812v13.652344c8.203125.015625 14.839844 6.652344 14.855469 14.855468v101.199219h-54.613281v-101.199219c.015625-8.199218 6.652344-14.839843 14.851562-14.855468h24.90625zm0 0" fill="#54596e"/><path d="m266.691406 307.199219h-136.53125c-67.867187 0-122.878906 55.015625-122.878906 122.878906h382.292969c0-67.863281-55.011719-122.878906-122.882813-122.878906" fill="#8065c4"/><path d="m266.691406 307.199219v-6.824219h-136.53125c-71.640625 0-129.699218 58.0625-129.707031 129.703125 0 1.800781.730469 3.558594 2 4.828125 1.269531 1.273438 3.03125 2 4.828125 2h382.292969c1.792969 0 3.554687-.730469 4.824219-2 1.273437-1.269531 2-3.027344 2-4.828125-.003907-71.640625-58.066407-129.703125-129.707032-129.703125v13.652344c32.070313 0 61.039063 12.976562 82.0625 33.992187 21.015625 21.019531 33.992188 49.988281 33.992188 82.058594h6.828125v-6.824219h-382.292969v6.824219h6.824219c.003906-32.066406 12.980469-61.039063 33.992187-82.058594 21.023438-21.015625 49.992188-33.992187 82.0625-33.992187h136.53125z" fill="#54596e"/><path d="m314.480469 129.707031c0-15.082031-25.980469-27.308593-58.027344-27.308593s-58.027344 12.226562-58.027344 27.308593c0-15.082031-25.980469-27.308593-58.027343-27.308593-32.042969 0-58.023438 12.226562-58.023438 27.308593l-50.089844 167.765625c-2.347656 12.121094 6.941406 23.382813 19.289063 23.382813l146.851562 13.652343 146.855469-13.65625c12.347656 0 21.632812-11.257812 19.285156-23.378906z" fill="#8065c4"/><path d="m314.480469 129.707031h6.824219c.011718-5.792969-2.558594-11.058593-6.308594-15.191406-5.675782-6.246094-14.003906-10.738281-24.03125-13.957031-10.035156-3.1875-21.839844-4.980469-34.511719-4.984375-16.902344.019531-32.234375 3.164062-43.9375 8.648437-5.847656 2.761719-10.832031 6.113282-14.605469 10.292969-3.75 4.132813-6.320312 9.398437-6.308594 15.191406 0 1.796875.726563 3.554688 2 4.828125 1.269532 1.273438 3.027344 2 4.824219 2s3.558594-.730468 4.828125-2c1.273438-1.273437 2-3.03125 2-4.828125.007813-5.792969-2.5625-11.058593-6.3125-15.191406-5.675781-6.246094-14.003906-10.738281-24.03125-13.957031-10.03125-3.1875-21.839844-4.980469-34.511718-4.984375-16.898438.019531-32.230469 3.164062-43.9375 8.648437-5.847657 2.761719-10.832032 6.113282-14.605469 10.292969-3.746094 4.132813-6.316407 9.398437-6.308594 15.191406h6.828125l-6.542969-1.953125-50.085937 167.765625-.160156.652344c-.328126 1.699219-.492188 3.398437-.492188 5.074219.003906 7.15625 2.910156 13.765625 7.648438 18.566406 4.730468 4.8125 11.425781 7.875 18.828124 7.867188v-6.828126l-.628906 6.796876 146.851563 13.652343h1.261719l146.855468-13.652343-.632812-6.796876v6.828126c7.40625.007812 14.101562-3.054688 18.828125-7.867188 4.742187-4.796875 7.648437-11.40625 7.648437-18.566406 0-1.671875-.160156-3.371094-.488281-5.070313l-.160156-.65625-50.089844-167.765625-6.535156 1.953125h6.824219-6.824219l-6.542969 1.953125 50.089844 167.769532 6.539062-1.957032-6.703125 1.292969c.164063.847656.238281 1.675781.238281 2.480469.003907 3.429687-1.390624 6.621094-3.710937 8.976562-2.332031 2.347656-5.464844 3.796875-9.109375 3.804688l-.632812.027344-146.21875 13.597656-146.222657-13.597656-.632812-.027344c-3.648438-.007813-6.777344-1.457032-9.113281-3.804688-2.320313-2.355468-3.714844-5.546875-3.714844-8.976562 0-.804688.078125-1.628906.242187-2.472656l-6.699219-1.300782 6.539063 1.957032 50.089844-167.769532c.183593-.613281.285156-1.3125.285156-1.953125.011719-1.746093.6875-3.667969 2.808594-6.066406 3.132812-3.554687 9.523437-7.40625 18.015625-10.070313 8.488281-2.703124 19.011718-4.347656 30.375-4.34375 15.144531-.015624 28.824218 2.949219 38.121094 7.351563 4.652343 2.179687 8.167968 4.710937 10.265624 7.066406 2.125 2.398438 2.800782 4.316407 2.8125 6.0625 0 1.796875.726563 3.558594 2 4.832031 1.273438 1.269532 3.03125 1.996094 4.828126 1.996094 1.796874 0 3.554687-.730468 4.828124-1.996094 1.269532-1.277343 1.996094-3.03125 1.996094-4.832031.007813-1.746093.6875-3.664062 2.808594-6.0625 3.136719-3.554687 9.523438-7.40625 18.015625-10.070312 8.488281-2.707031 19.011719-4.347657 30.375-4.347657 15.148437-.015624 28.824219 2.949219 38.125 7.355469 4.652344 2.175781 8.167969 4.707031 10.265625 7.0625 2.125 2.398438 2.800781 4.320313 2.808594 6.066407 0 .640624.101562 1.339843.285156 1.953124z" fill="#54596e"/><path d="m120.28125 111.023438c-3.660156.679687-7.097656 1.539062-10.257812 2.546874-8.492188 2.664063-14.878907 6.515626-18.015626 10.070313-2.125 2.398437-2.796874 4.320313-2.808593 6.0625 0 .640625-.101563 1.339844-.285157 1.957031l-49.980468 167.398438c-.125.746094-.1875 1.472656-.1875 2.1875 0 3.425781 1.390625 6.621094 3.714844 8.976562 2.332031 2.347656 5.464843 3.792969 9.109374 3.800782l.636719.03125 21.824219 2.027343c-3.96875-4.40625-6.121094-11.351562-5.023438-18.609375l39.011719-167.765625c0-7.234375 4.660157-13.804687 12.261719-18.683593" fill="#7361aa"/><path d="m140.398438 102.398438c-32.042969 0-58.023438 12.226562-58.023438 27.308593l-50.089844 167.765625c-2.347656 12.125 6.941406 23.382813 19.289063 23.382813l146.851562 13.652343-114.398437-13.65625c-3.855469 0-7.335938-1.8125-9.996094-4.769531l-21.824219-2.027343-.632812-.027344c-3.648438-.007813-6.777344-1.457032-9.113281-3.804688-2.320313-2.355468-3.714844-5.546875-3.714844-8.976562 0-.710938.0625-1.441406.191406-2.183594l49.976562-167.402344c.183594-.613281.289063-1.3125.289063-1.953125.011719-1.746093.683594-3.667969 2.808594-6.066406 3.132812-3.554687 9.519531-7.40625 18.015625-10.070313 3.15625-1.003906 6.59375-1.863281 10.257812-2.546874 7.035156-4.515626 16.597656-7.585938 27.320313-8.390626-2.367188-.140624-4.761719-.234374-7.207031-.234374" fill="#54596e"/><path d="m276.574219 111.027344c7.601562 4.878906 12.257812 11.445312 12.257812 18.679687l39.011719 167.765625c1.097656 7.257813-1.054688 14.207032-5.023438 18.613282l21.828126-2.03125.632812-.027344c3.644531-.007813 6.777344-1.457032 9.109375-3.804688 2.320313-2.355468 3.714844-5.546875 3.710937-8.976562 0-.710938-.058593-1.441406-.183593-2.183594l-49.980469-167.402344 6.542969-1.953125-6.542969 1.953125c-.183594-.617187-.285156-1.3125-.285156-1.953125-.007813-1.746093-.683594-3.667969-2.808594-6.066406-2.097656-2.351563-5.613281-4.882813-10.265625-7.0625-4.917969-2.332031-11.0625-4.257813-18.003906-5.550781" fill="#7361aa"/><path d="m256.453125 102.398438c-2.445313 0-4.839844.09375-7.207031.234374 10.726562.804688 20.289062 3.875 27.328125 8.394532 6.941406 1.292968 13.085937 3.21875 18.003906 5.550781 4.652344 2.175781 8.167969 4.707031 10.265625 7.0625 2.125 2.398437 2.800781 4.320313 2.808594 6.066406 0 .640625.101562 1.339844.285156 1.953125l6.542969-1.953125-6.542969 1.953125 49.980469 167.402344c.125.742188.183593 1.472656.183593 2.183594.003907 3.429687-1.390624 6.621094-3.710937 8.976562-2.332031 2.347656-5.464844 3.796875-9.109375 3.804688l-.632812.027344-21.828126 2.03125c-2.660156 2.953124-6.136718 4.769531-9.992187 4.769531l-114.402344 13.652343 146.855469-13.65625c12.347656 0 21.632812-11.253906 19.285156-23.378906l-50.085937-167.765625c0-15.082031-25.980469-27.308593-58.027344-27.308593" fill="#54596e"/><path d="m198.425781 211.625-75.09375 95.082031h150.1875zm0 0" fill="#8065c4"/><path d="m198.425781 211.625-5.355469-4.230469-75.09375 95.082031c-1.621093 2.050782-1.925781 4.855469-.789062 7.207032 1.140625 2.351562 3.53125 3.851562 6.144531 3.851562h150.1875c2.613281 0 5.003907-1.5 6.144531-3.851562 1.136719-2.351563.832032-5.15625-.785156-7.207032l-75.09375-95.082031c-1.300781-1.644531-3.261718-2.59375-5.359375-2.59375-2.097656 0-4.058593.949219-5.355469 2.59375l5.355469 4.230469-5.355469 4.234375 66.359376 84.019531h-122.007813l66.363281-84.019531-5.359375-4.234375-5.355469 4.234375zm0 0" fill="#54596e"/><path d="m143.8125 232.105469h109.226562c3.769532 0 6.828126-3.054688 6.828126-6.824219s-3.058594-6.828125-6.828126-6.828125h-109.226562c-3.769531 0-6.824219 3.058594-6.824219 6.828125s3.054688 6.824219 6.824219 6.824219" fill="#54596e"/><path d="m216.347656 214.1875c0-9.902344-8.019531-29.867188-17.921875-29.867188-9.898437 0-17.917969 19.964844-17.917969 29.867188 0 9.898438 8.019532 17.917969 17.917969 17.917969 9.902344 0 17.921875-8.019531 17.921875-17.917969zm0 0" fill="#8065c4"/><g fill="#54596e"><path d="m216.347656 214.1875h6.824219c-.011719-3.378906-.628906-6.945312-1.65625-10.671875-1.5625-5.566406-4.03125-11.378906-7.5-16.304687-1.75-2.457032-3.761719-4.714844-6.285156-6.53125-2.492188-1.800782-5.6875-3.1875-9.304688-3.1875-2.394531-.003907-4.652343.617187-6.589843 1.5625-3.398438 1.671874-5.941407 4.179687-8.101563 6.941406-3.210937 4.171875-5.585937 9.101562-7.304687 14.019531-1.691407 4.941406-2.726563 9.753906-2.75 14.171875.003906 13.667969 11.078124 24.742188 24.746093 24.746094 13.671875-.003906 24.742188-11.074219 24.746094-24.746094h-13.652344c-.011719 6.128906-4.964843 11.082031-11.09375 11.09375-6.128906-.011719-11.082031-4.964844-11.09375-11.09375-.011719-1.574219.371094-4.214844 1.160157-7.015625 1.15625-4.226563 3.230468-8.921875 5.480468-12.0625 1.109375-1.574219 2.253906-2.738281 3.097656-3.332031.875-.613282 1.261719-.628906 1.355469-.628906l.636719.191406c.683594.308594 1.96875 1.328125 3.257812 3.019531 1.960938 2.507813 3.898438 6.335937 5.203126 10.128906 1.324218 3.769531 2.019531 7.621094 1.996093 9.699219zm0 0"/><path d="m96.027344 172.199219c0-18.253907 6.824218-49.320313 49.917968-49.320313 21.449219 0 38.828126 14.800782 38.828126 33.054688s-17.378907 33.050781-38.828126 33.050781c-21.445312 0-49.917968 1.476563-49.917968-16.785156zm0 0"/><path d="m300.828125 172.199219c0-18.253907-6.828125-49.320313-49.921875-49.320313-21.445312 0-38.828125 14.800782-38.828125 33.054688s17.382813 33.050781 38.828125 33.050781 49.921875 1.476563 49.921875-16.785156zm0 0"/><path d="m143.8125 273.066406v27.308594c0 3.769531 3.058594 6.824219 6.828125 6.824219s6.824219-3.054688 6.824219-6.824219v-27.308594c0-3.769531-3.054688-6.828125-6.824219-6.828125s-6.828125 3.058594-6.828125 6.828125"/><path d="m239.386719 273.066406v27.308594c0 3.769531 3.054687 6.824219 6.828125 6.824219 3.769531 0 6.824218-3.054688 6.824218-6.824219v-27.308594c0-3.769531-3.054687-6.828125-6.824218-6.828125-3.773438 0-6.828125 3.058594-6.828125 6.828125"/><path d="m164.292969 245.761719v54.613281c0 3.769531 3.058593 6.824219 6.828125 6.824219 3.769531 0 6.824218-3.054688 6.824218-6.824219v-54.613281c0-3.773438-3.054687-6.828125-6.824218-6.828125-3.769532 0-6.828125 3.054687-6.828125 6.828125"/><path d="m218.90625 245.761719v54.613281c0 3.769531 3.058594 6.824219 6.828125 6.824219s6.824219-3.054688 6.824219-6.824219v-54.613281c0-3.773438-3.054688-6.828125-6.824219-6.828125s-6.828125 3.054687-6.828125 6.828125"/><path d="m191.601562 232.105469v68.269531c0 3.769531 3.054688 6.824219 6.824219 6.824219s6.828125-3.054688 6.828125-6.824219v-68.269531c0-3.769531-3.058594-6.824219-6.828125-6.824219s-6.824219 3.054688-6.824219 6.824219"/><path d="m129.808594 305.042969-20.476563-61.441407c-1.195312-3.578124-5.058593-5.511718-8.636719-4.320312-3.578124 1.195312-5.511718 5.058594-4.320312 8.636719l20.480469 61.441406c1.195312 3.578125 5.058593 5.511719 8.636719 4.316406 3.578124-1.191406 5.507812-5.058593 4.316406-8.632812"/><path d="m279.996094 309.359375 20.480468-61.441406c1.191407-3.578125-.742187-7.441407-4.316406-8.636719-3.578125-1.191406-7.445312.742188-8.636718 4.320312l-20.480469 61.441407c-1.191407 3.574219.742187 7.441406 4.316406 8.632812 3.578125 1.191407 7.445313-.742187 8.636719-4.316406"/><path d="m171.121094 334.507812h54.613281v95.570313h-54.613281zm0 0"/><path d="m225.734375 334.507812v-6.828124h-54.613281c-1.796875 0-3.558594.726562-4.828125 2-1.269531 1.269531-2 3.027343-2 4.828124v95.570313c0 1.800781.730469 3.558594 2 4.828125 1.269531 1.273438 3.027343 2 4.828125 2h54.613281c1.796875 0 3.554687-.726562 4.824219-2 1.273437-1.269531 2-3.027344 2-4.828125v-95.570313c0-1.800781-.730469-3.554687-2-4.828124-1.269532-1.269532-3.027344-2-4.824219-2v6.828124h-6.828125v88.746094h-40.960938v-81.921875h47.789063v-6.824219h-6.828125zm0 0"/><path d="m280.347656 409.601562h40.960938c3.769531 0 6.824218-3.058593 6.824218-6.828124 0-3.769532-3.054687-6.828126-6.824218-6.828126h-40.960938c-3.769531 0-6.828125 3.058594-6.828125 6.828126 0 3.769531 3.058594 6.828124 6.828125 6.828124"/><path d="m280.347656 382.292969h40.960938c3.769531 0 6.824218-3.054688 6.824218-6.828125 0-3.769532-3.054687-6.824219-6.824218-6.824219h-40.960938c-3.769531 0-6.828125 3.054687-6.828125 6.824219 0 3.773437 3.058594 6.828125 6.828125 6.828125"/></g></svg>