<svg height="436pt" viewBox="0 -6 436.90667 436" width="436pt" xmlns="http://www.w3.org/2000/svg"><path d="m430.078125 416.878906h-423.25v-20.871094c0-35.394531 25.207031-65.773437 60-72.300781l158.453125-29.707031 145.667969 29.132812c34.378906 6.882813 59.128906 37.066407 59.128906 72.128907zm0 0" fill="#55a6ff"/><path d="m430.078125 416.878906v-6.824218h-416.425781v-14.046876c0-32.109374 22.871094-59.671874 54.433594-65.589843l157.152343-29.464844 144.375 28.875c31.1875 6.238281 53.644531 33.628906 53.640625 65.433594v21.617187h6.824219v-6.824218 6.824218h6.828125v-21.617187c0-38.316407-27.046875-71.304688-64.617188-78.824219l-145.671874-29.132812c-.84375-.167969-1.75-.175782-2.597657-.011719l-158.453125 29.703125c-38.015625 7.136718-65.566406 40.332031-65.566406 79.011718v20.871094c0 1.796875.730469 3.554688 2 4.828125 1.273438 1.269531 3.03125 2 4.828125 2h423.25c1.800781 0 3.558594-.726562 4.828125-2 1.273438-1.269531 2-3.027343 2-4.824219h-6.828125zm0 0" fill="#54596e"/><path d="m122.878906 354.652344v-81.132813h191.148438v81.132813" fill="#55a6ff"/><path d="m129.707031 354.652344v-74.308594h177.492188v74.308594c0 3.769531 3.058593 6.828125 6.828125 6.828125 3.769531 0 6.824218-3.058594 6.824218-6.828125v-81.132813c0-1.796875-.726562-3.554687-2-4.828125-1.269531-1.269531-3.027343-2-4.824218-2h-191.148438c-1.796875 0-3.554687.730469-4.824218 2-1.273438 1.273438-2 3.03125-2 4.828125v81.132813c0 3.769531 3.054687 6.828125 6.824218 6.828125 3.769532 0 6.828125-3.058594 6.828125-6.828125zm0 0" fill="#54596e"/><path d="m116.054688 55.066406h-34.132813l-30.355469-26.019531c-5.242187-4.492187-13.128906.527344-11.277344 7.179687l20.191407 72.613282c.550781 4.378906 4.273437 7.667968 8.6875 7.667968 3.578125 0 6.792969 2.179688 8.125 5.5l9.253906 23.132813c1.328125 3.320313 4.546875 5.5 8.128906 5.5h7.722657zm0 0" fill="#fff"/><path d="m116.054688 55.066406v-6.828125h-31.609376l-28.4375-24.375c-2.570312-2.230469-5.859374-3.378906-8.941406-3.359375-3.691406.011719-7.054687 1.457032-9.59375 3.851563-2.535156 2.378906-4.296875 5.933593-4.289062 9.902343 0 1.261719.179687 2.546876.527344 3.796876l20.191406 72.613281 6.578125-1.828125-6.773438.851562c.980469 7.792969 7.601563 13.636719 15.460938 13.640625.785156 0 1.496093.484375 1.789062 1.214844l9.25 23.128906c2.371094 5.910157 8.09375 9.789063 14.46875 9.789063h7.722657c3.402343 0 6.277343-2.492188 6.761718-5.859375l13.652344-95.574219c.277344-1.953125-.308594-3.945312-1.601562-5.4375-1.296876-1.492188-3.179688-2.355469-5.15625-2.355469v6.828125l-6.757813-.964844-12.816406 89.710938h-1.804688c-.789062 0-1.5-.480469-1.792969-1.210938l-9.25-23.128906c-2.371093-5.914062-8.09375-9.789062-14.464843-9.792968-.96875.003906-1.796875-.726563-1.914063-1.691407l-.199218-.976562-20.191407-72.613281-.027343-.144532h-.136719l.125.054688.011719-.054688h-.136719l.125.054688.105469-.09375.136718-.058594v-.164062l-.058594.152343.058594.011719v-.164062l-.058594.152343.113282.082031 30.355468 26.019532c1.242188 1.066406 2.808594 1.648437 4.445313 1.648437h34.132813v-6.828125l-6.757813-.964844zm0 0" fill="#54596e"/><path d="m319.902344 55.066406h34.132812l30.355469-26.019531c5.242187-4.492187 13.128906.527344 11.277344 7.179687l-20.191407 72.613282c-.550781 4.378906-4.273437 7.667968-8.6875 7.667968-3.582031 0-6.796874 2.179688-8.128906 5.5l-9.253906 23.132813c-1.324219 3.320313-4.546875 5.5-8.125 5.5h-7.726562zm0 0" fill="#fff"/><path d="m319.902344 55.066406v6.828125h34.132812c1.636719 0 3.203125-.582031 4.441406-1.644531l30.355469-26.019531.113281-.082031-.058593-.15625v.167968l.058593-.011718-.058593-.15625v.167968l.058593.015625.179688.132813.03125-.023438-.03125.011719v.011719l.035156-.027344-.035156.011719.121094-.039063h-.128906l.007812.039063.121094-.039063h-.128906l-.027344.148438-20.191406 72.601562-.195313.980469c-.121094.964844-.945313 1.691406-1.914063 1.691406-6.371093 0-12.097656 3.878907-14.464843 9.785157l-9.253907 23.140624c-.285156.722657-1 1.207032-1.789062 1.207032h-1.804688l-12.816406-89.714844-6.757812.972656v6.828125-6.828125l-6.757813.964844 13.652344 95.574219c.480469 3.363281 3.359375 5.859375 6.757813 5.859375h7.726562c6.371094 0 12.097656-3.875 14.464844-9.792969l9.253906-23.128906c.292969-.730469 1-1.210938 1.789062-1.210938 7.859376 0 14.480469-5.847656 15.460938-13.640625l-6.773438-.851562 6.574219 1.828125 20.195313-72.613281c.347656-1.257813.527344-2.539063.523437-3.800782.007813-3.96875-1.753906-7.523437-4.289062-9.902344-2.539063-2.390624-5.898438-3.835937-9.59375-3.847656-3.082031-.023437-6.371094 1.128906-8.941407 3.359375l-28.433593 24.375h-31.605469c-1.976562 0-3.863281.863281-5.160156 2.355469-1.292969 1.492188-1.878906 3.480469-1.601563 5.4375zm0 0" fill="#54596e"/><path d="m218.453125 7.28125c-67.863281 0-122.878906 51.957031-122.878906 116.050781v136.535157l122.878906 81.921874 122.882813-81.921874v-136.53125c0-64.097657-55.019532-116.054688-122.882813-116.054688" fill="#55a6ff"/><path d="m218.453125 7.28125v-6.828125c-35.6875 0-68.085937 13.667969-91.574219 35.855469-23.496094 22.167968-38.140625 52.996094-38.132812 87.023437v136.535157c0 2.28125 1.140625 4.414062 3.039062 5.679687l122.882813 81.917969c2.296875 1.53125 5.273437 1.53125 7.574219 0l122.878906-81.917969c1.898437-1.265625 3.039062-3.398437 3.039062-5.679687v-136.535157c.007813-34.027343-14.636718-64.855469-38.128906-87.023437-23.492188-22.1875-55.894531-35.855469-91.578125-35.855469v13.652344c32.175781 0 61.21875 12.316406 82.203125 32.128906 20.980469 19.835937 33.84375 47.035156 33.851562 77.097656v132.878907l-116.054687 77.371093-116.054687-77.371093v-132.878907c.007812-30.0625 12.875-57.265625 33.851562-77.097656 20.984375-19.8125 50.027344-32.128906 82.203125-32.128906zm0 0" fill="#54596e"/><path d="m251.683594 349.273438-66.324219-.152344c-9.484375 1.300781-18.71875-3.300782-22.003906-10.960938l-29.492188-44.832031c-8.445312-9.914063-12.226562-22.144531-10.613281-34.292969l3.511719-40.128906 91.691406 18.363281 91.691406-18.363281 3.519531 40.140625c1.605469 12.148437-2.171874 24.367187-10.601562 34.273437l-29.5625 44.972657c-3.257812 7.59375-12.386719 12.191406-21.816406 10.980469" fill="#ffd578"/><path d="m251.683594 349.273438.015625-6.828126-66.324219-.152343-.9375.058593c-.765625.105469-1.527344.15625-2.285156.15625-2.945313.003907-5.75-.792968-7.949219-2.09375-2.210937-1.308593-3.761719-3.054687-4.570313-4.945312l-.574218-1.066406-29.492188-44.832032-.507812-.675781c-6.191406-7.285156-9.339844-15.769531-9.347656-24.363281 0-1.53125.101562-3.066406.304687-4.601562l.035156-.304688 2.847657-32.527344 84.214843 16.863282c.890625.175781 1.789063.175781 2.679688 0l84.21875-16.863282 2.851562 32.546875.035157.300781c.203124 1.535157.304687 3.070313.304687 4.601563-.007813 8.589844-3.152344 17.066406-9.335937 24.351563l-.503907.671874-29.566406 44.976563-.566406 1.054687c-.808594 1.894532-2.363281 3.636719-4.574219 4.941407-2.199219 1.304687-5.007812 2.101562-7.953125 2.097656-.707031 0-1.421875-.046875-2.148437-.136719l-.851563-.054687-.019531 6.824219-.863282 6.769531c1.296876.167969 2.59375.25 3.878907.25 5.355469-.003907 10.492187-1.402344 14.890625-3.992188 4.386718-2.585937 8.078125-6.425781 10.183594-11.316406l-6.273438-2.691406 5.707031 3.75 29.5625-44.972657-5.707031-3.75 5.199219 4.421876c8.136719-9.539063 12.597656-21.21875 12.589843-33.199219 0-2.125-.136718-4.265625-.421874-6.398438l-6.765626.898438 6.800782-.59375-3.515625-40.140625c-.171875-1.945313-1.144531-3.699219-2.707031-4.871094-1.5625-1.167969-3.523438-1.613281-5.433594-1.226562l-90.351563 18.089843-90.347656-18.089843c-1.917969-.386719-3.875.058593-5.433594 1.226562-1.5625 1.171875-2.539062 2.925781-2.710937 4.871094l-3.511719 40.125 6.800781.597656-6.769531-.902344c-.285156 2.136719-.421875 4.273438-.421875 6.402344-.007812 11.988281 4.460938 23.671875 12.605469 33.214844l5.195312-4.421875-5.699219 3.75 29.492188 44.832031 5.703125-3.75-6.277344 2.6875c2.101563 4.898438 5.800781 8.742188 10.1875 11.324219 4.398438 2.589843 9.53125 3.988281 14.886719 3.992187 1.363281 0 2.742188-.09375 4.128906-.28125l-.921875-6.765625-.019531 6.828125 66.328125.152344.011719-6.820312-.863282 6.769531z" fill="#54596e"/><path d="m304.011719 227.097656-84.21875 16.863282c-.445313.089843-.890625.132812-1.339844.132812-.445313 0-.894531-.042969-1.339844-.132812l-84.214843-16.863282-2.019532 23.035156 87.574219 14.441407 87.578125-14.441407z" fill="#eec877"/><path d="m310.144531 218.90625-91.691406 18.363281-91.6875-18.363281-2.636719 30.113281 6.753906 1.113281 2.015626-23.035156 84.214843 16.863282c.445313.089843.894531.132812 1.339844.132812.449219 0 .894531-.042969 1.339844-.132812l84.21875-16.863282 2.015625 23.035156 6.753906-1.113281z" fill="#54596e"/><path d="m191.148438 266.691406h54.613281c3.769531 0 6.824219-3.054687 6.824219-6.824218 0-3.769532-3.054688-6.828126-6.824219-6.828126h-54.613281c-3.773438 0-6.828126 3.058594-6.828126 6.828126 0 3.769531 3.054688 6.824218 6.828126 6.824218" fill="#f99"/><g fill="#fff"><path d="m197.972656 198.425781-34.132812-34.132812h-25.601563l7.800781 11.699219c5.933594 8.902343 15.160157 15.082031 25.648438 17.171874zm0 0"/><path d="m240.640625 198.425781 34.132813-34.132812h25.601562l-7.800781 11.699219c-5.933594 8.902343-15.160157 15.082031-25.648438 17.171874zm0 0"/><path d="m183.730469 126.105469 25.503906-57.386719h18.433594l25.507812 57.386719 12.476563-5.542969-29.109375-65.496094h-36.179688l-29.109375 65.492188zm0 0"/><path d="m191.148438 102.851562h54.613281v-13.652343h-54.613281"/></g><path d="m191.148438 334.960938h54.613281v27.304687h-54.613281zm0 0" fill="#bfad88"/><path d="m245.761719 362.265625v-6.824219h-47.789063v-13.65625h40.960938v20.480469h6.828125v-6.824219 6.824219h6.824219v-27.304687c0-1.800782-.726563-3.558594-2-4.828126-1.269532-1.269531-3.027344-2-4.824219-2h-54.613281c-1.800782 0-3.558594.726563-4.828126 2-1.273437 1.269532-2 3.03125-2 4.828126v27.304687c0 1.796875.726563 3.554687 2 4.828125 1.269532 1.269531 3.027344 2 4.828126 2h54.613281c1.796875 0 3.554687-.730469 4.824219-2 1.273437-1.273438 2-3.03125 2-4.828125zm0 0" fill="#54596e"/><path d="m68.265625 314.480469h34.132813v102.398437h-34.132813zm0 0" fill="#bfad88"/><path d="m68.265625 416.878906v6.828125h34.132813c1.796874 0 3.554687-.726562 4.828124-2 1.269532-1.269531 2-3.03125 2-4.828125v-102.398437c0-1.800781-.730468-3.558594-2-4.828125-1.269531-1.269532-3.03125-2-4.828124-2h-34.132813c-1.796875 0-3.554687.726562-4.824219 2-1.273437 1.269531-2 3.03125-2 4.828125v102.398437c0 1.796875.726563 3.554688 2 4.828125 1.269532 1.269531 3.027344 2 4.824219 2v-6.828125h6.828125v-95.574218h20.480469v88.746093h-27.308594v6.828125h6.828125zm0 0" fill="#54596e"/><path d="m334.507812 314.480469h34.132813v102.398437h-34.132813zm0 0" fill="#bfad88"/><path d="m334.507812 416.878906v6.828125h34.132813c1.796875 0 3.554687-.726562 4.824219-2 1.273437-1.269531 2-3.027343 2-4.824219v-102.402343c0-1.796875-.726563-3.554688-2-4.828125-1.269532-1.269532-3.027344-2-4.824219-2h-34.132813c-1.796874 0-3.558593.726562-4.828124 2-1.269532 1.269531-2 3.03125-2 4.828125v102.398437c0 1.796875.730468 3.554688 2 4.828125 1.273437 1.269531 3.03125 1.996094 4.828124 1.996094v-6.824219h6.824219v-95.574218h20.480469v88.746093h-27.304688v6.828125h6.824219zm0 0" fill="#54596e"/><path d="m341.332031 96.027344h13.65625c3.769531 0 6.824219-3.058594 6.824219-6.828125s-3.054688-6.824219-6.824219-6.824219h-13.65625c-3.769531 0-6.824219 3.054688-6.824219 6.824219s3.054688 6.828125 6.824219 6.828125" fill="#54596e"/><path d="m81.921875 96.027344h13.652344c3.769531 0 6.824219-3.058594 6.824219-6.828125s-3.054688-6.824219-6.824219-6.824219h-13.652344c-3.773437 0-6.828125 3.054688-6.828125 6.824219s3.054688 6.828125 6.828125 6.828125" fill="#54596e"/></svg>