<svg height="436pt" viewBox="0 -31 436.98859 436" width="436pt" xmlns="http://www.w3.org/2000/svg"><path d="m351.570312 70.675781-333.019531 74.875-11.3125-50.328125c-2.023437-8.992187 3.625-17.917968 12.617188-19.9375l300.46875-67.554687c8.988281-2.019531 17.914062 3.632812 19.9375 12.621093zm0 0" fill="#8065c4"/><path d="m351.570312 70.675781-1.496093-6.660156-326.359375 73.375-9.816406-43.664063c-.167969-.742187-.242188-1.46875-.242188-2.183593 0-4.488281 3.113281-8.585938 7.695312-9.601563l300.46875-67.550781c.742188-.167969 1.464844-.246094 2.171876-.246094 4.488281 0 8.589843 3.117188 9.605468 7.703125l11.316406 50.324219 6.65625-1.496094-1.496093-6.660156 1.496093 6.660156 6.664063-1.496093-11.316406-50.324219c-2.46875-10.933594-12.144531-18.363281-22.925781-18.359375-1.714844 0-3.449219.1875-5.167969.574218l-300.46875 67.550782c-10.929688 2.46875-18.355469 12.144531-18.355469 22.921875 0 1.710937.1875 3.449219.578125 5.179687l11.3125 50.324219c.394531 1.753906 1.488281 3.308594 3.007813 4.273437 1.519531.960938 3.394531 1.285157 5.148437.890626l333.023437-74.875c1.753907-.394532 3.308594-1.492188 4.269532-3.007813.960937-1.519531 1.289062-3.394531.894531-5.148437zm0 0" fill="#54596e"/><path d="m76.996094 125.410156-39.960938 8.988282 8.003906-57.78125 39.960938-8.980469zm0 0" fill="#fff35f"/><path d="m156.921875 107.445312-39.960937 8.980469 8-57.773437 39.964843-8.988282zm0 0" fill="#fff35f"/><path d="m236.847656 89.472656-39.964844 8.984375 8.007813-57.773437 39.957031-8.984375zm0 0" fill="#fff35f"/><path d="m316.769531 71.503906-39.957031 8.988282 8-57.78125 39.960938-8.980469zm0 0" fill="#fff35f"/><path d="m356.15625 368.359375h-329.855469c-3.171875 0-5.738281-2.574219-5.738281-5.742187v-158.101563h341.332031v158.101563c0 3.167968-2.570312 5.742187-5.738281 5.742187" fill="#a1b7ff"/><path d="m356.15625 368.359375v-6.828125h-329.855469v1.085938h1.085938l-1.085938-1.085938v1.085938h1.085938v-151.273438h327.683593v151.273438h1.085938v-1.085938l-1.085938 1.085938h1.085938v-1.085938 13.652344c6.945312-.007813 12.558594-5.621094 12.566406-12.566406v-158.097657c0-1.800781-.730468-3.558593-2.003906-4.828125-1.269531-1.273437-3.027344-2.003906-4.824219-2.003906h-341.335937c-1.800782 0-3.554688.730469-4.828125 2.003906-1.269531 1.269532-1.996094 3.027344-1.996094 4.828125v158.097657c.003906 6.945312 5.617187 12.558593 12.566406 12.566406h329.851563v-6.824219" fill="#54596e"/><path d="m20.5625 143.078125h341.332031v61.441406h-341.332031zm0 0" fill="#8065c4"/><path d="m361.894531 204.519531v-6.828125h-334.507812v-47.789062h327.683593v54.617187h6.824219v-6.828125 6.828125h6.828125v-61.441406c0-1.800781-.730468-3.558594-2-4.828125-1.273437-1.273438-3.03125-2-4.828125-2h-341.332031c-1.796875 0-3.558594.726562-4.828125 2-1.269531 1.269531-2 3.027344-2 4.828125v61.441406c0 1.796875.730469 3.554688 2 4.824219 1.273437 1.273438 3.03125 2 4.828125 2h341.332031c1.796875 0 3.554688-.726562 4.828125-2 1.269532-1.269531 2-3.027344 2-4.824219zm0 0" fill="#54596e"/><path d="m355.070312 334.222656h-327.683593v27.308594h327.683593z" fill="#99adf0"/><path d="m361.894531 334.222656h-6.824219v27.308594h-327.683593v-27.308594h-6.824219v34.136719h341.332031z" fill="#54596e"/><path d="m286.800781 108.945312c-79.175781 0-143.359375 64.183594-143.359375 143.359376v28.472656c0 18.207031 14.761719 32.96875 32.964844 32.96875h35.300781v39.390625c0 8.40625 6.816407 15.222656 15.222657 15.222656h119.746093c8.40625 0 15.21875-6.816406 15.21875-15.222656v-39.390625h35.300781c18.207032 0 32.964844-14.761719 32.964844-32.96875v-28.472656c0-79.175782-64.183594-143.359376-143.359375-143.359376zm0 0" fill="#d8d8d8"/><g fill="#54596e"><path d="m286.800781 108.945312v-6.828124c-82.949219.003906-150.179687 67.238281-150.183593 150.1875v28.472656c.003906 21.980468 17.8125 39.789062 39.789062 39.792968h28.476562v32.570313c.003907 12.175781 9.867188 22.042969 22.046876 22.042969h119.746093c12.179688-.003906 22.042969-9.867188 22.046875-22.042969v-32.570313h28.472656c21.980469-.003906 39.789063-17.8125 39.792969-39.792968v-28.472656c-.003906-82.949219-67.238281-150.183594-150.1875-150.1875v13.652343c37.726563.003907 71.816407 15.273438 96.546875 39.992188 24.714844 24.730469 39.984375 58.820312 39.988282 96.542969v28.472656c-.003907 7.242187-2.914063 13.730468-7.65625 18.484375-4.75 4.742187-11.242188 7.652343-18.484376 7.65625h-35.300781c-1.796875 0-3.554687.726562-4.824219 2-1.273437 1.269531-2 3.027343-2 4.828125v39.390625c-.011718 4.632812-3.761718 8.386719-8.394531 8.394531h-119.746093c-4.636719-.007812-8.386719-3.761719-8.394532-8.394531v-39.390625c0-1.800782-.730468-3.558594-2-4.828125-1.273437-1.273438-3.03125-2-4.828125-2h-35.300781c-7.238281-.003907-13.730469-2.914063-18.480469-7.65625-4.742187-4.753907-7.652343-11.242188-7.65625-18.484375v-28.472656c.003907-37.722657 15.269531-71.816407 39.988281-96.542969 24.730469-24.71875 58.816407-39.988281 96.542969-39.992188zm0 0"/><path d="m396.027344 255.265625c0-22.4375-29.789063-52.230469-52.222656-52.230469-22.433594 0-40.621094 18.1875-40.621094 40.621094s18.1875 40.621094 40.621094 40.621094c22.433593 0 52.222656-6.578125 52.222656-29.011719zm0 0"/><path d="m173.476562 255.265625c0-22.4375 29.789063-52.230469 52.226563-52.230469 22.433594 0 40.617187 18.1875 40.617187 40.621094s-18.183593 40.621094-40.617187 40.621094c-22.4375 0-52.226563-6.578125-52.226563-29.011719zm0 0"/><path d="m239.015625 347.878906v20.480469c0 3.769531 3.054687 6.824219 6.828125 6.824219 3.769531 0 6.824219-3.054688 6.824219-6.824219v-20.480469c0-3.769531-3.054688-6.828125-6.824219-6.828125-3.773438 0-6.828125 3.054688-6.828125 6.828125"/><path d="m266.320312 347.878906v20.480469c0 3.769531 3.058594 6.824219 6.828126 6.824219 3.769531 0 6.828124-3.054688 6.828124-6.824219v-20.480469c0-3.769531-3.058593-6.828125-6.828124-6.828125-3.769532 0-6.828126 3.054688-6.828126 6.828125"/><path d="m293.628906 347.878906v20.480469c0 3.769531 3.054688 6.824219 6.828125 6.824219 3.769531 0 6.824219-3.054688 6.824219-6.824219v-20.480469c0-3.769531-3.054688-6.828125-6.824219-6.828125-3.773437 0-6.828125 3.054688-6.828125 6.828125"/><path d="m320.933594 347.878906v20.480469c0 3.769531 3.058594 6.824219 6.828125 6.824219s6.828125-3.054688 6.828125-6.824219v-20.480469c0-3.769531-3.058594-6.828125-6.828125-6.828125s-6.828125 3.054688-6.828125 6.828125"/><path d="m283.265625 278.089844-19.367187 29.046875c-1.886719 2.828125.140624 6.609375 3.535156 6.609375h38.730468c3.394532 0 5.417969-3.78125 3.535157-6.609375l-19.363281-29.046875c-1.679688-2.523438-5.386719-2.523438-7.070313 0zm0 0"/></g></svg>