<svg height="395pt" viewBox="-13 0 395 395.94667" width="395pt" xmlns="http://www.w3.org/2000/svg"><path d="m68.738281 6.828125h238.933594v382.292969h-238.933594zm0 0" fill="#8065c4"/><path d="m307.671875 389.121094v-6.828125h-232.105469v-368.640625h225.28125v375.46875h6.824219v-6.828125 6.828125h6.828125v-382.292969c0-1.800781-.730469-3.558594-2-4.828125s-3.03125-2-4.828125-2h-238.933594c-1.796875 0-3.554687.726562-4.824219 2-1.273437 1.269531-2 3.03125-2 4.828125v382.292969c0 1.796875.726563 3.554687 2 4.824218 1.269532 1.273438 3.027344 2 4.824219 2h238.933594c1.796875 0 3.554687-.726562 4.828125-1.996093 1.269531-1.273438 2-3.03125 2-4.828125zm0 0" fill="#54596e"/><path d="m7.300781 6.828125v382.292969h61.4375v-382.292969zm40.960938 341.332031h-20.480469v-54.613281h20.480469zm0-81.921875h-20.480469v-54.613281h20.480469zm0-81.917969h-20.480469v-54.613281h20.480469zm0-81.921874h-20.480469v-54.613282h20.480469zm0 0" fill="#a1b7ff"/><path d="m7.300781 6.828125h-6.828125v382.292969c0 1.796875.730469 3.554687 2 4.824218 1.273438 1.273438 3.03125 2 4.828125 2h61.4375c1.800781 0 3.558594-.726562 4.828125-1.996093 1.273438-1.273438 2-3.03125 2-4.828125v-382.292969c0-1.800781-.726562-3.558594-2-4.828125-1.269531-1.269531-3.027344-2-4.828125-2h-61.4375c-1.796875 0-3.558593.726562-4.828125 2-1.269531 1.269531-2 3.03125-2 4.828125h6.828125v6.824219h54.613281v368.640625h-47.789062v-375.464844h-6.824219v6.824219zm40.960938 341.332031v-6.828125h-13.65625v-40.960937h6.828125v47.789062h6.828125v-6.828125 6.828125h6.824219v-54.613281c0-1.800781-.726563-3.558594-2-4.828125-1.269532-1.269531-3.027344-2-4.824219-2h-20.480469c-1.796875 0-3.558594.726562-4.828125 2-1.269531 1.269531-2 3.03125-2 4.828125v54.613281c0 1.796875.730469 3.554688 2 4.828125 1.273437 1.269531 3.03125 2 4.828125 2h20.480469c1.796875 0 3.554687-.730469 4.824219-2 1.273437-1.273437 2-3.03125 2-4.828125zm0-81.921875v-6.824219h-13.65625v-40.960937h6.828125v47.785156h6.828125v-6.824219 6.824219h6.824219v-54.613281c0-1.796875-.726563-3.554688-2-4.828125-1.269532-1.269531-3.027344-1.996094-4.824219-1.996094h-20.480469c-1.796875 0-3.558594.726563-4.828125 1.996094-1.269531 1.273437-2 3.03125-2 4.828125v54.613281c0 1.800781.730469 3.558594 2 4.828125 1.273437 1.273438 3.03125 2 4.828125 2h20.480469c1.796875 0 3.554687-.726562 4.824219-2 1.273437-1.269531 2-3.027344 2-4.828125zm0-81.917969v-6.828124h-13.65625v-40.960938h6.828125v47.789062h6.828125v-6.828124 6.828124h6.824219v-54.613281c0-1.800781-.726563-3.558593-2-4.828125-1.269532-1.269531-3.027344-2-4.824219-2h-20.480469c-1.796875 0-3.558594.726563-4.828125 2-1.269531 1.269532-2 3.03125-2 4.828125v54.613281c0 1.796876.730469 3.554688 2 4.824219 1.273437 1.273438 3.03125 2.003907 4.828125 2.003907h20.480469c1.796875 0 3.554687-.730469 4.824219-2 1.273437-1.273438 2-3.03125 2-4.828126zm0-81.921874v-6.824219h-13.65625v-40.960938h6.828125v47.785157h6.828125v-6.824219 6.824219h6.824219v-54.613282c0-1.796875-.726563-3.554687-2-4.828125-1.269532-1.269531-3.027344-1.996093-4.824219-1.996093h-20.480469c-1.796875 0-3.558594.726562-4.828125 1.996093-1.269531 1.273438-2 3.03125-2 4.828125v54.613282c0 1.796874.730469 3.554687 2 4.828124 1.273437 1.269532 3.03125 2 4.828125 2h20.480469c1.796875 0 3.554687-.726562 4.824219-2 1.273437-1.269531 2-3.03125 2-4.828124zm0 0" fill="#54596e"/><path d="m300.847656 6.828125v382.292969h61.4375v-382.292969zm40.960938 341.332031h-20.480469v-54.613281h20.480469zm0-81.921875h-20.480469v-54.613281h20.480469zm0-81.917969h-20.480469v-54.613281h20.480469zm0-81.921874h-20.480469v-54.613282h20.480469zm0 0" fill="#a1b7ff"/><path d="m300.847656 6.828125h-6.828125v382.292969c0 1.796875.730469 3.554687 2 4.824218 1.273438 1.273438 3.03125 2 4.828125 2h61.4375c1.796875 0 3.554688-.726562 4.828125-2 1.269531-1.269531 2-3.027343 2-4.824218v-382.292969c0-1.800781-.730469-3.558594-2-4.828125s-3.03125-2-4.828125-2h-61.4375c-1.796875 0-3.558594.726562-4.828125 2-1.269531 1.269531-2 3.03125-2 4.828125h6.828125v6.824219h54.613282v368.640625h-47.789063v-375.464844h-6.824219v6.824219zm40.960938 341.332031v-6.828125h-13.65625v-40.960937h6.828125v47.789062h6.828125v-6.828125 6.828125h6.824218v-54.613281c0-1.800781-.726562-3.558594-2-4.828125-1.269531-1.269531-3.027343-2-4.824218-2h-20.480469c-1.796875 0-3.558594.726562-4.828125 2-1.269531 1.269531-2 3.03125-2 4.828125v54.613281c0 1.796875.730469 3.554688 2 4.828125 1.273438 1.269531 3.03125 1.996094 4.828125 1.996094h20.480469c1.796875 0 3.554687-.726563 4.824218-1.996094 1.273438-1.273437 2-3.03125 2-4.828125zm0-81.921875v-6.824219h-13.65625v-40.960937h6.828125v47.785156h6.828125v-6.824219 6.824219h6.824218v-54.613281c0-1.796875-.726562-3.554688-2-4.828125-1.269531-1.269531-3.027343-1.996094-4.824218-1.996094h-20.480469c-1.796875 0-3.558594.726563-4.828125 1.996094-1.269531 1.273437-2 3.03125-2 4.828125v54.613281c0 1.800781.730469 3.558594 2 4.828125 1.273438 1.273438 3.03125 2 4.828125 2h20.480469c1.796875 0 3.554687-.726562 4.824218-2 1.273438-1.269531 2-3.027344 2-4.828125zm0-81.917969v-6.828124h-13.65625v-40.960938h6.828125v47.789062h6.828125v-6.828124 6.828124h6.824218v-54.613281c0-1.800781-.726562-3.558593-2-4.828125-1.269531-1.269531-3.027343-2-4.824218-2h-20.480469c-1.796875 0-3.558594.726563-4.828125 2-1.269531 1.269532-2 3.03125-2 4.828125v54.613281c0 1.796876.730469 3.554688 2 4.824219 1.273438 1.273438 3.03125 2 4.828125 2h20.480469c1.796875 0 3.554687-.726562 4.824218-2 1.273438-1.269531 2-3.027343 2-4.824219zm0-81.921874v-6.824219h-13.65625v-40.960938h6.828125v47.785157h6.828125v-6.824219 6.824219h6.824218v-54.613282c0-1.796875-.726562-3.554687-2-4.828125-1.269531-1.269531-3.027343-1.996093-4.824218-1.996093h-20.480469c-1.796875 0-3.558594.726562-4.828125 1.996093-1.269531 1.273438-2 3.03125-2 4.828125v54.613282c0 1.796874.730469 3.554687 2 4.828124 1.273438 1.269532 3.03125 2 4.828125 2h20.480469c1.796875 0 3.554687-.726562 4.824218-2 1.273438-1.269531 2-3.03125 2-4.828124zm0 0" fill="#54596e"/><path d="m259.886719 88.746094h-143.359375c-7.539063 0-13.652344-6.113282-13.652344-13.652344v-68.265625h170.664062v68.265625c0 7.539062-6.113281 13.652344-13.652343 13.652344zm0 0" fill="#ffb8f2"/><path d="m259.886719 88.746094v-6.824219h-143.359375c-3.765625-.007813-6.820313-3.0625-6.828125-6.828125v-61.441406h157.015625v61.441406c-.007813 3.765625-3.0625 6.820312-6.828125 6.828125v13.652344c11.3125-.003907 20.476562-9.167969 20.480469-20.480469v-68.265625c0-1.800781-.730469-3.558594-2-4.828125-1.269532-1.269531-3.03125-2-4.828126-2h-170.664062c-1.796875 0-3.558594.726562-4.828125 2-1.269531 1.269531-2 3.03125-2 4.828125v68.265625c.003906 11.3125 9.167969 20.472656 20.480469 20.480469h143.359375zm0 0" fill="#54596e"/><path d="m259.886719 307.199219h-143.359375c-7.539063 0-13.652344 6.113281-13.652344 13.652343v68.269532h170.664062v-68.269532c0-7.539062-6.113281-13.652343-13.652343-13.652343zm0 0" fill="#d8d8d8"/><path d="m259.886719 307.199219v-6.824219h-143.359375c-11.3125 0-20.476563 9.164062-20.480469 20.476562v68.269532c0 1.796875.730469 3.554687 2 4.824218 1.269531 1.273438 3.03125 2 4.828125 2h170.664062c1.796876 0 3.554688-.726562 4.828126-1.996093 1.269531-1.273438 2-3.03125 2-4.828125v-68.265625c-.003907-11.3125-9.167969-20.476563-20.480469-20.480469v13.652344c3.765625.007812 6.820312 3.058594 6.828125 6.824218v61.441407h-157.015625v-61.441407c.007812-3.765624 3.0625-6.816406 6.828125-6.824218h143.359375zm0 0" fill="#54596e"/><path d="m259.886719 279.894531h-143.359375c-7.539063 0-13.652344-6.113281-13.652344-13.65625v-136.53125c0-7.539062 6.113281-13.652343 13.652344-13.652343h143.359375c7.539062 0 13.652343 6.113281 13.652343 13.652343v136.53125c0 7.542969-6.113281 13.65625-13.652343 13.65625zm0 0" fill="#fff35f"/><g fill="#54596e"><path d="m259.886719 279.894531v-6.828125h-143.359375c-3.765625-.007812-6.820313-3.058594-6.828125-6.828125v-136.53125c.007812-3.765625 3.0625-6.820312 6.828125-6.828125h143.359375c3.765625.007813 6.820312 3.0625 6.828125 6.828125v136.53125c-.007813 3.769531-3.0625 6.820313-6.828125 6.828125v13.652344c11.3125-.003906 20.476562-9.164062 20.480469-20.480469v-136.53125c-.003907-11.3125-9.167969-20.476562-20.480469-20.480469h-143.359375c-11.3125.003907-20.476563 9.167969-20.480469 20.480469v136.53125c.003906 11.316407 9.167969 20.476563 20.480469 20.480469h143.359375zm0 0"/><path d="m157.488281 180.90625c0 5.65625-4.585937 10.242188-10.242187 10.242188s-10.238282-4.585938-10.238282-10.242188 4.582032-10.238281 10.238282-10.238281 10.242187 4.582031 10.242187 10.238281zm0 0"/><path d="m239.40625 180.90625c0 5.65625-4.585938 10.242188-10.238281 10.242188-5.65625 0-10.242188-4.585938-10.242188-10.242188s4.585938-10.238281 10.242188-10.238281c5.652343 0 10.238281 4.582031 10.238281 10.238281zm0 0"/><path d="m157.488281 358.398438c0 5.65625-4.585937 10.242187-10.242187 10.242187s-10.238282-4.585937-10.238282-10.242187c0-5.652344 4.582032-10.238282 10.238282-10.238282s10.242187 4.585938 10.242187 10.238282zm0 0"/><path d="m239.40625 358.398438c0 5.65625-4.585938 10.242187-10.238281 10.242187-5.65625 0-10.242188-4.585937-10.242188-10.242187 0-5.652344 4.585938-10.238282 10.242188-10.238282 5.652343 0 10.238281 4.585938 10.238281 10.238282zm0 0"/><path d="m160.878906 219.71875c6.875 7.578125 16.777344 12.394531 27.726563 12.386719 11.488281.007812 21.816406-5.292969 28.71875-13.527344 2.425781-2.882813 2.054687-7.191406-.832031-9.617187-2.886719-2.425782-7.191407-2.054688-9.617188.832031-4.527344 5.367187-11.015625 8.65625-18.269531 8.660156-6.921875-.003906-13.125-2.988281-17.625-7.921875-2.535157-2.789062-6.851563-2.992188-9.644531-.457031-2.789063 2.539062-2.992188 6.855469-.457032 9.644531zm0 0"/><path d="m160.878906 42.226562c6.875 7.578126 16.777344 12.390626 27.726563 12.386719 11.488281.003907 21.816406-5.292969 28.71875-13.527343 2.425781-2.886719 2.054687-7.191407-.832031-9.617188-2.886719-2.425781-7.191407-2.054688-9.617188.832031-4.527344 5.367188-11.015625 8.652344-18.269531 8.660157-6.921875-.007813-13.125-2.992188-17.625-7.921876-2.535157-2.789062-6.851563-2.992187-9.644531-.457031-2.789063 2.539063-2.992188 6.855469-.457032 9.644531zm0 0"/></g></svg>