<svg height="436pt" viewBox="-20 0 436 436.90667" width="436pt" xmlns="http://www.w3.org/2000/svg"><path d="m266.691406 307.199219h-136.53125c-67.867187 0-122.878906 55.011719-122.878906 122.878906h382.292969c0-67.867187-55.011719-122.878906-122.882813-122.878906zm0 0" fill="#ededed"/><path d="m266.691406 307.199219v-6.824219h-136.53125c-71.640625 0-129.703125 58.0625-129.707031 129.703125 0 1.800781.730469 3.558594 2 4.828125 1.273437 1.273438 3.03125 2 4.828125 2h382.292969c1.796875 0 3.554687-.726562 4.824219-2 1.273437-1.269531 2-3.027344 2-4.824219 0-71.640625-58.066407-129.703125-129.707032-129.707031v13.652344c32.070313.003906 61.042969 12.980468 82.0625 33.992187 21.011719 21.019531 33.988282 49.988281 33.992188 82.058594h6.828125v-6.824219h-382.292969v6.824219h6.824219c.003906-32.066406 12.980469-61.039063 33.992187-82.0625 21.023438-21.011719 49.992188-33.984375 82.0625-33.988281h136.53125zm0 0" fill="#54596e"/><path d="m143.8125 320.851562h109.226562v109.226563h-109.226562zm0 0" fill="#fff"/><path d="m253.039062 320.851562v-6.824218h-109.226562c-1.796875 0-3.554688.726562-4.828125 1.996094-1.269531 1.273437-1.996094 3.03125-1.996094 4.828124v109.226563c0 1.800781.726563 3.558594 1.996094 4.828125 1.273437 1.273438 3.03125 2 4.828125 2h109.226562c1.796876 0 3.554688-.726562 4.828126-2 1.269531-1.269531 2-3.027344 2-4.828125v-109.226563c0-1.796874-.730469-3.554687-2-4.828124-1.269532-1.269532-3.03125-1.996094-4.828126-1.996094v6.824218h-6.824218v102.402344h-95.574219v-95.574218h102.398437v-6.828126h-6.824218zm0 0" fill="#54596e"/><path d="m225.734375 327.679688c0 15.082031-12.226563 27.308593-27.308594 27.308593s-27.304687-12.226562-27.304687-27.308593c0-15.082032 12.222656-27.304688 27.304687-27.304688s27.308594 12.222656 27.308594 27.304688zm0 0" fill="#fff"/><path d="m225.734375 327.679688h6.824219c-.003906-18.851563-15.277344-34.128907-34.132813-34.132813-18.851562.003906-34.128906 15.28125-34.132812 34.132813.003906 18.855468 15.28125 34.128906 34.132812 34.132812 18.855469-.003906 34.128907-15.277344 34.132813-34.132812h-13.652344c-.019531 11.308593-9.171875 20.460937-20.480469 20.480468-11.304687-.019531-20.457031-9.171875-20.480469-20.480468.023438-11.304688 9.175782-20.460938 20.480469-20.480469 11.308594.019531 20.460938 9.175781 20.480469 20.480469zm0 0" fill="#54596e"/><path d="m254.289062 346.507812-44.628906-13.328124c-7.351562-2.199219-15.109375-2.199219-22.464844 0l-44.625 13.328124c-18.589843 5.550782-38.269531-3.214843-48.035156-21.410156l-45.679687-85.042968c-10.0625-18.734376-7.015625-42.589844 7.351562-57.574219l142.21875-148.347657 142.222657 148.347657c14.363281 14.984375 17.410156 38.839843 7.351562 57.574219l-45.679688 85.042968c-9.765624 18.195313-29.445312 26.960938-48.03125 21.410156zm0 0" fill="#fff"/><path d="m254.289062 346.507812 1.953126-6.542968-44.625-13.328125c-4.308594-1.289063-8.75-1.933594-13.1875-1.933594-4.441407 0-8.882813.644531-13.191407 1.933594l-44.625 13.324219c-3.097656.925781-6.207031 1.367187-9.285156 1.367187-12.207031-.003906-24.054687-6.976563-30.777344-19.460937l-45.679687-85.046876c-3.410156-6.34375-5.085938-13.421874-5.085938-20.464843-.003906-10.832031 3.972656-21.472657 11.351563-29.152344l137.289062-143.207031 137.292969 143.207031c7.378906 7.683594 11.355469 18.324219 11.351562 29.15625 0 7.042969-1.675781 14.117187-5.085937 20.464844l-45.679687 85.046875c-6.726563 12.484375-18.574219 19.453125-30.78125 19.460937-3.074219 0-6.1875-.441406-9.285157-1.367187l-1.949219 6.542968-1.953124 6.539063c4.363281 1.304687 8.800781 1.9375 13.191406 1.9375 17.492187.007813 33.921875-10.058594 42.808594-26.65625l45.679687-85.042969c4.523437-8.433594 6.707031-17.730468 6.707031-26.925781-.003906-14.117187-5.128906-28.132813-15.148437-38.601563l-142.21875-148.347656c-1.28125-1.335937-3.078125-2.101562-4.929688-2.101562-1.847656 0-3.644531.765625-4.925781 2.097656l-142.21875 148.347656c-10.023438 10.46875-15.148438 24.484375-15.148438 38.605469 0 9.199219 2.179688 18.492187 6.707032 26.921875l45.679687 85.050781c8.882813 16.59375 25.3125 26.660157 42.808594 26.652344 4.386719 0 8.828125-.632813 13.195313-1.9375l44.625-13.328125c3.046874-.910156 6.164062-1.363281 9.28125-1.363281 3.117187 0 6.230468.453125 9.277343 1.363281l44.628907 13.328125zm0 0" fill="#54596e"/><path d="m232.765625 286.652344-27.433594-8.191406c-4.519531-1.355469-9.292969-1.355469-13.8125 0l-27.433593 8.191406c-11.425782 3.414062-23.519532-1.980469-29.527344-13.160156l-28.078125-52.277344c-6.1875-11.523438-4.3125-26.183594 4.519531-35.394532l87.425781-91.195312 87.429688 91.195312c8.832031 9.210938 10.703125 23.871094 4.519531 35.394532l-28.082031 52.277344c-6.007813 11.179687-18.097657 16.574218-29.527344 13.160156zm0 0" fill="#ededed"/><path d="m232.765625 286.652344 1.953125-6.539063-27.429688-8.195312c-2.890624-.863281-5.878906-1.300781-8.859374-1.300781-2.988282 0-5.976563.4375-8.867188 1.300781l-27.429688 8.195312c-1.65625.492188-3.3125.726563-4.949218.726563-6.484375-.007813-12.890625-3.699219-16.609375-10.578125l-28.078125-52.28125c-1.882813-3.5-2.816406-7.421875-2.816406-11.335938-.003907-6.027343 2.21875-11.914062 6.246093-16.101562l82.5-86.050781 82.5 86.050781c4.027344 4.1875 6.25 10.074219 6.246094 16.101562 0 3.914063-.933594 7.835938-2.816406 11.339844l-28.078125 52.277344c-3.71875 6.882812-10.121094 10.570312-16.605469 10.578125-1.636719 0-3.292969-.234375-4.953125-.730469l-1.953125 6.542969-1.949219 6.542968c2.921875.871094 5.90625 1.296876 8.855469 1.296876 11.777344.007812 22.753906-6.777344 28.632813-17.769532l28.082031-52.277344c2.996093-5.589843 4.4375-11.730468 4.4375-17.800781-.003907-9.3125-3.375-18.578125-10.042969-25.550781l-87.429688-91.195312c-1.28125-1.335938-3.078124-2.097657-4.925781-2.097657-1.851562 0-3.648437.765625-4.929687 2.097657l-87.425782 91.195312c-6.667968 6.96875-10.039062 16.234375-10.042968 25.550781 0 6.070313 1.441406 12.210938 4.4375 17.796875l28.082031 52.28125c5.878906 10.988282 16.855469 17.777344 28.632813 17.769532 2.945312 0 5.929687-.425782 8.859374-1.296876l27.433594-8.195312c1.632813-.488281 3.292969-.730469 4.953125-.730469 1.660157 0 3.320313.242188 4.945313.726563l27.441406 8.199218zm0 0" fill="#54596e"/><path d="m266.691406 109.226562c-30.429687 0-55.632812 14.765626-60.519531 34.132813h-15.492187c-4.886719-19.367187-30.085938-34.132813-60.519532-34.132813-33.933594 0-61.441406 18.339844-61.441406 40.960938s34.335938 40.960938 68.269531 40.960938c17.519531 0 31.476563-4.902344 40.898438-12.75 5.8125-4.839844 12.972656-7.730469 20.539062-7.730469 7.566407 0 14.726563 2.890625 20.539063 7.730469 9.421875 7.847656 23.382812 12.75 40.902344 12.75 33.933593 0 68.265624-18.339844 68.265624-40.960938s-27.503906-40.960938-61.441406-40.960938zm0 0" fill="#54596e"/><path d="m266.691406 109.226562v-6.828124c-16.320312.011718-31.324218 3.929687-43.222656 10.703124-11.84375 6.761719-20.839844 16.542969-23.914062 28.585938l6.617187 1.671875v-6.824219h-15.492187v6.824219l6.617187-1.671875c-3.074219-12.042969-12.070313-21.824219-23.914063-28.585938-11.898437-6.773437-26.898437-10.691406-43.222656-10.703124-18.199218.015624-34.773437 4.867187-47.230468 13.144531-6.222657 4.152343-11.429688 9.191406-15.148438 15.042969-3.710938 5.835937-5.894531 12.546874-5.886719 19.601562-.007812 7.417969 2.851563 14.304688 7.296875 20.089844 6.707032 8.710937 16.90625 15.433594 28.742188 20.207031 11.847656 4.75 25.40625 7.480469 39.054687 7.488281 18.773438 0 34.351563-5.246094 45.269531-14.328125 4.738282-3.9375 10.367188-6.152343 16.171876-6.152343 5.804687 0 11.429687 2.214843 16.171874 6.152343 10.914063 9.082031 26.492188 14.328125 45.265626 14.328125 18.199218-.023437 36.230468-4.828125 50.273437-12.910156 7.015625-4.0625 13.058594-8.96875 17.519531-14.785156 4.445313-5.785156 7.308594-12.671875 7.300782-20.089844.007812-7.050781-2.175782-13.761719-5.890626-19.597656-5.589843-8.777344-14.464843-15.734375-25.222656-20.589844-10.769531-4.847656-23.507812-7.597656-37.15625-7.601562v13.65625c15.738282-.015626 29.878906 4.304687 39.660156 10.851562 4.898438 3.257812 8.6875 7.042969 11.1875 10.992188 2.503907 3.964843 3.757813 8.03125 3.769532 12.289062-.007813 3.886719-1.441406 7.78125-4.492188 11.792969-4.539062 5.992187-12.800781 11.777343-22.980468 15.835937-10.164063 4.085938-22.167969 6.511719-33.96875 6.503906-16.265626 0-28.609376-4.550781-36.53125-11.164062-6.886719-5.746094-15.582032-9.316406-24.910157-9.316406s-18.023437 3.570312-24.90625 9.3125c-7.925781 6.613281-20.265625 11.167968-36.53125 11.167968-15.738281.023438-31.835937-4.34375-43.445312-11.082031-5.8125-3.351562-10.46875-7.273437-13.507813-11.257812-3.054687-4.011719-4.484375-7.90625-4.488281-11.792969.007813-4.257812 1.261719-8.324219 3.765625-12.289062 3.734375-5.921876 10.441406-11.476563 19.296875-15.453126 8.839844-3.984374 19.75-6.398437 31.550781-6.390624 14.109375-.011719 26.925782 3.453124 36.457032 8.90625 9.585937 5.460937 15.632812 12.746093 17.445312 20.070312.765625 3.039062 3.484375 5.15625 6.621094 5.15625h15.492187c3.132813 0 5.851563-2.117188 6.617188-5.15625 1.8125-7.324219 7.859375-14.609375 17.445312-20.070312 9.53125-5.453126 22.34375-8.917969 36.453125-8.90625zm0 0" fill="#54596e"/><path d="m328.132812 150.1875h-259.414062v-47.601562c0-52.886719 42.875-95.757813 95.761719-95.757813h67.890625c52.890625 0 95.761718 42.871094 95.761718 95.757813zm0 0" fill="#fff"/><path d="m328.132812 150.1875v-6.828125h-252.585937v-40.773437c.003906-24.578126 9.941406-46.769532 26.046875-62.886719 16.117188-16.101563 38.308594-26.042969 62.886719-26.046875h67.894531c24.578125.003906 46.769531 9.945312 62.882812 26.046875 16.105469 16.117187 26.046876 38.308593 26.050782 62.886719v47.601562h6.824218v-6.828125 6.828125h6.828126v-47.601562c-.007813-56.660157-45.925782-102.58203175-102.585938-102.585938h-67.894531c-56.660157.00390625-102.582031 45.925781-102.585938 102.585938v47.601562c0 1.796875.726563 3.554688 2 4.824219 1.269531 1.273437 3.027344 2 4.824219 2h259.414062c1.796876 0 3.554688-.726563 4.828126-1.996094 1.269531-1.273437 2-3.03125 2-4.828125zm0 0" fill="#54596e"/><path d="m68.71875 122.878906h259.414062v27.308594h-259.414062zm0 0" fill="#8065c4"/><g fill="#54596e"><path d="m328.132812 122.878906v-6.824218h-259.414062c-1.796875 0-3.554688.726562-4.828125 1.996093-1.269531 1.273438-1.996094 3.03125-1.996094 4.828125v27.308594c0 1.796875.726563 3.554688 2 4.824219 1.269531 1.273437 3.027344 2 4.824219 2h259.414062c1.796876 0 3.554688-.726563 4.828126-1.996094 1.269531-1.273437 2-3.03125 2-4.828125v-27.308594c0-1.796875-.730469-3.554687-2-4.828125-1.269532-1.269531-3.03125-1.996093-4.828126-1.996093v6.824218h-6.824218v20.480469h-245.761719v-13.65625h252.585937v-6.824219h-6.824218zm0 0"/><path d="m287.171875 314.027344c0 7.539062-6.113281 13.652344-13.652344 13.652344-7.539062 0-13.652343-6.113282-13.652343-13.652344 0-7.542969 6.113281-13.652344 13.652343-13.652344 7.539063 0 13.652344 6.109375 13.652344 13.652344zm0 0"/><path d="m89.199219 225.28125h-20.480469c-3.769531 0-6.824219 3.054688-6.824219 6.824219s3.054688 6.828125 6.824219 6.828125h20.480469c3.769531 0 6.828125-3.058594 6.828125-6.828125s-3.058594-6.824219-6.828125-6.824219"/><path d="m102.851562 245.761719h-20.476562c-3.773438 0-6.828125 3.054687-6.828125 6.824219 0 3.769531 3.054687 6.828124 6.828125 6.828124h20.476562c3.773438 0 6.828126-3.058593 6.828126-6.828124 0-3.769532-3.054688-6.824219-6.828126-6.824219"/><path d="m307.652344 238.933594h20.480468c3.769532 0 6.828126-3.058594 6.828126-6.828125s-3.058594-6.824219-6.828126-6.824219h-20.480468c-3.769532 0-6.824219 3.054688-6.824219 6.824219s3.054687 6.828125 6.824219 6.828125"/><path d="m294 259.414062h20.480469c3.769531 0 6.828125-3.058593 6.828125-6.828124 0-3.769532-3.058594-6.824219-6.828125-6.824219h-20.480469c-3.769531 0-6.828125 3.054687-6.828125 6.824219 0 3.769531 3.058594 6.828124 6.828125 6.828124"/></g><path d="m103.851562 151.183594-10.238281 10.242187c-1.332031 1.332031-1.332031 3.492188 0 4.828125 1.332031 1.332032 3.492188 1.332032 4.828125 0l10.238282-10.242187c1.332031-1.332031 1.332031-3.492188 0-4.828125-1.332032-1.328125-3.492188-1.328125-4.828126 0" fill="#a1b7ff"/><path d="m127.746094 147.773438-27.304688 27.304687c-1.335937 1.332031-1.335937 3.492187 0 4.828125 1.332032 1.332031 3.492188 1.332031 4.824219 0l27.308594-27.304688c1.332031-1.335937 1.332031-3.496093 0-4.828124-1.332031-1.332032-3.496094-1.332032-4.828125 0" fill="#a1b7ff"/><path d="m96.027344 389.121094h6.824218c-.003906-11.316406-9.164062-20.476563-20.476562-20.480469-11.316406.003906-20.476562 9.164063-20.480469 20.480469.003907 11.3125 9.164063 20.472656 20.480469 20.480468 11.3125-.003906 20.472656-9.167968 20.476562-20.480468h-13.652343c-.007813 3.765625-3.058594 6.820312-6.824219 6.824218-3.769531-.003906-6.820312-3.058593-6.828125-6.824218.007813-3.769532 3.058594-6.820313 6.828125-6.828125 3.765625.007812 6.816406 3.058593 6.824219 6.828125zm0 0" fill="#54596e"/></svg>