<svg height="436pt" viewBox="0 0 436 436.90692" width="436pt" xmlns="http://www.w3.org/2000/svg"><path d="m430.535156 430.082031h-423.253906v-20.875c0-35.390625 25.210938-65.773437 60-72.300781l158.453125-29.707031 145.667969 29.132812c34.382812 6.882813 59.132812 37.066407 59.132812 72.128907zm0 0" fill="#61c5a8"/><path d="m430.535156 430.082031v-6.828125h-416.429687v-14.046875c0-32.105469 22.878906-59.671875 54.433593-65.589843l157.152344-29.464844 144.371094 28.875c31.195312 6.238281 53.648438 33.628906 53.644531 65.433594v21.621093h6.828125v-6.828125 6.828125h6.824219v-21.621093c0-38.316407-27.042969-71.300782-64.621094-78.820313l-145.667969-29.132813c-.84375-.171874-1.75-.175781-2.597656-.015624l-158.453125 29.707031c-38.015625 7.132812-65.5625 40.328125-65.566406 79.007812v20.875c0 1.796875.730469 3.554688 2 4.824219 1.273437 1.273438 3.03125 2 4.828125 2h423.253906c1.796875 0 3.554688-.726562 4.824219-1.996094 1.273437-1.273437 2-3.03125 2-4.828125zm0 0" fill="#54596e"/><path d="m218.90625 395.945312c-46.3125 0-84.414062-36.476562-86.414062-82.75l-2.332032-53.78125h177.492188l-2.332032 53.78125c-2 46.273438-40.101562 82.75-86.414062 82.75zm0 0" fill="#ffd578"/><path d="m218.90625 395.945312v-6.824218c-42.65625.003906-77.753906-33.601563-79.59375-76.222656l-2.023438-46.65625h163.234376l-2.023438 46.65625c-1.839844 42.621093-36.9375 76.226562-79.59375 76.222656v13.652344c49.972656-.003907 91.070312-39.355469 93.234375-89.285157l2.332031-53.777343c.082032-1.847657-.609375-3.683594-1.886718-5.019532-1.28125-1.335937-3.082032-2.105468-4.933594-2.105468h-177.492188c-1.851562 0-3.652344.769531-4.929687 2.105468-1.277344 1.335938-1.96875 3.167969-1.890625 5.015625l2.332031 53.78125c2.164063 49.929688 43.265625 89.28125 93.234375 89.285157zm0 0" fill="#54596e"/><path d="m337.453125 66.789062-166.332031-59.960937-75.058594 52.285156c-11.117188 5.421875-16.96875 16.914063-14.375 28.195313l25.4375 110.664062 223.679688-13.652344 23.789062-87.121093c3.449219-12.640625-3.886719-25.660157-17.140625-30.410157zm0 0" fill="#bfad88"/><path d="m337.453125 66.789062 2.316406-6.425781-166.335937-59.957031c-2.082032-.753906-4.402344-.4453125-6.214844.820312l-75.0625 52.285157 3.902344 5.601562-2.992188-6.136719c-11.523437 5.59375-18.820312 16.800782-18.816406 28.984376 0 2.277343.253906 4.585937.78125 6.878906l25.441406 110.664062c.746094 3.25 3.738282 5.484375 7.070313 5.28125l223.679687-13.652344c2.921875-.175781 5.394532-2.191406 6.167969-5.015624l23.789063-87.121094c.730468-2.6875 1.085937-5.40625 1.085937-8.085938-.003906-13.53125-8.972656-25.722656-22.507813-30.550781l-2.304687 6.429687-2.304687 6.421876c8.5625 3.097656 13.46875 10.332031 13.464843 17.699218 0 1.480469-.195312 2.980469-.605469 4.496094l-22.5 82.394531-213.023437 13.003907-24.144531-105.027344c-.296875-1.285156-.4375-2.554688-.4375-3.816406.003906-6.660157 3.960937-13.179688 11.148437-16.710938l.910157-.535156 72.164062-50.269532 163.011719 58.765626zm0 0" fill="#54596e"/><path d="m355.441406 197.972656c0 11.3125-9.171875 20.480469-20.480468 20.480469-11.3125 0-20.480469-9.167969-20.480469-20.480469 0-11.308594 9.167969-20.480468 20.480469-20.480468 11.308593 0 20.480468 9.171874 20.480468 20.480468zm0 0" fill="#ffd578"/><path d="m355.441406 197.972656h6.824219c-.003906-15.085937-12.21875-27.304687-27.304687-27.304687-15.085938 0-27.304688 12.21875-27.308594 27.304687.003906 15.085938 12.222656 27.304688 27.308594 27.308594 15.085937-.003906 27.300781-12.222656 27.304687-27.308594h-13.652344c-.011719 7.542969-6.113281 13.640625-13.652343 13.652344-7.542969-.011719-13.640626-6.109375-13.652344-13.652344.011718-7.539062 6.109375-13.640625 13.652344-13.652344 7.539062.011719 13.640624 6.113282 13.652343 13.652344zm0 0" fill="#54596e"/><path d="m123.332031 197.972656c0 11.3125-9.167969 20.480469-20.480469 20.480469-11.308593 0-20.476562-9.167969-20.476562-20.480469 0-11.308594 9.167969-20.480468 20.476562-20.480468 11.3125 0 20.480469 9.171874 20.480469 20.480468zm0 0" fill="#ffd578"/><path d="m123.332031 197.972656h6.828125c-.003906-15.085937-12.222656-27.304687-27.308594-27.304687-15.082031 0-27.300781 12.21875-27.304687 27.304687.003906 15.085938 12.222656 27.304688 27.304687 27.308594 15.085938-.003906 27.304688-12.222656 27.308594-27.308594h-13.652344c-.015624 7.542969-6.113281 13.640625-13.65625 13.652344-7.539062-.011719-13.636718-6.109375-13.652343-13.652344.015625-7.539062 6.113281-13.640625 13.652343-13.652344 7.542969.011719 13.640626 6.113282 13.65625 13.652344zm0 0" fill="#54596e"/><path d="m334.519531 251.769531-6.8125-156.195312-130.558593 27.304687-87.042969-27.304687-6.804688 156.179687c-1.960937 12.152344 2.640625 24.378906 12.894531 34.292969l35.804688 44.835937c3.988281 7.660157 15.199219 12.261719 26.71875 10.960938l38.640625-3.164062 41.902344 3.3125c11.445312 1.214843 22.53125-3.382813 26.488281-10.980469l35.898438-44.972657c10.238281-9.90625 14.824218-22.125 12.871093-34.269531zm0 0" fill="#ffd578"/><path d="m334.519531 251.769531 6.820313-.300781-6.8125-156.195312c-.085938-1.996094-1.054688-3.863282-2.632813-5.089844-1.578125-1.226563-3.628906-1.703125-5.585937-1.292969l-128.816406 26.941406-85.34375-26.773437c-2.023438-.632813-4.226563-.292969-5.960938.925781-1.738281 1.214844-2.808594 3.171875-2.902344 5.292969l-6.804687 156.179687 6.820312.296875-6.738281-1.089844c-.355469 2.195313-.53125 4.394532-.53125 6.589844-.011719 12.382813 5.625 24.269532 15.417969 33.699219l4.746093-4.90625-5.335937 4.261719 35.804687 44.832031 5.335938-4.257813-6.054688 3.152344c2.640626 5.03125 7.023438 8.679688 12.035157 11.125 5.039062 2.433594 10.820312 3.71875 16.847656 3.726563 1.539063 0 3.089844-.085938 4.644531-.257813l-.75-6.785156.554688 6.804688 38.09375-3.117188 41.351562 3.269531.539063-6.804687-.714844 6.789062c1.464844.15625 2.925781.230469 4.375.230469 6.03125-.003906 11.816406-1.292969 16.851563-3.730469 5.011718-2.445312 9.390624-6.089844 12.027343-11.113281l-6.050781-3.15625 5.332031 4.257813 35.902344-44.972657-5.335937-4.257812 4.746093 4.90625c9.777344-9.429688 15.402344-21.3125 15.390625-33.683594 0-2.195313-.175781-4.390625-.523437-6.578125l-6.742188 1.082031 6.820313-.300781-6.820313.300781-6.742187 1.078125c.238281 1.476563.355468 2.949219.355468 4.414063-.011718 8.199219-3.625 16.476562-11.234374 23.871093l-.585938.648438-35.902344 44.972656-.71875 1.105469c-.890625 1.75-2.882812 3.691406-5.882812 5.140625-2.976563 1.453125-6.84375 2.367188-10.890625 2.359375-.972657 0-1.957031-.050781-2.945313-.15625l-.175781-.015625-41.902344-3.3125h-1.09375l-38.640625 3.164062-.195312.015626c-1.054688.117187-2.105469.175781-3.136719.175781-4.046875.007812-7.910156-.902344-10.882813-2.351563-3.003906-1.449218-4.996093-3.390625-5.890624-5.148437l-.722657-1.109375-35.804687-44.832032-.589844-.648437c-7.621094-7.402344-11.242188-15.683594-11.253906-23.882813 0-1.46875.117187-2.9375.355468-4.414062l.078126-.792969 6.421874-147.300781 78.5625 24.644531c1.101563.347657 2.308594.40625 3.441407.171875l122.691406-25.664062 6.460937 148.164062.082032.785156zm0 0" fill="#54596e"/><path d="m184.773438 273.066406h68.265624c3.769532 0 6.828126-3.054687 6.828126-6.824218 0-3.773438-3.058594-6.828126-6.828126-6.828126h-68.265624c-3.769532 0-6.828126 3.054688-6.828126 6.828126 0 3.769531 3.058594 6.824218 6.828126 6.824218" fill="#f99"/><path d="m198.824219 109.601562-26.210938 6.898438c-5.78125 1.519531-9.246093 7.460938-7.726562 13.246094 1.527343 5.78125 7.46875 9.25 13.246093 7.726562 5.796876-1.527344 11.726563 1.933594 13.25 7.71875 1.527344 5.796875-1.933593 11.726563-7.726562 13.25-17.339844 4.566406-35.167969-5.828125-39.734375-23.175781-4.566406-17.34375 5.828125-35.171875 23.175781-39.738281" fill="#bfad88"/><path d="m197.089844 102.996094-26.214844 6.902344c-7.929688 2.105468-13.171875 9.234374-13.171875 17.089843 0 1.484375.1875 3 .582031 4.496094 2.117188 7.933594 9.242188 13.171875 17.09375 13.171875 1.488282 0 2.996094-.1875 4.484375-.578125l1.042969-.140625c1.761719.003906 3.414062 1.195312 3.875 2.988281l.136719 1.035157c-.003907 1.761718-1.195313 3.414062-3 3.875-2.191407.578124-4.382813.851562-6.539063.851562-11.363281 0-21.847656-7.652344-24.855468-19.160156-.578126-2.195313-.851563-4.386719-.851563-6.539063 0-11.375 7.652344-21.851562 19.160156-24.859375 3.648438-.960937 5.824219-4.695312 4.867188-8.339844-.960938-3.648437-4.695313-5.824218-8.339844-4.867187-17.65625 4.664063-29.339844 20.601563-29.339844 38.0625 0 3.316406.425781 6.683594 1.304688 10.019531 4.664062 17.648438 20.597656 29.335938 38.058593 29.335938 3.3125 0 6.675782-.421875 10.011719-1.300782 7.925781-2.097656 13.179688-9.226562 13.175781-17.078124 0-1.496094-.191406-3.011719-.585937-4.507813-2.097656-7.925781-9.226563-13.171875-17.078125-13.167969-1.503906 0-3.023438.191406-4.511719.585938l-1.011719.132812c-1.757812 0-3.4375-1.210937-3.890624-3l-.132813-1.015625c0-1.761719 1.207031-3.4375 2.992187-3.886719l26.21875-6.902343c3.644532-.957031 5.820313-4.691407 4.863282-8.335938-.964844-3.648437-4.699219-5.824219-8.34375-4.867187zm0 0" fill="#54596e"/><path d="m280.347656 163.839844h-122.882812c-18.851563 0-34.132813 15.28125-34.132813 34.132812 0 18.855469 15.28125 34.132813 34.132813 34.132813h46.734375l14.707031 13.65625 14.707031-13.65625h46.734375c18.851563 0 34.132813-15.277344 34.132813-34.132813 0-18.851562-15.28125-34.132812-34.132813-34.132812zm0 0" fill="#61c5a8"/><path d="m280.347656 163.839844v-6.828125h-122.882812c-22.625.003906-40.953125 18.335937-40.957032 40.960937.003907 22.625 18.332032 40.957032 40.957032 40.960938h44.050781l12.746094 11.832031c2.625 2.4375 6.664062 2.4375 9.289062 0l12.742188-11.832031h44.054687c22.625-.003906 40.957032-18.335938 40.960938-40.960938-.003906-22.625-18.335938-40.957031-40.960938-40.960937v13.65625c7.5625.003906 14.34375 3.046875 19.308594 7.996093 4.949219 4.964844 7.992188 11.746094 7.996094 19.308594-.003906 7.566406-3.046875 14.347656-7.996094 19.308594-4.964844 4.953125-11.746094 7.996094-19.308594 8h-46.734375c-1.71875 0-3.386719.652344-4.644531 1.820312l-10.0625 9.34375-10.0625-9.339843c-1.257812-1.167969-2.925781-1.824219-4.644531-1.824219h-46.734375c-7.5625-.003906-14.34375-3.046875-19.308594-7.996094-4.949219-4.964844-7.992188-11.746094-7.996094-19.3125.003906-7.5625 3.046875-14.347656 7.996094-19.308594 4.964844-4.949218 11.746094-7.992187 19.308594-7.996093h122.882812zm0 0" fill="#54596e"/><g fill="#fff"><path d="m292.640625 190.679688s-22.621094 27.121093-52.039063 21.542968c0 0-2.246093-24.867187 52.039063-21.542968zm0 0"/><path d="m144.5625 190.648438s22.578125 27.144531 52.003906 21.613281c0 0 2.285156-24.867188-52.003906-21.613281zm0 0"/></g></svg>