<svg height="436pt" viewBox="-54 0 436 436.90741" width="436pt" xmlns="http://www.w3.org/2000/svg"><g fill="#54596e"><path d="m41.414062 6.828125v116.054687l47.785157-27.308593zm0 0"/><path d="m41.414062 6.828125h-6.828124v116.054687c0 2.4375 1.292968 4.679688 3.402343 5.902344s4.695313 1.234375 6.8125.023438l47.785157-27.308594c3.21875-1.839844 4.382812-5.898438 2.625-9.160156l-47.789063-88.75c-1.484375-2.757813-4.640625-4.148438-7.679687-3.382813-3.039063.769531-5.15625 3.488281-5.15625 6.621094h6.828124l-6.011718 3.238281 44.632812 82.882813-31.792968 18.167969v-104.289063h-6.828126l-6.011718 3.238281zm0 0"/><path d="m287.171875 6.828125v116.054687l-47.785156-27.308593zm0 0"/><path d="m287.171875 6.828125h-6.824219v104.289063l-31.792968-18.167969 44.628906-82.882813-6.011719-3.238281h-6.824219 6.824219l-6.007813-3.234375-47.789062 88.746094c-1.757812 3.265625-.59375 7.324218 2.625 9.164062l47.785156 27.304688c2.117188 1.210937 4.703125 1.203125 6.8125-.019532 2.109375-1.226562 3.402344-3.46875 3.402344-5.90625v-116.054687c0-3.132813-2.121094-5.851563-5.15625-6.621094-3.039062-.765625-6.195312.625-7.679688 3.382813zm0 0"/></g><path d="m195.4375 47.789062h-62.285156c-49.394532 0-89.550782 34.480469-91.382813 77.792969l-.003906.085938-.351563 215.667969h245.757813l-.351563-215.667969-.003906-.085938c-1.832031-43.3125-41.988281-77.792969-91.378906-77.792969zm0 0" fill="#ff927d"/><path d="m195.4375 47.789062v-6.828124h-62.285156c-26.292969.003906-50.242188 9.167968-67.960938 24.289062-17.707031 15.09375-29.246094 36.320312-30.242187 60.042969l-.003907.027343v.085938l-.003906.25-.355468 215.667969c-.003907 1.824219.707031 3.542969 1.996093 4.835937 1.289063 1.289063 3.007813 2 4.832031 2h245.757813c1.828125 0 3.542969-.710937 4.832031-2 1.289063-1.292968 2-3.011718 1.996094-4.835937l-.351562-215.667969-.007813-.25-.003906-.085938v-.027343c-1-23.722657-12.53125-44.949219-30.242188-60.042969-17.71875-15.121094-41.667969-24.285156-67.960937-24.289062v13.65625c23.105468-.003907 43.929687 8.070312 59.09375 21.019531 15.171875 12.972656 24.632812 30.644531 25.46875 50.234375l-.003906-.027344.003906.085938 6.824218-.261719-6.828124.011719.339843 208.828124h-232.082031l.339844-208.828124-6.828125-.011719 6.824219.261719.003906-.085938-.003906.027344c.835937-19.589844 10.296874-37.261719 25.46875-50.234375 15.164062-12.949219 35.988281-21.023438 59.09375-21.019531h62.285156v-6.828126zm0 0" fill="#54596e"/><path d="m268.496094 334.507812h-201.578125c-32.9375 0-59.636719 22.886719-59.636719 51.121094v44.453125h314.027344v-50.308593c0-24.996094-23.644532-45.265626-52.8125-45.265626zm0 0" fill="#999"/><path d="m268.496094 334.507812v-6.824218h-201.578125c-18.054688.003906-34.515625 6.253906-46.613281 16.613281-12.082032 10.328125-19.859376 25.011719-19.851563 41.332031v44.453125c0 1.796875.730469 3.554688 2 4.828125 1.273437 1.269532 3.03125 1.996094 4.828125 1.996094h314.027344c1.796875 0 3.554687-.726562 4.824218-1.996094 1.273438-1.273437 2-3.03125 2-4.828125v-50.308593c.007813-14.703126-7-27.921876-17.851562-37.191407-10.859375-9.300781-25.617188-14.894531-41.785156-14.898437v13.652344c12.996094-.003907 24.648437 4.53125 32.898437 11.617187 8.265625 7.113281 13.074219 16.527344 13.085938 26.824219v43.476562h-300.375v-37.625c.011719-11.914062 5.585937-22.789062 15.085937-30.964844 9.488282-8.144531 22.84375-13.335937 37.726563-13.328124h201.578125zm0 0" fill="#54596e"/><path d="m145.507812 389.121094-56.308593 40.960937h149.210937l-59.121094-40.960937zm0 0" fill="#54596e"/><path d="m145.507812 389.121094-4.015624-5.519532-56.308594 40.960938c-2.382813 1.734375-3.386719 4.828125-2.476563 7.632812.914063 2.800782 3.546875 4.710938 6.492188 4.710938h149.210937c2.988282 0 5.625-1.933594 6.515625-4.789062.894531-2.851563-.167969-5.945313-2.628906-7.644532l-59.117187-40.960937c-1.148438-.796875-2.492188-1.214844-3.890626-1.214844h-33.78125c-1.429687 0-2.863281.464844-4.015624 1.304687l4.015624 5.519532v6.828125h31.648438l39.414062 27.304687h-106.382812l39.335938-28.613281-4.015626-5.519531v6.828125zm0 0" fill="#54596e"/><path d="m164.292969 13.65625c-67.863281 0-122.878907 55.011719-122.878907 122.878906v61.441406h245.757813v-61.441406c0-67.867187-55.015625-122.878906-122.878906-122.878906zm0 0" fill="#999"/><path d="m164.292969 13.65625v-6.828125c-71.636719.003906-129.699219 58.066406-129.707031 129.707031v61.441406c0 1.796876.730468 3.554688 2 4.824219 1.273437 1.273438 3.03125 2 4.828124 2h245.757813c1.800781 0 3.558594-.726562 4.828125-2 1.273438-1.269531 2-3.027343 2-4.824219v-61.441406c-.003906-71.640625-58.070312-129.703125-129.707031-129.707031v13.65625c32.070312 0 61.039062 12.976563 82.0625 33.988281 21.011719 21.023438 33.988281 49.992188 33.992187 82.0625v54.613282h-232.105468v-54.613282c0-32.070312 12.976562-61.039062 33.988281-82.0625 21.023437-21.011718 49.996093-33.988281 82.0625-33.992187zm0 0" fill="#54596e"/><path d="m93.539062 136.535156s14.933594 32 44.800782 34.132813c0 0 8.535156-23.464844-44.800782-34.132813zm0 0" fill="#fff"/><path d="m234.417969 136.535156s-14.933594 32-44.800781 34.132813c0 0-8.535157-23.464844 44.800781-34.132813zm0 0" fill="#fff"/><path d="m136.988281 354.988281v-68.265625h54.613281v68.265625" fill="#999"/><path d="m143.8125 354.988281v-61.4375h40.960938v61.4375c0 3.769531 3.058593 6.828125 6.828124 6.828125 3.769532 0 6.824219-3.058594 6.824219-6.828125v-68.265625c0-1.800781-.726562-3.558594-2-4.828125-1.269531-1.273437-3.027343-2-4.824219-2h-54.613281c-1.796875 0-3.558593.726563-4.828125 2-1.269531 1.269531-2 3.027344-2 4.828125v68.265625c0 3.769531 3.058594 6.828125 6.828125 6.828125s6.824219-3.058594 6.824219-6.828125zm0 0" fill="#54596e"/><path d="m61.894531 191.148438c0 56.554687 45.84375 122.878906 102.398438 122.878906 56.554687 0 102.402343-66.324219 102.402343-122.878906v-13.652344l-102.402343 20.480468-102.40625-20.480468zm0 0" fill="#ffd578"/><path d="m61.894531 191.148438h-6.828125c.046875 30.117187 12.027344 62.007812 31.445313 86.859374 9.730469 12.410157 21.367187 23.0625 34.5 30.679688 13.117187 7.613281 27.796875 12.171875 43.28125 12.167969 15.488281.003906 30.164062-4.554688 43.285156-12.167969 19.691406-11.4375 36.039063-29.648438 47.601563-50.5 11.539062-20.871094 18.324218-44.445312 18.34375-67.039062v-13.652344c0-2.050782-.917969-3.980469-2.5-5.28125-1.582032-1.296875-3.65625-1.816406-5.667969-1.414063l-101.058594 20.210938-101.070313-20.210938c-2.007812-.402343-4.082031.117188-5.667968 1.417969-1.582032 1.296875-2.496094 3.230469-2.496094 5.28125l.007812 13.652344 13.648438-.007813v-5.324219l94.234375 18.847657c.890625.175781 1.789063.175781 2.679687 0l94.234376-18.847657v5.328126c.046874 26.4375-10.898438 55.984374-28.539063 78.4375-8.800781 11.238281-19.230469 20.703124-30.597656 27.289062-11.382813 6.589844-23.644531 10.324219-36.433594 10.328125-12.792969-.003906-25.054687-3.734375-36.433594-10.328125-17.058593-9.867188-31.984375-26.269531-42.507812-45.300781-10.542969-19.015625-16.648438-40.601563-16.632813-60.425781zm0 0" fill="#54596e"/><path d="m157.46875 238.9375h13.652344c7.539062 0 13.652344-6.113281 13.652344-13.65625 0-7.539062-6.113282-13.652344-13.652344-13.652344h-13.652344c-7.542969 0-13.65625 6.113282-13.65625 13.652344 0 7.542969 6.113281 13.65625 13.65625 13.65625" fill="#ff927d"/><path d="m136.988281 232.109375h54.613281c3.769532 0 6.824219-3.058594 6.824219-6.828125s-3.054687-6.824219-6.824219-6.824219h-54.613281c-3.769531 0-6.828125 3.054688-6.828125 6.824219s3.058594 6.828125 6.828125 6.828125" fill="#ff927d"/><path d="m109.679688 314.027344v27.308594c0 37.699218-30.5625 68.265624-68.265626 68.265624v-95.574218" fill="#ff927d"/><path d="m102.855469 314.027344v27.308594c-.003907 16.984374-6.867188 32.304687-17.996094 43.441406-11.140625 11.128906-26.457031 17.992187-43.445313 18v6.824218h6.828126v-95.574218c0-3.769532-3.058594-6.824219-6.828126-6.824219-3.769531 0-6.828124 3.054687-6.828124 6.824219v95.574218c0 1.796876.730468 3.554688 2 4.828126 1.273437 1.269531 3.03125 1.996093 4.828124 1.996093 41.476563 0 75.085938-33.617187 75.09375-75.089843v-27.308594c0-3.769532-3.058593-6.824219-6.828124-6.824219-3.769532 0-6.824219 3.054687-6.824219 6.824219zm0 0" fill="#54596e"/></svg>