<svg height="423pt" viewBox="-9 0 423 423.25333" width="423pt" xmlns="http://www.w3.org/2000/svg"><path d="m70.101562 232.105469h6.824219v122.882812c0 7.539063 6.113281 13.652344 13.652344 13.652344 7.542969 0 13.65625-6.113281 13.65625-13.652344v-136.535156c0-3.597656-1.457031-7.113281-4-9.65625-2.542969-2.539063-6.058594-3.996094-9.65625-3.996094h-20.476563c-7.542968 0-13.65625 6.113281-13.65625 13.652344s6.113282 13.652344 13.65625 13.652344zm0 0" fill="#54596e"/><path d="m190.492188 273.066406h-42.8125c-1.367188 0-2.484376-1.121094-2.488282-2.488281v-52.125c0-7.539063-6.113281-13.652344-13.652344-13.652344-7.539062 0-13.652343 6.113281-13.652343 13.652344v52.125c.007812 16.460937 13.332031 29.785156 29.792969 29.796875h42.8125c7.542968 0 13.65625-6.113281 13.65625-13.65625 0-7.539062-6.113282-13.648438-13.65625-13.652344zm0 0" fill="#54596e"/><path d="m147.679688 300.375h42.8125c1.367187 0 2.484374 1.117188 2.488281 2.488281v52.125c0 7.539063 6.113281 13.652344 13.652343 13.652344 7.539063 0 13.652344-6.113281 13.652344-13.652344v-52.128906c-.007812-16.460937-13.332031-29.785156-29.792968-29.792969h-42.8125c-7.539063 0-13.652344 6.113282-13.652344 13.652344 0 7.542969 6.113281 13.65625 13.652344 13.65625zm0 0" fill="#54596e"/><path d="m276.605469 281.601562h6.828125c-.003906-78.234374-63.421875-141.652343-141.652344-141.65625-78.234375.003907-141.648438 63.421876-141.65625 141.65625.007812 78.230469 63.421875 141.648438 141.65625 141.652344 78.230469-.003906 141.648438-63.421875 141.652344-141.652344h-13.652344c-.003906 35.363282-14.320312 67.320313-37.492188 90.507813-23.1875 23.171875-55.144531 37.484375-90.507812 37.492187-35.367188-.003906-67.324219-14.320312-90.507812-37.492187-23.175782-23.1875-37.488282-55.144531-37.492188-90.507813.003906-35.367187 14.316406-67.324218 37.492188-90.511718 23.183593-23.171875 55.140624-37.488282 90.507812-37.488282 35.363281 0 67.320312 14.316407 90.507812 37.492188 23.171876 23.183594 37.488282 55.140625 37.492188 90.507812zm0 0" fill="#ff927d"/><path d="m397.78125 116.054688c0 60.324218-48.902344 109.226562-109.226562 109.226562-60.324219 0-109.226563-48.902344-109.226563-109.226562 0-60.324219 48.902344-109.226563 109.226563-109.226563 60.324218 0 109.226562 48.902344 109.226562 109.226563zm0 0" fill="#fff35f"/><g fill="#54596e"><path d="m397.78125 116.054688h6.824219c-.003907-64.101563-51.953125-116.05078175-116.050781-116.054688-64.101563.00390625-116.050782 51.953125-116.054688 116.054688.003906 64.097656 51.953125 116.046874 116.054688 116.050781 64.097656-.003907 116.046874-51.953125 116.050781-116.050781h-13.652344c-.003906 28.296874-11.449219 53.855468-29.992187 72.40625-18.550782 18.542968-44.109376 29.988281-72.40625 29.992187-28.300782-.003906-53.859376-11.449219-72.410157-29.992187-18.542969-18.550782-29.988281-44.109376-29.992187-72.40625.003906-28.304688 11.449218-53.859376 29.992187-72.410157 18.550781-18.542969 44.109375-29.988281 72.410157-29.992187 28.296874.003906 53.855468 11.449218 72.40625 29.992187 18.542968 18.550781 29.988281 44.109375 29.992187 72.410157zm0 0"/><path d="m248.441406 134.769531c8.976563 9.753907 23.644532 15.359375 40.113282 15.417969 16.300781-.058594 30.839843-5.554688 39.847656-15.128906 2.566406-2.761719 2.40625-7.082032-.355469-9.644532-2.761719-2.566406-7.082031-2.40625-9.648437.355469-5.433594 5.972657-16.707032 10.820313-29.84375 10.765625-13.265626.054688-24.636719-4.898437-30.007813-10.945312-2.53125-2.792969-6.851563-3-9.640625-.464844-2.792969 2.535156-3 6.851562-.464844 9.644531zm0 0"/><path d="m240.765625 75.09375c0 7.539062-6.113281 13.652344-13.652344 13.652344-7.539062 0-13.652343-6.113282-13.652343-13.652344s6.113281-13.652344 13.652343-13.652344c7.539063 0 13.652344 6.113282 13.652344 13.652344zm0 0"/><path d="m363.648438 75.09375c0 7.539062-6.113282 13.652344-13.65625 13.652344-7.539063 0-13.652344-6.113282-13.652344-13.652344s6.113281-13.652344 13.652344-13.652344c7.542968 0 13.65625 6.113282 13.65625 13.652344zm0 0"/></g><path d="m363.648438 109.226562c0 7.539063-6.113282 13.652344-13.65625 13.652344-7.539063 0-13.652344-6.113281-13.652344-13.652344 0-7.539062 6.113281-13.652343 13.652344-13.652343 7.542968 0 13.65625 6.113281 13.65625 13.652343zm0 0" fill="#ff927d"/><path d="m240.765625 109.226562c0 7.539063-6.113281 13.652344-13.652344 13.652344-7.539062 0-13.652343-6.113281-13.652343-13.652344 0-7.539062 6.113281-13.652343 13.652343-13.652343 7.539063 0 13.652344 6.113281 13.652344 13.652343zm0 0" fill="#ff927d"/><path d="m192.980469 252.585938v47.789062c0 7.539062 6.113281 13.652344 13.652343 13.652344 7.539063 0 13.652344-6.113282 13.652344-13.652344v-47.789062c0-7.539063-6.113281-13.652344-13.652344-13.652344-7.539062 0-13.652343 6.113281-13.652343 13.652344" fill="#54596e"/></svg>