<svg height="436pt" viewBox="0 0 436 436.90908" width="436pt" xmlns="http://www.w3.org/2000/svg"><path d="m102.855469 6.828125v136.535156l34.132812-88.746093zm0 0" fill="#54596e"/><path d="m102.855469 6.828125h-6.828125v136.535156c0 3.296875 2.339844 6.109375 5.582031 6.710938 3.242187.601562 6.433594-1.183594 7.617187-4.261719l34.132813-88.746094c.820313-2.132812.511719-4.5625-.816406-6.417968l-34.132813-47.789063c-1.726562-2.414063-4.8125-3.4375-7.640625-2.53125s-4.742187 3.53125-4.742187 6.5h6.828125l-5.554688 3.96875 31.996094 44.796875-19.617187 51.003906v-99.769531h-6.824219l-5.554688 3.96875zm0 0" fill="#54596e"/><path d="m334.960938 6.828125v136.535156l-34.132813-88.746093zm0 0" fill="#54596e"/><path d="m334.960938 6.828125h-6.828126v99.769531l-19.613281-51.003906 31.996094-44.796875-5.554687-3.96875h-6.828126 6.828126l-5.554688-3.96875-34.132812 47.789063c-1.328126 1.855468-1.636719 4.285156-.816407 6.417968l34.132813 88.746094c1.183594 3.078125 4.375 4.863281 7.617187 4.261719 3.242188-.601563 5.582031-3.414063 5.582031-6.710938v-136.535156c0-2.96875-1.917968-5.59375-4.742187-6.5-2.828125-.90625-5.914063.113281-7.640625 2.53125zm0 0" fill="#54596e"/><path d="m430.535156 430.082031h-423.253906v-63.972656c0-10.40625 7.414062-19.332031 17.632812-21.253906l200.820313-37.652344 187.417969 37.484375c10.109375 2.023438 17.382812 10.894531 17.382812 21.203125zm0 0" fill="#999"/><path d="m430.535156 430.082031v-6.828125h-416.425781v-57.144531c-.003906-7.117187 5.074219-13.234375 12.066406-14.542969l199.515625-37.410156 186.125 37.226562c6.914063 1.378907 11.894532 7.453126 11.890625 14.507813v64.191406h6.828125v-6.828125 6.828125h6.824219v-64.191406c0-13.5625-9.566406-25.234375-22.867187-27.898437l-187.417969-37.484376c-.84375-.167968-1.75-.175781-2.597657-.015624l-200.820312 37.652343c-13.449219 2.53125-23.199219 14.269531-23.203125 27.964844v63.972656c0 1.796875.730469 3.554688 2 4.828125 1.273437 1.273438 3.03125 2 4.828125 2h423.253906c1.796875 0 3.554688-.726562 4.824219-2 1.273437-1.269531 2-3.027344 2-4.824218h-6.824219zm0 0" fill="#54596e"/><path d="m218.90625 20.480469c-64.09375 0-116.050781 51.960937-116.050781 116.054687v143.359375l81.917969 95.574219h68.269531l81.917969-95.574219v-143.359375c0-64.089844-51.960938-116.054687-116.054688-116.054687zm0 0" fill="#999"/><g fill="#54596e"><path d="m218.90625 20.480469v-6.824219c-67.867188.003906-122.875 55.011719-122.878906 122.878906v143.359375c0 1.636719.578125 3.203125 1.644531 4.445313l81.917969 95.570312c1.304687 1.519532 3.183594 2.382813 5.183594 2.382813h68.269531c2 0 3.878906-.863281 5.179687-2.382813l81.921875-95.570312c1.0625-1.242188 1.644531-2.808594 1.644531-4.445313v-143.359375c-.003906-67.867187-55.015624-122.875-122.882812-122.878906v13.652344c30.183594.003906 57.449219 12.21875 77.234375 31.992187 19.78125 19.789063 31.992187 47.050781 31.992187 77.234375v140.835938l-78.230468 91.269531h-61.988282l-78.234374-91.269531v-140.835938c.003906-30.183594 12.214843-57.445312 31.996093-77.234375 19.785157-19.773437 47.050781-31.988281 77.230469-31.992187zm0 0"/><path d="m198.429688 218.457031-34.136719-34.132812h-25.597657l7.796876 11.699219c5.9375 8.898437 15.164062 15.078124 25.648437 17.171874zm0 0"/><path d="m241.09375 218.457031 34.132812-34.132812h25.601563l-7.800781 11.699219c-5.933594 8.898437-15.160156 15.078124-25.644532 17.171874zm0 0"/><path d="m232.5625 259.414062h-27.308594c-7.539062 0-13.652344-6.113281-13.652344-13.652343 0-7.539063 6.113282-13.652344 13.652344-13.652344h27.308594c7.539062 0 13.652344 6.113281 13.652344 13.652344 0 7.539062-6.113282 13.652343-13.652344 13.652343zm0 0"/><path d="m192.230469 249.730469-40.960938 88.746093c-1.582031 3.421876-.085937 7.476563 3.339844 9.058594 3.421875 1.578125 7.476563.085938 9.058594-3.339844l40.957031-88.746093c1.582031-3.421875.085938-7.476563-3.335938-9.058594-3.421874-1.578125-7.480468-.085937-9.058593 3.339844"/><path d="m233.1875 255.449219 40.960938 88.746093c1.582031 3.425782 5.636718 4.917969 9.058593 3.339844 3.425781-1.582031 4.917969-5.636718 3.339844-9.058594l-40.960937-88.746093c-1.578126-3.425781-5.636719-4.917969-9.058594-3.339844-3.421875 1.582031-4.917969 5.636719-3.339844 9.058594"/><path d="m130.367188 56.269531 27.304687 109.226563c.484375 1.941406 1.78125 3.558594 3.570313 4.453125l50.839843 25.421875v36.738281c0 3.769531 3.054688 6.828125 6.824219 6.828125 3.773438 0 6.828125-3.058594 6.828125-6.828125v-40.960937c0-2.589844-1.457031-4.945313-3.773437-6.105469l-51.804688-25.902344-26.546875-106.179687c-.914063-3.660157-4.621094-5.882813-8.277344-4.96875-3.65625.917968-5.878906 4.621093-4.964843 8.277343zm0 0"/><path d="m294.207031 52.960938-26.546875 106.179687-51.804687 25.902344c-2.320313 1.160156-3.773438 3.515625-3.773438 6.105469v40.960937c0 3.769531 3.054688 6.828125 6.824219 6.828125 3.773438 0 6.828125-3.058594 6.828125-6.828125v-36.742187l50.839844-25.421876c1.789062-.890624 3.085937-2.507812 3.570312-4.449218l27.308594-109.226563c.910156-3.660156-1.3125-7.363281-4.96875-8.277343-3.660156-.914063-7.367187 1.3125-8.277344 4.96875zm0 0"/></g><path d="m96.027344 327.683594c-.007813 11.808594 3.734375 23.042968 10.234375 32.964844 9.769531 14.902343 25.570312 27.035156 45.027343 35.558593 19.472657 8.503907 42.6875 13.390625 67.617188 13.394531 33.242188-.019531 63.4375-8.664062 85.773438-23.089843 11.160156-7.226563 20.371093-15.925781 26.875-25.863281 6.5-9.921876 10.242187-21.15625 10.234374-32.964844 0-3.769532-3.058593-6.828125-6.828124-6.828125-3.769532 0-6.828126 3.058593-6.828126 6.828125-.007812 8.925781-2.757812 17.445312-8.007812 25.492187-7.847656 12.046875-21.476562 22.84375-39.066406 30.519531-17.570313 7.6875-39.011719 12.257813-62.152344 12.253907-30.851562.015625-58.683594-8.148438-78.351562-20.898438-9.839844-6.367187-17.621094-13.847656-22.867188-21.875-5.246094-8.042969-7.996094-16.566406-8.007812-25.492187 0-3.769532-3.054688-6.828125-6.824219-6.828125s-6.828125 3.058593-6.828125 6.828125zm0 0" fill="#fff"/><path d="m121.0625 375.46875-11.382812 40.960938 34.136718-30.71875zm0 0" fill="#fff"/><path d="m316.753906 375.46875 11.378906 40.960938-34.132812-30.71875zm0 0" fill="#fff"/><path d="m218.90625 436.910156-13.652344-34.132812h27.308594zm0 0" fill="#fff"/></svg>