<svg height="436pt" viewBox="0 -3 436.90667 436" width="436pt" xmlns="http://www.w3.org/2000/svg"><path d="m314.050781 356.386719 57.320313-116.347657 24.492187 12.066407-57.320312 116.347656zm0 0" fill="#999"/><path d="m314.074219 356.378906-3.019531 6.125 24.496093 12.0625c3.382813 1.667969 7.472657.277344 9.140625-3.105468l57.332032-116.34375c.796874-1.613282.917968-3.515626.339843-5.214844-.578125-1.703125-1.835937-3.132813-3.445312-3.929688l-24.496094-12.0625c-3.382813-1.667968-7.472656-.277344-9.140625 3.105469l-57.332031 116.34375c-.796875 1.613281-.917969 3.515625-.339844 5.214844.578125 1.703125 1.832031 3.132812 3.445313 3.929687l3.019531-6.125 6.121093 3.015625 54.316407-110.222656 12.246093 6.035156-51.296874 104.097657-18.371094-9.046876-3.015625 6.121094 6.121093 3.015625zm0 0" fill="#54596e"/><path d="m41 252.085938 24.492188-12.066407 57.316406 116.347657-24.492188 12.0625zm0 0" fill="#999"/><path d="m122.832031 356.378906-3.015625-6.125-18.367187 9.050782-51.300781-104.101563 12.246093-6.03125 54.316407 110.222656 6.121093-3.015625-3.015625-6.125 3.015625 6.125 6.125-3.019531-57.332031-116.347656c-1.667969-3.382813-5.757812-4.769531-9.140625-3.105469l-24.496094 12.066406c-1.613281.792969-2.867187 2.226563-3.445312 3.925782-.582031 1.703124-.457031 3.601562.335937 5.214843l57.335938 116.347657c1.664062 3.378906 5.757812 4.769531 9.140625 3.105468l24.492187-12.066406c1.636719-.808594 2.863282-2.199219 3.449219-3.925781.585937-1.726563.464844-3.578125-.339844-5.214844zm0 0" fill="#54596e"/><path d="m361.8125 355.4375h-61.4375v-68.265625h-163.839844v68.265625h-61.441406c-37.703125 0-68.265625 30.558594-68.265625 68.265625h423.25c0-37.707031-30.5625-68.265625-68.265625-68.265625" fill="#f99"/><path d="m361.8125 355.4375v-6.824219h-54.613281v-61.441406c0-1.800781-.726563-3.558594-2-4.832031-1.269531-1.269532-3.027344-1.996094-4.824219-1.996094h-163.839844c-1.800781 0-3.558594.726562-4.828125 1.996094-1.273437 1.273437-2 3.03125-2 4.832031v61.4375l-54.613281.003906c-41.476562 0-75.08984375 33.609375-75.09375 75.09375 0 1.796875.730469 3.554688 2 4.824219 1.273438 1.273438 3.03125 2 4.828125 2h423.25c1.800781 0 3.558594-.726562 4.828125-2 1.273438-1.269531 2-3.027344 2-4.828125-.003906-41.480469-33.617188-75.089844-75.09375-75.089844v13.652344c16.988281 0 32.304688 6.863281 43.445312 17.992187 11.128907 11.140626 17.992188 26.457032 17.996094 43.445313h6.824219v-6.824219h-423.25v6.824219h6.824219c.003906-16.988281 6.867187-32.304687 17.996094-43.445313 11.136718-11.128906 26.457031-17.988281 43.445312-17.992187h61.441406c1.796875 0 3.554688-.730469 4.824219-2 1.273437-1.273437 2-3.03125 2-4.828125v-61.441406h150.1875v61.441406c0 1.796875.730469 3.554688 2 4.828125 1.269531 1.269531 3.03125 2 4.828125 2h61.4375z" fill="#54596e"/><path d="m312.996094 53.453125c-21.066406-38.378906-62.398438-46.175781-94.542969-46.175781s-73.476563 7.796875-94.542969 46.175781c-21.066406 38.382813-28.339844 74.132813-28.339844 117.667969 0 87.070312 61.90625 184.320312 122.882813 184.320312s122.882813-97.246094 122.882813-184.320312c0-43.535156-7.269532-79.285156-28.339844-117.667969" fill="#f99"/><path d="m312.996094 53.453125 5.984375-3.285156c-11.335938-20.722657-28.460938-33.382813-46.578125-40.539063-18.148438-7.195312-37.328125-9.167968-53.949219-9.175781-16.621094.007813-35.800781 1.980469-53.949219 9.175781-18.117187 7.15625-35.242187 19.816406-46.578125 40.539063-21.65625 39.367187-29.222656 76.691406-29.179687 120.953125.039062 45.148437 15.902344 92.238281 39.695312 128.558594 11.921875 18.152343 25.851563 33.621093 41.066406 44.71875 15.203126 11.078124 31.847657 17.855468 48.945313 17.867187 17.097656-.011719 33.746094-6.789063 48.949219-17.867187 22.8125-16.660157 42.792968-43.105469 57.304687-73.78125 14.472657-30.683594 23.4375-65.632813 23.453125-99.496094.042969-44.257813-7.519531-81.585938-29.175781-120.953125l-5.988281 3.285156-5.980469 3.28125c20.476563 37.40625 27.445313 71.574219 27.492187 114.382813.039063 41.917968-15.054687 86.992187-37.457031 121.070312-11.175781 17.042969-24.15625 31.324219-37.691406 41.175781-13.558594 9.882813-27.515625 15.257813-40.902344 15.25-13.390625.007813-27.347656-5.367187-40.90625-15.25-20.320312-14.769531-39.320312-39.550781-53-68.578125-13.714843-29.011718-22.160156-62.230468-22.144531-93.667968.042969-42.808594 7.015625-76.976563 27.492188-114.382813 9.730468-17.660156 23.804687-28.082031 39.652343-34.417969 15.824219-6.296875 33.378907-8.21875 48.90625-8.210937 15.523438-.007813 33.082031 1.914062 48.90625 8.210937 15.847657 6.335938 29.921875 16.761719 39.652344 34.417969z" fill="#54596e"/><path d="m334.050781 184.042969c-18.066406 68.957031-67.117187 130.433593-115.597656 130.433593-48.476563 0-97.519531-61.464843-115.59375-130.414062 1.929687 27.476562 9.84375 55.664062 21.691406 80.722656 13.679688 29.027344 32.675781 53.808594 52.996094 68.582032 13.546875 9.871093 27.492187 15.246093 40.871094 15.246093h.035156c13.390625.011719 27.347656-5.367187 40.902344-15.246093 13.535156-9.855469 26.519531-24.136719 37.691406-41.179688 20.117187-30.597656 34.339844-70.058594 37.003906-108.144531" fill="#ee9295"/><path d="m340.46875 148.050781c-1.113281 12.039063-3.304688 24.125-6.417969 35.992188-2.664062 38.085937-16.886719 77.546875-37 108.144531-11.175781 17.042969-24.15625 31.324219-37.691406 41.175781-13.558594 9.882813-27.515625 15.257813-40.902344 15.25-.011719 0-.023437 0-.035156 0-13.382813 0-27.324219-5.375-40.871094-15.25-20.320312-14.769531-39.320312-39.550781-53-68.578125-11.84375-25.058594-19.757812-53.25-21.6875-80.722656-3.113281-11.875-5.308593-23.96875-6.421875-36.011719-.527344 7.492188-.867187 15.121094-.867187 23.066407 0 87.074218 61.90625 184.320312 122.882812 184.320312 60.976563 0 122.882813-97.246094 122.882813-184.320312-.003906-7.945313-.34375-15.574219-.871094-23.066407" fill="#54596e"/><path d="m191.148438 163.742188c0-16.066407-2.0625-29.046876-8.140626-43.292969-6.1875-14.503907-23.308593-17.597657-32.820312-17.597657-9.425781 0-19.648438 2.898438-25.828125 17.199219-6.175781 14.300781-8.304687 27.472657-8.304687 43.691407 0 32.441406 23.078124 68.8125 40.957031 68.8125 16.253906.003906 34.136719-36.371094 34.136719-68.8125zm0 0" fill="#54596e"/><path d="m143.359375 109.679688s1.953125-36.402344-16.089844-59.160157" fill="#f99"/><path d="m150.175781 110.042969c.003907-.105469.074219-1.378907.074219-3.542969-.003906-5-.34375-14.730469-2.660156-25.871094-2.332032-11.128906-6.597656-23.753906-14.96875-34.351562-2.34375-2.953125-6.636719-3.449219-9.59375-1.109375-2.953125 2.34375-3.449219 6.640625-1.105469 9.59375 6.457031 8.109375 10.269531 18.800781 12.300781 28.652343 2.054688 9.835938 2.375 18.738282 2.371094 23.089844 0 .941406-.011719 1.667969-.027344 2.148438l-.019531.53125-.003906.132812c-.199219 3.761719 2.6875 6.980469 6.453125 7.179688 3.761718.199218 6.980468-2.6875 7.179687-6.453125zm0 0" fill="#54596e"/><path d="m157.011719 225.730469s27.308593 40.960937 0 95.574219" fill="#f99"/><path d="m151.332031 229.519531 1.136719-.757812-1.140625.746093.003906.011719 1.136719-.757812-1.140625.746093c.300781.429688 11.027344 17.246094 10.996094 42.746094-.007813 13.183594-2.796875 28.738282-11.414063 46-1.6875 3.371094-.320312 7.472656 3.050782 9.160156 3.375 1.683594 7.472656.316407 9.160156-3.054687 9.585937-19.15625 12.867187-36.972656 12.855468-52.105469-.035156-30.3125-12.863281-49.648437-13.28125-50.308594-2.09375-3.136718-6.332031-3.984374-9.46875-1.894531-3.136718 2.089844-3.984374 6.332031-1.894531 9.46875zm0 0" fill="#54596e"/><path d="m245.761719 163.742188c0-16.066407 2.058593-29.046876 8.136719-43.292969 6.1875-14.503907 23.308593-17.597657 32.820312-17.597657 9.425781 0 19.648438 2.898438 25.828125 17.199219 6.175781 14.300781 8.304687 27.472657 8.304687 43.695313 0 32.441406-23.078124 68.8125-40.957031 68.8125-16.253906 0-34.132812-36.375-34.132812-68.816406zm0 0" fill="#54596e"/><path d="m283.996094 167.070312c-5.734375-1.40625-11.96875-.558593-16.722656 2.894532l-.171876.125c-3.554687 2.632812-8.730468-.480469-7.503906-4.683594 1.886719-6.34375 6.667969-11.632812 13.054688-13.667969 14.226562-4.535156 27.367187 5.574219 27.71875 18.820313l-.527344.410156zm0 0" fill="#fff"/><path d="m152.914062 167.070312c5.734376-1.40625 11.964844-.558593 16.722657 2.894532l.171875.125c3.554687 2.632812 8.730468-.480469 7.503906-4.683594-1.886719-6.34375-6.667969-11.632812-13.058594-13.667969-14.226562-4.535156-27.367187 5.574219-27.71875 18.820313l.527344.410156zm0 0" fill="#fff"/><path d="m293.546875 109.679688s-1.953125-36.402344 16.089844-59.160157" fill="#f99"/><path d="m300.363281 109.3125-.003906-.128906c-.015625-.335938-.046875-1.269532-.046875-2.683594-.003906-4.351562.320312-13.253906 2.371094-23.089844 2.035156-9.847656 5.84375-20.542968 12.300781-28.652344 2.34375-2.953124 1.847656-7.246093-1.105469-9.589843-2.953125-2.339844-7.25-1.847657-9.589844 1.109375-8.375 10.597656-12.636718 23.222656-14.972656 34.351562-2.316406 11.140625-2.65625 20.871094-2.65625 25.871094 0 2.164062.066406 3.4375.070313 3.542969.199219 3.765625 3.417969 6.652343 7.183593 6.453125 3.761719-.203125 6.652344-3.417969 6.449219-7.183594zm0 0" fill="#54596e"/><path d="m279.894531 225.730469s-27.308593 40.960937 0 95.574219" fill="#f99"/><g fill="#54596e"><path d="m274.214844 221.945312c-.417969.660157-13.25 19.996094-13.285156 50.308594-.007813 15.132813 3.273437 32.949219 12.855468 52.105469 1.6875 3.371094 5.789063 4.738281 9.160156 3.050781 3.371094-1.683594 4.738282-5.785156 3.054688-9.15625-8.621094-17.261718-11.410156-32.816406-11.417969-46 0-13.175781 2.828125-24 5.632813-31.484375 1.402344-3.738281 2.796875-6.636719 3.8125-8.554687.511718-.960938.925781-1.675782 1.195312-2.132813l.296875-.484375.058594-.089844-1.109375-.71875 1.101562.730469.007813-.011719-1.109375-.71875 1.101562.730469c2.089844-3.136719 1.242188-7.375-1.894531-9.464843-3.132812-2.09375-7.371093-1.246094-9.460937 1.890624zm0 0"/><path d="m163.839844 382.746094c-11.304688-.023438-20.460938-9.175782-20.480469-20.480469v-13.652344c0-3.773437-3.054687-6.828125-6.824219-6.828125-3.773437 0-6.828125 3.054688-6.828125 6.828125v13.652344c.003907 18.851563 15.28125 34.128906 34.132813 34.132813 3.769531 0 6.828125-3.058594 6.828125-6.828126 0-3.769531-3.058594-6.824218-6.828125-6.824218zm0 0"/></g></svg>