<svg height="436pt" viewBox="0 -17 436.90496 436" width="436pt" xmlns="http://www.w3.org/2000/svg"><path d="m146.773438 250.902344h143.359374l14.335938 111.363281h57.34375l-.410156-273.066406c-4.222656-75.386719-70.914063-20.480469-142.949219-20.480469-72.039063 0-138.726563-61.730469-142.953125 13.65625l-.410156 279.890625h57.347656zm0 0" fill="#54596e"/><path d="m430.078125 375.921875h-423.253906v-60.421875c0-9.824219 7.410156-18.257812 17.636719-20.074219l200.816406-35.558593 187.421875 35.398437c10.105469 1.914063 17.378906 10.292969 17.378906 20.027344zm0 0" fill="#999"/><path d="m430.078125 375.921875v-6.828125h-416.425781v-53.59375c-.023438-6.285156 4.792968-12.042969 12-13.351562l199.585937-35.339844 186.191407 35.167968c7.121093 1.375 11.84375 7.09375 11.820312 13.316407v60.628906h6.828125v-6.828125 6.828125h6.828125v-60.628906c-.023438-13.242188-9.84375-24.28125-22.9375-26.734375l-187.425781-35.398438c-.796875-.148437-1.65625-.15625-2.457031-.015625l-200.8125 35.558594c-13.25 2.324219-23.2539068 13.429687-23.273438 26.796875v60.421875c0 1.796875.730469 3.554687 2 4.824219 1.269531 1.273437 3.027344 2 4.824219 2h423.253906c1.796875 0 3.554687-.726563 4.828125-1.996094 1.269531-1.273438 2-3.03125 2-4.828125zm0 0" fill="#54596e"/><path d="m341.332031 280.347656-75.09375 68.265625h-95.574219l-75.09375-68.265625v-63.3125c0-14.046875 11.386719-25.433594 25.433594-25.433594h194.894532c14.042968 0 25.429687 11.386719 25.429687 25.433594v63.3125zm0 0" fill="#999"/><path d="m341.332031 280.347656-4.59375-5.050781-73.140625 66.492187h-90.292968l-70.90625-64.460937v-60.292969c.019531-10.277344 8.332031-18.589844 18.605468-18.609375h194.894532c10.273437.019531 18.585937 8.332031 18.605468 18.609375v63.3125h6.828125l-4.59375-5.050781 4.59375 5.050781h6.828125v-63.3125c-.003906-17.820312-14.441406-32.257812-32.261718-32.261718h-194.894532c-17.820312.003906-32.253906 14.441406-32.257812 32.261718v63.3125c0 1.925782.808594 3.753906 2.234375 5.050782l75.09375 68.265624c1.25 1.136719 2.898437 1.773438 4.589843 1.773438h95.574219c1.691407 0 3.339844-.636719 4.59375-1.773438l75.09375-68.265624c1.421875-1.296876 2.234375-3.125 2.234375-5.050782zm0 0" fill="#54596e"/><path d="m334.503906 160.878906c0-62.207031-51.957031-112.636718-116.050781-112.636718-64.097656 0-116.054687 50.429687-116.054687 112.636718 0 62.210938 51.957031 112.640625 116.054687 112.640625 64.09375 0 116.050781-50.429687 116.050781-112.640625zm0 0" fill="#54596e"/><path d="m334.503906 113.09375c0-62.207031-51.957031-105.8125-116.050781-105.8125s-116.054687 43.605469-116.054687 105.8125 51.960937 133.121094 116.054687 133.121094 116.050781-70.914063 116.050781-133.121094zm0 0" fill="#999"/><path d="m334.503906 113.09375h6.828125c.03125-33.03125-13.917969-61.492188-36.28125-81.335938-22.359375-19.875-53.007812-31.304687-86.597656-31.304687-33.59375 0-64.242187 11.425781-86.597656 31.304687-22.367188 19.84375-36.316407 48.308594-36.285157 81.335938.046876 33.003906 13.609376 67.527344 35.550782 94.226562 10.984375 13.339844 24.117187 24.722657 38.875 32.824219 14.742187 8.097657 31.160156 12.898438 48.457031 12.894531 17.289063.003907 33.710937-4.796874 48.457031-12.894531 22.132813-12.164062 40.613282-31.660156 53.679688-54.167969 13.046875-22.527343 20.726562-48.128906 20.742187-72.882812h-13.652343c.042968 29.203125-12.371094 61.238281-32.4375 85.546875-10.011719 12.164063-21.890626 22.398437-34.902344 29.535156-13.023438 7.144531-27.132813 11.207031-41.886719 11.210938-14.753906-.003907-28.867187-4.066407-41.890625-11.210938-19.519531-10.695312-36.480469-28.40625-48.4375-49.050781-11.980469-20.628906-18.914062-44.132812-18.898438-66.03125.027344-29.175781 12.0625-53.621094 31.699219-71.132812 19.644531-17.476563 47.023438-27.855469 77.527344-27.855469 30.5 0 57.878906 10.378906 77.523437 27.855469 19.636719 17.511718 31.671876 41.957031 31.703126 71.132812zm0 0" fill="#54596e"/><path d="m321.300781 7.28125c.710938 6.113281 1.203125 12.34375 1.203125 18.824219 0 72.941406-46.585937 156.074219-104.050781 156.074219-57.46875 0-104.050781-83.132813-104.050781-156.070313 0-6.480469.488281-12.714844 1.199218-18.828125-20.644531 21.359375-33.21875 49.832031-33.21875 82.859375 0 72.933594 60.921876 156.074219 136.070313 156.074219 75.144531 0 136.066406-83.140625 136.066406-156.074219 0-33.027344-12.574219-61.5-33.21875-82.859375zm0 0" fill="#999"/><path d="m321.300781 7.28125-6.777343.785156c.6875 5.945313 1.152343 11.90625 1.152343 18.039063.035157 35.023437-11.3125 73.050781-29.421875 101.753906-9.035156 14.359375-19.734375 26.371094-31.277344 34.644531-11.566406 8.289063-23.832031 12.847656-36.523437 12.851563-12.6875-.003907-24.953125-4.5625-36.519531-12.851563-17.328125-12.394531-32.695313-33.269531-43.519532-57.726562-10.851562-24.441406-17.195312-52.40625-17.1875-78.667969 0-6.136719.464844-12.097656 1.15625-18.039063.339844-2.910156-1.214843-5.707031-3.859374-6.960937-2.648438-1.25-5.792969-.675781-7.828126 1.429687-21.804687 22.515626-35.160156 52.824219-35.136718 87.601563.042968 38.367187 15.847656 78.628906 41.410156 109.726563 12.796875 15.539062 28.085938 28.785156 45.234375 38.199218 17.140625 9.414063 36.191406 14.976563 56.25 14.972656 20.054687.003907 39.105469-5.558593 56.246094-14.972656 25.722656-14.132812 47.261719-36.835937 62.484375-63.066406 15.207031-26.246094 24.144531-56.082031 24.160156-84.859375.023438-34.777344-13.332031-65.085937-35.136719-87.605469-2.03125-2.105468-5.179687-2.679687-7.828125-1.425781-2.644531 1.25-4.195312 4.050781-3.859375 6.957031l6.78125-.785156-4.90625 4.742188c19.484375 20.199218 31.273438 46.839843 31.296875 78.117187.046875 34.5625-14.609375 72.339844-38.296875 101.046875-11.820312 14.363281-25.855469 26.457031-41.261719 34.910156-15.417968 8.457032-32.164062 13.285156-49.679687 13.289063-17.515625-.003907-34.261719-4.835938-49.679687-13.289063-23.109376-12.667968-43.125-33.585937-57.246094-57.949218-14.132813-24.351563-22.332032-52.089844-22.316406-78.007813.027343-31.277344 11.816406-57.917969 31.300781-78.117187l-4.910157-4.742188-6.78125-.789062c-.730468 6.285156-1.246093 12.789062-1.246093 19.613281.035156 37.917969 11.980469 77.929687 31.527343 109.027343 9.792969 15.542969 21.515626 28.871094 34.871094 38.464844 13.328125 9.578125 28.433594 15.414063 44.480469 15.410156 16.042969.003907 31.152344-5.832031 44.480469-15.410156 20.019531-14.402344 36.425781-37.152344 48.039062-63.289062 11.589844-26.152344 18.347656-55.761719 18.355469-84.203125 0-6.824219-.515625-13.328125-1.246094-19.613281l-6.78125.789062-4.90625 4.742188zm0 0" fill="#54596e"/><path d="m239.757812 375.921875h-42.613281c-14.394531 0-25.84375-12.066406-25.085937-26.449219l4.441406-84.390625c.554688-10.574219 9.292969-18.867187 19.886719-18.867187h44.128906c10.589844 0 19.332031 8.292968 19.886719 18.867187l4.441406 84.390625c.757812 14.382813-10.691406 26.449219-25.085938 26.449219zm0 0" fill="#999"/><g fill="#54596e"><path d="m239.757812 375.921875v-6.828125h-42.613281c-10.152343-.019531-18.277343-8.257812-18.296875-18.273438l.027344-.976562 4.441406-84.40625c.359375-6.945312 6.113282-12.402344 13.070313-12.398438h44.128906c6.957031-.003906 12.710937 5.453126 13.070313 12.398438l4.441406 84.394531.027344.984375c-.019532 10.015625-8.148438 18.257813-18.296876 18.277344v13.652344c17.734376-.007813 31.945313-14.386719 31.949219-31.925782l-.046875-1.703124-4.4375-84.394532c-.753906-14.203125-12.480468-25.332031-26.707031-25.335937h-44.128906c-14.226563.003906-25.953125 11.132812-26.707031 25.335937l-4.441407 84.390625-.042969 1.707031c.003907 17.539063 14.214844 31.914063 31.949219 31.925782h42.613281zm0 0"/><path d="m85.332031 403.226562c-5.65625 0-10.242187-4.585937-10.242187-10.238281v-126.292969h20.480468v126.292969c0 5.652344-4.582031 10.238281-10.238281 10.238281zm0 0"/><path d="m119.464844 403.226562c-5.65625 0-10.238282-4.585937-10.238282-10.238281v-92.160156h9.339844c6.152344 0 11.136719 4.984375 11.136719 11.136719v81.023437c0 5.652344-4.582031 10.238281-10.238281 10.238281zm0 0"/><path d="m351.570312 403.226562c5.65625 0 10.242188-4.585937 10.242188-10.238281v-126.292969h-20.480469v126.292969c0 5.652344 4.582031 10.238281 10.238281 10.238281zm0 0"/><path d="m317.4375 403.226562c5.65625 0 10.242188-4.585937 10.242188-10.238281v-92.160156h-9.34375c-6.152344 0-11.136719 4.984375-11.136719 11.136719v81.023437c0 5.652344 4.582031 10.238281 10.238281 10.238281zm0 0"/></g></svg>