<svg height="436pt" viewBox="0 0 436 436.90792" width="436pt" xmlns="http://www.w3.org/2000/svg"><path d="m355.441406 197.972656c0 11.3125-9.171875 20.480469-20.480468 20.480469-11.3125 0-20.480469-9.167969-20.480469-20.480469 0-11.308594 9.167969-20.480468 20.480469-20.480468 11.308593 0 20.480468 9.171874 20.480468 20.480468zm0 0" fill="#bfad88"/><path d="m355.441406 197.972656h6.824219c0-15.085937-12.21875-27.304687-27.304687-27.304687-15.085938 0-27.304688 12.21875-27.308594 27.304687.003906 15.085938 12.222656 27.304688 27.308594 27.308594 15.085937-.003906 27.304687-12.222656 27.304687-27.308594h-13.652344c-.011719 7.542969-6.109375 13.640625-13.652343 13.652344-7.542969-.011719-13.640626-6.109375-13.652344-13.652344.011718-7.542968 6.109375-13.640625 13.652344-13.652344 7.542968.011719 13.640624 6.109376 13.652343 13.652344zm0 0" fill="#54596e"/><path d="m123.332031 197.972656c0 11.3125-9.167969 20.480469-20.476562 20.480469-11.3125 0-20.480469-9.167969-20.480469-20.480469 0-11.308594 9.167969-20.480468 20.480469-20.480468 11.308593 0 20.476562 9.171874 20.476562 20.480468zm0 0" fill="#bfad88"/><path d="m123.332031 197.972656h6.828125c-.003906-15.085937-12.222656-27.304687-27.304687-27.304687-15.085938 0-27.304688 12.21875-27.308594 27.304687.003906 15.085938 12.222656 27.304688 27.308594 27.308594 15.082031-.003906 27.300781-12.222656 27.304687-27.308594h-13.652344c-.015624 7.542969-6.113281 13.640625-13.652343 13.652344-7.542969-.011719-13.640625-6.109375-13.65625-13.652344.015625-7.542968 6.113281-13.640625 13.65625-13.652344 7.539062.011719 13.636719 6.109376 13.652343 13.652344zm0 0" fill="#54596e"/><path d="m212.082031 409.601562v20.476563c0 3.773437 3.054688 6.828125 6.824219 6.828125s6.828125-3.054688 6.828125-6.828125v-20.476563c0-3.773437-3.058594-6.828124-6.828125-6.828124s-6.824219 3.054687-6.824219 6.828124" fill="#54596e"/><path d="m413.15625 344.679688-105.503906-16.402344v-55.210938h-177.492188v55.332032l-105.246094 16.457031c-10.21875 1.917969-17.632812 10.84375-17.632812 21.25v63.972656h423.253906v-64.191406c0-10.308594-7.273437-19.179688-17.378906-21.207031zm0 0" fill="#ededed"/><path d="m413.15625 344.679688 1.046875-6.746094-99.722656-15.5v-49.367188c0-1.796875-.730469-3.554687-2-4.828125-1.269531-1.269531-3.03125-2-4.828125-2h-177.492188c-1.796875 0-3.554687.730469-4.828125 2-1.269531 1.273438-2 3.03125-2 4.828125v49.492188l-99.472656 15.550781-.207031.035156c-13.445313 2.53125-23.195313 14.269531-23.199219 27.964844v63.96875c0 1.800781.730469 3.558594 2 4.828125 1.273437 1.273438 3.03125 2 4.828125 2h423.253906c1.796875 0 3.554688-.726562 4.824219-2 1.273437-1.269531 2-3.027344 2-4.828125v-64.191406c0-13.5625-9.566406-25.234375-22.863281-27.898438l-.292969-.054687-1.046875 6.746094-1.34375 6.695312c6.917969 1.382812 11.898438 7.460938 11.894531 14.511719v57.367187h-409.601562v-57.148437c0-7.117188 5.078125-13.230469 12.070312-14.542969l-1.261719-6.707031 1.054688 6.742187 105.246094-16.453125c3.316406-.519531 5.773437-3.386719 5.773437-6.746093v-48.507813h163.839844v48.390625c0 3.359375 2.457031 6.226562 5.777344 6.746094l105.5 16.398437 1.050781-6.746093-1.34375 6.695312zm0 0" fill="#54596e"/><path d="m341.789062 368.640625v-54.613281h-245.761718v54.613281" fill="#ededed"/><path d="m348.613281 368.640625v-54.613281c0-1.800782-.726562-3.558594-2-4.828125-1.269531-1.273438-3.027343-2-4.824219-2h-245.761718c-1.796875 0-3.558594.726562-4.828125 2-1.269531 1.269531-2 3.027343-2 4.828125v54.613281c0 3.769531 3.058593 6.824219 6.828125 6.824219 3.769531 0 6.828125-3.054688 6.828125-6.824219v-47.789063h232.105469v47.789063c0 3.769531 3.054687 6.824219 6.828124 6.824219 3.769532 0 6.824219-3.054688 6.824219-6.824219zm0 0" fill="#54596e"/><path d="m341.789062 314.027344c0-22.621094-55.015624-40.960938-122.882812-40.960938-67.863281 0-122.878906 18.339844-122.878906 40.960938s55.015625 40.960937 122.878906 40.960937c67.867188 0 122.882812-18.339843 122.882812-40.960937zm0 0" fill="#54596e"/><path d="m341.789062 314.027344h6.824219c.007813-4.230469-1.324219-8.296875-3.503906-11.828125-3.855469-6.199219-10.027344-11.089844-17.828125-15.398438-11.730469-6.414062-27.421875-11.453125-45.925781-15.011719-18.492188-3.542968-39.773438-5.550781-62.449219-5.550781-34.5625.011719-65.84375 4.628907-89.046875 12.347657-11.613281 3.886718-21.230469 8.507812-28.402344 14.136718-3.578125 2.824219-6.566406 5.929688-8.75 9.480469-2.183593 3.527344-3.515625 7.597656-3.507812 11.824219-.007813 4.230468 1.324219 8.296875 3.507812 11.828125 3.851563 6.199219 10.027344 11.085937 17.828125 15.394531 11.726563 6.417969 27.417969 11.453125 45.921875 15.015625 18.496094 3.542969 39.777344 5.546875 62.453125 5.546875 34.558594-.011719 65.84375-4.625 89.046875-12.347656 11.613281-3.886719 21.230469-8.503906 28.402344-14.132813 3.578125-2.824219 6.566406-5.929687 8.75-9.480469 2.183594-3.53125 3.515625-7.597656 3.507813-11.824218h-13.65625c-.007813 1.425781-.394532 2.878906-1.488282 4.683594-1.875 3.128906-6.191406 6.996093-12.757812 10.570312-9.824219 5.40625-24.410156 10.230469-41.929688 13.574219-17.523437 3.359375-38.015625 5.304687-59.878906 5.304687-33.304688.011719-63.464844-4.542968-84.730469-11.648437-10.625-3.527344-19-7.734375-24.265625-11.90625-2.640625-2.074219-4.480468-4.117188-5.566406-5.898438-1.09375-1.800781-1.480469-3.253906-1.488281-4.683593.007812-1.425782.394531-2.878907 1.488281-4.679688 1.875-3.132812 6.1875-7 12.757812-10.574219 9.824219-5.40625 24.410157-10.230469 41.925782-13.574219 17.53125-3.363281 38.015625-5.304687 59.882812-5.304687 33.304688-.011719 63.464844 4.542969 84.730469 11.648437 10.625 3.523438 19 7.730469 24.265625 11.90625 2.640625 2.074219 4.480469 4.113282 5.566406 5.898438 1.09375 1.800781 1.480469 3.253906 1.488282 4.679688h6.828124zm0 0" fill="#54596e"/><path d="m130.160156 334.507812v-75.09375h177.492188v75.09375" fill="#999"/><path d="m136.988281 334.507812v-68.269531h163.839844v68.269531c0 3.769532 3.054687 6.824219 6.824219 6.824219 3.773437 0 6.828125-3.054687 6.828125-6.824219v-75.09375c0-1.800781-.730469-3.554687-2-4.828124-1.269531-1.269532-3.03125-2-4.828125-2h-177.492188c-1.796875 0-3.554687.726562-4.828125 2-1.269531 1.269531-2 3.027343-2 4.828124v75.09375c0 3.769532 3.058594 6.824219 6.828125 6.824219 3.769532 0 6.828125-3.054687 6.828125-6.824219zm0 0" fill="#54596e"/><path d="m243.148438 20.480469h-48.480469c-46.933594 0-84.988281 38.054687-84.988281 84.988281v117.957031c0 50.039063 40.5625 90.601563 90.601562 90.601563h37.253906c50.039063 0 90.597656-40.5625 90.597656-90.601563v-117.957031c0-46.933594-38.050781-84.988281-84.984374-84.988281zm0 0" fill="#bfad88"/><path d="m243.148438 20.480469v-6.828125h-48.480469c-50.707031.003906-91.808594 41.105468-91.8125 91.816406v117.957031c0 53.8125 43.613281 97.421875 97.425781 97.425781h37.253906c53.8125-.003906 97.421875-43.613281 97.425782-97.425781v-117.957031c-.003907-50.710938-41.105469-91.8125-91.8125-91.816406v13.65625c21.601562 0 41.097656 8.738281 55.265624 22.894531 14.152344 14.164063 22.886719 33.664063 22.894532 55.265625v117.960938c-.003906 23.15625-9.367188 44.054687-24.535156 59.234374-15.183594 15.171876-36.082032 24.53125-59.238282 24.535157h-37.253906c-23.15625-.003907-44.054688-9.367188-59.238281-24.535157-15.167969-15.179687-24.53125-36.078124-24.535157-59.234374v-117.960938c.003907-21.605469 8.738282-41.101562 22.894532-55.269531 14.167968-14.15625 33.664062-22.890625 55.269531-22.894531h48.480469v-6.824219zm0 0" fill="#54596e"/><path d="m184.773438 167.253906c0 5.65625-4.585938 10.238282-10.238282 10.238282-5.65625 0-10.242187-4.582032-10.242187-10.238282s4.585937-10.242187 10.242187-10.242187c5.652344 0 10.238282 4.585937 10.238282 10.242187zm0 0" fill="#54596e"/><path d="m266.695312 430.078125c0-26.390625-21.394531-47.785156-47.789062-47.785156-26.390625 0-47.785156 21.394531-47.785156 47.785156zm0 0" fill="#ff927d"/><g fill="#54596e"><path d="m266.695312 430.078125h6.824219c-.003906-30.164063-24.445312-54.609375-54.613281-54.613281-30.164062.003906-54.609375 24.449218-54.613281 54.613281 0 1.800781.730469 3.558594 2 4.828125 1.273437 1.273438 3.03125 2 4.828125 2h95.574218c1.796876 0 3.554688-.726562 4.824219-2 1.273438-1.269531 2-3.027344 2-4.828125h-6.824219v-6.824219h-95.574218v6.824219h6.828125c0-11.332031 4.570312-21.53125 11.996093-28.960937 7.429688-7.421876 17.628907-11.992188 28.960938-11.996094 11.335938.003906 21.53125 4.574218 28.964844 11.996094 7.421875 7.429687 11.992187 17.628906 11.996094 28.960937h6.828124v-6.824219zm0 0"/><path d="m322.28125 399.457031 20.480469 34.132813c1.9375 3.234375 6.132812 4.28125 9.363281 2.34375 3.234375-1.941406 4.285156-6.136719 2.34375-9.367188l-20.480469-34.132812c-1.941406-3.234375-6.132812-4.28125-9.367187-2.34375-3.230469 1.941406-4.28125 6.136718-2.339844 9.367187"/><path d="m349.585938 399.457031 20.480468 34.132813c1.941406 3.234375 6.132813 4.28125 9.367188 2.34375 3.230468-1.941406 4.28125-6.136719 2.339844-9.367188l-20.480469-34.132812c-1.9375-3.234375-6.132813-4.28125-9.363281-2.34375-3.234376 1.941406-4.285157 6.136718-2.34375 9.367187"/><path d="m294.972656 399.457031 20.480469 34.132813c1.941406 3.234375 6.132813 4.28125 9.367187 2.34375 3.230469-1.941406 4.28125-6.136719 2.339844-9.367188l-20.480468-34.132812c-1.9375-3.234375-6.132813-4.28125-9.363282-2.34375-3.234375 1.941406-4.285156 6.136718-2.34375 9.367187"/><path d="m103.828125 392.433594-20.480469 34.132812c-1.941406 3.234375-.890625 7.425782 2.339844 9.367188 3.234375 1.941406 7.425781.890625 9.367188-2.339844l20.480468-34.132812c1.9375-3.234376.890625-7.425782-2.34375-9.367188-3.230468-1.941406-7.425781-.894531-9.363281 2.339844"/><path d="m76.519531 392.433594-20.480469 34.132812c-1.9375 3.234375-.890624 7.425782 2.34375 9.367188 3.230469 1.941406 7.425782.890625 9.363282-2.339844l20.480468-34.132812c1.941407-3.234376.890626-7.425782-2.339843-9.367188-3.234375-1.941406-7.425781-.894531-9.367188 2.339844"/><path d="m131.132812 392.433594-20.480468 34.132812c-1.9375 3.234375-.890625 7.425782 2.34375 9.367188 3.230468 1.941406 7.425781.890625 9.363281-2.339844l20.480469-34.132812c1.941406-3.234376.890625-7.425782-2.339844-9.367188-3.234375-1.941406-7.425781-.894531-9.367188 2.339844"/></g><path d="m289.480469 281.425781-22.785157-15.1875 13.652344-51.199219-61.441406-10.238281v-197.972656h4.746094c57.707031 0 104.480468 46.769531 104.480468 104.480469v149.433594c0 19.859374-22.132812 31.703124-38.652343 20.683593zm0 0" fill="#ededed"/><path d="m289.480469 281.425781 3.785156-5.679687-18.714844-12.476563 12.394531-46.472656c.496094-1.859375.183594-3.835937-.859374-5.457031-1.042969-1.617188-2.71875-2.71875-4.617188-3.035156l-55.734375-9.289063v-192.1875h-6.828125v6.824219h4.746094c26.992187.003906 51.363281 10.921875 69.054687 28.601562 17.679688 17.691406 28.59375 42.0625 28.597657 69.054688v149.433594c-.015626 5.414062-2.144532 9.765624-5.5 12.992187-3.355469 3.207031-7.957032 5.09375-12.605469 5.082031-3.332031-.007812-6.695313-.917968-9.933594-3.070312l-7.570313 11.359375c5.464844 3.652343 11.589844 5.371093 17.507813 5.367187 8.28125-.007812 16.144531-3.261718 22.023437-8.851562 5.878907-5.570313 9.753907-13.671875 9.734376-22.878906v-149.433594c-.003907-61.480469-49.828126-111.30468775-111.308594-111.308594h-4.746094c-1.796875 0-3.554688.726562-4.828125 2-1.269531 1.269531-1.996094 3.027344-1.996094 4.828125v197.972656c0 3.335938 2.410157 6.183594 5.703125 6.730469l54.027344 9.007812-11.714844 43.941407c-.757812 2.828125.371094 5.816406 2.808594 7.4375l22.785156 15.1875zm0 0" fill="#54596e"/><path d="m287.175781 150.1875s-6.828125 40.960938-42.59375 24.671875c0 0-3.289062-23.445313 42.59375-24.671875zm0 0" fill="#ff927d"/><path d="m232.5625 81.921875c0 7.539063-6.113281 13.652344-13.65625 13.652344-7.539062 0-13.652344-6.113281-13.652344-13.652344 0-7.542969 6.113282-13.65625 13.652344-13.65625 7.542969 0 13.65625 6.113281 13.65625 13.65625zm0 0" fill="#55a6ff"/><path d="m239.386719 286.71875h-40.960938l-13.652343 27.308594h68.265624zm0 0" fill="#ededed"/><path d="m239.386719 286.71875v-6.824219h-40.960938c-2.589843 0-4.945312 1.453125-6.105469 3.773438l-13.652343 27.304687c-1.0625 2.121094-.949219 4.625.296875 6.644532 1.25 2.015624 3.433594 3.234374 5.808594 3.234374h68.265624c2.375 0 4.5625-1.21875 5.808594-3.238281 1.246094-2.015625 1.359375-4.519531.296875-6.640625l-13.652343-27.308594c-1.160157-2.316406-3.515626-3.773437-6.105469-3.773437v6.828125l-6.109375 3.054688 8.714844 17.425781h-46.175782l6.828125-13.652344h36.742188v-6.828125l-6.105469 3.054688zm0 0" fill="#54596e"/><path d="m191.601562 252.585938h54.613282c3.769531 0 6.824218-3.054688 6.824218-6.824219 0-3.773438-3.054687-6.828125-6.824218-6.828125h-54.613282c-3.769531 0-6.828124 3.054687-6.828124 6.828125 0 3.769531 3.058593 6.824219 6.828124 6.824219" fill="#54596e"/></svg>