<svg height="436pt" viewBox="-20 0 436 436.8" width="436pt" xmlns="http://www.w3.org/2000/svg"><path d="m307.601562 136.5c0-15.101562-26-27.300781-58-27.300781s-58 12.199219-58 27.300781c0-15.101562-26-27.300781-58-27.300781s-58 12.199219-58 27.300781l-50.203124 160.898438c-2.296876 12.101562 6.902343 23.402343 19.300781 23.402343l146.902343 13.699219 146.796876-13.699219c12.300781 0 21.601562-11.300781 19.300781-23.402343zm0 0" fill="#8065c4"/><path d="m307.601562 136.5h6.796876c0-5.800781-2.597657-11.101562-6.296876-15.199219-5.703124-6.199219-14-10.699219-24-14-10-3.199219-21.800781-5-34.5-5-16.902343 0-32.203124 3.199219-43.902343 8.597657-5.800781 2.800781-10.800781 6.101562-14.597657 10.300781-3.703124 4.101562-6.300781 9.402343-6.300781 15.199219 0 1.800781.699219 3.601562 2 4.800781 1.300781 1.300781 3 2 4.800781 2 1.796876 0 3.597657-.699219 4.796876-2 1.300781-1.300781 2-3 2-4.800781 0-5.796876-2.597657-11.097657-6.296876-15.199219-5.703124-6.199219-14-10.699219-24-14-10-3.199219-21.800781-5-34.5-5-16.902343 0-32.203124 3.199219-43.902343 8.601562-5.800781 2.800781-10.800781 6.097657-14.597657 10.300781-3.703124 4.097657-6.300781 9.398438-6.300781 15.199219h6.800781l-6.5-2-50.203124 161.097657-.199219.703124c-.300781 1.699219-.5 3.398438-.5 5.097657 0 7.199219 2.902343 13.800781 7.601562 18.601562s11.398438 7.898438 18.800781 7.898438v-6.800781l-.601562 6.800781 146.898438 13.699219h1.300781l146.902343-13.699219-.601562-6.800781v6.800781c7.398438 0 14.101562-3.097657 18.800781-7.898438s7.597657-11.402343 7.597657-18.601562c0-1.699219-.199219-3.398438-.5-5.097657l-.199219-.703124-50.097657-160.898438-6.5 2h6.796876-6.796876l-6.5 2 50.097657 160.898438 6.5-2-6.699219 1.300781c.199219.800781.199219 1.699219.199219 2.5 0 3.402343-1.398438 6.601562-3.699219 9-2.300781 2.300781-5.5 3.800781-9.101562 3.800781h-.597657l-146.199219 13.601562-146.203124-13.601562h-.597657c-3.601562 0-6.800781-1.5-9.101562-3.800781-2.300781-2.398438-3.699219-5.597657-3.699219-9 0-.800781.101562-1.597657.199219-2.5l-6.800781-1.300781 6.5 2 50.101562-160.898438c.199219-.699219.300781-1.300781.300781-2 0-1.699219.699219-3.699219 2.800781-6.101562 3.097657-3.597657 9.5-7.398438 18-10.097657s19-4.300781 30.398438-4.300781c15.101562 0 28.800781 2.898438 38.101562 7.300781 4.699219 2.199219 8.199219 4.699219 10.296876 7.097657 2.101562 2.402343 2.800781 4.300781 2.800781 6.101562s.699219 3.601562 2 4.800781c1.300781 1.300781 3 2 4.800781 2s3.601562-.699219 4.800781-2c1.300781-1.300781 2-3 2-4.800781 0-1.699219.699219-3.699219 2.800781-6.101562 3.097657-3.597657 9.5-7.398438 18-10.097657s19-4.300781 30.398438-4.300781c15.101562 0 28.800781 2.898438 38.101562 7.300781 4.699219 2.199219 8.199219 4.699219 10.296876 7.097657 2.101562 2.402343 2.800781 4.300781 2.800781 6.101562 0 .699219.101562 1.398438.300781 2zm0 0" fill="#54596e"/><path d="m266.699219 307.101562h-136.597657c-67.902343 0-122.902343 55-122.902343 122.898438h382.300781c0-67.800781-55-122.898438-122.800781-122.898438zm0 0" fill="#fff"/><path d="m266.699219 307.101562v-6.800781h-136.597657c-71.601562 0-129.703124 58.097657-129.703124 129.699219 0 1.800781.703124 3.601562 2 4.800781 1.300781 1.300781 3 2 4.800781 2h382.300781c1.800781 0 3.601562-.699219 4.800781-2s2-3 2-4.800781c0-71.601562-58.101562-129.699219-129.699219-129.699219v13.597657c32.097657 0 61 13 82.097657 34 21 21 34 50 34 82.101562h6.800781v-6.800781h-382.199219v6.800781h6.800781c0-32.101562 13-61 34-82.101562 21-21 50-34 82.097657-34h136.5zm0 0" fill="#54596e"/><path d="m137 293.5h109.199219v136.5h-109.199219zm0 0" fill="#ededed"/><path d="m246.199219 293.5v-6.800781h-109.199219c-1.800781 0-3.601562.699219-4.800781 2-1.300781 1.300781-2 3-2 4.800781v136.5c0 1.800781.699219 3.601562 2 4.800781 1.300781 1.300781 3 2 4.800781 2h109.199219c1.800781 0 3.601562-.699219 4.800781-2 1.300781-1.300781 2-3 2-4.800781v-136.5c0-1.800781-.699219-3.601562-2-4.800781-1.300781-1.300781-3-2-4.800781-2v6.800781h-6.800781v129.699219h-95.597657v-122.898438h102.398438v-6.800781h-6.800781zm0 0" fill="#54596e"/><path d="m68.699219 88.699219-6.800781 137.601562 61.402343 101.300781 68.300781-6.800781 68.199219 6.800781 61.5-101.300781-6.800781-137.601562zm0 0" fill="#fff"/><path d="m68.699219 88.699219-6.800781-.300781-6.796876 137.601562c-.101562 1.398438.296876 2.699219 1 3.898438l61.398438 101.402343c1.398438 2.300781 3.898438 3.5 6.5 3.300781l67.601562-6.800781 67.597657 6.800781c2.601562.296876 5.199219-1 6.5-3.300781l61.402343-101.402343c.699219-1.199219 1-2.5 1-3.898438l-6.800781-137.601562c-.199219-3.597657-3.199219-6.5-6.800781-6.5h-245.800781c-3.597657 0-6.597657 2.800781-6.800781 6.5l6.800781.300781v6.800781h239.300781l6.398438 129-58.199219 95.898438-64-6.398438h-1.398438l-64 6.398438-58.101562-95.898438 6.699219-135.5-6.699219-.300781v6.800781zm0 0" fill="#54596e"/><path d="m259.800781 303.699219c-2 0-3.902343-.597657-5.699219-1.699219-4.703124-3.101562-6-9.5-2.800781-14.199219l54.597657-81.902343c3.101562-4.699219 9.5-6 14.203124-2.796876 4.699219 3.199219 6 9.5 2.796876 14.199219l-54.5 81.898438c-2 2.902343-5.296876 4.5-8.597657 4.5zm0 0" fill="#fff"/><path d="m259.800781 303.699219v-6.800781c-.699219 0-1.300781-.199219-1.902343-.597657-1-.699219-1.5-1.699219-1.5-2.902343 0-.699219.203124-1.296876.601562-1.898438l54.601562-81.898438c.699219-1 1.699219-1.5 2.796876-1.5.703124 0 1.300781.199219 1.902343.597657 1 .699219 1.5 1.699219 1.5 2.902343 0 .699219-.199219 1.296876-.601562 1.898438l-54.5 81.898438c-.699219 1-1.699219 1.5-2.800781 1.5l-.097657 6.800781v6.800781c5.5 0 10.898438-2.699219 14.199219-7.601562l54.601562-81.898438c1.898438-2.898438 2.898438-6.199219 2.898438-9.5 0-5.5-2.699219-10.898438-7.601562-14.199219-2.898438-1.902343-6.199219-2.902343-9.5-2.902343-5.5 0-10.898438 2.703124-14.199219 7.601562l-54.597657 81.898438c-1.902343 2.902343-2.902343 6.203124-2.902343 9.5 0 5.5 2.699219 10.902343 7.601562 14.203124 2.898438 1.898438 6.199219 2.898438 9.5 2.898438zm0 0" fill="#54596e"/><path d="m68.699219 201.300781c-2 0-3.898438.597657-5.699219 1.699219-4.699219 3.101562-6 9.5-2.800781 14.199219l54.601562 81.902343c3.097657 4.699219 9.5 6 14.199219 2.796876 4.699219-3.097657 6-9.5 2.800781-14.199219l-54.601562-81.898438c-2-2.902343-5.199219-4.5-8.5-4.5zm0 0" fill="#fff"/><path d="m68.699219 201.300781v-6.800781c-3.199219 0-6.597657.898438-9.5 2.898438-4.898438 3.300781-7.597657 8.703124-7.597657 14.203124 0 3.199219.898438 6.597657 2.898438 9.5l54.601562 81.898438c3.296876 4.898438 8.699219 7.601562 14.199219 7.601562 3.199219 0 6.597657-.902343 9.5-2.902343 4.898438-3.300781 7.597657-8.699219 7.597657-14.199219 0-3.199219-.898438-6.601562-2.898438-9.5l-54.601562-81.898438c-3.296876-4.902343-8.699219-7.601562-14.199219-7.601562v13.601562c1.101562 0 2.199219.5 2.800781 1.5l54.601562 81.898438c.398438.601562.597657 1.199219.597657 1.898438 0 1.101562-.5 2.203124-1.5 2.902343-.597657.398438-1.199219.597657-1.898438.597657-1.101562 0-2.199219-.5-2.902343-1.5l-54.597657-81.898438c-.402343-.601562-.601562-1.199219-.601562-1.898438 0-1.101562.5-2.203124 1.5-2.800781.601562-.402343 1.199219-.601562 1.902343-.601562zm0 0" fill="#54596e"/><path d="m328.101562 218.398438-27.300781-61.398438h-218.5l-27.300781 61.398438 6.800781-109c0-52.898438 42.898438-102.597657 95.800781-102.597657h67.898438c52.898438 0 95.800781 49.699219 95.800781 102.597657zm0 0" fill="#fff"/><path d="m328.101562 218.398438 6.199219-2.796876-27.300781-61.402343c-1.101562-2.5-3.5-4.097657-6.199219-4.097657h-218.5c-2.699219 0-5.101562 1.597657-6.199219 4.097657l-11.902343 26.699219 4.5-71.097657v-.402343c0-24.597657 10-48.699219 26.300781-66.5 16.300781-17.796876 38.398438-29.199219 62.699219-29.199219h67.902343c24.296876 0 46.398438 11.402343 62.699219 29.199219 16.199219 17.800781 26.300781 41.902343 26.300781 66.5v.402343l6.796876 109 6.703124-.402343 6.199219-2.796876-6.199219 2.796876 6.796876-.398438-6.796876-109-6.800781.398438h6.800781c0-28.296876-11.402343-55.5-29.800781-75.699219-18.402343-20.199219-44.101562-33.699219-72.800781-33.699219h-67.898438c-28.601562 0-54.402343 13.5-72.800781 33.699219-18.402343 20.300781-29.800781 47.402343-29.800781 75.699219h6.800781l-6.800781-.398438-6.800781 109c-.199219 3.300781 2 6.300781 5.199219 7.101562 3.203124.796876 6.5-.800781 7.902343-3.902343l25.5-57.398438h209.597657l25.5 57.398438c1.300781 3 4.703124 4.601562 7.902343 3.902343 3.199219-.800781 5.398438-3.800781 5.199219-7.101562zm0 0" fill="#54596e"/><path d="m287.101562 129.699219h-191.101562l-13.699219 27.300781h218.5zm0 0" fill="#54596e"/><path d="m287.101562 129.699219v-6.800781h-191.101562c-2.601562 0-4.898438 1.5-6.101562 3.800781l-13.699219 27.300781c-1.097657 2.101562-.898438 4.601562.300781 6.601562s3.398438 3.199219 5.800781 3.199219h218.5c2.398438 0 4.597657-1.199219 5.800781-3.199219 1.199219-2 1.398438-4.5.296876-6.601562l-13.699219-27.300781c-1.199219-2.300781-3.5-3.800781-6.097657-3.800781v6.800781l-6.101562 3.101562 8.699219 17.398438h-196.300781l6.800781-13.699219h186.902343v-6.800781l-6.101562 3.101562zm0 0" fill="#54596e"/><path d="m266.699219 307.101562c0 11.320313-9.175781 20.5-20.5 20.5-11.320313 0-20.5-9.179687-20.5-20.5 0-11.324218 9.179687-20.5 20.5-20.5 11.324219 0 20.5 9.175782 20.5 20.5zm0 0" fill="#fff"/><path d="m246.199219 337.898438c-16.898438 0-30.699219-13.796876-30.699219-30.699219 0-16.898438 13.800781-30.699219 30.699219-30.699219 16.902343 0 30.699219 13.800781 30.699219 30.699219 0 16.902343-13.796876 30.699219-30.699219 30.699219zm0-41c-5.597657 0-10.199219 4.601562-10.199219 10.203124 0 5.597657 4.601562 10.199219 10.199219 10.199219 5.601562 0 10.199219-4.601562 10.199219-10.199219 0-5.601562-4.597657-10.203124-10.199219-10.203124zm0 0" fill="#fff"/><path d="m246.199219 290.101562c-9.398438 0-17.097657 7.597657-17.097657 17.097657 0 9.402343 7.597657 17.101562 17.097657 17.101562 9.402343 0 17.101562-7.601562 17.101562-17.101562-.101562-9.5-7.699219-17.097657-17.101562-17.097657zm0 20.5c-1.898438 0-3.398438-1.5-3.398438-3.402343 0-1.898438 1.5-3.398438 3.398438-3.398438 1.902343 0 3.402343 1.5 3.402343 3.398438 0 1.800781-1.5 3.402343-3.402343 3.402343zm0 0" fill="#54596e"/><path d="m246.199219 269.601562c-20.699219 0-37.5 16.796876-37.5 37.5 0 20.699219 16.800781 37.5 37.5 37.5s37.5-16.800781 37.5-37.5c0-20.703124-16.800781-37.5-37.5-37.5zm16.902343 54.398438c-4.402343 4.300781-10.300781 7-16.902343 7-6.597657 0-12.5-2.699219-16.898438-7-4.300781-4.398438-7-10.300781-7-16.898438 0-6.601562 2.699219-12.5 7-16.902343 4.398438-4.300781 10.300781-7 16.898438-7 6.601562 0 12.5 2.699219 16.902343 7 4.296876 4.402343 7 10.300781 7 16.902343 0 6.597657-2.703124 12.597657-7 16.898438zm0 0" fill="#54596e"/><path d="m157.5 307.101562c0 11.320313-9.179688 20.5-20.5 20.5s-20.5-9.179687-20.5-20.5c0-11.324218 9.179688-20.5 20.5-20.5s20.5 9.175782 20.5 20.5zm0 0" fill="#fff"/><path d="m137 337.898438c-16.898438 0-30.699219-13.796876-30.699219-30.699219 0-16.898438 13.800781-30.699219 30.699219-30.699219s30.699219 13.800781 30.699219 30.699219c0 16.902343-13.800781 30.699219-30.699219 30.699219zm0-41c-5.601562 0-10.199219 4.601562-10.199219 10.203124 0 5.597657 4.597657 10.199219 10.199219 10.199219s10.199219-4.601562 10.199219-10.199219c0-5.601562-4.597657-10.203124-10.199219-10.203124zm0 0" fill="#fff"/><g fill="#54596e"><path d="m137 269.601562c-20.699219 0-37.5 16.796876-37.5 37.5 0 20.699219 16.800781 37.5 37.5 37.5s37.5-16.800781 37.5-37.5c0-20.703124-16.800781-37.5-37.5-37.5zm16.800781 54.398438c-4.402343 4.300781-10.300781 7-16.902343 7-6.597657 0-12.5-2.699219-16.898438-7-4.300781-4.398438-7-10.300781-7-16.898438 0-6.601562 2.699219-12.5 7-16.902343 4.398438-4.300781 10.300781-7 16.898438-7 6.601562 0 12.5 2.699219 16.902343 7 4.300781 4.402343 7 10.300781 7 16.902343 0 6.597657-2.601562 12.597657-7 16.898438zm0 0"/><path d="m137 290.101562c-9.398438 0-17.101562 7.597657-17.101562 17.097657 0 9.402343 7.601562 17.101562 17.101562 17.101562 9.398438 0 17.101562-7.601562 17.101562-17.101562-.101562-9.5-7.703124-17.097657-17.101562-17.097657zm0 20.5c-1.898438 0-3.398438-1.5-3.398438-3.402343 0-1.898438 1.5-3.398438 3.398438-3.398438s3.398438 1.5 3.398438 3.398438c0 1.800781-1.597657 3.402343-3.398438 3.402343zm0 0"/><path d="m171.101562 375.398438h41c3.796876 0 6.796876-3.097657 6.796876-6.796876 0-3.703124-3.097657-6.800781-6.796876-6.800781h-41c-3.800781 0-6.800781 3.097657-6.800781 6.800781 0 3.699219 3 6.796876 6.800781 6.796876"/><path d="m171.101562 395.898438h41c3.796876 0 6.796876-3.097657 6.796876-6.796876 0-3.800781-3.097657-6.800781-6.796876-6.800781h-41c-3.800781 0-6.800781 3.097657-6.800781 6.800781 0 3.699219 3 6.796876 6.800781 6.796876"/></g></svg>