<svg height="436pt" viewBox="0 -3 436.90667 436" width="436pt" xmlns="http://www.w3.org/2000/svg"><path d="m361.8125 191.601562c0 11.308594-9.167969 20.476563-20.480469 20.476563-11.308593 0-20.480469-9.167969-20.480469-20.476563 0-11.3125 9.171876-20.480468 20.480469-20.480468 11.3125 0 20.480469 9.167968 20.480469 20.480468zm0 0" fill="#adf2a2"/><path d="m361.8125 191.601562h6.828125c-.003906-15.085937-12.222656-27.304687-27.308594-27.308593-15.082031.003906-27.300781 12.222656-27.304687 27.308593.003906 15.082032 12.222656 27.300782 27.304687 27.304688 15.085938 0 27.304688-12.222656 27.308594-27.304688h-13.652344c-.015625 7.539063-6.113281 13.636719-13.65625 13.652344-7.539062-.015625-13.636719-6.113281-13.652343-13.652344.015624-7.542968 6.113281-13.640624 13.652343-13.65625 7.542969.015626 13.640625 6.113282 13.65625 13.65625zm0 0" fill="#54596e"/><path d="m116.054688 191.601562c0 11.308594-9.171876 20.476563-20.480469 20.476563-11.3125 0-20.480469-9.167969-20.480469-20.476563 0-11.3125 9.167969-20.480468 20.480469-20.480468 11.308593 0 20.480469 9.167968 20.480469 20.480468zm0 0" fill="#adf2a2"/><path d="m116.054688 191.601562h6.824218c-.003906-15.085937-12.21875-27.304687-27.304687-27.308593-15.085938.003906-27.304688 12.222656-27.308594 27.308593.003906 15.082032 12.222656 27.300782 27.308594 27.304688 15.085937 0 27.300781-12.222656 27.304687-27.304688h-13.652344c-.011718 7.539063-6.113281 13.636719-13.652343 13.652344-7.542969-.015625-13.640625-6.113281-13.652344-13.652344.011719-7.542968 6.109375-13.640624 13.652344-13.65625 7.539062.015626 13.640625 6.113282 13.652343 13.65625zm0 0" fill="#54596e"/><path d="m412.699219 338.308594-85.019531-16.402344v-55.214844h-218.453126v55.335938l-84.765624 16.453125c-10.21875 1.917969-17.632813 10.847656-17.632813 21.25v63.976562h423.25v-64.191406c0-10.308594-7.273437-19.183594-17.378906-21.207031" fill="#adf2a2"/><path d="m412.699219 338.308594 1.292969-6.707032-79.484376-15.332031v-49.578125c0-1.796875-.726562-3.554687-1.996093-4.828125-1.277344-1.269531-3.035157-1.996093-4.832031-1.996093h-218.453126c-1.796874 0-3.554687.726562-4.828124 1.996093-1.269532 1.273438-1.996094 3.03125-1.996094 4.828125v49.707032l-79.242188 15.378906.039063-.007813c-13.449219 2.53125-23.19531275 14.269531-23.199219 27.964844v63.972656c0 1.796875.730469 3.554688 2 4.824219 1.273438 1.277344 3.03125 2.003906 4.828125 2.003906h423.25c1.800781 0 3.558594-.726562 4.828125-2.003906 1.273438-1.269531 2-3.027344 2-4.824219v-64.191406c0-13.5625-9.566406-25.234375-22.863281-27.902344l-.050781-.007812-1.292969 6.703125-1.339844 6.691406c6.917969 1.382812 11.898437 7.460938 11.894531 14.511719v57.367187h-409.601562v-57.144531c-.003906-7.117187 5.074218-13.230469 12.066406-14.542969l.039062-.007812 84.769532-16.453125c3.21875-.625 5.527344-3.425781 5.527344-6.699219v-48.511719h204.796874v48.386719c0 3.277344 2.316407 6.082031 5.535157 6.703125l85.019531 16.398437-.046875-.007812z" fill="#54596e"/><path d="m320.851562 273.519531h-204.796874v48.507813c0 3.273437-2.308594 6.074218-5.527344 6.699218l-9.296875 1.804688c5.121093 6.828125 13.265625 11.253906 22.464843 11.253906h189.519532c9.246094 0 17.425781-4.476562 22.539062-11.371094l-9.371094-1.808593c-3.21875-.621094-5.53125-3.421875-5.53125-6.699219z" fill="#a0db9a"/><path d="m327.679688 266.691406h-218.453126v55.335938l-11.546874 2.238281c.917968 2.25 2.113281 4.351563 3.550781 6.265625l9.296875-1.800781c3.21875-.625 5.527344-3.429688 5.527344-6.703125v-48.507813h204.796874v48.386719c0 3.277344 2.316407 6.082031 5.535157 6.703125l9.371093 1.804687c1.417969-1.917968 2.605469-4.023437 3.511719-6.273437l-11.589843-2.234375z" fill="#54596e"/><path d="m313.214844 307.652344h-189.519532c-15.527343 0-28.121093-12.59375-28.121093-28.121094v-190.332031h245.757812v190.332031c0 15.527344-12.59375 28.121094-28.117187 28.121094zm0 0" fill="#adf2a2"/><path d="m313.214844 307.652344v-6.824219h-189.519532c-11.753906-.023437-21.273437-9.542969-21.296874-21.296875v-183.507812h232.109374v183.507812c-.023437 11.753906-9.542968 21.273438-21.296874 21.296875v13.652344c19.300781-.003907 34.941406-15.644531 34.949218-34.945313v-190.335937c0-1.796875-.730468-3.554688-2-4.828125-1.269531-1.269532-3.03125-1.996094-4.828125-1.996094h-245.757812c-1.796875 0-3.558594.726562-4.828125 1.996094-1.269532 1.273437-2 3.03125-2 4.828125v190.332031c.003906 19.300781 15.644531 34.941406 34.949218 34.945312h189.519532zm0 0" fill="#54596e"/><path d="m150.1875 341.785156v-34.132812c0-3.769532-3.058594-6.824219-6.828125-6.824219s-6.824219 3.054687-6.824219 6.824219v34.132812c0 3.773438 3.054688 6.828125 6.824219 6.828125s6.828125-3.054687 6.828125-6.828125" fill="#54596e"/><path d="m211.625 403.226562v20.480469c0 3.769531 3.058594 6.828125 6.828125 6.828125s6.828125-3.058594 6.828125-6.828125v-20.480469c0-3.769531-3.058594-6.828124-6.828125-6.828124s-6.828125 3.058593-6.828125 6.828124" fill="#54596e"/><path d="m286.71875 307.652344v61.441406c0 3.769531 3.058594 6.828125 6.828125 6.828125s6.828125-3.058594 6.828125-6.828125v-61.441406c0-3.769532-3.058594-6.824219-6.828125-6.824219s-6.828125 3.054687-6.828125 6.824219" fill="#54596e"/><path d="m292.191406 7.28125h-190.605468c-10.859376 0-19.664063 7.878906-19.664063 17.59375v98.457031l38.144531-34.132812h30.519532v34.132812l38.15625-34.132812h152.589843v-37.945313c0-24.289062-22-43.972656-49.140625-43.972656zm0 0" fill="#999"/><g fill="#54596e"><path d="m292.191406 7.28125v-6.828125h-190.605468c-7.085938 0-13.613282 2.5625-18.457032 6.894531-4.835937 4.300782-8.042968 10.566406-8.035156 17.527344v98.457031c0 2.699219 1.578125 5.132813 4.039062 6.230469 2.464844 1.101562 5.332032.65625 7.339844-1.144531l36.203125-32.394531h21.082031v27.308593c0 2.699219 1.578126 5.132813 4.042969 6.230469 2.460938 1.101562 5.328125.65625 7.335938-1.140625l36.210937-32.394531h149.984375c1.796875 0 3.554688-.726563 4.828125-2 1.269532-1.273438 2-3.03125 2-4.828125v-37.945313c.007813-14.246094-6.496094-27.105468-16.667968-36.179687-10.175782-9.105469-24.070313-14.617188-39.300782-14.621094v13.652344c11.914063 0 22.589844 4.328125 30.195313 11.140625 7.613281 6.839844 12.113281 15.964844 12.121093 26.007812v31.121094h-145.765624c-1.691407 0-3.292969.609375-4.554688 1.738281l-26.773438 23.953125v-18.867187c0-1.796875-.726562-3.554688-2-4.828125-1.269531-1.269532-3.027343-1.996094-4.824218-1.996094h-30.523438c-1.6875 0-3.292968.609375-4.550781 1.738281l-26.769531 23.949219v-83.1875c.007812-2.753906 1.207031-5.285156 3.488281-7.351562 2.273437-2.042969 5.582031-3.421876 9.351563-3.417969h190.609374v-6.824219zm0 0"/><path d="m177.492188 212.078125h77.699218l4.941406 9.882813c1.6875 3.371093 5.785157 4.738281 9.160157 3.050781 3.371093-1.683594 4.738281-5.785157 3.050781-9.15625l-6.824219-13.652344c-1.160156-2.320313-3.515625-3.773437-6.109375-3.773437h-81.917968c-3.769532 0-6.828126 3.054687-6.828126 6.824218.003907 3.769532 3.058594 6.824219 6.828126 6.824219zm0 0"/><path d="m136.535156 150.640625h163.839844c3.769531 0 6.824219-3.058594 6.824219-6.828125s-3.054688-6.824219-6.824219-6.824219h-163.839844c-3.773437 0-6.828125 3.054688-6.828125 6.824219s3.054688 6.828125 6.828125 6.828125"/><path d="m167.253906 164.292969-30.71875-20.480469h61.4375zm0 0"/><path d="m269.652344 164.292969-30.71875-20.480469h61.441406zm0 0"/><path d="m211.625 294v13.652344c0 3.769531 3.058594 6.828125 6.828125 6.828125s6.828125-3.058594 6.828125-6.828125v-13.652344c0-3.769531-3.058594-6.828125-6.828125-6.828125s-6.828125 3.058594-6.828125 6.828125"/></g></svg>