<svg height="423pt" viewBox="-9 0 423 423.25333" width="423pt" xmlns="http://www.w3.org/2000/svg"><path d="m70.101562 232.105469h6.824219v122.882812c0 7.539063 6.113281 13.652344 13.652344 13.652344 7.542969 0 13.65625-6.113281 13.65625-13.652344v-136.535156c0-3.597656-1.457031-7.113281-4-9.65625-2.542969-2.539063-6.058594-3.996094-9.65625-3.996094h-20.476563c-7.542968 0-13.65625 6.113281-13.65625 13.652344s6.113282 13.652344 13.65625 13.652344zm0 0" fill="#54596e"/><path d="m190.488281 286.71875v-13.652344h-42.804687c-1.371094 0-2.488282-1.121094-2.492188-2.488281v-35.984375c.003906-1.367188 1.121094-2.484375 2.492188-2.488281h42.804687c1.375 0 2.488281 1.121093 2.492188 2.488281v35.984375c-.003907 1.367187-1.117188 2.488281-2.492188 2.488281v27.308594c16.460938-.011719 29.789063-13.335938 29.796875-29.796875v-35.984375c-.007812-16.460938-13.335937-29.785156-29.796875-29.792969h-42.804687c-16.460938.007813-29.789063 13.332031-29.796875 29.792969v35.984375c.007812 16.460937 13.335937 29.785156 29.796875 29.796875h42.804687zm0 0" fill="#54596e"/><path d="m190.488281 354.988281v-13.65625h-42.804687c-1.371094 0-2.488282-1.121093-2.492188-2.484375v-35.988281c.003906-1.367187 1.121094-2.484375 2.492188-2.488281h42.804687c1.375.003906 2.488281 1.121094 2.492188 2.488281v35.988281c-.003907 1.363282-1.117188 2.484375-2.492188 2.484375v27.308594c16.460938-.007813 29.789063-13.332031 29.796875-29.792969v-35.988281c-.007812-16.460937-13.335937-29.785156-29.796875-29.792969h-42.804687c-16.460938.007813-29.789063 13.332032-29.796875 29.792969v35.988281c.007812 16.460938 13.335937 29.785156 29.796875 29.792969h42.804687zm0 0" fill="#54596e"/><path d="m276.605469 281.601562h6.828125c-.003906-78.234374-63.417969-141.652343-141.652344-141.65625-78.238281.003907-141.648438 63.421876-141.65625 141.65625.007812 78.230469 63.417969 141.648438 141.65625 141.652344 78.234375-.003906 141.648438-63.421875 141.652344-141.652344h-13.652344c-.003906 35.363282-14.316406 67.320313-37.492188 90.507813-23.183593 23.171875-55.140624 37.484375-90.507812 37.492187-35.371094-.003906-67.324219-14.320312-90.511719-37.492187-23.175781-23.1875-37.484375-55.144531-37.488281-90.507813.003906-35.367187 14.3125-67.324218 37.488281-90.511718 23.1875-23.171875 55.140625-37.488282 90.511719-37.488282 35.367188 0 67.324219 14.316407 90.507812 37.492188 23.171876 23.183594 37.488282 55.140625 37.492188 90.507812zm0 0" fill="#ff927d"/><path d="m397.78125 116.054688c0 60.324218-48.902344 109.226562-109.226562 109.226562-60.324219 0-109.226563-48.902344-109.226563-109.226562 0-60.324219 48.902344-109.226563 109.226563-109.226563 60.324218 0 109.226562 48.902344 109.226562 109.226563zm0 0" fill="#f4a14e"/><g fill="#54596e"><path d="m397.78125 116.054688h6.824219c-.003907-64.101563-51.957031-116.05078175-116.050781-116.054688-64.097657.00390625-116.050782 51.953125-116.054688 116.054688.003906 64.097656 51.957031 116.046874 116.054688 116.050781 64.09375-.003907 116.046874-51.953125 116.050781-116.050781h-13.652344c-.003906 28.296874-11.453125 53.855468-29.992187 72.40625-18.550782 18.542968-44.109376 29.988281-72.40625 29.992187-28.300782-.003906-53.855469-11.449219-72.410157-29.992187-18.539062-18.550782-29.988281-44.109376-29.992187-72.40625.003906-28.300782 11.453125-53.859376 29.992187-72.410157 18.554688-18.542969 44.109375-29.988281 72.410157-29.992187 28.296874.003906 53.855468 11.449218 72.40625 29.992187 18.539062 18.554688 29.988281 44.109375 29.992187 72.410157zm0 0"/><path d="m240.765625 75.09375c0 7.539062-6.113281 13.652344-13.652344 13.652344-7.539062 0-13.652343-6.113282-13.652343-13.652344s6.113281-13.652344 13.652343-13.652344c7.539063 0 13.652344 6.113282 13.652344 13.652344zm0 0"/><path d="m363.648438 75.09375c0 7.539062-6.113282 13.652344-13.65625 13.652344-7.539063 0-13.652344-6.113282-13.652344-13.652344s6.113281-13.652344 13.652344-13.652344c7.542968 0 13.65625 6.113282 13.65625 13.652344zm0 0"/><path d="m268.074219 122.878906h40.960937c3.769532 0 6.824219-3.054687 6.824219-6.824218 0-3.769532-3.054687-6.828126-6.824219-6.828126h-40.960937c-3.769531 0-6.828125 3.058594-6.828125 6.828126 0 3.769531 3.058594 6.824218 6.828125 6.824218"/></g></svg>