<svg height="436pt" viewBox="0 -3 436.90667 436" width="436pt" xmlns="http://www.w3.org/2000/svg"><path d="m430.078125 423.707031h-423.25v-20.871093c0-35.394532 25.210937-65.773438 60-72.300782l158.453125-29.707031 145.667969 29.132813c34.382812 6.878906 59.128906 37.066406 59.128906 72.125zm0 0" fill="#999"/><path d="m430.078125 423.707031v-6.828125h-416.425781v-14.042968c0-32.109376 22.878906-59.671876 54.433594-65.59375l157.152343-29.460938 144.371094 28.871094c31.195313 6.242187 53.648437 33.628906 53.644531 65.433594v21.621093h6.824219v-6.828125 6.828125h6.828125v-21.621093c0-38.316407-27.042969-71.300782-64.621094-78.820313l-145.667968-29.132813c-.84375-.167968-1.75-.175781-2.597657-.015624l-158.453125 29.707031c-38.015625 7.132812-65.566406 40.328125-65.566406 79.011719v20.871093c0 1.796875.730469 3.554688 2 4.824219 1.273438 1.273438 3.03125 2.003906 4.828125 2.003906h423.25c1.800781 0 3.558594-.730468 4.828125-2 1.273438-1.273437 2-3.03125 2-4.828125zm0 0" fill="#54596e"/><path d="m314.027344 389.574219h-191.148438l-6.824218-136.535157h204.796874zm0 0" fill="#ffd578"/><path d="m314.027344 389.574219v-6.828125h-184.65625l-6.140625-122.878906h190.445312l-6.46875 129.363281 6.820313.34375v-6.828125 6.828125l6.816406.339843 6.828125-136.53125c.09375-1.875-.578125-3.691406-1.871094-5.046874-1.292969-1.359376-3.074219-2.121094-4.949219-2.121094h-204.796874c-1.878907 0-3.65625.761718-4.949219 2.121094-1.289063 1.355468-1.964844 3.171874-1.871094 5.046874l6.828125 136.53125c.179688 3.640626 3.171875 6.484376 6.816406 6.484376h191.148438c3.644531 0 6.636718-2.84375 6.816406-6.484376zm0 0" fill="#54596e"/><path d="m157.011719 362.265625-54.613281-68.265625-47.785157 47.785156h40.960938l20.480469 47.789063h61.4375zm0 0" fill="#f99"/><path d="m157.011719 362.265625 5.332031-4.265625-54.613281-68.265625c-1.21875-1.523437-3.007813-2.441406-4.953125-2.550781-1.949219-.109375-3.824219.609375-5.207032 1.988281l-47.785156 47.789063c-1.953125 1.953124-2.535156 4.890624-1.480468 7.4375 1.058593 2.550781 3.546874 4.214843 6.308593 4.214843h36.457031l18.707032 43.648438c1.078125 2.519531 3.535156 4.136719 6.277344 4.136719h61.4375c2.59375 0 4.949218-1.453126 6.109374-3.773438 1.15625-2.316406.90625-5.074219-.648437-7.148438l-20.476563-27.304687-.132812-.171875-5.332031 4.265625-5.460938 4.097656 12.289063 16.382813h-43.285156l-18.707032-43.648438c-1.078125-2.519531-3.535156-4.136718-6.273437-4.136718h-24.480469l30.738281-30.742188 49.851563 62.3125 5.328125-4.265625-5.460938 4.097656zm0 0" fill="#54596e"/><path d="m136.535156 46.351562h-42.902344l-38.144531-32.699218c-6.59375-5.648438-16.507812.667968-14.179687 9.027344l25.378906 91.261718c.691406 5.496094 5.375 9.632813 10.917969 9.632813 4.5 0 8.539062 2.742187 10.214843 6.921875l11.628907 29.066406c1.675781 4.171875 5.710937 6.910156 10.210937 6.910156h9.714844z" fill="#fff"/><path d="m136.535156 46.351562v-6.824218h-40.378906l-36.226562-31.058594c-2.933594-2.539062-6.625-3.820312-10.097657-3.796875-4.164062.011719-7.980469 1.648437-10.855469 4.359375-2.871093 2.695312-4.851562 6.695312-4.84375 11.171875 0 1.429687.199219 2.886719.597657 4.3125l25.378906 91.253906 6.578125-1.828125-6.773438.851563c1.128907 8.914062 8.699219 15.605469 17.691407 15.609375 1.707031 0 3.234375 1.03125 3.875 2.628906l11.625 29.066406c2.714843 6.761719 9.261719 11.203125 16.554687 11.203125h9.714844c3.398438 0 6.277344-2.496093 6.757812-5.863281l17.160157-120.117188c.277343-1.957031-.308594-3.945312-1.601563-5.4375-1.296875-1.492187-3.183594-2.355468-5.15625-2.355468v6.824218l-6.761718-.964843-16.320313 114.257812h-3.792969c-1.703125 0-3.234375-1.035156-3.875-2.625l-11.628906-29.0625c-2.703125-6.765625-9.253906-11.210937-16.550781-11.210937-2.097657.003906-3.886719-1.574219-4.144531-3.660156l-.195313-.976563-25.382813-91.257813-.097656-.648437.578125-1.257813 1.46875-.621093 1.210938.511719 38.148437 32.703124c1.238282 1.0625 2.808594 1.640626 4.441406 1.640626h42.902344v-6.828126l-6.761718-.964843z" fill="#54596e"/><path d="m300.375 46.351562h42.898438l38.144531-32.695312c6.59375-5.648438 16.507812.667969 14.179687 9.023438l-25.378906 91.261718c-.691406 5.5-5.371094 9.632813-10.917969 9.632813-4.5 0-8.539062 2.742187-10.214843 6.921875l-11.625 29.066406c-1.675782 4.175781-5.714844 6.910156-10.210938 6.910156h-9.714844z" fill="#fff"/><path d="m300.375 46.351562v6.828126h42.898438c1.632812 0 3.203124-.578126 4.441406-1.640626l38.148437-32.703124 1.210938-.511719 1.464843.621093.578126 1.257813-.097657.65625-25.378906 91.25-.195313.976563c-.257812 2.085937-2.046874 3.660156-4.148437 3.660156-7.292969 0-13.84375 4.445312-16.546875 11.207031l-11.628906 29.070313c-.636719 1.585937-2.167969 2.621093-3.875 2.621093h-3.792969l-16.320313-114.257812-6.757812.964843v6.828126-6.828126l-6.761719.96875 17.160157 120.117188c.480468 3.363281 3.359374 5.863281 6.757812 5.863281h9.714844c7.292968 0 13.839844-4.441406 16.550781-11.199219l11.625-29.074218c.640625-1.59375 2.171875-2.628906 3.875-2.628906 8.996094 0 16.566406-6.691407 17.695313-15.605469l-6.773438-.851563 6.574219 1.828125 25.382812-91.265625c.394531-1.425781.59375-2.878906.59375-4.300781.007813-4.480469-1.972656-8.476563-4.839843-11.171875-2.878907-2.710938-6.695313-4.347656-10.855469-4.359375-3.472657-.023437-7.171875 1.257813-10.097657 3.796875l-36.230468 31.054688h-40.371094c-1.976562 0-3.863281.859374-5.160156 2.355468-1.292969 1.492188-1.878906 3.480469-1.601563 5.441406z" fill="#54596e"/><path d="m279.894531 362.265625 54.613281-68.265625 47.785157 47.785156h-40.960938l-20.480469 47.789063h-61.4375zm0 0" fill="#f99"/><path d="m279.894531 362.265625 5.328125 4.265625 49.847656-62.3125 30.742188 30.742188h-24.480469c-2.738281 0-5.195312 1.617187-6.273437 4.136718l-18.707032 43.648438h-43.285156l12.289063-16.382813-5.460938-4.097656 5.328125 4.265625-5.328125-4.265625-5.460937-4.09375-20.480469 27.304687c-1.554687 2.074219-1.804687 4.832032-.644531 7.148438 1.15625 2.320312 3.515625 3.773438 6.105468 3.773438h61.4375c2.742188 0 5.195313-1.617188 6.277344-4.136719l18.703125-43.648438h36.460938c2.761719 0 5.25-1.664062 6.304687-4.214843 1.058594-2.550782.472656-5.488282-1.476562-7.4375l-47.789063-47.789063c-1.378906-1.378906-3.253906-2.097656-5.203125-1.988281-1.949218.109375-3.734375 1.027344-4.953125 2.550781l-54.613281 68.265625-.128906.171875zm0 0" fill="#54596e"/><path d="m354.988281 191.601562c0 11.308594-9.171875 20.476563-20.480469 20.476563-11.3125 0-20.480468-9.167969-20.480468-20.476563 0-11.3125 9.167968-20.480468 20.480468-20.480468 11.308594 0 20.480469 9.167968 20.480469 20.480468zm0 0" fill="#ffd578"/><path d="m354.988281 191.601562h6.824219c-.003906-15.085937-12.21875-27.304687-27.304688-27.308593-15.085937.003906-27.304687 12.222656-27.308593 27.308593.003906 15.082032 12.222656 27.300782 27.308593 27.304688 15.085938 0 27.300782-12.222656 27.304688-27.304688h-13.652344c-.015625 7.539063-6.113281 13.636719-13.652344 13.652344-7.542968-.015625-13.640624-6.113281-13.65625-13.652344.015626-7.542968 6.113282-13.640624 13.65625-13.65625 7.539063.015626 13.636719 6.113282 13.652344 13.65625zm0 0" fill="#54596e"/><path d="m122.878906 191.601562c0 11.308594-9.167968 20.476563-20.480468 20.476563-11.308594 0-20.476563-9.167969-20.476563-20.476563 0-11.3125 9.167969-20.480468 20.476563-20.480468 11.3125 0 20.480468 9.167968 20.480468 20.480468zm0 0" fill="#ffd578"/><path d="m122.878906 191.601562h6.828125c-.003906-15.085937-12.222656-27.304687-27.308593-27.308593-15.082032.003906-27.300782 12.222656-27.304688 27.308593.003906 15.082032 12.222656 27.300782 27.304688 27.304688 15.085937 0 27.304687-12.222656 27.308593-27.304688h-13.652343c-.015626 7.539063-6.113282 13.636719-13.65625 13.652344-7.539063-.015625-13.636719-6.113281-13.652344-13.652344.015625-7.542968 6.113281-13.640624 13.652344-13.65625 7.542968.015626 13.640624 6.113282 13.65625 13.65625zm0 0" fill="#54596e"/><path d="m334.066406 245.394531-6.8125-115.234375h-217.601562l-6.808594 115.21875c-1.957031 12.152344 2.640625 24.382813 12.898438 34.296875l35.804687 44.832031c3.984375 7.660157 15.203125 12.257813 26.71875 10.960938l38.640625-3.164062 41.898438 3.316406c11.449218 1.210937 22.535156-3.386719 26.488281-10.980469l35.898437-44.976563c10.242188-9.902343 14.828125-22.125 12.875-34.269531" fill="#ffd578"/><path d="m334.066406 245.394531 6.816406-.40625-6.816406-115.234375c-.210937-3.597656-3.207031-6.421875-6.8125-6.421875h-217.601562c-3.601563 0-6.601563 2.824219-6.8125 6.421875l-6.808594 115.222656 6.8125.402344-6.734375-1.089844c-.355469 2.195313-.53125 4.394532-.53125 6.589844-.011719 12.382813 5.625 24.265625 15.414063 33.699219l4.746093-4.90625-5.335937 4.261719 35.808594 44.832031 5.332031-4.261719-6.054688 3.152344c2.640625 5.035156 7.023438 8.683594 12.035157 11.125 5.039062 2.4375 10.820312 3.71875 16.847656 3.726562 1.539062 0 3.089844-.085937 4.644531-.257812l-.753906-6.785156.558593 6.800781 38.09375-3.113281 41.351563 3.269531.539063-6.804687-.714844 6.785156c1.46875.15625 2.929687.230468 4.375.230468 6.03125-.003906 11.8125-1.292968 16.851562-3.730468 5.011719-2.445313 9.390625-6.085938 12.03125-11.113282l-6.054687-3.152343 5.332031 4.257812 35.898438-44.972656-5.332032-4.257813 4.746094 4.90625c9.777344-9.429687 15.402344-21.3125 15.390625-33.6875.003906-2.191406-.175781-4.390624-.523437-6.574218l-6.738282 1.085937 6.816406-.40625-6.816406.40625-6.738281 1.078125c.234375 1.476563.351563 2.949219.351563 4.414063-.011719 8.199219-3.621094 16.476562-11.234376 23.871093l-.585937.648438-35.898437 44.976562-.71875 1.101563c-.890626 1.75-2.886719 3.691406-5.886719 5.140625-2.976563 1.457031-6.839844 2.363281-10.886719 2.359375-.976562 0-1.960938-.050781-2.941406-.15625l-.179688-.015625-41.898437-3.3125h-1.09375l-38.640625 3.160156-.199219.019532c-1.054687.117187-2.105469.175781-3.136719.175781-4.046875.003906-7.914062-.90625-10.886718-2.355469-2.996094-1.449219-4.992188-3.386719-5.886719-5.144531l-.722657-1.109375-35.804687-44.835938-.585937-.644531c-7.625-7.40625-11.242188-15.6875-11.253907-23.882813 0-1.46875.113281-2.9375.355469-4.414062l.074219-.683594 6.417969-108.796875h204.734374l6.433594 108.804688.074219.679687z" fill="#54596e"/><path d="m191.148438 259.867188h54.613281c3.769531 0 6.824219-3.058594 6.824219-6.828126 0-3.769531-3.054688-6.824218-6.824219-6.824218h-54.613281c-3.773438 0-6.828126 3.054687-6.828126 6.824218 0 3.769532 3.054688 6.828126 6.828126 6.828126" fill="#f99"/><path d="m273.066406 188.1875c0 5.65625-4.585937 10.238281-10.238281 10.238281-5.65625 0-10.242187-4.582031-10.242187-10.238281s4.585937-10.242188 10.242187-10.242188c5.652344 0 10.238281 4.585938 10.238281 10.242188zm0 0" fill="#54596e"/><path d="m184.320312 188.1875c0 5.65625-4.585937 10.238281-10.242187 10.238281-5.652344 0-10.238281-4.582031-10.238281-10.238281s4.585937-10.242188 10.238281-10.242188c5.65625 0 10.242187 4.585938 10.242187 10.242188zm0 0" fill="#54596e"/><path d="m334.507812 423.707031c0-26.394531-21.394531-47.785156-47.789062-47.785156-26.390625 0-47.785156 21.390625-47.785156 47.785156zm0 0" fill="#fff35f"/><path d="m334.507812 423.707031h6.824219c-.003906-30.167969-24.445312-54.609375-54.613281-54.613281-30.164062.003906-54.609375 24.445312-54.613281 54.613281 0 1.796875.730469 3.554688 2 4.824219 1.273437 1.273438 3.03125 2 4.828125 2h95.574218c1.796876 0 3.554688-.726562 4.824219-2 1.273438-1.269531 2-3.027344 2-4.824219h-6.824219v-6.828125h-95.574218v6.828125h6.828125c0-11.335937 4.570312-21.53125 11.996093-28.964843 7.429688-7.421876 17.628907-11.992188 28.960938-11.996094 11.335938.003906 21.53125 4.574218 28.964844 11.996094 7.421875 7.433593 11.992187 17.628906 11.996094 28.964843h6.828124v-6.828125zm0 0" fill="#54596e"/><path d="m204.800781 423.707031c0-26.394531-21.394531-47.785156-47.789062-47.785156-26.390625 0-47.785157 21.390625-47.785157 47.785156zm0 0" fill="#fff35f"/><path d="m204.800781 423.707031h6.824219c0-30.167969-24.445312-54.609375-54.613281-54.613281-30.164063.003906-54.609375 24.445312-54.613281 54.613281 0 1.796875.730468 3.554688 2 4.824219 1.273437 1.273438 3.03125 2.003906 4.828124 2.003906h95.574219c1.796875 0 3.554688-.730468 4.824219-2 1.273438-1.273437 2-3.03125 2-4.828125h-6.824219v-6.824219h-95.574219v6.824219h6.828126c.003906-11.332031 4.574218-21.53125 11.996093-28.960937 7.429688-7.425782 17.628907-11.996094 28.960938-11.996094 11.335937 0 21.53125 4.570312 28.964843 11.996094 7.421876 7.429687 11.992188 17.628906 11.996094 28.960937h6.828125v-6.824219zm0 0" fill="#54596e"/><path d="m218.453125 7.28125c-60.324219 0-109.226563 48.898438-109.226563 109.226562v20.480469h218.453126v-20.480469c0-60.328124-48.898438-109.226562-109.226563-109.226562" fill="#999"/><path d="m218.453125 7.28125v-6.828125c-64.097656.003906-116.046875 51.953125-116.050781 116.054687v20.480469c0 1.796875.726562 3.554688 1.996094 4.824219 1.273437 1.273438 3.03125 2 4.828124 2h218.453126c1.796874 0 3.554687-.726562 4.832031-2 1.269531-1.269531 1.996093-3.027344 1.996093-4.824219v-20.480469c-.003906-64.101562-51.953124-116.050781-116.050781-116.054687v13.652344c28.296875.003906 53.855469 11.453125 72.40625 29.992187 18.539063 18.554688 29.988281 44.109375 29.988281 72.410156v13.652344h-204.796874v-13.652344c.003906-28.300781 11.449218-53.859374 29.988281-72.410156 18.554687-18.539062 44.113281-29.988281 72.410156-29.992187z" fill="#54596e"/><path d="m238.933594 7.28125h-40.960938v129.707031c0 7.539063 6.113282 13.652344 13.652344 13.652344h13.65625c7.539062 0 13.652344-6.113281 13.652344-13.652344z" fill="#999"/><path d="m238.933594 7.28125v-6.828125h-40.960938c-1.796875 0-3.554687.726563-4.824218 1.996094-1.273438 1.273437-2 3.035156-2 4.832031v129.707031c.003906 11.3125 9.164062 20.476563 20.476562 20.476563h13.65625c11.3125 0 20.472656-9.164063 20.480469-20.476563v-129.707031c0-1.796875-.730469-3.554688-2-4.832031-1.273438-1.269531-3.03125-1.996094-4.828125-1.996094v6.828125h-6.828125v129.707031c-.007813 3.765625-3.0625 6.816407-6.824219 6.824219h-13.65625c-3.761719-.007812-6.816406-3.058594-6.828125-6.824219v-122.882812h34.136719v-6.824219h-6.828125z" fill="#54596e"/><path d="m321.222656 143.8125h-76.628906c-2.8125 7.957031-10.394531 13.652344-19.3125 13.652344h-13.65625c-8.917969 0-16.5-5.695313-19.308594-13.652344h-76.628906l-1.210938 20.480469h207.957032z" fill="#e6c377"/><path d="m108.847656 143.804688-1.207031 20.488281h6.835937l1.207032-20.480469h-6.457032c-.125 0-.25-.003906-.378906-.007812m219.214844-.003907c-.128906.007813-.257812.011719-.382812.011719h-6.457032l1.210938 20.480469h6.839844z" fill="#54596e"/><path d="m191.148438 130.160156h-81.496094l-.804688 13.640625c.128906.007813.253906.011719.378906.011719h83.085938c-.753906-2.136719-1.164062-4.433594-1.164062-6.828125zm136.105468 0h-81.492187v6.828125c-.003907 2.394531-.414063 4.691407-1.167969 6.824219h83.085938c.125 0 .253906-.003906.382812-.011719z" fill="#54596e"/><path d="m232.109375 130.160156h-27.308594v6.828125c.007813 3.765625 3.0625 6.816407 6.824219 6.824219h13.65625c3.765625-.007812 6.820312-3.058594 6.828125-6.824219z" fill="#8f8f93"/><path d="m245.761719 130.160156h-13.65625v6.828125c-.007813 3.765625-3.0625 6.816407-6.824219 6.824219h-13.65625c-3.761719-.007812-6.816406-3.058594-6.828125-6.824219v-6.828125h-13.652344v6.828125c.003907 2.394531.414063 4.691407 1.167969 6.824219 2.8125 7.957031 10.390625 13.652344 19.3125 13.652344h13.652344c8.921875 0 16.5-5.695313 19.3125-13.652344.753906-2.132812 1.164062-4.429688 1.167968-6.824219v-6.828125" fill="#54596e"/></svg>