<svg height="436pt" viewBox="0 0 436 436.90692" width="436pt" xmlns="http://www.w3.org/2000/svg"><path d="m430.535156 430.082031h-423.253906v-20.875c0-35.390625 25.207031-65.773437 60-72.300781l158.453125-29.707031 145.667969 29.132812c34.382812 6.882813 59.132812 37.066407 59.132812 72.128907zm0 0" fill="#55a6ff"/><path d="m430.535156 430.082031v-6.828125h-416.429687v-14.046875c0-32.105469 22.871093-59.671875 54.433593-65.589843l157.152344-29.464844 144.375 28.875c31.1875 6.238281 53.644532 33.628906 53.640625 65.433594v21.621093h6.828125v-6.828125 6.828125h6.824219v-21.621093c0-38.316407-27.042969-71.300782-64.617187-78.820313l-145.671876-29.132813c-.84375-.171874-1.75-.175781-2.597656-.015624l-158.453125 29.707031c-38.015625 7.132812-65.5625 40.328125-65.566406 79.007812v20.875c0 1.796875.730469 3.554688 2 4.824219 1.273437 1.273438 3.03125 2 4.828125 2h423.253906c1.796875 0 3.554688-.726562 4.824219-1.996094 1.273437-1.273437 2-3.03125 2-4.828125zm0 0" fill="#54596e"/><path d="m123.332031 361.027344v-81.132813h191.148438v81.132813" fill="#55a6ff"/><path d="m130.160156 361.027344v-74.308594h177.492188v74.308594c0 3.769531 3.058594 6.824218 6.828125 6.824218s6.828125-3.054687 6.828125-6.824218v-81.132813c0-1.800781-.730469-3.558593-2.003906-4.828125-1.269532-1.269531-3.027344-2-4.824219-2h-191.148438c-1.796875 0-3.554687.726563-4.824219 2-1.273437 1.269532-2 3.03125-2 4.828125v81.132813c0 3.769531 3.054688 6.824218 6.824219 6.824218s6.828125-3.054687 6.828125-6.824218zm0 0" fill="#54596e"/><path d="m68.71875 430.082031h47.789062l-13.65625-102.402343h-34.132812zm0 0" fill="#fff35f"/><path d="m68.71875 430.082031v6.824219h47.789062c1.972657 0 3.832032-.84375 5.132813-2.328125 1.304687-1.488281 1.890625-3.441406 1.632813-5.402344l-13.65625-102.398437c-.449219-3.390625-3.34375-5.921875-6.765626-5.921875h-34.132812c-1.796875 0-3.554688.726562-4.824219 1.996093-1.273437 1.273438-2 3.03125-2 4.828126v102.402343c0 1.796875.726563 3.554688 2 4.824219 1.269531 1.273438 3.027344 2 4.824219 2v-6.824219h6.828125v-95.578125h21.328125l11.835938 88.746094-39.992188.003906v6.828125h6.828125zm0 0" fill="#54596e"/><path d="m321.308594 430.082031h47.785156v-102.402343h-34.132812zm0 0" fill="#fff35f"/><path d="m321.308594 430.082031v6.824219h47.785156c1.796875 0 3.554688-.726562 4.824219-1.996094 1.273437-1.273437 2.003906-3.03125 2.003906-4.828125v-102.398437c0-1.800782-.730469-3.558594-2.003906-4.828125-1.269531-1.273438-3.027344-2-4.824219-2h-34.132812c-3.421876 0-6.316407 2.53125-6.769532 5.921875l-13.652344 102.398437c-.261718 1.960938.332032 3.914063 1.628907 5.402344 1.304687 1.484375 3.164062 2.328125 5.136719 2.328125v-6.824219l6.765624.898438 12.863282-96.476563h21.332031v88.746094h-40.957031v6.832031l6.765625.898438zm0 0" fill="#54596e"/><path d="m337.449219 66.789062-166.328125-59.960937-75.0625 52.285156c-11.109375 5.421875-16.96875 16.914063-14.375 28.195313l25.445312 110.664062 223.675782-13.652344 23.789062-87.121093c3.449219-12.640625-3.890625-25.660157-17.144531-30.410157zm0 0" fill="#bfad88"/><path d="m337.449219 66.789062 2.316406-6.425781-166.332031-59.957031c-2.082032-.753906-4.398438-.4453125-6.214844.820312l-75.0625 52.285157 3.898438 5.601562-2.992188-6.132812c-11.515625 5.59375-18.820312 16.796875-18.816406 28.984375 0 2.277344.257812 4.582031.78125 6.867187l25.445312 110.671875c.75 3.25 3.738282 5.484375 7.070313 5.28125l223.675781-13.652344c2.921875-.179687 5.398438-2.191406 6.167969-5.015624l23.789062-87.121094c.734375-2.683594 1.089844-5.40625 1.089844-8.09375-.003906-13.527344-8.976563-25.71875-22.511719-30.542969l.011719.003906-2.316406 6.425781-2.304688 6.421876c8.566407 3.097656 13.46875 10.332031 13.46875 17.691406 0 1.480468-.195312 2.980468-.609375 4.5l-22.5 82.402344-213.019531 13.003906-24.148437-105.03125c-.292969-1.285156-.433594-2.554688-.433594-3.8125.003906-6.65625 3.964844-13.1875 11.148437-16.714844l.90625-.535156 72.167969-50.269532 163.011719 58.765626h.011719zm0 0" fill="#54596e"/><path d="m334.515625 251.769531.019531-156.195312-137.386718 27.304687-93.867188-27.304687.019531 156.179687c-1.957031 12.152344 2.636719 24.378906 12.890625 34.292969l35.8125 44.835937c3.988282 7.660157 15.199219 12.261719 26.714844 10.960938l38.644531-3.164062 41.898438 3.3125c11.445312 1.214843 22.527343-3.382813 26.488281-10.980469l35.902344-44.972657c10.234375-9.90625 14.824218-22.125 12.863281-34.269531zm0 0" fill="#ffd578"/><path d="m334.515625 251.769531h6.828125l.015625-156.195312c0-2.050781-.910156-3.980469-2.496094-5.277344-1.582031-1.300781-3.652343-1.816406-5.660156-1.417969l-135.753906 26.980469-92.261719-26.839844c-2.058594-.597656-4.292969-.191406-6.007812 1.097657-1.714844 1.285156-2.726563 3.316406-2.726563 5.460937l.019531 156.179687h6.828125l-6.742187-1.085937c-.351563 2.191406-.527344 4.390625-.527344 6.585937-.011719 12.378907 5.621094 24.265626 15.410156 33.703126l4.746094-4.90625-5.332031 4.257812 35.8125 44.835938 5.335937-4.261719-6.058594 3.152343c2.640626 5.03125 7.023438 8.683594 12.035157 11.125 5.035156 2.4375 10.820312 3.71875 16.847656 3.726563 1.539063 0 3.089844-.085937 4.644531-.257813l-.753906-6.785156.554688 6.804688 38.097656-3.117188 41.347656 3.273438.539062-6.804688-.714843 6.789063c1.46875.152343 2.929687.226562 4.375.226562 6.03125-.003906 11.816406-1.292969 16.851562-3.730469 5.011719-2.441406 9.390625-6.085937 12.027344-11.113281l-6.050781-3.152343 5.332031 4.257812 35.90625-44.976562-5.335937-4.257813 4.746093 4.90625c9.773438-9.425781 15.402344-21.300781 15.390625-33.671875 0-2.199219-.175781-4.402344-.53125-6.59375l-6.738281 1.082031h6.828125-6.828125l-6.738281 1.085938c.238281 1.476562.355468 2.949219.355468 4.417969-.011718 8.191406-3.625 16.464843-11.230468 23.859374l-.585938.648438-35.90625 44.972656-.71875 1.105469c-.890625 1.75-2.886718 3.691406-5.886718 5.140625-2.972657 1.453125-6.839844 2.363281-10.886719 2.359375-.972657 0-1.957031-.050781-2.945313-.15625l-.175781-.015625-41.898437-3.3125h-1.09375l-38.644532 3.164062-.195312.015626c-1.054688.117187-2.105469.175781-3.136719.175781-4.046875.007812-7.910156-.902344-10.882813-2.351563-3-1.449218-4.992187-3.390625-5.886718-5.148437l-.722656-1.109375-35.8125-44.832032-.589844-.648437c-7.621094-7.402344-11.238282-15.683594-11.25-23.886719 0-1.464844.117187-2.9375.355468-4.414062l.085938-1.085938-.019531-147.082031 85.132812 24.765625c1.035157.300781 2.179688.351562 3.238281.140625l129.230469-25.683594-.015625 147.875.085938 1.089844zm0 0" fill="#54596e"/><path d="m184.773438 266.242188h68.265624c3.769532 0 6.828126-3.058594 6.828126-6.828126 0-3.769531-3.058594-6.828124-6.828126-6.828124h-68.265624c-3.769532 0-6.828126 3.058593-6.828126 6.828124 0 3.769532 3.058594 6.828126 6.828126 6.828126" fill="#f99"/><path d="m87.53125 238.933594h15.320312v-81.921875h-15.320312c-6.617188 0-11.984375 5.371093-11.984375 11.988281v57.945312c0 6.621094 5.367187 11.988282 11.984375 11.988282zm0 0" fill="#fff35f"/><path d="m87.53125 238.933594v6.828125h15.320312c1.800782 0 3.558594-.726563 4.828126-2 1.273437-1.269531 2-3.03125 2-4.828125v-81.921875c0-1.796875-.726563-3.554688-2-4.828125-1.269532-1.269532-3.027344-1.996094-4.828126-1.996094h-15.320312c-10.390625.003906-18.808594 8.421875-18.8125 18.8125v57.945312c.007812 10.390626 8.421875 18.808594 18.8125 18.8125v-13.652343c-2.84375-.003907-5.152344-2.3125-5.15625-5.15625v-57.949219c.003906-2.84375 2.3125-5.15625 5.15625-5.160156h8.496094v68.265625h-8.496094zm0 0" fill="#54596e"/><path d="m350.28125 238.933594h-15.320312v-81.921875h15.320312c6.621094 0 11.984375 5.371093 11.984375 11.988281v57.945312c0 6.621094-5.367187 11.988282-11.984375 11.988282zm0 0" fill="#fff35f"/><path d="m350.28125 238.933594v-6.828125h-8.496094v-68.265625h8.496094c2.847656.003906 5.152344 2.3125 5.160156 5.160156v57.945312c-.007812 2.847657-2.3125 5.15625-5.160156 5.160157v13.65625c10.394531-.003907 18.808594-8.421875 18.8125-18.8125v-57.949219c-.003906-10.390625-8.421875-18.808594-18.8125-18.8125h-15.320312c-1.796876 0-3.558594.726562-4.828126 2-1.269531 1.269531-2 3.027344-2 4.824219v81.921875c0 1.796875.730469 3.554687 2 4.828125 1.273438 1.269531 3.03125 1.996093 4.828126 1.996093h15.320312zm0 0" fill="#54596e"/><path d="m102.851562 68.265625 13.65625-54.613281 143.359376 54.613281" fill="#bfad88"/><path d="m109.476562 69.921875 11.789063-47.152344 136.171875 51.875c3.523438 1.34375 7.46875-.425781 8.808594-3.949219 1.34375-3.519531-.421875-7.464843-3.949219-8.808593l-143.359375-54.613281c-1.820312-.695313-3.859375-.574219-5.589844.328124-1.730468.902344-2.988281 2.503907-3.460937 4.398438l-13.65625 54.613281c-.914063 3.65625 1.308593 7.363281 4.96875 8.277344 3.65625.914063 7.363281-1.308594 8.277343-4.96875zm0 0" fill="#54596e"/><path d="m102.851562 143.359375h232.109376v68.265625h-232.109376zm0 0" fill="#fff35f"/><path d="m334.960938 211.625v-6.824219h-225.28125v-54.617187h218.453124v61.441406h6.828126v-6.824219 6.824219h6.824218v-68.265625c0-1.796875-.726562-3.554687-2-4.828125-1.269531-1.269531-3.027344-1.996094-4.824218-1.996094h-232.109376c-1.796874 0-3.554687.726563-4.824218 1.996094-1.273438 1.273438-2 3.03125-2 4.828125v68.265625c0 1.800781.726562 3.558594 2 4.828125 1.269531 1.273437 3.027344 2 4.824218 2h232.109376c1.796874 0 3.554687-.726563 4.824218-1.996094 1.273438-1.273437 2-3.03125 2-4.828125h-6.824218zm0 0" fill="#54596e"/><path d="m290.585938 191.148438h-143.359376c-5.65625 0-10.238281-4.589844-10.238281-10.242188s4.582031-10.238281 10.238281-10.238281h143.359376c5.65625 0 10.242187 4.585937 10.242187 10.238281s-4.585937 10.242188-10.242187 10.242188zm0 0" fill="#ff927d"/></svg>