<svg height="436pt" viewBox="0 -80 436.90667 436" width="436pt" xmlns="http://www.w3.org/2000/svg"><path d="m383.101562 7.277344-38.117187 5.121094-279.523437 37.5625-38.113282 5.117187c1.621094 12.082031-5.59375 23.027344-16.121094 24.441406l20.582032 153.171875c10.523437-1.414062 20.371094 7.234375 22 19.320313l38.117187-5.121094 279.519531-37.558594 38.117188-5.121093c-1.625-12.078126 5.589844-23.027344 16.117188-24.4375l-20.582032-153.175782c-10.523437 1.414063-20.371094-7.230468-21.996094-19.320312zm0 0" fill="#8065c4"/><path d="m383.101562 7.277344-.910156-6.765625-38.117187 5.121093-279.519531 37.558594-38.117188 5.121094c-1.78125.238281-3.425781 1.195312-4.515625 2.625-1.09375 1.429688-1.582031 3.269531-1.339844 5.050781.113281.839844.167969 1.667969.167969 2.480469.003906 3.882812-1.253906 7.382812-3.1875 9.886719-1.953125 2.515625-4.414062 4.007812-7.242188 4.398437-3.738281.5-6.359374 3.9375-5.855468 7.675782l20.578125 153.171874c.242187 1.808594 1.179687 3.414063 2.628906 4.519532 1.449219 1.105468 3.246094 1.578125 5.054687 1.335937l1.34375-.089843c2.839844 0 5.703126 1.207031 8.144532 3.582031 2.421875 2.363281 4.277344 5.847656 4.828125 9.976562.503906 3.734375 3.9375 6.355469 7.675781 5.855469l38.117188-5.121094 279.519531-37.558594 38.117187-5.121093c1.808594-.246094 3.410156-1.175781 4.515625-2.625 1.105469-1.453125 1.582031-3.242188 1.339844-5.050781-.113281-.839844-.167969-1.671876-.167969-2.484376-.003906-3.882812 1.253906-7.382812 3.1875-9.886718 1.953125-2.515625 4.414063-4.007813 7.242188-4.394532 1.808594-.242187 3.414062-1.171874 4.519531-2.625 1.105469-1.449218 1.582031-3.242187 1.339844-5.046874l-20.582031-153.175782c-.5-3.734375-3.9375-6.359375-7.671876-5.855468l-1.351562.089843c-2.84375 0-5.707031-1.207031-8.144531-3.582031-2.421875-2.367188-4.277344-5.847656-4.832031-9.972656-.503907-3.734375-3.9375-6.3593752-7.675782-5.855469l.910156 6.761719-6.765624.910156c.957031 7.089844 4.148437 13.34375 8.8125 17.910156 4.640624 4.558594 10.890624 7.476563 17.691406 7.476563 1.042968 0 2.101562-.066407 3.167968-.210938l-.90625-6.761719-6.765624.90625 20.582031 153.171876 6.765625-.90625-.90625-6.765626c-6.703125.886719-12.417969 4.582032-16.257813 9.605469-3.859375 5.03125-6.007812 11.414063-6.011719 18.207031 0 1.417969.09375 2.855469.289063 4.300782l6.765625-.910156-.910156-6.765626-38.117188 5.121094-279.519531 37.558594-38.117187 5.121094.910156 6.765625 6.765625-.910157c-.957031-7.089843-4.152344-13.34375-8.8125-17.910156-4.640625-4.558594-10.894531-7.476562-17.695313-7.476562-1.050781 0-2.113281.070312-3.175781.210937l.917969 6.765625 6.765625-.910156-20.582031-153.171875-6.765626.910156.910157 6.765625c6.703125-.890625 12.414062-4.589844 16.253906-9.609375 3.855469-5.03125 6.007813-11.417969 6.011719-18.207031 0-1.417969-.09375-2.855469-.289063-4.300781l-6.765625.910156.910156 6.765625 38.117188-5.121094 279.519531-37.558594 38.117188-5.121093-.910157-6.765625-6.765624.910156zm0 0" fill="#54596e"/><path d="m68.265625 57.964844h300.375v211.625h-300.375zm0 0" fill="#55a6ff"/><path d="m368.640625 269.589844v-6.824219h-293.546875v-197.976563h286.71875v204.800782h6.828125v-6.824219 6.824219h6.824219v-211.625c0-1.796875-.726563-3.554688-2-4.828125-1.269532-1.269531-3.027344-2-4.824219-2h-300.375c-1.796875 0-3.554687.730469-4.824219 2-1.273437 1.273437-2 3.03125-2 4.828125v211.625c0 1.800781.726563 3.558594 2 4.828125 1.269532 1.273437 3.027344 2 4.824219 2h300.375c1.796875 0 3.554687-.726563 4.824219-2 1.273437-1.269531 2-3.027344 2-4.828125zm0 0" fill="#54596e"/><path d="m27.308594 57.964844c0 12.984375-9.171875 23.511718-20.480469 23.511718v164.601563c11.308594 0 20.480469 10.527344 20.480469 23.511719h40.957031v-211.625zm0 0" fill="#ff80c3"/><path d="m27.308594 57.964844h-6.828125c.003906 4.882812-1.738281 9.183594-4.320313 12.144531-2.613281 2.964844-5.84375 4.535156-9.332031 4.542969-1.796875 0-3.558594.726562-4.828125 2-1.269531 1.269531-2 3.027344-2 4.828125v164.597656c0 1.796875.730469 3.554687 2 4.828125 1.273438 1.269531 3.03125 1.996094 4.828125 1.996094 3.488281.011718 6.71875 1.578125 9.332031 4.546875 2.585938 2.957031 4.324219 7.257812 4.320313 12.140625 0 1.800781.726562 3.558594 2 4.828125 1.269531 1.273437 3.027343 2 4.828125 2h40.957031c1.796875 0 3.554687-.726563 4.828125-2 1.269531-1.269531 2-3.027344 2-4.828125v-211.625c0-1.796875-.730469-3.554688-2-4.828125-1.269531-1.269531-3.03125-2-4.828125-2h-40.957031c-1.800782 0-3.558594.730469-4.828125 2-1.273438 1.273437-2 3.03125-2 4.828125h6.828125v6.828125h34.132812v197.972656h-34.132812v6.824219h6.824218c-.003906-8.101563-2.847656-15.554688-7.679687-21.109375-4.796875-5.542969-11.804687-9.238281-19.625-9.230469v6.828125h6.824219v-164.601563h-6.824219v6.828126c7.820313.007812 14.828125-3.6875 19.625-9.230469 4.832031-5.550781 7.675781-13.007813 7.679687-21.109375h-6.824218v6.828125zm0 0" fill="#54596e"/><path d="m409.601562 57.964844c0 12.984375 9.167969 23.511718 20.476563 23.511718v164.601563c-11.308594 0-20.476563 10.527344-20.476563 23.511719h-40.960937v-211.625zm0 0" fill="#ff80c3"/><g fill="#54596e"><path d="m409.601562 57.964844h-6.828124c.003906 8.105468 2.847656 15.558594 7.679687 21.109375 4.796875 5.542969 11.808594 9.238281 19.625 9.230469v-6.828126h-6.824219v164.601563h6.824219v-6.828125c-7.816406-.007812-14.828125 3.6875-19.625 9.230469-4.832031 5.550781-7.675781 13.007812-7.679687 21.109375h6.828124v-6.824219h-34.136718v-197.976563h34.136718v-6.824218h-6.828124 6.828124v-6.828125h-40.960937c-1.796875 0-3.558594.730469-4.828125 2-1.269531 1.273437-2 3.03125-2 4.828125v211.625c0 1.800781.730469 3.558594 2 4.828125 1.273438 1.273437 3.03125 2 4.828125 2h40.960937c1.796876 0 3.554688-.726563 4.824219-2 1.273438-1.269531 2-3.027344 2-4.828125-.003906-4.882813 1.738281-9.183594 4.320313-12.140625 2.613281-2.96875 5.84375-4.535157 9.332031-4.546875 1.800781 0 3.558594-.726563 4.828125-1.996094 1.273438-1.273438 2-3.03125 2-4.828125v-164.597656c0-1.800781-.726562-3.558594-2-4.828125-1.269531-1.273438-3.027344-2-4.828125-2-3.488281-.007813-6.71875-1.578125-9.332031-4.542969-2.582032-2.960937-4.324219-7.261719-4.320313-12.144531 0-1.796875-.726562-3.554688-2-4.828125-1.269531-1.269531-3.027343-2-4.824219-2zm0 0"/><path d="m34.132812 105.75h13.652344c3.773438 0 6.828125-3.054688 6.828125-6.824219s-3.054687-6.828125-6.828125-6.828125h-13.652344c-3.769531 0-6.824218 3.058594-6.824218 6.828125s3.054687 6.824219 6.824218 6.824219"/><path d="m336.609375 105.75h26.253906c3.769531 0 6.828125-3.054688 6.828125-6.824219s-3.058594-6.828125-6.828125-6.828125h-26.253906c-3.773437 0-6.828125 3.058594-6.828125 6.828125s3.054688 6.824219 6.828125 6.824219zm-52.515625 0h26.257812c3.769532 0 6.828126-3.054688 6.828126-6.824219s-3.058594-6.828125-6.828126-6.828125h-26.257812c-3.769531 0-6.824219 3.058594-6.824219 6.828125s3.054688 6.824219 6.824219 6.824219zm-52.511719 0h26.257813c3.769531 0 6.824218-3.054688 6.824218-6.824219s-3.054687-6.828125-6.824218-6.828125h-26.257813c-3.769531 0-6.828125 3.058594-6.828125 6.828125s3.058594 6.824219 6.828125 6.824219zm-52.511719 0h26.253907c3.769531 0 6.828125-3.054688 6.828125-6.824219s-3.058594-6.828125-6.828125-6.828125h-26.253907c-3.773437 0-6.828124 3.058594-6.828124 6.828125s3.054687 6.824219 6.828124 6.824219zm-52.515624 0h26.257812c3.769531 0 6.828125-3.054688 6.828125-6.824219s-3.058594-6.828125-6.828125-6.828125h-26.257812c-3.769532 0-6.824219 3.058594-6.824219 6.828125s3.054687 6.824219 6.824219 6.824219zm-52.511719 0h26.257812c3.769531 0 6.828125-3.054688 6.828125-6.824219s-3.058594-6.828125-6.828125-6.828125h-26.257812c-3.769531 0-6.824219 3.058594-6.824219 6.828125s3.054688 6.824219 6.824219 6.824219zm0 0"/><path d="m389.121094 105.75h13.652344c3.769531 0 6.828124-3.054688 6.828124-6.824219s-3.058593-6.828125-6.828124-6.828125h-13.652344c-3.769532 0-6.828125 3.058594-6.828125 6.828125s3.058593 6.824219 6.828125 6.824219"/><path d="m34.132812 235.457031h13.652344c3.773438 0 6.828125-3.054687 6.828125-6.824219 0-3.769531-3.054687-6.828124-6.828125-6.828124h-13.652344c-3.769531 0-6.824218 3.058593-6.824218 6.828124 0 3.769532 3.054687 6.824219 6.824218 6.824219"/><path d="m336.609375 235.457031h26.253906c3.769531 0 6.828125-3.054687 6.828125-6.824219 0-3.769531-3.058594-6.828124-6.828125-6.828124h-26.253906c-3.773437 0-6.828125 3.058593-6.828125 6.828124 0 3.769532 3.054688 6.824219 6.828125 6.824219zm-52.515625 0h26.257812c3.769532 0 6.828126-3.054687 6.828126-6.824219 0-3.769531-3.058594-6.828124-6.828126-6.828124h-26.257812c-3.769531 0-6.824219 3.058593-6.824219 6.828124 0 3.769532 3.054688 6.824219 6.824219 6.824219zm-52.511719 0h26.257813c3.769531 0 6.824218-3.054687 6.824218-6.824219 0-3.769531-3.054687-6.828124-6.824218-6.828124h-26.257813c-3.769531 0-6.828125 3.058593-6.828125 6.828124 0 3.769532 3.058594 6.824219 6.828125 6.824219zm-52.511719 0h26.253907c3.769531 0 6.828125-3.054687 6.828125-6.824219 0-3.769531-3.058594-6.828124-6.828125-6.828124h-26.253907c-3.773437 0-6.828124 3.058593-6.828124 6.828124 0 3.769532 3.054687 6.824219 6.828124 6.824219zm-52.515624 0h26.257812c3.769531 0 6.828125-3.054687 6.828125-6.824219 0-3.769531-3.058594-6.828124-6.828125-6.828124h-26.257812c-3.769532 0-6.824219 3.058593-6.824219 6.828124 0 3.769532 3.054687 6.824219 6.824219 6.824219zm-52.511719 0h26.257812c3.769531 0 6.828125-3.054687 6.828125-6.824219 0-3.769531-3.058594-6.828124-6.828125-6.828124h-26.257812c-3.769531 0-6.824219 3.058593-6.824219 6.828124 0 3.769532 3.054688 6.824219 6.824219 6.824219zm0 0"/><path d="m389.121094 235.457031h13.652344c3.769531 0 6.828124-3.054687 6.828124-6.824219 0-3.769531-3.058593-6.828124-6.828124-6.828124h-13.652344c-3.769532 0-6.828125 3.058593-6.828125 6.828124 0 3.769532 3.058593 6.824219 6.828125 6.824219"/></g><path d="m237.402344 100.492188 2.9375 9.03125c3.148437 9.695312 12.179687 16.25 22.367187 16.25h9.5c22.777344 0 32.25 29.152343 13.820313 42.539062l-7.683594 5.585938c-8.246094 5.988281-11.691406 16.601562-8.546875 26.285156l2.9375 9.042968c7.042969 21.664063-17.753906 39.679688-36.183594 26.285157l-7.6875-5.582031c-8.242187-5.992188-19.402343-5.992188-27.640625 0l-7.691406 5.582031c-18.425781 13.394531-43.222656-4.621094-36.183594-26.285157l2.9375-9.042968c3.148438-9.6875-.296875-20.300782-8.542968-26.285156l-7.6875-5.585938c-18.429688-13.386719-8.953126-42.539062 13.820312-42.539062h9.503906c10.1875 0 19.21875-6.554688 22.363282-16.25l2.9375-9.03125c7.039062-21.667969 37.683593-21.667969 44.722656 0zm0 0" fill="#fff35f"/><path d="m237.402344 100.492188-6.492188 2.109374 2.9375 9.03125c4.0625 12.507813 15.714844 20.964844 28.859375 20.964844h9.5c5.355469.03125 9.261719 2.050782 12.179688 5.171875 2.886719 3.125 4.5625 7.476563 4.554687 11.761719-.054687 4.945312-1.984375 9.613281-6.925781 13.257812l-7.6875 5.589844c-8.003906 5.816406-12.511719 15.019532-12.507813 24.542969 0 3.125.484376 6.289063 1.488282 9.371094l2.9375 9.042969c.621094 1.917968.886718 3.722656.890625 5.425781-.003907 4.566406-1.9375 8.617187-5.089844 11.667969-3.152344 3.039062-7.449219 4.863281-11.75 4.851562-3.207031-.011719-6.457031-.933594-9.730469-3.292969l-7.695312-5.582031c-5.300782-3.859375-11.574219-5.796875-17.828125-5.796875-6.25 0-12.523438 1.9375-17.835938 5.800781l-7.683593 5.578125c-3.273438 2.363281-6.527344 3.28125-9.734376 3.296875-4.304687.007813-8.597656-1.816406-11.75-4.855468-3.152343-3.050782-5.082031-7.105469-5.089843-11.667969.003906-1.707031.269531-3.507813.890625-5.421875l2.9375-9.046875c1.003906-3.082031 1.488281-6.246094 1.488281-9.371094 0-9.527344-4.503906-18.730469-12.511719-24.546875l-7.683594-5.585938c-4.945312-3.644531-6.871093-8.3125-6.925781-13.261718-.011719-4.28125 1.664063-8.636719 4.554688-11.757813 2.917969-3.121093 6.820312-5.136719 12.175781-5.171875h9.503906c13.140625 0 24.792969-8.453125 28.855469-20.964844l2.933594-9.03125c1.324219-4.019531 3.558593-6.75 6.324219-8.65625 2.765624-1.890624 6.140624-2.878906 9.550781-2.878906 3.40625 0 6.78125.988282 9.546875 2.878906 2.765625 1.90625 5 4.636719 6.320312 8.65625l12.984375-4.21875c-2.195312-6.8125-6.433593-12.207031-11.613281-15.71875-5.183594-3.527343-11.226562-5.25-17.238281-5.25-6.015625 0-12.058594 1.722657-17.242188 5.25-5.179687 3.511719-9.417969 8.90625-11.617187 15.71875l-2.933594 9.03125c-2.230469 6.878907-8.640625 11.53125-15.871094 11.53125h-9.503906c-9.105469-.035156-16.980469 3.820313-22.226562 9.578126-5.273438 5.75-8.148438 13.277343-8.160157 21.003906-.054687 8.863281 4.039063 18.171875 12.554688 24.308594l7.683593 5.585937c4.410157 3.195313 6.878907 8.257813 6.882813 13.5 0 1.714844-.265625 3.449219-.816406 5.152344l-2.9375 9.042969c-1.054688 3.234374-1.558594 6.488281-1.558594 9.640624-.003906 8.546876 3.695313 16.167969 9.277344 21.511719 5.582031 5.363281 13.121093 8.652344 21.214843 8.667969 5.988282.011719 12.242188-1.882812 17.757813-5.902344l7.683594-5.578125c2.933593-2.132812 6.363281-3.191406 9.8125-3.195312 3.449219 0 6.875 1.058593 9.800781 3.191406l7.699219 5.582031c5.507812 4.019532 11.761719 5.914063 17.75 5.898438 8.09375-.011719 15.632812-3.304688 21.214843-8.664063 5.578126-5.34375 9.285157-12.964843 9.277344-21.507812.003906-3.15625-.503906-6.410157-1.558594-9.648438l-2.9375-9.039062c-.554687-1.707031-.816406-3.4375-.816406-5.152344 0-5.238281 2.472656-10.304687 6.878906-13.5l7.691407-5.585937c8.515625-6.136719 12.605469-15.445313 12.550781-24.304688-.011719-7.726562-2.886719-15.253906-8.160156-21.003906-5.242188-5.757813-13.121094-9.613282-22.226563-9.582032h-9.5c-7.234375 0-13.640625-4.648437-15.871093-11.527343l-2.9375-9.035157zm0 0" fill="#54596e"/><path d="m184.320312 150.125c0 5.65625-4.585937 10.238281-10.242187 10.238281-5.652344 0-10.238281-4.582031-10.238281-10.238281s4.585937-10.238281 10.238281-10.238281c5.65625 0 10.242187 4.582031 10.242187 10.238281zm0 0" fill="#54596e"/><path d="m266.238281 150.125c0 5.65625-4.582031 10.238281-10.238281 10.238281s-10.238281-4.582031-10.238281-10.238281 4.582031-10.238281 10.238281-10.238281 10.238281 4.582031 10.238281 10.238281zm0 0" fill="#54596e"/><path d="m187.710938 188.9375c6.875 7.578125 16.777343 12.394531 27.726562 12.386719 11.492188.007812 21.816406-5.292969 28.722656-13.527344 2.425782-2.886719 2.050782-7.191406-.832031-9.617187-2.886719-2.425782-7.195313-2.054688-9.617187.832031-4.53125 5.367187-11.019532 8.65625-18.273438 8.660156-6.917969-.003906-13.121094-2.992187-17.621094-7.921875-2.539062-2.789062-6.855468-2.992188-9.644531-.457031-2.789063 2.539062-2.996094 6.855469-.460937 9.644531zm0 0" fill="#54596e"/></svg>