<svg height="426pt" viewBox="-8 0 426 426.96718" width="426pt" xmlns="http://www.w3.org/2000/svg"><path d="m362.296875 365.527344h-314.023437v-136.535156h314.023437z" fill="#fff35f"/><path d="m362.296875 365.527344v-6.828125h-307.199219v-122.882813h300.371094v129.707032h6.828125v-6.828126 6.832032h6.828125v-136.535156c0-1.796876-.726562-3.554688-2-4.828126-1.273438-1.269531-3.027344-1.996093-4.828125-1.996093h-314.023437c-1.800782 0-3.558594.726562-4.828126 1.996093-1.269531 1.273438-2 3.03125-2 4.828126v136.535156c0 1.796875.726563 3.554687 2 4.828125 1.273438 1.269531 3.027344 1.996093 4.828126 1.996093h314.023437c1.796875 0 3.554687-.726562 4.828125-1.996093 1.273438-1.273438 2-3.03125 2-4.828125z" fill="#54596e"/><path d="m48.269531 365.527344h102.402344v27.304687h-102.402344zm0 0" fill="#ededed"/><path d="m150.671875 392.832031v-6.824219h-95.574219v-13.65625h88.746094v20.480469h6.828125v-6.828125 6.828125h6.824219v-27.304687c0-1.796875-.726563-3.558594-1.996094-4.828125-1.273438-1.273438-3.03125-2-4.828125-2h-102.398437c-1.800782 0-3.558594.726562-4.828126 2-1.269531 1.269531-2 3.027343-2 4.828125v27.304687c0 1.800781.726563 3.558594 2 4.828125 1.273438 1.273438 3.027344 2 4.828126 2h102.398437c1.796875 0 3.554687-.726562 4.824219-2 1.273437-1.269531 2-3.027344 2-4.828125z" fill="#54596e"/><path d="m123.363281 420.140625h-47.785156c-15.082031 0-27.308594-12.226563-27.308594-27.308594h102.402344c0 15.082031-12.226563 27.308594-27.308594 27.308594zm0 0" fill="#ededed"/><path d="m123.363281 420.140625v-6.828125h-47.785156c-11.308594-.019531-20.460937-9.171875-20.480469-20.480469h-6.828125v6.828125h102.402344v-6.828125h-6.828125c-.019531 11.308594-9.171875 20.460938-20.480469 20.480469v13.65625c18.855469-.003906 34.128907-15.28125 34.132813-34.136719 0-1.796875-.726563-3.554687-2-4.828125-1.269532-1.269531-3.027344-1.996094-4.824219-1.996094h-102.402344c-1.796875 0-3.554687.726563-4.824219 1.996094-1.273437 1.273438-2 3.03125-2 4.828125.003907 18.855469 15.277344 34.128907 34.132813 34.136719h47.785156zm0 0" fill="#54596e"/><path d="m259.898438 365.527344h102.398437v27.304687h-102.398437zm0 0" fill="#ededed"/><path d="m362.296875 392.832031v-6.824219h-95.570313v-13.65625h88.742188v20.480469h6.828125v-6.828125 6.828125h6.828125v-27.304687c0-1.796875-.726562-3.558594-2-4.828125-1.269531-1.273438-3.027344-2-4.828125-2h-102.398437c-1.796876 0-3.558594.726562-4.828126 2-1.269531 1.269531-2 3.027343-2 4.828125v27.304687c0 1.800781.730469 3.558594 2 4.828125 1.269532 1.273438 3.03125 2 4.828126 2h102.398437c1.796875 0 3.554687-.726562 4.828125-2 1.273438-1.269531 2-3.027344 2-4.828125z" fill="#54596e"/><path d="m334.992188 420.140625h-47.789063c-15.078125 0-27.304687-12.226563-27.304687-27.308594h102.398437c0 15.082031-12.226563 27.308594-27.304687 27.308594zm0 0" fill="#ededed"/><path d="m334.992188 420.140625v-6.828125h-47.789063c-11.304687-.019531-20.460937-9.171875-20.480469-20.480469h-6.824218v6.828125h102.398437v-6.828125h-6.828125c-.019531 11.308594-9.171875 20.460938-20.476562 20.480469v13.65625c18.851562-.003906 34.125-15.28125 34.132812-34.136719 0-1.796875-.730469-3.554687-2-4.828125-1.273438-1.269531-3.03125-1.996094-4.828125-1.996094h-102.398437c-1.796876 0-3.558594.726563-4.828126 1.996094-1.269531 1.273438-2 3.03125-2 4.828125.003907 18.855469 15.28125 34.128907 34.132813 34.136719h47.789063zm0 0" fill="#54596e"/><path d="m48.269531 140.246094h314.027344v88.746094h-314.027344zm0 0" fill="#ededed"/><path d="m362.296875 140.246094v-6.824219h-314.027344c-1.796875 0-3.554687.726563-4.824219 1.996094-1.273437 1.273437-2 3.03125-2 4.828125v88.746094c0 1.796874.726563 3.558593 2 4.828124 1.269532 1.269532 3.027344 2 4.824219 2h314.027344c1.796875 0 3.554687-.730468 4.828125-2 1.269531-1.269531 2-3.03125 2-4.828124v-88.746094c0-1.796875-.730469-3.554688-2-4.828125-1.273438-1.269531-3.03125-1.996094-4.828125-1.996094v6.824219h-6.828125v81.921875h-300.371094v-75.09375h307.199219v-6.828125h-6.828125zm0 0" fill="#54596e"/><path d="m123.363281 160.726562h81.921875v68.265626h-81.921875zm0 0" fill="#ededed"/><g fill="#54596e"><path d="m205.285156 160.726562v-6.824218h-81.921875c-1.796875 0-3.554687.726562-4.824219 1.996094-1.273437 1.273437-2.003906 3.03125-2.003906 4.828124v68.265626c0 1.796874.730469 3.558593 2.003906 4.828124 1.269532 1.269532 3.027344 2 4.824219 2h81.921875c1.796875 0 3.554688-.730468 4.824219-2 1.273437-1.269531 2-3.03125 2-4.828124v-68.265626c0-1.796874-.726563-3.554687-2-4.828124-1.269531-1.269532-3.027344-1.996094-4.824219-1.996094v6.824218h-6.828125v61.441407h-68.265625v-54.613281h75.09375v-6.828126h-6.828125zm0 0"/><path d="m205.285156 160.726562h81.917969v68.265626h-81.917969zm0 0"/><path d="m287.203125 160.726562v-6.824218h-81.917969c-1.796875 0-3.558594.726562-4.828125 1.996094-1.269531 1.273437-2 3.03125-2 4.828124v68.265626c0 1.796874.730469 3.558593 2 4.828124 1.273438 1.269532 3.03125 2 4.828125 2h81.917969c1.796875 0 3.554687-.730468 4.828125-2 1.269531-1.269531 2-3.03125 2-4.828124v-68.265626c0-1.796874-.730469-3.554687-2-4.828124-1.273438-1.269532-3.03125-1.996094-4.828125-1.996094v6.824218h-6.828125v61.441407h-68.265625v-54.613281h75.09375v-6.828126h-6.828125zm0 0"/></g><path d="m177.976562 194.859375c0 7.542969-6.113281 13.65625-13.652343 13.65625-7.542969 0-13.652344-6.113281-13.652344-13.65625 0-7.539063 6.109375-13.652344 13.652344-13.652344 7.539062 0 13.652343 6.113281 13.652343 13.652344zm0 0" fill="#f99"/><path d="m48.269531 167.554688h307.199219c3.773438 0 6.828125-3.058594 6.828125-6.828126 0-3.769531-3.054687-6.824218-6.828125-6.824218h-307.199219c-3.769531 0-6.824219 3.054687-6.824219 6.824218 0 3.769532 3.054688 6.828126 6.824219 6.828126" fill="#54596e"/><path d="m7.308594 215.339844h81.921875v34.132812h-81.921875zm0 0" fill="#ededed"/><path d="m89.230469 249.472656v-6.824218h-75.09375v-20.484376h68.265625v27.308594h6.828125v-6.824218 6.824218h6.828125v-34.132812c0-1.796875-.730469-3.554688-2-4.828125-1.273438-1.269531-3.03125-1.996094-4.828125-1.996094h-81.921875c-1.796875 0-3.554688.726563-4.824219 1.996094-1.273437 1.273437-2 3.03125-2 4.828125v34.132812c0 1.796875.726563 3.554688 2 4.828125 1.269531 1.269531 3.027344 1.996094 4.824219 1.996094h81.921875c1.796875 0 3.554687-.726563 4.828125-1.996094 1.269531-1.273437 2-3.03125 2-4.828125zm0 0" fill="#54596e"/><path d="m7.308594 249.472656h81.921875v34.132813h-81.921875zm0 0" fill="#ededed"/><path d="m89.230469 283.605469v-6.824219h-75.09375v-20.484375h68.265625v27.308594h6.828125v-6.824219 6.824219h6.828125v-34.132813c0-1.796875-.730469-3.554687-2-4.828125-1.273438-1.269531-3.03125-1.996093-4.828125-1.996093h-81.921875c-1.796875 0-3.554688.726562-4.824219 1.996093-1.273437 1.273438-2 3.03125-2 4.828125v34.132813c0 1.800781.726563 3.558593 2 4.828125 1.269531 1.273437 3.027344 2 4.824219 2h81.921875c1.796875 0 3.554687-.726563 4.828125-2 1.269531-1.269532 2-3.027344 2-4.828125zm0 0" fill="#54596e"/><path d="m34.617188 283.605469h27.304687v27.308593h-27.304687zm0 0" fill="#ededed"/><path d="m61.921875 310.914062v-6.828124h-20.476563v-13.652344h13.652344v20.480468h6.824219v-6.828124 6.828124h6.828125v-27.308593c0-1.796875-.726562-3.554688-2-4.828125-1.269531-1.269532-3.027344-1.996094-4.828125-1.996094h-27.304687c-1.796876 0-3.558594.726562-4.828126 1.996094-1.269531 1.273437-2 3.03125-2 4.828125v27.308593c0 1.796876.730469 3.554688 2 4.828126 1.273438 1.269531 3.03125 2 4.828126 2h27.304687c1.800781 0 3.558594-.730469 4.828125-2 1.273438-1.273438 2-3.03125 2-4.828126zm0 0" fill="#54596e"/><path d="m321.335938 215.339844h81.921874v34.132812h-81.921874zm0 0" fill="#ededed"/><path d="m403.257812 249.472656v-6.824218h-75.09375v-20.484376h68.265626v27.308594h6.828124v-6.824218 6.824218h6.824219v-34.132812c0-1.796875-.726562-3.554688-2-4.828125-1.269531-1.269531-3.027343-1.996094-4.824219-1.996094h-81.921874c-1.796876 0-3.554688.726563-4.824219 1.996094-1.273438 1.273437-2 3.03125-2 4.828125v34.132812c0 1.796875.726562 3.554688 2 4.828125 1.269531 1.269531 3.027343 1.996094 4.824219 1.996094h81.921874c1.796876 0 3.554688-.726563 4.824219-1.996094 1.273438-1.273437 2-3.03125 2-4.828125zm0 0" fill="#54596e"/><path d="m321.335938 249.472656h81.921874v34.132813h-81.921874zm0 0" fill="#ededed"/><path d="m403.257812 283.605469v-6.824219h-75.09375v-20.484375h68.265626v27.308594h6.828124v-6.824219 6.824219h6.824219v-34.132813c0-1.796875-.726562-3.554687-2-4.828125-1.269531-1.269531-3.027343-1.996093-4.824219-1.996093h-81.921874c-1.796876 0-3.554688.726562-4.824219 1.996093-1.273438 1.273438-2 3.03125-2 4.828125v34.132813c0 1.800781.726562 3.558593 2 4.828125 1.269531 1.273437 3.027343 2 4.824219 2h81.921874c1.796876 0 3.554688-.726563 4.824219-2 1.273438-1.269532 2-3.027344 2-4.828125zm0 0" fill="#54596e"/><path d="m164.324219 37.847656h81.917969v34.132813h-81.917969zm0 0" fill="#54596e"/><path d="m246.242188 71.980469v-6.828125h-75.09375v-20.480469h68.269531v27.308594h6.824219v-6.828125 6.828125h6.828124v-34.132813c0-1.800781-.730468-3.558594-2-4.828125-1.273437-1.273437-3.03125-2-4.828124-2h-81.917969c-1.796875 0-3.558594.726563-4.828125 2-1.269532 1.269531-2 3.027344-2 4.828125v34.132813c0 1.796875.730468 3.554687 2 4.828125 1.273437 1.269531 3.03125 1.996094 4.828125 1.996094h81.917969c1.796874 0 3.554687-.726563 4.828124-1.996094 1.269532-1.273438 2-3.03125 2-4.828125zm0 0" fill="#54596e"/><path d="m348.644531 283.605469h27.304688v27.308593h-27.304688zm0 0" fill="#ededed"/><path d="m375.949219 310.914062v-6.828124h-20.480469v-13.652344h13.65625v20.480468h6.824219v-6.828124 6.828124h6.828125v-27.308593c0-1.796875-.730469-3.554688-2-4.828125-1.273438-1.269532-3.03125-1.996094-4.828125-1.996094h-27.304688c-1.796875 0-3.558593.726562-4.828125 1.996094-1.269531 1.273437-2 3.03125-2 4.828125v27.308593c0 1.796876.730469 3.554688 2 4.828126 1.273438 1.269531 3.03125 2 4.828125 2h27.304688c1.796875 0 3.558593-.730469 4.828125-2 1.269531-1.273438 2-3.03125 2-4.828126zm0 0" fill="#54596e"/><path d="m253.5 89.628906 52.214844 16.019532c19.820312 6.078124 40.824218-5.0625 46.90625-24.886719 6.078125-19.828125-5.0625-40.828125-24.886719-46.90625l-88.109375-27.027344-11.011719 35.894531c-6.082031 19.824219 5.0625 40.824219 24.886719 46.90625zm0 0" fill="#ededed"/><path d="m253.5 89.628906-2 6.523438 52.210938 16.023437c4.324218 1.324219 8.710937 1.957031 13.027343 1.957031 18.996094.003907 36.539063-12.28125 42.410157-31.371093 1.324218-4.324219 1.960937-8.710938 1.960937-13.027344.003906-18.996094-12.28125-36.542969-31.371094-42.40625l-88.105469-27.027344c-3.605468-1.105469-7.421874.917969-8.527343 4.523438l-11.015625 35.894531c-1.324219 4.320312-1.960938 8.710938-1.960938 13.023438-.003906 18.996093 12.28125 36.539062 31.371094 42.410156l2-6.523438 2.003906-6.527344c-13.226562-4.046874-21.71875-16.230468-21.722656-29.359374 0-2.976563.433594-6.003907 1.359375-9.019532l9.011719-29.367187 81.578125 25.023437c13.222656 4.042969 21.71875 16.226563 21.722656 29.355469 0 2.980469-.433594 6.007813-1.359375 9.023437-4.042969 13.222657-16.230469 21.71875-29.359375 21.722657-2.976563 0-6.007813-.433594-9.019531-1.359375l-52.210938-16.019532zm0 0" fill="#54596e"/><path d="m157.066406 89.628906-52.214844 16.019532c-19.820312 6.078124-40.820312-5.0625-46.90625-24.886719-6.078124-19.828125 5.0625-40.828125 24.886719-46.90625l88.109375-27.027344 11.011719 35.894531c6.082031 19.824219-5.058594 40.824219-24.886719 46.90625zm0 0" fill="#ededed"/><path d="m157.066406 89.628906-2-6.527344-52.214844 16.019532c-3.011718.925781-6.039062 1.355468-9.019531 1.359375-13.125-.003907-25.3125-8.5-29.359375-21.722657-.921875-3.015624-1.359375-6.042968-1.359375-9.023437.003907-13.128906 8.496094-25.3125 21.71875-29.351563l81.582031-25.027343 9.011719 29.367187c.925781 3.015625 1.363281 6.042969 1.363281 9.019532-.007812 13.128906-8.5 25.3125-21.722656 29.359374l2 6.527344 2.003906 6.523438c19.089844-5.867188 31.375-23.414063 31.367188-42.410156 0-4.3125-.632812-8.703126-1.957031-13.023438l-11.015625-35.894531c-1.105469-3.605469-4.921875-5.628907-8.527344-4.523438l-88.105469 27.027344c-19.09375 5.863281-31.378906 23.410156-31.371093 42.40625 0 4.316406.632812 8.707031 1.960937 13.027344 5.871094 19.089843 23.414063 31.375 42.410156 31.371093 4.3125 0 8.703125-.632812 13.019531-1.957031l52.21875-16.023437zm0 0" fill="#54596e"/><path d="m171.148438 112.941406h68.269531v27.304688h-68.269531zm0 0" fill="#ededed"/><path d="m239.417969 112.941406v-6.828125h-68.269531c-1.796876 0-3.554688.726563-4.824219 2-1.273438 1.269531-2 3.027344-2 4.828125v27.304688c0 1.796875.726562 3.554687 2 4.828125 1.269531 1.269531 3.027343 1.996093 4.824219 1.996093h68.269531c1.796875 0 3.554687-.726562 4.824219-1.996093 1.273437-1.273438 2-3.03125 2-4.828125v-27.304688c0-1.800781-.726563-3.558594-2-4.828125-1.269532-1.273437-3.027344-2-4.824219-2v6.828125h-6.828125v20.480469h-54.613282v-13.65625h61.441407v-6.824219h-6.828125zm0 0" fill="#54596e"/><path d="m184.804688 65.152344h40.957031v47.789062h-40.957031zm0 0" fill="#ededed"/><path d="m225.761719 65.152344v-6.824219h-40.957031c-1.796876 0-3.558594.726563-4.828126 1.996094-1.269531 1.273437-2 3.03125-2 4.828125v47.789062c0 1.796875.730469 3.554688 2 4.824219 1.273438 1.273437 3.03125 2 4.828126 2h40.957031c1.800781 0 3.558593-.726563 4.828125-2 1.273437-1.269531 2-3.027344 2-4.824219v-47.789062c0-1.796875-.726563-3.554688-2-4.828125-1.269532-1.269531-3.027344-1.996094-4.828125-1.996094v6.824219h-6.824219v40.960937h-27.308594v-34.132812h34.132813v-6.828125h-6.824219zm0 0" fill="#54596e"/><path d="m317.921875 61.742188c0 13.195312-10.695313 23.890624-23.890625 23.890624s-23.894531-10.695312-23.894531-23.890624c0-13.199219 10.699219-23.894532 23.894531-23.894532s23.890625 10.695313 23.890625 23.894532zm0 0" fill="#999"/><path d="m317.921875 61.742188h6.828125c-.003906-16.96875-13.75-30.71875-30.71875-30.722657-16.972656.003907-30.714844 13.753907-30.722656 30.722657.007812 16.964843 13.75 30.714843 30.722656 30.71875 16.96875-.003907 30.714844-13.753907 30.71875-30.71875h-13.652344c-.019531 9.417968-7.644531 17.046874-17.066406 17.066406-9.421875-.019532-17.050781-7.648438-17.066406-17.066406.015625-9.421876 7.644531-17.050782 17.066406-17.066407 9.421875.015625 17.046875 7.644531 17.066406 17.066407zm0 0" fill="#54596e"/><path d="m143.84375 61.742188c0 13.195312-10.699219 23.890624-23.894531 23.890624-13.195313 0-23.890625-10.695312-23.890625-23.890624 0-13.199219 10.695312-23.894532 23.890625-23.894532 13.195312 0 23.894531 10.695313 23.894531 23.894532zm0 0" fill="#999"/><path d="m143.84375 61.742188h6.828125c-.007813-16.96875-13.75-30.71875-30.722656-30.722657-16.96875.003907-30.714844 13.753907-30.71875 30.722657.003906 16.964843 13.75 30.714843 30.71875 30.71875 16.972656-.003907 30.714843-13.753907 30.722656-30.71875h-13.65625c-.015625 9.417968-7.644531 17.046874-17.066406 17.066406-9.421875-.019532-17.046875-7.648438-17.066407-17.066406.019532-9.421876 7.644532-17.050782 17.066407-17.066407 9.421875.015625 17.050781 7.644531 17.066406 17.066407zm0 0" fill="#54596e"/><path d="m123.363281 54.914062c0 5.65625-4.585937 10.238282-10.238281 10.238282-5.65625 0-10.242188-4.582032-10.242188-10.238282s4.585938-10.238281 10.242188-10.238281c5.652344 0 10.238281 4.582031 10.238281 10.238281zm0 0" fill="#fff"/><path d="m294.03125 54.914062c0 5.65625-4.585938 10.238282-10.242188 10.238282-5.652343 0-10.238281-4.582032-10.238281-10.238282s4.585938-10.238281 10.238281-10.238281c5.65625 0 10.242188 4.582031 10.242188 10.238281zm0 0" fill="#fff"/><path d="m355.46875 331.390625h-300.371094v27.308594h300.371094z" fill="#eee361"/><path d="m259.898438 358.699219h-109.226563c1.796875 0 3.554687.726562 4.828125 2 1.269531 1.269531 1.996094 3.027343 1.996094 4.828125h95.574218c0-1.796875.730469-3.558594 2-4.828125 1.269532-1.273438 3.03125-2 4.828126-2m-204.800782-27.308594h-6.824218v27.308594h6.824218zm307.199219 0h-6.828125v27.308594h6.828125z" fill="#54596e"/><path d="m150.671875 358.699219h-102.398437v6.828125h109.222656c0-1.796875-.726563-3.558594-1.996094-4.828125-1.273438-1.273438-3.03125-2-4.828125-2" fill="#54596e"/><path d="m362.296875 358.699219h-102.398437c-1.796876 0-3.558594.726562-4.828126 2-1.269531 1.269531-2 3.027343-2 4.828125h109.226563z" fill="#54596e"/></svg>