<svg height="436pt" viewBox="0 0 436.90667 436" width="436pt" xmlns="http://www.w3.org/2000/svg"><path d="m430.078125 430.160156h-423.25v-81.921875l218.453125-40.957031 204.796875 40.957031zm0 0" fill="#f4a14e"/><path d="m430.078125 430.160156v-6.828125h-416.425781v-69.425781l211.582031-39.671875 198.019531 39.601563v76.324218h6.824219v-6.828125 6.828125h6.828125v-81.921875c0-3.253906-2.296875-6.054687-5.488281-6.691406l-204.800781-40.960937c-.84375-.167969-1.75-.175782-2.597657-.015626l-218.453125 40.960938c-3.21875.601562-5.566406 3.429688-5.566406 6.707031v81.921875c0 1.796875.730469 3.554688 2 4.824219 1.273438 1.273437 3.03125 2 4.828125 2h423.25c1.800781 0 3.558594-.726563 4.828125-2 1.273438-1.269531 2-3.027344 2-4.824219zm0 0" fill="#54596e"/><path d="m109.226562 395.238281 13.652344-81.132812h191.148438l13.652344 81.132812" fill="#f4a14e"/><path d="m115.960938 396.371094 12.695312-75.4375h179.597656l12.695313 75.4375c.625 3.71875 4.148437 6.226562 7.867187 5.601562s6.222656-4.148437 5.597656-7.863281l-13.652343-81.136719c-.554688-3.292968-3.394531-5.691406-6.734375-5.691406h-191.148438c-3.335937 0-6.175781 2.398438-6.730468 5.691406l-13.65625 81.132813c-.625 3.71875 1.882812 7.242187 5.597656 7.863281 3.722656.628906 7.242187-1.878906 7.871094-5.597656zm0 0" fill="#54596e"/><path d="m218.453125 47.867188c-67.863281 0-109.226563 51.957031-109.226563 116.050781l6.828126 109.226562 102.398437 81.921875 102.398437-81.921875 6.828126-109.226562c0-64.09375-41.363282-116.050781-109.226563-116.050781zm0 0" fill="#f4a14e"/><path d="m218.453125 47.867188v-6.828126c-35.675781-.046874-65.089844 13.820313-85.144531 36.261719-20.089844 22.421875-30.910156 53.117188-30.910156 86.617188l.015624.429687 6.828126 109.226563c.117187 1.921875 1.042968 3.699219 2.546874 4.902343l102.398438 81.921876c2.496094 1.996093 6.035156 1.996093 8.53125 0l102.398438-81.921876c1.503906-1.203124 2.429687-2.980468 2.550781-4.902343l6.824219-109.226563.015624-.429687c.003907-33.496094-10.816406-64.195313-30.910156-86.617188-20.054687-22.441406-49.464844-36.308593-85.144531-36.261719v13.652344c32.1875.046875 57.386719 12.160156 74.980469 31.722656 17.554687 19.578126 27.417968 46.910157 27.417968 77.503907h6.828126l-6.8125-.425781-6.640626 106.210937-95.773437 76.621094-95.773437-76.621094-6.640626-106.210937-6.8125.425781h6.828126c.003906-30.59375 9.863281-57.921875 27.417968-77.503907 17.59375-19.5625 42.792969-31.675781 74.980469-31.722656zm0 0" fill="#54596e"/><path d="m264.234375 389.199219-91.410156-.152344c-10.835938 1.300781-21.386719-3.300781-25.140625-10.960937l-25.90625-44.835938c-9.648438-9.914062-13.972656-22.140625-12.128906-34.292969l4.015624-40.125 104.789063 18.359375 104.792969-18.359375 4.015625 40.140625c1.84375 12.144532-2.472657 24.359375-12.113281 34.273438l-25.984376 44.964844c-3.722656 7.601562-14.152343 12.203124-24.929687 10.988281zm0 0" fill="#ffd578"/><g fill="#54596e"><path d="m264.234375 389.199219.011719-6.828125-91.410156-.152344-.820313.046875c-.953125.117187-1.90625.171875-2.851563.171875-3.6875.003906-7.203124-.875-9.914062-2.28125-2.734375-1.410156-4.570312-3.277344-5.4375-5.074219l-.21875-.410156-25.902344-44.835937-1.019531-1.347657c-7.136719-7.355469-10.601563-15.699219-10.613281-24.03125 0-1.488281.113281-2.980469.335937-4.476562l.042969-.34375 3.285156-32.816407 97.554688 17.09375c.796875.140626 1.554687.140626 2.355468 0l97.554688-17.09375 3.285156 32.828126.042969.34375c.226563 1.5.339844 2.992187.339844 4.480468-.011719 8.324219-3.472657 16.652344-10.597657 24.011719l-1.015624 1.34375-25.988282 44.96875-.21875.410156c-.867187 1.792969-2.699218 3.660157-5.433594 5.070313-2.710937 1.410156-6.230468 2.292968-9.921874 2.285156-.886719 0-1.785157-.050781-2.691407-.148438l-.742187-.042968-.011719 6.828125-.753906 6.785156c1.402343.15625 2.804687.234375 4.195312.234375 5.800781-.007812 11.363281-1.324219 16.1875-3.804688 4.804688-2.484374 8.972657-6.203124 11.429688-11.195312l-6.128907-3.003906 5.910157 3.414062 25.988281-44.96875-5.910156-3.414062 4.894531 4.757812c9.234375-9.472656 14.472656-21.289062 14.460937-33.527344 0-2.171874-.164062-4.355468-.492187-6.527343l-6.75 1.027343 6.792969-.679687-4.019532-40.140625c-.1875-1.890625-1.152343-3.613281-2.667968-4.761719-1.511719-1.148437-3.429688-1.613281-5.300782-1.285156l-103.617187 18.152344-103.613281-18.15625c-1.871094-.328125-3.785156.136719-5.300782 1.285156-1.515624 1.148437-2.476562 2.871094-2.667968 4.761719l-4.015625 40.125 6.792969.679687-6.75-1.023437c-.332032 2.167968-.496094 4.351562-.496094 6.523437-.011719 12.25 5.234375 24.078125 14.484375 33.554688l4.890625-4.761719-5.910156 3.414062 25.90625 44.835938 5.910156-3.414062-6.132813 3c2.460938 4.996093 6.628907 8.714843 11.433594 11.199218 4.828125 2.484375 10.386719 3.796875 16.179687 3.800782 1.476563 0 2.96875-.082032 4.46875-.261719l-.808593-6.78125-.011719 6.828125 91.40625.152344.015625-6.824219-.753906 6.785156zm0 0"/><path d="m101.972656 198.054688 116.480469 27.304687 115.839844-23.894531v64.855468l-115.839844 13.652344-109.226563-20.480468zm0 0"/><path d="m261.453125 320.933594h-86c-2.644531 0-4.789063-2.140625-4.789063-4.789063v-10.90625c0-2.648437 2.144532-4.785156 4.789063-4.785156h86c2.644531 0 4.785156 2.136719 4.785156 4.785156v10.90625c0 2.648438-2.140625 4.789063-4.785156 4.789063zm0 0"/></g><path d="m191.148438 314.105469h54.613281v-6.824219h-54.613281" fill="#fff"/><path d="m116.054688 184.398438 109.226562 75.09375-112.972656 14.527343-52.496094-82.21875-7.167969-117.609375 19.507813-73.738281 1.550781 6.140625c4.921875 41.253906 12.792969 88.925781 23.546875 129.058594zm0 0" fill="#54596e"/><path d="m325.710938 184.398438-109.226563 75.09375 112.972656 14.527343 52.492188-82.21875 7.171875-117.609375-19.511719-73.738281-1.550781 6.140625c-4.921875 41.253906-12.792969 88.925781-23.546875 129.058594zm0 0" fill="#54596e"/><path d="m197.972656 259.492188-34.132812-34.132813h-25.601563l7.800781 11.699219c5.933594 8.902344 15.160157 15.082031 25.648438 17.171875zm0 0" fill="#fff"/><path d="m240.640625 259.492188 34.132813-34.132813h25.601562l-7.800781 11.699219c-5.933594 8.902344-15.160157 15.082031-25.648438 17.171875zm0 0" fill="#fff"/><path d="m75.09375 430.160156-40.960938-81.921875 40.960938-13.652343zm0 0" fill="#54596e"/><path d="m368.640625 430.160156 40.960937-81.921875-40.960937-13.652343zm0 0" fill="#54596e"/></svg>