<svg height="430pt" viewBox="-51 0 430 430.08" width="430pt" xmlns="http://www.w3.org/2000/svg"><path d="m163.878906 6.828125c-71.636718 0-129.707031 58.070313-129.707031 129.707031v96.4375c0 29.679688 24.066406 53.746094 53.746094 53.746094h205.667969v-150.183594c0-71.636718-58.070313-129.707031-129.707032-129.707031zm0 0" fill="#fff35f"/><path d="m163.878906 6.828125v-6.828125c-75.40625.00390625-136.527344 61.125-136.53125 136.535156v96.4375c.003906 33.453125 27.117188 60.570313 60.570313 60.574219h205.667969c1.796874 0 3.554687-.726563 4.828124-2 1.269532-1.269531 2-3.027344 2-4.824219v-150.1875c-.003906-75.40625-61.125-136.53124975-136.535156-136.535156v13.652344c33.957032.003906 64.632813 13.746094 86.890625 35.992187 22.25 22.257813 35.988281 52.933594 35.992188 86.890625v143.359375h-198.84375c-12.976563-.003906-24.664063-5.242187-33.175781-13.746093-8.5-8.511719-13.738282-20.199219-13.742188-33.175782v-96.4375c.003906-33.957031 13.742188-64.632812 35.988281-86.890625 22.261719-22.246093 52.9375-35.988281 86.890625-35.992187zm0 0" fill="#54596e"/><path d="m293.585938 163.839844c0 15.082031-12.226563 27.308594-27.304688 27.308594-15.082031 0-27.308594-12.226563-27.308594-27.308594 0-15.082032 12.226563-27.304688 27.308594-27.304688 15.078125 0 27.304688 12.222656 27.304688 27.304688zm0 0" fill="#ffd578"/><path d="m293.585938 163.839844h6.828124c-.003906-18.851563-15.28125-34.128906-34.132812-34.132813-18.855469.003907-34.128906 15.28125-34.132812 34.132813.003906 18.855468 15.277343 34.128906 34.132812 34.132812 18.851562-.003906 34.128906-15.277344 34.132812-34.132812h-13.652343c-.023438 11.308594-9.175781 20.460937-20.480469 20.480468-11.308594-.019531-20.460938-9.171874-20.480469-20.480468.019531-11.304688 9.171875-20.460938 20.480469-20.480469 11.304688.019531 20.457031 9.175781 20.480469 20.480469zm0 0" fill="#54596e"/><path d="m88.785156 163.839844c0 15.082031-12.222656 27.308594-27.304687 27.308594s-27.308594-12.226563-27.308594-27.308594c0-15.082032 12.226563-27.304688 27.308594-27.304688s27.304687 12.222656 27.304687 27.304688zm0 0" fill="#ffd578"/><path d="m88.785156 163.839844h6.828125c-.003906-18.851563-15.28125-34.128906-34.132812-34.132813-18.855469.003907-34.128907 15.28125-34.132813 34.132813.003906 18.855468 15.277344 34.128906 34.132813 34.132812 18.851562-.003906 34.128906-15.277344 34.132812-34.132812h-13.652343c-.019532 11.308594-9.175782 20.460937-20.480469 20.480468-11.308594-.019531-20.460938-9.171874-20.480469-20.480468.019531-11.304688 9.171875-20.460938 20.480469-20.480469 11.304687.019531 20.460937 9.175781 20.480469 20.480469zm0 0" fill="#54596e"/><path d="m268.082031 327.679688h-76.894531v-47.785157h-54.613281v47.785157h-70.070313c-32.9375 0-59.636718 22.886718-59.636718 51.121093v44.453125h314.027343v-50.308594c0-25-23.644531-45.265624-52.8125-45.265624zm0 0" fill="#55a6ff"/><path d="m268.082031 327.679688v-6.828126h-70.070312v-40.957031c0-1.800781-.726563-3.558593-2-4.828125-1.269531-1.273437-3.027344-2-4.824219-2h-54.613281c-1.796875 0-3.558594.726563-4.828125 2-1.269532 1.269532-2 3.027344-2 4.828125v40.957031h-63.242188c-18.054687.007813-34.515625 6.257813-46.613281 16.617188-12.082031 10.328125-19.859375 25.011719-19.8515625 41.332031v44.453125c0 1.796875.7304685 3.554688 1.9999995 4.824219 1.273438 1.273437 3.03125 2 4.828126 2h314.027343c1.796875 0 3.554688-.726563 4.824219-1.996094 1.273438-1.273437 2-3.03125 2-4.828125v-50.304687c.011719-14.707031-7-27.925781-17.851562-37.191407-10.859376-9.304687-25.617188-14.898437-41.785157-14.902343v13.652343c13-.007812 24.648438 4.53125 32.898438 11.613282 8.265625 7.117187 13.074219 16.53125 13.085937 26.828125v43.476562h-300.375v-37.625c.011719-11.910156 5.585938-22.789062 15.085938-30.964843 9.488281-8.144532 22.84375-13.335938 37.726562-13.328126h70.070313c1.796875 0 3.554687-.726562 4.824219-2 1.273437-1.269531 2-3.027343 2-4.824218v-40.960938h40.960937v40.960938c0 1.796875.730469 3.554687 2 4.824218 1.273437 1.273438 3.03125 2 4.828125 2h76.894531zm0 0" fill="#54596e"/><path d="m199.214844 423.253906h-70.671875l-19.277344-34.132812h109.226563zm0 0" fill="#fff35f"/><path d="m199.214844 423.253906v-6.828125h-66.6875l-11.566406-20.480469h85.835937l-13.523437 23.949219 5.941406 3.359375v-6.828125 6.828125l5.945312 3.355469 19.277344-34.132813c1.1875-2.105468 1.167969-4.710937-.046875-6.796874-1.21875-2.089844-3.480469-3.386719-5.898437-3.386719h-109.226563c-2.414063 0-4.675781 1.296875-5.894531 3.382812-1.21875 2.089844-1.238282 4.695313-.046875 6.800781l19.273437 34.132813c1.210938 2.140625 3.484375 3.46875 5.945313 3.46875h70.671875c2.460937 0 4.734375-1.324219 5.945312-3.46875zm0 0" fill="#54596e"/><path d="m129.746094 320.851562-75.09375 6.828126 47.789062 27.308593 6.824219 34.132813h27.308594zm0 0" fill="#f99"/><path d="m129.746094 320.851562-.617188-6.796874-75.09375 6.824218c-2.976562.269532-5.417968 2.425782-6.050781 5.347656-.636719 2.921876.6875 5.894532 3.28125 7.378907l45.089844 25.765625 6.21875 31.085937c.636719 3.191407 3.4375 5.488281 6.691406 5.488281h27.308594c1.925781 0 3.769531-.816406 5.0625-2.246093 1.289062-1.429688 1.921875-3.34375 1.730469-5.261719l-6.828126-68.265625c-.375-3.730469-3.675781-6.460937-7.410156-6.117187l.617188 6.796874-6.792969.679688 6.078125 60.761719h-14.167969l-5.730469-28.644531c-.386718-1.9375-1.589843-3.609376-3.308593-4.585938l-28.953125-16.546875 53.492187-4.859375-.617187-6.804688-6.792969.679688zm0 0" fill="#54596e"/><path d="m198.011719 320.851562 75.09375 6.828126-47.785157 27.308593-6.828124 34.132813h-27.304688zm0 0" fill="#f99"/><path d="m198.011719 320.851562-.617188 6.800782 53.492188 4.859375-28.953125 16.546875c-1.714844.980468-2.917969 2.648437-3.308594 4.585937l-5.726562 28.648438h-14.167969l6.074219-60.761719-6.792969-.679688-.617188 6.800782.617188-6.800782-6.789063-.675781-6.828125 68.265625c-.191406 1.914063.4375 3.832032 1.730469 5.257813 1.292969 1.429687 3.136719 2.246093 5.0625 2.246093h27.304688c3.257812 0 6.054687-2.292968 6.695312-5.488281l6.214844-31.085937 45.089844-25.765625c2.597656-1.484375 3.917968-4.457031 3.285156-7.378907-.636719-2.921874-3.078125-5.078124-6.054688-5.347656l-75.089844-6.824218c-3.734374-.339844-7.039062 2.386718-7.410156 6.117187zm0 0" fill="#54596e"/><path d="m163.878906 354.988281c-15.078125 0-27.304687-12.226562-27.304687-27.308593v-47.785157h54.613281v47.785157c0 15.082031-12.226562 27.308593-27.308594 27.308593zm0 0" fill="#ffd578"/><path d="m163.878906 354.988281v-6.828125c-11.304687-.019531-20.457031-9.171875-20.480468-20.480468v-40.960938h40.960937v40.960938c-.019531 11.308593-9.171875 20.460937-20.480469 20.480468v13.652344c18.855469-.003906 34.128906-15.277344 34.132813-34.132812v-47.785157c0-1.800781-.726563-3.558593-2-4.828125-1.269531-1.273437-3.027344-2-4.824219-2h-54.613281c-1.796875 0-3.558594.726563-4.828125 2-1.269532 1.269532-2 3.027344-2 4.828125v47.785157c.003906 18.855468 15.28125 34.128906 34.132812 34.132812zm0 0" fill="#54596e"/><path d="m225.320312 273.066406v27.308594c0 37.699219 30.5625 68.265625 68.265626 68.265625v-95.574219" fill="#fff35f"/><path d="m218.492188 273.066406v27.308594c.007812 41.46875 33.617187 75.085938 75.09375 75.089844 1.796874 0 3.554687-.726563 4.828124-1.996094 1.269532-1.273438 2-3.03125 2-4.828125v-95.570313c0-3.773437-3.058593-6.828124-6.828124-6.828124-3.769532 0-6.824219 3.054687-6.824219 6.828124v95.570313h6.824219v-6.824219c-16.988282-.003906-32.304688-6.867187-43.445313-18-11.128906-11.140625-17.992187-26.457031-17.992187-43.441406v-27.308594c0-3.769531-3.058594-6.828125-6.828126-6.828125-3.769531 0-6.828124 3.058594-6.828124 6.828125zm0 0" fill="#54596e"/><path d="m163.878906 307.199219c-56.550781 0-102.398437-45.84375-102.398437-102.398438v-116.054687h156.210937c26.832032 0 48.589844 21.753906 48.589844 48.59375v67.460937c0 56.554688-45.847656 102.398438-102.402344 102.398438zm0 0" fill="#ffd578"/><g fill="#54596e"><path d="m163.878906 307.199219v-6.824219c-26.410156-.003906-50.261718-10.6875-67.578125-27.996094-17.308593-17.316406-27.992187-41.167968-27.992187-67.578125v-109.230469h149.382812c11.550782.003907 21.949219 4.664063 29.527344 12.234376 7.570312 7.578124 12.230469 17.976562 12.234375 29.535156v67.460937c-.003906 26.410157-10.6875 50.261719-27.992187 67.578125-17.316407 17.308594-41.167969 27.992188-67.582032 27.996094v13.652344c60.328125-.003906 109.222656-48.898438 109.226563-109.226563v-67.460937c-.003907-30.613282-24.808594-55.414063-55.414063-55.417969h-156.210937c-1.796875 0-3.558594.726563-4.828125 1.996094-1.269532 1.273437-2 3.03125-2 4.828125v116.054687c.007812 60.324219 48.902344 109.222657 109.226562 109.226563zm0 0"/><path d="m116.09375 153.601562c0 5.652344-4.585938 10.238282-10.242188 10.238282-5.652343 0-10.238281-4.585938-10.238281-10.238282 0-5.65625 4.585938-10.242187 10.238281-10.242187 5.65625 0 10.242188 4.585937 10.242188 10.242187zm0 0"/><path d="m232.148438 153.601562c0 5.652344-4.585938 10.238282-10.242188 10.238282s-10.238281-4.585938-10.238281-10.238282c0-5.65625 4.582031-10.242187 10.238281-10.242187s10.242188 4.585937 10.242188 10.242187zm0 0"/></g><path d="m157.054688 225.28125h13.652343c7.539063 0 13.652344-6.113281 13.652344-13.65625 0-7.539062-6.113281-13.652344-13.652344-13.652344h-13.652343c-7.542969 0-13.65625 6.113282-13.65625 13.652344 0 7.542969 6.113281 13.65625 13.65625 13.65625" fill="#ff927d"/><path d="m136.574219 218.453125h54.613281c3.769531 0 6.824219-3.054687 6.824219-6.828125 0-3.769531-3.054688-6.824219-6.824219-6.824219h-54.613281c-3.769531 0-6.828125 3.054688-6.828125 6.824219 0 3.773438 3.058594 6.828125 6.828125 6.828125" fill="#ff927d"/><path d="m68.28125 75.140625c-4.324219 4.007813-6.800781 8.652344-6.800781 13.605469 0 15.082031 22.921875 27.308594 51.199219 27.308594 28.277343 0 51.199218-12.226563 51.199218-27.308594 0-4.960938-2.480468-9.621094-6.820312-13.625" fill="#fff35f"/><path d="m63.644531 70.128906c-5.269531 4.839844-8.996093 11.289063-8.992187 18.617188-.011719 5.535156 2.160156 10.6875 5.503906 14.871094 5.046875 6.304687 12.582031 10.925781 21.582031 14.195312 9.019531 3.242188 19.597657 5.0625 30.941407 5.066406 15.128906-.019531 28.882812-3.207031 39.417968-8.800781 5.261719-2.8125 9.753906-6.25 13.109375-10.460937 3.339844-4.183594 5.511719-9.335938 5.5-14.871094.003907-7.335938-3.726562-13.796875-9.019531-18.644532-2.769531-2.558593-7.089844-2.382812-9.648438.386719-2.554687 2.773438-2.382812 7.089844.386719 9.648438 3.386719 3.167969 4.625 6.027343 4.628907 8.609375-.011719 2.003906-.707032 4.035156-2.546876 6.386718-2.726562 3.496094-8.175781 7.214844-15.515624 9.835938-7.324219 2.640625-16.449219 4.261719-26.3125 4.257812-13.148438.019532-24.992188-2.90625-32.992188-7.195312-4.003906-2.128906-7.007812-4.578125-8.835938-6.898438-1.839843-2.351562-2.53125-4.382812-2.542968-6.386718 0-2.578125 1.230468-5.425782 4.613281-8.597656 2.765625-2.5625 2.933594-6.882813.371094-9.644532-2.5625-2.769531-6.882813-2.933594-9.648438-.375zm0 0" fill="#54596e"/><path d="m61.480469 395.945312v27.308594c0 3.769532 3.054687 6.824219 6.828125 6.824219 3.769531 0 6.824218-3.054687 6.824218-6.824219v-27.308594c0-3.769531-3.054687-6.824218-6.824218-6.824218-3.773438 0-6.828125 3.054687-6.828125 6.824218" fill="#54596e"/><path d="m259.453125 395.945312v27.308594c0 3.769532 3.058594 6.824219 6.828125 6.824219s6.824219-3.054687 6.824219-6.824219v-27.308594c0-3.769531-3.054688-6.824218-6.824219-6.824218s-6.828125 3.054687-6.828125 6.824218" fill="#54596e"/></svg>