<svg height="436pt" viewBox="0 0 436 436.90753" width="436pt" xmlns="http://www.w3.org/2000/svg"><g fill="#54596e"><path d="m102.855469 6.828125v116.054687l75.089843-20.480468zm0 0"/><path d="m102.855469 6.828125h-6.828125v116.054687c0 2.117188 1 4.136719 2.683594 5.421876 1.683593 1.289062 3.894531 1.71875 5.9375 1.164062l75.09375-20.480469c2.203124-.601562 3.96875-2.277343 4.683593-4.445312.71875-2.167969.296875-4.566407-1.113281-6.359375l-75.09375-95.574219c-1.792969-2.285156-4.851562-3.183594-7.597656-2.234375-2.746094.953125-4.59375 3.546875-4.59375 6.453125h6.828125l-5.371094 4.214844 68.734375 87.480469-56.539062 15.417968v-107.113281h-6.824219l-5.371094 4.214844zm0 0"/><path d="m334.960938 6.828125v116.054687l-75.09375-20.480468zm0 0"/><path d="m334.960938 6.828125h-6.828126v107.113281l-56.539062-15.417968 68.734375-87.476563-5.367187-4.21875h-6.828126 6.828126l-5.367188-4.21875-75.09375 95.574219c-1.410156 1.792968-1.828125 4.191406-1.113281 6.359375.714843 2.167969 2.480469 3.839843 4.683593 4.445312l75.09375 20.480469c2.046876.554688 4.253907.125 5.9375-1.164062 1.6875-1.285157 2.683594-3.304688 2.683594-5.421876v-116.054687c0-2.910156-1.847656-5.503906-4.59375-6.453125s-5.800781-.050781-7.597656 2.234375zm0 0"/></g><path d="m430.535156 430.082031h-423.253906v-63.972656c0-10.410156 7.410156-19.335937 17.636719-21.253906l200.816406-37.65625 187.417969 37.488281c10.109375 2.019531 17.382812 10.894531 17.382812 21.199219zm0 0" fill="#999"/><path d="m430.535156 430.082031v-6.828125h-416.429687v-57.144531c0-7.121094 5.070312-13.234375 12.070312-14.546875l199.515625-37.410156 186.121094 37.230468c6.917969 1.378907 11.894531 7.453126 11.894531 14.503907v64.195312h6.828125v-6.828125 6.828125h6.824219v-64.195312c0-13.558594-9.566406-25.234375-22.867187-27.894531l-187.421876-37.484376c-.84375-.167968-1.75-.175781-2.597656-.015624l-200.8125 37.652343c-13.457031 2.527344-23.203125 14.269531-23.207031 27.964844v63.972656c0 1.796875.730469 3.554688 2 4.824219 1.273437 1.273438 3.03125 2 4.828125 2h423.253906c1.796875 0 3.554688-.726562 4.824219-1.996094 1.273437-1.273437 2-3.03125 2-4.828125zm0 0" fill="#54596e"/><path d="m218.90625 20.480469c-64.089844 0-116.050781 51.957031-116.050781 116.054687v191.144532l13.652343 47.789062 102.398438 13.652344 102.402344-13.652344 13.652344-47.789062v-191.144532c0-64.09375-51.957032-116.054687-116.054688-116.054687" fill="#999"/><path d="m218.90625 20.480469v-6.828125c-67.863281.003906-122.875 55.015625-122.878906 122.882812v191.144532c0 .640624.085937 1.261718.261718 1.875l13.652344 47.789062c.75 2.613281 2.96875 4.53125 5.664063 4.890625l102.398437 13.652344h1.804688l102.398437-13.652344c2.695313-.359375 4.917969-2.277344 5.664063-4.890625l13.652344-47.789062c.175781-.613282.261718-1.234376.261718-1.875v-191.144532c-.003906-67.867187-55.015625-122.878906-122.878906-122.882812v13.65625c30.179688.003906 57.445312 12.214844 77.234375 31.992187 19.777344 19.785157 31.988281 47.050781 31.992187 77.234375v190.191406l-12.160156 42.566407-97.0625 12.941406-97.066406-12.941406-12.164062-42.566407v-190.191406c.003906-30.183594 12.214843-57.449218 31.992187-77.234375 19.789063-19.777343 47.054687-31.988281 77.234375-31.992187zm0 0" fill="#54596e"/><path d="m203.304688 389.121094-58.515626 40.960937h155.0625l-61.441406-40.960937zm0 0" fill="#54596e"/><path d="m203.304688 389.121094-3.917969-5.59375-58.511719 40.960937c-2.449219 1.714844-3.496094 4.792969-2.597656 7.644531.902344 2.851563 3.523437 4.773438 6.511718 4.773438h155.058594c3.011719 0 5.664063-1.964844 6.535156-4.847656.871094-2.882813-.242187-5.988282-2.75-7.660156l-61.4375-40.960938c-1.109374-.738281-2.457031-1.144531-3.789062-1.144531h-35.105469c-1.394531 0-2.769531.433593-3.914062 1.234375l3.917969 5.59375v6.828125h33.035156l40.960937 27.304687h-110.855469l40.773438-28.539062-3.914062-5.59375v6.828125zm0 0" fill="#54596e"/><path d="m252.140625 362.472656-34.507813-3.320312-31.820312 3.167968c-9.488281 1.300782-18.71875-3.300781-22.003906-10.960937l-29.492188-44.832031c-8.441406-9.914063-12.226562-22.144532-10.613281-34.292969l3.511719-40.128906 91.691406 18.363281 91.695312-18.363281 3.515626 40.140625c1.609374 12.148437-2.167969 24.367187-10.601563 34.277344l-29.5625 44.96875c-3.257813 7.59375-12.386719 12.195312-21.8125 10.980468" fill="#ffd578"/><path d="m252.140625 362.472656.652344-6.792968-34.503907-3.320313h-1.332031l-31.820312 3.167969-.246094.027344c-.765625.105468-1.527344.15625-2.285156.15625-2.941407.003906-5.753907-.792969-7.949219-2.09375-2.210938-1.308594-3.765625-3.054688-4.574219-4.949219l-.570312-1.0625-29.492188-44.832031-.507812-.675782c-6.191407-7.289062-9.339844-15.769531-9.347657-24.363281 0-1.53125.101563-3.066406.304688-4.601563l.035156-.304687 2.847656-32.53125 84.210938 16.859375c.890625.179688 1.792969.179688 2.683594 0l84.214844-16.859375 2.851562 32.542969.035156.300781c.207032 1.539063.304688 3.074219.304688 4.601563-.007813 8.589843-3.148438 17.066406-9.335938 24.351562l-.503906.675781-29.5625 44.972657-.570312 1.058593c-.808594 1.890625-2.363282 3.632813-4.574219 4.941407-2.199219 1.300781-5.007813 2.101562-7.953125 2.097656-.707032 0-1.425782-.046875-2.144532-.140625l-.214843-.023438-.652344 6.796875-.867187 6.773438c1.300781.164062 2.59375.246094 3.882812.246094 5.351562 0 10.492188-1.402344 14.890625-3.988282 4.386719-2.585937 8.078125-6.425781 10.179687-11.316406l-6.269531-2.695312 5.699219 3.75 29.566406-44.972657-5.707031-3.746093 5.199219 4.421874c8.136718-9.542968 12.597656-21.222656 12.59375-33.199218 0-2.128906-.144532-4.265625-.425782-6.398438l-6.769531.894532 6.804688-.59375-3.519531-40.140626c-.171876-1.941406-1.148438-3.699218-2.707032-4.867187-1.5625-1.171875-3.519531-1.617187-5.433594-1.230469l-90.351562 18.09375-90.347656-18.089844c-1.914063-.386718-3.871094.058594-5.433594 1.230469-1.5625 1.167969-2.539062 2.921875-2.707031 4.867188l-3.511719 40.125 6.800781.597656-6.765625-.902344c-.285156 2.136719-.425781 4.273438-.425781 6.40625-.007813 11.984375 4.464844 23.667969 12.609375 33.214844l5.195312-4.425781-5.699218 3.75 29.488281 44.832031 5.703125-3.75-6.273438 2.691406c2.101563 4.894531 5.800782 8.742188 10.183594 11.320313 4.402344 2.59375 9.535156 3.988281 14.886719 3.992187 1.367187 0 2.746094-.09375 4.132813-.277343l-.925782-6.765626.675782 6.792969 31.152343-3.101562 33.84375 3.253906.652344-6.792969-.867187 6.773438z" fill="#54596e"/><path d="m304.464844 240.300781-84.214844 16.859375c-.445312.089844-.894531.132813-1.34375.132813-.445312 0-.894531-.042969-1.339844-.132813l-84.210937-16.859375-2.019531 23.035157 87.570312 14.4375 87.578125-14.4375z" fill="#eec877"/><path d="m310.601562 232.105469-91.695312 18.363281-91.691406-18.363281-2.632813 30.113281 6.757813 1.113281 2.015625-23.035156 84.210937 16.863281c.445313.089844.894532.132813 1.34375.132813.445313 0 .894532-.042969 1.339844-.132813l84.214844-16.863281 2.019531 23.035156 6.753906-1.113281z" fill="#54596e"/><path d="m191.601562 279.894531h54.613282c3.769531 0 6.824218-3.058593 6.824218-6.828125 0-3.769531-3.054687-6.824218-6.824218-6.824218h-54.613282c-3.769531 0-6.828124 3.054687-6.828124 6.824218 0 3.769532 3.058593 6.828125 6.828124 6.828125" fill="#f99"/><path d="m130.160156 361.8125-54.613281-68.265625-47.785156 47.789063h40.957031l20.480469 47.785156 75.09375-6.828125zm0 0" fill="#999"/><path d="m130.160156 361.8125 5.332032-4.261719-54.613282-68.269531c-1.21875-1.523438-3.007812-2.441406-4.953125-2.550781-1.949219-.105469-3.824219.609375-5.207031 1.992187l-47.785156 47.785156c-1.953125 1.953126-2.539063 4.890626-1.480469 7.4375 1.058594 2.550782 3.546875 4.214844 6.308594 4.214844h36.457031l18.707031 43.652344c1.160157 2.707031 3.957031 4.375 6.894531 4.109375l75.09375-6.828125c2.933594-.269531 5.378907-2.402344 6.035157-5.277344s-.613281-5.859375-3.140625-7.375l-34.132813-20.480468-3.515625 5.851562 5.332032-4.261719-5.332032 4.261719-3.511718 5.855469 16.199218 9.722656-49.328125 4.480469-18.527343-43.226563c-1.078126-2.515625-3.53125-4.136719-6.273438-4.136719h-24.480469l30.742188-30.742187 49.847656 62.3125c.507813.632813 1.125 1.171875 1.820313 1.589844zm0 0" fill="#54596e"/><path d="m307.652344 361.8125 54.613281-68.265625 47.789063 47.789063h-40.960938l-20.480469 47.785156-75.09375-6.828125zm0 0" fill="#999"/><path d="m307.652344 361.8125 5.332031 4.265625 49.847656-62.308594 30.742188 30.738281h-24.480469c-2.738281 0-5.195312 1.621094-6.277344 4.136719l-18.523437 43.226563-49.328125-4.484375 16.199218-9.71875c.695313-.417969 1.3125-.957031 1.820313-1.589844l-5.332031-4.265625-3.511719-5.851562-34.132813 20.480468c-2.527343 1.515625-3.800781 4.5-3.140624 7.375.65625 2.875 3.101562 5.007813 6.035156 5.277344l75.09375 6.828125c2.933594.265625 5.730468-1.402344 6.894531-4.109375l18.703125-43.652344h36.460938c2.757812 0 5.25-1.664062 6.304687-4.214844 1.058594-2.550781.472656-5.488281-1.480469-7.4375l-47.785156-47.785156c-1.378906-1.382812-3.257812-2.097656-5.207031-1.992187-1.945313.109375-3.734375 1.027343-4.953125 2.550781l-54.613282 68.269531 5.332032 4.261719-3.511719-5.851562zm0 0" fill="#54596e"/><path d="m198.425781 211.628906-34.132812-34.132812h-25.597657l7.796876 11.699218c5.933593 8.898438 15.160156 15.078126 25.652343 17.171876zm0 0" fill="#fff"/><path d="m241.09375 211.628906 34.132812-34.132812h25.601563l-7.800781 11.699218c-5.933594 8.898438-15.160156 15.078126-25.648438 17.171876zm0 0" fill="#fff"/></svg>