<svg height="436pt" viewBox="0 -3 436.91008 436" width="436pt" xmlns="http://www.w3.org/2000/svg"><path d="m354.988281 177.949219c0 11.308593-9.167969 20.480469-20.480469 20.480469-11.308593 0-20.480468-9.171876-20.480468-20.480469 0-11.3125 9.171875-20.480469 20.480468-20.480469 11.3125 0 20.480469 9.167969 20.480469 20.480469zm0 0" fill="#bfad88"/><path d="m354.988281 177.949219h6.828125c-.003906-15.085938-12.226562-27.304688-27.308594-27.308594-15.082031.003906-27.300781 12.222656-27.304687 27.308594.003906 15.085937 12.222656 27.300781 27.304687 27.304687 15.082032-.003906 27.304688-12.21875 27.308594-27.304687h-13.65625c-.011718 7.539062-6.113281 13.640625-13.652344 13.652343-7.539062-.011718-13.640624-6.113281-13.652343-13.652343.011719-7.539063 6.113281-13.640625 13.652343-13.652344 7.539063.011719 13.640626 6.113281 13.652344 13.652344zm0 0" fill="#54596e"/><path d="m122.882812 177.949219c0 11.308593-9.171874 20.480469-20.480468 20.480469-11.3125 0-20.480469-9.171876-20.480469-20.480469 0-11.3125 9.167969-20.480469 20.480469-20.480469 11.308594 0 20.480468 9.167969 20.480468 20.480469zm0 0" fill="#bfad88"/><path d="m122.882812 177.949219h6.824219c-.003906-15.085938-12.222656-27.304688-27.304687-27.308594-15.082032.003906-27.304688 12.222656-27.308594 27.308594.003906 15.085937 12.226562 27.300781 27.308594 27.304687 15.082031-.003906 27.300781-12.21875 27.304687-27.304687h-13.652343c-.011719 7.539062-6.113282 13.640625-13.652344 13.652343-7.539063-.011718-13.640625-6.113281-13.652344-13.652343.011719-7.539063 6.113281-13.640625 13.652344-13.652344 7.539062.011719 13.640625 6.113281 13.652344 13.652344zm0 0" fill="#54596e"/><path d="m211.628906 403.226562v20.480469c0 3.769531 3.054688 6.828125 6.824219 6.828125 3.773437 0 6.828125-3.058594 6.828125-6.828125v-20.480469c0-3.769531-3.054688-6.824218-6.828125-6.824218-3.769531 0-6.824219 3.054687-6.824219 6.824218" fill="#54596e"/><path d="m412.703125 338.308594-105.5-16.402344v-55.210938h-177.496094v55.335938l-105.242187 16.453125c-10.226563 1.917969-17.636719 10.84375-17.636719 21.25v63.972656h423.253906v-64.191406c0-10.308594-7.273437-19.179687-17.378906-21.207031" fill="#999"/><path d="m412.703125 338.308594 1.046875-6.75-99.722656-15.5v-49.363282c0-1.800781-.726563-3.558593-2-4.828124-1.269532-1.269532-3.027344-2-4.824219-2h-177.496094c-1.796875 0-3.554687.730468-4.824219 2-1.273437 1.269531-2 3.027343-2 4.824218v49.492188l-99.472656 15.554687-.203125.03125c-13.457031 2.53125-23.20312475 14.269531-23.207031 27.960938v63.976562c0 1.800781.730469 3.558594 2 4.828125 1.273438 1.273438 3.03125 2 4.828125 2h423.253906c1.796875 0 3.554688-.726562 4.824219-2 1.273438-1.269531 2.003906-3.027344 2.003906-4.828125v-64.191406c-.003906-13.5625-9.566406-25.234375-22.863281-27.902344l-.296875-.054687-1.046875 6.75-1.34375 6.691406c6.917969 1.386719 11.894531 7.460938 11.894531 14.515625v57.363281h-409.597656v-57.144531c0-7.121094 5.070312-13.230469 12.070312-14.542969l-1.261718-6.710937 1.054687 6.746093 105.242188-16.453124c3.320312-.519532 5.773437-3.386719 5.773437-6.746094v-48.507813h163.84375v48.386719c0 3.363281 2.457032 6.230469 5.777344 6.746094l105.5 16.402344 1.046875-6.746094-1.34375 6.691406z" fill="#54596e"/><path d="m129.707031 317.460938c14.0625 30.234374 48.457031 51.632812 88.75 51.632812 40.289063 0 74.683594-21.398438 88.746094-51.632812v-50.765626h-177.496094z" fill="#bfad88"/><path d="m129.707031 317.460938-6.191406 2.878906c15.410156 32.980468 52.253906 55.558594 94.941406 55.582031 42.683594-.023437 79.53125-22.601563 94.9375-55.582031.417969-.90625.636719-1.882813.636719-2.878906v-50.765626c0-1.800781-.730469-3.558593-2.003906-4.828124-1.269532-1.269532-3.027344-2-4.824219-2h-177.496094c-1.796875 0-3.554687.730468-4.824219 2-1.273437 1.269531-2 3.027343-2 4.824218v50.769532c0 .996093.214844 1.972656.632813 2.878906l6.191406-2.878906h6.828125v-43.941407h163.839844v43.941407h6.828125l-6.191406-2.878907c-12.714844 27.484375-44.660157 47.710938-82.554688 47.683594-37.898437.027344-69.84375-20.199219-82.558593-47.683594l-6.191407 2.878907h6.828125z" fill="#54596e"/><path d="m300.375 273.519531h-163.839844v42.394531c2.089844 4.273438 4.648438 8.367188 7.625 12.222657h148.589844c2.972656-3.855469 5.535156-7.941407 7.625-12.214844z" fill="#afa084"/><path d="m307.203125 266.695312h-177.496094v50.769532h6.828125-6.828125c1.71875 3.699218 3.753907 7.257812 6.058594 10.671875h8.394531c-2.976562-3.855469-5.535156-7.949219-7.625-12.222657v-42.394531h163.839844v42.402344c-2.089844 4.273437-4.648438 8.359375-7.625 12.214844h8.394531c2.304688-3.414063 4.339844-6.972657 6.058594-10.671875z" fill="#54596e"/><path d="m242.691406 7.28125h-48.476562c-46.9375 0-84.988282 38.054688-84.988282 84.988281v177.050781c0 13.632813 11.050782 24.679688 24.683594 24.679688h169.089844c13.632812 0 24.683594-11.046875 24.683594-24.679688v-177.050781c0-46.933593-38.050782-84.988281-84.992188-84.988281zm0 0" fill="#bfad88"/><g fill="#54596e"><path d="m242.691406 7.28125v-6.828125h-48.476562c-50.710938.003906-91.808594 41.109375-91.8125 91.816406v177.050781c.003906 17.40625 14.101562 31.503907 31.507812 31.507813h169.089844c17.402344-.003906 31.503906-14.101563 31.507812-31.507813v-177.050781c-.003906-50.707031-41.101562-91.8125-91.816406-91.816406v13.65625c21.605469.003906 41.101563 8.738281 55.269532 22.894531 14.15625 14.167969 22.890624 33.664063 22.894531 55.265625v177.054688c-.015625 9.859375-7.996094 17.832031-17.855469 17.851562h-169.089844c-9.859375-.019531-17.839844-7.992187-17.855468-17.851562v-177.054688c.003906-21.605469 8.738281-41.101562 22.894531-55.269531 14.164062-14.152344 33.660156-22.886719 55.265625-22.894531h48.476562zm0 0"/><path d="m204.933594 198.429688h-27.4375c-2.589844 0-4.949219 1.453124-6.109375 3.773437l-6.824219 13.652344c-1.6875 3.371093-.320312 7.472656 3.050781 9.160156 3.375 1.683594 7.476563.316406 9.160157-3.054687l4.941406-9.882813h23.222656c3.769531 0 6.824219-3.054687 6.824219-6.824219 0-3.769531-3.058594-6.824218-6.828125-6.824218zm0 0"/><path d="m272.347656 215.855469-6.824218-13.652344c-1.160157-2.320313-3.519532-3.773437-6.109376-3.773437h-27.304687c-3.769531 0-6.828125 3.054687-6.828125 6.824218 0 3.769532 3.058594 6.828125 6.828125 6.828125h23.085937l4.941407 9.878907c1.683593 3.371093 5.785156 4.738281 9.15625 3.054687 3.375-1.6875 4.742187-5.789063 3.054687-9.160156zm0 0"/><path d="m136.535156 150.640625h163.839844c3.769531 0 6.828125-3.054687 6.828125-6.824219 0-3.769531-3.058594-6.828125-6.828125-6.828125h-163.839844c-3.769531 0-6.828125 3.058594-6.828125 6.828125 0 3.769532 3.058594 6.824219 6.828125 6.824219"/><path d="m167.253906 164.296875-30.71875-20.480469h61.441406zm0 0"/><path d="m269.65625 164.296875-30.722656-20.480469h61.441406zm0 0"/><path d="m211.628906 403.226562v20.480469c0 3.769531 3.054688 6.828125 6.824219 6.828125 3.773437 0 6.828125-3.058594 6.828125-6.828125v-20.480469c0-3.769531-3.054688-6.824218-6.828125-6.824218-3.769531 0-6.824219 3.054687-6.824219 6.824218"/><path d="m247.804688 259.867188h-58.695313c-2.644531 0-4.789063-2.140626-4.789063-4.785157v-31.386719c0-2.648437 2.144532-4.789062 4.789063-4.789062h58.695313c2.640624 0 4.785156 2.140625 4.785156 4.789062v31.386719c0 2.644531-2.144532 4.785157-4.785156 4.785157zm0 0"/></g><path d="m232.109375 253.042969c0-7.542969-6.113281-13.65625-13.65625-13.65625-7.539063 0-13.652344 6.113281-13.652344 13.65625zm0 0" fill="#f99"/></svg>