<svg height="436pt" viewBox="0 0 436 436.90788" width="436pt" xmlns="http://www.w3.org/2000/svg"><path d="m362.265625 361.816406h-68.265625v-68.265625h-150.1875v68.265625h-68.265625c-37.699219 0-68.265625 30.558594-68.265625 68.265625h423.253906c0-37.707031-30.566406-68.265625-68.269531-68.265625zm0 0" fill="#f99"/><path d="m362.265625 361.816406v-6.828125h-61.4375v-61.4375c0-1.800781-.730469-3.554687-2-4.828125-1.269531-1.273437-3.027344-2-4.824219-2h-150.1875c-1.796875 0-3.558594.726563-4.828125 2-1.273437 1.269532-2 3.027344-2 4.828125v61.4375h-61.4375c-41.472656.003907-75.089843 33.613281-75.09375 75.09375 0 1.796875.726563 3.554688 2 4.828125 1.269531 1.269532 3.027344 1.996094 4.824219 1.996094h423.253906c1.796875 0 3.554688-.726562 4.824219-1.996094 1.273437-1.273437 2-3.03125 2-4.828125-.003906-41.480469-33.621094-75.089843-75.09375-75.09375v13.65625c16.988281 0 32.304687 6.863281 43.445313 17.992188 11.128906 11.140625 17.992187 26.457031 17.996093 43.445312h6.828125v-6.824219h-423.253906v6.824219h6.824219c.003906-16.988281 6.871093-32.304687 18-43.445312 11.136719-11.128907 26.457031-17.992188 43.441406-17.996094h68.265625c1.796875 0 3.554688-.726563 4.828125-1.996094 1.269531-1.273437 2-3.03125 2-4.828125v-61.441406h136.535156v61.441406c0 1.796875.726563 3.554688 2 4.828125 1.269531 1.269531 3.027344 1.996094 4.824219 1.996094h68.265625zm0 0" fill="#54596e"/><path d="m130.160156 361.816406h-54.613281c-37.699219 0-68.265625 30.558594-68.265625 68.265625h122.878906zm0 0" fill="#61c5a8"/><path d="m130.160156 361.816406v-6.828125h-54.613281c-41.472656.003907-75.089844 33.613281-75.09375 75.09375 0 1.796875.730469 3.554688 2 4.828125 1.273437 1.269532 3.03125 1.996094 4.828125 1.996094h122.878906c1.796875 0 3.554688-.726562 4.828125-1.996094 1.269531-1.273437 2-3.03125 2-4.828125v-68.265625c0-1.800781-.730469-3.554687-2-4.828125-1.269531-1.273437-3.027343-2-4.824219-2v6.828125h-6.828124v61.441406h-116.054688v6.824219h6.828125c.003906-16.988281 6.867187-32.304687 17.996094-43.445312 11.136719-11.128907 26.457031-17.992188 43.441406-17.996094h54.613281v-6.824219h-6.828125zm0 0" fill="#54596e"/><path d="m307.652344 361.816406h54.613281c37.703125 0 68.269531 30.558594 68.269531 68.265625h-122.882812zm0 0" fill="#61c5a8"/><path d="m307.652344 361.816406v6.828125h54.613281c16.988281 0 32.304687 6.863281 43.445313 17.992188 11.128906 11.140625 17.992187 26.457031 17.996093 43.445312h6.828125v-6.824219h-116.054687v-61.441406h-6.828125v6.828125-6.828125h-6.824219v68.265625c0 1.796875.726563 3.554688 2 4.828125 1.269531 1.269532 3.027344 1.996094 4.824219 1.996094h122.882812c1.796875 0 3.554688-.726562 4.824219-1.996094 1.273437-1.273437 2-3.03125 2-4.828125-.003906-41.480469-33.621094-75.089843-75.09375-75.09375h-54.613281c-1.796875 0-3.554688.726563-4.828125 2-1.269531 1.269531-1.996094 3.027344-1.996094 4.828125zm0 0" fill="#54596e"/><path d="m157.46875 382.296875-54.613281-68.265625-47.789063 47.785156h40.960938l20.480468 68.265625h61.441407zm0 0" fill="#fff35f"/><path d="m157.46875 382.296875 5.328125-4.265625-54.613281-68.265625c-1.21875-1.523437-3.003906-2.445313-4.953125-2.550781-1.945313-.109375-3.824219.609375-5.203125 1.988281l-47.789063 47.785156c-1.953125 1.953125-2.535156 4.890625-1.480469 7.441407 1.058594 2.550781 3.546876 4.210937 6.308594 4.210937h35.882813l19.019531 63.402344c.863281 2.882812 3.527344 4.863281 6.539062 4.863281h61.441407c2.300781 0 4.429687-1.140625 5.695312-3.066406 1.269531-1.925782 1.484375-4.328125.578125-6.445313l-20.480468-47.789062-.945313-1.574219-5.328125 4.265625-6.277344 2.6875 16.402344 38.269531h-46.007812l-19.019532-63.398437c-.867187-2.882813-3.53125-4.867188-6.539062-4.867188h-24.480469l30.742187-30.742187 49.847657 62.3125 5.332031-4.261719-6.277344 2.6875zm0 0" fill="#54596e"/><path d="m280.347656 382.296875 54.613282-68.265625 47.785156 47.785156h-40.957032l-20.480468 68.265625h-61.441406zm0 0" fill="#fff35f"/><path d="m280.347656 382.296875 5.328125 4.265625 49.851563-62.3125 30.738281 30.738281h-24.476563c-3.011718 0-5.675781 1.980469-6.542968 4.867188l-19.019532 63.398437h-46.007812l16.402344-38.269531-6.273438-2.6875 5.328125 4.265625-5.328125-4.265625-6.277344-2.691406-20.476562 47.789062c-.910156 2.117188-.695312 4.519531.574219 6.445313 1.269531 1.925781 3.394531 3.066406 5.699219 3.066406h61.441406c3.007812 0 5.671875-1.980469 6.535156-4.863281l19.023438-63.402344h35.878906c2.761718 0 5.25-1.664063 6.308594-4.214844 1.054687-2.550781.472656-5.488281-1.480469-7.4375l-47.789063-47.785156c-1.378906-1.382813-3.253906-2.097656-5.203125-1.992187-1.949219.109374-3.734375 1.027343-4.953125 2.550781l-54.613281 68.269531-.945313 1.574219zm0 0" fill="#54596e"/><path d="m337.453125 66.789062-166.332031-59.960937-75.058594 52.285156c-11.113281 5.421875-16.96875 16.914063-14.375 28.195313l25.441406 110.667968 223.675782-13.652343 23.789062-87.121094c3.449219-12.640625-3.886719-25.660156-17.140625-30.414063zm0 0" fill="#bfad88"/><path d="m337.453125 66.789062 2.316406-6.421874-166.335937-59.960938c-2.082032-.75-4.398438-.4453125-6.214844.820312l-75.058594 52.289063 3.898438 5.597656-2.992188-6.136719c-11.523437 5.59375-18.820312 16.804688-18.816406 28.984376 0 2.277343.257812 4.585937.785156 6.878906l25.4375 110.664062c.746094 3.253906 3.738282 5.488282 7.070313 5.285156l223.679687-13.65625c2.921875-.175781 5.398438-2.191406 6.167969-5.015624l23.789063-87.117188c.730468-2.691406 1.085937-5.410156 1.085937-8.089844 0-13.527344-8.96875-25.722656-22.507813-30.550781l-2.304687 6.429687-2.304687 6.425782c8.5625 3.097656 13.46875 10.328125 13.464843 17.695312 0 1.480469-.195312 2.980469-.605469 4.496094l-22.5 82.398438-213.023437 13-24.144531-105.027344c-.292969-1.285156-.4375-2.554688-.4375-3.816406.007812-6.65625 3.960937-13.179688 11.148437-16.710938l.910157-.535156 72.164062-50.269532 163.011719 58.765626zm0 0" fill="#54596e"/><path d="m355.441406 197.976562c0 11.308594-9.171875 20.480469-20.480468 20.480469-11.3125 0-20.480469-9.171875-20.480469-20.480469 0-11.3125 9.167969-20.480468 20.480469-20.480468 11.308593 0 20.480468 9.167968 20.480468 20.480468zm0 0" fill="#ffd578"/><path d="m355.441406 197.976562h6.824219c0-15.085937-12.21875-27.304687-27.304687-27.308593-15.085938.003906-27.304688 12.222656-27.308594 27.308593.003906 15.082032 12.222656 27.304688 27.308594 27.304688 15.085937 0 27.304687-12.21875 27.304687-27.304688h-13.652344c-.011719 7.542969-6.109375 13.640626-13.652343 13.652344-7.542969-.011718-13.640626-6.109375-13.652344-13.652344.011718-7.542968 6.109375-13.640624 13.652344-13.652343 7.542968.011719 13.640624 6.109375 13.652343 13.652343zm0 0" fill="#54596e"/><path d="m123.332031 197.976562c0 11.308594-9.167969 20.480469-20.476562 20.480469-11.3125 0-20.480469-9.171875-20.480469-20.480469 0-11.3125 9.167969-20.480468 20.480469-20.480468 11.308593 0 20.476562 9.167968 20.476562 20.480468zm0 0" fill="#ffd578"/><path d="m123.332031 197.976562h6.828125c-.003906-15.085937-12.222656-27.304687-27.304687-27.308593-15.085938.003906-27.304688 12.222656-27.308594 27.308593.003906 15.082032 12.222656 27.304688 27.308594 27.304688 15.082031 0 27.300781-12.21875 27.304687-27.304688h-13.652344c-.015624 7.542969-6.113281 13.640626-13.652343 13.652344-7.542969-.011718-13.640625-6.109375-13.65625-13.652344.015625-7.542968 6.113281-13.640624 13.65625-13.652343 7.539062.011719 13.636719 6.109375 13.652343 13.652343zm0 0" fill="#54596e"/><path d="m334.519531 251.769531-5.765625-138.027343c-.546875-13.085938-12.714844-22.554688-25.535156-19.875l-106.070312 22.1875-87.042969-27.308594-6.804688 163.007812c-1.957031 12.152344 2.640625 24.378906 12.894531 34.292969 0 0 71.488282 77.574219 83.007813 76.273437l39.578125.15625c11.445312 1.210938 82.867188-76.433593 82.867188-76.433593 10.238281-9.910157 14.824218-22.128907 12.871093-34.273438zm0 0" fill="#ffd578"/><path d="m334.519531 251.769531 6.820313-.285156-5.765625-138.027344c-.667969-15.3125-13.277344-26.875-27.976563-26.875-1.902344 0-3.84375.195313-5.789062.605469l-104.316406 21.820312-85.34375-26.773437c-2.023438-.632813-4.234376-.289063-5.964844.929687-1.734375 1.21875-2.808594 3.179688-2.898438 5.300782l-6.804687 163.007812 6.820312.285156-6.738281-1.089843c-.355469 2.191406-.53125 4.394531-.53125 6.589843-.011719 12.382813 5.625 24.269532 15.417969 33.699219l4.746093-4.90625-5.019531 4.625c.035157.039063 17.648438 19.152344 36.898438 38.351563 9.636719 9.605468 19.660156 19.222656 28.222656 26.570312 4.296875 3.683594 8.203125 6.792969 11.683594 9.132813 1.75 1.167969 3.386719 2.152343 5.058593 2.9375 1.695313.75 3.351563 1.449219 5.859376 1.496093l.945312-.046874-.644531-6.796876-.027344 6.828126 39.582031.152343.027344-6.824219-.707031 6.789063.980469.046875c2.527343-.050781 4.167968-.75 5.859374-1.507812 3.085938-1.472657 6.203126-3.648438 9.824219-6.445313 12.488281-9.730469 30.246094-27.242187 45.164063-42.519531 14.875-15.25 26.738281-28.148438 26.765625-28.179688l-5.023438-4.621094 4.746094 4.90625c9.78125-9.425781 15.40625-21.308593 15.394531-33.683593 0-2.191407-.175781-4.390625-.527344-6.574219l-6.738281 1.082031 6.820313-.285156-6.820313.285156-6.742187 1.078125c.238281 1.476563.355468 2.949219.355468 4.414063-.011718 8.199219-3.625 16.476562-11.230468 23.875l-.28125.285156c-.003906 0-1.078125 1.171875-3.015625 3.25-6.773438 7.273437-23.929688 25.515625-40.632813 41.839844-8.34375 8.15625-16.585937 15.839843-23.230468 21.347656-3.3125 2.746094-6.238282 4.949219-8.40625 6.324219-1.074219.683594-1.964844 1.15625-2.480469 1.378906l-.410157.15625.613282 2.316406v-2.375l-.613282.058594.613282 2.316406v-2.375 4.152344l.425781-4.128906-.425781-.023438v4.152344l.425781-4.128906-.675781-.035156-39.578125-.152344-.671875.03125.34375 3.632812v-3.648437l-.34375.015625.34375 3.632812v-3.648437 3.003906l.492187-2.96875-.492187-.035156v3.003906l.492187-2.96875-.121093.738281.207031-.71875-.085938-.019531-.121093.738281.207031-.71875c-.316407-.023437-2.851563-1.3125-5.789063-3.507812-5.289062-3.839844-12.648437-10.285156-20.496094-17.671875-11.800781-11.089844-24.824218-24.359375-34.871093-34.832031-5.023438-5.238282-9.304688-9.777344-12.328125-13.003907-3.027344-3.226562-4.773438-5.125-4.777344-5.128906l-.277344-.28125c-7.621094-7.40625-11.242187-15.6875-11.253906-23.886719 0-1.464844.117188-2.9375.355469-4.410156l.082031-.804688 6.433594-154.113281 78.550781 24.640625c1.101563.347656 2.308594.40625 3.4375.167969l106.074219-22.183594c1.015625-.214843 2.003906-.3125 2.980468-.316406 7.472657 0 14.03125 5.9375 14.332032 13.789063l5.769531 138.027343.078125.796875zm0 0" fill="#54596e"/><path d="m136.988281 68.269531-40.960937-47.785156 81.921875 27.304687" fill="#bfad88"/><path d="m142.171875 63.824219-24.925781-29.074219 58.542968 19.515625c3.574219 1.191406 7.441407-.742187 8.636719-4.316406 1.191407-3.578125-.742187-7.445313-4.316406-8.636719l-81.921875-27.304688c-2.914062-.972656-6.109375.117188-7.824219 2.664063-1.710937 2.546875-1.515625 5.921875.484375 8.25l40.957032 47.789063c2.457031 2.863281 6.765624 3.195312 9.625.738281 2.863281-2.449219 3.195312-6.761719.742187-9.625zm0 0" fill="#54596e"/><path d="m103.859375 232.109375 115.046875 13.652344 115.054688-13.652344-3.273438-75.09375-111.78125 13.652344-111.773438-13.652344zm0 0" fill="#61c5a8"/><path d="m103.859375 232.109375-.800781 6.777344 115.042968 13.65625h1.609376l115.054687-13.65625c3.539063-.417969 6.171875-3.515625 6.015625-7.074219l-3.273438-75.09375c-.082031-1.898438-.957031-3.683594-2.40625-4.910156-1.453124-1.230469-3.355468-1.800782-5.242187-1.566406l-110.949219 13.550781-110.949218-13.550781c-1.886719-.230469-3.792969.339843-5.242188 1.566406-1.449219 1.226562-2.324219 3.011718-2.40625 4.910156l-3.273438 75.09375c-.15625 3.558594 2.476563 6.65625 6.015626 7.074219l.804687-6.777344 6.820313.296875 2.953124-67.71875 104.445313 12.757812h1.65625l104.453125-12.757812 2.675781 61.390625-107.960937 12.808594-114.238282-13.554688-.804687 6.777344 6.820313.296875zm0 0" fill="#54596e"/><path d="m246.214844 54.617188-13.652344-47.789063 75.089844 68.269531" fill="#bfad88"/><path d="m252.777344 52.738281-7.066406-24.730469 57.351562 52.136719c2.789062 2.535157 7.105469 2.332031 9.640625-.460937 2.535156-2.789063 2.332031-7.105469-.457031-9.640625l-75.09375-68.265625c-2.257813-2.054688-5.601563-2.359375-8.195313-.75-2.589843 1.609375-3.800781 4.742187-2.960937 7.675781l13.652344 47.785156c1.035156 3.625 4.816406 5.726563 8.4375 4.691407 3.628906-1.035157 5.726562-4.8125 4.691406-8.441407zm0 0" fill="#54596e"/><path d="m198.425781 218.457031-34.132812-34.132812h-25.597657l7.796876 11.699219c5.933593 8.898437 15.160156 15.078124 25.648437 17.171874zm0 0" fill="#fff"/><path d="m241.09375 218.457031 34.132812-34.132812h25.601563l-7.800781 11.699219c-5.933594 8.898437-15.160156 15.078124-25.644532 17.171874zm0 0" fill="#fff"/><path d="m191.601562 293.550781h54.613282c3.769531 0 6.824218-3.058593 6.824218-6.828125 0-3.769531-3.054687-6.828125-6.824218-6.828125h-54.613282c-3.769531 0-6.828124 3.058594-6.828124 6.828125 0 3.769532 3.058593 6.828125 6.828124 6.828125" fill="#f99"/></svg>