<svg height="436pt" viewBox="-54 0 436 436.90667" width="436pt" xmlns="http://www.w3.org/2000/svg"><path d="m195.4375 6.828125h-62.289062c-49.390626 0-89.546876 39.292969-91.378907 88.652344l-.003906.09375-.351563 245.757812h245.757813l-.351563-245.757812-.003906-.09375c-1.832031-49.359375-41.984375-88.652344-91.378906-88.652344zm0 0" fill="#ff927d"/><path d="m195.4375 6.828125v-6.828125h-62.289062c-53.109376.00390625-96.242188 42.25-98.199219 95.226562l-.003907.101563-.003906.234375-.351562 245.761719c-.003906 1.820312.707031 3.542969 1.996094 4.832031 1.285156 1.292969 3.003906 2.003906 4.828124 2.003906h245.757813c1.824219 0 3.542969-.710937 4.832031-2.003906 1.289063-1.289062 1.996094-3.007812 1.996094-4.832031l-.351562-245.757813-.003907-.234375-.003906-.09375c-1.960937-52.988281-45.09375-95.23437475-98.203125-95.238281v13.652344c45.675781-.003906 82.847656 36.339844 84.558594 82.082031l.003906.082031 6.820312-.242187-6.828124.007812.34375 238.921875h-232.085938l.339844-238.921875-6.824219-.007812 6.820313.242187.003906-.09375c1.707031-45.734375 38.878906-82.074218 84.558594-82.070312h62.285156v-6.824219zm0 0" fill="#54596e"/><path d="m268.496094 334.507812h-201.578125c-32.9375 0-59.636719 22.886719-59.636719 51.117188v44.453125h314.027344v-50.304687c0-25-23.644532-45.265626-52.8125-45.265626zm0 0" fill="#999"/><path d="m268.496094 334.507812v-6.828124h-201.578125c-18.054688.003906-34.515625 6.257812-46.613281 16.617187-12.085938 10.328125-19.859376 25.007813-19.851563 41.328125v44.453125c0 1.800781.730469 3.558594 2 4.828125 1.273437 1.273438 3.03125 2 4.828125 2h314.027344c1.796875 0 3.554687-.726562 4.824218-2 1.273438-1.269531 2-3.027344 2-4.824219v-50.308593c.007813-14.703126-7-27.921876-17.851562-37.191407-10.859375-9.300781-25.617188-14.898437-41.785156-14.898437v13.648437c12.996094-.003906 24.648437 4.535157 32.898437 11.617188 8.265625 7.113281 13.074219 16.527343 13.082031 26.824219v43.480468h-300.371093v-37.625c.007812-11.914062 5.582031-22.792968 15.085937-30.964844 9.484375-8.144531 22.84375-13.335937 37.726563-13.332031h201.578125zm0 0" fill="#54596e"/><path d="m48.238281 402.773438v20.480468c0 3.769532 3.058594 6.824219 6.828125 6.824219 3.769532 0 6.828125-3.054687 6.828125-6.824219v-20.480468c0-3.769532-3.058593-6.828126-6.828125-6.828126-3.769531 0-6.828125 3.058594-6.828125 6.828126" fill="#54596e"/><path d="m266.691406 402.773438v20.480468c0 3.769532 3.058594 6.824219 6.828125 6.824219s6.828125-3.054687 6.828125-6.824219v-20.480468c0-3.769532-3.058594-6.828126-6.828125-6.828126s-6.828125 3.058594-6.828125 6.828126" fill="#54596e"/><path d="m164.292969 382.292969c-15.078125 0-27.304688-12.226563-27.304688-27.304688v-68.269531h54.613281v68.269531c0 15.078125-12.226562 27.304688-27.308593 27.304688zm0 0" fill="#ffd578"/><path d="m164.292969 382.292969v-6.828125c-11.304688-.019532-20.460938-9.171875-20.480469-20.476563v-61.441406h40.960938v61.441406c-.019532 11.304688-9.171876 20.457031-20.480469 20.476563v13.65625c18.855469-.003906 34.128906-15.28125 34.132812-34.132813v-68.269531c0-1.796875-.726562-3.554688-2-4.828125-1.269531-1.269531-3.027343-1.996094-4.824219-1.996094h-54.613281c-1.796875 0-3.558593.726563-4.828125 1.996094-1.269531 1.273437-2 3.03125-2 4.828125v68.269531c.003906 18.851563 15.28125 34.125 34.132813 34.132813zm0 0" fill="#54596e"/><path d="m61.894531 170.667969v20.480469c0 56.550781 45.84375 122.878906 102.398438 122.878906 56.554687 0 102.398437-66.328125 102.398437-122.878906v-102.402344c0 56.554687-91.691406 81.921875-204.796875 81.921875zm0 0" fill="#ffd578"/><path d="m61.894531 170.667969h-6.828125v20.480469c.046875 30.113281 12.027344 62.007812 31.445313 86.855468 9.730469 12.414063 21.367187 23.0625 34.5 30.679688 13.117187 7.613281 27.796875 12.171875 43.28125 12.167968 15.488281.003907 30.164062-4.554687 43.28125-12.167968 19.695312-11.4375 36.042969-29.644532 47.605469-50.5 11.539062-20.871094 18.324218-44.445313 18.339843-67.035156v-102.402344c0-1.796875-.726562-3.554688-2-4.828125-1.269531-1.269531-3.027343-1.996094-4.828125-1.996094-1.796875 0-3.554687.726563-4.824218 1.996094-1.273438 1.273437-2 3.03125-2 4.828125-.054688 12.242187-4.75 22.429687-14.085938 31.824218-13.976562 14.03125-38.886719 25.191407-70.898438 32.429688-31.996093 7.289062-70.960937 10.84375-112.988281 10.839844-1.796875 0-3.558593.726562-4.828125 2-1.269531 1.269531-2 3.027344-2 4.828125h6.828125v6.824219c57.078125-.019532 108.847657-6.332032 147.136719-20.15625 19.140625-6.941407 34.996094-15.765626 46.386719-27.09375 11.390625-11.273438 18.15625-25.460938 18.101562-41.496094 0-1.796875-.726562-3.554688-2-4.828125-1.269531-1.269531-3.027343-1.996094-4.828125-1.996094-1.796875 0-3.554687.726563-4.824218 1.996094-1.273438 1.273437-2 3.03125-2 4.828125v102.402344c.046874 26.433593-10.898438 55.980468-28.539063 78.433593-8.800781 11.238281-19.230469 20.703125-30.597656 27.289063-11.382813 6.59375-23.644531 10.324218-36.433594 10.328125-12.792969-.003907-25.054687-3.734375-36.4375-10.328125-17.058594-9.867188-31.984375-26.265625-42.503906-45.296875-10.542969-19.015625-16.652344-40.605469-16.636719-60.425781v-20.480469h-6.824219v6.824219zm0 0" fill="#54596e"/><path d="m232.558594 174.078125c0 5.65625-4.582032 10.242187-10.238282 10.242187s-10.242187-4.585937-10.242187-10.242187c0-5.652344 4.585937-10.238281 10.242187-10.238281s10.238282 4.585937 10.238282 10.238281zm0 0" fill="#54596e"/><path d="m171.121094 430.078125v-47.785156c0-3.769531-3.058594-6.828125-6.828125-6.828125s-6.828125 3.058594-6.828125 6.828125v47.785156c0 3.773437 3.058594 6.828125 6.828125 6.828125s6.828125-3.054688 6.828125-6.828125" fill="#54596e"/><g fill="#ff927d"><path d="m157.464844 238.933594h13.65625c7.539062 0 13.652344-6.113282 13.652344-13.652344 0-7.542969-6.113282-13.65625-13.652344-13.65625h-13.65625c-7.539063 0-13.652344 6.113281-13.652344 13.65625 0 7.539062 6.113281 13.652344 13.652344 13.652344"/><path d="m136.988281 232.105469h54.613281c3.769532 0 6.824219-3.054688 6.824219-6.824219s-3.054687-6.828125-6.824219-6.828125h-54.613281c-3.773437 0-6.828125 3.058594-6.828125 6.828125s3.054688 6.824219 6.828125 6.824219"/><path d="m109.679688 314.027344v27.304687c0 37.703125-30.5625 68.269531-68.265626 68.269531v-95.574218"/></g><path d="m102.851562 314.027344v27.304687c0 16.988281-6.863281 32.304688-17.992187 43.445313-11.140625 11.128906-26.457031 17.992187-43.445313 17.996094v6.828124h6.824219v-95.574218c0-3.769532-3.054687-6.828125-6.824219-6.828125-3.769531 0-6.828124 3.058593-6.828124 6.828125v95.574218c0 1.796876.730468 3.554688 2 4.824219 1.273437 1.273438 3.03125 2 4.828124 2 41.476563-.003906 75.085938-33.617187 75.09375-75.09375v-27.304687c0-3.769532-3.058593-6.828125-6.828124-6.828125-3.769532 0-6.828126 3.058593-6.828126 6.828125zm0 0" fill="#54596e"/></svg>