<svg height="436pt" viewBox="0 -6 436.90667 436" width="436pt" xmlns="http://www.w3.org/2000/svg"><path d="m361.8125 348.613281h-68.265625v-68.265625h-150.1875v68.265625h-68.265625c-37.703125 0-68.265625 30.558594-68.265625 68.265625h423.25c0-37.707031-30.5625-68.265625-68.265625-68.265625zm0 0" fill="#f99"/><path d="m361.8125 348.613281v-6.828125h-61.4375v-61.4375c0-1.800781-.730469-3.558594-2-4.828125-1.273438-1.273437-3.03125-2-4.828125-2h-150.1875c-1.796875 0-3.554687.726563-4.824219 2-1.273437 1.269531-2 3.03125-2 4.828125v61.4375h-61.441406c-41.476562.003906-75.08984375 33.613282-75.09375 75.09375 0 1.796875.730469 3.554688 2 4.828125 1.273438 1.269531 3.03125 2 4.828125 2h423.25c1.800781 0 3.558594-.726562 4.828125-2 1.273438-1.269531 2-3.027343 2-4.824219-.003906-41.480468-33.617188-75.089843-75.09375-75.09375v13.652344c16.988281.003906 32.304688 6.863282 43.445312 17.992188 11.128907 11.140625 17.992188 26.453125 17.996094 43.445312h6.824219v-6.824218h-423.25v6.824218h6.824219c.003906-16.992187 6.867187-32.304687 17.996094-43.445312 11.140624-11.128906 26.457031-17.988282 43.445312-17.992188h68.265625c1.796875 0 3.554687-.726562 4.828125-2 1.269531-1.269531 2-3.027344 2-4.828125v-61.441406h136.53125v61.441406c0 1.796875.730469 3.554688 2 4.828125 1.273438 1.269532 3.03125 1.996094 4.828125 1.996094h68.265625zm0 0" fill="#54596e"/><path d="m218.453125 7.28125c-64.09375 0-116.054687 51.957031-116.054687 116.050781v136.535157l116.054687 81.921874 116.054687-81.921874v-136.53125c0-64.097657-51.960937-116.054688-116.054687-116.054688" fill="#f99"/><path d="m218.453125 7.28125v-6.828125c-67.867187.003906-122.875 55.011719-122.878906 122.878906v136.535157c0 2.214843 1.082031 4.296874 2.886719 5.578124l116.054687 81.917969c2.355469 1.664063 5.515625 1.664063 7.875 0l116.050781-81.917969c1.808594-1.28125 2.890625-3.363281 2.890625-5.578124v-136.535157c-.003906-67.867187-55.011719-122.875-122.878906-122.878906v13.652344c30.179687.003906 57.445313 12.21875 77.234375 31.996093 19.777344 19.785157 31.988281 47.050782 31.992188 77.230469v132.996094l-109.226563 77.101563-109.226563-77.101563v-132.996094c.003907-30.183593 12.214844-57.445312 31.992188-77.234375 19.789062-19.777344 47.050781-31.988281 77.234375-31.992187zm0 0" fill="#54596e"/><path d="m202.847656 375.921875-58.511718 40.957031h155.0625l-61.441407-40.957031zm0 0" fill="#fff35f"/><path d="m202.847656 375.921875-3.914062-5.59375-58.511719 40.960937c-2.449219 1.710938-3.496094 4.792969-2.597656 7.640626.902343 2.855468 3.523437 4.773437 6.511719 4.773437h155.058593c3.011719 0 5.660157-1.964844 6.535157-4.847656.871093-2.878907-.242188-5.988281-2.75-7.65625l-61.4375-40.960938c-1.109376-.738281-2.457032-1.144531-3.789063-1.144531h-35.105469c-1.394531 0-2.773437.429688-3.914062 1.234375l3.914062 5.59375v6.824219h33.039063l40.960937 27.308594h-110.855468l40.773437-28.542969-3.917969-5.589844v6.824219zm0 0" fill="#54596e"/><path d="m251.6875 349.273438-66.328125-.152344c-9.488281 1.300781-18.71875-3.300782-22.003906-10.960938l-29.492188-44.832031c-8.441406-9.914063-12.226562-22.144531-10.613281-34.292969l3.511719-53.78125 91.691406 18.359375 91.695313-18.359375 3.515624 53.792969c1.609376 12.148437-2.171874 24.367187-10.601562 34.273437l-29.5625 44.972657c-3.257812 7.59375-12.386719 12.191406-21.8125 10.980469" fill="#ffd578"/><path d="m251.6875 349.273438.015625-6.828126-66.328125-.152343-.941406.058593c-.761719.105469-1.523438.15625-2.28125.15625-2.941406.003907-5.75-.792968-7.949219-2.09375-2.210937-1.308593-3.761719-3.054687-4.574219-4.945312l-.570312-1.066406-29.492188-44.832032-.503906-.675781c-6.195312-7.285156-9.34375-15.769531-9.351562-24.363281 0-1.53125.101562-3.066406.304687-4.601562l.042969-.457032 3.007812-46 84.046875 16.828125c.890625.179688 1.789063.179688 2.679688 0l84.046875-16.828125 3.007812 46.015625.046875.449219c.203125 1.539062.304688 3.074219.304688 4.605469-.007813 8.589843-3.148438 17.066406-9.335938 24.347656l-.503906.675781-29.5625 44.972656-.570313 1.058594c-.808593 1.890625-2.359374 3.632813-4.574218 4.941406-2.199219 1.300782-5.007813 2.101563-7.953125 2.097657-.707031 0-1.425781-.046875-2.148438-.136719l-.847656-.054688-.015625 6.828126-.867188 6.769531c1.296876.167969 2.589844.25 3.878907.25 5.355469-.003907 10.496093-1.402344 14.890625-3.992188 4.382812-2.585937 8.078125-6.425781 10.183594-11.316406l-6.277344-2.691406 5.707031 3.75 29.5625-44.972657-5.703125-3.75 5.199219 4.421876c8.132812-9.539063 12.597656-21.21875 12.589843-33.199219 0-2.128907-.140624-4.265625-.421874-6.398438l-6.769532.898438 6.8125-.445313-3.515625-53.792968c-.128906-1.972657-1.089843-3.773438-2.660156-4.972657-1.570313-1.203125-3.558594-1.664062-5.492187-1.277343l-90.351563 18.097656-90.347656-18.09375c-1.941407-.386719-3.925781.074218-5.496094 1.277344-1.566406 1.199218-2.527344 3-2.65625 4.972656l-3.515625 53.777344 6.8125.445312-6.769531-.898438c-.28125 2.132813-.421875 4.269532-.421875 6.402344-.007813 11.984375 4.464844 23.667969 12.609375 33.214844l5.195312-4.425781-5.703125 3.75 29.492188 44.832031 5.703125-3.75-6.277344 2.691406c2.105469 4.894532 5.800781 8.742188 10.1875 11.324219 4.398437 2.589844 9.535156 3.984375 14.886719 3.988281 1.367187 0 2.746094-.09375 4.128906-.277344l-.921875-6.765624-.015625 6.828124 66.324219.152344.019531-6.824218-.867188 6.769531z" fill="#54596e"/><path d="m303.84375 213.476562-84.046875 16.832032c-.445313.085937-.894531.132812-1.34375.132812-.445313 0-.894531-.046875-1.339844-.132812l-84.042969-16.828125-1.511718 23.113281 86.894531 14.328125 86.898437-14.328125z" fill="#eec877"/><path d="m310.148438 205.253906-91.695313 18.359375-91.691406-18.359375-2.636719 30.113282 7.433594 1.226562 1.507812-23.113281 84.046875 16.828125c.445313.085937.890625.132812 1.339844.132812s.894531-.046875 1.339844-.132812l84.046875-16.832032 1.511718 23.113282 7.429688-1.222656z" fill="#54596e"/><path d="m191.148438 253.039062h54.613281c3.769531 0 6.824219-3.054687 6.824219-6.824218 0-3.773438-3.054688-6.828125-6.824219-6.828125h-54.613281c-3.773438 0-6.828126 3.054687-6.828126 6.828125 0 3.769531 3.054688 6.824218 6.828126 6.824218" fill="#f99"/><path d="m197.972656 184.773438-34.132812-34.132813h-25.601563l7.800781 11.699219c5.933594 8.898437 15.160157 15.078125 25.648438 17.171875zm0 0" fill="#fff"/><path d="m240.640625 184.773438 34.132813-34.132813h25.601562l-7.800781 11.699219c-5.933594 8.898437-15.160157 15.078125-25.648438 17.171875zm0 0" fill="#fff"/><path d="m334.507812 89.199219 20.480469 13.652343 34.132813-47.785156-13.65625 109.226563h-13.652344l-13.652344 34.132812h-13.652344zm0 0" fill="#fff35f"/><path d="m334.507812 89.199219-3.789062 5.679687 20.480469 13.652344c3.070312 2.046875 7.199219 1.289062 9.34375-1.710938l18.457031-25.84375-9.558594 76.488282h-7.628906c-2.78125 0-5.304688 1.707031-6.335938 4.292968l-11.9375 29.84375h-2.207031v-102.402343h-6.824219l-3.789062 5.679687 3.789062-5.679687h-6.828124v109.226562c0 1.796875.730468 3.554688 2 4.828125 1.273437 1.269532 3.03125 2 4.828124 2h13.652344c2.78125 0 5.304688-1.707031 6.339844-4.292968l11.933594-29.839844h9.03125c3.441406 0 6.347656-2.566406 6.777344-5.980469l13.652343-109.226563c.386719-3.109374-1.371093-6.066406-4.292969-7.207031-2.917968-1.140625-6.214843-.15625-8.035156 2.390625l-30.292968 42.410156-14.980469-9.988281c-2.105469-1.402343-4.78125-1.53125-7.007813-.335937-2.226562 1.191406-3.605468 3.492187-3.605468 6.015625zm0 0" fill="#54596e"/><path d="m102.398438 89.199219-20.476563 13.652343-34.136719-47.785156 13.65625 109.226563h13.652344l13.652344 34.132812h13.652344zm0 0" fill="#fff35f"/><g fill="#54596e"><path d="m102.398438 89.199219-3.785157-5.679688-14.980469 9.988281-30.289062-42.410156c-1.824219-2.546875-5.121094-3.53125-8.039062-2.390625-2.917969 1.140625-4.679688 4.097657-4.292969 7.207031l13.65625 109.226563c.425781 3.414063 3.332031 5.980469 6.773437 5.980469h9.03125l11.933594 29.839844c1.035156 2.585937 3.558594 4.292968 6.339844 4.292968h13.652344c1.796874 0 3.558593-.730468 4.828124-2 1.269532-1.269531 2-3.03125 2-4.828125v-109.226562c0-2.523438-1.378906-4.824219-3.605468-6.019531-2.226563-1.191407-4.90625-1.0625-7.007813.339843l3.785157 5.679688h-6.824219v102.402343h-2.207031l-11.933594-29.84375c-1.035156-2.582031-3.558594-4.292968-6.339844-4.292968h-7.628906l-9.558594-76.488282 18.457031 25.84375c2.144531 3 6.273438 3.757813 9.34375 1.710938l20.480469-13.652344-3.789062-5.679687h-6.824219zm0 0"/><path d="m150.1875 369.09375v-34.132812c0-3.769532-3.058594-6.828126-6.828125-6.828126s-6.824219 3.058594-6.824219 6.828126v34.132812c0 3.769531 3.054688 6.828125 6.824219 6.828125s6.828125-3.058594 6.828125-6.828125"/><path d="m300.375 369.09375v-34.132812c0-3.769532-3.058594-6.828126-6.828125-6.828126s-6.828125 3.058594-6.828125 6.828126v34.132812c0 3.769531 3.058594 6.828125 6.828125 6.828125s6.828125-3.058594 6.828125-6.828125"/></g></svg>