<svg height="436pt" viewBox="-20 0 436 436.90667" width="436pt" xmlns="http://www.w3.org/2000/svg"><path d="m266.691406 307.199219h-136.53125c-67.867187 0-122.878906 55.011719-122.878906 122.878906h382.292969c0-67.867187-55.011719-122.878906-122.882813-122.878906zm0 0" fill="#ededed"/><path d="m266.691406 307.199219v-6.824219h-136.53125c-71.640625 0-129.703125 58.0625-129.707031 129.703125 0 1.800781.730469 3.558594 2 4.828125 1.273437 1.273438 3.03125 2 4.828125 2h382.292969c1.796875 0 3.554687-.726562 4.824219-2 1.273437-1.269531 2-3.027344 2-4.824219 0-71.640625-58.066407-129.703125-129.707032-129.707031v13.652344c32.070313.003906 61.042969 12.980468 82.0625 33.992187 21.011719 21.019531 33.988282 49.988281 33.992188 82.058594h6.828125v-6.824219h-382.292969v6.824219h6.824219c.003906-32.066406 12.980469-61.039063 33.992187-82.0625 21.023438-21.011719 49.992188-33.984375 82.0625-33.988281h136.53125zm0 0" fill="#54596e"/><path d="m143.8125 320.851562h109.226562v109.226563h-109.226562zm0 0" fill="#fff"/><path d="m253.039062 320.851562v-6.824218h-109.226562c-1.796875 0-3.554688.726562-4.828125 1.996094-1.269531 1.273437-1.996094 3.03125-1.996094 4.828124v109.226563c0 1.800781.726563 3.558594 1.996094 4.828125 1.273437 1.273438 3.03125 2 4.828125 2h109.226562c1.796876 0 3.554688-.726562 4.828126-2 1.269531-1.269531 2-3.027344 2-4.828125v-109.226563c0-1.796874-.730469-3.554687-2-4.828124-1.269532-1.269532-3.03125-1.996094-4.828126-1.996094v6.824218h-6.824218v102.402344h-95.574219v-95.574218h102.398437v-6.828126h-6.824218zm0 0" fill="#54596e"/><path d="m340.648438 182.480469-12.515626-13.054688v-66.839843c0-52.886719-42.871093-95.757813-95.757812-95.757813h-67.894531c-52.886719 0-95.761719 42.871094-95.761719 95.757813v66.839843l-12.511719 13.050781c-14.367187 14.988282-17.414062 38.84375-7.355469 57.574219l45.683594 85.046875c9.765625 18.191406 29.445313 26.960938 48.03125 21.40625l44.628906-13.328125c7.351563-2.199219 15.109376-2.199219 22.464844 0l44.625 13.328125c18.589844 5.554688 38.269532-3.214844 48.035156-21.40625l45.679688-85.046875c10.058594-18.730469 7.011719-42.585937-7.351562-57.570312zm0 0" fill="#fff"/><path d="m340.648438 182.480469 4.925781-4.726563-10.617188-11.074218v-64.09375c-.003906-56.660157-45.921875-102.58203175-102.582031-102.585938h-67.894531c-56.660157.00390625-102.582031 45.925781-102.585938 102.585938v64.09375l-10.617187 11.074218c-10.019532 10.46875-15.144532 24.484375-15.148438 38.601563 0 9.199219 2.183594 18.492187 6.710938 26.925781l45.679687 85.050781c8.882813 16.59375 25.3125 26.660157 42.808594 26.652344 4.386719 0 8.824219-.632813 13.191406-1.933594l44.628907-13.328125c3.046874-.914062 6.160156-1.363281 9.28125-1.367187 3.113281 0 6.230468.457031 9.273437 1.363281l44.628906 13.328125c4.367188 1.304687 8.808594 1.9375 13.195313 1.9375 17.492187.007813 33.921875-10.0625 42.808594-26.652344l45.675781-85.046875c4.527343-8.433594 6.710937-17.730468 6.710937-26.925781-.003906-14.121094-5.128906-28.136719-15.148437-38.605469l-4.925781 4.726563-4.929688 4.722656c7.378906 7.679687 11.355469 18.324219 11.351562 29.15625 0 7.042969-1.675781 14.117187-5.082031 20.464844l-45.679687 85.046875c-6.730469 12.484375-18.578125 19.453125-30.78125 19.460937-3.078125 0-6.1875-.441406-9.285156-1.367187l-44.625-13.324219c-4.308594-1.289063-8.75-1.9375-13.1875-1.9375-4.441407 0-8.882813.644531-13.191407 1.9375l-44.625 13.324219c-3.097656.925781-6.210937 1.367187-9.285156 1.367187-12.207031-.003906-24.054687-6.976562-30.777344-19.460937l-45.683593-85.046875c-3.410157-6.347657-5.082032-13.421875-5.082032-20.464844-.003906-10.832031 3.96875-21.472656 11.351563-29.15625l12.511719-13.050781c1.226562-1.28125 1.898437-2.953125 1.898437-4.726563v-66.839843c.003906-24.578126 9.941406-46.769532 26.046875-62.886719 16.117188-16.101563 38.308594-26.042969 62.886719-26.046875h67.894531c24.578125.003906 46.769531 9.945312 62.882812 26.046875 16.105469 16.117187 26.046876 38.308593 26.050782 62.886719v66.839843c0 1.773438.671875 3.445313 1.898437 4.722657l12.511719 13.054687zm0 0" fill="#54596e"/><path d="m276.980469 225.253906c-4.648438 2.636719-10.050781 4.023438-15.539063 4.023438-6.441406 0-12.960937-1.898438-18.589844-5.816406l-18.382812-12.804688c-7.820312-5.445312-16.945312-8.175781-26.046875-8.175781s-18.222656 2.730469-26.042969 8.175781l-18.390625 12.808594c-5.625 3.914062-12.144531 5.8125-18.585937 5.8125-5.484375 0-10.878906-1.382813-15.527344-4.019532-3.28125-1.855468-7.449219-.703124-9.304688 2.582032-1.859374 3.277344-.703124 7.445312 2.578126 9.304687 6.789062 3.839844 14.480468 5.789063 22.253906 5.789063 9.113281 0 18.382812-2.691406 26.386718-8.261719l18.386719-12.808594c5.488281-3.820312 11.855469-5.722656 18.242188-5.726562 6.386719.003906 12.753906 1.90625 18.242187 5.726562l18.382813 12.808594c8.007812 5.570313 17.277343 8.261719 26.390625 8.261719 7.777344 0 15.476562-1.949219 22.273437-5.800782 3.277344-1.855468 4.429688-6.023437 2.570313-9.304687-1.851563-3.28125-6.015625-4.433594-9.296875-2.574219zm0 0" fill="#54596e"/><path d="m229.148438 314.027344c0-22.621094-13.753907-54.613282-30.722657-54.613282-16.964843 0-30.71875 31.992188-30.71875 54.613282s13.753907 27.304687 30.71875 27.304687c16.96875 0 30.722657-4.683593 30.722657-27.304687zm0 0" fill="#54596e"/><path d="m229.148438 314.027344h6.824218c-.039062-12.667969-3.683594-27.015625-9.75-38.910156-3.0625-5.9375-6.730468-11.265626-11.238281-15.394532-4.460937-4.085937-10.085937-7.125-16.558594-7.136718-6.472656.007812-12.097656 3.050781-16.558593 7.136718-6.730469 6.203125-11.707032 15.066406-15.3125 24.710938-3.566407 9.65625-5.660157 20.082031-5.671876 29.59375 0 6.335937.953126 11.808594 2.964844 16.5 2.96875 7.085937 8.601563 11.96875 14.808594 14.441406 6.21875 2.539062 12.945312 3.175781 19.769531 3.191406 4.554688 0 9.050781-.304687 13.398438-1.238281 6.464843-1.371094 12.867187-4.359375 17.40625-10.046875 4.546875-5.675781 6.757812-13.382812 6.742187-22.847656h-13.652344c0 4.972656-.761718 8.566406-1.859374 11.113281-1.699219 3.777344-3.855469 5.640625-7.453126 7.203125-3.585937 1.496094-8.679687 2.179688-14.578124 2.164062-3.929688 0-7.515626-.28125-10.519532-.933593-4.5625-1.007813-7.539062-2.644531-9.625-5.234375-2.074218-2.597656-3.734375-6.8125-3.75-14.3125-.039062-9.953125 3.191406-22.917969 8.242188-32.671875 2.5-4.886719 5.449218-8.96875 8.292968-11.546875 2.886719-2.617188 5.347657-3.578125 7.359376-3.570313 2.007812-.007812 4.464843.953125 7.355468 3.570313 4.292969 3.855468 8.703125 11.140625 11.71875 19.371094 3.058594 8.214843 4.832032 17.390624 4.820313 24.847656zm0 0" fill="#54596e"/><path d="m68.71875 95.574219h259.414062v27.304687h-259.414062zm0 0" fill="#8065c4"/><g fill="#54596e"><path d="m328.132812 95.574219v-6.828125h-259.414062c-1.796875 0-3.554688.726562-4.828125 2-1.269531 1.269531-1.996094 3.027344-1.996094 4.828125v27.304687c0 1.796875.726563 3.554688 2 4.828125 1.269531 1.269531 3.027344 2 4.824219 2h259.414062c1.796876 0 3.554688-.726562 4.828126-2 1.269531-1.273437 2-3.03125 2-4.828125v-27.304687c0-1.800781-.730469-3.558594-2-4.828125-1.269532-1.273438-3.03125-2-4.828126-2v6.828125h-6.824218v20.480469h-245.761719v-13.65625h252.585937v-6.824219h-6.824218zm0 0"/><path d="m287.171875 310.613281c0 9.425781-7.640625 17.066407-17.066406 17.066407s-17.066407-7.640626-17.066407-17.066407 7.640626-17.066406 17.066407-17.066406 17.066406 7.640625 17.066406 17.066406zm0 0"/><path d="m143.8125 310.613281c0 9.425781-7.640625 17.066407-17.066406 17.066407-9.425782 0-17.066406-7.640626-17.066406-17.066407s7.640624-17.066406 17.066406-17.066406c9.425781 0 17.066406 7.640625 17.066406 17.066406zm0 0"/><path d="m96.027344 389.121094h6.824218c-.003906-11.316406-9.164062-20.476563-20.476562-20.480469-11.316406.003906-20.476562 9.164063-20.480469 20.480469.003907 11.3125 9.164063 20.472656 20.480469 20.480468 11.3125-.003906 20.472656-9.167968 20.476562-20.480468h-13.652343c-.007813 3.765625-3.058594 6.820312-6.824219 6.824218-3.769531-.003906-6.820312-3.058593-6.828125-6.824218.007813-3.769532 3.058594-6.820313 6.828125-6.828125 3.765625.007812 6.816406 3.058593 6.824219 6.828125zm0 0"/><path d="m103.160156 136.535156c-5.652344 9.503906-7.132812 27.324219-7.132812 35.664063 0 18.253906 28.480468 9.960937 49.917968 9.960937 21.441407 0 38.828126-14.800781 38.828126-33.054687 0-4.453125-1.046876-8.691407-2.925782-12.570313zm0 0"/><path d="m293.691406 136.535156c5.652344 9.503906 7.136719 27.324219 7.136719 35.664063 0 18.253906-28.476563 9.960937-49.921875 9.960937-21.4375 0-38.828125-14.800781-38.828125-33.054687 0-4.453125 1.046875-8.691407 2.929687-12.570313zm0 0"/></g></svg>