<svg height="436pt" viewBox="0 -6 436.90667 436" width="436pt" xmlns="http://www.w3.org/2000/svg"><path d="m430.078125 416.878906h-423.25v-63.972656c0-10.40625 7.410156-19.332031 17.636719-21.253906l200.816406-37.652344 187.417969 37.488281c10.105469 2.019531 17.378906 10.890625 17.378906 21.199219zm0 0" fill="#fff"/><path d="m430.078125 416.878906v-6.824218h-416.425781v-57.148438c0-7.121094 5.070312-13.230469 12.070312-14.542969l199.515625-37.410156 186.121094 37.226563h.003906c6.914063 1.382812 11.890625 7.453124 11.890625 14.507812v64.191406h6.824219v-6.824218 6.824218h6.828125v-64.191406c0-13.5625-9.570312-25.234375-22.867188-27.894531l-187.417968-37.488281c-.847656-.167969-1.753906-.175782-2.597656-.015626l-200.816407 37.65625c-13.457031 2.527344-23.207031 14.269532-23.207031 27.960938v63.972656c0 1.796875.730469 3.554688 2 4.828125 1.273438 1.269531 3.03125 2 4.828125 2h423.25c1.800781 0 3.558594-.726562 4.828125-2 1.273438-1.269531 2-3.027343 2-4.824219h-6.828125zm0 0" fill="#54596e"/><path d="m239.269531 7.28125h-41.632812c-52.574219 0-80.96875 42.957031-83.160157 97.386719l-16.664062 175.679687h-22.71875l13.652344 95.574219h259.414062l13.652344-95.574219h-22.71875l-16.664062-175.679687c-2.1875-54.425781-30.589844-97.386719-83.160157-97.386719" fill="#8065c4"/><path d="m239.269531 7.28125v-6.828125h-41.632812c-14.070313-.003906-26.777344 2.890625-37.839844 8.242187-16.609375 8.023438-29.339844 21.492188-37.964844 38.085938-8.640625 16.609375-13.316406 36.371094-14.175781 57.609375l6.820312.273437-6.796874-.644531-16.074219 169.496094-16.511719.003906c-1.976562 0-3.863281.859375-5.15625 2.355469-1.296875 1.492188-1.882812 3.480469-1.601562 5.4375l13.652343 95.574219c.480469 3.363281 3.359375 5.859375 6.757813 5.859375h259.414062c3.398438 0 6.277344-2.496094 6.757813-5.859375l13.652343-95.574219c.28125-1.957031-.304687-3.945312-1.597656-5.4375-1.296875-1.496094-3.183594-2.355469-5.160156-2.355469h-16.507812l-16.078126-169.496093-6.796874.644531 6.820312-.273438c-1.148438-28.304687-9.0625-54.046875-24.160156-73.078125-7.546875-9.5-16.917969-17.273437-27.980469-22.617187-11.058594-5.351563-23.769531-8.25-37.839844-8.246094v13.652344c12.21875.007812 22.777344 2.480469 31.894531 6.882812 13.65625 6.613281 24.257813 17.648438 31.800782 32.101563 7.527344 14.433594 11.863281 32.273437 12.644531 51.851562l.027344.371094 16.664062 175.679688c.332031 3.507812 3.273438 6.183593 6.796875 6.183593h14.847656l-11.703124 81.917969h-247.574219l-11.703125-81.917969h14.847656c3.523438 0 6.464844-2.675781 6.796875-6.183593l16.664063-175.679688.023437-.371094c1.039063-26.125 8.421875-49.078125 21.210937-65.128906 6.398438-8.046875 14.117188-14.414062 23.234376-18.824219 9.121093-4.40625 19.675781-6.875 31.894531-6.882812h41.632812zm0 0" fill="#54596e"/><path d="m147.699219 184.773438s14.933593 32 44.800781 34.132812c0 0 8.535156-23.464844-44.800781-34.132812zm0 0" fill="#fff"/><path d="m288.578125 184.773438s-14.933594 32-44.800781 34.132812c0 0-8.535156-23.464844 44.800781-34.132812zm0 0" fill="#fff"/><path d="m251.6875 349.273438-34.503906-3.320313-31.824219 3.164063c-9.484375 1.300781-18.71875-3.296876-22-10.957032l-29.496094-44.835937c-8.441406-9.914063-12.222656-22.140625-10.609375-34.292969l3.511719-26.472656 91.6875 18.363281 91.695313-18.363281 3.515624 26.484375c1.609376 12.152343-2.167968 24.367187-10.601562 34.277343l-29.5625 44.972657c-3.261719 7.59375-12.386719 12.191406-21.8125 10.980469" fill="#ffd578"/><path d="m251.6875 349.273438.652344-6.796876-34.507813-3.316406h-1.328125l-31.820312 3.164063-.246094.03125c-.765625.105469-1.527344.15625-2.28125.15625-2.945312.003906-5.75-.796875-7.949219-2.097657-2.210937-1.308593-3.765625-3.054687-4.578125-4.945312l-.566406-1.0625-29.496094-44.832031-.503906-.679688c-6.195312-7.285156-9.34375-15.765625-9.347656-24.359375 0-1.53125.097656-3.070312.300781-4.605468l2.554687-19.25 84.546876 16.929687c.886718.179687 1.785156.179687 2.675781 0l84.546875-16.929687 2.558594 19.265624c.199218 1.53125.304687 3.066407.304687 4.597657-.007813 8.589843-3.152344 17.066406-9.335937 24.351562l-.507813.671875-29.5625 44.976563-.570313 1.054687c-.808593 1.894532-2.359374 3.636719-4.574218 4.941406-2.195313 1.304688-5.003906 2.101563-7.949219 2.097657-.710937 0-1.425781-.042969-2.148437-.136719l-.214844-.023438-.652344 6.796876-.867188 6.769531c1.296876.167969 2.59375.25 3.882813.25 5.355469-.003907 10.492187-1.402344 14.890625-3.992188 4.382812-2.585937 8.082031-6.425781 10.179688-11.316406l-6.273438-2.691406 5.703125 3.75 29.566406-44.972657-5.707031-3.75 5.199219 4.421876c8.136719-9.539063 12.597656-21.21875 12.589843-33.199219 0-2.125-.140624-4.265625-.421874-6.398438l-3.515626-26.484375c-.25-1.886718-1.253906-3.550781-2.796874-4.65625-1.546876-1.105468-3.449219-1.515625-5.3125-1.140625l-90.351563 18.09375-90.351563-18.09375c-1.859374-.371093-3.761718.035157-5.308593 1.140625-1.546875 1.101563-2.546875 2.769532-2.796875 4.65625l-3.511719 26.472656c-.285156 2.132813-.425781 4.269532-.425781 6.402344-.007813 11.984375 4.464844 23.667969 12.609375 33.214844l5.195312-4.425781-5.699219 3.75 29.488282 44.832031 5.707031-3.75-6.277344 2.691406c2.101563 4.894532 5.800781 8.742188 10.1875 11.324219 4.398438 2.589844 9.53125 3.984375 14.886719 3.988281 1.363281 0 2.742188-.09375 4.128906-.277344l-.925781-6.765624.675781 6.792968 31.152344-3.101562 33.847656 3.257812.652344-6.792968-.867188 6.769531z" fill="#54596e"/><path d="m304.339844 240.683594-84.546875 16.929687c-.445313.089844-.894531.136719-1.339844.136719-.449219 0-.894531-.046875-1.339844-.136719l-84.542969-16.929687-2.554687 19.25c-.027344.191406-.046875.382812-.070313.570312l88.507813 17.722656 88.511719-17.722656c-.019532-.183594-.042969-.371094-.066406-.558594z" fill="#eec877"/><path d="m310.148438 232.5625-91.695313 18.359375-91.6875-18.359375-3.511719 26.472656c-.773437 5.804688-.28125 11.625 1.335938 17.207032l2.175781-16.375 3.179687.636718c.023438-.1875.046876-.378906.070313-.570312l2.554687-19.25 84.542969 16.929687c.445313.089844.890625.136719 1.339844.136719.445313 0 .894531-.046875 1.339844-.136719l84.546875-16.929687 2.554687 19.261718c.027344.1875.050781.375.070313.558594l3.179687-.636718 2.179688 16.386718c1.613281-5.582031 2.109375-11.402344 1.335937-17.207031z" fill="#54596e"/><path d="m191.148438 280.347656h54.613281c3.769531 0 6.824219-3.058594 6.824219-6.828125s-3.054688-6.828125-6.824219-6.828125h-54.613281c-3.773438 0-6.828126 3.058594-6.828126 6.828125s3.054688 6.828125 6.828126 6.828125" fill="#f99"/><path d="m129.707031 348.613281-54.613281-68.265625-47.785156 47.785156h40.957031l20.480469 47.789063 61.441406-6.828125zm0 0" fill="#fff35f"/><path d="m129.707031 348.613281 5.328125-4.265625-54.613281-68.265625c-1.21875-1.523437-3.003906-2.445312-4.953125-2.550781-1.945312-.109375-3.824219.609375-5.203125 1.988281l-47.789063 47.789063c-1.949218 1.949218-2.535156 4.886718-1.476562 7.4375 1.058594 2.550781 3.546875 4.214844 6.308594 4.214844h36.457031l18.707031 43.648437c1.1875 2.765625 4.035156 4.425781 7.027344 4.097656l61.441406-6.828125c2.617188-.292968 4.816406-2.039062 5.6875-4.523437s.246094-5.226563-1.613281-7.085938l-20.480469-20.480469-4.828125 4.824219 5.328125-4.265625-5.328125 4.265625-4.828125 4.828125 10.4375 10.433594-42.289062 4.699219-18.484375-43.128907c-1.082031-2.519531-3.535157-4.136718-6.277344-4.136718h-24.480469l30.742188-30.742188 49.847656 62.3125.503906.5625zm0 0" fill="#54596e"/><path d="m307.199219 348.613281 54.613281-68.265625 47.789062 47.785156h-40.960937l-20.480469 47.789063-61.441406-6.828125zm0 0" fill="#fff35f"/><path d="m307.199219 348.613281 5.332031 4.265625 49.847656-62.3125 30.738282 30.742188h-24.476563c-2.738281 0-5.195313 1.617187-6.277344 4.136718l-18.484375 43.128907-42.289062-4.699219 10.4375-10.4375.503906-.5625-5.332031-4.261719-4.824219-4.828125-20.480469 20.480469c-1.863281 1.863281-2.488281 4.601563-1.617187 7.085937.875 2.484376 3.070312 4.230469 5.691406 4.523438l61.4375 6.828125c2.992188.332031 5.84375-1.332031 7.027344-4.097656l18.707031-43.644531h36.460937c2.757813 0 5.25-1.664063 6.304688-4.214844 1.054688-2.550782.472656-5.488282-1.480469-7.4375l-47.785156-47.789063c-1.378906-1.378906-3.257813-2.097656-5.207031-1.988281-1.945313.105469-3.734375 1.027344-4.953125 2.550781l-54.613281 68.265625 5.332031 4.265625-4.824219-4.828125zm0 0" fill="#54596e"/><path d="m196.023438 375.921875-58.515626 40.957031h155.0625l-61.441406-40.957031zm0 0" fill="#f99"/><path d="m196.023438 375.921875-3.914063-5.59375-58.515625 40.960937c-2.449219 1.710938-3.496094 4.792969-2.59375 7.640626.898438 2.855468 3.519531 4.773437 6.507812 4.773437h155.0625c3.007813 0 5.660157-1.964844 6.53125-4.847656.871094-2.878907-.242187-5.988281-2.746093-7.65625l-61.441407-40.960938c-1.109374-.738281-2.457031-1.144531-3.785156-1.144531h-35.109375c-1.394531 0-2.769531.429688-3.914062 1.234375l3.917969 5.59375v6.824219h33.035156l40.964844 27.308594h-110.859376l40.773438-28.542969-3.914062-5.589844v6.824219zm0 0" fill="#54596e"/></svg>