<svg height="437pt" viewBox="0 0 437 437.66613" width="437pt" xmlns="http://www.w3.org/2000/svg"><path d="m398.164062 385.839844c-15.203124-3.054688-29.089843-11.007813-38.074218-23.648438-8.644532-12.160156-22.835938-20.097656-38.902344-20.097656h-6.824219l-13.65625-47.789062h-170.664062l-13.65625 47.789062c-16.066407 0-30.257813 7.9375-38.902344 20.097656-8.984375 12.640625-22.867187 20.59375-38.070313 23.648438-23.285156 4.679687-32.253906 16.578125-32.253906 45h423.253906c0-28.421875-8.964843-40.320313-32.25-45zm0 0" fill="#bfad88"/><path d="m398.164062 385.839844 1.34375-6.695313c-13.773437-2.773437-26.039062-9.902343-33.851562-20.910156-9.855469-13.882813-26.117188-22.972656-44.464844-22.96875h-1.679687l-12.238281-42.835937c-.835938-2.933594-3.511719-4.953126-6.5625-4.953126h-170.667969c-3.054688 0-5.726563 2.019532-6.566407 4.953126l-13.652343 47.785156 6.5625 1.878906v-6.828125c-18.351563 0-34.609375 9.089844-44.464844 22.96875-7.816406 11.011719-20.078125 18.140625-33.851563 20.910156-6.285156 1.265625-11.855468 3.058594-16.757812 5.695313-7.367188 3.90625-13.054688 10.007812-16.355469 17.800781-3.34375 7.792969-4.613281 17.015625-4.625 28.199219 0 1.796875.730469 3.554687 2 4.824218 1.273438 1.273438 3.03125 2 4.828125 2h423.253906c1.796876 0 3.554688-.726562 4.824219-2 1.273438-1.269531 2-3.027343 2-4.824218-.015625-14.851563-2.261719-26.464844-8.691406-35.410156-3.195313-4.425782-7.390625-7.964844-12.285156-10.589844-4.898438-2.640625-10.472657-4.429688-16.757813-5.695313l-1.339844 6.695313-1.347656 6.691406c5.363282 1.074219 9.640625 2.527344 12.972656 4.324219 4.980469 2.746093 7.988282 5.980469 10.292969 11.191406 2.265625 5.210937 3.519531 12.660156 3.507813 22.792969h6.828125v-6.828125h-423.257813v6.828125h6.828125c-.015625-13.570313 2.21875-22.117188 6.097657-27.398438 1.957031-2.683594 4.367187-4.773437 7.703124-6.582031 3.332032-1.796875 7.609376-3.253906 12.972657-4.328125 16.625-3.335938 32.136719-12.113281 42.289062-26.382812 7.433594-10.4375 19.554688-17.230469 33.335938-17.230469 3.054687 0 5.726562-2.015625 6.566406-4.953125l12.238281-42.832032h160.367188l12.238281 42.832032c.839844 2.9375 3.511719 4.953125 6.566406 4.953125h6.824219c13.78125 0 25.90625 6.789062 33.339844 17.230469 10.152344 14.269531 25.660156 23.046874 42.289062 26.382812zm0 0" fill="#54596e"/><path d="m336.6875 62.199219-38.746094 40.960937c-6.460937-34.136718 6.457032-75.097656 6.457032-75.097656-25.828126-27.300781-77.859376-20.476562-77.859376-20.476562l-12.914062 34.132812-19.378906 81.921875-20.105469-54.613281-12.917969 13.652344-18.632812-27.308594-19.375 13.65625v34.132812l-32.285156 6.824219 34.136718 102.46875-2.019531 17.648437c-.886719 7.738282.011719 15.578126 2.628906 22.910157l6.214844 17.40625-4.792969 50.300781c-1.246094 13.0625 5.121094 25.671875 16.371094 32.421875l49.859375 29.914063h40.957031l56.589844-29.859376c11.296875-6.773437 17.667969-19.460937 16.359375-32.574218l-4.679687-46.839844 5.722656-15.078125c2.921875-7.707031 3.933594-16.003906 2.953125-24.179687l-1.847657-15.359376z" fill="#bfad88"/><path d="m336.6875 62.199219-4.960938-4.691407-38.746093 40.960938 4.960937 4.691406 6.707032-1.269531c-1.195313-6.304687-1.691407-12.996094-1.6875-19.652344-.007813-13.3125 1.984374-26.457031 3.992187-36.195312 1-4.871094 2.003906-8.894531 2.75-11.675781.371094-1.394532.679687-2.476563.890625-3.199219l.242188-.8125.074218-.234375c.746094-2.371094.15625-4.941406-1.550781-6.746094-9.824219-10.363281-22.570313-16.109375-34.890625-19.359375-12.347656-3.238281-24.417969-4.01171875-33.484375-4.015625-9.0625 0-15.117187.789062-15.332031.816406-2.484375.328125-4.613282 2.011719-5.496094 4.351563l-12.917969 34.136719-.257812.84375-14.15625 59.859374-12.277344-33.34375c-.820313-2.226562-2.710937-3.851562-5.035156-4.328124-2.324219-.476563-4.699219.273437-6.332031 1.996093l-7.09375 7.5-13.859376-20.308593c-1.027343-1.507813-2.628906-2.542969-4.421874-2.871094-1.796876-.324219-3.65625.089844-5.148438 1.140625l-19.375 13.652343c-1.808594 1.273438-2.894531 3.367188-2.894531 5.582032v28.597656l-26.871094 5.679688c-1.90625.40625-3.539063 1.59375-4.507813 3.285156-.972656 1.691406-1.171874 3.699218-.554687 5.550781l33.652344 101.035156-1.847657 16.144531c-.25 2.183594-.375 4.375-.375 6.5625 0 6.601563 1.132813 13.171876 3.359376 19.417969l5.703124 15.976563-4.648437 48.789062c-.121094 1.300782-.183594 2.59375-.183594 3.882813 0 14.257812 7.457031 27.605469 19.84375 35.039062l49.859375 29.914063c1.050782.628906 2.28125.972656 3.511719.972656h40.960937c1.117188 0 2.195313-.265625 3.183594-.789062l56.589844-29.859376.324219-.183593c12.386719-7.429688 19.84375-20.777344 19.84375-35.035157 0-1.351562-.066407-2.710937-.203125-4.070312l-4.519532-45.242188 5.152344-13.578124c2.492188-6.578126 3.757813-13.527344 3.757813-20.519532 0-2.300781-.132813-4.605468-.410157-6.898437l-1.730468-14.363281 27.132812-155.972657c.515625-2.964843-.972656-5.921875-3.664062-7.269531-2.6875-1.351562-5.949219-.777344-8.019532 1.410156l4.960938 4.695313-6.726562-1.171875-27.304688 156.960937c-.109375.628907-.128906 1.351563-.050781 1.988281l1.847656 15.359376c.210937 1.75.316406 3.511718.316406 5.269531 0 5.339843-.96875 10.648437-2.875 15.671875l-5.722656 15.078125c-.367187.972656-.511719 2.066406-.40625 3.101562l4.679687 46.839844c.089844.90625.132813 1.8125.132813 2.714844 0 9.484375-4.964844 18.382812-13.210937 23.324219l3.507812 5.855468-3.183594-6.039062-55.09375 29.070312h-37.378906l-48.238281-28.9375c-8.246094-4.945312-13.214844-13.84375-13.214844-23.332031 0-.855469.042969-1.722656.125-2.585937l4.792969-50.300782c.09375-.992187-.03125-2.003906-.367188-2.941406l-6.214844-17.40625c-1.699218-4.773438-2.5625-9.789062-2.5625-14.832031 0-1.671875.09375-3.34375.285157-5.015625l2.019531-17.644532c.109375-.992187.007812-1.988281-.308594-2.933593l-31.714844-95.210938 24.808594-5.246093c3.164063-.667969 5.414063-3.441407 5.414063-6.675782v-30.59375l10.8125-7.621094 14.726562 21.582032c1.171875 1.710937 3.03125 2.792968 5.097657 2.957031 2.066406.164063 4.078124-.609375 5.503906-2.113281l5.351562-5.660156 16.308594 44.289062c1.039062 2.824219 3.8125 4.636719 6.816406 4.453125 3.007813-.179687 5.539063-2.3125 6.234375-5.242187l19.269531-81.488282 12.761719-33.71875-6.382812-2.417968.886719 6.769531.183593-.023438c1.019531-.121093 6.140625-.679687 13.375-.679687 8.265625-.003906 19.289063.742187 30.011719 3.570312 10.75 2.820313 21.046875 7.691406 28.445312 15.535156l4.957032-4.691406-6.511719-2.054687c-.085937.363281-8.546875 26.960937-8.582031 56.226562.003906 7.328125.539062 14.839844 1.929687 22.191407.476563 2.523437 2.320313 4.558593 4.785157 5.28125 2.46875.722656 5.117187.003906 6.882812-1.859376l38.746094-40.960937-4.964844-4.691406-6.726562-1.171875zm0 0" fill="#54596e"/><path d="m252.921875 219.210938c-13.355469 0-25.128906 9.433593-32.914063 23.894531 7.785157 14.460937 19.558594 23.894531 32.914063 23.894531s25.125-9.433594 32.914063-23.894531c-7.789063-14.460938-19.558594-23.894531-32.914063-23.894531" fill="#9f9480"/><path d="m177.828125 219.210938c-13.355469 0-25.128906 9.433593-32.914063 23.894531 7.785157 14.460937 19.558594 23.894531 32.914063 23.894531s25.128906-9.433594 32.914063-23.894531c-7.785157-14.460938-19.558594-23.894531-32.914063-23.894531" fill="#9f9480"/><g fill="#54596e"><path d="m245.578125 304.238281-9.835937.746094-1.136719.183594c-7.433594 1.863281-15.039063 2.792969-22.644531 2.792969-7.605469 0-15.210938-.933594-22.640626-2.792969l-.011718-.003907-3.007813-.746093c-3.660156-.910157-7.363281 1.320312-8.269531 4.980469-.910156 3.660156 1.320312 7.363281 4.976562 8.273437l3.007813.746094-.011719-.003907c8.519532 2.132813 17.238282 3.199219 25.957032 3.199219s17.4375-1.066406 25.957031-3.199219l-1.65625-6.625.519531 6.808594 9.832031-.75c3.761719-.28125 6.574219-3.5625 6.289063-7.324218-.285156-3.753907-3.566406-6.570313-7.324219-6.285157zm0 0"/><path d="m143.492188 179.90625 6.824218-27.304688c.363282-1.445312.242188-2.976562-.347656-4.34375l-20.480469-47.789062c-1.484375-3.464844-5.496093-5.070312-8.960937-3.585938-3.46875 1.484376-5.070313 5.5-3.585938 8.964844l19.574219 45.671875-6.269531 25.074219c-.914063 3.660156 1.308594 7.367188 4.964844 8.28125 3.660156.914062 7.367187-1.308594 8.28125-4.96875zm0 0"/><path d="m239.234375 90.183594s.101563-1.007813.308594-2.867188c.734375-6.496094 2.773437-23.078125 6.070312-39.3125 1.640625-8.105468 3.605469-16.132812 5.796875-22.632812 2.113282-6.480469 4.800782-11.484375 6.351563-12.898438 2.660156-2.671875 2.648437-6.996094-.027344-9.65625-2.671875-2.65625-6.992187-2.644531-9.652344.027344-2.582031 2.625-4.429687 5.777344-6.136719 9.371094-2.941406 6.273437-5.285156 14.011718-7.3125 22.285156-6.035156 24.726562-8.957031 54.164062-8.980468 54.324219-.378906 3.753906 2.359375 7.097656 6.109375 7.472656 3.75.378906 7.097656-2.359375 7.472656-6.113281zm0 0"/><path d="m225.683594 115.847656-6.828125 47.785156c-.53125 3.734376 2.0625 7.191407 5.792969 7.722657 3.734374.53125 7.191406-2.058594 7.722656-5.792969l6.828125-47.785156c.53125-3.734375-2.0625-7.191406-5.792969-7.722656-3.730469-.535157-7.1875 2.058593-7.722656 5.792968"/><path d="m307.523438 136.921875c0-.023437-.550782-10.1875-1.394532-22.539063-.847656-12.371093-1.96875-26.835937-3.171875-35.832031-.5-3.738281-3.933593-6.359375-7.671875-5.859375-3.738281.5-6.363281 3.933594-5.859375 7.671875 1.109375 8.269531 2.25 22.722657 3.082031 34.949219.417969 6.125.761719 11.71875 1.003907 15.777344.242187 4.054687.378906 6.566406.378906 6.570312.207031 3.765625 3.421875 6.652344 7.1875 6.449219s6.652344-3.421875 6.445313-7.1875zm0 0"/><path d="m177.828125 233.191406c-5.539063 0-10.421875 3.914063-13.652344 9.914063 3.230469 6 8.113281 9.914062 13.652344 9.914062s10.421875-3.914062 13.652344-9.914062c-3.230469-6-8.113281-9.914063-13.652344-9.914063zm0 0"/><path d="m252.921875 233.191406c-5.539063 0-10.421875 3.914063-13.652344 9.914063 3.230469 6 8.113281 9.914062 13.652344 9.914062s10.421875-3.914062 13.652344-9.914062c-3.230469-6-8.113281-9.914063-13.652344-9.914063zm0 0"/></g><path d="m46.558594 430.839844 56.175781-47.785156 109.226563 20.476562 6.828124 27.308594zm0 0" fill="#bfad88"/><path d="m46.558594 430.839844 4.421875 5.199218 53.695312-45.679687 101.726563 19.074219 3.640625 14.578125h-163.484375v6.828125l4.421875 5.199218-4.421875-5.199218v6.828125h172.230468c2.09375 0 4.089844-.976563 5.378907-2.625 1.292969-1.652344 1.753906-3.824219 1.242187-5.859375l-6.824218-27.304688c-.648438-2.597656-2.734376-4.5625-5.363282-5.054687l-109.226562-20.480469c-2.015625-.378906-4.121094.179688-5.683594 1.511719l-56.175781 47.785156c-2.183594 1.855469-2.972657 4.867187-1.984375 7.554687.992187 2.6875 3.542968 4.472657 6.40625 4.472657zm0 0" fill="#54596e"/><path d="m389.453125 430.839844-56.175781-47.785156-109.226563 20.476562-6.824219 27.308594zm0 0" fill="#bfad88"/><path d="m389.453125 430.839844 4.425781-5.199219-56.175781-47.789063c-1.5625-1.328124-3.667969-1.886718-5.683594-1.507812l-109.226562 20.476562c-2.628907.496094-4.714844 2.460938-5.363281 5.054688l-6.828126 27.308594c-.507812 2.03125-.046874 4.203125 1.242188 5.855468 1.292969 1.652344 3.285156 2.625 5.382812 2.625h172.226563c2.867187 0 5.421875-1.78125 6.410156-4.46875.988281-2.691406.195313-5.699218-1.984375-7.554687l-4.425781 5.199219v-6.828125h-163.484375l3.644531-14.578125 101.722657-19.074219 53.695312 45.679687 4.421875-5.199218v-6.828125zm0 0" fill="#54596e"/></svg>