<svg height="436pt" viewBox="0 0 436 436.90692" width="436pt" xmlns="http://www.w3.org/2000/svg"><path d="m430.535156 430.082031h-423.253906v-20.875c0-35.390625 25.207031-65.773437 60-72.300781l158.453125-29.707031 145.667969 29.132812c34.382812 6.882813 59.132812 37.066407 59.132812 72.128907zm0 0" fill="#55a6ff"/><path d="m430.535156 430.082031v-6.828125h-416.429687v-14.046875c0-32.105469 22.871093-59.671875 54.433593-65.589843l157.152344-29.464844 144.375 28.875c31.1875 6.238281 53.644532 33.628906 53.640625 65.433594v21.621093h6.828125v-6.828125 6.828125h6.824219v-21.621093c0-38.316407-27.042969-71.300782-64.617187-78.820313l-145.671876-29.132813c-.84375-.171874-1.75-.175781-2.597656-.015624l-158.453125 29.707031c-38.015625 7.132812-65.5625 40.328125-65.566406 79.007812v20.875c0 1.796875.730469 3.554688 2 4.824219 1.273437 1.273438 3.03125 2 4.828125 2h423.253906c1.796875 0 3.554688-.726562 4.824219-1.996094 1.273437-1.273437 2-3.03125 2-4.828125zm0 0" fill="#54596e"/><path d="m314.480469 395.945312h-191.148438l-6.824219-136.53125h204.800782zm0 0" fill="#ffd578"/><path d="m314.480469 395.945312v-6.824218h-184.652344l-6.144531-122.878906h190.445312l-6.46875 129.363281 6.820313.339843v-6.824218 6.824218l6.816406.34375 6.828125-136.535156c.09375-1.871094-.578125-3.6875-1.871094-5.046875-1.292968-1.355469-3.070312-2.121093-4.945312-2.121093h-204.800782c-1.875 0-3.65625.765624-4.945312 2.121093-1.292969 1.359375-1.96875 3.175781-1.875 5.046875l6.828125 136.535156c.183594 3.640626 3.171875 6.484376 6.816406 6.484376h191.148438c3.644531 0 6.636719-2.84375 6.816406-6.484376zm0 0" fill="#54596e"/><path d="m157.464844 368.640625-54.613282-68.265625-47.785156 47.785156h40.960938l20.480468 47.785156h61.4375zm0 0" fill="#f99"/><path d="m157.464844 368.640625 5.332031-4.265625-54.613281-68.265625c-1.21875-1.523437-3.003906-2.445313-4.953125-2.550781-1.945313-.109375-3.824219.609375-5.207031 1.988281l-47.785157 47.785156c-1.953125 1.953125-2.535156 4.890625-1.480469 7.441407 1.058594 2.550781 3.550782 4.214843 6.308594 4.214843h36.457032l18.707031 43.648438c1.082031 2.515625 3.539062 4.136719 6.277343 4.136719h61.4375c2.59375 0 4.949219-1.457032 6.109376-3.773438 1.15625-2.316406.910156-5.078125-.648438-7.148438l-20.476562-27.308593-.132813-.167969-5.332031 4.265625-5.460938 4.09375 12.289063 16.386719h-43.285157l-18.707031-43.648438c-1.078125-2.519531-3.535156-4.140625-6.273437-4.140625h-24.480469l30.738281-30.738281 49.851563 62.3125 5.328125-4.265625-5.460938 4.09375zm0 0" fill="#54596e"/><path d="m280.347656 368.640625 54.613282-68.265625 47.785156 47.785156h-40.960938l-20.476562 47.785156h-61.441406zm0 0" fill="#f99"/><path d="m280.347656 368.640625 5.328125 4.265625 49.847657-62.3125 30.742187 30.738281h-24.480469c-2.738281 0-5.195312 1.621094-6.273437 4.136719l-18.707031 43.652344h-43.285157l12.289063-16.386719-5.460938-4.09375 5.328125 4.265625-5.328125-4.265625-5.460937-4.097656-20.480469 27.308593c-1.554688 2.070313-1.804688 4.832032-.644531 7.148438 1.15625 2.316406 3.515625 3.773438 6.105469 3.773438h61.441406c2.738281 0 5.191406-1.621094 6.273437-4.136719l18.707031-43.648438h36.457032c2.761718 0 5.25-1.664062 6.308594-4.214843 1.054687-2.550782.472656-5.488282-1.480469-7.441407l-47.789063-47.785156c-1.378906-1.378906-3.253906-2.097656-5.203125-1.988281-1.949219.105468-3.734375 1.027344-4.953125 2.550781l-54.613281 68.265625-.128906.167969zm0 0" fill="#54596e"/><path d="m285.167969 430.082031h-132.519531l-36.140626-34.136719h204.800782zm0 0" fill="#fff35f"/><path d="m285.167969 430.082031v-6.828125h-129.808594l-21.683594-20.480468h170.460938l-23.660157 22.34375 4.691407 4.964843v-6.828125 6.828125l4.683593 4.960938 36.140626-34.132813c2.039062-1.925781 2.691406-4.882812 1.65625-7.484375-1.035157-2.605469-3.539063-4.304687-6.339844-4.304687h-204.800782c-2.804687 0-5.308593 1.699218-6.34375 4.304687-1.035156 2.601563-.382812 5.558594 1.65625 7.484375l36.136719 34.132813c1.269531 1.199219 2.945313 1.863281 4.691407 1.863281h132.519531c1.742187 0 3.417969-.664062 4.683593-1.863281zm0 0" fill="#54596e"/><path d="m337.449219 66.789062-166.328125-59.960937-75.0625 52.285156c-11.109375 5.421875-16.96875 16.914063-14.375 28.195313l25.445312 110.664062 223.675782-13.652344 23.789062-87.121093c3.449219-12.640625-3.890625-25.660157-17.144531-30.410157zm0 0" fill="#999"/><path d="m337.449219 66.789062 2.316406-6.425781-166.332031-59.957031c-2.082032-.753906-4.398438-.4453125-6.214844.820312l-75.0625 52.285157 3.898438 5.601562-2.992188-6.132812c-11.515625 5.59375-18.820312 16.796875-18.816406 28.984375 0 2.277344.257812 4.582031.785156 6.871094l25.445312 110.667968c.746094 3.25 3.738282 5.484375 7.070313 5.28125l223.671875-13.652344c2.921875-.175781 5.398438-2.191406 6.171875-5.015624l23.785156-87.121094c.734375-2.683594 1.089844-5.40625 1.089844-8.09375-.003906-13.527344-8.972656-25.71875-22.511719-30.542969l-2.304687 6.429687-2.304688 6.421876c8.5625 3.097656 13.46875 10.332031 13.46875 17.691406 0 1.480468-.195312 2.984375-.605469 4.5l-22.5 82.402344-213.019531 13.003906-24.152343-105.03125c-.292969-1.285156-.433594-2.554688-.433594-3.8125.003906-6.65625 3.964844-13.1875 11.148437-16.714844l.90625-.535156 72.167969-50.269532 163.011719 58.765626zm0 0" fill="#54596e"/><path d="m355.441406 197.972656c0 11.3125-9.171875 20.480469-20.480468 20.480469-11.3125 0-20.480469-9.167969-20.480469-20.480469 0-11.308594 9.167969-20.480468 20.480469-20.480468 11.308593 0 20.480468 9.171874 20.480468 20.480468zm0 0" fill="#ffd578"/><path d="m355.441406 197.972656h6.824219c-.003906-15.085937-12.222656-27.300781-27.304687-27.304687-15.082032.003906-27.304688 12.21875-27.308594 27.304687.003906 15.085938 12.226562 27.304688 27.308594 27.308594 15.082031-.003906 27.300781-12.222656 27.304687-27.308594h-13.652344c-.011719 7.539063-6.113281 13.640625-13.652343 13.652344-7.539063-.011719-13.640626-6.113281-13.652344-13.652344.011718-7.539062 6.113281-13.640625 13.652344-13.652344 7.539062.011719 13.640624 6.113282 13.652343 13.652344zm0 0" fill="#54596e"/><path d="m123.332031 197.972656c0 11.3125-9.167969 20.480469-20.480469 20.480469-11.308593 0-20.476562-9.167969-20.476562-20.480469 0-11.308594 9.167969-20.480468 20.476562-20.480468 11.3125 0 20.480469 9.171874 20.480469 20.480468zm0 0" fill="#ffd578"/><path d="m123.332031 197.972656h6.828125c-.003906-15.085937-12.226562-27.300781-27.308594-27.304687-15.078124.003906-27.300781 12.21875-27.304687 27.304687.003906 15.085938 12.226563 27.304688 27.304687 27.308594 15.082032-.003906 27.304688-12.222656 27.308594-27.308594h-13.652344c-.015624 7.539063-6.117187 13.640625-13.65625 13.652344-7.535156-.011719-13.636718-6.113281-13.652343-13.652344.015625-7.539062 6.117187-13.640625 13.652343-13.652344 7.539063.011719 13.640626 6.113282 13.65625 13.652344zm0 0" fill="#54596e"/><path d="m334.515625 251.769531-6.808594-156.195312-130.558593 27.304687-87.042969-27.304687-6.804688 156.179687c-1.957031 12.152344 2.636719 24.378906 12.890625 34.292969l35.8125 44.835937c3.988282 7.660157 15.199219 12.261719 26.714844 10.960938l38.644531-3.164062 41.898438 3.3125c11.445312 1.214843 22.527343-3.382813 26.488281-10.980469l35.902344-44.972657c10.234375-9.90625 14.824218-22.125 12.863281-34.269531zm0 0" fill="#ffd578"/><path d="m334.515625 251.769531 6.820313-.296875-6.808594-156.195312c-.085938-2-1.050782-3.867188-2.632813-5.09375-1.578125-1.226563-3.628906-1.703125-5.585937-1.292969l-128.816406 26.941406-85.34375-26.773437c-2.023438-.632813-4.226563-.292969-5.960938.925781-1.738281 1.214844-2.808594 3.171875-2.902344 5.292969l-6.804687 156.179687 6.820312.296875-6.738281-1.085937c-.355469 2.191406-.53125 4.390625-.53125 6.582031-.011719 12.382812 5.621094 24.269531 15.414062 33.703125l4.746094-4.90625-5.332031 4.261719 35.8125 44.832031 5.332031-4.257813-6.054687 3.152344c2.640625 5.03125 7.023437 8.679688 12.03125 11.125 5.039062 2.433594 10.820312 3.71875 16.847656 3.726563 1.539063 0 3.089844-.085938 4.644531-.257813l-.753906-6.785156.558594 6.804688 38.09375-3.117188 41.351562 3.269531.535156-6.804687-.714843 6.789062c1.46875.15625 2.929687.230469 4.375.230469 6.03125-.003906 11.816406-1.292969 16.851562-3.730469 5.011719-2.441406 9.390625-6.085937 12.027344-11.109375l-6.050781-3.15625 5.332031 4.257813 35.90625-44.976563-5.335937-4.257812 4.746093 4.90625c9.773438-9.425781 15.402344-21.300781 15.390625-33.671875 0-2.195313-.175781-4.398438-.527344-6.59375l-6.742187 1.085937 6.820313-.296875-6.820313.296875-6.738281 1.085938c.238281 1.476562.355468 2.949219.355468 4.417969-.011718 8.195312-3.628906 16.46875-11.230468 23.863281l-.585938.644531-35.90625 44.976562-.71875 1.101563c-.890625 1.753906-2.886718 3.695313-5.886718 5.144531-2.972657 1.453125-6.839844 2.363282-10.886719 2.359375-.972657 0-1.957031-.050781-2.941407-.15625l-.179687-.015625-41.894531-3.3125h-1.09375l-38.644532 3.164063-.199218.015625c-1.054688.117187-2.105469.175781-3.136719.175781-4.042969.007813-7.90625-.902344-10.882813-2.355469-2.996093-1.449218-4.992187-3.386718-5.886718-5.144531l-.722656-1.109375-35.8125-44.832031-.585938-.648438c-7.625-7.402343-11.242188-15.6875-11.253906-23.886719 0-1.464843.121094-2.9375.355468-4.410156l.082032-.789062 6.417968-147.304688 78.566407 24.648438c1.101562.34375 2.308593.402344 3.4375.167968l122.695312-25.660156 6.457031 148.160156.082032.792969zm0 0" fill="#54596e"/><path d="m184.773438 266.242188h68.265624c3.769532 0 6.828126-3.058594 6.828126-6.828126 0-3.769531-3.058594-6.828124-6.828126-6.828124h-68.265624c-3.769532 0-6.828126 3.058593-6.828126 6.828124 0 3.769532 3.058594 6.828126 6.828126 6.828126" fill="#f99"/><path d="m198.824219 109.601562-26.210938 6.898438c-5.78125 1.519531-9.246093 7.460938-7.722656 13.246094 1.519531 5.78125 7.464844 9.25 13.246094 7.726562 5.792969-1.527344 11.722656 1.933594 13.246093 7.71875 1.527344 5.796875-1.933593 11.726563-7.722656 13.25-17.347656 4.566406-35.175781-5.828125-39.742187-23.175781-4.566407-17.34375 5.832031-35.171875 23.179687-39.738281" fill="#999"/><g fill="#54596e"><path d="m197.089844 102.996094-26.214844 6.902344c-7.929688 2.105468-13.167969 9.230468-13.171875 17.085937 0 1.488281.191406 3.003906.585937 4.5 2.105469 7.933594 9.238282 13.171875 17.089844 13.171875 1.492188 0 3-.191406 4.484375-.578125l.015625-.003906 1.027344-.140625c1.757812.003906 3.410156 1.195312 3.871094 2.996094l.132812 1.03125c0 1.761718-1.191406 3.414062-2.992187 3.875-2.195313.578124-4.386719.847656-6.542969.851562-11.367188 0-21.847656-7.65625-24.859375-19.160156-.578125-2.195313-.851563-4.386719-.851563-6.539063 0-11.375 7.652344-21.855469 19.164063-24.863281 3.644531-.957031 5.820313-4.691406 4.863281-8.339844-.957031-3.644531-4.691406-5.824218-8.339844-4.863281-17.652343 4.660156-29.339843 20.597656-29.339843 38.0625 0 3.3125.421875 6.679687 1.300781 10.015625 4.664062 17.652344 20.601562 29.335938 38.0625 29.335938 3.3125 0 6.679688-.421876 10.015625-1.300782 7.925781-2.097656 13.175781-9.226562 13.171875-17.078125 0-1.492187-.191406-3.011719-.585938-4.507812-2.097656-7.925781-9.222656-13.171875-17.074218-13.167969-1.503906 0-3.019532.195312-4.511719.585938l.015625-.003907-1.027344.136719c-1.761718 0-3.441406-1.210938-3.886718-2.996094l-.136719-1.027344c0-1.757812 1.207031-3.429687 2.992187-3.878906l26.214844-6.902344c3.644531-.957031 5.824219-4.691406 4.863281-8.339843-.957031-3.640625-4.691406-5.816407-8.335937-4.859375zm0 0"/><path d="m273.519531 194.558594c0 5.65625-4.585937 10.242187-10.238281 10.242187-5.65625 0-10.242188-4.585937-10.242188-10.242187 0-5.652344 4.585938-10.238282 10.242188-10.238282 5.652344 0 10.238281 4.585938 10.238281 10.238282zm0 0"/><path d="m184.773438 194.558594c0 5.65625-4.585938 10.242187-10.238282 10.242187-5.65625 0-10.242187-4.585937-10.242187-10.242187 0-5.652344 4.585937-10.238282 10.242187-10.238282 5.652344 0 10.238282 4.585938 10.238282 10.238282zm0 0"/></g></svg>