<svg height="430pt" viewBox="-51 0 430 430.08171" width="430pt" xmlns="http://www.w3.org/2000/svg"><path d="m163.882812 6.828125c-71.632812 0-129.707031 58.070313-129.707031 129.707031v150.183594h259.414063v-150.183594c0-71.632812-58.074219-129.707031-129.707032-129.707031zm0 0" fill="#999"/><path d="m163.882812 6.828125v-6.828125c-75.40625.00390625-136.53125 61.125-136.535156 136.535156v150.183594c0 1.796875.730469 3.554688 2 4.828125 1.273438 1.269531 3.03125 2 4.828125 2h259.414063c1.796875 0 3.554687-.726563 4.824218-2 1.273438-1.269531 2-3.027344 2-4.824219v-150.1875c0-75.40625-61.125-136.53124975-136.53125-136.535156v13.652344c33.953126.003906 64.628907 13.746094 86.886719 35.992187 22.25 22.257813 35.988281 52.9375 35.992188 86.890625v143.359375h-245.757813v-143.359375c.003906-33.957031 13.742188-64.632812 35.992188-86.890625 22.257812-22.246093 52.933594-35.988281 86.886718-35.992187zm0 0" fill="#54596e"/><path d="m293.589844 163.839844c0 15.082031-12.226563 27.308594-27.308594 27.308594-15.078125 0-27.304688-12.226563-27.304688-27.308594 0-15.082032 12.226563-27.304688 27.304688-27.304688 15.082031 0 27.308594 12.222656 27.308594 27.304688zm0 0" fill="#ffd578"/><path d="m293.589844 163.839844h6.824218c-.003906-18.851563-15.277343-34.128906-34.132812-34.132813-18.851562.003907-34.125 15.28125-34.132812 34.132813.007812 18.855468 15.28125 34.128906 34.132812 34.132812 18.855469-.003906 34.128906-15.277344 34.132812-34.132812h-13.652343c-.019531 11.308594-9.171875 20.460937-20.480469 20.480468-11.304688-.019531-20.457031-9.171874-20.480469-20.480468.023438-11.304688 9.175781-20.460938 20.480469-20.480469 11.308594.019531 20.460938 9.175781 20.480469 20.480469zm0 0" fill="#54596e"/><path d="m88.789062 163.839844c0 15.082031-12.226562 27.308594-27.304687 27.308594-15.082031 0-27.308594-12.226563-27.308594-27.308594 0-15.082032 12.226563-27.304688 27.308594-27.304688 15.078125 0 27.304687 12.222656 27.304687 27.304688zm0 0" fill="#ffd578"/><path d="m88.789062 163.839844h6.828126c-.007813-18.851563-15.28125-34.128906-34.132813-34.132813-18.855469.003907-34.128906 15.28125-34.136719 34.132813.007813 18.855468 15.28125 34.128906 34.136719 34.132812 18.851563-.003906 34.125-15.277344 34.132813-34.132812h-13.65625c-.019532 11.308594-9.171876 20.460937-20.476563 20.480468-11.308594-.019531-20.460937-9.171874-20.480469-20.480468.019532-11.304688 9.171875-20.460938 20.480469-20.480469 11.304687.019531 20.457031 9.175781 20.476563 20.480469zm0 0" fill="#54596e"/><path d="m268.089844 327.679688h-76.902344v-47.785157h-54.613281v47.785157h-70.070313c-32.933594 0-59.632812 22.886718-59.632812 51.121093v44.453125h314.023437v-50.308594c0-25-23.644531-45.265624-52.804687-45.265624zm0 0" fill="#ffd578"/><path d="m268.089844 327.679688v-6.828126h-70.074219v-40.957031c0-1.800781-.726563-3.554687-2-4.828125-1.269531-1.269531-3.027344-2-4.828125-2h-54.613281c-1.796875 0-3.554688.726563-4.828125 2-1.269532 1.269532-1.996094 3.03125-1.996094 4.828125v40.957031h-63.25c-18.050781.007813-34.511719 6.257813-46.609375 16.617188-12.082031 10.328125-19.859375 25.011719-19.8515625 41.332031v44.453125c0 1.796875.7304685 3.554688 2.0039065 4.824219 1.269531 1.273437 3.027343 2 4.828125 2h314.023437c1.796875 0 3.554688-.726563 4.828125-1.996094 1.269532-1.273437 2-3.03125 2-4.828125v-50.304687c.007813-14.707031-7.003906-27.925781-17.851562-37.191407-10.863282-9.304687-25.617188-14.898437-41.78125-14.902343v13.652343c12.996094-.007812 24.644531 4.53125 32.894531 11.613282 8.265625 7.117187 13.078125 16.53125 13.085937 26.828125v43.476562h-300.375v-37.625c.007813-11.910156 5.582032-22.789062 15.085938-30.964843 9.484375-8.144532 22.839844-13.335938 37.722656-13.328126h70.070313c1.796875 0 3.558593-.726562 4.828125-2 1.269531-1.269531 2-3.027343 2-4.824218v-40.960938h40.960937v40.960938c0 1.796875.726563 3.554687 2 4.824218 1.269531 1.273438 3.027344 2 4.824219 2h76.902344zm0 0" fill="#54596e"/><path d="m102.441406 273.066406v27.308594c0 37.699219-30.566406 68.265625-68.265625 68.265625v-95.574219" fill="#999"/><path d="m95.617188 273.066406v27.308594c-.003907 16.984375-6.867188 32.300781-18 43.441406-11.136719 11.128906-26.453126 17.992188-43.441407 17.996094v6.828125h6.828125v-95.574219c0-3.769531-3.058594-6.828125-6.828125-6.828125s-6.828125 3.058594-6.828125 6.828125v95.574219c0 1.796875.730469 3.554687 2 4.824219 1.273438 1.273437 3.03125 2 4.828125 2 41.472657 0 75.089844-33.617188 75.09375-75.089844v-27.308594c0-3.769531-3.058593-6.828125-6.828125-6.828125-3.769531 0-6.824218 3.058594-6.824218 6.828125zm0 0" fill="#54596e"/><path d="m225.324219 273.066406v27.308594c0 37.699219 30.566406 68.265625 68.265625 68.265625v-95.574219" fill="#999"/><path d="m218.496094 273.066406v27.308594c.003906 41.472656 33.621094 75.085938 75.09375 75.089844 1.796875 0 3.554687-.726563 4.824218-1.996094 1.273438-1.273438 2-3.03125 2-4.828125v-95.570313c0-3.773437-3.054687-6.828124-6.824218-6.828124-3.769532 0-6.828125 3.054687-6.828125 6.828124v95.570313h6.828125v-6.824219c-16.988282-.003906-32.304688-6.867187-43.445313-18-11.128906-11.140625-17.992187-26.457031-17.996093-43.441406v-27.308594c0-3.769531-3.054688-6.828125-6.824219-6.828125-3.773438 0-6.828125 3.058594-6.828125 6.828125zm0 0" fill="#54596e"/><path d="m163.882812 307.199219c-56.554687 0-102.398437-66.324219-102.398437-122.878907v-95.574218h204.796875v95.574218c0 56.554688-45.84375 122.878907-102.398438 122.878907zm0 0" fill="#ffd578"/><g fill="#54596e"><path d="m163.882812 307.199219v-6.824219c-12.792968-.003906-25.050781-3.734375-36.4375-10.328125-17.054687-9.867187-31.980468-26.269531-42.503906-45.300781-10.542968-19.015625-16.648437-40.601563-16.632812-60.425782v-88.75h191.148437v88.75c.046875 26.4375-10.898437 55.984376-28.539062 78.4375-8.800781 11.234376-19.230469 20.703126-30.601563 27.289063-11.378906 6.589844-23.640625 10.324219-36.433594 10.328125v13.652344c15.488282.003906 30.164063-4.554688 43.285157-12.167969 19.695312-11.4375 36.039062-29.644531 47.601562-50.5 11.535157-20.871094 18.324219-44.449219 18.339844-67.039063v-95.574218c0-1.796875-.730469-3.554688-2-4.828125-1.269531-1.269531-3.03125-1.996094-4.828125-1.996094h-204.796875c-1.800781 0-3.558594.726563-4.828125 1.996094-1.273438 1.273437-2 3.03125-2 4.828125v95.574218c.046875 30.117188 12.023438 62.007813 31.445312 86.855469 9.730469 12.414063 21.367188 23.066407 34.5 30.683594 13.117188 7.609375 27.792969 12.167969 43.28125 12.164063zm0 0"/><path d="m116.097656 153.601562c0 5.652344-4.585937 10.238282-10.242187 10.238282s-10.238281-4.585938-10.238281-10.238282c0-5.65625 4.582031-10.242187 10.238281-10.242187s10.242187 4.585937 10.242187 10.242187zm0 0"/><path d="m232.148438 153.601562c0 5.652344-4.582032 10.238282-10.238282 10.238282s-10.242187-4.585938-10.242187-10.238282c0-5.65625 4.585937-10.242187 10.242187-10.242187s10.238282 4.585937 10.238282 10.242187zm0 0"/></g><path d="m157.054688 225.28125h13.65625c7.539062 0 13.652343-6.113281 13.652343-13.65625 0-7.539062-6.113281-13.652344-13.652343-13.652344h-13.65625c-7.539063 0-13.652344 6.113282-13.652344 13.652344 0 7.542969 6.113281 13.65625 13.652344 13.65625" fill="#ff927d"/><path d="m136.574219 218.453125h54.613281c3.773438 0 6.828125-3.054687 6.828125-6.828125 0-3.769531-3.054687-6.824219-6.828125-6.824219h-54.613281c-3.769531 0-6.824219 3.054688-6.824219 6.824219 0 3.773438 3.054688 6.828125 6.824219 6.828125" fill="#ff927d"/><path d="m168.710938 423.179688c-5.894532-19.699219-24.160157-34.066407-45.789063-34.066407-21.648437 0-39.933594 14.402344-45.804687 34.140625zm0 0" fill="#f99"/><path d="m168.710938 423.179688 6.539062-1.957032c-6.738281-22.53125-27.609375-38.921875-52.328125-38.933594-24.742187.011719-45.636719 16.441407-52.347656 39.019532-.621094 2.074218-.226563 4.292968 1.070312 6.03125 1.296875 1.738281 3.308594 2.742187 5.476563 2.742187l91.59375-.074219c2.167968 0 4.175781-1.011718 5.472656-2.75 1.292969-1.738281 1.683594-3.957031 1.0625-6.03125l-6.539062 1.953126-.007813-6.828126-91.59375.074219.007813 6.828125 6.542968 1.945313c5.035156-16.902344 20.710938-29.269531 39.261719-29.257813 18.535156-.011718 34.195313 12.328125 39.246094 29.195313l6.542969-1.957031-.007813-6.828126zm0 0" fill="#54596e"/><path d="m257.457031 423.179688c-5.894531-19.699219-24.160156-34.066407-45.789062-34.066407-21.644531 0-39.929688 14.402344-45.804688 34.140625zm0 0" fill="#f99"/><path d="m257.457031 423.179688 6.539063-1.957032c-6.738282-22.53125-27.609375-38.921875-52.328125-38.933594-24.742188.011719-45.636719 16.441407-52.347657 39.019532-.621093 2.074218-.226562 4.292968 1.070313 6.03125 1.296875 1.738281 3.308594 2.742187 5.476563 2.742187l91.59375-.074219c2.167968 0 4.179687-1.011718 5.472656-2.75 1.292968-1.738281 1.683594-3.957031 1.0625-6.03125l-6.539063 1.953126-.007812-6.828126-91.59375.074219.007812 6.828125 6.542969 1.945313c5.035156-16.902344 20.710938-29.269531 39.261719-29.257813 18.539062-.011718 34.195312 12.328125 39.246093 29.195313l6.542969-1.957031-.007812-6.828126zm0 0" fill="#54596e"/><path d="m266.28125 122.878906h-204.796875v-34.132812l102.398437-20.480469 102.398438 20.480469zm0 0" fill="#f99"/><path d="m266.28125 122.878906v-6.824218h-197.972656v-21.710938l95.574218-19.117188 95.574219 19.117188v28.535156h6.824219v-6.824218 6.824218h6.828125v-34.132812c0-3.253906-2.292969-6.054688-5.488281-6.691406l-102.398438-20.480469c-.890625-.179688-1.789062-.179688-2.679687 0l-102.398438 20.480469c-3.195312.636718-5.488281 3.4375-5.488281 6.691406v34.132812c0 1.796875.726562 3.554688 2 4.828125 1.269531 1.269531 3.027344 2 4.828125 2h204.796875c1.796875 0 3.554688-.726562 4.828125-2 1.269531-1.269531 2-3.03125 2-4.828125zm0 0" fill="#54596e"/></svg>