<svg height="436pt" viewBox="-34 0 436 436.90667" width="436pt" xmlns="http://www.w3.org/2000/svg"><path d="m116.507812 245.761719h136.53125l13.65625 109.226562h54.613282l-.394532-251.421875c-4.015624-73.9375-67.535156-96.738281-136.140624-96.738281-68.605469 0-132.125 22.800781-136.140626 96.738281l-.394531 251.421875h54.613281zm0 0" fill="#999"/><path d="m116.507812 245.761719v6.824219h130.507813l12.902344 103.25c.429687 3.414062 3.335937 5.980468 6.777343 5.980468h54.613282c1.824218 0 3.542968-.714844 4.828125-2.003906 1.289062-1.292969 2-3.011719 1.996093-4.835938l-.390624-251.417968-.011719-.359375c-1.046875-19.433594-6.070313-35.90625-14.296875-49.476563-12.34375-20.398437-31.679688-33.921875-54.132813-42.183594-22.484375-8.289062-48.234375-11.5312495-74.527343-11.539062-35.042969.0273438-69.179688 5.726562-95.796876 21.613281-13.289062 7.945313-24.648437 18.527344-32.867187 32.109375-8.226563 13.570313-13.25 30.042969-14.296875 49.472656l-.011719.359376-.386719 251.421874c-.003906 1.824219.707032 3.542969 1.996094 4.835938 1.285156 1.289062 3.003906 2 4.828125 2h54.613281c3.441407 0 6.347657-2.566406 6.777344-5.980469l13.652344-109.226562-6.773438-.84375v6.824219-6.824219l-6.773437-.851563-12.90625 103.25h-41.75l.378906-244.582031-6.828125-.011719 6.816406.371094c.960938-17.539062 5.386719-31.644531 12.34375-43.144531 10.433594-17.203125 26.777344-28.898438 47.179688-36.449219 20.367188-7.527344 44.640625-10.699219 69.804688-10.691406 33.5625-.027344 65.488281 5.675781 88.78125 19.671875 11.671874 7 21.230468 15.976562 28.199218 27.46875 6.957032 11.5 11.382813 25.605469 12.34375 43.144531l6.816406-.371094-6.828124.007813.382812 244.585937h-41.75l-12.90625-103.246094c-.425781-3.414062-3.332031-5.980468-6.773438-5.980468h-136.53125c-3.441406 0-6.347656 2.566406-6.773437 5.980468zm0 0" fill="#54596e"/><path d="m288.976562 334.507812h-76.894531v-47.789062h-54.617187v47.789062h-70.070313c-32.933593 0-59.632812 22.886719-59.632812 51.117188v44.453125h314.023437v-50.304687c0-25-23.640625-45.265626-52.808594-45.265626zm0 0" fill="#a1b7ff"/><g fill="#54596e"><path d="m288.976562 334.507812v-6.828124h-70.070312v-40.960938c0-1.796875-.726562-3.554688-2-4.828125-1.269531-1.269531-3.027344-1.996094-4.824219-1.996094h-54.617187c-1.796875 0-3.554688.726563-4.824219 1.996094-1.273437 1.273437-2 3.03125-2 4.828125v40.960938h-63.246094c-18.050781.003906-34.515625 6.257812-46.609375 16.617187-12.085937 10.328125-19.859375 25.007813-19.851562 41.328125v44.453125c0 1.800781.730468 3.558594 2 4.828125 1.273437 1.273438 3.03125 2 4.828125 2h314.023437c1.796875 0 3.554688-.726562 4.828125-2 1.269531-1.269531 2-3.027344 2-4.824219v-50.308593c.007813-14.703126-7.003906-27.921876-17.851562-37.191407-10.859375-9.300781-25.617188-14.898437-41.785157-14.898437v13.648437c12.996094-.003906 24.648438 4.535157 32.898438 11.617188 8.265625 7.113281 13.074219 16.527343 13.082031 26.824219v43.480468h-300.371093v-37.625c.007812-11.914062 5.582031-22.792968 15.085937-30.964844 9.484375-8.144531 22.84375-13.335937 37.726563-13.332031h70.066406c1.800781 0 3.558594-.726562 4.828125-1.996093 1.273437-1.273438 2-3.03125 2-4.828126v-40.960937h40.960937v40.960937c0 1.796876.726563 3.554688 2 4.828126 1.269532 1.269531 3.027344 1.996093 4.828125 1.996093h76.894531zm0 0"/><path d="m68.71875 402.773438v20.480468c0 3.769532 3.058594 6.824219 6.828125 6.824219s6.828125-3.054687 6.828125-6.824219v-20.480468c0-3.769532-3.058594-6.828126-6.828125-6.828126s-6.828125 3.058594-6.828125 6.828126"/><path d="m287.171875 402.773438v20.480468c0 3.769532 3.058594 6.824219 6.828125 6.824219s6.828125-3.054687 6.828125-6.824219v-20.480468c0-3.769532-3.058594-6.828126-6.828125-6.828126s-6.828125 3.058594-6.828125 6.828126"/></g><path d="m266.695312 157.011719 28.582032-33.34375c8.203125-9.574219 17.8125-17.839844 28.503906-24.519531l38.484375-24.054688s-20.480469 95.574219-61.4375 116.054688" fill="#a1b7ff"/><path d="m271.875 161.457031 28.585938-33.347656c7.753906-9.050781 16.832031-16.859375 26.9375-23.171875l38.488281-24.054688-3.621094-5.789062-6.671875-1.429688s-.070312.320313-.222656.996094c-1.144532 5.070313-6.792969 28.742188-16.765625 53.1875-4.976563 12.214844-11.039063 24.617188-18.003907 34.894532-6.949218 10.300781-14.820312 18.335937-22.828124 22.296874-3.371094 1.6875-4.738282 5.789063-3.050782 9.160157 1.683594 3.375 5.785156 4.738281 9.160156 3.054687 11.933594-6.019531 21.476563-16.765625 29.554688-29.164062 12.066406-18.636719 20.808594-41.375 26.6875-59.582032 5.863281-18.199218 8.785156-31.828124 8.816406-31.984374.574219-2.679688-.511718-5.445313-2.753906-7.019532-2.242188-1.574218-5.210938-1.652344-7.539062-.199218l-38.484376 24.054687c-11.277343 7.046875-21.417968 15.765625-30.070312 25.863281l-28.582031 33.347656c-2.457031 2.863282-2.125 7.171876.738281 9.625 2.863281 2.457032 7.171875 2.125 9.625-.738281zm0 0" fill="#54596e"/><path d="m102.851562 157.011719-28.582031-33.34375c-8.203125-9.574219-17.8125-17.839844-28.503906-24.519531l-38.484375-24.054688s20.480469 95.574219 61.4375 116.054688" fill="#a1b7ff"/><path d="m108.035156 152.570312-28.582031-33.347656c-8.652344-10.097656-18.792969-18.816406-30.066406-25.863281l-38.488281-24.054687c-2.324219-1.453126-5.292969-1.375-7.539063.199218-2.242187 1.570313-3.328125 4.339844-2.753906 7.019532.050781.210937 5.214843 24.359374 15.667969 51.382812 5.238281 13.515625 11.785156 27.753906 19.839843 40.183594 8.074219 12.394531 17.617188 23.144531 29.554688 29.160156 3.371093 1.6875 7.472656.320312 9.160156-3.050781 1.683594-3.375.316406-7.472657-3.054687-9.160157-8.542969-4.222656-16.921876-13.097656-24.207032-24.382812-10.972656-16.882812-19.507812-38.78125-25.148437-56.335938-2.828125-8.78125-4.953125-16.488281-6.367188-21.972656-.703125-2.746094-1.230469-4.933594-1.582031-6.429687-.175781-.746094-.304688-1.320313-.390625-1.703125l-.121094-.554688-6.675781 1.433594-3.621094 5.789062 38.488282 24.054688c10.105468 6.3125 19.183593 14.125 26.9375 23.171875l28.585937 33.347656c2.453125 2.863281 6.761719 3.195313 9.625.742188 2.859375-2.457031 3.195313-6.765625.738281-9.628907zm0 0" fill="#54596e"/><path d="m184.773438 327.679688c-27.308594 0-109.226563-59.5-109.226563-116.054688l-6.828125-106.183594c0-16.761718 13.589844-30.347656 30.347656-30.347656l30.683594 4.839844c35.96875 10.226562 74.078125 10.226562 110.046875 0l30.683594-4.839844c16.757812 0 30.347656 13.585938 30.347656 30.347656l-6.828125 106.183594c0 56.554688-81.917969 116.054688-109.226562 116.054688zm0 0" fill="#a1b7ff"/><path d="m184.773438 327.679688v-6.828126c-2.1875.023438-5.859376-.683593-10.234376-2.265624-15.488281-5.480469-39.308593-21.082032-58.472656-41.011719-9.621094-9.957031-18.144531-21-24.167968-32.285157-6.035157-11.289062-9.535157-22.75-9.523438-33.664062l-.015625-.4375-6.828125-106.1875-6.8125.441406h6.828125c.023437-12.988281 10.535156-23.5 23.519531-23.523437v-6.828125l-1.0625 6.746094 30.683594 4.839843 1.0625-6.742187-1.867188 6.5625c18.597657 5.289062 37.742188 7.933594 56.890626 7.929687 19.148437 0 38.296874-2.644531 56.890624-7.929687l-1.867187-6.5625 1.0625 6.742187 30.683594-4.839843-1.0625-6.742188v6.828125c12.988281.023437 23.496093 10.53125 23.519531 23.519531h6.828125l-6.8125-.4375-6.828125 106.1875-.015625.433594c.019531 12.464844-4.570313 25.671875-12.253906 38.484375-11.484375 19.210937-29.8125 37.269531-47.609375 50.25-8.890625 6.496094-17.648438 11.738281-25.210938 15.273437-7.511718 3.566407-14.011718 5.285157-17.324218 5.21875v13.65625c4.640624-.023437 9.5-1.175781 14.835937-3.066406 18.480469-6.683594 43.007813-23.03125 63.695313-44.382812 10.308593-10.683594 19.589843-22.617188 26.386718-35.332032 6.785156-12.707031 11.125-26.269531 11.136719-40.101562h-6.828125l6.8125.4375 6.828125-106.1875.011719-.433594c-.003906-20.535156-16.640625-37.167968-37.171875-37.175781l-1.0625.085937-30.683594 4.839844-.804687.175782c-17.375 4.941406-35.265626 7.410156-53.15625 7.410156-17.890626 0-35.78125-2.46875-53.15625-7.410156l-.804688-.179688-30.683594-4.839844-1.0625-.082031c-20.53125.007813-37.167968 16.640625-37.171875 37.175781l.011719.433594 6.828125 106.1875 6.8125-.4375h-6.828125c.019531 15.816406 5.671875 31.25 14.199219 45.5 12.835937 21.378906 32.269531 40.355469 51.269531 54.257812 9.511719 6.945313 18.914062 12.605469 27.472656 16.617188 8.609375 3.976562 16.191406 6.445312 23.113282 6.503906zm0 0" fill="#54596e"/><path d="m177.945312 273.066406h13.65625c7.539063 0 13.652344-6.113281 13.652344-13.652344 0-7.539062-6.113281-13.652343-13.652344-13.652343h-13.65625c-7.539062 0-13.652343 6.113281-13.652343 13.652343 0 7.539063 6.113281 13.652344 13.652343 13.652344" fill="#54596e"/><path d="m157.464844 266.238281h54.617187c3.769531 0 6.824219-3.054687 6.824219-6.824219 0-3.769531-3.054688-6.828124-6.824219-6.828124h-54.617187c-3.769532 0-6.824219 3.058593-6.824219 6.828124 0 3.769532 3.054687 6.824219 6.824219 6.824219" fill="#54596e"/><path d="m212.082031 177.492188-6.828125 40.960937-20.480468 6.828125-20.480469-6.828125-6.828125-40.960937" fill="#a1b7ff"/><path d="m205.34375 176.371094-6.148438 36.90625-14.421874 4.804687-14.421876-4.808593-6.148437-36.902344c-.621094-3.71875-4.140625-6.230469-7.859375-5.613282-3.71875.621094-6.230469 4.136719-5.609375 7.859376l6.828125 40.960937c.414062 2.488281 2.175781 4.554687 4.574219 5.351563l20.480469 6.828124c1.414062.46875 2.902343.46875 4.316406 0l20.480468-6.828124c2.394532-.796876 4.160157-2.863282 4.574219-5.351563l6.828125-40.960937c.621094-3.71875-1.894531-7.238282-5.613281-7.855469-3.71875-.621094-7.238281 1.890625-7.859375 5.609375zm0 0" fill="#54596e"/><path d="m123.332031 150.1875c-9.539062 0-21.742187 3.324219-27.304687 13.652344 5.5625 10.328125 17.765625 20.480468 27.304687 20.480468 9.542969 0 28.570313 3.5 34.132813-6.828124-5.5625-10.324219-24.589844-27.304688-34.132813-27.304688zm0 0" fill="#fff35f"/><path d="m123.332031 150.1875v-6.828125c-5.554687.007813-11.816406.933594-17.839843 3.507813-5.984376 2.554687-11.835938 6.960937-15.472657 13.734374-1.097656 2.03125-1.097656 4.445313 0 6.476563 3.339844 6.15625 8.296875 11.835937 13.988281 16.269531 5.71875 4.359375 12.121094 7.707032 19.328126 7.796875 3.242187-.015625 8.820312.5625 14.695312.570313 4.367188-.011719 8.988281-.296875 13.527344-1.703125 2.265625-.714844 4.527344-1.730469 6.613281-3.246094 2.085937-1.507813 3.972656-3.550781 5.304687-6.035156 1.09375-2.027344 1.09375-4.445313 0-6.476563-3.574218-6.507812-10.035156-13.488281-17.214843-19.53125-3.589844-2.988281-7.335938-5.664062-11.082031-7.714844-3.777344-2.007812-7.453126-3.578124-11.84375-3.648437v13.652344c.378906-.066407 2.660156.484375 5.304687 1.984375 4.035156 2.183594 9.066406 6.074218 13.359375 10.234375 4.308594 4.121093 7.972656 8.675781 9.460938 11.503906l6.003906-3.242187-6.007813-3.238282c-.328125.59375-.695312 1.011719-1.3125 1.46875-.90625.671875-2.484375 1.335938-4.625 1.75-2.132812.421875-4.75.59375-7.488281.589844-5.003906.007812-10.234375-.554688-14.699219-.570312-2.332031.09375-6.800781-1.636719-10.960937-4.9375-4.1875-3.222657-8.113282-7.785157-10.335938-11.953126l-6.007812 3.238282 6.007812 3.238281c1.925782-3.554687 4.957032-5.972656 8.847656-7.664063 3.855469-1.671874 8.464844-2.410156 12.449219-2.402343zm0 0" fill="#54596e"/><path d="m246.214844 150.1875c9.539062 0 21.742187 3.324219 27.304687 13.652344-5.5625 10.328125-17.765625 20.480468-27.304687 20.480468-9.542969 0-28.570313 3.5-34.132813-6.828124 5.5625-10.324219 24.589844-27.304688 34.132813-27.304688zm0 0" fill="#fff35f"/><path d="m246.214844 150.1875v6.824219c3.980468-.007813 8.59375.730469 12.445312 2.402343 3.894532 1.691407 6.925782 4.109376 8.847656 7.664063l6.011719-3.238281-6.007812-3.238282c-2.222657 4.167969-6.148438 8.730469-10.335938 11.957032-4.160156 3.296875-8.628906 5.027344-10.960937 4.9375-4.464844.015625-9.695313.578125-14.699219.570312-3.652344.011719-7.09375-.324218-9.4375-1.078125-1.179687-.371093-2.066406-.816406-2.675781-1.265625-.617188-.457031-.984375-.871094-1.3125-1.46875l-6.007813 3.238282 6.007813 3.238281c1.988281-3.820313 7.824218-10.488281 13.933594-15.519531 3.054687-2.546876 6.203124-4.761719 8.882812-6.21875 2.644531-1.496094 4.929688-2.050782 5.308594-1.980469v-13.652344c-4.394532.070313-8.066406 1.640625-11.847656 3.648437-5.605469 3.074219-11.265626 7.558594-16.296876 12.394532-5.019531 4.871094-9.316406 9.929687-12 14.851562-1.09375 2.03125-1.09375 4.449219 0 6.480469 1.332032 2.480469 3.21875 4.527344 5.304688 6.03125 3.148438 2.273437 6.625 3.433594 10.03125 4.105469 3.417969.667968 6.835938.84375 10.113281.84375 5.875-.007813 11.449219-.582032 14.695313-.566406 7.207031-.09375 13.609375-3.441407 19.328125-7.800782 5.691406-4.433594 10.648437-10.109375 13.988281-16.269531 1.09375-2.027344 1.09375-4.445313 0-6.472656-3.640625-6.773438-9.488281-11.179688-15.476562-13.734375-6.019532-2.574219-12.28125-3.5-17.835938-3.507813v6.824219zm0 0" fill="#54596e"/><path d="m116.507812 341.332031c.003907 37.707031 30.558594 68.261719 68.265626 68.269531 37.707031-.003906 68.261718-30.5625 68.265624-68.269531 0-3.769531-3.054687-6.824219-6.824218-6.824219-3.769532 0-6.828125 3.054688-6.828125 6.824219-.003907 15.105469-6.101563 28.714844-15.996094 38.617188-9.902344 9.894531-23.511719 15.992187-38.617187 15.996093-15.105469-.003906-28.714844-6.101562-38.617188-15.996093-9.894531-9.902344-15.992188-23.511719-15.996094-38.617188 0-3.769531-3.058594-6.824219-6.828125-6.824219s-6.824219 3.054688-6.824219 6.824219zm0 0" fill="#fff"/><path d="m157.464844 129.707031s6.828125-11.1875-27.304688-46.554687" fill="#a1b7ff"/><path d="m163.296875 133.261719c.625-1 1.570313-3.277344 1.554687-6.597657-.007812-4.175781-1.34375-9.839843-5.648437-17.59375-4.320313-7.769531-11.652344-17.722656-24.128906-30.65625-2.617188-2.714843-6.941407-2.789062-9.652344-.171874-2.714844 2.621093-2.789063 6.941406-.171875 9.65625 11.902344 12.320312 18.503906 21.460937 22.019531 27.800781 3.53125 6.355469 3.9375 9.816406 3.929688 10.964843l-.023438.457032-.007812.046875 3.5625.871093-3.089844-1.886718-.476563 1.015625 3.566407.871093-3.09375-1.886718c-1.960938 3.21875-.945313 7.421875 2.273437 9.382812 3.21875 1.960938 7.421875.945313 9.386719-2.273437zm0 0" fill="#54596e"/><path d="m212.636719 129.707031s-6.828125-11.1875 27.304687-46.554687" fill="#a1b7ff"/><path d="m218.464844 126.148438-3.386719 2.066406 3.851563-1.082032-.464844-.984374-3.386719 2.066406 3.851563-1.082032.003906-.011718-.027344-.457032c-.007812-1.152343.398438-4.613281 3.929688-10.964843 3.515624-6.339844 10.117187-15.480469 22.019531-27.804688 2.621093-2.714843 2.542969-7.035156-.167969-9.652343-2.714844-2.621094-7.035156-2.542969-9.65625.171874-12.476562 12.933594-19.808594 22.886719-24.128906 30.65625-4.304688 7.753907-5.640625 13.417969-5.648438 17.59375-.015625 3.320313.929688 5.597657 1.558594 6.597657 1.964844 3.21875 6.164062 4.234375 9.382812 2.273437 3.214844-1.964844 4.230469-6.167968 2.269532-9.386718zm0 0" fill="#54596e"/><path d="m82.375 320.851562v27.308594c0 18.851563-15.285156 34.132813-34.136719 34.132813v-61.441407" fill="#999"/><path d="m75.546875 320.851562v27.308594c-.003906 7.5625-3.046875 14.347656-8 19.308594-4.960937 4.953125-11.746094 7.996094-19.308594 7.996094v6.828125h6.828125v-61.441407c0-3.769531-3.054687-6.824218-6.828125-6.824218-3.769531 0-6.824219 3.054687-6.824219 6.824218v61.441407c0 1.796875.726563 3.554687 2 4.828125 1.269532 1.269531 3.027344 2 4.824219 2 22.625-.003906 40.957031-18.335938 40.960938-40.960938v-27.308594c0-3.769531-3.054688-6.824218-6.824219-6.824218-3.773438 0-6.828125 3.054687-6.828125 6.824218zm0 0" fill="#54596e"/></svg>