<svg height="423pt" viewBox="-6 0 423 423.25333" width="423pt" xmlns="http://www.w3.org/2000/svg"><path d="m65.761719 252.585938h42.8125c1.871093-.03125 3.34375.632812 3.582031.84375l.039062.027343 1.636719-1.929687-2.195312 1.148437.558593.78125 1.636719-1.929687-2.195312 1.152344 4.667969-2.445313h-5.246094c-.007813.953125.28125 1.898437.578125 2.441406l4.667969-2.441406h-5.246094v25.1875h5.105468l-4.40625-2.664063c-.328124.511719-.710937 1.566407-.699218 2.664063h5.105468l-4.40625-2.664063 1.871094 1.132813-1.433594-1.695313-.4375.5625 1.875 1.132813-1.4375-1.695313c.003907.007813-.332031.257813-.988281.472657-.652343.222656-1.582031.402343-2.632812.398437h-42.8125c-7.542969 0-13.65625 6.113282-13.65625 13.652344 0 7.542969 6.113281 13.65625 13.65625 13.65625h42.8125c7.039062-.03125 13.636719-1.902344 19.242187-5.78125 2.789063-1.953125 5.351563-4.476562 7.3125-7.714844 1.960938-3.214844 3.25-7.242187 3.238282-11.457031v-25.1875c.011718-4.21875-1.277344-8.246094-3.238282-11.460937-2.972656-4.859376-7.171875-8.09375-11.695312-10.253907-4.550782-2.140625-9.578125-3.234375-14.859375-3.238281h-42.8125c-7.542969 0-13.65625 6.113281-13.65625 13.652344 0 7.539062 6.113281 13.652344 13.65625 13.652344zm0 0" fill="#54596e"/><path d="m65.761719 300.375h42.8125c1.871093-.03125 3.34375.628906 3.582031.839844l.039062.027344 1.636719-1.929688-2.195312 1.148438.558593.78125 1.640626-1.929688-2.199219 1.148438 4.671875-2.441407h-5.246094c-.007812.949219.277344 1.894531.574219 2.441407l4.671875-2.445313h-5.246094v25.1875h5.105469l-4.40625-2.664063c-.328125.511719-.710938 1.566407-.699219 2.664063h5.105469l-4.40625-2.664063 1.871093 1.132813-1.433593-1.691406-.4375.558593 1.875 1.132813-1.4375-1.691406c.003906.007812-.332031.253906-.988281.472656-.652344.222656-1.582032.398437-2.632813.398437h-42.816406c-7.542969 0-13.65625 6.113282-13.65625 13.652344 0 7.539063 6.113281 13.652344 13.65625 13.652344h42.8125c7.039062-.03125 13.636719-1.898438 19.242187-5.777344 2.789063-1.957031 5.351563-4.476562 7.3125-7.71875 1.960938-3.210937 3.25-7.242187 3.238282-11.457031v-25.1875c.011718-4.214844-1.277344-8.242187-3.238282-11.457031-2.972656-4.863282-7.171875-8.09375-11.695312-10.253906-4.550782-2.144532-9.578125-3.234376-14.859375-3.242188h-42.8125c-7.542969 0-13.65625 6.113281-13.65625 13.652344 0 7.546875 6.113281 13.660156 13.65625 13.660156zm0 0" fill="#54596e"/><path d="m276.605469 281.601562h6.828125c-.003906-78.234374-63.421875-141.652343-141.652344-141.65625-78.234375.003907-141.648438 63.421876-141.65625 141.65625.007812 78.230469 63.421875 141.648438 141.65625 141.652344 78.230469-.003906 141.648438-63.421875 141.652344-141.652344h-13.652344c-.003906 35.363282-14.320312 67.320313-37.492188 90.507813-23.1875 23.171875-55.144531 37.484375-90.507812 37.492187-35.367188-.003906-67.324219-14.320312-90.507812-37.492187-23.175782-23.1875-37.488282-55.144531-37.492188-90.507813.003906-35.367187 14.316406-67.324218 37.492188-90.511718 23.183593-23.171875 55.140624-37.488282 90.507812-37.488282 35.363281 0 67.320312 14.316407 90.507812 37.492188 23.171876 23.183594 37.488282 55.140625 37.492188 90.507812zm0 0" fill="#61c5a8"/><path d="m404.605469 116.054688c0 60.324218-48.902344 109.226562-109.226563 109.226562-60.324218 0-109.226562-48.902344-109.226562-109.226562 0-60.324219 48.902344-109.226563 109.226562-109.226563 60.324219 0 109.226563 48.902344 109.226563 109.226563zm0 0" fill="#9af43b"/><g fill="#54596e"><path d="m404.605469 116.054688h6.828125c-.003906-64.101563-51.953125-116.05078175-116.054688-116.054688-64.097656.00390625-116.050781 51.953125-116.050781 116.054688 0 64.097656 51.953125 116.046874 116.050781 116.050781 64.101563-.003907 116.050782-51.953125 116.054688-116.050781h-13.652344c-.003906 28.296874-11.453125 53.855468-29.992188 72.40625-18.550781 18.542968-44.109374 29.988281-72.410156 29.992187-28.300781-.003906-53.855468-11.449219-72.40625-29.992187-18.542968-18.550782-29.988281-44.109376-29.992187-72.40625.003906-28.304688 11.449219-53.859376 29.992187-72.410157 18.550782-18.542969 44.105469-29.988281 72.40625-29.992187 28.300782.003906 53.859375 11.449218 72.410156 29.992187 18.539063 18.550781 29.988282 44.109375 29.992188 72.410157zm0 0"/><path d="m241.933594 122.46875c10.953125 13.820312 30.820312 30.886719 53.507812 30.886719 22.453125 0 42.144532-16.882813 53.167969-30.472657zm0 0"/><path d="m241.933594 122.46875-5.351563 4.238281c5.878907 7.402344 14.019531 15.585938 23.96875 22.097657 9.933594 6.488281 21.796875 11.359374 34.890625 11.375 12.972656-.011719 24.730469-4.839844 34.589844-11.242188 9.878906-6.429688 17.980469-14.5 23.878906-21.761719 1.65625-2.042969 1.992188-4.84375.863282-7.222656-1.128907-2.378906-3.507813-3.890625-6.140626-3.902344l-106.675781-.414062c-2.632812-.007813-5.015625 1.476562-6.164062 3.84375-1.152344 2.371093-.847657 5.160156.789062 7.222656l5.351563-4.234375-.027344 6.824219 106.675781.414062.027344-6.828125-5.304687-4.296875c-5.125 6.332031-12.375 13.5-20.710938 18.910157-8.355469 5.433593-17.671875 9.046874-27.152344 9.035156-9.59375.011718-19.003906-3.648438-27.417968-9.148438-8.394532-5.476562-15.660157-12.734375-20.738282-19.152344l-5.351562 4.242188-.027344 6.824219zm0 0"/><path d="m247.59375 75.09375c0 7.539062-6.113281 13.652344-13.652344 13.652344-7.542968 0-13.65625-6.113282-13.65625-13.652344s6.113282-13.652344 13.65625-13.652344c7.539063 0 13.652344 6.113282 13.652344 13.652344zm0 0"/><path d="m370.472656 75.09375c0 7.539062-6.113281 13.652344-13.652344 13.652344-7.539062 0-13.652343-6.113282-13.652343-13.652344s6.113281-13.652344 13.652343-13.652344c7.539063 0 13.652344 6.113282 13.652344 13.652344zm0 0"/><path d="m183.199219 334.507812v-13.65625h-10.699219v-68.265624h10.699219c8.402343.003906 15.878906 3.363281 21.398437 8.863281 5.496094 5.515625 8.855469 12.996093 8.863282 21.398437v7.746094c-.007813 8.398438-3.367188 15.878906-8.863282 21.394531-5.519531 5.496094-13 8.855469-21.398437 8.863281v27.308594c31.800781-.007812 57.558593-25.765625 57.566406-57.566406v-7.746094c-.007813-31.796875-25.765625-57.558594-57.566406-57.566406h-24.351563c-3.597656 0-7.113281 1.457031-9.65625 4-2.542968 2.542969-4 6.058594-4 9.652344v95.574218c0 3.59375 1.460938 7.113282 4 9.65625 2.542969 2.542969 6.058594 3.996094 9.65625 3.996094h24.351563zm0 0"/></g><path d="m315.859375 136.535156c0-3.773437-9.167969-6.828125-20.480469-6.828125-11.308594 0-20.480468 3.054688-20.480468 6.828125 0 3.769532 9.171874 6.824219 20.480468 6.824219 11.3125 0 20.480469-3.054687 20.480469-6.824219zm0 0" fill="#f99"/></svg>