<svg height="436pt" viewBox="0 -6 436.90667 436" width="436pt" xmlns="http://www.w3.org/2000/svg"><path d="m361.8125 348.613281h-68.265625v-68.265625h-150.1875v68.265625h-68.265625c-37.703125 0-68.265625 30.558594-68.265625 68.265625h423.25c0-37.707031-30.5625-68.265625-68.265625-68.265625zm0 0" fill="#f99"/><path d="m361.8125 348.613281v-6.828125h-61.4375v-61.4375c0-1.800781-.730469-3.558594-2-4.828125-1.273438-1.273437-3.03125-2-4.828125-2h-150.1875c-1.796875 0-3.554687.726563-4.824219 2-1.273437 1.269531-2 3.03125-2 4.828125v61.4375h-61.441406c-41.476562.003906-75.08984375 33.613282-75.09375 75.09375 0 1.796875.730469 3.554688 2 4.828125 1.273438 1.269531 3.03125 2 4.828125 2h423.25c1.800781 0 3.558594-.726562 4.828125-2 1.273438-1.269531 2-3.027343 2-4.824219-.003906-41.480468-33.617188-75.089843-75.09375-75.09375v13.652344c16.988281.003906 32.304688 6.863282 43.445312 17.992188 11.128907 11.140625 17.992188 26.453125 17.996094 43.445312h6.824219v-6.824218h-423.25v6.824218h6.824219c.003906-16.992187 6.867187-32.304687 17.996094-43.445312 11.140624-11.128906 26.457031-17.988282 43.445312-17.992188h68.265625c1.796875 0 3.554687-.726562 4.828125-2 1.269531-1.269531 2-3.027344 2-4.828125v-61.441406h136.53125v61.441406c0 1.796875.730469 3.554688 2 4.828125 1.273438 1.269532 3.03125 1.996094 4.828125 1.996094h68.265625zm0 0" fill="#54596e"/><path d="m218.453125 7.28125c-64.09375 0-116.054687 51.957031-116.054687 116.050781v136.535157l116.054687 81.917968 116.054687-81.917968v-136.535157c0-64.089843-51.960937-116.050781-116.054687-116.050781zm0 0" fill="#f99"/><path d="m218.453125 7.28125v-6.828125c-67.867187.003906-122.875 55.011719-122.878906 122.878906v136.535157c0 2.214843 1.082031 4.296874 2.886719 5.578124l116.054687 81.917969c2.355469 1.664063 5.515625 1.664063 7.875 0l116.050781-81.917969c1.808594-1.28125 2.890625-3.363281 2.890625-5.578124v-136.535157c-.003906-67.867187-55.011719-122.875-122.878906-122.878906v13.652344c30.179687.003906 57.445313 12.21875 77.234375 31.996093 19.777344 19.785157 31.988281 47.050782 31.992188 77.230469v132.996094l-109.226563 77.101563-109.226563-77.101563v-132.996094c.003907-30.183593 12.214844-57.445312 31.992188-77.234375 19.789062-19.777344 47.050781-31.988281 77.234375-31.992187zm0 0" fill="#54596e"/><path d="m292.1875 157s-22.621094 27.121094-52.039062 21.539062c0 0-2.246094-24.863281 52.039062-21.539062zm0 0" fill="#fff"/><path d="m144.109375 156.964844s22.578125 27.148437 52.003906 21.613281c0 0 2.285157-24.863281-52.003906-21.613281zm0 0" fill="#fff"/><path d="m251.6875 349.273438-66.328125-.152344c-9.484375 1.300781-18.71875-3.300782-22.003906-10.960938l-29.492188-44.835937c-8.441406-9.914063-12.226562-22.140625-10.613281-34.292969l3.511719-33.296875 91.691406-27.308594 91.695313 27.308594 3.515624 33.3125c1.609376 12.148437-2.167968 24.367187-10.597656 34.273437l-29.566406 44.972657c-3.257812 7.59375-12.386719 12.195312-21.8125 10.980469zm0 0" fill="#ffd578"/><path d="m251.6875 349.273438.015625-6.828126-66.328125-.152343-.9375.0625c-.765625.105469-1.527344.15625-2.28125.15625-2.945312.003906-5.75-.792969-7.949219-2.09375-2.210937-1.308594-3.765625-3.054688-4.574219-4.949219l-.570312-1.058594-29.496094-44.835937-.503906-.671875c-6.195312-7.289063-9.34375-15.773438-9.351562-24.367188 0-1.53125.101562-3.066406.304687-4.601562l.023437-.183594 3.035157-28.773438 85.378906-25.425781 85.382813 25.425781 3.039062 28.789063.023438.179687c.203124 1.535157.304687 3.070313.304687 4.601563-.007813 8.589844-3.152344 17.066406-9.335937 24.351563l-.507813.675781-29.5625 44.972656-.570313 1.054687c-.808593 1.894532-2.359374 3.636719-4.574218 4.945313-2.199219 1.300781-5.003906 2.101563-7.949219 2.097656-.707031 0-1.425781-.046875-2.148437-.140625l-.851563-.054687-.015625 6.824219-.867188 6.769531c1.296876.167969 2.59375.25 3.878907.25 5.355469-.003907 10.492187-1.402344 14.890625-3.992188 4.386718-2.585937 8.082031-6.425781 10.183594-11.316406l-6.273438-2.691406 5.707031 3.75 29.5625-44.972657-5.703125-3.75 5.195313 4.421876c8.136719-9.542969 12.601562-21.21875 12.59375-33.199219 0-2.128907-.140625-4.265625-.421875-6.398438l-6.769532.898438 6.789063-.714844-3.515625-33.316406c-.292969-2.746094-2.195312-5.039063-4.839844-5.824219l-91.695312-27.308594c-1.277344-.378906-2.621094-.378906-3.894532 0l-91.691406 27.308594c-2.648437.785156-4.550781 3.078125-4.839844 5.824219l-3.515624 33.300781 6.789062.71875-6.765625-.902344c-.285156 2.132813-.425781 4.273438-.425781 6.402344-.003906 11.988281 4.464844 23.671875 12.609375 33.21875l5.195312-4.425781-5.703125 3.75 29.492188 44.835937 5.703125-3.75-6.273438 2.6875c2.105469 4.894532 5.800781 8.738282 10.1875 11.324219 4.398438 2.589844 9.535157 3.984375 14.886719 3.988281 1.363281 0 2.742188-.089844 4.128906-.28125l-.925781-6.761718-.011719 6.828124 66.324219.152344.015625-6.824218-.867188 6.769531zm0 0" fill="#54596e"/><path d="m191.148438 253.039062h54.613281c3.769531 0 6.824219-3.054687 6.824219-6.824218 0-3.773438-3.054688-6.828125-6.824219-6.828125h-54.613281c-3.773438 0-6.828126 3.054687-6.828126 6.828125 0 3.769531 3.054688 6.824218 6.828126 6.824218" fill="#f99"/><path d="m150.1875 369.09375v-34.132812c0-3.769532-3.058594-6.828126-6.828125-6.828126s-6.824219 3.058594-6.824219 6.828126v34.132812c0 3.769531 3.054688 6.828125 6.824219 6.828125s6.828125-3.058594 6.828125-6.828125" fill="#54596e"/><path d="m300.375 369.09375v-34.132812c0-3.769532-3.058594-6.828126-6.828125-6.828126s-6.828125 3.058594-6.828125 6.828126v34.132812c0 3.769531 3.058594 6.828125 6.828125 6.828125s6.828125-3.058594 6.828125-6.828125" fill="#54596e"/><path d="m294 91.015625c22.363281 0 40.496094-23.570313 40.496094-52.640625 0-8.761719-1.671875-17-4.582032-24.269531l-.09375.753906c-3.765624 28.734375-34.121093 45.925781-61.238281 35.714844l-2.328125-.882813" fill="#f99"/><path d="m294 97.839844c13.671875.003906 25.757812-7.253906 34.046875-18.082032 8.335937-10.863281 13.261719-25.429687 13.273437-41.386718 0-9.628906-1.832031-18.722656-5.066406-26.804688-1.160156-2.886718-4.128906-4.632812-7.214844-4.230468-3.089843.398437-5.515624 2.839843-5.898437 5.929687l-.09375.753906.007813-.050781c-1.292969 9.765625-6.128907 17.84375-13.050782 23.628906-6.914062 5.769532-15.898437 9.117188-25.191406 9.113282-4.582031 0-9.242188-.808594-13.824219-2.53125l.007813.003906-2.328125-.878906c-3.527344-1.332032-7.46875.445312-8.800781 3.972656-1.332032 3.53125.449218 7.46875 3.976562 8.800781l2.328125.878906.007813.003907c6.136718 2.3125 12.449218 3.402343 18.632812 3.402343 12.554688-.007812 24.566406-4.472656 33.933594-12.277343 9.367187-7.789063 16.109375-19.050782 17.84375-32.339844l.007812-.046875.09375-.753907-6.777344-.839843-6.335937 2.539062c2.582031 6.449219 4.089844 13.835938 4.089844 21.730469.011719 13.117188-4.125 24.867188-10.445313 33.058594-6.367187 8.222656-14.527344 12.75-23.222656 12.753906-3.769531 0-6.824219 3.058594-6.824219 6.828125s3.054688 6.824219 6.824219 6.824219zm0 0" fill="#54596e"/><path d="m136.078125 91.015625c-22.363281 0-40.492187-23.570313-40.492187-52.640625 0-8.761719 1.671874-17 4.578124-24.269531l.097657.753906c3.765625 28.734375 34.117187 45.925781 61.234375 35.714844l2.332031-.882813" fill="#f99"/><path d="m136.078125 84.1875c-8.691406-.003906-16.851563-4.53125-23.222656-12.753906-6.316407-8.191406-10.457031-19.945313-10.445313-33.058594 0-7.894531 1.507813-15.28125 4.09375-21.730469l-6.339844-2.539062-6.773437.839843.09375.753907.007813.046875c1.730468 13.289062 8.472656 24.550781 17.84375 32.34375 9.371093 7.804687 21.378906 12.269531 33.933593 12.273437 6.183594 0 12.496094-1.089843 18.632813-3.402343h.007812l2.328125-.882813c3.527344-1.332031 5.308594-5.269531 3.972657-8.796875-1.332032-3.527344-5.269532-5.304688-8.796876-3.972656l-2.328124.878906.007812-.003906c-4.582031 1.722656-9.242188 2.527344-13.824219 2.527344-9.289062.003906-18.277343-3.339844-25.191406-9.113282-6.917969-5.785156-11.757813-13.863281-13.046875-23.625l.003906.046875-.09375-.753906c-.378906-3.089844-2.808594-5.53125-5.898437-5.929687-3.085938-.398438-6.054688 1.34375-7.210938 4.234374-3.238281 8.082032-5.070312 17.175782-5.070312 26.804688.011719 15.953125 4.9375 30.519531 13.277343 41.382812 8.285157 10.828126 20.375 18.089844 34.042969 18.082032 3.769531 0 6.828125-3.054688 6.828125-6.824219-.003906-3.769531-3.0625-6.828125-6.832031-6.828125zm0 0" fill="#54596e"/></svg>