<svg height="436pt" viewBox="0 0 436 436.90729" width="436pt" xmlns="http://www.w3.org/2000/svg"><path d="m430.535156 430.078125h-423.253906v-63.972656c0-10.40625 7.410156-19.332031 17.636719-21.25l193.988281-37.65625 194.246094 37.488281c10.109375 2.019531 17.382812 10.894531 17.382812 21.199219zm0 0" fill="#f99"/><path d="m430.535156 430.078125v-6.824219h-416.429687v-57.148437c0-7.117188 5.070312-13.230469 12.070312-14.542969l.042969-.007812 192.691406-37.402344 192.949219 37.238281-.042969-.011719c6.914063 1.382813 11.890625 7.453125 11.890625 14.507813v64.191406h6.828125v-6.824219 6.824219h6.824219v-64.191406c0-13.5625-9.566406-25.234375-22.867187-27.894531l-.046876-.007813-194.246093-37.488281c-.84375-.164063-1.746094-.160156-2.59375 0l-193.988281 37.65625.039062-.007813c-13.453125 2.527344-23.199219 14.269531-23.203125 27.960938v63.972656c0 1.800781.730469 3.558594 2 4.828125 1.273437 1.273438 3.03125 2 4.828125 2h423.253906c1.796875 0 3.554688-.726562 4.824219-2 1.273437-1.269531 2-3.027344 2-4.828125zm0 0" fill="#54596e"/><path d="m328.132812 348.160156v-95.574218h-218.453124v95.574218l61.441406 81.917969" fill="#f99"/><path d="m334.960938 348.160156v-95.574218c0-1.796876-.730469-3.554688-2-4.828126-1.273438-1.269531-3.03125-1.996093-4.828126-1.996093h-218.453124c-1.796876 0-3.554688.726562-4.824219 1.996093-1.273438 1.273438-2 3.03125-2 4.828126v95.574218c0 1.488282.46875 2.90625 1.363281 4.097656l61.441406 81.917969c2.261719 3.015625 6.539063 3.625 9.554688 1.367188 3.015625-2.261719 3.628906-6.542969 1.367187-9.558594l-60.074219-80.101563v-86.46875h204.800782v88.746094c0 3.769532 3.054687 6.828125 6.824218 6.828125 3.769532 0 6.828126-3.058593 6.828126-6.828125zm0 0" fill="#54596e"/><path d="m341.785156 127.820312c0-66.828124-55.015625-120.996093-122.875-120.996093-67.867187 0-122.882812 54.167969-122.882812 120.996093v148.878907l72.285156 78.289062h101.191406l72.28125-78.289062z" fill="#f99"/><path d="m341.785156 127.820312h6.828125c.003907-35.308593-14.558593-67.324218-38.027343-90.421874-23.464844-23.109376-55.914063-37.40234425-91.679688-37.398438-35.765625-.00390625-68.214844 14.289062-91.679688 37.398438-23.46875 23.097656-38.03125 55.113281-38.027343 90.421874v148.878907c0 1.71875.644531 3.371093 1.8125 4.632812l72.285156 78.285157c1.285156 1.394531 3.113281 2.195312 5.015625 2.195312h101.191406c1.902344 0 3.726563-.800781 5.015625-2.195312l72.285157-78.285157c1.164062-1.265625 1.8125-2.914062 1.8125-4.632812v-148.878907h-13.65625v146.210938l-68.445313 74.128906h-95.214844l-68.445312-74.132812v-146.207032c.003906-31.519531 12.949219-60 33.953125-80.691406 21.011718-20.679687 50-33.472656 82.097656-33.476562 32.101562.003906 61.085938 12.792968 82.101562 33.472656 21 20.695312 33.949219 49.175781 33.953126 80.695312zm0 0" fill="#54596e"/><path d="m320.328125 91.019531-64.027344-40.425781-13.984375 53.671875h-46.816406l-13.988281-53.671875-64.027344 40.425781-7.800781 115.726563 61.4375 100.453125h95.574218l61.4375-100.453125z" fill="#fff35f"/><g fill="#54596e"><path d="m320.332031 91.019531 3.640625-5.773437-64.027344-40.425782c-1.835937-1.15625-4.136718-1.375-6.15625-.578124-2.015624.796874-3.550781 2.53125-4.097656 4.628906l-12.65625 48.566406h-36.261718l-12.65625-48.566406c-.546876-2.097656-2.082032-3.832032-4.097657-4.628906-2.015625-.796876-4.320312-.578126-6.15625.578124l-64.023437 40.425782c-1.851563 1.171875-3.019532 3.128906-3.167969 5.316406l-7.800781 115.726562c-.097656 1.421876.242187 2.804688.988281 4.019532l61.441406 100.453125c1.234375 2.023437 3.449219 3.265625 5.820313 3.265625h95.574218c2.371094 0 4.585938-1.242188 5.824219-3.265625l61.4375-100.453125c.746094-1.21875 1.085938-2.597656.988281-4.019532l-7.800781-115.726562c-.148437-2.1875-1.316406-4.144531-3.167969-5.316406l-3.644531 5.773437-6.8125.460938 7.65625 113.558593-58.308593 95.332032h-87.921876l-58.308593-95.332032 7.425781-110.097656 53.199219-33.59375 11.632812 44.640625c.785157 3.011719 3.496094 5.105469 6.605469 5.105469h46.816406c3.113282 0 5.820313-2.097656 6.605469-5.105469l11.632813-44.640625 56.132812 35.445313 3.644531-5.773438-6.8125.460938zm0 0"/><path d="m191.601562 204.800781-54.613281-20.480469v-13.652343l54.613281 13.652343zm0 0"/><path d="m246.214844 204.800781 54.613281-20.480469v-13.652343l-54.613281 13.652343zm0 0"/></g><path d="m246.214844 184.320312h-54.613282v13.652344h54.613282z" fill="#eee361"/><path d="m266.695312 430.078125c0-26.390625-21.394531-47.785156-47.789062-47.785156s-47.785156 21.394531-47.785156 47.785156zm0 0" fill="#fff35f"/><path d="m266.695312 430.078125h6.824219c-.003906-30.164063-24.445312-54.609375-54.613281-54.613281-30.164062.003906-54.609375 24.449218-54.613281 54.613281 0 1.800781.730469 3.558594 2 4.828125 1.273437 1.273438 3.03125 2 4.828125 2h95.574218c1.796876 0 3.554688-.726562 4.824219-2 1.273438-1.269531 2-3.027344 2-4.828125h-6.824219v-6.824219h-95.574218v6.824219h6.824218c.003907-11.332031 4.574219-21.53125 11.996094-28.960937 7.4375-7.421876 17.632813-11.992188 28.964844-11.996094 11.335938.003906 21.53125 4.574218 28.964844 11.996094 7.421875 7.429687 11.992187 17.628906 11.996094 28.960937h6.828124v-6.824219zm0 0" fill="#54596e"/><path d="m169.625 325.117188 25.253906-31.570313h48.054688l25.253906 31.570313c2.355469 2.945312 6.652344 3.421874 9.597656 1.066406 2.941406-2.355469 3.421875-6.648438 1.066406-9.59375l-27.308593-34.132813c-1.292969-1.621093-3.253907-2.5625-5.328125-2.5625h-54.613282c-2.074218 0-4.039062.941407-5.332031 2.558594l-27.308593 34.136719c-2.355469 2.941406-1.878907 7.238281 1.066406 9.59375 2.945312 2.355468 7.242187 1.878906 9.597656-1.066406zm0 0" fill="#54596e"/><path d="m322.671875 344.0625-61.441406 81.921875c-2.261719 3.015625-1.648438 7.296875 1.367187 9.558594s7.296875 1.648437 9.558594-1.367188l61.4375-81.917969c2.265625-3.019531 1.652344-7.296874-1.363281-9.558593s-7.296875-1.652344-9.558594 1.363281" fill="#54596e"/></svg>