<svg height="374pt" viewBox="-3 0 374 374.68843" width="374pt" xmlns="http://www.w3.org/2000/svg"><path d="m351.914062 70.183594-333.019531 74.871094-11.3125-50.324219c-2.023437-8.996094 3.625-17.921875 12.617188-19.941407l300.46875-67.554687c8.988281-2.019531 17.914062 3.636719 19.9375 12.621094zm0 0" fill="#fff35f"/><path d="m351.914062 70.183594-1.496093-6.660156-326.359375 73.375-9.816406-43.667969c-.167969-.742188-.242188-1.46875-.242188-2.179688 0-4.488281 3.113281-8.585937 7.695312-9.601562l300.46875-67.554688c.742188-.167969 1.46875-.242187 2.171876-.246093 4.488281.003906 8.589843 3.121093 9.605468 7.703124l11.316406 50.328126 6.65625-1.496094-1.496093-6.660156 1.496093 6.660156 6.664063-1.496094-11.316406-50.328125c-2.46875-10.933594-12.144531-18.359375-22.925781-18.359375-1.714844 0-3.449219.1875-5.167969.578125l-300.46875 67.550781h.003906c-10.929687 2.46875-18.359375 12.140625-18.359375 22.921875 0 1.710938.1875 3.449219.578125 5.179688l11.3125 50.324219c.394531 1.753906 1.488281 3.308593 3.007813 4.273437 1.519531.960937 3.394531 1.285156 5.148437.890625l333.023437-74.875c3.675782-.828125 5.988282-4.480469 5.160157-8.15625zm0 0" fill="#54596e"/><path d="m77.34375 124.917969-39.964844 8.984375 8.003906-57.78125 39.960938-8.980469zm0 0" fill="#f99"/><path d="m157.265625 106.949219-39.960937 8.980469 8-57.773438 39.964843-8.988281zm0 0" fill="#f99"/><path d="m237.191406 88.976562-39.960937 8.984376 8.003906-57.773438 39.957031-8.984375zm0 0" fill="#f99"/><path d="m317.113281 71.007812-39.957031 8.988282 8-57.78125 39.964844-8.980469zm0 0" fill="#f99"/><path d="m356.5 367.863281h-329.855469c-3.167969 0-5.738281-2.574219-5.738281-5.742187v-158.097656h341.332031v158.097656c0 3.167968-2.570312 5.742187-5.738281 5.742187" fill="#fff"/><path d="m356.5 367.863281v-6.828125h-329.855469v1.085938h1.085938l-1.085938-1.085938v1.085938h1.085938v-151.273438h327.679687l.003906 151.273438h1.085938v-1.085938l-1.085938 1.085938h1.085938v-1.085938 13.652344c6.949219-.007812 12.558594-5.625 12.5625-12.566406v-158.097656c0-1.800782-.726562-3.558594-1.996094-4.828126-1.273437-1.273437-3.03125-2-4.828125-2h-341.332031c-1.800781 0-3.554688.726563-4.828125 2-1.273437 1.269532-2.003906 3.027344-2.003906 4.828126v158.097656c.011719 6.941406 5.621093 12.558594 12.566406 12.566406h329.859375z" fill="#54596e"/><path d="m20.90625 142.582031h341.332031v61.441407h-341.332031zm0 0" fill="#f99"/><g fill="#54596e"><path d="m362.238281 204.023438v-6.828126h-334.503906v-47.789062h327.679687v54.617188h6.824219v-6.828126 6.828126h6.828125v-61.441407c0-1.800781-.730468-3.558593-2-4.828125-1.273437-1.273437-3.03125-2-4.828125-2h-341.332031c-1.796875 0-3.558594.726563-4.828125 2-1.269531 1.269532-2 3.027344-2 4.828125v61.441407c0 1.796874.730469 3.554687 2 4.824218 1.273437 1.273438 3.03125 2 4.828125 2h341.332031c1.796875 0 3.554688-.726562 4.828125-2 1.269532-1.269531 2-3.027344 2-4.824218zm0 0"/><path d="m253.011719 244.980469c0 7.542969-6.113281 13.65625-13.652344 13.65625s-13.652344-6.113281-13.652344-13.65625c0-7.539063 6.113281-13.652344 13.652344-13.652344s13.652344 6.113281 13.652344 13.652344zm0 0"/><path d="m109.652344 244.980469c0 7.542969-6.113282 13.65625-13.652344 13.65625-7.542969 0-13.652344-6.113281-13.652344-13.65625 0-7.539063 6.109375-13.652344 13.652344-13.652344 7.539062 0 13.652344 6.113281 13.652344 13.652344zm0 0"/><path d="m212.054688 293.976562c-.109376-10.714843-95.46875-10.714843-95.574219 0v.226563c0 18.058594 21.390625 32.699219 47.785156 32.699219s47.789063-14.640625 47.789063-32.699219zm0 0"/></g><path d="m184.746094 306.421875c0-3.769531-9.167969-6.828125-20.480469-6.828125-11.308594 0-20.480469 3.058594-20.480469 6.828125s9.171875 6.828125 20.480469 6.828125c11.3125 0 20.480469-3.058594 20.480469-6.828125zm0 0" fill="#ff927d"/><path d="m355.414062 333.726562h-327.683593v27.308594h327.683593z" fill="#eeeef0"/><path d="m362.238281 333.726562h-6.824219v27.308594h-327.683593v-27.308594h-6.824219v34.136719h341.332031z" fill="#54596e"/></svg>