<svg height="436pt" viewBox="0 -3 436.90837 436" width="436pt" xmlns="http://www.w3.org/2000/svg"><path d="m361.8125 355.441406h-40.039062c-19.359376 0-35.054688-15.695312-35.054688-35.054687v-33.210938h-136.53125v33.210938c0 19.359375-15.695312 35.054687-35.054688 35.054687h-40.039062c-37.699219 0-68.265625 30.558594-68.265625 68.265625h423.253906c0-37.707031-30.566406-68.265625-68.269531-68.265625" fill="#f99"/><path d="m361.8125 355.441406v-6.828125h-40.039062c-7.816407-.007812-14.828126-3.152343-19.957032-8.269531-5.121094-5.125-8.265625-12.140625-8.269531-19.957031v-33.210938c0-1.800781-.730469-3.558593-2-4.828125-1.273437-1.273437-3.03125-2-4.828125-2h-136.53125c-1.796875 0-3.554688.730469-4.828125 2-1.273437 1.269532-2 3.027344-2 4.828125v33.210938c-.007813 7.816406-3.148437 14.832031-8.269531 19.957031-5.128906 5.121094-12.140625 8.261719-19.957032 8.269531h-40.039062c-41.472656.003907-75.08984375 33.613281-75.09375 75.09375 0 1.796875.730469 3.554688 2 4.828125 1.273438 1.269532 3.03125 2 4.828125 2h423.253906c1.796875 0 3.554688-.730468 4.824219-2 1.273438-1.273437 2.003906-3.027344 2.003906-4.828125-.007812-41.480469-33.625-75.089843-75.097656-75.09375v13.652344c16.988281.003906 32.304688 6.863281 43.445312 17.992187 11.128907 11.140626 17.992188 26.457032 17.996094 43.449219h6.828125v-6.828125h-423.257812v6.828125h6.828125c.007812-16.992187 6.867187-32.308593 17.996094-43.449219 11.140624-11.128906 26.457031-17.988281 43.445312-17.992187h40.039062c23.132813-.003906 41.875-18.746094 41.878907-41.878906v-26.386719h122.882812v26.386719c.003907 23.132812 18.746094 41.875 41.878907 41.878906h40.039062z" fill="#54596e"/><path d="m313 53.453125c-21.066406-38.378906-62.398438-46.171875-94.546875-46.171875s-73.480469 7.792969-94.546875 46.171875c-21.066406 38.386719-28.332031 74.136719-28.332031 117.667969 0 87.074218 61.898437 184.320312 122.878906 184.320312s122.878906-97.246094 122.878906-184.320312c0-43.53125-7.265625-79.28125-28.332031-117.667969" fill="#f99"/><path d="m313 53.453125 5.984375-3.285156c-11.339844-20.722657-28.464844-33.382813-46.582031-40.535157-18.144532-7.195312-37.328125-9.167968-53.949219-9.179687-16.621094.007813-35.804687 1.984375-53.949219 9.175781-18.121094 7.15625-35.242187 19.816406-46.582031 40.539063-21.65625 39.367187-29.21875 76.695312-29.175781 120.953125.039062 45.152344 15.898437 92.238281 39.691406 128.558594 11.921875 18.152343 25.847656 33.625 41.066406 44.722656 15.203125 11.074218 31.847656 17.851562 48.949219 17.867187 17.097656-.011719 33.746094-6.792969 48.945313-17.867187 22.8125-16.660156 42.792968-43.105469 57.304687-73.78125 14.476563-30.683594 23.441406-65.632813 23.457031-99.496094.039063-44.257812-7.519531-81.585938-29.175781-120.953125l-5.984375 3.28125-5.984375 3.285156c20.476563 37.402344 27.449219 71.574219 27.492187 114.382813.039063 41.914062-15.050781 86.992187-37.453124 121.066406-11.175782 17.042969-24.160157 31.328125-37.695313 41.179688-13.558594 9.878906-27.515625 15.257812-40.90625 15.25-13.390625.007812-27.347656-5.371094-40.902344-15.25-20.320312-14.773438-39.320312-39.550782-53-68.578126-13.714843-29.015624-22.160156-62.230468-22.148437-93.667968.042968-42.808594 7.015625-76.980469 27.492187-114.382813 9.726563-17.660156 23.804688-28.085937 39.652344-34.421875 15.824219-6.292968 33.378906-8.21875 48.90625-8.207031 15.527344-.011719 33.082031 1.914063 48.90625 8.207031 15.851563 6.339844 29.929687 16.761719 39.65625 34.421875z" fill="#54596e"/><path d="m334.050781 184.046875c-18.066406 68.957031-67.113281 130.433594-115.597656 130.433594-48.480469 0-97.523437-61.464844-115.59375-130.414063 1.929687 27.472656 9.84375 55.664063 21.691406 80.722656 13.679688 29.027344 32.675781 53.808594 52.996094 68.578126 13.546875 9.871093 27.492187 15.25 40.871094 15.25h.035156c13.390625.007812 27.347656-5.367188 40.90625-15.25 13.535156-9.851563 26.515625-24.132813 37.691406-41.175782 20.117188-30.597656 34.335938-70.0625 37-108.144531" fill="#e68f93"/><path d="m340.464844 148.054688c-1.109375 12.039062-3.300782 24.121093-6.414063 35.992187-2.664062 38.082031-16.882812 77.546875-37 108.140625-11.175781 17.042969-24.15625 31.328125-37.691406 41.179688-13.558594 9.878906-27.515625 15.257812-40.90625 15.25-.011719 0-.023437 0-.035156 0-13.378907 0-27.324219-5.378907-40.871094-15.25-20.320313-14.773438-39.320313-39.550782-52.996094-68.578126-11.847656-25.058593-19.761719-53.25-21.691406-80.726562-3.113281-11.875-5.304687-23.964844-6.417969-36.007812-.527344 7.492187-.867187 15.121093-.867187 23.066406 0 87.074218 61.898437 184.320312 122.878906 184.320312s122.878906-97.246094 122.878906-184.320312c0-7.945313-.339843-15.574219-.867187-23.066406" fill="#54596e"/><path d="m170.226562 134.25c-37.222656-27.226562-62.773437 6.980469-37.558593 63.011719 13.3125 29.582031 71.085937 49.964843 72.304687 44.28125 1.027344-4.753907-3.027344-84.089844-34.746094-107.292969zm0 0" fill="#54596e"/><path d="m170.226562 134.25 4.03125-5.511719c-9.742187-7.113281-19.273437-10.828125-28.289062-10.851562-4.503906-.007813-8.839844.972656-12.691406 2.914062-5.800782 2.90625-10.3125 7.894531-13.203125 14.019531-2.90625 6.140626-4.328125 13.429688-4.332031 21.605469.007812 12.585938 3.375 27.347657 10.699218 43.636719 3.535156 7.816406 9.324219 14.550781 16.027344 20.457031 10.074219 8.839844 22.328125 15.851563 33.308594 20.800781 5.492187 2.472657 10.660156 4.414063 15.144531 5.777344 4.539063 1.34375 8.15625 2.179688 11.609375 2.21875 1.21875-.019531 2.453125-.066406 4.144531-.683594.835938-.320312 1.832031-.828124 2.8125-1.773437.980469-.925781 1.851563-2.382813 2.15625-3.875.195313-.964844.207031-1.441406.25-2.101563.03125-.628906.042969-1.3125.042969-2.09375-.015625-8.242187-1.5-29.226562-6.738281-51.535156-2.632813-11.132812-6.195313-22.546875-11.125-32.800781-4.945313-10.234375-11.242188-19.414063-19.816407-25.71875l-4.03125 5.515625-4.03125 5.507812c5.9375 4.3125 11.257813 11.621094 15.574219 20.621094 6.507813 13.476563 10.742188 30.5 13.222657 45.429688 2.5 14.894531 3.296874 27.882812 3.292968 32.984375 0 .617187-.011718 1.105469-.027344 1.402343l-.019531.253907 3.144531.320312-3.082031-.667969-.0625.347657 3.144531.320312-3.082031-.667969 5.855469 1.261719-4.175781-4.300781c-.734375.683594-1.445313 1.859375-1.679688 3.03125l5.855469 1.269531-4.175781-4.300781 3.519531 3.625-1.1875-4.96875c-.347656.105469-1.203125.285156-2.332031 1.34375l3.519531 3.625-1.1875-4.96875.53125 2.222656-.21875-2.277344-.3125.058594.53125 2.222656-.21875-2.277343h-.09375c-.484375.015625-2.113281-.175781-4.167969-.679688-7.363281-1.734375-20.496093-6.921875-32.464843-14.257812-6.007813-3.667969-11.769532-7.871094-16.503907-12.367188-4.746093-4.488281-8.425781-9.265625-10.503906-13.902343-6.703125-14.878907-9.507813-27.910157-9.496094-38.03125-.011719-8.789063 2.109375-15.257813 5.042969-19.148438 1.46875-1.964844 3.113281-3.339844 4.976562-4.277344 1.863282-.929687 3.984376-1.457031 6.554688-1.460937 5.085938-.023438 12.089844 2.25 20.226562 8.21875zm0 0" fill="#54596e"/><path d="m266.679688 134.25c37.222656-27.226562 62.773437 6.980469 37.5625 63.011719-13.316407 29.582031-71.085938 49.964843-72.308594 44.28125-1.027344-4.753907 3.027344-84.089844 34.746094-107.292969zm0 0" fill="#54596e"/><path d="m266.679688 134.25 4.03125 5.507812c8.136718-5.96875 15.140624-8.242187 20.226562-8.21875 2.570312.003907 4.691406.53125 6.558594 1.460938 2.769531 1.40625 5.140625 3.800781 7 7.675781 1.839844 3.855469 3.019531 9.171875 3.015625 15.75.011719 10.121094-2.792969 23.15625-9.492188 38.035157-2.367187 5.296874-6.851562 10.773437-12.59375 15.808593-8.589843 7.570313-19.878906 14.109375-29.894531 18.601563-5.003906 2.253906-9.695312 4.007812-13.507812 5.164062-3.753907 1.167969-6.867188 1.671875-7.644532 1.632813l-.101562-.003907-.199219 3.273438 1.390625-2.902344c-.9375-.417968-1.191406-.351562-1.191406-.371094l-.199219 3.273438 1.390625-2.902344-2.417969 5.046875 4.15625-3.734375c-.640625-.707031-1.28125-1.09375-1.738281-1.3125l-2.417969 5.046875 4.15625-3.734375-4.46875 4.019532 5.875-1.253907c-.207031-1.023437-.765625-2.074219-1.40625-2.765625l-4.46875 4.019532 5.875-1.253907-.003906-.019531-3.097656.671875 3.160156-.324219-.058594-.347656-3.097656.671875 3.160156-.324219c-.011719-.0625-.050781-.738281-.046875-1.652344-.015625-6.847656 1.429688-27.515624 6.375-48.398437 2.464844-10.464844 5.808594-21.03125 10.140625-30.011719 4.316407-9.003906 9.636719-16.3125 15.574219-20.625l-4.039062-5.503906-4.03125-5.511719c-8.574219 6.300781-14.871094 15.484375-19.816407 25.71875-7.382812 15.375-11.746093 33.378907-14.386719 49.097657-2.621093 15.75-3.46875 29.023437-3.476562 35.238281 0 .78125.011719 1.464843.042969 2.097656.042969.660156.054687 1.140625.246093 2.09375v-.019531c.296876 1.5 1.167969 2.960937 2.152344 3.890625 1.5 1.417969 2.917969 1.867187 4.007813 2.144531 1.117187.261719 2.046875.3125 2.957031.320312 2.335938-.015624 4.636719-.417968 7.347656-1.054687 9.3125-2.257813 23.070313-7.78125 36.398438-15.886719 6.644531-4.058594 13.136718-8.761718 18.785156-14.113281 5.636719-5.355469 10.46875-11.363281 13.558594-18.203125 7.316406-16.289062 10.683594-31.046875 10.695312-43.636719-.011718-10.882812-2.519531-20.265625-7.75-27.316406-2.613281-3.503906-5.933594-6.375-9.785156-8.308594-3.847656-1.941406-8.1875-2.921875-12.691406-2.914062-9.015625.023437-18.546875 3.738281-28.285156 10.851562zm0 0" fill="#54596e"/><path d="m239.09375 225.902344 23.558594-40.214844c3.535156-6.03125 9.316406-10.40625 16.074218-12.171875l18.953126-4.953125-5.464844 15.839844c-4.160156 12.046875-12.933594 21.945312-24.402344 27.527344zm0 0" fill="#fff"/><path d="m195.28125 225.902344-23.554688-40.214844c-3.53125-6.03125-9.3125-10.40625-16.074218-12.171875l-18.957032-4.953125 5.472657 15.839844c4.160156 12.046875 12.933593 21.945312 24.390625 27.527344zm0 0" fill="#fff"/><g fill="#54596e"><path d="m218.613281 232.5625-4.042969-5.503906-21.292968 15.648437c-2.359375 1.730469-3.351563 4.800781-2.457032 7.585938l8.132813 25.316406c.90625 2.824219 3.53125 4.738281 6.5 4.738281h26.320313c2.964843 0 5.589843-1.914062 6.496093-4.738281l8.136719-25.316406c.894531-2.785157-.097656-5.855469-2.457031-7.585938l-21.296875-15.648437c-2.410156-1.773438-5.671875-1.773438-8.082032 0l4.042969 5.503906-4.042969 5.5 17.332032 12.734375-5.105469 15.898437h-16.367187l-5.109376-15.898437 17.335938-12.734375-4.042969-5.5-4.042969 5.5zm0 0"/><path d="m169.023438 325.75 40.960937-47.785156c2.453125-2.863282 2.121094-7.175782-.742187-9.628906-2.863282-2.453126-7.171876-2.121094-9.625.742187l-40.960938 47.785156c-2.453125 2.863281-2.121094 7.175781.742188 9.628907 2.859374 2.453124 7.171874 2.121093 9.625-.742188"/><path d="m125.214844 279.9375 75.089844-27.308594c3.542968-1.289062 5.371093-5.203125 4.085937-8.746094-1.289063-3.542968-5.207031-5.371093-8.75-4.085937l-75.09375 27.308594c-3.542969 1.289062-5.371094 5.207031-4.082031 8.75 1.289062 3.542969 5.207031 5.371093 8.75 4.082031"/><path d="m278.25 316.863281-40.960938-47.785156c-2.453124-2.863281-6.761718-3.195313-9.625-.742187-2.863281 2.453124-3.195312 6.761718-.742187 9.625l40.960937 47.789062c2.453126 2.859375 6.765626 3.191406 9.625.738281 2.863282-2.453125 3.195313-6.761719.742188-9.625"/><path d="m316.359375 267.105469-75.09375-27.308594c-3.542969-1.285156-7.460937.542969-8.746094 4.085937-1.289062 3.542969.539063 7.457032 4.082031 8.746094l75.09375 27.308594c3.542969 1.289062 7.457032-.539062 8.746094-4.082031 1.289063-3.542969-.539062-7.460938-4.082031-8.75"/><path d="m225.28125 225.734375v-218.453125c0-3.769531-3.058594-6.828125-6.828125-6.828125s-6.828125 3.058594-6.828125 6.828125v218.453125c0 3.769531 3.058594 6.828125 6.828125 6.828125s6.828125-3.058594 6.828125-6.828125"/><path d="m181.785156 307.167969 34.132813 13.652343c3.5 1.398438 7.472656-.304687 8.871093-3.804687 1.402344-3.5-.300781-7.472656-3.804687-8.875l-34.132813-13.652344c-3.5-1.402343-7.472656.300781-8.871093 3.804688-1.398438 3.5.304687 7.472656 3.804687 8.875"/><path d="m250.050781 294.488281-34.132812 13.652344c-3.5 1.402344-5.203125 5.375-3.804688 8.875 1.402344 3.5 5.371094 5.203125 8.871094 3.804687l34.136719-13.652343c3.5-1.402344 5.203125-5.371094 3.800781-8.875-1.398437-3.5-5.371094-5.207031-8.871094-3.804688"/><path d="m257.917969 305.09375 27.304687-34.132812c2.355469-2.945313 1.878906-7.242188-1.066406-9.597657s-7.238281-1.878906-9.59375 1.066407l-27.308594 34.132812c-2.355468 2.945312-1.875 7.242188 1.066406 9.597656 2.945313 2.351563 7.242188 1.875 9.597657-1.066406"/><path d="m182.953125 289.90625-20.476563-27.308594c-2.261718-3.015625-6.542968-3.625-9.558593-1.363281s-3.628907 6.539063-1.367188 9.554687l20.480469 27.308594c2.261719 3.015625 6.542969 3.625 9.558594 1.363282 3.015625-2.261719 3.625-6.539063 1.363281-9.554688"/><path d="m305.703125 127.597656 27.308594-34.132812c2.351562-2.941406 1.875-7.238282-1.070313-9.59375-2.941406-2.355469-7.238281-1.878906-9.59375 1.066406l-27.304687 34.132812c-2.355469 2.945313-1.878907 7.242188 1.066406 9.59375 2.941406 2.355469 7.238281 1.878907 9.59375-1.066406"/><path d="m141.863281 119.070312-27.308593-34.132812c-2.351563-2.945312-6.648438-3.421875-9.59375-1.066406-2.941407 2.351562-3.421876 6.648437-1.066407 9.59375l27.308594 34.132812c2.355469 2.945313 6.648437 3.421875 9.59375 1.066406 2.945313-2.355468 3.421875-6.652343 1.066406-9.59375"/></g></svg>